<svg xmlns="http://www.w3.org/2000/svg" height="506px" width="254px" version="1.1"><polyline points="164.0,260.0,154.0,276.0,146.0,292.0,146.0,308.0,146.0,324.0,138.0,340.0,124.0,348.0,146.0,352.0,148.0,368.0,152.0,384.0,152.0,400.0,146.0,414.0,128.0,430.0,124.0,446.0,128.0,462.0,134.0,478.0,134.0,484.0,138.0,500.0,126.0,506.0,140.0,490.0,156.0,480.0" stroke="black" stroke-width="1" fill="none" />
<polyline points="154.0,456.0,138.0,456.0" stroke="black" stroke-width="1" fill="none" />
<polyline points="158.0,478.0,154.0,462.0,138.0,468.0,136.0,452.0,138.0,436.0,116.0,434.0" stroke="black" stroke-width="1" fill="none" />
<polyline points="142.0,468.0,128.0,478.0,112.0,482.0" stroke="black" stroke-width="1" fill="none" />
<polyline points="124.0,506.0,104.0,496.0,104.0,480.0,106.0,464.0,110.0,448.0,86.0,436.0,70.0,432.0" stroke="black" stroke-width="1" fill="none" />
<polyline points="54.0,434.0,58.0,424.0,62.0,446.0,62.0,462.0,58.0,478.0,52.0,494.0" stroke="black" stroke-width="1" fill="none" />
<polyline points="64.0,480.0,80.0,478.0" stroke="black" stroke-width="1" fill="none" />
<polyline points="86.0,490.0,70.0,468.0,70.0,452.0,70.0,436.0,70.0,410.0,46.0,396.0,40.0,380.0,44.0,364.0,22.0,352.0,12.0,336.0,10.0,320.0,10.0,304.0,14.0,288.0,20.0,276.0,4.0,272.0,4.0,272.0,4.0,288.0,4.0,304.0,2.0,320.0,4.0,336.0,10.0,352.0,28.0,370.0,34.0,386.0,28.0,396.0,38.0,408.0,42.0,422.0,46.0,438.0,40.0,454.0,38.0,470.0,24.0,500.0,40.0,496.0,42.0,474.0,58.0,486.0,66.0,500.0,82.0,500.0" stroke="black" stroke-width="1" fill="none" />
<polyline points="40.0,496.0,48.0,480.0,52.0,464.0,54.0,448.0,56.0,432.0,40.0,420.0" stroke="black" stroke-width="1" fill="none" />
<polyline points="52.0,402.0,68.0,408.0,78.0,420.0,94.0,424.0,110.0,420.0,126.0,410.0,128.0,416.0,138.0,420.0" stroke="black" stroke-width="1" fill="none" />
<polyline points="164.0,378.0,180.0,386.0" stroke="black" stroke-width="1" fill="none" />
<polyline points="208.0,358.0,224.0,360.0" stroke="black" stroke-width="1" fill="none" />
<polyline points="224.0,350.0,208.0,352.0" stroke="black" stroke-width="1" fill="none" />
<polyline points="224.0,328.0,208.0,310.0" stroke="black" stroke-width="1" fill="none" />
<polyline points="202.0,296.0,202.0,312.0,206.0,330.0,206.0,346.0,206.0,372.0,206.0,388.0,196.0,404.0,200.0,408.0" stroke="black" stroke-width="1" fill="none" />
<polyline points="188.0,394.0,188.0,386.0,170.0,392.0,164.0,378.0,164.0,362.0,166.0,346.0,170.0,330.0,162.0,308.0,154.0,304.0,158.0,288.0,172.0,272.0,188.0,278.0,178.0,274.0,162.0,282.0,162.0,292.0" stroke="black" stroke-width="1" fill="none" />
<polyline points="158.0,306.0,170.0,308.0,164.0,324.0,146.0,346.0,154.0,354.0,156.0,372.0,156.0,388.0,162.0,404.0,158.0,408.0,178.0,410.0,194.0,408.0" stroke="black" stroke-width="1" fill="none" />
<polyline points="134.0,370.0,138.0,386.0,146.0,392.0,138.0,394.0,122.0,410.0,116.0,438.0,118.0,454.0,118.0,470.0,102.0,490.0" stroke="black" stroke-width="1" fill="none" />
<polyline points="44.0,472.0,44.0,456.0" stroke="black" stroke-width="1" fill="none" />
<polyline points="36.0,472.0,20.0,478.0,20.0,478.0,20.0,494.0" stroke="black" stroke-width="1" fill="none" />
<polyline points="30.0,362.0,14.0,360.0" stroke="black" stroke-width="1" fill="none" />
<polyline points="14.0,338.0,30.0,354.0,44.0,344.0,40.0,340.0,52.0,338.0,60.0,328.0,76.0,326.0,92.0,330.0,108.0,328.0,114.0,338.0,130.0,340.0,130.0,352.0" stroke="black" stroke-width="1" fill="none" />
<polyline points="160.0,340.0,152.0,336.0,130.0,366.0,114.0,362.0,98.0,342.0,82.0,340.0,66.0,344.0,52.0,362.0,54.0,356.0,76.0,340.0" stroke="black" stroke-width="1" fill="none" />
<polyline points="146.0,286.0,162.0,264.0,178.0,260.0,194.0,260.0,202.0,268.0,216.0,282.0,220.0,284.0,230.0,300.0,228.0,310.0,240.0,326.0,254.0,330.0,250.0,346.0,246.0,362.0,232.0,368.0,240.0,372.0" stroke="black" stroke-width="1" fill="none" />
<polyline points="242.0,338.0,234.0,358.0,232.0,350.0,230.0,334.0,220.0,318.0,208.0,322.0,218.0,310.0,208.0,294.0,196.0,294.0,196.0,294.0,196.0,310.0,194.0,326.0,196.0,342.0,196.0,358.0,196.0,374.0,212.0,374.0,228.0,374.0" stroke="black" stroke-width="1" fill="none" />
<polyline points="250.0,318.0,234.0,314.0,230.0,304.0,222.0,300.0,206.0,288.0,190.0,282.0" stroke="black" stroke-width="1" fill="none" />
<polyline points="190.0,294.0,188.0,310.0" stroke="black" stroke-width="1" fill="none" />
</svg>