<svg xmlns="http://www.w3.org/2000/svg" height="510px" width="254px" version="1.1"><polyline points="236.0,276.0,240.0,292.0,240.0,308.0,238.0,324.0,226.0,340.0,214.0,350.0,224.0,378.0,230.0,362.0" stroke="black" stroke-width="1" fill="none" />
<polyline points="212.0,362.0,210.0,346.0" stroke="black" stroke-width="1" fill="none" />
<polyline points="180.0,324.0,180.0,314.0,184.0,298.0,192.0,290.0,200.0,284.0,196.0,276.0" stroke="black" stroke-width="1" fill="none" />
<polyline points="204.0,268.0,220.0,264.0,246.0,272.0,254.0,280.0,254.0,296.0,250.0,312.0,248.0,328.0,240.0,344.0,246.0,350.0,228.0,366.0,212.0,382.0,216.0,398.0,210.0,414.0,200.0,416.0,202.0,434.0,218.0,436.0,234.0,438.0,250.0,414.0" stroke="black" stroke-width="1" fill="none" />
<polyline points="234.0,424.0,238.0,408.0,226.0,424.0,226.0,416.0,226.0,406.0,210.0,376.0,196.0,372.0,184.0,364.0,194.0,356.0,204.0,342.0,186.0,326.0,190.0,310.0,200.0,294.0,216.0,278.0,212.0,286.0" stroke="black" stroke-width="1" fill="none" />
<polyline points="232.0,262.0,248.0,274.0" stroke="black" stroke-width="1" fill="none" />
<polyline points="230.0,334.0,226.0,340.0,212.0,346.0,196.0,332.0,194.0,318.0,186.0,316.0" stroke="black" stroke-width="1" fill="none" />
<polyline points="160.0,334.0,138.0,350.0,130.0,366.0,132.0,382.0,136.0,398.0,152.0,414.0,156.0,434.0,172.0,434.0,188.0,434.0,204.0,428.0,220.0,430.0" stroke="black" stroke-width="1" fill="none" />
<polyline points="198.0,380.0,190.0,358.0,170.0,380.0,174.0,380.0,188.0,372.0,180.0,378.0,164.0,370.0,166.0,368.0,164.0,384.0,170.0,386.0" stroke="black" stroke-width="1" fill="none" />
<polyline points="142.0,398.0,142.0,418.0" stroke="black" stroke-width="1" fill="none" />
<polyline points="132.0,416.0,138.0,414.0,112.0,404.0" stroke="black" stroke-width="1" fill="none" />
<polyline points="120.0,378.0,124.0,394.0,118.0,410.0,122.0,420.0,112.0,436.0,110.0,452.0,120.0,468.0,134.0,476.0,120.0,488.0,110.0,494.0,98.0,500.0,126.0,506.0,142.0,506.0" stroke="black" stroke-width="1" fill="none" />
<polyline points="134.0,496.0,142.0,480.0,122.0,470.0" stroke="black" stroke-width="1" fill="none" />
<polyline points="142.0,476.0,136.0,496.0,118.0,496.0,102.0,486.0,110.0,470.0,94.0,466.0,110.0,476.0,102.0,460.0" stroke="black" stroke-width="1" fill="none" />
<polyline points="94.0,438.0,78.0,450.0,62.0,452.0" stroke="black" stroke-width="1" fill="none" />
<polyline points="50.0,476.0,66.0,472.0,82.0,466.0,88.0,474.0,82.0,480.0,82.0,496.0" stroke="black" stroke-width="1" fill="none" />
<polyline points="70.0,494.0,56.0,484.0" stroke="black" stroke-width="1" fill="none" />
<polyline points="30.0,492.0,34.0,476.0,40.0,452.0,40.0,436.0,46.0,420.0,42.0,412.0" stroke="black" stroke-width="1" fill="none" />
<polyline points="40.0,402.0,56.0,404.0,72.0,404.0,88.0,402.0,104.0,412.0,102.0,428.0,100.0,444.0,98.0,458.0,96.0,474.0,90.0,488.0" stroke="black" stroke-width="1" fill="none" />
<polyline points="38.0,488.0,42.0,472.0,20.0,482.0" stroke="black" stroke-width="1" fill="none" />
<polyline points="22.0,412.0,38.0,414.0,32.0,416.0,22.0,432.0,46.0,420.0,62.0,414.0,78.0,414.0,94.0,416.0,118.0,426.0,134.0,406.0,150.0,426.0,166.0,430.0" stroke="black" stroke-width="1" fill="none" />
<polyline points="238.0,436.0,246.0,420.0,248.0,404.0,242.0,392.0,226.0,392.0,214.0,390.0,206.0,402.0,194.0,414.0,180.0,418.0,164.0,416.0,148.0,412.0,142.0,394.0,116.0,368.0,100.0,366.0,84.0,350.0,72.0,342.0,68.0,326.0,70.0,308.0,70.0,304.0,86.0,302.0,96.0,308.0,112.0,310.0,126.0,334.0,152.0,330.0" stroke="black" stroke-width="1" fill="none" />
<polyline points="122.0,340.0,124.0,324.0,118.0,314.0" stroke="black" stroke-width="1" fill="none" />
<polyline points="94.0,344.0,110.0,346.0,110.0,354.0,126.0,350.0,154.0,344.0" stroke="black" stroke-width="1" fill="none" />
<polyline points="118.0,370.0,114.0,386.0,112.0,412.0,92.0,420.0,82.0,426.0" stroke="black" stroke-width="1" fill="none" />
<polyline points="96.0,448.0,76.0,458.0,60.0,460.0,58.0,450.0,42.0,454.0,16.0,436.0,14.0,412.0" stroke="black" stroke-width="1" fill="none" />
<polyline points="0.0,386.0,4.0,392.0,4.0,408.0,2.0,424.0,12.0,436.0,20.0,452.0,20.0,468.0,24.0,476.0,22.0,492.0,20.0,510.0,36.0,502.0" stroke="black" stroke-width="1" fill="none" />
<polyline points="106.0,506.0,90.0,506.0,64.0,506.0,60.0,506.0,44.0,502.0,36.0,502.0,44.0,486.0,52.0,472.0,50.0,450.0,28.0,438.0,20.0,426.0,12.0,410.0,12.0,394.0,16.0,380.0,0.0,378.0" stroke="black" stroke-width="1" fill="none" />
<polyline points="64.0,290.0,80.0,294.0,96.0,286.0,118.0,306.0,136.0,322.0,130.0,330.0,124.0,346.0,136.0,352.0,152.0,338.0,168.0,334.0,184.0,344.0,194.0,362.0,204.0,360.0" stroke="black" stroke-width="1" fill="none" />
<polyline points="230.0,286.0,230.0,274.0,214.0,280.0,198.0,298.0,184.0,288.0,174.0,318.0,158.0,322.0,142.0,322.0,126.0,310.0,116.0,300.0,100.0,296.0,76.0,290.0,60.0,286.0,60.0,286.0,62.0,302.0,62.0,318.0,76.0,320.0,92.0,338.0,82.0,352.0" stroke="black" stroke-width="1" fill="none" />
</svg>