<svg xmlns="http://www.w3.org/2000/svg" height="508px" width="250px" version="1.1"><polyline points="18.0,288.0,20.0,304.0" stroke="black" stroke-width="1" fill="none" />
<polyline points="34.0,310.0,50.0,294.0,66.0,286.0,82.0,282.0,98.0,286.0,114.0,292.0,130.0,306.0,146.0,320.0" stroke="black" stroke-width="1" fill="none" />
<polyline points="172.0,310.0,172.0,320.0,188.0,324.0,204.0,342.0,220.0,360.0,226.0,362.0" stroke="black" stroke-width="1" fill="none" />
<polyline points="212.0,344.0,228.0,340.0,222.0,332.0,236.0,340.0,240.0,356.0,234.0,370.0,222.0,378.0,220.0,394.0,230.0,396.0,230.0,412.0,238.0,412.0,240.0,430.0,212.0,434.0,196.0,440.0,188.0,456.0,166.0,472.0,150.0,480.0" stroke="black" stroke-width="1" fill="none" />
<polyline points="162.0,452.0,178.0,454.0,188.0,440.0,214.0,442.0,230.0,432.0" stroke="black" stroke-width="1" fill="none" />
<polyline points="234.0,422.0,218.0,416.0,202.0,430.0,186.0,434.0,170.0,432.0,152.0,432.0,152.0,418.0,136.0,396.0,120.0,396.0,112.0,398.0,106.0,382.0,106.0,366.0,116.0,346.0,130.0,338.0,128.0,320.0,140.0,304.0,124.0,288.0,114.0,272.0,98.0,270.0,82.0,272.0,66.0,274.0,50.0,282.0,34.0,286.0,18.0,288.0" stroke="black" stroke-width="1" fill="none" />
<polyline points="42.0,276.0,58.0,270.0,54.0,278.0,36.0,294.0,24.0,310.0,8.0,326.0,8.0,342.0,6.0,358.0,4.0,374.0,4.0,390.0,6.0,406.0,8.0,422.0,8.0,438.0,14.0,438.0,20.0,460.0,30.0,472.0,34.0,488.0,50.0,490.0,52.0,506.0,66.0,502.0,80.0,504.0,98.0,508.0,114.0,508.0,130.0,506.0,156.0,498.0,180.0,488.0" stroke="black" stroke-width="1" fill="none" />
<polyline points="182.0,420.0,196.0,404.0,202.0,390.0,206.0,388.0,218.0,374.0,212.0,358.0,208.0,346.0,212.0,336.0,204.0,320.0,200.0,322.0,178.0,306.0,176.0,290.0,152.0,290.0" stroke="black" stroke-width="1" fill="none" />
<polyline points="162.0,288.0,170.0,304.0,170.0,306.0,172.0,322.0,184.0,330.0,198.0,332.0,194.0,334.0" stroke="black" stroke-width="1" fill="none" />
<polyline points="194.0,316.0,178.0,306.0" stroke="black" stroke-width="1" fill="none" />
<polyline points="170.0,342.0,174.0,358.0,182.0,360.0,162.0,374.0,152.0,390.0,138.0,398.0,140.0,414.0,142.0,430.0,144.0,430.0" stroke="black" stroke-width="1" fill="none" />
<polyline points="158.0,428.0,146.0,412.0" stroke="black" stroke-width="1" fill="none" />
<polyline points="150.0,396.0,124.0,390.0,108.0,384.0,112.0,382.0,128.0,380.0" stroke="black" stroke-width="1" fill="none" />
<polyline points="112.0,370.0,112.0,374.0,120.0,358.0,146.0,338.0" stroke="black" stroke-width="1" fill="none" />
<polyline points="164.0,334.0,158.0,344.0,146.0,356.0,126.0,360.0,108.0,354.0,108.0,358.0,110.0,342.0" stroke="black" stroke-width="1" fill="none" />
<polyline points="112.0,364.0,128.0,370.0" stroke="black" stroke-width="1" fill="none" />
<polyline points="170.0,374.0,170.0,390.0,158.0,402.0,164.0,418.0" stroke="black" stroke-width="1" fill="none" />
<polyline points="172.0,414.0,172.0,398.0" stroke="black" stroke-width="1" fill="none" />
<polyline points="174.0,376.0,184.0,392.0,184.0,408.0,198.0,402.0,214.0,394.0,234.0,392.0,250.0,370.0" stroke="black" stroke-width="1" fill="none" />
<polyline points="202.0,376.0,188.0,382.0,172.0,374.0" stroke="black" stroke-width="1" fill="none" />
<polyline points="222.0,378.0,242.0,372.0,250.0,356.0,250.0,340.0,244.0,332.0,228.0,330.0,218.0,352.0,210.0,366.0,198.0,372.0,182.0,358.0,172.0,370.0,156.0,378.0,154.0,368.0,148.0,372.0,150.0,366.0,142.0,350.0,154.0,334.0,152.0,320.0,152.0,304.0,154.0,288.0,140.0,280.0" stroke="black" stroke-width="1" fill="none" />
<polyline points="112.0,280.0,128.0,280.0,154.0,264.0,158.0,278.0,174.0,284.0,176.0,298.0,192.0,308.0,208.0,308.0,218.0,326.0,234.0,324.0,250.0,324.0" stroke="black" stroke-width="1" fill="none" />
<polyline points="228.0,408.0,208.0,406.0,200.0,422.0,194.0,416.0,194.0,424.0,178.0,424.0,162.0,430.0,156.0,412.0,148.0,396.0,142.0,374.0,132.0,358.0,136.0,336.0,144.0,320.0,144.0,300.0,124.0,282.0,116.0,274.0,100.0,276.0" stroke="black" stroke-width="1" fill="none" />
<polyline points="102.0,288.0,110.0,304.0,104.0,304.0,106.0,306.0,122.0,304.0" stroke="black" stroke-width="1" fill="none" />
<polyline points="134.0,296.0,132.0,290.0,140.0,286.0,140.0,270.0,112.0,268.0" stroke="black" stroke-width="1" fill="none" />
<polyline points="88.0,290.0,68.0,304.0,60.0,296.0,64.0,306.0,74.0,290.0" stroke="black" stroke-width="1" fill="none" />
<polyline points="56.0,288.0,60.0,296.0,34.0,316.0,22.0,332.0,18.0,348.0,16.0,364.0,12.0,380.0,16.0,396.0,18.0,406.0,18.0,422.0,34.0,432.0,38.0,448.0,56.0,470.0,78.0,486.0,88.0,488.0,104.0,484.0,120.0,484.0,142.0,470.0,150.0,480.0,166.0,466.0,174.0,466.0,190.0,454.0,206.0,438.0,222.0,446.0" stroke="black" stroke-width="1" fill="none" />
<polyline points="220.0,414.0,224.0,430.0,218.0,436.0,206.0,452.0,194.0,468.0,170.0,484.0,138.0,504.0" stroke="black" stroke-width="1" fill="none" />
<polyline points="142.0,484.0,142.0,478.0,128.0,486.0,114.0,490.0,98.0,490.0,80.0,480.0,64.0,478.0" stroke="black" stroke-width="1" fill="none" />
<polyline points="70.0,476.0,54.0,472.0,44.0,458.0,44.0,452.0,28.0,444.0" stroke="black" stroke-width="1" fill="none" />
<polyline points="8.0,446.0,24.0,456.0,30.0,468.0,46.0,478.0,50.0,488.0,64.0,500.0,80.0,502.0" stroke="black" stroke-width="1" fill="none" />
<polyline points="188.0,480.0,196.0,476.0,208.0,458.0,198.0,460.0,182.0,474.0,166.0,488.0,150.0,494.0,134.0,500.0,118.0,502.0,102.0,502.0,86.0,500.0,70.0,494.0,54.0,486.0,50.0,484.0,40.0,462.0,28.0,446.0,30.0,430.0,26.0,414.0,16.0,412.0" stroke="black" stroke-width="1" fill="none" />
<polyline points="8.0,342.0,14.0,324.0,30.0,300.0,50.0,304.0" stroke="black" stroke-width="1" fill="none" />
</svg>