<svg xmlns="http://www.w3.org/2000/svg" height="504px" width="246px" version="1.1"><polyline points="24.0,264.0,20.0,280.0,28.0,296.0,30.0,312.0,32.0,326.0,8.0,342.0,20.0,332.0,46.0,324.0,62.0,322.0,70.0,308.0" stroke="black" stroke-width="1" fill="none" />
<polyline points="92.0,318.0,108.0,308.0,118.0,324.0,134.0,318.0,148.0,304.0" stroke="black" stroke-width="1" fill="none" />
<polyline points="152.0,310.0,146.0,326.0,126.0,332.0,148.0,326.0,164.0,322.0,192.0,324.0" stroke="black" stroke-width="1" fill="none" />
<polyline points="194.0,310.0,178.0,304.0" stroke="black" stroke-width="1" fill="none" />
<polyline points="184.0,330.0,168.0,330.0,152.0,338.0,136.0,346.0,136.0,350.0,152.0,362.0" stroke="black" stroke-width="1" fill="none" />
<polyline points="106.0,356.0,134.0,358.0,146.0,374.0,150.0,390.0,152.0,406.0,150.0,422.0,148.0,438.0,144.0,454.0,136.0,460.0" stroke="black" stroke-width="1" fill="none" />
<polyline points="158.0,442.0,174.0,442.0,190.0,438.0,206.0,430.0,222.0,420.0" stroke="black" stroke-width="1" fill="none" />
<polyline points="230.0,382.0,214.0,354.0,212.0,350.0,228.0,356.0,234.0,362.0" stroke="black" stroke-width="1" fill="none" />
<polyline points="218.0,350.0,236.0,366.0,244.0,382.0,246.0,398.0,240.0,414.0,224.0,430.0,192.0,446.0" stroke="black" stroke-width="1" fill="none" />
<polyline points="188.0,438.0,218.0,422.0,232.0,406.0,232.0,390.0,226.0,374.0,212.0,366.0,212.0,350.0,214.0,342.0" stroke="black" stroke-width="1" fill="none" />
<polyline points="138.0,362.0,122.0,370.0,106.0,370.0,90.0,360.0,74.0,382.0" stroke="black" stroke-width="1" fill="none" />
<polyline points="62.0,380.0,78.0,356.0,80.0,372.0,74.0,388.0,72.0,404.0,74.0,420.0,80.0,436.0,90.0,452.0,92.0,454.0,76.0,422.0" stroke="black" stroke-width="1" fill="none" />
<polyline points="64.0,432.0,80.0,456.0,96.0,470.0" stroke="black" stroke-width="1" fill="none" />
<polyline points="84.0,486.0,96.0,488.0,90.0,468.0,74.0,452.0,66.0,436.0,62.0,420.0,60.0,404.0,62.0,388.0,66.0,372.0,78.0,356.0,72.0,350.0,56.0,344.0,40.0,346.0,24.0,352.0" stroke="black" stroke-width="1" fill="none" />
<polyline points="10.0,340.0,26.0,336.0,42.0,334.0" stroke="black" stroke-width="1" fill="none" />
<polyline points="34.0,286.0,22.0,286.0" stroke="black" stroke-width="1" fill="none" />
<polyline points="20.0,270.0,36.0,264.0,52.0,268.0,68.0,274.0,84.0,276.0,100.0,276.0,116.0,276.0,132.0,276.0,148.0,268.0,164.0,264.0,180.0,260.0,186.0,266.0,192.0,282.0,176.0,298.0,176.0,320.0,148.0,340.0,146.0,358.0,158.0,374.0,162.0,390.0,162.0,406.0,162.0,422.0,160.0,438.0,148.0,462.0,134.0,478.0,122.0,498.0,138.0,504.0,154.0,504.0" stroke="black" stroke-width="1" fill="none" />
<polyline points="160.0,492.0,144.0,484.0,136.0,496.0,134.0,490.0,114.0,478.0,98.0,486.0,82.0,492.0,66.0,486.0" stroke="black" stroke-width="1" fill="none" />
<polyline points="70.0,476.0,70.0,492.0,78.0,476.0,94.0,474.0" stroke="black" stroke-width="1" fill="none" />
<polyline points="122.0,460.0,122.0,444.0,120.0,428.0,122.0,412.0,122.0,406.0" stroke="black" stroke-width="1" fill="none" />
<polyline points="128.0,408.0,132.0,424.0,132.0,440.0,134.0,456.0" stroke="black" stroke-width="1" fill="none" />
<polyline points="150.0,486.0,156.0,502.0" stroke="black" stroke-width="1" fill="none" />
<polyline points="110.0,420.0,94.0,402.0,96.0,400.0,96.0,416.0,98.0,432.0,100.0,448.0,114.0,470.0,142.0,472.0,158.0,454.0,174.0,452.0,190.0,448.0,206.0,440.0,222.0,432.0,238.0,416.0" stroke="black" stroke-width="1" fill="none" />
<polyline points="146.0,504.0,118.0,490.0,110.0,466.0,112.0,450.0,112.0,434.0,108.0,418.0,100.0,402.0" stroke="black" stroke-width="1" fill="none" />
<polyline points="110.0,364.0,96.0,360.0" stroke="black" stroke-width="1" fill="none" />
<polyline points="98.0,316.0,106.0,332.0,108.0,332.0,108.0,316.0" stroke="black" stroke-width="1" fill="none" />
<polyline points="128.0,284.0,112.0,282.0,96.0,282.0,80.0,284.0,64.0,282.0,48.0,274.0,32.0,272.0,32.0,272.0,34.0,288.0,46.0,304.0,42.0,320.0,42.0,338.0,22.0,350.0,38.0,340.0,54.0,334.0,70.0,330.0,70.0,342.0,84.0,344.0,100.0,346.0,116.0,344.0,132.0,340.0,148.0,334.0,152.0,316.0,168.0,310.0,186.0,292.0" stroke="black" stroke-width="1" fill="none" />
<polyline points="176.0,270.0,176.0,286.0,168.0,304.0,166.0,318.0,190.0,316.0" stroke="black" stroke-width="1" fill="none" />
<polyline points="174.0,288.0,154.0,296.0,156.0,280.0,168.0,268.0" stroke="black" stroke-width="1" fill="none" />
<polyline points="176.0,268.0,160.0,272.0,144.0,280.0,158.0,264.0" stroke="black" stroke-width="1" fill="none" />
</svg>