<svg xmlns="http://www.w3.org/2000/svg" height="506px" width="254px" version="1.1"><polyline points="36.0,256.0,16.0,272.0,2.0,288.0,4.0,300.0,2.0,316.0,4.0,332.0,10.0,332.0,12.0,324.0,32.0,320.0,42.0,318.0,50.0,298.0,68.0,280.0,84.0,276.0,100.0,282.0,118.0,270.0,134.0,268.0,150.0,278.0" stroke="black" stroke-width="1" fill="none" />
<polyline points="150.0,264.0,160.0,280.0,166.0,296.0,166.0,312.0,150.0,334.0,156.0,328.0,172.0,324.0,188.0,322.0,204.0,328.0,214.0,334.0,230.0,336.0,234.0,338.0" stroke="black" stroke-width="1" fill="none" />
<polyline points="246.0,344.0,228.0,346.0,234.0,330.0,244.0,314.0,246.0,298.0,242.0,282.0,242.0,280.0" stroke="black" stroke-width="1" fill="none" />
<polyline points="254.0,282.0,254.0,298.0,252.0,314.0,248.0,330.0,240.0,346.0,234.0,360.0,234.0,376.0,234.0,392.0,228.0,408.0,218.0,424.0,206.0,440.0,206.0,456.0,206.0,472.0,196.0,496.0,202.0,484.0,208.0,490.0" stroke="black" stroke-width="1" fill="none" />
<polyline points="196.0,506.0,190.0,482.0,174.0,474.0,170.0,470.0,166.0,482.0,158.0,472.0,178.0,464.0,172.0,456.0,168.0,476.0,188.0,472.0,188.0,456.0,188.0,440.0,204.0,414.0,204.0,398.0,204.0,392.0" stroke="black" stroke-width="1" fill="none" />
<polyline points="188.0,438.0,212.0,440.0,212.0,456.0,214.0,472.0,218.0,488.0,212.0,502.0" stroke="black" stroke-width="1" fill="none" />
<polyline points="188.0,496.0,188.0,480.0" stroke="black" stroke-width="1" fill="none" />
<polyline points="200.0,424.0,184.0,428.0,168.0,430.0,152.0,432.0,136.0,428.0" stroke="black" stroke-width="1" fill="none" />
<polyline points="110.0,442.0,126.0,442.0,146.0,440.0,162.0,442.0,178.0,440.0,178.0,434.0,198.0,420.0" stroke="black" stroke-width="1" fill="none" />
<polyline points="224.0,360.0,210.0,344.0,194.0,334.0,178.0,332.0,162.0,336.0,144.0,346.0,134.0,338.0,128.0,322.0,118.0,306.0,112.0,290.0,112.0,278.0" stroke="black" stroke-width="1" fill="none" />
<polyline points="112.0,284.0,128.0,292.0,124.0,298.0,120.0,300.0,120.0,308.0,136.0,330.0" stroke="black" stroke-width="1" fill="none" />
<polyline points="148.0,308.0,132.0,288.0" stroke="black" stroke-width="1" fill="none" />
<polyline points="122.0,276.0,140.0,270.0,142.0,286.0,154.0,290.0,154.0,306.0" stroke="black" stroke-width="1" fill="none" />
<polyline points="164.0,282.0,148.0,262.0,132.0,256.0,114.0,262.0,98.0,270.0,96.0,260.0,80.0,266.0,64.0,272.0,48.0,262.0,32.0,258.0,16.0,272.0,0.0,288.0" stroke="black" stroke-width="1" fill="none" />
<polyline points="12.0,298.0,28.0,270.0,44.0,268.0,56.0,270.0,44.0,286.0,44.0,302.0,34.0,318.0,36.0,326.0,36.0,342.0,32.0,354.0,32.0,370.0,30.0,386.0,38.0,390.0,36.0,392.0" stroke="black" stroke-width="1" fill="none" />
<polyline points="34.0,378.0,50.0,400.0,68.0,406.0,84.0,408.0,98.0,404.0,114.0,400.0" stroke="black" stroke-width="1" fill="none" />
<polyline points="108.0,414.0,110.0,430.0,110.0,446.0,108.0,462.0,106.0,478.0,78.0,480.0,78.0,480.0,94.0,480.0,98.0,470.0" stroke="black" stroke-width="1" fill="none" />
<polyline points="84.0,472.0,68.0,476.0" stroke="black" stroke-width="1" fill="none" />
<polyline points="76.0,470.0,68.0,486.0,74.0,486.0,90.0,492.0" stroke="black" stroke-width="1" fill="none" />
<polyline points="112.0,502.0,128.0,502.0" stroke="black" stroke-width="1" fill="none" />
<polyline points="116.0,420.0,100.0,410.0" stroke="black" stroke-width="1" fill="none" />
<polyline points="120.0,372.0,122.0,380.0,130.0,398.0,132.0,412.0,134.0,428.0,132.0,446.0,134.0,462.0,134.0,478.0,136.0,494.0" stroke="black" stroke-width="1" fill="none" />
<polyline points="102.0,362.0,96.0,366.0,90.0,350.0,92.0,348.0,76.0,354.0" stroke="black" stroke-width="1" fill="none" />
<polyline points="82.0,352.0,88.0,368.0,92.0,364.0" stroke="black" stroke-width="1" fill="none" />
<polyline points="74.0,368.0,62.0,382.0,46.0,382.0" stroke="black" stroke-width="1" fill="none" />
<polyline points="72.0,368.0,76.0,384.0" stroke="black" stroke-width="1" fill="none" />
<polyline points="68.0,346.0,84.0,342.0,100.0,334.0,110.0,344.0" stroke="black" stroke-width="1" fill="none" />
<polyline points="86.0,328.0,70.0,330.0" stroke="black" stroke-width="1" fill="none" />
<polyline points="68.0,318.0,84.0,318.0,86.0,316.0,90.0,332.0,96.0,332.0,112.0,352.0,122.0,368.0,98.0,378.0,82.0,382.0,90.0,398.0,106.0,394.0,122.0,384.0,136.0,380.0" stroke="black" stroke-width="1" fill="none" />
<polyline points="168.0,332.0,142.0,348.0,142.0,364.0,136.0,380.0,122.0,396.0,122.0,410.0,124.0,438.0,126.0,454.0,126.0,470.0,126.0,492.0,110.0,482.0,126.0,482.0" stroke="black" stroke-width="1" fill="none" />
<polyline points="220.0,366.0,212.0,350.0,194.0,334.0" stroke="black" stroke-width="1" fill="none" />
<polyline points="208.0,326.0,220.0,342.0,226.0,368.0,226.0,384.0,216.0,400.0,210.0,396.0,220.0,400.0,214.0,416.0,226.0,410.0" stroke="black" stroke-width="1" fill="none" />
<polyline points="116.0,380.0,100.0,388.0,84.0,390.0,74.0,390.0,68.0,396.0,66.0,384.0,60.0,374.0,68.0,358.0,70.0,332.0,72.0,316.0" stroke="black" stroke-width="1" fill="none" />
<polyline points="54.0,300.0,46.0,316.0" stroke="black" stroke-width="1" fill="none" />
<polyline points="48.0,334.0,32.0,334.0,28.0,332.0,32.0,304.0,40.0,288.0" stroke="black" stroke-width="1" fill="none" />
<polyline points="38.0,280.0,46.0,274.0,30.0,274.0,14.0,292.0,10.0,308.0,10.0,324.0,22.0,316.0,38.0,290.0,54.0,276.0" stroke="black" stroke-width="1" fill="none" />
<polyline points="78.0,276.0,68.0,292.0,62.0,292.0,60.0,308.0,52.0,324.0,44.0,342.0,38.0,358.0,42.0,374.0,52.0,390.0,90.0,414.0,98.0,430.0,104.0,434.0,100.0,444.0,102.0,454.0,102.0,466.0,114.0,486.0,110.0,502.0,120.0,498.0" stroke="black" stroke-width="1" fill="none" />
<polyline points="118.0,362.0,110.0,372.0,106.0,380.0,130.0,376.0,132.0,360.0,122.0,344.0,116.0,336.0,114.0,320.0,106.0,304.0,104.0,288.0" stroke="black" stroke-width="1" fill="none" />
<polyline points="134.0,268.0,112.0,274.0,134.0,290.0,144.0,306.0,144.0,322.0,140.0,338.0,152.0,322.0,154.0,316.0" stroke="black" stroke-width="1" fill="none" />
</svg>