<svg xmlns="http://www.w3.org/2000/svg" height="506px" width="252px" version="1.1"><polyline points="8.0,344.0,2.0,348.0,6.0,364.0,26.0,362.0,18.0,378.0,24.0,382.0,34.0,388.0,50.0,398.0,68.0,410.0,76.0,426.0,76.0,442.0,60.0,458.0,50.0,474.0,52.0,490.0,66.0,504.0,76.0,506.0,94.0,488.0,108.0,480.0,124.0,492.0,138.0,488.0,142.0,484.0,146.0,494.0,158.0,496.0,134.0,506.0,150.0,506.0" stroke="black" stroke-width="1" fill="none" />
<polyline points="160.0,488.0,160.0,472.0,160.0,456.0,152.0,448.0,136.0,448.0" stroke="black" stroke-width="1" fill="none" />
<polyline points="120.0,464.0,130.0,472.0,144.0,476.0,150.0,470.0" stroke="black" stroke-width="1" fill="none" />
<polyline points="126.0,476.0,118.0,470.0,118.0,470.0" stroke="black" stroke-width="1" fill="none" />
<polyline points="110.0,456.0,112.0,472.0,108.0,480.0,110.0,488.0,126.0,504.0" stroke="black" stroke-width="1" fill="none" />
<polyline points="154.0,484.0,152.0,468.0,142.0,458.0,132.0,458.0,124.0,450.0,118.0,434.0,110.0,410.0,142.0,394.0,142.0,370.0,142.0,354.0,118.0,344.0,112.0,334.0,112.0,316.0,126.0,316.0,112.0,310.0,118.0,294.0,110.0,298.0" stroke="black" stroke-width="1" fill="none" />
<polyline points="118.0,286.0,124.0,274.0,142.0,276.0,152.0,292.0,156.0,294.0" stroke="black" stroke-width="1" fill="none" />
<polyline points="186.0,284.0,188.0,280.0,186.0,296.0,190.0,312.0,194.0,328.0,186.0,344.0,204.0,336.0" stroke="black" stroke-width="1" fill="none" />
<polyline points="220.0,328.0,236.0,320.0" stroke="black" stroke-width="1" fill="none" />
<polyline points="214.0,304.0,198.0,300.0,196.0,304.0,204.0,294.0,220.0,296.0,236.0,294.0" stroke="black" stroke-width="1" fill="none" />
<polyline points="248.0,310.0,220.0,320.0,212.0,334.0,196.0,352.0,180.0,360.0,204.0,344.0,212.0,326.0,208.0,316.0,208.0,306.0,200.0,306.0,204.0,286.0,196.0,270.0,192.0,256.0,176.0,256.0,160.0,256.0" stroke="black" stroke-width="1" fill="none" />
<polyline points="142.0,270.0,126.0,280.0" stroke="black" stroke-width="1" fill="none" />
<polyline points="118.0,262.0,134.0,262.0,150.0,262.0,160.0,260.0,168.0,274.0,160.0,290.0,172.0,270.0,182.0,262.0,204.0,284.0,220.0,288.0,236.0,286.0,252.0,286.0,252.0,300.0,244.0,316.0,220.0,330.0,196.0,346.0" stroke="black" stroke-width="1" fill="none" />
<polyline points="190.0,336.0,174.0,352.0,172.0,358.0,156.0,360.0,134.0,354.0,118.0,358.0,106.0,344.0,102.0,340.0,102.0,324.0,102.0,308.0,100.0,292.0,108.0,276.0,116.0,270.0,100.0,282.0" stroke="black" stroke-width="1" fill="none" />
<polyline points="106.0,342.0,122.0,354.0,132.0,336.0,148.0,328.0" stroke="black" stroke-width="1" fill="none" />
<polyline points="154.0,368.0,154.0,384.0,154.0,400.0,140.0,416.0,134.0,432.0,134.0,448.0,140.0,460.0" stroke="black" stroke-width="1" fill="none" />
<polyline points="118.0,440.0,102.0,452.0,94.0,456.0,92.0,444.0,92.0,428.0,92.0,428.0,108.0,426.0,114.0,416.0,140.0,416.0,156.0,400.0" stroke="black" stroke-width="1" fill="none" />
<polyline points="140.0,388.0,124.0,384.0,108.0,384.0,92.0,392.0" stroke="black" stroke-width="1" fill="none" />
<polyline points="88.0,426.0,86.0,442.0,100.0,458.0,86.0,468.0,96.0,476.0,100.0,502.0,76.0,488.0,92.0,480.0" stroke="black" stroke-width="1" fill="none" />
<polyline points="82.0,474.0,66.0,478.0,66.0,498.0,50.0,494.0" stroke="black" stroke-width="1" fill="none" />
<polyline points="50.0,488.0,58.0,462.0,74.0,456.0" stroke="black" stroke-width="1" fill="none" />
<polyline points="136.0,400.0,120.0,408.0,104.0,414.0,88.0,410.0,78.0,404.0,54.0,400.0,38.0,400.0,22.0,392.0,8.0,390.0,8.0,374.0,0.0,368.0" stroke="black" stroke-width="1" fill="none" />
<polyline points="14.0,374.0,30.0,370.0" stroke="black" stroke-width="1" fill="none" />
<polyline points="38.0,390.0,52.0,374.0" stroke="black" stroke-width="1" fill="none" />
<polyline points="12.0,356.0,34.0,366.0,38.0,368.0,56.0,360.0,58.0,382.0,50.0,378.0,60.0,384.0,76.0,378.0,92.0,376.0,108.0,374.0,124.0,374.0,140.0,372.0,162.0,368.0,178.0,368.0" stroke="black" stroke-width="1" fill="none" />
<polyline points="48.0,352.0,32.0,350.0,16.0,344.0,0.0,342.0" stroke="black" stroke-width="1" fill="none" />
<polyline points="0.0,272.0,16.0,270.0" stroke="black" stroke-width="1" fill="none" />
<polyline points="16.0,256.0,0.0,260.0" stroke="black" stroke-width="1" fill="none" />
</svg>