<svg xmlns="http://www.w3.org/2000/svg" height="508px" width="250px" version="1.1"><polyline points="222.0,270.0,240.0,286.0,236.0,298.0,240.0,314.0,236.0,330.0,226.0,342.0,238.0,364.0,242.0,380.0,230.0,396.0,224.0,412.0,228.0,428.0,228.0,444.0,230.0,460.0,222.0,464.0,226.0,484.0,214.0,490.0,234.0,478.0,240.0,484.0,244.0,492.0" stroke="black" stroke-width="1" fill="none" />
<polyline points="212.0,492.0,196.0,492.0,190.0,500.0,192.0,494.0,216.0,474.0,216.0,458.0,214.0,442.0,212.0,426.0,210.0,410.0,216.0,392.0,220.0,392.0" stroke="black" stroke-width="1" fill="none" />
<polyline points="218.0,384.0,228.0,368.0,212.0,362.0,196.0,362.0,180.0,358.0,164.0,358.0,148.0,358.0,132.0,362.0,116.0,382.0" stroke="black" stroke-width="1" fill="none" />
<polyline points="112.0,372.0,132.0,366.0,116.0,382.0,110.0,398.0,110.0,414.0" stroke="black" stroke-width="1" fill="none" />
<polyline points="120.0,392.0,136.0,402.0" stroke="black" stroke-width="1" fill="none" />
<polyline points="138.0,418.0,140.0,434.0,142.0,450.0,134.0,466.0,122.0,478.0,114.0,482.0,128.0,494.0,128.0,502.0,144.0,502.0" stroke="black" stroke-width="1" fill="none" />
<polyline points="124.0,478.0,140.0,472.0,140.0,474.0,134.0,466.0" stroke="black" stroke-width="1" fill="none" />
<polyline points="168.0,480.0,184.0,492.0" stroke="black" stroke-width="1" fill="none" />
<polyline points="238.0,450.0,232.0,434.0" stroke="black" stroke-width="1" fill="none" />
<polyline points="216.0,406.0,218.0,422.0,220.0,438.0,230.0,460.0,244.0,460.0,250.0,474.0" stroke="black" stroke-width="1" fill="none" />
<polyline points="206.0,484.0,182.0,482.0,202.0,466.0,204.0,450.0,202.0,434.0,198.0,418.0" stroke="black" stroke-width="1" fill="none" />
<polyline points="198.0,396.0,182.0,402.0,166.0,406.0,150.0,406.0,132.0,416.0,114.0,416.0,104.0,404.0,94.0,408.0,78.0,400.0,88.0,396.0,88.0,380.0,96.0,360.0,106.0,344.0,122.0,334.0,128.0,318.0,132.0,302.0,118.0,298.0,102.0,302.0,86.0,310.0,70.0,310.0,54.0,312.0,38.0,304.0,22.0,300.0,22.0,300.0,24.0,316.0,30.0,332.0,40.0,344.0,18.0,368.0,16.0,382.0" stroke="black" stroke-width="1" fill="none" />
<polyline points="8.0,368.0,24.0,366.0" stroke="black" stroke-width="1" fill="none" />
<polyline points="4.0,364.0,20.0,360.0,36.0,366.0,48.0,342.0,70.0,340.0,78.0,332.0,98.0,342.0,118.0,326.0,122.0,332.0,140.0,330.0" stroke="black" stroke-width="1" fill="none" />
<polyline points="106.0,306.0,120.0,300.0,116.0,316.0,106.0,332.0,100.0,370.0,94.0,386.0,88.0,394.0" stroke="black" stroke-width="1" fill="none" />
<polyline points="64.0,366.0,80.0,368.0,96.0,360.0,120.0,358.0" stroke="black" stroke-width="1" fill="none" />
<polyline points="80.0,350.0,64.0,348.0" stroke="black" stroke-width="1" fill="none" />
<polyline points="54.0,366.0,54.0,354.0,66.0,350.0,64.0,360.0,78.0,386.0,76.0,402.0,98.0,412.0" stroke="black" stroke-width="1" fill="none" />
<polyline points="148.0,414.0,150.0,430.0,150.0,446.0,150.0,462.0,150.0,478.0,134.0,482.0,120.0,492.0,134.0,500.0,154.0,494.0,170.0,506.0,168.0,508.0,156.0,498.0,158.0,482.0,158.0,466.0,158.0,450.0,158.0,434.0,156.0,418.0" stroke="black" stroke-width="1" fill="none" />
<polyline points="166.0,416.0,166.0,432.0,166.0,448.0,166.0,464.0,168.0,480.0,184.0,496.0,194.0,470.0" stroke="black" stroke-width="1" fill="none" />
<polyline points="232.0,298.0,226.0,290.0,214.0,284.0" stroke="black" stroke-width="1" fill="none" />
<polyline points="222.0,270.0,238.0,282.0" stroke="black" stroke-width="1" fill="none" />
<polyline points="192.0,260.0,208.0,264.0,224.0,266.0,246.0,276.0,248.0,292.0,250.0,308.0,250.0,324.0,244.0,340.0,236.0,356.0,250.0,370.0,248.0,390.0" stroke="black" stroke-width="1" fill="none" />
<polyline points="230.0,286.0,214.0,276.0,198.0,270.0,182.0,264.0" stroke="black" stroke-width="1" fill="none" />
<polyline points="132.0,288.0,116.0,288.0,100.0,288.0" stroke="black" stroke-width="1" fill="none" />
<polyline points="100.0,294.0,90.0,300.0,74.0,302.0,58.0,302.0,42.0,296.0" stroke="black" stroke-width="1" fill="none" />
<polyline points="10.0,294.0,12.0,302.0,14.0,310.0,18.0,328.0,18.0,344.0,4.0,354.0,8.0,370.0,10.0,384.0,24.0,372.0,40.0,372.0,56.0,376.0,72.0,376.0,88.0,370.0,104.0,368.0,120.0,348.0,134.0,342.0,136.0,352.0,152.0,348.0,164.0,348.0,180.0,346.0,192.0,350.0,208.0,352.0,224.0,352.0,228.0,330.0" stroke="black" stroke-width="1" fill="none" />
<polyline points="250.0,368.0,238.0,386.0,218.0,408.0,208.0,396.0,192.0,402.0,188.0,416.0,172.0,416.0,150.0,416.0,128.0,408.0,112.0,398.0,94.0,382.0,86.0,386.0,68.0,384.0,48.0,374.0,44.0,364.0,40.0,360.0,48.0,344.0,42.0,336.0,42.0,318.0,46.0,302.0,38.0,288.0,22.0,290.0,6.0,288.0" stroke="black" stroke-width="1" fill="none" />
<polyline points="8.0,312.0,26.0,316.0,42.0,312.0" stroke="black" stroke-width="1" fill="none" />
<polyline points="98.0,316.0,102.0,332.0,88.0,342.0,82.0,344.0,84.0,360.0,100.0,350.0,126.0,356.0" stroke="black" stroke-width="1" fill="none" />
<polyline points="110.0,320.0,100.0,320.0,88.0,318.0,64.0,318.0,44.0,334.0,38.0,348.0,16.0,350.0,0.0,356.0" stroke="black" stroke-width="1" fill="none" />
</svg>