<svg xmlns="http://www.w3.org/2000/svg" height="484px" width="484px" version="1.1"><polyline points="28.0,26.0,26.0,42.0,26.0,58.0,26.0,74.0,26.0,90.0,26.0,106.0,26.0,122.0,26.0,138.0,26.0,154.0,26.0,170.0,26.0,186.0,26.0,202.0,26.0,218.0,32.0,222.0,48.0,224.0,64.0,224.0,80.0,224.0,96.0,224.0,112.0,224.0,128.0,224.0,144.0,224.0,160.0,224.0,176.0,224.0,192.0,224.0,208.0,224.0" stroke="black" stroke-width="1" fill="none" />
<polyline points="210.0,312.0,210.0,320.0,210.0,336.0,202.0,352.0,210.0,350.0" stroke="black" stroke-width="1" fill="none" />
<polyline points="184.0,346.0,168.0,340.0,152.0,344.0,136.0,350.0,120.0,324.0" stroke="black" stroke-width="1" fill="none" />
<polyline points="122.0,316.0,134.0,332.0" stroke="black" stroke-width="1" fill="none" />
<polyline points="136.0,322.0,120.0,308.0,124.0,310.0,136.0,326.0" stroke="black" stroke-width="1" fill="none" />
<polyline points="148.0,340.0,132.0,326.0,116.0,314.0,116.0,314.0,120.0,330.0,130.0,346.0" stroke="black" stroke-width="1" fill="none" />
<polyline points="108.0,360.0,92.0,362.0" stroke="black" stroke-width="1" fill="none" />
<polyline points="86.0,362.0,102.0,354.0,104.0,352.0,114.0,368.0,108.0,388.0" stroke="black" stroke-width="1" fill="none" />
<polyline points="104.0,398.0,120.0,394.0" stroke="black" stroke-width="1" fill="none" />
<polyline points="108.0,402.0,124.0,412.0,126.0,432.0,126.0,448.0" stroke="black" stroke-width="1" fill="none" />
<polyline points="132.0,422.0,148.0,418.0,164.0,418.0,180.0,410.0,188.0,436.0,188.0,452.0,186.0,466.0" stroke="black" stroke-width="1" fill="none" />
<polyline points="170.0,422.0,150.0,424.0,134.0,422.0" stroke="black" stroke-width="1" fill="none" />
<polyline points="110.0,452.0,94.0,460.0,90.0,456.0,92.0,446.0" stroke="black" stroke-width="1" fill="none" />
<polyline points="68.0,378.0,84.0,392.0,100.0,394.0,116.0,390.0,132.0,368.0" stroke="black" stroke-width="1" fill="none" />
<polyline points="94.0,368.0,98.0,380.0,92.0,364.0,86.0,362.0,88.0,340.0" stroke="black" stroke-width="1" fill="none" />
<polyline points="68.0,354.0,72.0,318.0,64.0,334.0,64.0,348.0,76.0,322.0,70.0,338.0,62.0,354.0,60.0,370.0,64.0,386.0" stroke="black" stroke-width="1" fill="none" />
<polyline points="62.0,380.0,78.0,396.0,94.0,400.0,110.0,412.0,110.0,416.0,110.0,432.0" stroke="black" stroke-width="1" fill="none" />
<polyline points="168.0,446.0,162.0,452.0,158.0,440.0,150.0,446.0,170.0,442.0,170.0,426.0,170.0,424.0,182.0,406.0,182.0,390.0" stroke="black" stroke-width="1" fill="none" />
<polyline points="200.0,396.0,186.0,402.0,194.0,396.0,198.0,380.0,192.0,364.0,172.0,348.0" stroke="black" stroke-width="1" fill="none" />
<polyline points="174.0,342.0,196.0,358.0" stroke="black" stroke-width="1" fill="none" />
<polyline points="214.0,316.0,216.0,332.0,212.0,348.0,200.0,364.0,202.0,380.0,200.0,396.0,188.0,412.0,182.0,428.0,182.0,444.0,170.0,460.0,174.0,456.0,180.0,470.0,182.0,458.0" stroke="black" stroke-width="1" fill="none" />
<polyline points="154.0,318.0,138.0,296.0,122.0,296.0,106.0,304.0,90.0,302.0,74.0,300.0,58.0,296.0,42.0,316.0" stroke="black" stroke-width="1" fill="none" />
<polyline points="60.0,302.0,48.0,318.0,44.0,334.0,52.0,338.0,68.0,312.0" stroke="black" stroke-width="1" fill="none" />
<polyline points="64.0,302.0,48.0,318.0,58.0,330.0,68.0,314.0,70.0,298.0" stroke="black" stroke-width="1" fill="none" />
<polyline points="58.0,296.0,46.0,312.0,40.0,328.0,40.0,344.0,50.0,348.0,66.0,328.0,76.0,312.0,96.0,308.0,112.0,316.0,130.0,302.0,146.0,314.0" stroke="black" stroke-width="1" fill="none" />
<polyline points="144.0,304.0,154.0,320.0,154.0,336.0,136.0,360.0,136.0,376.0,122.0,392.0,126.0,404.0,132.0,404.0,132.0,422.0,132.0,438.0,132.0,454.0,114.0,462.0" stroke="black" stroke-width="1" fill="none" />
<polyline points="228.0,476.0,228.0,460.0,228.0,444.0,228.0,428.0,228.0,412.0,228.0,396.0,228.0,380.0,228.0,364.0,228.0,348.0,228.0,332.0,228.0,316.0,228.0,300.0,222.0,286.0,206.0,286.0,190.0,286.0,174.0,286.0,158.0,286.0,142.0,286.0,126.0,286.0,110.0,286.0,94.0,286.0,78.0,286.0,62.0,286.0,46.0,286.0,30.0,288.0,32.0,286.0,30.0,302.0,30.0,318.0,30.0,334.0,30.0,350.0,30.0,366.0,30.0,382.0,30.0,398.0,30.0,414.0,30.0,430.0,30.0,446.0,30.0,462.0,30.0,478.0,44.0,484.0,60.0,484.0,76.0,484.0,92.0,484.0,108.0,484.0,124.0,484.0,140.0,484.0,156.0,484.0,172.0,484.0,188.0,484.0,204.0,484.0,220.0,484.0" stroke="black" stroke-width="1" fill="none" />
<polyline points="286.0,288.0,302.0,286.0,318.0,286.0,334.0,286.0,350.0,286.0,366.0,286.0,382.0,286.0,398.0,286.0,414.0,286.0,430.0,286.0,446.0,286.0,462.0,286.0,478.0,286.0,484.0,300.0,484.0,316.0,484.0,332.0,484.0,348.0,484.0,364.0,484.0,380.0,484.0,396.0,484.0,412.0,484.0,428.0,484.0,444.0,484.0,460.0,484.0,476.0" stroke="black" stroke-width="1" fill="none" />
<polyline points="484.0,220.0,484.0,204.0,484.0,188.0,484.0,172.0,484.0,156.0,484.0,140.0,484.0,124.0,484.0,108.0,484.0,92.0,484.0,76.0,484.0,60.0,484.0,44.0,478.0,30.0,462.0,30.0,446.0,30.0,430.0,30.0,414.0,30.0,398.0,30.0,382.0,30.0,366.0,30.0,350.0,30.0,334.0,30.0,318.0,30.0,302.0,30.0,286.0,32.0,288.0,30.0,286.0,46.0,286.0,62.0,286.0,78.0,286.0,94.0,286.0,110.0,286.0,126.0,286.0,142.0,286.0,158.0,286.0,174.0,286.0,190.0,286.0,206.0,286.0,222.0,300.0,228.0,316.0,228.0,332.0,228.0,348.0,228.0,364.0,228.0,380.0,228.0,396.0,228.0,412.0,228.0,428.0,228.0,444.0,228.0,460.0,228.0,476.0,228.0" stroke="black" stroke-width="1" fill="none" />
<polyline points="480.0,208.0,480.0,192.0,480.0,176.0,480.0,160.0,480.0,144.0,480.0,128.0,480.0,112.0,480.0,96.0,480.0,80.0,480.0,64.0,480.0,48.0,478.0,32.0,474.0,26.0,458.0,26.0,442.0,26.0,426.0,26.0,410.0,26.0,394.0,26.0,378.0,26.0,362.0,26.0,346.0,26.0,330.0,26.0,314.0,26.0,298.0,26.0,282.0,28.0,284.0,26.0,282.0,42.0,282.0,58.0,282.0,74.0,282.0,90.0,282.0,106.0,282.0,122.0,282.0,138.0,282.0,154.0,282.0,170.0,282.0,186.0,282.0,202.0,282.0,218.0,288.0,222.0,304.0,224.0,320.0,224.0,336.0,224.0,352.0,224.0,368.0,224.0,384.0,224.0,400.0,224.0,416.0,224.0,432.0,224.0,448.0,224.0,464.0,224.0" stroke="black" stroke-width="1" fill="none" />
<polyline points="288.0,286.0,286.0,302.0,286.0,318.0,286.0,334.0,286.0,350.0,286.0,366.0,286.0,382.0,286.0,398.0,286.0,414.0,286.0,430.0,286.0,446.0,286.0,462.0,286.0,478.0,300.0,484.0,316.0,484.0,332.0,484.0,348.0,484.0,364.0,484.0,380.0,484.0,396.0,484.0,412.0,484.0,428.0,484.0,444.0,484.0,460.0,484.0,476.0,484.0" stroke="black" stroke-width="1" fill="none" />
<polyline points="480.0,464.0,480.0,448.0,480.0,432.0,480.0,416.0,480.0,400.0,480.0,384.0,480.0,368.0,480.0,352.0,480.0,336.0,480.0,320.0,480.0,304.0,478.0,288.0,474.0,282.0,458.0,282.0,442.0,282.0,426.0,282.0,410.0,282.0,394.0,282.0,378.0,282.0,362.0,282.0,346.0,282.0,330.0,282.0,314.0,282.0,298.0,282.0,282.0,284.0,284.0,282.0,282.0,298.0,282.0,314.0,282.0,330.0,282.0,346.0,282.0,362.0,282.0,378.0,282.0,394.0,282.0,410.0,282.0,426.0,282.0,442.0,282.0,458.0,282.0,474.0,288.0,478.0,304.0,480.0,320.0,480.0,336.0,480.0,352.0,480.0,368.0,480.0,384.0,480.0,400.0,480.0,416.0,480.0,432.0,480.0,448.0,480.0,464.0,480.0" stroke="black" stroke-width="1" fill="none" />
<polyline points="228.0,220.0,228.0,204.0,228.0,188.0,228.0,172.0,228.0,156.0,228.0,140.0,228.0,124.0,228.0,108.0,228.0,92.0,228.0,76.0,228.0,60.0,228.0,44.0,222.0,30.0,206.0,30.0,190.0,30.0,174.0,30.0,158.0,30.0,142.0,30.0,126.0,30.0,110.0,30.0,94.0,30.0,78.0,30.0,62.0,30.0,46.0,30.0,30.0,32.0,32.0,30.0,30.0,46.0,30.0,62.0,30.0,78.0,30.0,94.0,30.0,110.0,30.0,126.0,30.0,142.0,30.0,158.0,30.0,174.0,30.0,190.0,30.0,206.0,30.0,222.0,44.0,228.0,60.0,228.0,76.0,228.0,92.0,228.0,108.0,228.0,124.0,228.0,140.0,228.0,156.0,228.0,172.0,228.0,188.0,228.0,204.0,228.0,220.0,228.0" stroke="black" stroke-width="1" fill="none" />
<polyline points="224.0,208.0,224.0,192.0,224.0,176.0,224.0,160.0,224.0,144.0,224.0,128.0,224.0,112.0,224.0,96.0,224.0,80.0,224.0,64.0,224.0,48.0,222.0,32.0,218.0,26.0,202.0,26.0,186.0,26.0,170.0,26.0,154.0,26.0,138.0,26.0,122.0,26.0,106.0,26.0,90.0,26.0,74.0,26.0,58.0,26.0,42.0,26.0,26.0,28.0" stroke="black" stroke-width="1" fill="none" />
<polyline points="28.0,282.0,26.0,298.0,26.0,314.0,26.0,330.0,26.0,346.0,26.0,362.0,26.0,378.0,26.0,394.0,26.0,410.0,26.0,426.0,26.0,442.0,26.0,458.0,26.0,474.0,32.0,478.0,48.0,480.0,64.0,480.0,80.0,480.0,96.0,480.0,112.0,480.0,128.0,480.0,144.0,480.0,160.0,480.0,176.0,480.0,192.0,480.0,208.0,480.0" stroke="black" stroke-width="1" fill="none" />
<polyline points="224.0,464.0,224.0,448.0,224.0,432.0,224.0,416.0,224.0,400.0,224.0,384.0,224.0,368.0,224.0,352.0,224.0,336.0,224.0,320.0,224.0,304.0,222.0,288.0,218.0,282.0,202.0,282.0,186.0,282.0,170.0,282.0,154.0,282.0,138.0,282.0,122.0,282.0,106.0,282.0,90.0,282.0,74.0,282.0,58.0,282.0,42.0,282.0,26.0,284.0" stroke="black" stroke-width="1" fill="none" />
<polyline points="92.0,308.0,82.0,324.0,74.0,340.0,68.0,356.0,66.0,372.0,74.0,388.0,88.0,388.0,86.0,384.0,102.0,386.0,118.0,374.0" stroke="black" stroke-width="1" fill="none" />
<polyline points="104.0,310.0,114.0,326.0,120.0,342.0,130.0,358.0,130.0,374.0,118.0,374.0,118.0,382.0,108.0,404.0,116.0,422.0,114.0,438.0,108.0,454.0,114.0,462.0,122.0,470.0" stroke="black" stroke-width="1" fill="none" />
<polyline points="208.0,340.0,192.0,362.0,176.0,348.0,160.0,348.0,144.0,352.0,140.0,344.0,150.0,326.0,142.0,310.0,130.0,294.0" stroke="black" stroke-width="1" fill="none" />
</svg>