<svg xmlns="http://www.w3.org/2000/svg" height="502px" width="252px" version="1.1"><polyline points="198.0,270.0,186.0,286.0,182.0,302.0,180.0,318.0,180.0,332.0,178.0,348.0,178.0,364.0,176.0,380.0,174.0,396.0,168.0,412.0,154.0,428.0,154.0,444.0,156.0,460.0,172.0,474.0,168.0,490.0,150.0,498.0,172.0,494.0" stroke="black" stroke-width="1" fill="none" />
<polyline points="162.0,494.0,142.0,482.0,144.0,466.0,134.0,450.0,136.0,434.0,148.0,406.0,162.0,402.0,166.0,386.0,166.0,370.0,156.0,354.0,146.0,344.0,128.0,344.0" stroke="black" stroke-width="1" fill="none" />
<polyline points="116.0,340.0,68.0,356.0" stroke="black" stroke-width="1" fill="none" />
<polyline points="34.0,354.0,18.0,358.0" stroke="black" stroke-width="1" fill="none" />
<polyline points="26.0,384.0,20.0,372.0,14.0,388.0,14.0,404.0,18.0,420.0,22.0,426.0,46.0,420.0,62.0,420.0,78.0,408.0,88.0,408.0,104.0,406.0,122.0,420.0,136.0,422.0,152.0,400.0,166.0,390.0" stroke="black" stroke-width="1" fill="none" />
<polyline points="158.0,354.0,142.0,340.0,126.0,338.0,110.0,342.0,94.0,348.0,78.0,354.0,62.0,358.0,46.0,362.0,30.0,366.0,14.0,386.0" stroke="black" stroke-width="1" fill="none" />
<polyline points="22.0,388.0,22.0,404.0,46.0,422.0,48.0,410.0" stroke="black" stroke-width="1" fill="none" />
<polyline points="30.0,404.0,46.0,404.0,38.0,416.0,32.0,432.0,28.0,458.0,42.0,474.0,40.0,490.0" stroke="black" stroke-width="1" fill="none" />
<polyline points="50.0,470.0,66.0,460.0,66.0,482.0" stroke="black" stroke-width="1" fill="none" />
<polyline points="66.0,490.0,58.0,474.0,48.0,458.0,48.0,442.0,66.0,440.0,78.0,434.0" stroke="black" stroke-width="1" fill="none" />
<polyline points="96.0,440.0,112.0,438.0,126.0,446.0,126.0,462.0,132.0,478.0" stroke="black" stroke-width="1" fill="none" />
<polyline points="148.0,484.0,150.0,468.0,148.0,452.0,146.0,436.0" stroke="black" stroke-width="1" fill="none" />
<polyline points="104.0,416.0,88.0,414.0" stroke="black" stroke-width="1" fill="none" />
<polyline points="36.0,446.0,40.0,462.0,38.0,478.0,32.0,486.0" stroke="black" stroke-width="1" fill="none" />
<polyline points="6.0,442.0,2.0,426.0,6.0,410.0,6.0,394.0,8.0,378.0,10.0,362.0,4.0,346.0,4.0,330.0,6.0,314.0,8.0,298.0,20.0,282.0,8.0,296.0" stroke="black" stroke-width="1" fill="none" />
<polyline points="12.0,278.0,20.0,294.0,14.0,310.0,12.0,326.0,12.0,342.0,16.0,358.0,20.0,346.0,36.0,346.0,56.0,346.0,72.0,342.0,88.0,336.0,90.0,336.0,104.0,332.0,120.0,326.0,136.0,326.0,152.0,332.0,156.0,336.0,172.0,346.0,184.0,342.0,198.0,374.0" stroke="black" stroke-width="1" fill="none" />
<polyline points="198.0,358.0,214.0,382.0,230.0,386.0" stroke="black" stroke-width="1" fill="none" />
<polyline points="228.0,400.0,220.0,392.0,208.0,376.0,198.0,360.0,192.0,344.0,186.0,328.0,186.0,312.0,190.0,296.0,198.0,280.0,200.0,288.0" stroke="black" stroke-width="1" fill="none" />
<polyline points="210.0,286.0,212.0,302.0,212.0,320.0,216.0,328.0,200.0,344.0,186.0,364.0,188.0,380.0,190.0,396.0,192.0,412.0,198.0,426.0" stroke="black" stroke-width="1" fill="none" />
<polyline points="212.0,414.0,200.0,406.0,200.0,390.0,196.0,374.0,190.0,358.0,190.0,338.0" stroke="black" stroke-width="1" fill="none" />
<polyline points="188.0,302.0,204.0,280.0,220.0,296.0" stroke="black" stroke-width="1" fill="none" />
<polyline points="220.0,280.0,236.0,280.0,242.0,280.0,242.0,296.0,234.0,312.0,240.0,328.0,244.0,344.0,246.0,360.0,248.0,376.0,248.0,392.0,252.0,408.0,242.0,408.0,240.0,422.0" stroke="black" stroke-width="1" fill="none" />
<polyline points="238.0,414.0,222.0,408.0,206.0,392.0,206.0,392.0,206.0,408.0,200.0,424.0" stroke="black" stroke-width="1" fill="none" />
<polyline points="222.0,410.0,210.0,394.0" stroke="black" stroke-width="1" fill="none" />
<polyline points="234.0,306.0,222.0,288.0,234.0,280.0,232.0,266.0,216.0,270.0,200.0,270.0,184.0,270.0" stroke="black" stroke-width="1" fill="none" />
<polyline points="222.0,260.0,238.0,260.0" stroke="black" stroke-width="1" fill="none" />
<polyline points="228.0,276.0,224.0,292.0,222.0,306.0,230.0,322.0,234.0,338.0,238.0,354.0,238.0,358.0,240.0,374.0,238.0,390.0" stroke="black" stroke-width="1" fill="none" />
<polyline points="160.0,424.0,138.0,434.0,116.0,432.0,100.0,428.0,84.0,428.0,68.0,432.0,52.0,440.0,30.0,446.0,8.0,418.0" stroke="black" stroke-width="1" fill="none" />
<polyline points="8.0,424.0,18.0,440.0,20.0,456.0,22.0,472.0,32.0,492.0,32.0,492.0,54.0,502.0" stroke="black" stroke-width="1" fill="none" />
<polyline points="200.0,438.0,194.0,426.0,186.0,410.0,182.0,394.0,182.0,378.0,170.0,360.0,162.0,344.0,142.0,328.0" stroke="black" stroke-width="1" fill="none" />
</svg>