<svg xmlns="http://www.w3.org/2000/svg" height="508px" width="252px" version="1.1"><polyline points="110.0,266.0,102.0,282.0,94.0,298.0,88.0,314.0,108.0,320.0,120.0,336.0,116.0,352.0,104.0,366.0,106.0,382.0,82.0,378.0,98.0,382.0,112.0,368.0,118.0,386.0" stroke="black" stroke-width="1" fill="none" />
<polyline points="132.0,370.0,134.0,386.0,126.0,402.0,132.0,418.0,140.0,418.0,148.0,434.0,138.0,456.0,138.0,472.0,134.0,488.0,128.0,504.0" stroke="black" stroke-width="1" fill="none" />
<polyline points="122.0,508.0,106.0,504.0" stroke="black" stroke-width="1" fill="none" />
<polyline points="150.0,504.0,166.0,504.0" stroke="black" stroke-width="1" fill="none" />
<polyline points="214.0,500.0,222.0,484.0,216.0,474.0,214.0,458.0,216.0,442.0,246.0,424.0,246.0,410.0,246.0,394.0,246.0,378.0,240.0,374.0,250.0,358.0,252.0,342.0,252.0,326.0,248.0,322.0,232.0,318.0,232.0,318.0,240.0,334.0,242.0,350.0,236.0,366.0,224.0,382.0,238.0,398.0,230.0,414.0,214.0,430.0,202.0,454.0,204.0,470.0,200.0,486.0,202.0,502.0,208.0,504.0,234.0,494.0" stroke="black" stroke-width="1" fill="none" />
<polyline points="252.0,484.0,246.0,468.0,242.0,456.0,236.0,440.0,236.0,430.0" stroke="black" stroke-width="1" fill="none" />
<polyline points="226.0,420.0,210.0,428.0,194.0,436.0,178.0,438.0,162.0,440.0,146.0,430.0,124.0,418.0,108.0,418.0,96.0,418.0,74.0,430.0,74.0,444.0,82.0,436.0,88.0,420.0,58.0,410.0,54.0,394.0,66.0,378.0,66.0,362.0,66.0,346.0,82.0,338.0,102.0,322.0,110.0,306.0,118.0,312.0" stroke="black" stroke-width="1" fill="none" />
<polyline points="126.0,316.0,142.0,318.0,158.0,316.0" stroke="black" stroke-width="1" fill="none" />
<polyline points="158.0,288.0,142.0,282.0,148.0,278.0,128.0,272.0,112.0,272.0" stroke="black" stroke-width="1" fill="none" />
<polyline points="98.0,266.0,114.0,258.0,130.0,258.0,146.0,270.0,170.0,286.0,156.0,298.0,144.0,324.0,164.0,316.0" stroke="black" stroke-width="1" fill="none" />
<polyline points="152.0,308.0,136.0,308.0,120.0,300.0,104.0,312.0" stroke="black" stroke-width="1" fill="none" />
<polyline points="108.0,318.0,126.0,316.0,126.0,332.0,126.0,348.0,142.0,370.0,140.0,386.0,132.0,412.0" stroke="black" stroke-width="1" fill="none" />
<polyline points="144.0,444.0,170.0,452.0,164.0,452.0,164.0,468.0,164.0,484.0,170.0,488.0,170.0,498.0" stroke="black" stroke-width="1" fill="none" />
<polyline points="162.0,454.0,178.0,450.0,194.0,446.0,208.0,434.0,228.0,440.0,240.0,452.0" stroke="black" stroke-width="1" fill="none" />
<polyline points="222.0,444.0,232.0,460.0,236.0,478.0,232.0,494.0" stroke="black" stroke-width="1" fill="none" />
<polyline points="150.0,488.0,148.0,492.0,156.0,474.0,154.0,458.0,138.0,450.0" stroke="black" stroke-width="1" fill="none" />
<polyline points="140.0,374.0,156.0,368.0,172.0,368.0,188.0,368.0,204.0,370.0" stroke="black" stroke-width="1" fill="none" />
<polyline points="186.0,374.0,202.0,374.0,218.0,376.0,232.0,390.0" stroke="black" stroke-width="1" fill="none" />
<polyline points="128.0,366.0,124.0,376.0,118.0,392.0,98.0,408.0" stroke="black" stroke-width="1" fill="none" />
<polyline points="90.0,368.0,74.0,368.0" stroke="black" stroke-width="1" fill="none" />
<polyline points="64.0,368.0,80.0,360.0,74.0,376.0,74.0,392.0" stroke="black" stroke-width="1" fill="none" />
<polyline points="82.0,386.0,90.0,384.0,100.0,376.0,88.0,358.0,98.0,350.0,90.0,350.0,94.0,334.0,84.0,336.0,68.0,344.0,66.0,352.0" stroke="black" stroke-width="1" fill="none" />
<polyline points="48.0,364.0,26.0,342.0,44.0,320.0,58.0,304.0,64.0,302.0,48.0,290.0,32.0,292.0" stroke="black" stroke-width="1" fill="none" />
<polyline points="22.0,290.0,16.0,306.0,12.0,322.0,12.0,338.0,8.0,344.0,24.0,348.0,26.0,342.0,42.0,330.0,50.0,312.0,64.0,308.0" stroke="black" stroke-width="1" fill="none" />
<polyline points="56.0,310.0,66.0,326.0,58.0,332.0,52.0,348.0,58.0,364.0,50.0,374.0,46.0,390.0,48.0,404.0,52.0,420.0,58.0,436.0,64.0,442.0,74.0,422.0" stroke="black" stroke-width="1" fill="none" />
<polyline points="54.0,398.0,70.0,412.0,86.0,412.0,102.0,404.0,122.0,414.0,126.0,430.0,134.0,438.0,126.0,454.0,128.0,470.0,126.0,486.0,108.0,496.0,106.0,498.0,122.0,488.0" stroke="black" stroke-width="1" fill="none" />
<polyline points="92.0,350.0,108.0,346.0" stroke="black" stroke-width="1" fill="none" />
<polyline points="106.0,358.0,90.0,358.0,110.0,344.0,106.0,334.0,90.0,342.0" stroke="black" stroke-width="1" fill="none" />
<polyline points="88.0,326.0,104.0,322.0,108.0,328.0,114.0,344.0,134.0,360.0,150.0,358.0,166.0,358.0,182.0,358.0,198.0,360.0,214.0,360.0,218.0,366.0,232.0,360.0" stroke="black" stroke-width="1" fill="none" />
<polyline points="172.0,314.0,170.0,304.0,170.0,288.0" stroke="black" stroke-width="1" fill="none" />
<polyline points="88.0,274.0,88.0,282.0,86.0,298.0" stroke="black" stroke-width="1" fill="none" />
<polyline points="46.0,284.0,30.0,284.0,14.0,308.0" stroke="black" stroke-width="1" fill="none" />
<polyline points="6.0,292.0,22.0,274.0,38.0,276.0,54.0,280.0,70.0,292.0" stroke="black" stroke-width="1" fill="none" />
<polyline points="50.0,334.0,46.0,346.0,46.0,362.0,46.0,378.0,76.0,394.0,92.0,394.0,108.0,380.0" stroke="black" stroke-width="1" fill="none" />
<polyline points="166.0,290.0,158.0,274.0,150.0,266.0,134.0,264.0,116.0,266.0,100.0,290.0,92.0,304.0,76.0,318.0,72.0,324.0,46.0,336.0,30.0,350.0,14.0,360.0,4.0,354.0,2.0,338.0,4.0,322.0,6.0,306.0,12.0,290.0,22.0,274.0" stroke="black" stroke-width="1" fill="none" />
</svg>