<svg xmlns="http://www.w3.org/2000/svg" height="508px" width="206px" version="1.1"><polyline points="48.0,256.0,48.0,272.0,50.0,288.0,50.0,274.0,64.0,266.0,64.0,278.0,90.0,296.0,100.0,292.0,116.0,284.0,132.0,284.0,148.0,284.0,166.0,286.0,198.0,280.0" stroke="black" stroke-width="1" fill="none" />
<polyline points="198.0,264.0,182.0,266.0,182.0,270.0" stroke="black" stroke-width="1" fill="none" />
<polyline points="168.0,262.0,172.0,278.0,182.0,294.0" stroke="black" stroke-width="1" fill="none" />
<polyline points="198.0,274.0,182.0,278.0,166.0,314.0,162.0,338.0,146.0,352.0,146.0,362.0,142.0,378.0,140.0,388.0,124.0,388.0,126.0,368.0,136.0,352.0,150.0,348.0,160.0,332.0,178.0,324.0,166.0,318.0,172.0,302.0,178.0,286.0,204.0,276.0,206.0,260.0,194.0,254.0,178.0,258.0,162.0,260.0,162.0,260.0,162.0,276.0,168.0,288.0,162.0,304.0,156.0,320.0,148.0,336.0,132.0,352.0,114.0,368.0,102.0,384.0,100.0,400.0,102.0,416.0,112.0,420.0,118.0,426.0,122.0,424.0,120.0,440.0,128.0,456.0,138.0,472.0,144.0,488.0,142.0,506.0,128.0,506.0" stroke="black" stroke-width="1" fill="none" />
<polyline points="158.0,506.0,150.0,490.0,154.0,474.0,152.0,458.0,154.0,442.0,146.0,438.0,162.0,430.0,152.0,438.0,150.0,434.0,166.0,436.0,182.0,432.0,198.0,440.0,206.0,436.0" stroke="black" stroke-width="1" fill="none" />
<polyline points="184.0,442.0,170.0,444.0,170.0,444.0,176.0,446.0,176.0,456.0" stroke="black" stroke-width="1" fill="none" />
<polyline points="166.0,460.0,162.0,476.0,160.0,492.0,154.0,508.0" stroke="black" stroke-width="1" fill="none" />
<polyline points="164.0,470.0,180.0,472.0,196.0,466.0" stroke="black" stroke-width="1" fill="none" />
<polyline points="178.0,484.0,174.0,476.0,168.0,498.0,172.0,490.0,194.0,470.0,190.0,464.0,198.0,448.0,188.0,446.0,172.0,426.0,156.0,420.0" stroke="black" stroke-width="1" fill="none" />
<polyline points="130.0,448.0,114.0,432.0,114.0,428.0,130.0,432.0,140.0,450.0,140.0,462.0" stroke="black" stroke-width="1" fill="none" />
<polyline points="108.0,462.0,124.0,468.0,126.0,478.0,132.0,494.0" stroke="black" stroke-width="1" fill="none" />
<polyline points="134.0,484.0,120.0,480.0,104.0,470.0,104.0,470.0,108.0,480.0,112.0,492.0" stroke="black" stroke-width="1" fill="none" />
<polyline points="126.0,490.0,110.0,488.0,94.0,484.0" stroke="black" stroke-width="1" fill="none" />
<polyline points="98.0,492.0,82.0,498.0" stroke="black" stroke-width="1" fill="none" />
<polyline points="60.0,486.0,62.0,466.0" stroke="black" stroke-width="1" fill="none" />
<polyline points="50.0,458.0,66.0,444.0,80.0,440.0,84.0,444.0,78.0,460.0,72.0,476.0,68.0,492.0,66.0,508.0" stroke="black" stroke-width="1" fill="none" />
<polyline points="94.0,464.0,110.0,450.0,96.0,460.0,88.0,470.0,82.0,486.0,92.0,472.0,96.0,438.0,112.0,442.0,122.0,458.0,126.0,474.0" stroke="black" stroke-width="1" fill="none" />
<polyline points="52.0,490.0,54.0,474.0,64.0,458.0,72.0,440.0,76.0,424.0,94.0,428.0,84.0,410.0,86.0,394.0,82.0,378.0,82.0,362.0,88.0,358.0,84.0,342.0,82.0,326.0,92.0,310.0,110.0,302.0,88.0,284.0,92.0,268.0,84.0,262.0" stroke="black" stroke-width="1" fill="none" />
<polyline points="110.0,274.0,126.0,274.0" stroke="black" stroke-width="1" fill="none" />
<polyline points="130.0,292.0,146.0,292.0" stroke="black" stroke-width="1" fill="none" />
<polyline points="140.0,298.0,142.0,318.0,138.0,334.0" stroke="black" stroke-width="1" fill="none" />
<polyline points="116.0,352.0,114.0,352.0,128.0,336.0,128.0,320.0,136.0,318.0,138.0,318.0,122.0,306.0,106.0,310.0" stroke="black" stroke-width="1" fill="none" />
<polyline points="118.0,306.0,110.0,322.0,96.0,324.0,98.0,340.0,94.0,350.0,108.0,340.0,124.0,330.0,126.0,340.0,136.0,336.0" stroke="black" stroke-width="1" fill="none" />
<polyline points="124.0,370.0,108.0,364.0" stroke="black" stroke-width="1" fill="none" />
<polyline points="92.0,370.0,92.0,386.0,92.0,402.0,88.0,428.0,94.0,442.0,88.0,458.0,82.0,474.0,80.0,490.0,94.0,498.0,74.0,508.0,88.0,502.0,104.0,500.0,120.0,500.0,136.0,488.0,162.0,492.0" stroke="black" stroke-width="1" fill="none" />
<polyline points="144.0,386.0,140.0,370.0,144.0,344.0,148.0,324.0,148.0,308.0,134.0,304.0,128.0,300.0,112.0,302.0,96.0,320.0" stroke="black" stroke-width="1" fill="none" />
<polyline points="90.0,314.0,96.0,300.0,112.0,292.0,120.0,282.0" stroke="black" stroke-width="1" fill="none" />
<polyline points="82.0,324.0,88.0,322.0,88.0,338.0,92.0,354.0,120.0,358.0,136.0,348.0" stroke="black" stroke-width="1" fill="none" />
<polyline points="82.0,418.0,66.0,418.0" stroke="black" stroke-width="1" fill="none" />
<polyline points="66.0,408.0,82.0,406.0,86.0,410.0" stroke="black" stroke-width="1" fill="none" />
<polyline points="48.0,440.0,64.0,430.0,48.0,442.0,48.0,458.0,46.0,474.0,50.0,474.0,64.0,480.0,60.0,496.0" stroke="black" stroke-width="1" fill="none" />
<polyline points="190.0,464.0,174.0,464.0,150.0,476.0,142.0,468.0,148.0,468.0,140.0,462.0,136.0,450.0,126.0,440.0,124.0,420.0,112.0,410.0,110.0,414.0,108.0,396.0,118.0,386.0,110.0,380.0,84.0,386.0,84.0,374.0,74.0,366.0,76.0,346.0,68.0,320.0,66.0,304.0,72.0,288.0,56.0,286.0,54.0,292.0" stroke="black" stroke-width="1" fill="none" />
<polyline points="48.0,256.0,64.0,256.0,80.0,254.0,86.0,272.0,84.0,288.0,82.0,304.0,72.0,312.0,68.0,328.0,68.0,338.0,68.0,354.0,66.0,370.0,70.0,354.0,86.0,366.0,108.0,374.0,124.0,378.0,140.0,364.0,150.0,332.0,174.0,310.0,186.0,294.0" stroke="black" stroke-width="1" fill="none" />
</svg>