<svg xmlns="http://www.w3.org/2000/svg" height="508px" width="178px" version="1.1"><polyline points="92.0,264.0,84.0,280.0,94.0,286.0,88.0,300.0,90.0,304.0,106.0,306.0,122.0,310.0,130.0,296.0,140.0,290.0,152.0,304.0,168.0,310.0,178.0,310.0" stroke="black" stroke-width="1" fill="none" />
<polyline points="172.0,296.0,170.0,312.0,178.0,320.0,178.0,334.0,178.0,350.0,156.0,358.0,158.0,374.0,154.0,378.0,146.0,388.0,150.0,396.0,144.0,412.0,138.0,428.0,120.0,432.0,130.0,436.0,118.0,454.0,136.0,450.0,144.0,468.0" stroke="black" stroke-width="1" fill="none" />
<polyline points="128.0,466.0,144.0,450.0,138.0,428.0,122.0,438.0" stroke="black" stroke-width="1" fill="none" />
<polyline points="102.0,434.0,112.0,436.0,108.0,452.0,110.0,454.0,126.0,464.0" stroke="black" stroke-width="1" fill="none" />
<polyline points="138.0,474.0,122.0,474.0,106.0,460.0" stroke="black" stroke-width="1" fill="none" />
<polyline points="92.0,498.0,94.0,504.0,82.0,484.0,90.0,482.0,88.0,466.0,98.0,462.0,100.0,446.0,106.0,430.0,112.0,414.0,126.0,410.0,134.0,382.0,146.0,376.0,134.0,360.0,118.0,362.0,102.0,360.0" stroke="black" stroke-width="1" fill="none" />
<polyline points="100.0,368.0,116.0,368.0,132.0,366.0,148.0,378.0" stroke="black" stroke-width="1" fill="none" />
<polyline points="148.0,388.0,132.0,390.0,116.0,388.0" stroke="black" stroke-width="1" fill="none" />
<polyline points="102.0,376.0,118.0,372.0,134.0,372.0,120.0,388.0,126.0,378.0,144.0,380.0" stroke="black" stroke-width="1" fill="none" />
<polyline points="172.0,352.0,156.0,358.0,132.0,348.0,116.0,344.0,106.0,348.0,108.0,340.0,86.0,354.0,86.0,342.0" stroke="black" stroke-width="1" fill="none" />
<polyline points="74.0,324.0,82.0,318.0,100.0,314.0" stroke="black" stroke-width="1" fill="none" />
<polyline points="102.0,322.0,118.0,322.0,118.0,328.0,122.0,336.0,138.0,342.0,154.0,336.0" stroke="black" stroke-width="1" fill="none" />
<polyline points="172.0,334.0,164.0,350.0,160.0,346.0,148.0,334.0,146.0,318.0" stroke="black" stroke-width="1" fill="none" />
<polyline points="152.0,310.0,140.0,326.0,130.0,328.0,122.0,310.0,120.0,302.0,122.0,292.0,114.0,292.0,122.0,282.0,106.0,278.0,90.0,280.0" stroke="black" stroke-width="1" fill="none" />
<polyline points="86.0,270.0,102.0,262.0,118.0,262.0,128.0,276.0" stroke="black" stroke-width="1" fill="none" />
<polyline points="102.0,266.0,102.0,270.0,90.0,288.0,88.0,304.0,80.0,320.0,84.0,342.0,100.0,358.0,92.0,368.0,100.0,374.0,102.0,390.0,106.0,402.0,98.0,406.0,98.0,422.0,94.0,436.0,90.0,452.0,102.0,458.0,116.0,474.0,112.0,486.0,114.0,498.0" stroke="black" stroke-width="1" fill="none" />
<polyline points="98.0,498.0,94.0,488.0,86.0,508.0,74.0,500.0,74.0,484.0,80.0,468.0,78.0,452.0,80.0,436.0,88.0,420.0,76.0,404.0,74.0,388.0,82.0,372.0,86.0,356.0,74.0,358.0,76.0,342.0,74.0,326.0,74.0,310.0,74.0,294.0,76.0,278.0,76.0,262.0,78.0,266.0" stroke="black" stroke-width="1" fill="none" />
<polyline points="76.0,258.0,92.0,256.0,108.0,256.0,124.0,256.0,138.0,270.0,142.0,286.0,134.0,296.0,134.0,312.0,106.0,324.0,128.0,340.0,120.0,350.0,132.0,356.0,150.0,366.0,156.0,378.0,166.0,382.0" stroke="black" stroke-width="1" fill="none" />
<polyline points="148.0,408.0,132.0,402.0,120.0,418.0,104.0,420.0,92.0,414.0,76.0,412.0" stroke="black" stroke-width="1" fill="none" />
<polyline points="80.0,396.0,96.0,402.0,106.0,402.0,122.0,398.0,122.0,404.0" stroke="black" stroke-width="1" fill="none" />
<polyline points="166.0,392.0,152.0,392.0,174.0,396.0,164.0,384.0,174.0,368.0,178.0,352.0" stroke="black" stroke-width="1" fill="none" />
<polyline points="138.0,324.0,142.0,308.0" stroke="black" stroke-width="1" fill="none" />
</svg>