<svg xmlns="http://www.w3.org/2000/svg" height="508px" width="210px" version="1.1"><polyline points="136.0,258.0,142.0,264.0,132.0,280.0,132.0,296.0,130.0,312.0,140.0,318.0,158.0,332.0,152.0,336.0,172.0,340.0,174.0,356.0,160.0,366.0,142.0,368.0,148.0,386.0,140.0,390.0,166.0,392.0,180.0,404.0,204.0,422.0,210.0,422.0,204.0,428.0,204.0,442.0,188.0,458.0,188.0,464.0,186.0,480.0,202.0,494.0" stroke="black" stroke-width="1" fill="none" />
<polyline points="180.0,498.0,168.0,490.0,160.0,476.0,168.0,468.0,180.0,454.0,182.0,432.0,172.0,418.0,170.0,424.0" stroke="black" stroke-width="1" fill="none" />
<polyline points="180.0,426.0,168.0,452.0,150.0,464.0,146.0,482.0" stroke="black" stroke-width="1" fill="none" />
<polyline points="152.0,488.0,168.0,488.0,184.0,492.0" stroke="black" stroke-width="1" fill="none" />
<polyline points="198.0,486.0,200.0,484.0,200.0,474.0,184.0,478.0,168.0,476.0" stroke="black" stroke-width="1" fill="none" />
<polyline points="168.0,464.0,188.0,458.0,192.0,458.0,204.0,452.0" stroke="black" stroke-width="1" fill="none" />
<polyline points="204.0,438.0,186.0,440.0,186.0,440.0,196.0,424.0" stroke="black" stroke-width="1" fill="none" />
<polyline points="200.0,392.0,190.0,412.0,166.0,400.0,170.0,386.0,154.0,396.0,150.0,388.0" stroke="black" stroke-width="1" fill="none" />
<polyline points="146.0,406.0,178.0,414.0,170.0,424.0,176.0,440.0,172.0,454.0,162.0,466.0,146.0,482.0,162.0,496.0,164.0,500.0,176.0,484.0,192.0,488.0,198.0,502.0" stroke="black" stroke-width="1" fill="none" />
<polyline points="122.0,456.0,116.0,474.0,118.0,472.0,134.0,454.0,132.0,434.0,136.0,418.0,136.0,416.0" stroke="black" stroke-width="1" fill="none" />
<polyline points="130.0,394.0,114.0,388.0" stroke="black" stroke-width="1" fill="none" />
<polyline points="114.0,378.0,130.0,368.0,148.0,378.0,164.0,374.0,180.0,372.0,196.0,364.0,196.0,360.0,180.0,358.0" stroke="black" stroke-width="1" fill="none" />
<polyline points="148.0,358.0,146.0,354.0,150.0,364.0,166.0,358.0,168.0,366.0,184.0,376.0,184.0,372.0,200.0,370.0,208.0,374.0,198.0,386.0,184.0,390.0,190.0,392.0,196.0,404.0" stroke="black" stroke-width="1" fill="none" />
<polyline points="204.0,352.0,188.0,354.0,210.0,366.0,210.0,350.0,208.0,344.0,192.0,344.0,182.0,356.0,176.0,330.0,188.0,314.0,192.0,298.0,170.0,312.0,170.0,320.0,154.0,324.0,162.0,316.0,182.0,308.0,188.0,292.0,192.0,276.0,190.0,260.0,180.0,256.0,164.0,256.0,148.0,256.0,132.0,266.0" stroke="black" stroke-width="1" fill="none" />
<polyline points="132.0,278.0,148.0,266.0,164.0,262.0,180.0,264.0" stroke="black" stroke-width="1" fill="none" />
<polyline points="162.0,270.0,172.0,278.0,172.0,294.0" stroke="black" stroke-width="1" fill="none" />
<polyline points="188.0,312.0,174.0,308.0,178.0,292.0,180.0,276.0,160.0,278.0,144.0,270.0,146.0,266.0,138.0,282.0,138.0,298.0,140.0,292.0" stroke="black" stroke-width="1" fill="none" />
<polyline points="118.0,322.0,102.0,328.0,86.0,330.0,70.0,348.0,66.0,360.0,50.0,368.0,52.0,372.0,76.0,356.0,72.0,346.0,98.0,334.0" stroke="black" stroke-width="1" fill="none" />
<polyline points="100.0,322.0,84.0,322.0" stroke="black" stroke-width="1" fill="none" />
<polyline points="80.0,338.0,74.0,338.0,64.0,354.0,44.0,370.0,44.0,386.0,46.0,402.0,64.0,386.0,74.0,388.0,80.0,366.0,96.0,362.0,106.0,346.0,122.0,336.0,138.0,334.0,156.0,330.0,172.0,330.0,184.0,326.0" stroke="black" stroke-width="1" fill="none" />
<polyline points="138.0,340.0,132.0,356.0,130.0,358.0,118.0,374.0,128.0,384.0,128.0,400.0,134.0,402.0,130.0,418.0,126.0,434.0,126.0,450.0,116.0,452.0,88.0,468.0,64.0,484.0,68.0,500.0,56.0,494.0" stroke="black" stroke-width="1" fill="none" />
<polyline points="56.0,484.0,58.0,500.0,66.0,480.0,82.0,472.0,98.0,464.0,114.0,456.0,116.0,458.0,90.0,476.0,84.0,482.0,82.0,486.0,98.0,474.0" stroke="black" stroke-width="1" fill="none" />
<polyline points="72.0,490.0,70.0,470.0,92.0,460.0,110.0,450.0,116.0,436.0,104.0,430.0,122.0,418.0,118.0,410.0,124.0,394.0,108.0,374.0,104.0,374.0,114.0,366.0,130.0,350.0,124.0,354.0,108.0,374.0" stroke="black" stroke-width="1" fill="none" />
<polyline points="130.0,334.0,94.0,344.0,80.0,360.0,88.0,350.0,104.0,340.0,132.0,346.0,156.0,342.0" stroke="black" stroke-width="1" fill="none" />
<polyline points="158.0,312.0,142.0,308.0,166.0,290.0,166.0,302.0,150.0,302.0,148.0,314.0,134.0,314.0,126.0,328.0,110.0,332.0,94.0,336.0,78.0,352.0,64.0,378.0,60.0,400.0,64.0,396.0,82.0,380.0,88.0,372.0,98.0,360.0,108.0,344.0,120.0,314.0,120.0,298.0,120.0,288.0,118.0,272.0,130.0,264.0,120.0,260.0" stroke="black" stroke-width="1" fill="none" />
<polyline points="52.0,380.0,68.0,372.0,64.0,392.0" stroke="black" stroke-width="1" fill="none" />
<polyline points="92.0,444.0,76.0,460.0,94.0,460.0,100.0,446.0,112.0,432.0,122.0,416.0,140.0,398.0,152.0,402.0,168.0,408.0,184.0,416.0,192.0,414.0,208.0,416.0" stroke="black" stroke-width="1" fill="none" />
<polyline points="84.0,464.0,68.0,472.0,52.0,476.0" stroke="black" stroke-width="1" fill="none" />
<polyline points="52.0,482.0,52.0,498.0" stroke="black" stroke-width="1" fill="none" />
<polyline points="44.0,474.0,60.0,468.0,62.0,458.0,78.0,460.0,96.0,452.0,114.0,442.0" stroke="black" stroke-width="1" fill="none" />
<polyline points="50.0,460.0,44.0,476.0,44.0,492.0,44.0,508.0" stroke="black" stroke-width="1" fill="none" />
</svg>