<svg xmlns="http://www.w3.org/2000/svg" height="508px" width="248px" version="1.1"><polyline points="6.0,256.0,6.0,272.0,6.0,256.0,14.0,266.0" stroke="black" stroke-width="1" fill="none" />
<polyline points="40.0,268.0,46.0,284.0,48.0,300.0,60.0,322.0,68.0,338.0,78.0,350.0,68.0,364.0,88.0,370.0,110.0,372.0,138.0,364.0,154.0,368.0,170.0,360.0" stroke="black" stroke-width="1" fill="none" />
<polyline points="150.0,332.0,120.0,326.0,116.0,310.0,118.0,294.0,138.0,294.0,148.0,294.0,132.0,286.0" stroke="black" stroke-width="1" fill="none" />
<polyline points="118.0,294.0,134.0,282.0,150.0,286.0,152.0,306.0,154.0,322.0" stroke="black" stroke-width="1" fill="none" />
<polyline points="176.0,302.0,160.0,282.0" stroke="black" stroke-width="1" fill="none" />
<polyline points="148.0,276.0,166.0,292.0,174.0,308.0,174.0,324.0,164.0,340.0" stroke="black" stroke-width="1" fill="none" />
<polyline points="138.0,338.0,130.0,330.0,122.0,314.0,136.0,310.0,126.0,294.0,124.0,304.0,122.0,302.0,124.0,318.0" stroke="black" stroke-width="1" fill="none" />
<polyline points="120.0,300.0,136.0,298.0,146.0,286.0,162.0,302.0,166.0,318.0,158.0,334.0" stroke="black" stroke-width="1" fill="none" />
<polyline points="162.0,326.0,148.0,330.0,132.0,336.0,116.0,332.0,102.0,318.0,98.0,338.0,96.0,354.0,90.0,342.0,100.0,322.0,100.0,306.0,110.0,290.0,108.0,274.0,100.0,272.0" stroke="black" stroke-width="1" fill="none" />
<polyline points="108.0,280.0,124.0,276.0,138.0,272.0,152.0,278.0,168.0,280.0,184.0,288.0" stroke="black" stroke-width="1" fill="none" />
<polyline points="176.0,278.0,192.0,286.0,216.0,288.0,232.0,292.0,248.0,296.0" stroke="black" stroke-width="1" fill="none" />
<polyline points="238.0,302.0,222.0,306.0,218.0,302.0,220.0,310.0,210.0,324.0,232.0,324.0,236.0,308.0,240.0,312.0,248.0,316.0" stroke="black" stroke-width="1" fill="none" />
<polyline points="244.0,326.0,228.0,334.0" stroke="black" stroke-width="1" fill="none" />
<polyline points="246.0,338.0,246.0,324.0,236.0,340.0,220.0,336.0,204.0,328.0" stroke="black" stroke-width="1" fill="none" />
<polyline points="196.0,332.0,206.0,348.0,228.0,350.0,244.0,346.0,240.0,342.0,224.0,344.0,208.0,342.0,208.0,336.0,210.0,328.0,214.0,320.0,216.0,304.0,202.0,318.0" stroke="black" stroke-width="1" fill="none" />
<polyline points="222.0,284.0,238.0,286.0" stroke="black" stroke-width="1" fill="none" />
<polyline points="248.0,270.0,244.0,286.0,246.0,296.0,246.0,312.0,228.0,316.0,222.0,322.0,222.0,346.0,212.0,356.0,230.0,356.0" stroke="black" stroke-width="1" fill="none" />
<polyline points="220.0,270.0,220.0,266.0" stroke="black" stroke-width="1" fill="none" />
<polyline points="214.0,256.0,206.0,272.0,192.0,278.0,198.0,284.0,194.0,290.0,188.0,306.0,180.0,322.0,204.0,304.0,220.0,280.0,236.0,274.0" stroke="black" stroke-width="1" fill="none" />
<polyline points="204.0,256.0,220.0,256.0,236.0,254.0,246.0,260.0,230.0,276.0,214.0,282.0,208.0,298.0,200.0,314.0,192.0,330.0,190.0,344.0,170.0,360.0,144.0,366.0,136.0,382.0,134.0,400.0,136.0,416.0,144.0,426.0,152.0,440.0,162.0,456.0,170.0,472.0,196.0,482.0,188.0,506.0" stroke="black" stroke-width="1" fill="none" />
<polyline points="216.0,494.0,200.0,498.0,184.0,500.0,168.0,492.0,152.0,480.0,136.0,478.0,132.0,486.0" stroke="black" stroke-width="1" fill="none" />
<polyline points="134.0,500.0,142.0,496.0,146.0,480.0,116.0,488.0" stroke="black" stroke-width="1" fill="none" />
<polyline points="116.0,452.0,100.0,466.0,88.0,482.0,72.0,484.0,56.0,484.0,46.0,490.0,46.0,474.0" stroke="black" stroke-width="1" fill="none" />
<polyline points="54.0,490.0,48.0,476.0,30.0,478.0,40.0,470.0,42.0,454.0,18.0,454.0,16.0,450.0,32.0,444.0,14.0,464.0,20.0,462.0,36.0,454.0,52.0,454.0" stroke="black" stroke-width="1" fill="none" />
<polyline points="82.0,462.0,66.0,470.0,76.0,464.0,80.0,458.0,60.0,454.0,62.0,456.0,46.0,436.0,30.0,434.0,14.0,440.0" stroke="black" stroke-width="1" fill="none" />
<polyline points="6.0,446.0,12.0,434.0,6.0,450.0,6.0,466.0,28.0,470.0,8.0,470.0,24.0,476.0,28.0,466.0,44.0,466.0,60.0,478.0,76.0,478.0,92.0,464.0,108.0,450.0,124.0,438.0,140.0,448.0,138.0,454.0,136.0,468.0,156.0,476.0,146.0,492.0,152.0,508.0" stroke="black" stroke-width="1" fill="none" />
<polyline points="172.0,508.0,174.0,504.0,168.0,478.0,160.0,462.0,148.0,446.0,134.0,430.0,128.0,414.0,126.0,398.0,128.0,382.0,130.0,366.0,128.0,344.0,118.0,336.0,104.0,334.0,110.0,324.0,106.0,308.0,102.0,290.0,100.0,276.0,102.0,282.0,102.0,290.0" stroke="black" stroke-width="1" fill="none" />
<polyline points="82.0,286.0,80.0,302.0,80.0,312.0" stroke="black" stroke-width="1" fill="none" />
<polyline points="88.0,350.0,104.0,356.0,120.0,346.0,146.0,356.0,162.0,356.0" stroke="black" stroke-width="1" fill="none" />
<polyline points="188.0,368.0,180.0,358.0,172.0,370.0,168.0,350.0,180.0,334.0,188.0,318.0,196.0,302.0,184.0,306.0,174.0,290.0,156.0,274.0,144.0,264.0,128.0,268.0,112.0,272.0" stroke="black" stroke-width="1" fill="none" />
<polyline points="160.0,268.0,182.0,282.0,176.0,296.0" stroke="black" stroke-width="1" fill="none" />
<polyline points="110.0,352.0,88.0,352.0,80.0,336.0,76.0,320.0,74.0,304.0,72.0,288.0,72.0,272.0,74.0,256.0,70.0,256.0,54.0,256.0,50.0,256.0,50.0,272.0,56.0,288.0,64.0,302.0,66.0,318.0,64.0,332.0,76.0,348.0,76.0,364.0,94.0,368.0,90.0,364.0,106.0,366.0,116.0,354.0,142.0,350.0,158.0,346.0,174.0,330.0,182.0,310.0,190.0,294.0" stroke="black" stroke-width="1" fill="none" />
<polyline points="118.0,380.0,118.0,396.0,118.0,412.0,110.0,428.0,102.0,434.0,90.0,454.0,80.0,450.0,96.0,442.0,106.0,434.0,132.0,422.0,148.0,428.0,148.0,444.0,164.0,470.0,180.0,476.0,196.0,480.0,212.0,478.0,232.0,466.0,236.0,470.0" stroke="black" stroke-width="1" fill="none" />
<polyline points="236.0,480.0,248.0,486.0,248.0,502.0" stroke="black" stroke-width="1" fill="none" />
<polyline points="168.0,502.0,164.0,486.0" stroke="black" stroke-width="1" fill="none" />
<polyline points="156.0,482.0,158.0,498.0,174.0,498.0,194.0,490.0,210.0,484.0,226.0,478.0,242.0,484.0" stroke="black" stroke-width="1" fill="none" />
<polyline points="160.0,486.0,146.0,468.0,120.0,462.0,106.0,470.0,98.0,468.0,114.0,452.0" stroke="black" stroke-width="1" fill="none" />
<polyline points="124.0,438.0,104.0,454.0,84.0,470.0,82.0,486.0" stroke="black" stroke-width="1" fill="none" />
<polyline points="78.0,492.0,58.0,478.0,60.0,468.0,50.0,452.0,38.0,436.0,48.0,432.0,60.0,442.0,44.0,428.0,28.0,426.0,12.0,428.0" stroke="black" stroke-width="1" fill="none" />
<polyline points="122.0,422.0,110.0,438.0,100.0,442.0,116.0,434.0,136.0,450.0,152.0,464.0" stroke="black" stroke-width="1" fill="none" />
</svg>