<svg xmlns="http://www.w3.org/2000/svg" height="506px" width="202px" version="1.1"><polyline points="102.0,260.0,100.0,276.0" stroke="black" stroke-width="1" fill="none" />
<polyline points="96.0,294.0,112.0,304.0,128.0,308.0" stroke="black" stroke-width="1" fill="none" />
<polyline points="136.0,296.0,152.0,288.0,168.0,288.0,184.0,292.0,168.0,294.0,170.0,310.0,162.0,326.0,156.0,306.0,152.0,322.0,172.0,330.0,188.0,328.0,190.0,330.0,180.0,346.0,170.0,366.0,166.0,382.0,170.0,396.0,166.0,400.0,142.0,408.0,154.0,402.0,160.0,404.0,166.0,400.0,182.0,394.0,198.0,402.0,202.0,418.0,202.0,434.0,200.0,450.0,188.0,454.0,178.0,452.0,188.0,454.0" stroke="black" stroke-width="1" fill="none" />
<polyline points="184.0,444.0,174.0,430.0,180.0,414.0,166.0,404.0" stroke="black" stroke-width="1" fill="none" />
<polyline points="158.0,422.0,152.0,438.0,160.0,452.0,176.0,448.0" stroke="black" stroke-width="1" fill="none" />
<polyline points="152.0,426.0,168.0,418.0,160.0,416.0,142.0,432.0,150.0,448.0,152.0,476.0,164.0,482.0,168.0,480.0,178.0,484.0" stroke="black" stroke-width="1" fill="none" />
<polyline points="188.0,462.0,174.0,460.0,158.0,464.0,142.0,462.0" stroke="black" stroke-width="1" fill="none" />
<polyline points="134.0,452.0,138.0,448.0,142.0,468.0,142.0,492.0,158.0,492.0" stroke="black" stroke-width="1" fill="none" />
<polyline points="144.0,440.0,160.0,448.0,166.0,442.0,182.0,438.0,186.0,434.0,190.0,432.0,190.0,420.0,174.0,412.0,158.0,418.0,142.0,430.0" stroke="black" stroke-width="1" fill="none" />
<polyline points="132.0,440.0,148.0,454.0,148.0,472.0,152.0,488.0,180.0,504.0" stroke="black" stroke-width="1" fill="none" />
<polyline points="166.0,502.0,180.0,500.0,166.0,502.0,152.0,500.0,122.0,506.0,120.0,490.0,122.0,474.0,120.0,458.0,124.0,442.0,120.0,434.0,102.0,418.0,96.0,404.0,98.0,388.0,98.0,380.0,102.0,368.0,96.0,356.0,94.0,346.0,96.0,334.0,104.0,318.0,92.0,318.0,90.0,306.0,88.0,290.0,94.0,274.0,96.0,258.0,84.0,256.0,68.0,256.0,52.0,258.0" stroke="black" stroke-width="1" fill="none" />
<polyline points="60.0,264.0,52.0,264.0,52.0,280.0,56.0,288.0,72.0,282.0,72.0,288.0,74.0,294.0,76.0,310.0,76.0,326.0,82.0,342.0,84.0,358.0,92.0,374.0,100.0,398.0,110.0,400.0,128.0,418.0,124.0,430.0,134.0,454.0,138.0,470.0,138.0,486.0,132.0,502.0" stroke="black" stroke-width="1" fill="none" />
<polyline points="132.0,486.0,130.0,478.0,128.0,462.0,124.0,446.0" stroke="black" stroke-width="1" fill="none" />
<polyline points="114.0,432.0,114.0,418.0,128.0,404.0,114.0,388.0,110.0,372.0,110.0,356.0,108.0,340.0,110.0,324.0,98.0,316.0" stroke="black" stroke-width="1" fill="none" />
<polyline points="104.0,308.0,120.0,314.0" stroke="black" stroke-width="1" fill="none" />
<polyline points="110.0,322.0,126.0,324.0,142.0,328.0,158.0,330.0,174.0,318.0,162.0,338.0,152.0,354.0,144.0,354.0,138.0,370.0,134.0,386.0,118.0,402.0,116.0,392.0,132.0,390.0,142.0,356.0" stroke="black" stroke-width="1" fill="none" />
<polyline points="176.0,356.0,192.0,354.0" stroke="black" stroke-width="1" fill="none" />
<polyline points="164.0,294.0,148.0,294.0" stroke="black" stroke-width="1" fill="none" />
<polyline points="150.0,286.0,138.0,302.0,134.0,316.0,144.0,316.0,148.0,304.0,164.0,298.0,174.0,300.0,180.0,300.0" stroke="black" stroke-width="1" fill="none" />
<polyline points="170.0,344.0,160.0,340.0,144.0,346.0,130.0,338.0,128.0,328.0,112.0,328.0" stroke="black" stroke-width="1" fill="none" />
<polyline points="96.0,326.0,118.0,348.0,118.0,364.0,120.0,380.0,122.0,406.0" stroke="black" stroke-width="1" fill="none" />
<polyline points="106.0,406.0,90.0,412.0" stroke="black" stroke-width="1" fill="none" />
<polyline points="92.0,392.0,90.0,370.0" stroke="black" stroke-width="1" fill="none" />
<polyline points="158.0,386.0,154.0,370.0,156.0,380.0,130.0,416.0,140.0,400.0,142.0,384.0,154.0,384.0,162.0,368.0,182.0,358.0,198.0,348.0,202.0,332.0,192.0,340.0,174.0,356.0,154.0,368.0,142.0,394.0,126.0,410.0,110.0,398.0,98.0,360.0,84.0,342.0,88.0,332.0,80.0,320.0,82.0,304.0,80.0,288.0,70.0,278.0,54.0,274.0" stroke="black" stroke-width="1" fill="none" />
<polyline points="60.0,264.0,76.0,266.0" stroke="black" stroke-width="1" fill="none" />
</svg>