<svg xmlns="http://www.w3.org/2000/svg" height="508px" width="220px" version="1.1"><polyline points="196.0,260.0,184.0,276.0,186.0,284.0,190.0,292.0,180.0,300.0,184.0,306.0,178.0,322.0,172.0,328.0,168.0,354.0,174.0,342.0,190.0,330.0" stroke="black" stroke-width="1" fill="none" />
<polyline points="184.0,316.0,160.0,340.0,144.0,350.0" stroke="black" stroke-width="1" fill="none" />
<polyline points="148.0,322.0,138.0,334.0,136.0,334.0,138.0,318.0,152.0,314.0,146.0,298.0,134.0,302.0" stroke="black" stroke-width="1" fill="none" />
<polyline points="142.0,296.0,158.0,302.0,158.0,318.0" stroke="black" stroke-width="1" fill="none" />
<polyline points="148.0,316.0,132.0,324.0" stroke="black" stroke-width="1" fill="none" />
<polyline points="104.0,330.0,88.0,326.0,72.0,324.0,56.0,324.0,40.0,326.0" stroke="black" stroke-width="1" fill="none" />
<polyline points="36.0,316.0,52.0,316.0,68.0,318.0,80.0,342.0,74.0,350.0,82.0,354.0,96.0,354.0,112.0,352.0" stroke="black" stroke-width="1" fill="none" />
<polyline points="132.0,384.0,150.0,398.0,162.0,390.0" stroke="black" stroke-width="1" fill="none" />
<polyline points="152.0,406.0,136.0,412.0,126.0,406.0,110.0,432.0,100.0,460.0,84.0,478.0,80.0,498.0,88.0,484.0,102.0,464.0,124.0,456.0,130.0,438.0,138.0,438.0,144.0,434.0,162.0,418.0,162.0,402.0,160.0,390.0,150.0,378.0,164.0,362.0,176.0,348.0,188.0,328.0,202.0,316.0,202.0,308.0,212.0,304.0,212.0,288.0,220.0,266.0,214.0,256.0,198.0,256.0,182.0,262.0" stroke="black" stroke-width="1" fill="none" />
<polyline points="172.0,266.0,182.0,264.0,172.0,270.0,172.0,286.0,160.0,288.0,166.0,304.0,164.0,320.0,148.0,336.0,132.0,352.0,134.0,368.0,134.0,386.0,136.0,398.0,144.0,404.0,126.0,406.0,114.0,420.0,106.0,436.0,90.0,452.0,76.0,468.0,84.0,478.0,88.0,500.0" stroke="black" stroke-width="1" fill="none" />
<polyline points="88.0,494.0,68.0,492.0,52.0,486.0,52.0,486.0,48.0,502.0" stroke="black" stroke-width="1" fill="none" />
<polyline points="46.0,486.0,42.0,502.0,68.0,506.0,84.0,506.0" stroke="black" stroke-width="1" fill="none" />
<polyline points="102.0,464.0,118.0,456.0,138.0,462.0,140.0,478.0" stroke="black" stroke-width="1" fill="none" />
<polyline points="144.0,454.0,130.0,446.0,122.0,438.0,118.0,466.0,102.0,478.0,102.0,490.0,106.0,474.0,124.0,458.0" stroke="black" stroke-width="1" fill="none" />
<polyline points="148.0,446.0,150.0,462.0,144.0,472.0,146.0,488.0,136.0,496.0,134.0,488.0,160.0,486.0,172.0,486.0,180.0,488.0,198.0,496.0,210.0,506.0" stroke="black" stroke-width="1" fill="none" />
<polyline points="212.0,500.0,196.0,504.0,180.0,506.0,164.0,504.0,162.0,498.0,146.0,504.0,154.0,488.0,158.0,472.0,154.0,456.0,154.0,440.0,154.0,424.0,158.0,408.0,150.0,398.0,144.0,386.0,140.0,370.0,134.0,344.0,120.0,328.0,134.0,312.0,132.0,296.0,138.0,286.0,118.0,296.0,118.0,296.0,124.0,312.0,126.0,324.0,136.0,294.0,152.0,292.0,166.0,300.0,176.0,280.0,192.0,266.0,208.0,262.0" stroke="black" stroke-width="1" fill="none" />
<polyline points="202.0,272.0,186.0,282.0" stroke="black" stroke-width="1" fill="none" />
<polyline points="184.0,288.0,176.0,296.0,170.0,312.0,166.0,328.0,158.0,344.0,150.0,356.0,164.0,366.0,172.0,370.0,188.0,354.0,204.0,340.0,208.0,340.0" stroke="black" stroke-width="1" fill="none" />
<polyline points="180.0,378.0,182.0,372.0,186.0,356.0,202.0,340.0,208.0,336.0,220.0,320.0,220.0,304.0,218.0,288.0" stroke="black" stroke-width="1" fill="none" />
<polyline points="162.0,288.0,160.0,278.0,144.0,286.0" stroke="black" stroke-width="1" fill="none" />
<polyline points="114.0,286.0,130.0,278.0,146.0,272.0,132.0,284.0,114.0,292.0,114.0,308.0,114.0,324.0,104.0,326.0,110.0,336.0,126.0,358.0,126.0,374.0,126.0,390.0" stroke="black" stroke-width="1" fill="none" />
<polyline points="138.0,434.0,164.0,430.0,164.0,446.0,166.0,460.0,164.0,476.0,174.0,492.0" stroke="black" stroke-width="1" fill="none" />
<polyline points="178.0,486.0,182.0,502.0,192.0,504.0" stroke="black" stroke-width="1" fill="none" />
<polyline points="80.0,468.0,66.0,480.0,50.0,480.0,34.0,488.0" stroke="black" stroke-width="1" fill="none" />
<polyline points="36.0,482.0,34.0,498.0,40.0,508.0,50.0,508.0,66.0,498.0" stroke="black" stroke-width="1" fill="none" />
<polyline points="54.0,350.0,70.0,344.0,86.0,344.0,102.0,344.0,118.0,338.0,134.0,344.0,156.0,330.0,182.0,298.0,190.0,292.0,206.0,278.0,214.0,286.0" stroke="black" stroke-width="1" fill="none" />
<polyline points="130.0,258.0,114.0,260.0,98.0,258.0,96.0,254.0,112.0,254.0,130.0,254.0" stroke="black" stroke-width="1" fill="none" />
<polyline points="122.0,346.0,104.0,338.0,84.0,334.0,68.0,330.0,64.0,334.0,50.0,330.0,50.0,340.0,46.0,354.0,34.0,348.0,34.0,332.0,36.0,316.0,38.0,310.0" stroke="black" stroke-width="1" fill="none" />
</svg>