<svg xmlns="http://www.w3.org/2000/svg" height="508px" width="248px" version="1.1"><polyline points="126.0,264.0,108.0,280.0,104.0,296.0,108.0,312.0,116.0,312.0,126.0,322.0,144.0,312.0" stroke="black" stroke-width="1" fill="none" />
<polyline points="138.0,306.0,122.0,308.0,106.0,304.0" stroke="black" stroke-width="1" fill="none" />
<polyline points="104.0,290.0,120.0,266.0,136.0,264.0,160.0,262.0,160.0,278.0,160.0,294.0,154.0,310.0,138.0,326.0,130.0,330.0,146.0,320.0,158.0,314.0" stroke="black" stroke-width="1" fill="none" />
<polyline points="162.0,334.0,160.0,350.0,164.0,360.0,168.0,374.0,184.0,374.0,200.0,380.0" stroke="black" stroke-width="1" fill="none" />
<polyline points="188.0,412.0,172.0,410.0" stroke="black" stroke-width="1" fill="none" />
<polyline points="180.0,406.0,164.0,404.0" stroke="black" stroke-width="1" fill="none" />
<polyline points="146.0,406.0,162.0,404.0,184.0,410.0,188.0,420.0,200.0,430.0" stroke="black" stroke-width="1" fill="none" />
<polyline points="216.0,450.0,216.0,468.0,220.0,484.0,218.0,480.0,224.0,488.0,240.0,488.0" stroke="black" stroke-width="1" fill="none" />
<polyline points="240.0,476.0,224.0,474.0" stroke="black" stroke-width="1" fill="none" />
<polyline points="228.0,462.0,244.0,460.0" stroke="black" stroke-width="1" fill="none" />
<polyline points="184.0,446.0,168.0,446.0,164.0,440.0" stroke="black" stroke-width="1" fill="none" />
<polyline points="130.0,430.0,130.0,424.0,126.0,424.0,120.0,444.0" stroke="black" stroke-width="1" fill="none" />
<polyline points="130.0,418.0,146.0,430.0,164.0,424.0,160.0,438.0,178.0,440.0,178.0,454.0,178.0,462.0,186.0,454.0,204.0,482.0,202.0,498.0" stroke="black" stroke-width="1" fill="none" />
<polyline points="242.0,464.0,226.0,468.0,210.0,472.0,200.0,446.0,184.0,424.0,168.0,414.0,160.0,396.0,144.0,396.0" stroke="black" stroke-width="1" fill="none" />
<polyline points="124.0,402.0,140.0,404.0,180.0,414.0,182.0,438.0,192.0,454.0,192.0,470.0,202.0,476.0,194.0,492.0,196.0,508.0" stroke="black" stroke-width="1" fill="none" />
<polyline points="182.0,388.0,180.0,384.0,160.0,380.0,144.0,374.0" stroke="black" stroke-width="1" fill="none" />
<polyline points="138.0,376.0,154.0,362.0,170.0,362.0,186.0,362.0,202.0,362.0,204.0,390.0,198.0,412.0,194.0,426.0,200.0,442.0,208.0,454.0,224.0,464.0,228.0,472.0,246.0,484.0,246.0,500.0" stroke="black" stroke-width="1" fill="none" />
<polyline points="236.0,508.0,236.0,496.0,208.0,506.0,208.0,498.0,212.0,478.0,206.0,462.0,198.0,446.0,186.0,430.0,164.0,414.0,144.0,398.0,130.0,382.0,134.0,366.0,128.0,356.0,148.0,330.0,136.0,336.0,120.0,334.0" stroke="black" stroke-width="1" fill="none" />
<polyline points="118.0,344.0,120.0,360.0,120.0,376.0,120.0,392.0,120.0,414.0,118.0,430.0,118.0,446.0,110.0,462.0,100.0,478.0" stroke="black" stroke-width="1" fill="none" />
<polyline points="114.0,470.0,98.0,486.0,116.0,466.0,124.0,452.0,98.0,458.0,96.0,468.0,104.0,452.0,106.0,436.0,110.0,418.0,112.0,402.0,112.0,386.0,110.0,370.0,110.0,354.0,118.0,334.0,102.0,318.0,96.0,308.0,96.0,292.0,100.0,276.0,94.0,274.0,98.0,258.0,114.0,256.0,98.0,258.0,98.0,264.0" stroke="black" stroke-width="1" fill="none" />
<polyline points="110.0,264.0,126.0,256.0,142.0,256.0,158.0,260.0" stroke="black" stroke-width="1" fill="none" />
<polyline points="176.0,258.0,192.0,256.0,208.0,256.0,206.0,260.0,194.0,272.0,194.0,272.0,182.0,268.0" stroke="black" stroke-width="1" fill="none" />
<polyline points="212.0,274.0,216.0,290.0,218.0,306.0,242.0,312.0,242.0,320.0" stroke="black" stroke-width="1" fill="none" />
<polyline points="234.0,312.0,240.0,292.0,246.0,276.0,234.0,276.0" stroke="black" stroke-width="1" fill="none" />
<polyline points="228.0,274.0,226.0,290.0" stroke="black" stroke-width="1" fill="none" />
<polyline points="226.0,276.0,234.0,276.0,232.0,292.0,228.0,308.0,232.0,324.0,236.0,326.0" stroke="black" stroke-width="1" fill="none" />
<polyline points="248.0,300.0,248.0,284.0" stroke="black" stroke-width="1" fill="none" />
<polyline points="136.0,276.0,120.0,272.0" stroke="black" stroke-width="1" fill="none" />
<polyline points="112.0,282.0,126.0,272.0,128.0,288.0,110.0,290.0,112.0,306.0,92.0,326.0,98.0,324.0,94.0,320.0,78.0,330.0,62.0,334.0" stroke="black" stroke-width="1" fill="none" />
<polyline points="46.0,328.0,40.0,332.0,42.0,356.0,46.0,372.0,48.0,388.0,42.0,404.0,50.0,404.0,56.0,416.0,44.0,424.0,54.0,452.0,70.0,452.0,74.0,460.0,78.0,464.0,94.0,472.0" stroke="black" stroke-width="1" fill="none" />
<polyline points="92.0,450.0,92.0,434.0,90.0,432.0" stroke="black" stroke-width="1" fill="none" />
<polyline points="78.0,404.0,64.0,388.0,64.0,380.0,60.0,372.0" stroke="black" stroke-width="1" fill="none" />
<polyline points="58.0,366.0,78.0,350.0,54.0,352.0,54.0,368.0,56.0,384.0,76.0,400.0,74.0,416.0,66.0,426.0,28.0,446.0,12.0,446.0,22.0,438.0,38.0,436.0,56.0,452.0,64.0,448.0,76.0,454.0,92.0,466.0" stroke="black" stroke-width="1" fill="none" />
<polyline points="98.0,444.0,102.0,428.0,90.0,410.0,86.0,406.0,92.0,398.0,86.0,396.0,74.0,414.0,58.0,412.0,54.0,406.0,40.0,384.0,36.0,368.0,38.0,352.0,46.0,348.0,56.0,332.0,62.0,324.0,46.0,326.0,30.0,342.0" stroke="black" stroke-width="1" fill="none" />
<polyline points="38.0,344.0,54.0,330.0,70.0,326.0,86.0,322.0" stroke="black" stroke-width="1" fill="none" />
<polyline points="60.0,352.0,76.0,352.0,92.0,346.0,100.0,356.0,100.0,372.0,104.0,388.0,94.0,404.0" stroke="black" stroke-width="1" fill="none" />
<polyline points="104.0,392.0,106.0,408.0,130.0,412.0,146.0,416.0,162.0,422.0,178.0,432.0,194.0,456.0,220.0,460.0,236.0,454.0" stroke="black" stroke-width="1" fill="none" />
<polyline points="208.0,394.0,194.0,402.0,190.0,398.0,174.0,396.0,158.0,388.0,142.0,388.0,144.0,374.0,140.0,370.0,152.0,354.0,156.0,338.0,158.0,328.0,144.0,334.0,136.0,314.0,142.0,298.0,150.0,282.0,136.0,294.0,138.0,278.0,118.0,286.0" stroke="black" stroke-width="1" fill="none" />
<polyline points="90.0,282.0,88.0,298.0,90.0,314.0" stroke="black" stroke-width="1" fill="none" />
<polyline points="44.0,350.0,60.0,338.0,62.0,362.0,54.0,352.0,70.0,344.0,86.0,338.0,102.0,340.0,124.0,344.0,140.0,346.0" stroke="black" stroke-width="1" fill="none" />
<polyline points="134.0,354.0,126.0,370.0,132.0,350.0,132.0,370.0" stroke="black" stroke-width="1" fill="none" />
<polyline points="72.0,462.0,46.0,460.0,32.0,476.0,24.0,470.0,8.0,470.0" stroke="black" stroke-width="1" fill="none" />
<polyline points="8.0,476.0,24.0,482.0" stroke="black" stroke-width="1" fill="none" />
<polyline points="20.0,454.0,48.0,458.0,18.0,452.0,34.0,444.0" stroke="black" stroke-width="1" fill="none" />
<polyline points="50.0,460.0,58.0,476.0,70.0,478.0,72.0,480.0,88.0,484.0" stroke="black" stroke-width="1" fill="none" />
<polyline points="76.0,422.0,60.0,420.0,54.0,432.0,38.0,430.0,22.0,430.0,6.0,440.0" stroke="black" stroke-width="1" fill="none" />
<polyline points="8.0,412.0,6.0,428.0,6.0,440.0,6.0,456.0,14.0,464.0,30.0,462.0,46.0,454.0,62.0,466.0,78.0,474.0,94.0,480.0,110.0,460.0,126.0,446.0" stroke="black" stroke-width="1" fill="none" />
</svg>