<svg xmlns="http://www.w3.org/2000/svg" height="508px" width="190px" version="1.1"><polyline points="68.0,254.0,64.0,270.0,64.0,286.0,64.0,302.0,64.0,318.0,64.0,334.0,68.0,338.0,70.0,360.0,66.0,376.0,72.0,392.0,82.0,388.0,90.0,390.0,104.0,374.0,106.0,378.0,130.0,368.0,154.0,374.0" stroke="black" stroke-width="1" fill="none" />
<polyline points="146.0,364.0,162.0,380.0,162.0,408.0,152.0,424.0" stroke="black" stroke-width="1" fill="none" />
<polyline points="142.0,440.0,144.0,456.0,150.0,476.0,134.0,486.0,152.0,494.0" stroke="black" stroke-width="1" fill="none" />
<polyline points="112.0,464.0,132.0,454.0,126.0,438.0,140.0,428.0,138.0,412.0,134.0,396.0,138.0,386.0,124.0,390.0,128.0,400.0,134.0,396.0" stroke="black" stroke-width="1" fill="none" />
<polyline points="114.0,394.0,130.0,378.0,124.0,394.0,120.0,410.0,122.0,426.0,122.0,442.0,88.0,454.0,88.0,470.0,90.0,480.0,106.0,480.0,122.0,480.0" stroke="black" stroke-width="1" fill="none" />
<polyline points="124.0,456.0,108.0,460.0" stroke="black" stroke-width="1" fill="none" />
<polyline points="148.0,502.0,158.0,496.0,168.0,488.0,146.0,490.0,126.0,508.0,126.0,492.0,134.0,476.0,150.0,468.0,156.0,464.0,152.0,446.0,148.0,430.0,146.0,414.0,148.0,398.0,146.0,382.0,140.0,366.0,142.0,338.0,138.0,322.0,140.0,312.0,126.0,294.0,120.0,272.0,104.0,260.0" stroke="black" stroke-width="1" fill="none" />
<polyline points="98.0,266.0,112.0,268.0,126.0,268.0,134.0,272.0,134.0,288.0,148.0,306.0,146.0,322.0,154.0,338.0,148.0,348.0,154.0,364.0,154.0,380.0,158.0,396.0,154.0,412.0,162.0,426.0,164.0,434.0,158.0,450.0,164.0,466.0,162.0,482.0,156.0,484.0,130.0,500.0,132.0,490.0,136.0,480.0,148.0,478.0,170.0,480.0,176.0,466.0,168.0,480.0,178.0,492.0,170.0,500.0,172.0,502.0,176.0,508.0" stroke="black" stroke-width="1" fill="none" />
<polyline points="146.0,474.0,128.0,466.0,112.0,470.0,98.0,450.0,98.0,462.0,102.0,448.0,104.0,432.0,106.0,416.0,104.0,400.0,104.0,384.0" stroke="black" stroke-width="1" fill="none" />
<polyline points="80.0,368.0,92.0,368.0,86.0,370.0,74.0,376.0" stroke="black" stroke-width="1" fill="none" />
<polyline points="68.0,364.0,84.0,354.0,100.0,344.0" stroke="black" stroke-width="1" fill="none" />
<polyline points="100.0,324.0,78.0,316.0,88.0,298.0,88.0,282.0,80.0,280.0,94.0,264.0,88.0,278.0" stroke="black" stroke-width="1" fill="none" />
<polyline points="82.0,284.0,82.0,294.0,98.0,300.0" stroke="black" stroke-width="1" fill="none" />
<polyline points="116.0,302.0,116.0,286.0" stroke="black" stroke-width="1" fill="none" />
<polyline points="144.0,308.0,144.0,302.0,148.0,296.0,164.0,284.0,180.0,284.0,190.0,290.0,190.0,306.0,178.0,322.0,166.0,328.0,166.0,324.0,182.0,320.0" stroke="black" stroke-width="1" fill="none" />
<polyline points="180.0,330.0,182.0,310.0,166.0,316.0,162.0,320.0" stroke="black" stroke-width="1" fill="none" />
<polyline points="148.0,302.0,164.0,298.0,172.0,292.0" stroke="black" stroke-width="1" fill="none" />
<polyline points="158.0,332.0,144.0,328.0,128.0,310.0,104.0,304.0,102.0,310.0,88.0,316.0,72.0,302.0,74.0,294.0,72.0,278.0,86.0,262.0,78.0,276.0" stroke="black" stroke-width="1" fill="none" />
<polyline points="72.0,274.0,88.0,262.0,104.0,268.0,102.0,282.0,100.0,298.0,114.0,322.0,114.0,338.0,106.0,342.0,118.0,354.0,94.0,378.0,82.0,378.0,98.0,372.0,114.0,366.0,114.0,358.0" stroke="black" stroke-width="1" fill="none" />
<polyline points="128.0,334.0,104.0,360.0,90.0,358.0,74.0,360.0" stroke="black" stroke-width="1" fill="none" />
<polyline points="74.0,330.0,90.0,330.0" stroke="black" stroke-width="1" fill="none" />
<polyline points="120.0,324.0,122.0,340.0,124.0,356.0" stroke="black" stroke-width="1" fill="none" />
<polyline points="138.0,342.0,132.0,326.0,126.0,310.0,102.0,318.0,86.0,314.0,70.0,298.0" stroke="black" stroke-width="1" fill="none" />
<polyline points="64.0,256.0,80.0,256.0,96.0,256.0,112.0,256.0,128.0,266.0" stroke="black" stroke-width="1" fill="none" />
<polyline points="124.0,326.0,130.0,342.0,132.0,358.0,126.0,374.0,118.0,390.0,112.0,406.0,114.0,422.0,108.0,436.0,108.0,464.0,98.0,462.0,114.0,450.0,138.0,454.0,158.0,446.0" stroke="black" stroke-width="1" fill="none" />
</svg>