<svg xmlns="http://www.w3.org/2000/svg" height="508px" width="200px" version="1.1"><polyline points="126.0,262.0,134.0,278.0,132.0,294.0,126.0,298.0,134.0,314.0,140.0,326.0,136.0,334.0,116.0,336.0,118.0,330.0,152.0,314.0" stroke="black" stroke-width="1" fill="none" />
<polyline points="140.0,302.0,136.0,286.0" stroke="black" stroke-width="1" fill="none" />
<polyline points="144.0,274.0,140.0,290.0,144.0,306.0" stroke="black" stroke-width="1" fill="none" />
<polyline points="148.0,268.0,178.0,272.0,180.0,288.0" stroke="black" stroke-width="1" fill="none" />
<polyline points="174.0,282.0,174.0,298.0" stroke="black" stroke-width="1" fill="none" />
<polyline points="188.0,280.0,172.0,266.0,156.0,264.0" stroke="black" stroke-width="1" fill="none" />
<polyline points="150.0,260.0,182.0,260.0,194.0,276.0,198.0,292.0,192.0,292.0,190.0,308.0,182.0,324.0,196.0,320.0" stroke="black" stroke-width="1" fill="none" />
<polyline points="186.0,312.0,170.0,318.0,154.0,334.0,128.0,324.0,112.0,316.0,120.0,298.0,126.0,282.0,134.0,278.0,118.0,274.0,118.0,274.0,118.0,290.0" stroke="black" stroke-width="1" fill="none" />
<polyline points="122.0,268.0,144.0,266.0,156.0,282.0,170.0,284.0,168.0,300.0,162.0,312.0,162.0,326.0,164.0,346.0,168.0,358.0,166.0,378.0,166.0,394.0,170.0,406.0,172.0,416.0,184.0,432.0,170.0,448.0,170.0,464.0,186.0,466.0" stroke="black" stroke-width="1" fill="none" />
<polyline points="192.0,502.0,186.0,492.0,198.0,476.0,198.0,462.0,178.0,450.0,170.0,426.0,176.0,406.0,168.0,408.0" stroke="black" stroke-width="1" fill="none" />
<polyline points="158.0,428.0,160.0,444.0,152.0,462.0,158.0,478.0,150.0,494.0,162.0,500.0,164.0,508.0,170.0,504.0,186.0,508.0" stroke="black" stroke-width="1" fill="none" />
<polyline points="200.0,490.0,184.0,486.0,168.0,492.0,152.0,484.0,162.0,460.0,168.0,444.0,166.0,428.0,162.0,412.0,160.0,396.0,162.0,380.0,160.0,364.0,156.0,348.0,152.0,332.0,150.0,316.0,164.0,300.0,164.0,284.0,158.0,268.0,138.0,260.0" stroke="black" stroke-width="1" fill="none" />
<polyline points="140.0,270.0,124.0,264.0,108.0,266.0,82.0,282.0,78.0,292.0,82.0,276.0" stroke="black" stroke-width="1" fill="none" />
<polyline points="94.0,278.0,96.0,294.0,96.0,316.0,86.0,336.0,100.0,340.0,116.0,344.0,132.0,340.0" stroke="black" stroke-width="1" fill="none" />
<polyline points="150.0,358.0,152.0,374.0,152.0,390.0,150.0,406.0,130.0,414.0,130.0,430.0,128.0,444.0,126.0,460.0,132.0,468.0,126.0,484.0,116.0,500.0,118.0,504.0,136.0,498.0,140.0,482.0,156.0,472.0,172.0,478.0,176.0,472.0" stroke="black" stroke-width="1" fill="none" />
<polyline points="190.0,458.0,176.0,444.0,150.0,460.0,146.0,484.0,134.0,462.0,134.0,446.0,144.0,434.0,140.0,418.0,130.0,408.0" stroke="black" stroke-width="1" fill="none" />
<polyline points="102.0,390.0,114.0,374.0,122.0,356.0,106.0,360.0,96.0,374.0,104.0,372.0,128.0,372.0,144.0,356.0,140.0,376.0,140.0,376.0,146.0,392.0,150.0,410.0,146.0,426.0,152.0,440.0,148.0,456.0,138.0,472.0,134.0,488.0,140.0,502.0,148.0,492.0,172.0,498.0,184.0,494.0" stroke="black" stroke-width="1" fill="none" />
<polyline points="112.0,480.0,128.0,456.0,134.0,436.0,140.0,416.0" stroke="black" stroke-width="1" fill="none" />
<polyline points="102.0,400.0,86.0,410.0,70.0,410.0,54.0,402.0" stroke="black" stroke-width="1" fill="none" />
<polyline points="54.0,376.0,70.0,368.0,70.0,376.0,84.0,374.0,100.0,368.0,120.0,370.0" stroke="black" stroke-width="1" fill="none" />
<polyline points="138.0,368.0,130.0,384.0,114.0,394.0,114.0,392.0" stroke="black" stroke-width="1" fill="none" />
<polyline points="98.0,382.0,82.0,382.0" stroke="black" stroke-width="1" fill="none" />
<polyline points="88.0,344.0,84.0,332.0,68.0,332.0,68.0,332.0,72.0,348.0,68.0,360.0,82.0,356.0,98.0,356.0,114.0,352.0,130.0,350.0" stroke="black" stroke-width="1" fill="none" />
<polyline points="170.0,346.0,152.0,360.0,136.0,364.0,134.0,374.0,120.0,394.0,104.0,408.0,80.0,406.0,96.0,402.0,94.0,378.0,92.0,374.0,94.0,338.0,94.0,328.0,108.0,314.0,90.0,310.0,90.0,294.0,90.0,278.0,94.0,262.0,98.0,264.0" stroke="black" stroke-width="1" fill="none" />
<polyline points="94.0,256.0,110.0,256.0,126.0,254.0,142.0,254.0,158.0,254.0,174.0,256.0,190.0,254.0" stroke="black" stroke-width="1" fill="none" />
<polyline points="174.0,262.0,190.0,278.0,188.0,296.0" stroke="black" stroke-width="1" fill="none" />
<polyline points="186.0,272.0,170.0,260.0,160.0,272.0,148.0,294.0,148.0,304.0,132.0,308.0,126.0,316.0,126.0,296.0,124.0,304.0,110.0,282.0,116.0,266.0,112.0,264.0,102.0,280.0,106.0,296.0,116.0,312.0,106.0,332.0,108.0,324.0,112.0,338.0" stroke="black" stroke-width="1" fill="none" />
<polyline points="94.0,324.0,78.0,326.0,62.0,334.0" stroke="black" stroke-width="1" fill="none" />
<polyline points="66.0,326.0,64.0,342.0,62.0,358.0,54.0,376.0,56.0,392.0,54.0,408.0,64.0,398.0,80.0,402.0,96.0,396.0,112.0,384.0" stroke="black" stroke-width="1" fill="none" />
<polyline points="116.0,458.0,114.0,474.0,110.0,490.0,106.0,506.0" stroke="black" stroke-width="1" fill="none" />
</svg>