<svg xmlns="http://www.w3.org/2000/svg" height="508px" width="192px" version="1.1"><polyline points="148.0,254.0,146.0,270.0,142.0,286.0,144.0,300.0,152.0,302.0,158.0,286.0,170.0,296.0,186.0,294.0" stroke="black" stroke-width="1" fill="none" />
<polyline points="172.0,270.0,176.0,262.0,180.0,264.0,172.0,280.0,164.0,282.0,170.0,298.0,158.0,312.0,152.0,318.0,148.0,334.0,138.0,350.0,144.0,368.0,148.0,384.0,136.0,398.0,130.0,414.0,128.0,430.0,124.0,446.0,118.0,462.0,120.0,478.0,126.0,486.0,114.0,502.0,118.0,494.0,128.0,498.0,128.0,504.0,146.0,506.0,162.0,490.0,170.0,484.0,188.0,468.0" stroke="black" stroke-width="1" fill="none" />
<polyline points="178.0,462.0,182.0,446.0" stroke="black" stroke-width="1" fill="none" />
<polyline points="170.0,424.0,192.0,438.0,192.0,454.0,180.0,466.0,180.0,484.0,190.0,486.0,192.0,502.0,174.0,496.0,176.0,502.0" stroke="black" stroke-width="1" fill="none" />
<polyline points="170.0,498.0,174.0,478.0,168.0,460.0,164.0,444.0,144.0,438.0" stroke="black" stroke-width="1" fill="none" />
<polyline points="118.0,442.0,134.0,464.0,132.0,480.0,140.0,496.0" stroke="black" stroke-width="1" fill="none" />
<polyline points="106.0,492.0,108.0,488.0,106.0,504.0" stroke="black" stroke-width="1" fill="none" />
<polyline points="156.0,474.0,156.0,458.0,156.0,442.0,152.0,424.0,150.0,408.0" stroke="black" stroke-width="1" fill="none" />
<polyline points="144.0,408.0,140.0,424.0,138.0,440.0,130.0,450.0,128.0,466.0" stroke="black" stroke-width="1" fill="none" />
<polyline points="186.0,432.0,176.0,432.0,148.0,416.0,144.0,408.0,136.0,398.0,134.0,404.0,130.0,390.0,126.0,374.0" stroke="black" stroke-width="1" fill="none" />
<polyline points="150.0,360.0,154.0,376.0,156.0,392.0,158.0,408.0,156.0,426.0,144.0,442.0,146.0,458.0,142.0,474.0,140.0,490.0,142.0,486.0,162.0,460.0" stroke="black" stroke-width="1" fill="none" />
<polyline points="168.0,364.0,152.0,362.0" stroke="black" stroke-width="1" fill="none" />
<polyline points="178.0,348.0,184.0,332.0,180.0,316.0,178.0,300.0,192.0,284.0,192.0,268.0,190.0,256.0,174.0,254.0,158.0,256.0,142.0,258.0" stroke="black" stroke-width="1" fill="none" />
<polyline points="158.0,264.0,152.0,264.0,150.0,280.0,160.0,288.0,154.0,304.0,168.0,314.0,170.0,330.0,168.0,346.0,160.0,332.0" stroke="black" stroke-width="1" fill="none" />
<polyline points="142.0,322.0,126.0,312.0,128.0,314.0,128.0,330.0" stroke="black" stroke-width="1" fill="none" />
<polyline points="118.0,314.0,134.0,308.0,142.0,310.0,142.0,326.0,154.0,332.0" stroke="black" stroke-width="1" fill="none" />
<polyline points="138.0,334.0,120.0,338.0,118.0,320.0,108.0,314.0" stroke="black" stroke-width="1" fill="none" />
<polyline points="102.0,290.0,118.0,290.0,134.0,290.0" stroke="black" stroke-width="1" fill="none" />
<polyline points="136.0,342.0,120.0,344.0,104.0,330.0,94.0,324.0,90.0,312.0,74.0,292.0,82.0,282.0,66.0,270.0,66.0,270.0,68.0,278.0,76.0,284.0,74.0,294.0,84.0,298.0,90.0,314.0,88.0,330.0,104.0,332.0,116.0,348.0,138.0,366.0,142.0,382.0,166.0,398.0,168.0,414.0,166.0,430.0,174.0,436.0,172.0,452.0,172.0,470.0,166.0,486.0,152.0,502.0,140.0,506.0,166.0,506.0,182.0,508.0" stroke="black" stroke-width="1" fill="none" />
<polyline points="164.0,350.0,148.0,354.0,140.0,346.0,120.0,350.0,116.0,360.0,112.0,350.0,100.0,358.0,102.0,342.0,94.0,326.0,82.0,320.0,66.0,302.0,66.0,286.0" stroke="black" stroke-width="1" fill="none" />
<polyline points="60.0,268.0,76.0,264.0,92.0,280.0,100.0,298.0,116.0,300.0,114.0,294.0,130.0,300.0,146.0,314.0" stroke="black" stroke-width="1" fill="none" />
<polyline points="132.0,380.0,116.0,376.0,102.0,362.0,106.0,350.0,108.0,328.0,104.0,312.0,102.0,296.0,94.0,292.0,92.0,282.0,80.0,266.0" stroke="black" stroke-width="1" fill="none" />
<polyline points="62.0,264.0,62.0,280.0,62.0,296.0,78.0,314.0,82.0,330.0,90.0,346.0,90.0,362.0,98.0,366.0,114.0,366.0,130.0,364.0,148.0,358.0,164.0,356.0" stroke="black" stroke-width="1" fill="none" />
<polyline points="82.0,368.0,74.0,368.0,76.0,352.0,60.0,354.0,62.0,350.0,62.0,366.0,62.0,382.0,74.0,380.0,66.0,374.0" stroke="black" stroke-width="1" fill="none" />
</svg>