<svg xmlns="http://www.w3.org/2000/svg" height="504px" width="210px" version="1.1"><polyline points="210.0,270.0,210.0,286.0,210.0,302.0,190.0,318.0,186.0,334.0,174.0,350.0,172.0,368.0" stroke="black" stroke-width="1" fill="none" />
<polyline points="160.0,376.0,144.0,376.0" stroke="black" stroke-width="1" fill="none" />
<polyline points="144.0,368.0,140.0,374.0,138.0,390.0,138.0,406.0,152.0,418.0,148.0,438.0,144.0,450.0,152.0,448.0,162.0,470.0,170.0,464.0,176.0,476.0,190.0,482.0,202.0,492.0" stroke="black" stroke-width="1" fill="none" />
<polyline points="178.0,492.0,182.0,490.0,184.0,474.0,174.0,458.0,180.0,458.0,174.0,458.0" stroke="black" stroke-width="1" fill="none" />
<polyline points="188.0,462.0,202.0,478.0,210.0,494.0" stroke="black" stroke-width="1" fill="none" />
<polyline points="154.0,460.0,154.0,444.0,152.0,438.0,136.0,434.0,120.0,436.0" stroke="black" stroke-width="1" fill="none" />
<polyline points="112.0,446.0,112.0,442.0,116.0,432.0,106.0,448.0,98.0,464.0,94.0,480.0,100.0,496.0" stroke="black" stroke-width="1" fill="none" />
<polyline points="96.0,462.0,98.0,456.0,102.0,438.0,118.0,424.0,134.0,414.0,136.0,422.0,140.0,442.0,160.0,420.0,176.0,436.0,176.0,454.0,192.0,468.0,208.0,480.0" stroke="black" stroke-width="1" fill="none" />
<polyline points="106.0,504.0,92.0,500.0,88.0,482.0,90.0,466.0,94.0,450.0,108.0,434.0,122.0,414.0,106.0,424.0,90.0,436.0" stroke="black" stroke-width="1" fill="none" />
<polyline points="68.0,484.0,52.0,482.0" stroke="black" stroke-width="1" fill="none" />
<polyline points="54.0,490.0,54.0,486.0,46.0,502.0" stroke="black" stroke-width="1" fill="none" />
<polyline points="60.0,488.0,76.0,490.0" stroke="black" stroke-width="1" fill="none" />
<polyline points="76.0,382.0,70.0,366.0,46.0,358.0" stroke="black" stroke-width="1" fill="none" />
<polyline points="52.0,354.0,68.0,356.0,84.0,368.0" stroke="black" stroke-width="1" fill="none" />
<polyline points="116.0,360.0,114.0,360.0,116.0,336.0,116.0,320.0,134.0,314.0,134.0,292.0,118.0,292.0" stroke="black" stroke-width="1" fill="none" />
<polyline points="118.0,310.0,134.0,300.0,150.0,300.0,166.0,296.0,164.0,312.0,162.0,328.0,176.0,336.0" stroke="black" stroke-width="1" fill="none" />
<polyline points="198.0,326.0,172.0,330.0,168.0,324.0,176.0,314.0,188.0,306.0,184.0,290.0,188.0,274.0,194.0,258.0,180.0,256.0,164.0,256.0" stroke="black" stroke-width="1" fill="none" />
<polyline points="150.0,276.0,164.0,256.0,164.0,272.0,150.0,278.0,158.0,292.0,166.0,296.0" stroke="black" stroke-width="1" fill="none" />
<polyline points="170.0,282.0,180.0,298.0,166.0,300.0,172.0,310.0,178.0,324.0,180.0,330.0,168.0,346.0,142.0,350.0,110.0,370.0,124.0,388.0,124.0,404.0,114.0,420.0,92.0,432.0,82.0,448.0,82.0,464.0,82.0,484.0,60.0,504.0,74.0,496.0,78.0,502.0,98.0,498.0" stroke="black" stroke-width="1" fill="none" />
<polyline points="62.0,494.0,76.0,474.0,76.0,458.0,76.0,442.0,78.0,420.0,98.0,418.0,110.0,402.0,114.0,386.0" stroke="black" stroke-width="1" fill="none" />
<polyline points="108.0,356.0,92.0,358.0,88.0,364.0,70.0,364.0,56.0,366.0,46.0,370.0,42.0,364.0,42.0,348.0,44.0,332.0,42.0,316.0,42.0,316.0" stroke="black" stroke-width="1" fill="none" />
<polyline points="60.0,324.0,76.0,332.0,88.0,346.0" stroke="black" stroke-width="1" fill="none" />
<polyline points="92.0,332.0,108.0,350.0,132.0,340.0" stroke="black" stroke-width="1" fill="none" />
<polyline points="144.0,336.0,128.0,346.0,112.0,342.0,108.0,330.0,110.0,314.0,116.0,298.0,136.0,298.0,124.0,316.0,124.0,320.0" stroke="black" stroke-width="1" fill="none" />
<polyline points="120.0,328.0,136.0,332.0,152.0,334.0,154.0,332.0,140.0,352.0,156.0,344.0" stroke="black" stroke-width="1" fill="none" />
<polyline points="172.0,340.0,156.0,356.0,140.0,356.0" stroke="black" stroke-width="1" fill="none" />
<polyline points="138.0,362.0,132.0,378.0,132.0,394.0,132.0,410.0,156.0,418.0,164.0,432.0,166.0,448.0,154.0,454.0,154.0,464.0,166.0,480.0,172.0,486.0,166.0,498.0,178.0,504.0,190.0,498.0,190.0,502.0" stroke="black" stroke-width="1" fill="none" />
<polyline points="108.0,318.0,116.0,288.0,132.0,286.0,148.0,286.0,164.0,284.0,192.0,288.0,202.0,272.0" stroke="black" stroke-width="1" fill="none" />
<polyline points="198.0,288.0,194.0,304.0,198.0,326.0,194.0,332.0,186.0,348.0,166.0,364.0" stroke="black" stroke-width="1" fill="none" />
<polyline points="196.0,316.0,174.0,348.0,158.0,362.0,142.0,362.0,120.0,380.0,104.0,390.0,88.0,388.0,76.0,388.0,84.0,380.0,100.0,372.0,108.0,356.0,102.0,340.0,100.0,324.0,102.0,308.0,112.0,292.0,102.0,304.0" stroke="black" stroke-width="1" fill="none" />
<polyline points="68.0,346.0,52.0,344.0" stroke="black" stroke-width="1" fill="none" />
<polyline points="48.0,338.0,64.0,336.0,82.0,344.0,78.0,360.0,84.0,376.0,100.0,382.0,120.0,364.0,138.0,378.0,152.0,370.0,168.0,364.0,180.0,356.0" stroke="black" stroke-width="1" fill="none" />
</svg>