<svg xmlns="http://www.w3.org/2000/svg" height="506px" width="228px" version="1.1"><polyline points="226.0,258.0,216.0,274.0,216.0,300.0,206.0,316.0,212.0,326.0,200.0,334.0,186.0,348.0" stroke="black" stroke-width="1" fill="none" />
<polyline points="188.0,324.0,172.0,338.0,156.0,330.0" stroke="black" stroke-width="1" fill="none" />
<polyline points="154.0,308.0,170.0,302.0,186.0,304.0" stroke="black" stroke-width="1" fill="none" />
<polyline points="188.0,312.0,178.0,316.0,178.0,334.0,196.0,318.0,196.0,302.0,202.0,294.0,180.0,286.0,164.0,288.0" stroke="black" stroke-width="1" fill="none" />
<polyline points="160.0,278.0,176.0,276.0,192.0,284.0,208.0,298.0" stroke="black" stroke-width="1" fill="none" />
<polyline points="224.0,284.0,210.0,272.0,212.0,256.0,212.0,256.0" stroke="black" stroke-width="1" fill="none" />
<polyline points="212.0,304.0,200.0,322.0,194.0,344.0,178.0,350.0,162.0,354.0,148.0,350.0,132.0,360.0,122.0,354.0,104.0,380.0,88.0,370.0,80.0,372.0,64.0,364.0,58.0,368.0,62.0,364.0,36.0,356.0,34.0,346.0,26.0,344.0,26.0,328.0,26.0,312.0,24.0,296.0,24.0,276.0,26.0,260.0,42.0,268.0,56.0,256.0,40.0,254.0,24.0,262.0" stroke="black" stroke-width="1" fill="none" />
<polyline points="30.0,276.0,34.0,280.0,40.0,260.0,52.0,264.0" stroke="black" stroke-width="1" fill="none" />
<polyline points="26.0,294.0,38.0,298.0,50.0,306.0,44.0,322.0,42.0,332.0,64.0,348.0,88.0,364.0,122.0,376.0,138.0,372.0,150.0,372.0,164.0,364.0,174.0,376.0,188.0,384.0,186.0,388.0,196.0,406.0,206.0,404.0" stroke="black" stroke-width="1" fill="none" />
<polyline points="204.0,418.0,220.0,416.0" stroke="black" stroke-width="1" fill="none" />
<polyline points="218.0,386.0,202.0,386.0" stroke="black" stroke-width="1" fill="none" />
<polyline points="192.0,394.0,200.0,396.0,228.0,388.0,228.0,404.0,228.0,418.0" stroke="black" stroke-width="1" fill="none" />
<polyline points="222.0,398.0,206.0,398.0,186.0,406.0,178.0,396.0,168.0,388.0,184.0,388.0,184.0,372.0,164.0,358.0,152.0,342.0,154.0,326.0,154.0,310.0,168.0,294.0,146.0,290.0" stroke="black" stroke-width="1" fill="none" />
<polyline points="144.0,304.0,160.0,298.0,176.0,292.0,192.0,306.0" stroke="black" stroke-width="1" fill="none" />
<polyline points="176.0,292.0,174.0,308.0,162.0,316.0,166.0,332.0,150.0,356.0,132.0,374.0,130.0,390.0,128.0,400.0,128.0,416.0,132.0,432.0,146.0,440.0,144.0,456.0,144.0,472.0,154.0,488.0,150.0,504.0" stroke="black" stroke-width="1" fill="none" />
<polyline points="160.0,504.0,160.0,488.0,160.0,468.0,144.0,470.0" stroke="black" stroke-width="1" fill="none" />
<polyline points="126.0,486.0,128.0,478.0,118.0,498.0" stroke="black" stroke-width="1" fill="none" />
<polyline points="146.0,428.0,142.0,426.0,140.0,420.0,134.0,396.0,134.0,384.0,116.0,388.0,108.0,400.0,120.0,384.0,136.0,366.0,140.0,350.0,146.0,322.0,146.0,306.0,128.0,310.0" stroke="black" stroke-width="1" fill="none" />
<polyline points="124.0,284.0,126.0,282.0,126.0,268.0,132.0,280.0,128.0,294.0,128.0,310.0,130.0,326.0,142.0,330.0,160.0,342.0,176.0,344.0,192.0,332.0,192.0,332.0,172.0,358.0,188.0,356.0" stroke="black" stroke-width="1" fill="none" />
<polyline points="122.0,402.0,132.0,414.0,140.0,430.0,136.0,452.0,138.0,468.0,142.0,488.0,144.0,492.0" stroke="black" stroke-width="1" fill="none" />
<polyline points="140.0,502.0,136.0,498.0,130.0,496.0,126.0,480.0,130.0,464.0,128.0,448.0,124.0,434.0,116.0,426.0,118.0,410.0,108.0,400.0,114.0,388.0,114.0,366.0,122.0,366.0,118.0,354.0,130.0,342.0,116.0,330.0,106.0,316.0,108.0,300.0,94.0,288.0,92.0,274.0,98.0,258.0,94.0,270.0,98.0,270.0,90.0,264.0,106.0,256.0,122.0,254.0,128.0,262.0,120.0,264.0,110.0,274.0,118.0,282.0,122.0,298.0,136.0,314.0,142.0,332.0,138.0,346.0,144.0,360.0,162.0,362.0,156.0,374.0,168.0,390.0,188.0,392.0,196.0,408.0,180.0,412.0,198.0,422.0,196.0,428.0,212.0,426.0" stroke="black" stroke-width="1" fill="none" />
<polyline points="212.0,482.0,212.0,498.0,228.0,490.0,226.0,506.0" stroke="black" stroke-width="1" fill="none" />
<polyline points="212.0,496.0,202.0,504.0,202.0,488.0" stroke="black" stroke-width="1" fill="none" />
<polyline points="64.0,454.0,48.0,450.0" stroke="black" stroke-width="1" fill="none" />
<polyline points="54.0,470.0,38.0,470.0,54.0,476.0,62.0,452.0,58.0,446.0,42.0,440.0,26.0,444.0,26.0,444.0,24.0,460.0,26.0,476.0,26.0,492.0,24.0,496.0,40.0,494.0,42.0,488.0" stroke="black" stroke-width="1" fill="none" />
<polyline points="52.0,496.0,36.0,502.0,30.0,502.0,56.0,494.0,64.0,478.0,60.0,462.0,46.0,446.0,26.0,436.0" stroke="black" stroke-width="1" fill="none" />
<polyline points="24.0,460.0,40.0,472.0,46.0,476.0" stroke="black" stroke-width="1" fill="none" />
<polyline points="98.0,386.0,80.0,382.0,96.0,376.0,70.0,360.0,46.0,352.0,38.0,356.0" stroke="black" stroke-width="1" fill="none" />
<polyline points="30.0,332.0,46.0,344.0,62.0,352.0,78.0,364.0,90.0,364.0,106.0,374.0,122.0,364.0" stroke="black" stroke-width="1" fill="none" />
<polyline points="128.0,344.0,126.0,330.0,118.0,320.0,116.0,306.0,98.0,290.0,98.0,284.0" stroke="black" stroke-width="1" fill="none" />
<polyline points="90.0,352.0,74.0,352.0" stroke="black" stroke-width="1" fill="none" />
<polyline points="78.0,344.0,74.0,348.0,58.0,342.0,56.0,340.0,40.0,324.0" stroke="black" stroke-width="1" fill="none" />
<polyline points="26.0,300.0,30.0,288.0,46.0,300.0,56.0,310.0,54.0,326.0,64.0,332.0,74.0,348.0,98.0,364.0,108.0,358.0" stroke="black" stroke-width="1" fill="none" />
</svg>