<svg xmlns="http://www.w3.org/2000/svg" height="508px" width="230px" version="1.1"><polyline points="68.0,256.0,66.0,272.0,62.0,288.0,62.0,304.0,74.0,320.0,58.0,344.0,70.0,350.0,58.0,360.0,60.0,348.0,74.0,342.0,82.0,342.0,110.0,332.0,126.0,338.0,142.0,342.0,158.0,348.0,168.0,342.0,184.0,344.0,188.0,334.0,202.0,334.0,200.0,340.0,212.0,346.0,222.0,332.0,224.0,340.0" stroke="black" stroke-width="1" fill="none" />
<polyline points="214.0,346.0,230.0,358.0,230.0,374.0,220.0,390.0" stroke="black" stroke-width="1" fill="none" />
<polyline points="166.0,378.0,158.0,362.0,136.0,348.0,136.0,356.0" stroke="black" stroke-width="1" fill="none" />
<polyline points="112.0,338.0,130.0,340.0,164.0,350.0,170.0,364.0,168.0,368.0,174.0,354.0,190.0,362.0,206.0,380.0,222.0,390.0,228.0,392.0" stroke="black" stroke-width="1" fill="none" />
<polyline points="222.0,360.0,206.0,362.0,190.0,352.0,198.0,344.0,206.0,348.0,218.0,348.0,212.0,332.0" stroke="black" stroke-width="1" fill="none" />
<polyline points="198.0,330.0,180.0,332.0,182.0,348.0,190.0,364.0,178.0,370.0,176.0,378.0,172.0,394.0" stroke="black" stroke-width="1" fill="none" />
<polyline points="126.0,402.0,124.0,418.0,124.0,434.0,124.0,450.0,120.0,466.0" stroke="black" stroke-width="1" fill="none" />
<polyline points="120.0,476.0,136.0,480.0,152.0,476.0,168.0,462.0,184.0,462.0,200.0,460.0" stroke="black" stroke-width="1" fill="none" />
<polyline points="188.0,462.0,176.0,462.0,170.0,478.0,178.0,500.0,194.0,508.0,210.0,496.0,212.0,502.0" stroke="black" stroke-width="1" fill="none" />
<polyline points="198.0,506.0,204.0,490.0,200.0,474.0,178.0,494.0,168.0,488.0,152.0,492.0,136.0,494.0,120.0,500.0,110.0,478.0,102.0,462.0,102.0,446.0,102.0,430.0,108.0,414.0,90.0,392.0,88.0,380.0,92.0,364.0,88.0,356.0,90.0,352.0,76.0,366.0,76.0,368.0,84.0,340.0,88.0,318.0,98.0,314.0,106.0,298.0,106.0,290.0,98.0,278.0,90.0,274.0,74.0,276.0" stroke="black" stroke-width="1" fill="none" />
<polyline points="74.0,268.0,76.0,284.0,66.0,288.0,68.0,298.0,74.0,314.0,82.0,310.0,94.0,318.0,98.0,304.0" stroke="black" stroke-width="1" fill="none" />
<polyline points="112.0,306.0,110.0,324.0" stroke="black" stroke-width="1" fill="none" />
<polyline points="96.0,350.0,100.0,366.0,100.0,382.0,92.0,386.0" stroke="black" stroke-width="1" fill="none" />
<polyline points="86.0,416.0,66.0,420.0,64.0,426.0" stroke="black" stroke-width="1" fill="none" />
<polyline points="52.0,426.0,56.0,428.0,36.0,432.0,46.0,448.0,56.0,464.0,68.0,480.0,84.0,496.0,74.0,504.0,92.0,506.0" stroke="black" stroke-width="1" fill="none" />
<polyline points="128.0,508.0,134.0,502.0,150.0,498.0,166.0,496.0" stroke="black" stroke-width="1" fill="none" />
<polyline points="188.0,498.0,190.0,482.0" stroke="black" stroke-width="1" fill="none" />
<polyline points="158.0,474.0,162.0,462.0" stroke="black" stroke-width="1" fill="none" />
<polyline points="68.0,468.0,60.0,460.0,52.0,452.0,46.0,446.0,44.0,434.0" stroke="black" stroke-width="1" fill="none" />
<polyline points="38.0,434.0,50.0,442.0,58.0,458.0,66.0,466.0,70.0,472.0,80.0,484.0,78.0,478.0" stroke="black" stroke-width="1" fill="none" />
<polyline points="100.0,496.0,104.0,480.0,108.0,464.0,108.0,448.0,108.0,432.0,98.0,410.0,82.0,414.0,66.0,414.0,50.0,418.0,34.0,422.0" stroke="black" stroke-width="1" fill="none" />
<polyline points="24.0,416.0,40.0,410.0,56.0,408.0,72.0,404.0,88.0,404.0" stroke="black" stroke-width="1" fill="none" />
<polyline points="66.0,370.0,80.0,354.0,86.0,330.0,70.0,326.0,54.0,302.0,52.0,318.0,50.0,326.0" stroke="black" stroke-width="1" fill="none" />
<polyline points="28.0,314.0,34.0,326.0,28.0,324.0,30.0,332.0,46.0,354.0" stroke="black" stroke-width="1" fill="none" />
<polyline points="56.0,376.0,44.0,360.0,54.0,354.0,48.0,338.0,44.0,322.0,50.0,306.0,38.0,298.0,36.0,302.0" stroke="black" stroke-width="1" fill="none" />
<polyline points="30.0,278.0,30.0,294.0,26.0,310.0,22.0,326.0,28.0,342.0,38.0,340.0,40.0,358.0,40.0,374.0,48.0,376.0,64.0,366.0,80.0,354.0,96.0,342.0,120.0,342.0,136.0,344.0,144.0,334.0,160.0,338.0,176.0,334.0,192.0,328.0,208.0,324.0,224.0,328.0" stroke="black" stroke-width="1" fill="none" />
<polyline points="178.0,322.0,162.0,328.0,148.0,326.0,132.0,324.0,130.0,324.0,124.0,308.0,124.0,292.0,124.0,276.0,120.0,272.0,110.0,256.0,98.0,256.0,82.0,254.0,66.0,260.0,50.0,258.0,40.0,282.0,32.0,292.0,24.0,290.0,26.0,274.0,24.0,276.0,40.0,274.0,52.0,280.0,72.0,266.0,88.0,264.0,100.0,282.0" stroke="black" stroke-width="1" fill="none" />
<polyline points="82.0,272.0,92.0,288.0,92.0,304.0,82.0,320.0" stroke="black" stroke-width="1" fill="none" />
<polyline points="112.0,258.0,110.0,274.0,116.0,290.0,112.0,306.0,120.0,310.0,108.0,322.0,106.0,344.0,108.0,360.0,110.0,376.0,112.0,392.0,116.0,408.0,116.0,424.0,116.0,440.0,118.0,456.0,118.0,472.0,110.0,478.0,118.0,494.0,130.0,506.0" stroke="black" stroke-width="1" fill="none" />
<polyline points="64.0,494.0,48.0,494.0,42.0,488.0,26.0,496.0,26.0,496.0,40.0,478.0,24.0,484.0" stroke="black" stroke-width="1" fill="none" />
<polyline points="36.0,504.0,42.0,488.0,48.0,470.0,34.0,452.0,30.0,440.0,22.0,448.0" stroke="black" stroke-width="1" fill="none" />
<polyline points="22.0,436.0,38.0,450.0,38.0,462.0,46.0,464.0,62.0,470.0,76.0,490.0" stroke="black" stroke-width="1" fill="none" />
<polyline points="24.0,412.0,40.0,402.0,48.0,396.0,64.0,400.0,80.0,396.0,96.0,394.0,116.0,396.0,120.0,402.0" stroke="black" stroke-width="1" fill="none" />
<polyline points="30.0,406.0,24.0,422.0,24.0,438.0,24.0,454.0,42.0,458.0,44.0,472.0,26.0,480.0,34.0,500.0,32.0,502.0,48.0,508.0,58.0,500.0,68.0,508.0,82.0,502.0,92.0,484.0,106.0,490.0,126.0,486.0,142.0,484.0,158.0,482.0,174.0,478.0,190.0,472.0" stroke="black" stroke-width="1" fill="none" />
</svg>