<svg xmlns="http://www.w3.org/2000/svg" height="508px" width="230px" version="1.1"><polyline points="24.0,256.0,24.0,272.0,26.0,288.0,38.0,304.0,44.0,328.0" stroke="black" stroke-width="1" fill="none" />
<polyline points="42.0,318.0,26.0,306.0" stroke="black" stroke-width="1" fill="none" />
<polyline points="24.0,290.0,40.0,304.0,56.0,320.0,72.0,328.0,88.0,334.0,104.0,338.0,120.0,340.0,132.0,346.0,130.0,362.0,128.0,378.0,138.0,394.0,166.0,410.0,176.0,426.0,168.0,436.0,176.0,452.0,176.0,470.0,176.0,484.0,164.0,486.0,166.0,502.0,156.0,508.0,136.0,506.0,136.0,500.0,156.0,484.0,172.0,478.0,178.0,480.0,164.0,506.0,180.0,494.0" stroke="black" stroke-width="1" fill="none" />
<polyline points="198.0,478.0,192.0,474.0,186.0,460.0" stroke="black" stroke-width="1" fill="none" />
<polyline points="178.0,430.0,156.0,446.0,162.0,438.0,166.0,428.0,150.0,434.0" stroke="black" stroke-width="1" fill="none" />
<polyline points="152.0,398.0,136.0,392.0" stroke="black" stroke-width="1" fill="none" />
<polyline points="134.0,368.0,136.0,378.0,148.0,406.0,160.0,414.0,150.0,424.0,150.0,440.0,166.0,456.0,164.0,472.0,156.0,488.0" stroke="black" stroke-width="1" fill="none" />
<polyline points="144.0,492.0,140.0,476.0,126.0,474.0,110.0,472.0,94.0,480.0" stroke="black" stroke-width="1" fill="none" />
<polyline points="102.0,468.0,94.0,484.0,94.0,466.0,110.0,464.0,126.0,462.0,126.0,470.0,130.0,474.0,134.0,490.0" stroke="black" stroke-width="1" fill="none" />
<polyline points="142.0,478.0,134.0,454.0,118.0,454.0,102.0,460.0,86.0,466.0,72.0,478.0,62.0,482.0,46.0,482.0,30.0,470.0" stroke="black" stroke-width="1" fill="none" />
<polyline points="32.0,462.0,48.0,458.0,64.0,456.0,88.0,458.0,100.0,454.0" stroke="black" stroke-width="1" fill="none" />
<polyline points="98.0,464.0,78.0,480.0,74.0,496.0" stroke="black" stroke-width="1" fill="none" />
<polyline points="66.0,468.0,50.0,464.0,50.0,468.0" stroke="black" stroke-width="1" fill="none" />
<polyline points="38.0,468.0,54.0,476.0,70.0,474.0" stroke="black" stroke-width="1" fill="none" />
<polyline points="40.0,484.0,42.0,482.0,28.0,466.0,28.0,450.0,36.0,450.0" stroke="black" stroke-width="1" fill="none" />
<polyline points="28.0,448.0,44.0,446.0,60.0,440.0,60.0,450.0,66.0,442.0,76.0,430.0,86.0,428.0,102.0,406.0,118.0,400.0,134.0,400.0,150.0,406.0,166.0,420.0,180.0,422.0" stroke="black" stroke-width="1" fill="none" />
<polyline points="182.0,384.0,182.0,372.0,200.0,368.0,202.0,356.0" stroke="black" stroke-width="1" fill="none" />
<polyline points="186.0,350.0,186.0,374.0,194.0,380.0,200.0,368.0,216.0,372.0" stroke="black" stroke-width="1" fill="none" />
<polyline points="228.0,364.0,212.0,366.0,196.0,362.0,180.0,376.0,164.0,382.0" stroke="black" stroke-width="1" fill="none" />
<polyline points="172.0,374.0,156.0,370.0,140.0,354.0" stroke="black" stroke-width="1" fill="none" />
<polyline points="146.0,352.0,130.0,350.0" stroke="black" stroke-width="1" fill="none" />
<polyline points="132.0,312.0,122.0,310.0,118.0,294.0,126.0,278.0,118.0,286.0" stroke="black" stroke-width="1" fill="none" />
<polyline points="110.0,284.0,118.0,270.0,110.0,286.0,112.0,302.0,124.0,318.0,148.0,344.0,164.0,346.0,180.0,342.0,196.0,334.0,212.0,334.0,228.0,334.0" stroke="black" stroke-width="1" fill="none" />
<polyline points="230.0,282.0,230.0,266.0,226.0,254.0,210.0,258.0,214.0,258.0,224.0,274.0" stroke="black" stroke-width="1" fill="none" />
<polyline points="162.0,270.0,146.0,260.0,146.0,256.0,156.0,272.0,162.0,288.0,160.0,304.0,148.0,320.0,150.0,328.0,142.0,340.0,140.0,356.0,148.0,364.0,148.0,380.0,154.0,386.0,172.0,402.0,184.0,416.0,188.0,422.0,186.0,430.0,182.0,446.0,186.0,462.0,184.0,478.0,204.0,482.0,198.0,498.0,178.0,502.0,192.0,506.0,200.0,494.0" stroke="black" stroke-width="1" fill="none" />
<polyline points="190.0,414.0,174.0,404.0,158.0,396.0,156.0,386.0,150.0,378.0,134.0,376.0,128.0,376.0,120.0,370.0,122.0,354.0,110.0,348.0,120.0,326.0,110.0,316.0,102.0,300.0,102.0,284.0,110.0,268.0,92.0,288.0" stroke="black" stroke-width="1" fill="none" />
<polyline points="102.0,284.0,106.0,258.0,100.0,274.0,92.0,290.0,94.0,306.0,88.0,314.0,92.0,326.0,108.0,330.0,124.0,326.0,134.0,330.0,150.0,318.0,166.0,290.0" stroke="black" stroke-width="1" fill="none" />
<polyline points="152.0,300.0,152.0,284.0,142.0,278.0,138.0,270.0,122.0,272.0" stroke="black" stroke-width="1" fill="none" />
<polyline points="164.0,276.0,164.0,262.0,148.0,256.0,132.0,254.0,116.0,256.0,94.0,254.0,78.0,254.0,62.0,262.0" stroke="black" stroke-width="1" fill="none" />
<polyline points="54.0,272.0,54.0,264.0,78.0,270.0,70.0,276.0,56.0,290.0,72.0,302.0,74.0,312.0,82.0,318.0,90.0,318.0,100.0,310.0,124.0,316.0,140.0,316.0,154.0,294.0,128.0,296.0,140.0,302.0,142.0,312.0,166.0,306.0,164.0,314.0,172.0,310.0,164.0,314.0,154.0,340.0,162.0,356.0,170.0,366.0,172.0,356.0,184.0,358.0,196.0,344.0,200.0,350.0,216.0,350.0,220.0,342.0,228.0,346.0,230.0,362.0" stroke="black" stroke-width="1" fill="none" />
<polyline points="162.0,404.0,142.0,414.0,124.0,412.0,108.0,410.0,108.0,414.0" stroke="black" stroke-width="1" fill="none" />
<polyline points="108.0,388.0,92.0,382.0,92.0,382.0,90.0,398.0,90.0,398.0" stroke="black" stroke-width="1" fill="none" />
<polyline points="62.0,424.0,78.0,418.0,94.0,402.0,110.0,392.0,108.0,402.0,90.0,418.0,82.0,434.0,78.0,450.0,76.0,466.0,78.0,490.0,68.0,498.0,84.0,502.0,100.0,496.0,112.0,498.0" stroke="black" stroke-width="1" fill="none" />
<polyline points="124.0,506.0,126.0,490.0,114.0,478.0,110.0,482.0,96.0,484.0,94.0,506.0,94.0,490.0,84.0,490.0,84.0,468.0,84.0,456.0,88.0,440.0,62.0,438.0,68.0,420.0,82.0,404.0,86.0,410.0,108.0,394.0,110.0,378.0,110.0,362.0,110.0,344.0,106.0,350.0,90.0,346.0,88.0,350.0,82.0,336.0,66.0,334.0,50.0,332.0,62.0,324.0,42.0,308.0,32.0,304.0,42.0,296.0,44.0,280.0,54.0,280.0,54.0,264.0,48.0,260.0,40.0,256.0,24.0,256.0" stroke="black" stroke-width="1" fill="none" />
<polyline points="32.0,266.0,32.0,282.0,50.0,280.0,50.0,296.0,56.0,312.0,94.0,328.0" stroke="black" stroke-width="1" fill="none" />
<polyline points="74.0,336.0,84.0,352.0" stroke="black" stroke-width="1" fill="none" />
<polyline points="60.0,304.0,62.0,290.0,70.0,282.0" stroke="black" stroke-width="1" fill="none" />
<polyline points="52.0,286.0,68.0,280.0,84.0,266.0" stroke="black" stroke-width="1" fill="none" />
<polyline points="84.0,304.0,74.0,312.0,58.0,312.0,42.0,294.0" stroke="black" stroke-width="1" fill="none" />
<polyline points="118.0,466.0,116.0,482.0,104.0,498.0" stroke="black" stroke-width="1" fill="none" />
<polyline points="112.0,498.0,120.0,498.0,120.0,482.0" stroke="black" stroke-width="1" fill="none" />
</svg>