<svg xmlns="http://www.w3.org/2000/svg" height="2254px" width="2544px" version="1.1"><polyline points="1644.0,0.0,1642.0,16.0,1640.0,32.0,1638.0,48.0,1636.0,64.0,1634.0,80.0,1632.0,96.0,1630.0,112.0,1630.0,128.0,1628.0,144.0,1626.0,160.0,1624.0,176.0,1622.0,192.0,1620.0,208.0,1618.0,224.0,1616.0,240.0,1614.0,256.0,1612.0,272.0,1610.0,288.0,1608.0,304.0,1604.0,320.0,1602.0,336.0,1600.0,352.0,1598.0,368.0,1596.0,384.0,1594.0,400.0,1592.0,416.0,1588.0,432.0,1586.0,448.0,1584.0,464.0,1582.0,480.0,1580.0,496.0,1578.0,512.0,1576.0,528.0,1574.0,544.0,1572.0,560.0,1572.0,576.0,1570.0,592.0,1568.0,608.0,1566.0,624.0,1566.0,640.0,1562.0,656.0,1562.0,672.0,1562.0,688.0,1560.0,704.0,1558.0,720.0,1558.0,736.0,1554.0,752.0,1554.0,768.0,1552.0,784.0,1550.0,800.0,1550.0,816.0,1548.0,832.0,1548.0,848.0,1544.0,864.0,1544.0,880.0,1542.0,896.0,1540.0,912.0,1538.0,928.0,1538.0,944.0,1536.0,960.0,1534.0,976.0,1544.0,980.0" stroke="black" stroke-width="1" fill="none" />
<polyline points="1538.0,1016.0,1538.0,1032.0,1538.0,1048.0,1534.0,1064.0,1534.0,1080.0,1530.0,1096.0,1530.0,1112.0,1528.0,1128.0,1526.0,1144.0,1524.0,1160.0,1522.0,1176.0,1520.0,1192.0,1518.0,1208.0,1516.0,1224.0,1514.0,1240.0,1514.0,1256.0,1512.0,1272.0,1510.0,1288.0,1508.0,1304.0,1508.0,1320.0,1518.0,1322.0,1534.0,1322.0,1550.0,1324.0,1566.0,1324.0,1582.0,1326.0,1598.0,1326.0,1614.0,1326.0,1630.0,1328.0,1646.0,1328.0,1662.0,1330.0,1678.0,1330.0,1694.0,1332.0,1710.0,1332.0,1726.0,1334.0,1742.0,1334.0,1758.0,1334.0,1774.0,1336.0,1790.0,1338.0,1806.0,1340.0,1822.0,1340.0,1838.0,1342.0,1854.0,1344.0,1870.0,1346.0,1886.0,1348.0,1902.0,1348.0,1918.0,1352.0,1934.0,1352.0,1950.0,1354.0,1966.0,1356.0,1982.0,1358.0,1998.0,1360.0,2014.0,1364.0,2030.0,1364.0,2046.0,1366.0,2062.0,1368.0,2078.0,1370.0,2094.0,1372.0,2110.0,1372.0,2126.0,1374.0,2142.0,1376.0,2158.0,1376.0,2174.0,1376.0,2190.0,1378.0,2206.0,1380.0,2222.0,1380.0,2238.0,1382.0,2254.0,1384.0,2270.0,1384.0,2286.0,1386.0,2302.0,1386.0,2318.0,1388.0,2334.0,1388.0" stroke="black" stroke-width="1" fill="none" />
<polyline points="2392.0,1408.0,2390.0,1406.0,2394.0,1412.0,2384.0,1402.0,2390.0,1386.0,2392.0,1370.0,2394.0,1354.0,2396.0,1338.0,2400.0,1322.0,2400.0,1306.0,2402.0,1290.0,2404.0,1274.0,2406.0,1258.0,2408.0,1242.0,2410.0,1226.0,2412.0,1210.0,2412.0,1194.0,2414.0,1178.0,2416.0,1162.0,2418.0,1146.0,2420.0,1130.0,2420.0,1114.0,2422.0,1098.0,2424.0,1082.0,2424.0,1066.0,2426.0,1050.0,2428.0,1034.0,2428.0,1018.0,2430.0,1002.0,2432.0,986.0,2432.0,970.0,2434.0,954.0,2436.0,938.0,2438.0,922.0,2440.0,906.0,2442.0,890.0,2444.0,874.0,2446.0,858.0,2448.0,842.0,2450.0,826.0,2452.0,810.0,2454.0,794.0,2456.0,778.0,2458.0,762.0,2460.0,746.0,2460.0,730.0,2462.0,714.0,2464.0,698.0,2466.0,682.0,2468.0,666.0,2468.0,650.0,2470.0,634.0,2472.0,618.0,2474.0,602.0,2474.0,586.0,2476.0,570.0,2478.0,554.0,2480.0,538.0,2480.0,522.0,2482.0,506.0,2484.0,490.0,2486.0,474.0,2488.0,458.0,2490.0,442.0,2492.0,426.0,2496.0,410.0,2498.0,394.0,2500.0,378.0,2502.0,362.0,2504.0,346.0,2506.0,330.0,2508.0,314.0,2512.0,298.0,2514.0,282.0,2516.0,266.0,2518.0,250.0,2522.0,234.0,2524.0,218.0,2528.0,202.0,2530.0,186.0,2532.0,170.0,2534.0,154.0,2536.0,138.0,2538.0,122.0,2540.0,106.0,2540.0,90.0,2542.0,74.0,2544.0,58.0,2544.0,42.0,2530.0,26.0,2500.0,22.0,2484.0,20.0,2468.0,18.0,2452.0,18.0,2436.0,16.0,2420.0,14.0,2404.0,14.0,2388.0,14.0,2372.0,12.0,2356.0,10.0,2340.0,10.0,2324.0,10.0,2308.0,10.0,2292.0,8.0,2276.0,8.0,2260.0,8.0,2244.0,8.0,2228.0,8.0,2212.0,8.0,2196.0,8.0,2180.0,6.0,2164.0,6.0,2148.0,6.0,2132.0,6.0,2116.0,6.0,2100.0,6.0,2084.0,6.0,2068.0,6.0,2052.0,6.0,2036.0,6.0,2020.0,6.0,2004.0,4.0,1988.0,4.0,1972.0,4.0,1956.0,4.0,1940.0,4.0,1924.0,4.0,1908.0,4.0,1892.0,4.0,1876.0,2.0,1860.0,2.0,1844.0,2.0,1828.0,2.0,1812.0,2.0,1796.0,2.0,1780.0,2.0,1764.0,2.0,1748.0,2.0,1732.0,2.0,1716.0,2.0" stroke="black" stroke-width="1" fill="none" />
<polyline points="1654.0,0.0,1652.0,16.0,1650.0,32.0,1650.0,48.0,1648.0,64.0,1646.0,80.0,1644.0,96.0,1642.0,112.0,1640.0,128.0,1638.0,144.0,1638.0,160.0,1636.0,176.0,1632.0,192.0,1630.0,208.0,1630.0,224.0,1628.0,240.0,1626.0,256.0,1624.0,272.0,1622.0,288.0,1618.0,304.0,1616.0,320.0,1614.0,336.0,1612.0,352.0,1610.0,368.0,1608.0,384.0,1606.0,400.0,1604.0,416.0,1600.0,432.0,1598.0,448.0,1596.0,464.0,1594.0,480.0,1592.0,496.0,1590.0,512.0,1588.0,528.0,1586.0,544.0,1584.0,560.0,1584.0,576.0,1582.0,592.0,1580.0,608.0,1578.0,624.0,1578.0,640.0,1576.0,656.0,1574.0,672.0,1572.0,688.0,1570.0,704.0,1570.0,720.0,1568.0,736.0,1568.0,752.0,1566.0,768.0,1564.0,784.0,1564.0,800.0,1562.0,816.0,1560.0,832.0,1560.0,848.0,1558.0,864.0,1556.0,880.0,1554.0,896.0,1552.0,912.0,1550.0,928.0,1550.0,944.0,1548.0,960.0,1546.0,976.0" stroke="black" stroke-width="1" fill="none" />
<polyline points="1530.0,1014.0,1530.0,1018.0,1528.0,1034.0,1526.0,1050.0,1522.0,1066.0,1522.0,1082.0,1520.0,1098.0,1516.0,1114.0,1516.0,1130.0,1514.0,1146.0,1512.0,1162.0,1510.0,1178.0,1508.0,1194.0,1506.0,1210.0,1504.0,1226.0,1504.0,1242.0,1500.0,1258.0,1500.0,1274.0,1498.0,1290.0,1498.0,1306.0,1496.0,1322.0,1500.0,1328.0,1516.0,1330.0,1532.0,1332.0,1548.0,1334.0,1564.0,1336.0,1580.0,1336.0,1596.0,1336.0,1612.0,1336.0,1628.0,1338.0,1644.0,1338.0,1660.0,1340.0,1676.0,1340.0,1692.0,1342.0,1708.0,1342.0,1724.0,1344.0,1740.0,1344.0,1756.0,1346.0,1772.0,1348.0,1788.0,1350.0,1804.0,1350.0,1820.0,1352.0,1836.0,1354.0,1852.0,1354.0,1868.0,1358.0,1884.0,1358.0,1900.0,1360.0,1916.0,1362.0,1932.0,1364.0,1948.0,1366.0,1964.0,1368.0,1980.0,1370.0,1996.0,1372.0,2012.0,1374.0,2028.0,1376.0,2044.0,1378.0,2060.0,1380.0,2076.0,1382.0,2092.0,1384.0,2108.0,1384.0,2124.0,1384.0,2140.0,1386.0,2156.0,1388.0,2172.0,1388.0,2188.0,1390.0,2204.0,1390.0,2220.0,1392.0,2236.0,1392.0,2252.0,1394.0,2268.0,1394.0,2284.0,1396.0,2300.0,1396.0,2316.0,1398.0,2332.0,1400.0,2348.0,1400.0,2364.0,1400.0,2380.0,1402.0" stroke="black" stroke-width="1" fill="none" />
<polyline points="2426.0,1422.0,2410.0,1422.0,2394.0,1422.0,2378.0,1420.0,2362.0,1418.0,2346.0,1416.0,2330.0,1414.0,2314.0,1412.0,2298.0,1412.0,2282.0,1410.0,2266.0,1408.0,2250.0,1408.0,2234.0,1406.0,2218.0,1406.0,2202.0,1404.0,2186.0,1404.0,2170.0,1402.0,2154.0,1400.0,2138.0,1400.0,2122.0,1398.0,2106.0,1396.0,2090.0,1396.0,2074.0,1394.0,2058.0,1392.0,2042.0,1390.0,2026.0,1386.0,2010.0,1384.0,1994.0,1382.0,1978.0,1380.0,1962.0,1376.0,1946.0,1374.0,1930.0,1374.0,1914.0,1372.0,1898.0,1370.0,1882.0,1368.0,1866.0,1366.0,1850.0,1364.0,1834.0,1362.0,1818.0,1360.0,1802.0,1360.0,1786.0,1358.0,1770.0,1358.0,1754.0,1356.0,1738.0,1356.0,1722.0,1354.0,1706.0,1354.0,1690.0,1354.0,1674.0,1352.0,1658.0,1352.0,1642.0,1352.0,1626.0,1350.0,1610.0,1348.0,1594.0,1348.0,1578.0,1348.0,1562.0,1346.0,1546.0,1346.0,1530.0,1344.0,1514.0,1344.0,1498.0,1342.0,1482.0,1342.0" stroke="black" stroke-width="1" fill="none" />
<polyline points="1492.0,1336.0,1490.0,1330.0,1474.0,1330.0,1458.0,1330.0,1442.0,1330.0,1426.0,1332.0,1410.0,1344.0" stroke="black" stroke-width="1" fill="none" />
<polyline points="1420.0,1350.0,1436.0,1348.0,1452.0,1348.0,1468.0,1350.0,1484.0,1352.0,1500.0,1352.0,1516.0,1354.0,1532.0,1354.0,1548.0,1356.0,1564.0,1356.0,1580.0,1358.0,1596.0,1358.0,1612.0,1360.0,1628.0,1360.0,1644.0,1362.0,1660.0,1364.0,1676.0,1362.0,1692.0,1364.0,1708.0,1366.0,1724.0,1366.0,1740.0,1368.0,1756.0,1368.0,1772.0,1368.0,1788.0,1370.0,1804.0,1370.0,1820.0,1372.0,1836.0,1374.0,1852.0,1374.0,1868.0,1378.0,1884.0,1380.0,1900.0,1382.0,1916.0,1382.0,1932.0,1384.0,1948.0,1386.0,1964.0,1388.0,1980.0,1392.0,1996.0,1394.0,2012.0,1396.0,2028.0,1398.0,2044.0,1400.0,2060.0,1402.0,2076.0,1404.0,2092.0,1406.0,2108.0,1408.0,2124.0,1410.0,2140.0,1412.0,2156.0,1412.0,2172.0,1414.0,2188.0,1416.0,2204.0,1416.0,2220.0,1416.0,2236.0,1418.0,2252.0,1420.0,2268.0,1420.0,2284.0,1422.0,2300.0,1424.0,2316.0,1424.0,2332.0,1426.0,2348.0,1428.0,2364.0,1430.0,2380.0,1430.0,2396.0,1432.0,2412.0,1432.0,2430.0,1424.0,2438.0,1440.0,2432.0,1456.0" stroke="black" stroke-width="1" fill="none" />
<polyline points="2418.0,1450.0,2420.0,1434.0" stroke="black" stroke-width="1" fill="none" />
<polyline points="2164.0,1460.0,2168.0,1476.0,2172.0,1492.0,2176.0,1508.0,2180.0,1524.0,2184.0,1540.0,2188.0,1556.0,2192.0,1572.0,2196.0,1588.0,2200.0,1604.0,2204.0,1620.0,2208.0,1636.0,2212.0,1652.0,2216.0,1668.0,2222.0,1684.0,2226.0,1700.0,2230.0,1716.0,2234.0,1732.0,2238.0,1748.0,2242.0,1764.0,2246.0,1780.0,2250.0,1796.0,2254.0,1812.0,2258.0,1828.0,2262.0,1844.0,2266.0,1860.0,2270.0,1876.0,2274.0,1892.0,2278.0,1908.0,2282.0,1924.0,2286.0,1940.0,2290.0,1956.0,2294.0,1972.0,2298.0,1988.0,2302.0,2004.0,2306.0,2020.0,2310.0,2036.0,2314.0,2052.0,2318.0,2068.0,2322.0,2084.0,2326.0,2100.0,2328.0,2116.0,2332.0,2132.0,2336.0,2148.0,2338.0,2164.0,2342.0,2180.0,2346.0,2196.0,2350.0,2212.0,2354.0,2228.0,2354.0,2244.0,2358.0,2254.0,2374.0,2254.0" stroke="black" stroke-width="1" fill="none" />
<polyline points="2344.0,2252.0,2342.0,2236.0,2338.0,2220.0,2334.0,2204.0,2330.0,2188.0,2328.0,2172.0,2324.0,2156.0,2320.0,2140.0,2316.0,2124.0,2312.0,2108.0,2308.0,2092.0,2304.0,2076.0,2300.0,2060.0,2298.0,2044.0,2294.0,2028.0,2290.0,2012.0,2286.0,1996.0,2282.0,1980.0,2278.0,1964.0,2274.0,1948.0,2270.0,1932.0,2266.0,1916.0,2262.0,1900.0,2258.0,1884.0,2254.0,1868.0,2250.0,1852.0,2246.0,1836.0,2242.0,1820.0,2238.0,1804.0,2234.0,1788.0,2228.0,1772.0,2224.0,1756.0,2222.0,1740.0,2216.0,1724.0,2212.0,1708.0,2208.0,1692.0,2204.0,1676.0,2200.0,1660.0,2196.0,1644.0,2192.0,1628.0,2188.0,1612.0,2184.0,1596.0,2180.0,1580.0,2176.0,1564.0,2174.0,1548.0,2170.0,1532.0,2166.0,1516.0,2152.0,1506.0,2148.0,1510.0,2160.0,1494.0,2154.0,1488.0,2138.0,1500.0" stroke="black" stroke-width="1" fill="none" />
<polyline points="2148.0,1518.0,2164.0,1506.0" stroke="black" stroke-width="1" fill="none" />
<polyline points="2146.0,1488.0,2136.0,1496.0,2154.0,1480.0,2156.0,1464.0,2154.0,1462.0,2138.0,1476.0,2140.0,1474.0,2162.0,1458.0,2164.0,1458.0,2148.0,1458.0,2132.0,1474.0,2134.0,1472.0,2150.0,1456.0" stroke="black" stroke-width="1" fill="none" />
<polyline points="2138.0,1446.0,2126.0,1462.0,2132.0,1456.0" stroke="black" stroke-width="1" fill="none" />
<polyline points="2106.0,1448.0,2108.0,1464.0,2110.0,1480.0,2114.0,1496.0,2116.0,1512.0,2120.0,1528.0,2122.0,1544.0,2126.0,1560.0,2130.0,1576.0,2132.0,1592.0,2136.0,1608.0,2140.0,1624.0,2142.0,1640.0,2146.0,1656.0,2150.0,1672.0,2154.0,1688.0,2156.0,1704.0,2160.0,1720.0,2164.0,1736.0,2168.0,1752.0,2172.0,1768.0,2176.0,1784.0,2180.0,1800.0,2184.0,1816.0,2188.0,1832.0,2192.0,1848.0,2194.0,1864.0,2198.0,1880.0,2202.0,1896.0,2206.0,1912.0,2210.0,1928.0,2214.0,1944.0,2218.0,1960.0,2222.0,1976.0,2224.0,1992.0,2228.0,2008.0,2232.0,2024.0,2234.0,2040.0,2238.0,2056.0,2242.0,2072.0,2246.0,2088.0,2248.0,2104.0,2252.0,2120.0,2256.0,2136.0,2260.0,2152.0,2262.0,2168.0,2266.0,2184.0,2270.0,2200.0,2274.0,2216.0,2278.0,2232.0,2282.0,2248.0" stroke="black" stroke-width="1" fill="none" />
<polyline points="2132.0,2170.0,2128.0,2162.0,2124.0,2146.0,2122.0,2130.0,2118.0,2114.0,2116.0,2098.0,2112.0,2082.0,2112.0,2066.0,2112.0,2064.0" stroke="black" stroke-width="1" fill="none" />
<polyline points="2118.0,2062.0,2122.0,2078.0,2126.0,2094.0,2128.0,2110.0,2130.0,2126.0,2134.0,2142.0,2136.0,2158.0" stroke="black" stroke-width="1" fill="none" />
<polyline points="2094.0,2142.0,2090.0,2126.0,2090.0,2126.0" stroke="black" stroke-width="1" fill="none" />
<polyline points="2096.0,2122.0,2100.0,2138.0" stroke="black" stroke-width="1" fill="none" />
<polyline points="2294.0,2248.0,2290.0,2232.0,2288.0,2216.0,2284.0,2200.0,2280.0,2184.0,2276.0,2168.0,2272.0,2152.0,2270.0,2136.0,2266.0,2120.0,2262.0,2104.0,2258.0,2088.0,2256.0,2072.0,2252.0,2056.0,2248.0,2040.0,2244.0,2024.0,2242.0,2008.0,2238.0,1992.0,2234.0,1976.0,2232.0,1960.0,2228.0,1944.0,2224.0,1928.0,2220.0,1912.0,2216.0,1896.0,2212.0,1880.0,2208.0,1864.0,2204.0,1848.0,2200.0,1832.0,2198.0,1816.0,2194.0,1800.0,2190.0,1784.0,2186.0,1768.0,2182.0,1752.0,2178.0,1736.0,2174.0,1720.0,2170.0,1704.0,2166.0,1688.0,2164.0,1672.0,2160.0,1656.0,2156.0,1640.0,2152.0,1624.0,2148.0,1608.0,2146.0,1592.0,2142.0,1576.0,2138.0,1560.0,2136.0,1544.0,2132.0,1528.0,2130.0,1512.0,2126.0,1496.0,2122.0,1480.0,2118.0,1464.0,2122.0,1458.0,2138.0,1444.0,2122.0,1458.0,2106.0,1448.0" stroke="black" stroke-width="1" fill="none" />
<polyline points="1998.0,1470.0,2004.0,1486.0,2006.0,1502.0,2008.0,1518.0,2012.0,1534.0,2014.0,1550.0,2016.0,1566.0,2018.0,1582.0,2022.0,1598.0,2024.0,1614.0,2026.0,1630.0,2030.0,1646.0,2032.0,1662.0,2036.0,1678.0,2038.0,1694.0,2042.0,1710.0,2046.0,1726.0,2048.0,1742.0,2052.0,1758.0,2056.0,1774.0,2060.0,1790.0,2064.0,1806.0,2068.0,1822.0,2070.0,1838.0,2074.0,1854.0,2078.0,1870.0,2082.0,1886.0,2086.0,1902.0,2090.0,1918.0,2094.0,1934.0,2096.0,1950.0,2098.0,1966.0,2100.0,1982.0,2102.0,1998.0" stroke="black" stroke-width="1" fill="none" />
<polyline points="2096.0,2000.0,2092.0,1984.0,2088.0,1968.0,2084.0,1952.0,2082.0,1936.0,2078.0,1920.0,2074.0,1904.0,2070.0,1888.0,2066.0,1872.0,2062.0,1856.0,2058.0,1840.0,2054.0,1824.0,2050.0,1808.0,2046.0,1792.0,2044.0,1776.0,2040.0,1760.0,2036.0,1744.0,2032.0,1728.0,2030.0,1712.0,2022.0,1702.0,2006.0,1722.0,2018.0,1706.0,2014.0,1700.0,2004.0,1718.0,2014.0,1702.0,2024.0,1686.0,2022.0,1670.0,2010.0,1674.0,1994.0,1698.0" stroke="black" stroke-width="1" fill="none" />
<polyline points="2002.0,1676.0,2014.0,1660.0,2018.0,1644.0,2014.0,1628.0" stroke="black" stroke-width="1" fill="none" />
<polyline points="1994.0,1568.0,1978.0,1592.0,1988.0,1576.0,2000.0,1560.0,1996.0,1558.0,1984.0,1574.0,1976.0,1590.0,1988.0,1568.0" stroke="black" stroke-width="1" fill="none" />
<polyline points="1996.0,1518.0,1986.0,1534.0,1976.0,1550.0,1966.0,1566.0,1970.0,1582.0,1972.0,1598.0,1976.0,1614.0,1980.0,1630.0,1982.0,1646.0,1996.0,1646.0" stroke="black" stroke-width="1" fill="none" />
<polyline points="1988.0,1532.0,1972.0,1554.0,1972.0,1542.0,1984.0,1526.0,1998.0,1510.0,1994.0,1494.0" stroke="black" stroke-width="1" fill="none" />
<polyline points="1974.0,1476.0,1958.0,1494.0,1972.0,1478.0,1984.0,1462.0,1982.0,1460.0,1966.0,1478.0,1956.0,1492.0,1968.0,1476.0,1980.0,1460.0" stroke="black" stroke-width="1" fill="none" />
<polyline points="1954.0,1462.0,1970.0,1444.0,1968.0,1446.0,1946.0,1470.0,1950.0,1486.0,1952.0,1502.0,1956.0,1518.0,1966.0,1512.0,1982.0,1492.0,1998.0,1468.0,1992.0,1480.0,1980.0,1496.0,1966.0,1512.0,1962.0,1528.0,1978.0,1508.0,1994.0,1492.0,1982.0,1502.0,1970.0,1518.0,1960.0,1534.0,1962.0,1550.0,1974.0,1538.0,1990.0,1518.0,2000.0,1518.0,2002.0,1534.0,2004.0,1550.0,2006.0,1566.0,2008.0,1582.0,2010.0,1598.0,2012.0,1614.0,1998.0,1630.0,1990.0,1646.0,1994.0,1638.0,2010.0,1618.0,2004.0,1634.0,1994.0,1650.0,1988.0,1666.0,1990.0,1682.0,2002.0,1674.0,2018.0,1664.0,2006.0,1680.0,1996.0,1696.0,1996.0,1712.0,2000.0,1728.0,2004.0,1744.0,2008.0,1760.0,2012.0,1776.0,2016.0,1792.0,2020.0,1808.0,2024.0,1824.0,2028.0,1840.0,2032.0,1856.0,2036.0,1872.0,2040.0,1888.0,2044.0,1904.0,2048.0,1920.0,2052.0,1936.0,2056.0,1952.0,2060.0,1968.0,2064.0,1984.0,2068.0,2000.0,2072.0,2016.0,2076.0,2032.0,2078.0,2048.0,2080.0,2064.0,2076.0,2066.0,2070.0,2050.0,2066.0,2034.0,2060.0,2018.0,2056.0,2002.0,2052.0,1986.0,2048.0,1970.0,2044.0,1954.0,2040.0,1938.0,2036.0,1922.0,2032.0,1906.0,2028.0,1890.0,2024.0,1874.0,2020.0,1858.0,2016.0,1842.0,2012.0,1826.0,2008.0,1810.0,2004.0,1794.0,2000.0,1778.0,1996.0,1762.0,1992.0,1746.0,1988.0,1730.0,1986.0,1714.0,1982.0,1698.0,1978.0,1682.0,1976.0,1666.0,1972.0,1650.0,1968.0,1634.0,1966.0,1618.0,1962.0,1602.0,1960.0,1586.0,1956.0,1570.0,1952.0,1554.0,1950.0,1538.0,1946.0,1522.0,1944.0,1506.0,1940.0,1490.0,1940.0,1474.0,1954.0,1454.0,1968.0,1438.0,1968.0,1438.0,1952.0,1456.0" stroke="black" stroke-width="1" fill="none" />
<polyline points="1758.0,1424.0,1754.0,1440.0,1746.0,1456.0,1740.0,1472.0,1732.0,1488.0,1724.0,1504.0,1716.0,1520.0,1710.0,1536.0,1702.0,1552.0,1696.0,1568.0,1688.0,1584.0,1680.0,1600.0,1674.0,1616.0,1666.0,1632.0,1658.0,1648.0,1650.0,1664.0,1644.0,1680.0,1636.0,1696.0,1628.0,1712.0,1620.0,1728.0,1614.0,1744.0,1606.0,1760.0,1598.0,1776.0,1592.0,1792.0,1584.0,1808.0,1578.0,1824.0,1570.0,1840.0,1564.0,1856.0,1558.0,1872.0,1550.0,1888.0,1544.0,1904.0,1538.0,1920.0,1532.0,1936.0,1526.0,1952.0,1518.0,1968.0,1512.0,1984.0,1506.0,2000.0,1500.0,2016.0,1494.0,2032.0,1488.0,2048.0,1480.0,2064.0,1474.0,2080.0,1468.0,2096.0,1462.0,2112.0,1456.0,2128.0,1448.0,2144.0,1442.0,2160.0,1434.0,2176.0,1428.0,2192.0,1422.0,2208.0,1416.0,2224.0,1406.0,2222.0,1422.0,2178.0,1438.0,2142.0,1454.0,2102.0,1470.0,2062.0,1486.0,2020.0,1502.0,1980.0,1518.0,1938.0,1534.0,1898.0,1550.0,1856.0,1566.0,1820.0,1582.0,1784.0,1598.0,1750.0,1614.0,1714.0,1630.0,1682.0,1646.0,1646.0,1662.0,1610.0,1678.0,1576.0,1694.0,1542.0,1710.0,1508.0,1726.0,1474.0,1722.0,1470.0,1706.0,1482.0,1690.0,1494.0,1686.0,1498.0,1706.0,1482.0,1726.0,1466.0,1730.0,1466.0,1722.0,1482.0,1714.0,1498.0,1708.0,1514.0,1700.0,1530.0,1692.0,1546.0,1686.0,1562.0,1678.0,1578.0,1670.0,1594.0,1662.0,1610.0,1656.0,1626.0,1648.0,1642.0,1640.0,1658.0,1634.0,1674.0,1626.0,1690.0,1620.0,1706.0,1612.0,1722.0,1604.0,1738.0,1596.0,1754.0,1588.0,1770.0,1582.0,1786.0,1574.0,1802.0,1568.0,1818.0,1560.0,1834.0,1554.0,1850.0,1546.0,1866.0,1542.0,1882.0,1534.0,1898.0,1528.0,1914.0,1522.0,1930.0,1516.0,1946.0,1510.0,1962.0,1504.0,1978.0,1496.0,1994.0,1490.0,2010.0,1484.0,2026.0,1478.0,2042.0,1472.0,2058.0,1466.0,2074.0,1460.0,2090.0,1454.0,2106.0,1448.0,2122.0,1440.0,2138.0,1434.0,2154.0,1426.0,2170.0,1420.0,2186.0,1414.0,2202.0,1408.0,2218.0,1404.0,2234.0,1416.0,2220.0,1432.0,2182.0,1448.0,2144.0,1464.0,2106.0,1480.0,2064.0,1496.0,2024.0,1512.0,1984.0,1528.0,1944.0,1544.0,1904.0,1560.0,1864.0,1576.0,1826.0,1592.0,1788.0,1608.0,1756.0,1624.0,1720.0,1640.0,1688.0,1656.0,1652.0,1672.0,1618.0,1688.0,1584.0,1704.0,1548.0,1720.0,1512.0,1736.0,1478.0,1752.0,1442.0" stroke="black" stroke-width="1" fill="none" />
<polyline points="1738.0,1450.0,1716.0,1466.0,1696.0,1482.0,1678.0,1498.0,1686.0,1490.0,1702.0,1478.0,1718.0,1466.0,1734.0,1452.0,1730.0,1450.0,1714.0,1460.0,1698.0,1470.0,1710.0,1462.0,1736.0,1446.0" stroke="black" stroke-width="1" fill="none" />
<polyline points="1742.0,1422.0,1726.0,1434.0,1710.0,1444.0,1694.0,1452.0,1710.0,1436.0,1736.0,1420.0,1738.0,1420.0,1722.0,1430.0,1706.0,1440.0,1702.0,1448.0,1728.0,1432.0,1746.0,1416.0" stroke="black" stroke-width="1" fill="none" />
<polyline points="1752.0,1422.0,1736.0,1438.0,1712.0,1454.0,1690.0,1470.0,1702.0,1460.0,1718.0,1450.0,1734.0,1440.0,1750.0,1424.0" stroke="black" stroke-width="1" fill="none" />
<polyline points="1710.0,1422.0,1696.0,1436.0,1680.0,1474.0,1664.0,1512.0,1648.0,1548.0,1632.0,1580.0,1616.0,1614.0,1600.0,1648.0,1584.0,1680.0,1568.0,1714.0,1552.0,1748.0,1536.0,1784.0,1520.0,1820.0,1504.0,1860.0,1488.0,1898.0,1472.0,1940.0,1456.0,1980.0,1440.0,2022.0,1424.0,2064.0,1408.0,2106.0,1392.0,2142.0,1376.0,2178.0,1360.0,2210.0,1344.0,2238.0,1354.0,2222.0,1362.0,2206.0,1370.0,2190.0,1378.0,2174.0,1386.0,2158.0,1392.0,2142.0,1400.0,2126.0,1406.0,2110.0,1412.0,2094.0,1420.0,2078.0,1426.0,2062.0,1432.0,2046.0,1438.0,2030.0,1444.0,2014.0,1450.0,1998.0,1456.0,1982.0,1462.0,1966.0,1468.0,1950.0,1474.0,1934.0,1480.0,1918.0,1488.0,1902.0,1494.0,1886.0,1500.0,1870.0,1506.0,1854.0,1514.0,1838.0,1520.0,1822.0,1526.0,1806.0,1534.0,1790.0,1542.0,1774.0,1548.0,1758.0,1556.0,1742.0,1564.0,1726.0,1570.0,1710.0,1578.0,1694.0,1586.0,1678.0,1594.0,1662.0,1602.0,1646.0,1610.0,1630.0,1616.0,1614.0,1624.0,1598.0,1632.0,1582.0,1640.0,1566.0,1646.0,1550.0,1654.0,1534.0,1662.0,1518.0,1668.0,1502.0,1676.0,1486.0,1682.0,1470.0,1688.0,1454.0,1694.0,1438.0,1720.0,1422.0,1720.0,1422.0,1704.0,1432.0" stroke="black" stroke-width="1" fill="none" />
<polyline points="1422.0,1346.0,1420.0,1362.0,1424.0,1370.0,1440.0,1372.0,1456.0,1374.0,1472.0,1376.0,1488.0,1376.0,1504.0,1378.0,1520.0,1378.0,1536.0,1382.0,1552.0,1382.0,1568.0,1384.0,1584.0,1386.0,1600.0,1386.0,1616.0,1390.0,1632.0,1390.0,1648.0,1392.0,1664.0,1394.0,1680.0,1398.0,1696.0,1400.0,1712.0,1402.0,1728.0,1402.0,1744.0,1406.0,1760.0,1406.0,1776.0,1408.0,1792.0,1408.0,1808.0,1408.0,1824.0,1408.0,1840.0,1410.0,1856.0,1410.0,1872.0,1412.0,1888.0,1410.0,1904.0,1412.0,1920.0,1412.0,1936.0,1412.0,1952.0,1414.0,1968.0,1414.0,1984.0,1416.0,2000.0,1416.0,2016.0,1418.0,2032.0,1418.0,2048.0,1418.0,2064.0,1420.0,2080.0,1422.0,2096.0,1424.0,2112.0,1424.0,2128.0,1426.0,2144.0,1428.0,2160.0,1428.0,2176.0,1430.0,2192.0,1432.0,2208.0,1434.0,2224.0,1436.0,2240.0,1438.0,2256.0,1440.0,2272.0,1442.0,2288.0,1442.0,2304.0,1444.0,2320.0,1446.0,2336.0,1448.0,2352.0,1450.0,2368.0,1450.0,2384.0,1452.0,2400.0,1452.0,2416.0,1452.0" stroke="black" stroke-width="1" fill="none" />
<polyline points="1736.0,1006.0,1720.0,994.0,1704.0,984.0,1688.0,978.0" stroke="black" stroke-width="1" fill="none" />
<polyline points="1680.0,990.0,1664.0,1006.0,1646.0,1022.0,1654.0,1038.0,1670.0,1054.0,1686.0,1070.0" stroke="black" stroke-width="1" fill="none" />
<polyline points="1688.0,1080.0,1672.0,1074.0,1656.0,1058.0,1640.0,1042.0,1624.0,1030.0,1608.0,1026.0,1592.0,1022.0,1576.0,1016.0,1560.0,1012.0,1544.0,1008.0,1528.0,1004.0,1512.0,998.0,1496.0,994.0,1480.0,990.0,1464.0,986.0,1448.0,982.0,1432.0,978.0,1416.0,972.0,1400.0,968.0,1384.0,964.0,1368.0,960.0,1352.0,956.0,1336.0,952.0,1320.0,948.0,1304.0,942.0,1288.0,938.0,1272.0,934.0,1256.0,928.0,1252.0,928.0,1268.0,920.0,1284.0,924.0,1300.0,928.0,1316.0,932.0,1332.0,936.0,1348.0,942.0,1364.0,946.0,1380.0,950.0,1396.0,954.0,1412.0,958.0,1428.0,962.0,1444.0,966.0,1460.0,970.0,1476.0,974.0,1492.0,978.0,1508.0,982.0,1524.0,988.0,1540.0,992.0,1556.0,996.0,1572.0,1000.0,1588.0,1004.0,1604.0,1010.0,1620.0,1014.0,1636.0,1018.0,1652.0,1006.0,1668.0,994.0,1672.0,990.0,1652.0,1006.0,1648.0,1020.0,1664.0,1006.0,1690.0,986.0,1706.0,998.0,1722.0,1010.0" stroke="black" stroke-width="1" fill="none" />
<polyline points="1728.0,1026.0,1712.0,1040.0,1696.0,1056.0,1680.0,1062.0,1664.0,1046.0,1648.0,1030.0" stroke="black" stroke-width="1" fill="none" />
<polyline points="1640.0,1044.0,1656.0,1060.0,1672.0,1076.0" stroke="black" stroke-width="1" fill="none" />
<polyline points="1424.0,1332.0,1410.0,1348.0,1408.0,1364.0,1410.0,1380.0,1424.0,1380.0,1440.0,1382.0,1456.0,1386.0,1472.0,1386.0,1488.0,1388.0,1504.0,1388.0,1520.0,1390.0,1536.0,1392.0,1552.0,1394.0,1568.0,1394.0,1584.0,1396.0,1600.0,1398.0,1616.0,1400.0,1632.0,1402.0,1648.0,1404.0,1664.0,1406.0,1680.0,1408.0,1696.0,1410.0,1716.0,1412.0,1732.0,1414.0,1748.0,1416.0,1764.0,1416.0,1780.0,1418.0,1796.0,1418.0,1812.0,1420.0,1828.0,1420.0,1844.0,1420.0,1860.0,1422.0,1876.0,1422.0,1892.0,1424.0,1908.0,1424.0,1924.0,1424.0,1940.0,1424.0,1956.0,1424.0,1972.0,1426.0,1988.0,1426.0,2004.0,1428.0,2020.0,1428.0,2036.0,1430.0,2052.0,1430.0,2068.0,1432.0,2084.0,1432.0,2100.0,1434.0,2116.0,1436.0,2132.0,1438.0,2148.0,1440.0,2164.0,1440.0,2180.0,1442.0,2196.0,1444.0,2212.0,1446.0,2228.0,1448.0,2244.0,1450.0,2260.0,1452.0,2276.0,1454.0,2292.0,1456.0,2308.0,1458.0,2324.0,1458.0,2340.0,1460.0,2356.0,1460.0,2372.0,1462.0,2388.0,1462.0,2404.0,1462.0,2420.0,1462.0" stroke="black" stroke-width="1" fill="none" />
<polyline points="1996.0,664.0,1980.0,668.0,1964.0,670.0,1948.0,672.0,1946.0,668.0,1962.0,666.0,1978.0,664.0" stroke="black" stroke-width="1" fill="none" />
<polyline points="1888.0,634.0,1872.0,614.0,1856.0,590.0" stroke="black" stroke-width="1" fill="none" />
<polyline points="1860.0,582.0,1874.0,598.0,1888.0,614.0,1902.0,630.0,1916.0,646.0" stroke="black" stroke-width="1" fill="none" />
<polyline points="1992.0,674.0,1982.0,654.0,1966.0,656.0,1950.0,656.0,1934.0,656.0,1918.0,646.0,1902.0,628.0,1886.0,610.0,1870.0,590.0,1854.0,580.0" stroke="black" stroke-width="1" fill="none" />
<polyline points="1834.0,602.0,1854.0,588.0,1862.0,604.0,1874.0,620.0,1888.0,636.0,1884.0,638.0,1868.0,626.0,1852.0,616.0,1836.0,608.0" stroke="black" stroke-width="1" fill="none" />
<polyline points="1832.0,620.0,1854.0,636.0,1876.0,652.0,1892.0,668.0,1910.0,678.0" stroke="black" stroke-width="1" fill="none" />
<polyline points="1826.0,622.0,1820.0,606.0,1826.0,590.0,1832.0,574.0,1836.0,558.0,1840.0,542.0,1836.0,526.0,1828.0,524.0,1812.0,520.0,1796.0,518.0,1780.0,510.0,1776.0,514.0,1792.0,526.0,1808.0,536.0" stroke="black" stroke-width="1" fill="none" />
<polyline points="1812.0,566.0,1796.0,588.0,1780.0,586.0,1764.0,574.0,1748.0,560.0,1748.0,560.0,1746.0,576.0,1744.0,592.0,1742.0,604.0,1758.0,608.0,1774.0,610.0,1790.0,612.0,1806.0,614.0,1822.0,600.0" stroke="black" stroke-width="1" fill="none" />
<polyline points="1790.0,578.0,1774.0,562.0,1758.0,544.0,1742.0,522.0,1726.0,500.0,1710.0,482.0,1714.0,478.0,1730.0,494.0,1750.0,510.0,1772.0,526.0,1794.0,542.0,1804.0,558.0,1800.0,574.0" stroke="black" stroke-width="1" fill="none" />
<polyline points="1804.0,552.0,1788.0,536.0,1772.0,524.0,1756.0,512.0,1740.0,500.0,1724.0,488.0,1708.0,476.0,1708.0,476.0,1718.0,492.0,1730.0,508.0,1742.0,524.0,1754.0,540.0,1766.0,556.0,1782.0,572.0" stroke="black" stroke-width="1" fill="none" />
<polyline points="1768.0,580.0,1752.0,564.0" stroke="black" stroke-width="1" fill="none" />
<polyline points="1732.0,534.0,1716.0,510.0,1700.0,488.0,1684.0,468.0,1668.0,450.0" stroke="black" stroke-width="1" fill="none" />
<polyline points="1666.0,438.0,1682.0,438.0,1698.0,450.0,1714.0,464.0,1730.0,476.0,1746.0,488.0,1762.0,502.0,1778.0,504.0,1794.0,504.0,1810.0,508.0,1826.0,510.0,1842.0,514.0,1858.0,518.0,1858.0,528.0,1852.0,544.0,1848.0,560.0,1842.0,576.0,1838.0,592.0,1834.0,608.0,1860.0,624.0,1884.0,640.0" stroke="black" stroke-width="1" fill="none" />
<polyline points="1788.0,626.0,1780.0,642.0,1778.0,658.0,1774.0,674.0,1772.0,690.0,1768.0,706.0,1766.0,722.0,1762.0,738.0,1760.0,754.0,1756.0,770.0,1752.0,786.0,1750.0,802.0,1746.0,818.0,1742.0,834.0,1738.0,850.0,1734.0,866.0,1730.0,882.0,1726.0,898.0,1722.0,914.0,1718.0,930.0,1714.0,946.0,1710.0,962.0,1698.0,982.0,1724.0,998.0,1740.0,1014.0,1736.0,1030.0,1720.0,1046.0,1702.0,1062.0" stroke="black" stroke-width="1" fill="none" />
<polyline points="1314.0,968.0,1314.0,984.0,1314.0,1000.0,1312.0,1016.0,1312.0,1032.0,1310.0,1048.0,1310.0,1064.0,1310.0,1080.0,1308.0,1096.0,1308.0,1112.0,1306.0,1128.0,1304.0,1144.0,1304.0,1160.0,1302.0,1176.0,1302.0,1192.0,1300.0,1208.0,1300.0,1224.0,1298.0,1240.0,1298.0,1256.0,1296.0,1272.0,1294.0,1288.0,1294.0,1304.0,1292.0,1320.0,1292.0,1336.0,1292.0,1352.0,1290.0,1368.0,1290.0,1384.0,1290.0,1400.0,1288.0,1416.0,1288.0,1432.0,1276.0,1448.0" stroke="black" stroke-width="1" fill="none" />
<polyline points="1280.0,1434.0,1278.0,1418.0,1278.0,1402.0,1278.0,1386.0,1278.0,1370.0,1280.0,1354.0,1280.0,1338.0,1280.0,1322.0,1282.0,1306.0,1282.0,1290.0,1284.0,1274.0,1284.0,1258.0,1286.0,1242.0,1286.0,1226.0,1288.0,1210.0,1290.0,1194.0,1290.0,1178.0,1292.0,1162.0,1294.0,1146.0,1294.0,1130.0,1294.0,1114.0,1296.0,1098.0,1296.0,1082.0,1298.0,1066.0,1298.0,1050.0,1300.0,1034.0,1302.0,1018.0,1302.0,1002.0,1304.0,986.0,1306.0,970.0,1306.0,968.0" stroke="black" stroke-width="1" fill="none" />
<polyline points="1272.0,966.0,1276.0,950.0" stroke="black" stroke-width="1" fill="none" />
<polyline points="1270.0,948.0,1264.0,964.0" stroke="black" stroke-width="1" fill="none" />
<polyline points="1278.0,908.0,1262.0,898.0,1246.0,894.0,1230.0,890.0,1230.0,890.0,1230.0,906.0,1230.0,922.0,1228.0,938.0,1230.0,954.0,1230.0,962.0,1246.0,966.0,1262.0,966.0" stroke="black" stroke-width="1" fill="none" />
<polyline points="1284.0,896.0,1268.0,888.0,1252.0,884.0,1236.0,878.0,1220.0,888.0" stroke="black" stroke-width="1" fill="none" />
<polyline points="1230.0,878.0,1220.0,894.0,1220.0,910.0,1218.0,926.0,1218.0,942.0,1218.0,958.0,1218.0,974.0,1224.0,982.0,1240.0,976.0,1256.0,976.0,1272.0,966.0,1278.0,952.0" stroke="black" stroke-width="1" fill="none" />
<polyline points="1310.0,888.0,1310.0,872.0,1320.0,850.0,1304.0,844.0,1288.0,840.0,1272.0,836.0,1256.0,832.0,1240.0,828.0,1224.0,824.0,1208.0,820.0,1192.0,818.0,1176.0,818.0,1160.0,820.0,1144.0,824.0,1128.0,826.0,1112.0,828.0,1096.0,828.0,1080.0,830.0,1064.0,828.0,1048.0,830.0,1032.0,830.0,1016.0,830.0,1000.0,830.0,984.0,830.0,968.0,828.0,964.0,828.0,980.0,818.0,996.0,814.0,1012.0,816.0,1028.0,816.0,1044.0,816.0,1060.0,814.0,1076.0,812.0,1092.0,816.0" stroke="black" stroke-width="1" fill="none" />
<polyline points="1120.0,744.0,1136.0,744.0,1152.0,742.0,1168.0,744.0,1184.0,744.0,1200.0,742.0,1216.0,742.0,1232.0,740.0,1248.0,740.0,1264.0,736.0,1280.0,732.0,1296.0,728.0,1312.0,722.0,1328.0,716.0,1344.0,710.0,1360.0,702.0,1376.0,696.0,1392.0,690.0,1408.0,682.0,1424.0,674.0" stroke="black" stroke-width="1" fill="none" />
<polyline points="1242.0,716.0,1240.0,700.0,1242.0,684.0,1242.0,668.0,1242.0,652.0,1242.0,636.0,1244.0,620.0,1242.0,604.0,1244.0,588.0,1246.0,572.0,1246.0,556.0,1246.0,540.0,1246.0,524.0,1248.0,508.0,1248.0,492.0,1250.0,476.0,1250.0,460.0,1252.0,444.0,1250.0,428.0,1252.0,412.0,1252.0,396.0,1254.0,380.0,1254.0,364.0,1254.0,348.0,1254.0,332.0,1256.0,316.0,1254.0,300.0,1254.0,284.0,1254.0,268.0,1256.0,252.0,1256.0,236.0,1258.0,220.0,1256.0,204.0,1258.0,188.0,1252.0,172.0,1244.0,170.0,1228.0,172.0,1212.0,174.0,1196.0,176.0,1180.0,176.0,1164.0,178.0,1148.0,178.0,1132.0,180.0,1116.0,180.0,1100.0,180.0,1084.0,182.0,1068.0,180.0,1052.0,180.0,1036.0,182.0,1020.0,182.0,1004.0,182.0,988.0,182.0,972.0,182.0,956.0,182.0,940.0,184.0,924.0,184.0,908.0,182.0,892.0,184.0,876.0,182.0,860.0,182.0,844.0,182.0,828.0,182.0,812.0,182.0,796.0,180.0,780.0,178.0,764.0,178.0,748.0,176.0,732.0,176.0,716.0,176.0,720.0,174.0,714.0,190.0,714.0,206.0,714.0,222.0,714.0,238.0,714.0,254.0,714.0,270.0,716.0,286.0,716.0,302.0,714.0,318.0,716.0,334.0,716.0,350.0,716.0,366.0,716.0,382.0,716.0,398.0,716.0,414.0,716.0,430.0,718.0,446.0,718.0,462.0,718.0,478.0,718.0,494.0,718.0,510.0,720.0,526.0,720.0,542.0,720.0,558.0,720.0,574.0,722.0,590.0,722.0,606.0,722.0,622.0,722.0,638.0,722.0,654.0,722.0,670.0,722.0,686.0,724.0,702.0,724.0,708.0,740.0,714.0,756.0,714.0,772.0,716.0,788.0,718.0,804.0,720.0,820.0,720.0,836.0,722.0,852.0,722.0,868.0,724.0,884.0,726.0,900.0,726.0,916.0,728.0,932.0,730.0,948.0,728.0,964.0,730.0,980.0,730.0,996.0,730.0,1012.0,730.0,1028.0,732.0,1044.0,732.0,1060.0,732.0,1076.0,732.0,1092.0,732.0,1108.0,730.0,1124.0,732.0,1140.0,730.0,1156.0,730.0,1172.0,730.0,1188.0,730.0,1204.0,728.0,1220.0,730.0,1236.0,728.0" stroke="black" stroke-width="1" fill="none" />
<polyline points="1200.0,830.0,1196.0,846.0,1196.0,862.0,1198.0,878.0,1200.0,894.0,1200.0,910.0,1202.0,926.0,1202.0,942.0,1202.0,958.0,1202.0,974.0,1202.0,990.0,1202.0,1006.0,1204.0,1022.0,1204.0,1038.0,1204.0,1054.0,1204.0,1070.0,1204.0,1086.0,1204.0,1102.0,1204.0,1118.0,1204.0,1134.0,1204.0,1150.0,1204.0,1166.0,1204.0,1182.0,1202.0,1198.0,1204.0,1214.0,1202.0,1230.0,1202.0,1246.0,1200.0,1262.0,1200.0,1278.0,1200.0,1294.0,1200.0,1310.0,1200.0,1326.0,1200.0,1342.0,1198.0,1358.0,1198.0,1374.0,1198.0,1390.0,1198.0,1406.0,1198.0,1422.0,1196.0,1438.0,1200.0,1456.0,1208.0,1452.0,1224.0,1448.0,1240.0,1444.0,1256.0,1440.0,1272.0,1438.0" stroke="black" stroke-width="1" fill="none" />
<polyline points="1282.0,1444.0,1266.0,1450.0,1250.0,1454.0,1234.0,1458.0,1218.0,1460.0,1202.0,1462.0" stroke="black" stroke-width="1" fill="none" />
<polyline points="1168.0,1474.0,1152.0,1480.0" stroke="black" stroke-width="1" fill="none" />
<polyline points="1158.0,1474.0,1154.0,1490.0,1154.0,1506.0,1156.0,1522.0,1156.0,1538.0,1158.0,1554.0,1158.0,1570.0,1160.0,1586.0,1160.0,1602.0,1162.0,1618.0,1164.0,1634.0,1164.0,1650.0,1164.0,1666.0,1166.0,1682.0,1166.0,1698.0,1166.0,1714.0,1166.0,1730.0,1166.0,1746.0,1168.0,1762.0,1168.0,1778.0,1168.0,1794.0,1170.0,1810.0,1170.0,1826.0,1170.0,1842.0,1170.0,1858.0,1172.0,1874.0,1178.0,1890.0,1184.0,1918.0,1182.0,1934.0" stroke="black" stroke-width="1" fill="none" />
<polyline points="1174.0,1938.0,1158.0,1938.0,1142.0,1938.0" stroke="black" stroke-width="1" fill="none" />
<polyline points="1154.0,1952.0,1152.0,1968.0,1152.0,1984.0,1152.0,2000.0,1154.0,2016.0,1154.0,2032.0,1154.0,2048.0,1154.0,2064.0,1154.0,2080.0,1154.0,2096.0,1154.0,2112.0,1154.0,2128.0,1154.0,2144.0,1156.0,2160.0,1154.0,2176.0,1154.0,2192.0,1154.0,2208.0,1154.0,2224.0,1154.0,2240.0" stroke="black" stroke-width="1" fill="none" />
<polyline points="1168.0,2220.0,1184.0,2216.0,1200.0,2214.0,1216.0,2214.0,1232.0,2214.0,1248.0,2216.0,1264.0,2216.0,1280.0,2216.0,1296.0,2208.0,1298.0,2220.0,1294.0,2236.0,1286.0,2252.0" stroke="black" stroke-width="1" fill="none" />
<polyline points="1296.0,2224.0,1310.0,2210.0,1308.0,2226.0,1304.0,2242.0,1322.0,2254.0" stroke="black" stroke-width="1" fill="none" />
<polyline points="1282.0,2202.0,1266.0,2202.0,1250.0,2204.0,1234.0,2204.0,1218.0,2204.0,1202.0,2204.0,1186.0,2204.0,1170.0,2202.0" stroke="black" stroke-width="1" fill="none" />
<polyline points="1136.0,2254.0,1120.0,2254.0,1104.0,2254.0" stroke="black" stroke-width="1" fill="none" />
<polyline points="1040.0,2246.0,1042.0,2230.0,1040.0,2214.0" stroke="black" stroke-width="1" fill="none" />
<polyline points="1028.0,2242.0,1028.0,2226.0,1024.0,2220.0,1008.0,2224.0,992.0,2222.0,976.0,2222.0,960.0,2222.0,944.0,2224.0,948.0,2222.0,944.0,2238.0,944.0,2254.0" stroke="black" stroke-width="1" fill="none" />
<polyline points="932.0,2218.0,948.0,2208.0,964.0,2210.0,980.0,2210.0" stroke="black" stroke-width="1" fill="none" />
<polyline points="938.0,2208.0,932.0,2224.0,930.0,2240.0,944.0,2252.0,960.0,2254.0,976.0,2254.0,992.0,2252.0,1008.0,2254.0,1024.0,2252.0" stroke="black" stroke-width="1" fill="none" />
<polyline points="994.0,2206.0,992.0,2190.0,992.0,2174.0,992.0,2158.0,992.0,2142.0,990.0,2126.0,990.0,2110.0,990.0,2094.0,988.0,2078.0,988.0,2062.0,986.0,2046.0,986.0,2030.0,984.0,2014.0,984.0,1998.0,984.0,1982.0,982.0,1966.0,988.0,1950.0" stroke="black" stroke-width="1" fill="none" />
<polyline points="972.0,1950.0,974.0,1966.0,972.0,1982.0,972.0,1998.0,972.0,2014.0,974.0,2030.0,972.0,2046.0,974.0,2062.0,974.0,2078.0,976.0,2094.0,976.0,2110.0,978.0,2126.0,978.0,2142.0,980.0,2158.0,980.0,2174.0,982.0,2190.0,982.0,2206.0,1006.0,2210.0,1022.0,2212.0,1038.0,2212.0" stroke="black" stroke-width="1" fill="none" />
<polyline points="1006.0,1930.0,1006.0,1914.0,1002.0,1904.0,986.0,1906.0,970.0,1906.0,954.0,1912.0" stroke="black" stroke-width="1" fill="none" />
<polyline points="960.0,1906.0,956.0,1922.0,954.0,1926.0,970.0,1936.0,986.0,1938.0,1002.0,1936.0" stroke="black" stroke-width="1" fill="none" />
<polyline points="978.0,1892.0,962.0,1894.0,946.0,1888.0" stroke="black" stroke-width="1" fill="none" />
<polyline points="954.0,1888.0,946.0,1894.0,944.0,1910.0,944.0,1926.0,946.0,1942.0,952.0,1950.0,968.0,1948.0,990.0,1950.0,1006.0,1950.0" stroke="black" stroke-width="1" fill="none" />
<polyline points="1128.0,1898.0,1144.0,1890.0,1160.0,1888.0" stroke="black" stroke-width="1" fill="none" />
<polyline points="1144.0,1900.0,1138.0,1916.0,1140.0,1932.0,1140.0,1958.0" stroke="black" stroke-width="1" fill="none" />
<polyline points="1164.0,1950.0,1162.0,1966.0,1162.0,1982.0,1164.0,1998.0,1164.0,2014.0,1166.0,2030.0,1166.0,2046.0,1168.0,2062.0,1166.0,2078.0,1168.0,2094.0,1168.0,2110.0,1168.0,2126.0,1168.0,2142.0,1168.0,2158.0,1168.0,2174.0,1168.0,2190.0,1174.0,2214.0,1166.0,2230.0,1164.0,2246.0,1172.0,2250.0,1188.0,2248.0,1204.0,2250.0,1220.0,2250.0,1236.0,2252.0,1252.0,2252.0,1268.0,2254.0,1284.0,2254.0,1306.0,2254.0,1322.0,2254.0,1338.0,2254.0,1354.0,2254.0,1370.0,2254.0,1386.0,2254.0,1402.0,2254.0" stroke="black" stroke-width="1" fill="none" />
<polyline points="1196.0,1906.0,1170.0,1900.0,1154.0,1900.0,1138.0,1908.0" stroke="black" stroke-width="1" fill="none" />
<polyline points="1132.0,1892.0,1126.0,1908.0,1128.0,1924.0,1128.0,1940.0,1130.0,1956.0,1140.0,1958.0,1160.0,1954.0,1176.0,1952.0,1192.0,1948.0" stroke="black" stroke-width="1" fill="none" />
<polyline points="1184.0,1954.0,1194.0,1938.0,1194.0,1922.0,1196.0,1906.0,1200.0,1890.0,1190.0,1888.0,1174.0,1882.0,1160.0,1874.0,1160.0,1858.0,1158.0,1842.0,1158.0,1826.0,1158.0,1810.0,1156.0,1794.0,1154.0,1778.0,1156.0,1762.0,1156.0,1746.0,1156.0,1730.0,1154.0,1714.0,1154.0,1698.0,1152.0,1682.0,1152.0,1666.0,1152.0,1650.0,1150.0,1634.0,1150.0,1618.0,1150.0,1602.0,1148.0,1586.0,1146.0,1570.0,1146.0,1554.0,1146.0,1538.0,1144.0,1522.0,1144.0,1506.0,1144.0,1490.0,1134.0,1474.0,1130.0,1476.0,1114.0,1474.0,1098.0,1476.0,1082.0,1474.0,1066.0,1474.0,1050.0,1474.0,1034.0,1474.0,1018.0,1472.0,1002.0,1472.0,986.0,1472.0,970.0,1472.0,954.0,1472.0,954.0,1472.0,956.0,1488.0,958.0,1504.0,960.0,1520.0,962.0,1536.0,966.0,1552.0,968.0,1568.0,970.0,1584.0,972.0,1600.0,974.0,1616.0,976.0,1632.0,980.0,1648.0,982.0,1664.0,982.0,1680.0,984.0,1696.0,984.0,1712.0,986.0,1728.0,988.0,1744.0,990.0,1760.0,988.0,1776.0,990.0,1792.0,990.0,1808.0,992.0,1824.0,992.0,1840.0,992.0,1856.0,992.0,1872.0,994.0,1888.0" stroke="black" stroke-width="1" fill="none" />
<polyline points="1016.0,1934.0,1018.0,1918.0,1018.0,1902.0,1014.0,1890.0,998.0,1890.0,982.0,1880.0,982.0,1864.0,980.0,1848.0,978.0,1832.0,980.0,1816.0,978.0,1800.0,978.0,1784.0,976.0,1768.0,974.0,1752.0,974.0,1736.0,974.0,1720.0,972.0,1704.0,970.0,1688.0,968.0,1672.0,966.0,1656.0,964.0,1640.0,962.0,1624.0,960.0,1608.0,958.0,1592.0,956.0,1576.0,952.0,1560.0,950.0,1544.0,948.0,1528.0,946.0,1512.0,944.0,1496.0,946.0,1480.0,942.0,1470.0,926.0,1470.0,910.0,1468.0,894.0,1468.0,878.0,1466.0,862.0,1466.0,846.0,1462.0,830.0,1442.0" stroke="black" stroke-width="1" fill="none" />
<polyline points="662.0,1160.0,692.0,1144.0,686.0,1128.0,684.0,1112.0,698.0,1096.0,710.0,1080.0,724.0,1064.0,736.0,1048.0,748.0,1032.0,762.0,1016.0,774.0,1000.0,786.0,984.0,800.0,968.0,814.0,952.0,810.0,956.0,794.0,974.0,778.0,994.0,762.0,1014.0,746.0,1036.0,730.0,1056.0,714.0,1076.0,698.0,1094.0,682.0,1114.0" stroke="black" stroke-width="1" fill="none" />
<polyline points="664.0,1116.0,672.0,1132.0,660.0,1148.0,660.0,1148.0,644.0,1154.0,628.0,1150.0,626.0,1146.0,626.0,1130.0,662.0,1114.0,662.0,1114.0,646.0,1120.0,630.0,1126.0,604.0,1136.0,588.0,1128.0,572.0,1116.0,556.0,1098.0,554.0,1094.0,570.0,1096.0,586.0,1110.0,602.0,1122.0,618.0,1118.0,634.0,1114.0,650.0,1108.0,666.0,1102.0,682.0,1098.0,698.0,1080.0,714.0,1058.0,730.0,1038.0,746.0,1018.0,762.0,998.0,778.0,978.0,794.0,958.0,810.0,940.0" stroke="black" stroke-width="1" fill="none" />
<polyline points="822.0,946.0,820.0,962.0,822.0,978.0,822.0,994.0,820.0,1010.0,822.0,1026.0,822.0,1042.0,822.0,1058.0,822.0,1074.0,822.0,1090.0,820.0,1106.0,820.0,1122.0,820.0,1138.0,820.0,1154.0,822.0,1170.0,822.0,1186.0,822.0,1202.0,820.0,1218.0,820.0,1234.0,820.0,1250.0,820.0,1266.0,820.0,1282.0,820.0,1298.0,820.0,1314.0,820.0,1330.0,822.0,1346.0,822.0,1362.0,822.0,1378.0,822.0,1394.0,824.0,1410.0,826.0,1426.0,830.0,1442.0,836.0,1458.0" stroke="black" stroke-width="1" fill="none" />
<polyline points="1192.0,1440.0,1190.0,1424.0,1188.0,1408.0,1188.0,1392.0,1186.0,1376.0,1186.0,1360.0,1186.0,1344.0,1186.0,1328.0,1188.0,1312.0,1188.0,1296.0,1190.0,1280.0,1190.0,1264.0,1190.0,1248.0,1190.0,1232.0,1190.0,1216.0,1192.0,1200.0,1192.0,1184.0,1192.0,1168.0,1192.0,1152.0,1192.0,1136.0,1192.0,1120.0,1192.0,1104.0,1192.0,1088.0,1192.0,1072.0,1192.0,1056.0,1192.0,1040.0,1192.0,1024.0,1192.0,1008.0,1192.0,992.0,1192.0,976.0,1190.0,960.0,1190.0,944.0,1190.0,928.0,1188.0,912.0,1188.0,896.0,1188.0,880.0,1186.0,864.0,1186.0,848.0,1184.0,832.0,1170.0,830.0,1154.0,834.0,1138.0,836.0,1122.0,838.0,1106.0,840.0,1090.0,840.0,1074.0,842.0,1058.0,844.0,1042.0,842.0,1026.0,842.0,1010.0,844.0,994.0,842.0,978.0,842.0,962.0,840.0,946.0,840.0,930.0,840.0,914.0,840.0,898.0,838.0,882.0,838.0,866.0,836.0,850.0,836.0,834.0,840.0" stroke="black" stroke-width="1" fill="none" />
<polyline points="836.0,834.0,834.0,850.0,834.0,866.0,834.0,882.0,834.0,898.0,834.0,914.0,834.0,930.0,834.0,946.0,834.0,962.0,834.0,978.0,834.0,994.0,834.0,1010.0,834.0,1026.0,834.0,1042.0,834.0,1058.0,834.0,1074.0,834.0,1090.0,834.0,1106.0,834.0,1122.0,834.0,1138.0,834.0,1154.0,834.0,1170.0,834.0,1186.0,834.0,1202.0,834.0,1218.0,834.0,1234.0,834.0,1250.0,834.0,1266.0,834.0,1282.0,834.0,1298.0,834.0,1314.0,834.0,1330.0,834.0,1346.0,834.0,1362.0,834.0,1378.0,834.0,1394.0,838.0,1410.0,840.0,1426.0,842.0,1442.0,848.0,1452.0,864.0,1454.0,880.0,1456.0,896.0,1456.0,912.0,1458.0,928.0,1458.0,944.0,1458.0,960.0,1460.0,976.0,1458.0,992.0,1458.0,1008.0,1460.0,1024.0,1460.0,1040.0,1460.0,1056.0,1460.0,1072.0,1460.0,1088.0,1460.0,1104.0,1462.0,1120.0,1460.0,1136.0,1462.0,1152.0,1460.0,1168.0,1462.0,1184.0,1464.0" stroke="black" stroke-width="1" fill="none" />
<polyline points="1276.0,906.0,1284.0,898.0,1246.0,882.0" stroke="black" stroke-width="1" fill="none" />
<polyline points="1294.0,842.0,1320.0,858.0,1320.0,874.0,1320.0,890.0" stroke="black" stroke-width="1" fill="none" />
<polyline points="1308.0,858.0,1292.0,854.0,1276.0,850.0,1260.0,848.0,1244.0,844.0,1228.0,838.0,1212.0,834.0,1196.0,832.0" stroke="black" stroke-width="1" fill="none" />
<polyline points="1106.0,820.0,1092.0,804.0,1096.0,788.0,1088.0,778.0,1072.0,800.0,1056.0,804.0,1040.0,806.0,1024.0,806.0,1008.0,806.0,992.0,802.0,976.0,794.0" stroke="black" stroke-width="1" fill="none" />
<polyline points="974.0,774.0,990.0,770.0,1006.0,772.0,1022.0,772.0,1038.0,774.0,1054.0,772.0,1070.0,772.0,1086.0,770.0,1102.0,766.0,1118.0,752.0,1116.0,758.0,1090.0,774.0,1084.0,790.0" stroke="black" stroke-width="1" fill="none" />
<polyline points="1090.0,758.0,1074.0,762.0,1058.0,762.0,1042.0,762.0,1026.0,760.0,1010.0,762.0,994.0,758.0,978.0,754.0,962.0,754.0" stroke="black" stroke-width="1" fill="none" />
<polyline points="942.0,744.0,950.0,760.0,964.0,776.0,964.0,792.0,966.0,808.0,956.0,824.0" stroke="black" stroke-width="1" fill="none" />
<polyline points="974.0,812.0,970.0,808.0,954.0,826.0,938.0,828.0,922.0,828.0,906.0,828.0,890.0,826.0,874.0,826.0,858.0,824.0,842.0,824.0,826.0,834.0" stroke="black" stroke-width="1" fill="none" />
<polyline points="836.0,822.0,826.0,838.0,822.0,854.0,822.0,870.0,822.0,886.0,822.0,902.0,820.0,918.0,816.0,934.0,802.0,950.0,788.0,966.0,774.0,982.0,762.0,998.0,750.0,1014.0,736.0,1030.0,724.0,1046.0,712.0,1062.0,700.0,1078.0,686.0,1094.0,642.0,1110.0" stroke="black" stroke-width="1" fill="none" />
<polyline points="576.0,1066.0,560.0,1074.0,544.0,1080.0,528.0,1084.0,512.0,1086.0,496.0,1086.0,480.0,1086.0,464.0,1088.0,448.0,1088.0" stroke="black" stroke-width="1" fill="none" />
<polyline points="438.0,1078.0,454.0,1074.0" stroke="black" stroke-width="1" fill="none" />
<polyline points="462.0,1078.0,446.0,1084.0,470.0,1068.0,462.0,1052.0,440.0,1060.0,424.0,1064.0,422.0,1062.0,410.0,1064.0,416.0,1074.0,426.0,1058.0,416.0,1052.0,400.0,1060.0,398.0,1056.0,400.0,1044.0,388.0,1060.0,390.0,1076.0,396.0,1080.0" stroke="black" stroke-width="1" fill="none" />
<polyline points="386.0,1064.0,402.0,1044.0,418.0,1042.0,434.0,1042.0,450.0,1046.0,466.0,1052.0,444.0,1072.0,436.0,1074.0,452.0,1068.0" stroke="black" stroke-width="1" fill="none" />
<polyline points="416.0,976.0,400.0,980.0,384.0,980.0,368.0,980.0,352.0,978.0,336.0,976.0,320.0,966.0" stroke="black" stroke-width="1" fill="none" />
<polyline points="318.0,956.0,334.0,942.0,350.0,936.0,366.0,938.0,386.0,932.0,402.0,932.0,418.0,934.0,434.0,936.0,450.0,940.0,466.0,944.0,482.0,948.0,498.0,954.0,514.0,964.0,530.0,970.0,546.0,980.0,562.0,990.0,578.0,1004.0,594.0,1020.0" stroke="black" stroke-width="1" fill="none" />
<polyline points="578.0,1022.0,562.0,1008.0,546.0,996.0,530.0,986.0,514.0,978.0,498.0,970.0,482.0,962.0,466.0,956.0,450.0,950.0,434.0,946.0,418.0,942.0,402.0,940.0,378.0,948.0,362.0,946.0,346.0,946.0,330.0,952.0" stroke="black" stroke-width="1" fill="none" />
<polyline points="338.0,948.0,336.0,964.0,344.0,966.0,360.0,968.0,376.0,970.0,392.0,970.0,408.0,968.0" stroke="black" stroke-width="1" fill="none" />
<polyline points="416.0,956.0,400.0,954.0,400.0,954.0,412.0,956.0,420.0,972.0" stroke="black" stroke-width="1" fill="none" />
<polyline points="446.0,950.0,484.0,950.0,518.0,966.0,546.0,982.0,568.0,998.0,588.0,1014.0,598.0,1030.0,602.0,1046.0,594.0,1062.0,578.0,1078.0,554.0,1094.0,564.0,1110.0,584.0,1126.0,610.0,1142.0,616.0,1158.0,618.0,1164.0,634.0,1170.0,650.0,1166.0,666.0,1160.0,682.0,1154.0" stroke="black" stroke-width="1" fill="none" />
<polyline points="586.0,1070.0,570.0,1082.0,554.0,1088.0,538.0,1094.0,522.0,1096.0,506.0,1098.0,490.0,1098.0,474.0,1100.0,458.0,1100.0,442.0,1100.0,426.0,1100.0,410.0,1098.0,394.0,1096.0,378.0,1096.0,362.0,1096.0,346.0,1092.0,330.0,1092.0,314.0,1090.0,298.0,1088.0,282.0,1084.0,266.0,1082.0,250.0,1080.0,234.0,1076.0,218.0,1074.0,202.0,1070.0,186.0,1064.0,170.0,1060.0,154.0,1054.0,138.0,1046.0,122.0,1036.0,106.0,1016.0" stroke="black" stroke-width="1" fill="none" />
<polyline points="118.0,1012.0,134.0,1026.0,150.0,1036.0,166.0,1044.0,182.0,1050.0,198.0,1054.0,214.0,1058.0,230.0,1062.0,246.0,1066.0,262.0,1068.0,278.0,1072.0,294.0,1074.0,310.0,1076.0,326.0,1078.0,342.0,1080.0,358.0,1082.0,374.0,1082.0,390.0,1084.0" stroke="black" stroke-width="1" fill="none" />
<polyline points="334.0,1034.0,318.0,1026.0" stroke="black" stroke-width="1" fill="none" />
<polyline points="338.0,1024.0,358.0,1040.0,350.0,1056.0" stroke="black" stroke-width="1" fill="none" />
<polyline points="336.0,1054.0,320.0,1054.0,304.0,1054.0,288.0,1052.0,272.0,1044.0" stroke="black" stroke-width="1" fill="none" />
<polyline points="260.0,1046.0,276.0,1062.0,292.0,1064.0,308.0,1064.0,324.0,1066.0,340.0,1062.0,356.0,1050.0" stroke="black" stroke-width="1" fill="none" />
<polyline points="348.0,1046.0,326.0,1030.0,306.0,1020.0,290.0,1018.0,274.0,1022.0,258.0,1042.0" stroke="black" stroke-width="1" fill="none" />
<polyline points="282.0,1028.0,270.0,1044.0,278.0,1030.0,294.0,1028.0,316.0,1020.0,332.0,1022.0,348.0,1028.0" stroke="black" stroke-width="1" fill="none" />
<polyline points="280.0,1020.0,260.0,1036.0,262.0,1052.0" stroke="black" stroke-width="1" fill="none" />
<polyline points="228.0,1004.0,212.0,988.0,208.0,986.0,224.0,992.0" stroke="black" stroke-width="1" fill="none" />
<polyline points="222.0,1000.0,200.0,984.0,196.0,988.0,212.0,1002.0" stroke="black" stroke-width="1" fill="none" />
<polyline points="202.0,1004.0,186.0,988.0,188.0,984.0,208.0,1000.0" stroke="black" stroke-width="1" fill="none" />
<polyline points="194.0,998.0,184.0,982.0,182.0,986.0" stroke="black" stroke-width="1" fill="none" />
<polyline points="170.0,990.0,186.0,1010.0" stroke="black" stroke-width="1" fill="none" />
<polyline points="184.0,998.0,168.0,984.0,168.0,984.0,176.0,1000.0" stroke="black" stroke-width="1" fill="none" />
<polyline points="186.0,1010.0,178.0,994.0,162.0,994.0,158.0,998.0" stroke="black" stroke-width="1" fill="none" />
<polyline points="146.0,1000.0,162.0,1016.0,178.0,1020.0,194.0,1020.0,210.0,1018.0,226.0,1018.0,242.0,1010.0" stroke="black" stroke-width="1" fill="none" />
<polyline points="240.0,986.0,224.0,980.0,208.0,978.0,192.0,976.0,176.0,972.0,160.0,976.0,144.0,996.0" stroke="black" stroke-width="1" fill="none" />
<polyline points="116.0,992.0,132.0,968.0,148.0,958.0,164.0,950.0,180.0,944.0,196.0,938.0,212.0,934.0,228.0,930.0,244.0,926.0,260.0,924.0,276.0,920.0,292.0,920.0,308.0,918.0,324.0,918.0,340.0,918.0,356.0,918.0,372.0,920.0,388.0,924.0,404.0,926.0" stroke="black" stroke-width="1" fill="none" />
<polyline points="392.0,916.0,376.0,912.0,360.0,910.0,344.0,910.0,328.0,908.0,312.0,910.0,296.0,910.0,280.0,912.0,264.0,914.0,248.0,916.0,232.0,920.0,216.0,922.0,200.0,928.0,184.0,932.0,168.0,938.0,152.0,944.0,136.0,954.0,120.0,968.0,104.0,994.0" stroke="black" stroke-width="1" fill="none" />
<polyline points="148.0,1006.0,146.0,990.0,166.0,974.0" stroke="black" stroke-width="1" fill="none" />
<polyline points="208.0,964.0,224.0,974.0,240.0,976.0,256.0,976.0,272.0,974.0,288.0,964.0" stroke="black" stroke-width="1" fill="none" />
<polyline points="276.0,954.0,266.0,966.0,250.0,966.0,234.0,966.0,218.0,958.0" stroke="black" stroke-width="1" fill="none" />
<polyline points="206.0,956.0,222.0,940.0,238.0,936.0,254.0,936.0,270.0,940.0,280.0,960.0,290.0,962.0" stroke="black" stroke-width="1" fill="none" />
<polyline points="290.0,952.0,274.0,948.0,260.0,946.0,244.0,944.0,228.0,946.0,220.0,962.0,226.0,946.0" stroke="black" stroke-width="1" fill="none" />
<polyline points="230.0,936.0,208.0,952.0,210.0,968.0,216.0,986.0,236.0,1002.0" stroke="black" stroke-width="1" fill="none" />
<polyline points="236.0,1014.0,246.0,998.0,228.0,982.0" stroke="black" stroke-width="1" fill="none" />
<polyline points="208.0,934.0,164.0,950.0,136.0,966.0,120.0,982.0,116.0,998.0,118.0,1014.0,136.0,1030.0,172.0,1046.0" stroke="black" stroke-width="1" fill="none" />
<polyline points="158.0,1056.0,126.0,1040.0,108.0,1024.0,104.0,1008.0,106.0,992.0,114.0,976.0,128.0,960.0,152.0,944.0,194.0,928.0" stroke="black" stroke-width="1" fill="none" />
<polyline points="322.0,970.0,320.0,954.0,340.0,938.0" stroke="black" stroke-width="1" fill="none" />
<polyline points="484.0,964.0,516.0,980.0,542.0,996.0,564.0,1012.0,580.0,1028.0,588.0,1044.0,582.0,1060.0,554.0,1076.0" stroke="black" stroke-width="1" fill="none" />
<polyline points="564.0,1094.0,584.0,1110.0" stroke="black" stroke-width="1" fill="none" />
<polyline points="986.0,800.0,974.0,784.0,980.0,768.0" stroke="black" stroke-width="1" fill="none" />
<polyline points="1114.0,166.0,1130.0,166.0,1146.0,166.0,1162.0,166.0,1178.0,164.0,1194.0,162.0,1210.0,162.0,1226.0,162.0,1242.0,160.0,1258.0,158.0,1274.0,162.0,1290.0,174.0,1306.0,186.0,1322.0,196.0,1338.0,206.0,1354.0,218.0,1370.0,228.0,1386.0,240.0,1402.0,250.0,1418.0,260.0,1434.0,272.0" stroke="black" stroke-width="1" fill="none" />
<polyline points="1414.0,274.0,1398.0,264.0,1382.0,254.0,1366.0,244.0,1350.0,232.0,1334.0,222.0,1318.0,210.0,1302.0,198.0,1286.0,186.0,1270.0,178.0,1270.0,178.0,1270.0,194.0,1270.0,210.0,1268.0,226.0,1268.0,242.0,1268.0,258.0,1268.0,274.0,1268.0,290.0,1268.0,306.0,1268.0,322.0,1268.0,338.0,1268.0,354.0,1266.0,370.0,1268.0,386.0,1266.0,402.0,1266.0,418.0,1264.0,434.0,1264.0,450.0,1264.0,466.0,1262.0,482.0,1262.0,498.0,1262.0,514.0,1260.0,530.0,1260.0,546.0,1258.0,562.0,1258.0,578.0,1258.0,594.0,1258.0,610.0,1256.0,626.0,1256.0,642.0,1254.0,658.0,1254.0,674.0,1254.0,690.0,1252.0,706.0,1252.0,722.0,1264.0,726.0,1280.0,720.0,1296.0,716.0,1312.0,710.0,1328.0,704.0,1344.0,696.0,1360.0,690.0,1376.0,684.0,1392.0,678.0,1408.0,670.0" stroke="black" stroke-width="1" fill="none" />
<polyline points="1670.0,434.0,1668.0,450.0,1680.0,466.0,1694.0,482.0,1706.0,498.0,1716.0,514.0,1728.0,530.0,1738.0,546.0,1736.0,562.0,1734.0,578.0,1732.0,594.0,1730.0,610.0,1734.0,622.0,1750.0,620.0,1766.0,624.0,1790.0,628.0,1806.0,626.0,1822.0,626.0,1838.0,622.0,1854.0,634.0,1870.0,646.0,1886.0,658.0,1902.0,670.0,1918.0,678.0,1934.0,686.0,1950.0,690.0,1966.0,692.0,1982.0,682.0,1990.0,676.0" stroke="black" stroke-width="1" fill="none" />
<polyline points="1766.0,624.0,1770.0,640.0,1766.0,656.0,1764.0,672.0,1760.0,688.0,1758.0,704.0,1754.0,720.0,1752.0,736.0,1748.0,752.0,1746.0,768.0,1742.0,784.0,1738.0,800.0,1734.0,816.0,1730.0,832.0,1726.0,848.0,1722.0,864.0,1720.0,880.0,1714.0,896.0,1712.0,912.0,1708.0,928.0,1704.0,944.0,1700.0,960.0,1702.0,976.0,1694.0,992.0,1718.0,1008.0,1730.0,1024.0,1712.0,1040.0,1696.0,1056.0,1698.0,1064.0,1714.0,1052.0,1730.0,1038.0" stroke="black" stroke-width="1" fill="none" />
<polyline points="1794.0,588.0,1810.0,572.0,1814.0,556.0,1810.0,540.0,1788.0,524.0,1778.0,508.0,1758.0,500.0,1738.0,484.0,1718.0,468.0,1698.0,452.0,1676.0,436.0" stroke="black" stroke-width="1" fill="none" />
<polyline points="1314.0,708.0,1354.0,692.0,1394.0,676.0,1418.0,660.0,1418.0,644.0,1418.0,628.0,1418.0,612.0,1418.0,596.0,1418.0,580.0,1418.0,564.0,1418.0,548.0,1418.0,532.0,1418.0,516.0,1418.0,500.0,1418.0,484.0,1416.0,468.0,1418.0,452.0,1418.0,436.0,1418.0,420.0,1418.0,404.0,1418.0,388.0,1418.0,372.0,1418.0,356.0,1420.0,340.0,1420.0,324.0,1420.0,308.0,1420.0,292.0,1416.0,276.0,1388.0,260.0,1364.0,244.0,1340.0,228.0,1318.0,212.0,1296.0,196.0,1274.0,180.0" stroke="black" stroke-width="1" fill="none" />
<polyline points="1270.0,160.0,1290.0,176.0,1314.0,192.0,1338.0,208.0,1360.0,224.0,1384.0,240.0,1410.0,256.0,1432.0,272.0,1432.0,288.0,1430.0,304.0,1430.0,320.0,1430.0,336.0,1430.0,352.0,1432.0,368.0,1430.0,384.0,1430.0,400.0,1430.0,416.0,1430.0,432.0,1430.0,448.0,1430.0,464.0,1430.0,480.0,1430.0,496.0,1430.0,512.0,1430.0,528.0,1430.0,544.0,1430.0,560.0,1432.0,576.0,1430.0,592.0,1430.0,608.0,1432.0,624.0,1432.0,640.0,1432.0,656.0,1428.0,672.0,1394.0,688.0,1354.0,704.0,1314.0,720.0" stroke="black" stroke-width="1" fill="none" />
<polyline points="1118.0,148.0,1114.0,158.0,1120.0,142.0,1126.0,126.0,1130.0,110.0,1120.0,104.0,1104.0,102.0,1088.0,94.0,1072.0,96.0,1056.0,96.0,1040.0,98.0,1024.0,100.0,1008.0,98.0,992.0,96.0,976.0,96.0,960.0,94.0,944.0,96.0,928.0,94.0,912.0,92.0,896.0,96.0,880.0,110.0" stroke="black" stroke-width="1" fill="none" />
<polyline points="890.0,110.0,906.0,102.0,922.0,102.0,918.0,118.0,924.0,124.0,940.0,106.0,956.0,104.0,954.0,102.0,958.0,118.0,962.0,128.0,978.0,128.0,990.0,104.0,1006.0,110.0" stroke="black" stroke-width="1" fill="none" />
<polyline points="1018.0,124.0,1028.0,108.0" stroke="black" stroke-width="1" fill="none" />
<polyline points="1054.0,108.0,1050.0,124.0" stroke="black" stroke-width="1" fill="none" />
<polyline points="1066.0,130.0,1062.0,120.0,1076.0,120.0,1076.0,104.0" stroke="black" stroke-width="1" fill="none" />
<polyline points="1086.0,106.0,1088.0,122.0,1096.0,130.0,1112.0,124.0,1114.0,122.0,1094.0,96.0" stroke="black" stroke-width="1" fill="none" />
<polyline points="1102.0,162.0,1108.0,146.0,1116.0,130.0,1118.0,124.0,1102.0,158.0,1086.0,170.0,1070.0,168.0,1054.0,170.0,1038.0,170.0,1022.0,170.0,1006.0,170.0,990.0,170.0,974.0,170.0,958.0,170.0,942.0,170.0,926.0,170.0,910.0,170.0,894.0,170.0,878.0,170.0,862.0,170.0,846.0,170.0,830.0,170.0,814.0,170.0,798.0,168.0,782.0,168.0,766.0,166.0,750.0,166.0,734.0,164.0,718.0,164.0,702.0,176.0" stroke="black" stroke-width="1" fill="none" />
<polyline points="716.0,164.0,702.0,180.0,702.0,196.0,702.0,212.0,702.0,228.0,702.0,244.0,702.0,260.0,702.0,276.0,702.0,292.0,702.0,308.0,702.0,324.0,702.0,340.0,702.0,356.0,702.0,372.0,702.0,388.0,702.0,404.0,702.0,420.0,702.0,436.0,704.0,452.0,704.0,468.0,706.0,484.0,706.0,500.0,706.0,516.0,706.0,532.0,706.0,548.0,706.0,564.0,708.0,580.0,708.0,596.0,708.0,612.0,710.0,628.0,710.0,644.0,710.0,660.0,710.0,676.0,710.0,692.0,712.0,708.0,712.0,724.0,724.0,726.0,740.0,726.0,756.0,726.0,772.0,728.0,788.0,730.0,804.0,732.0,820.0,732.0,836.0,734.0,852.0,736.0,868.0,738.0,884.0,738.0,900.0,740.0,916.0,742.0,932.0,742.0,948.0,744.0,972.0,744.0,988.0,744.0,1004.0,744.0,1020.0,744.0,1036.0,746.0,1052.0,744.0,1068.0,746.0,1084.0,744.0,1100.0,746.0" stroke="black" stroke-width="1" fill="none" />
<polyline points="924.0,158.0,908.0,136.0,892.0,118.0" stroke="black" stroke-width="1" fill="none" />
<polyline points="882.0,122.0,898.0,144.0,914.0,162.0" stroke="black" stroke-width="1" fill="none" />
<polyline points="930.0,120.0,944.0,104.0" stroke="black" stroke-width="1" fill="none" />
<polyline points="904.0,102.0,890.0,118.0,904.0,134.0,918.0,150.0,924.0,166.0" stroke="black" stroke-width="1" fill="none" />
<polyline points="908.0,158.0,894.0,142.0,882.0,126.0,880.0,110.0,902.0,94.0" stroke="black" stroke-width="1" fill="none" />
<polyline points="984.0,120.0,988.0,104.0" stroke="black" stroke-width="1" fill="none" />
<polyline points="996.0,94.0,1004.0,114.0,1002.0,124.0,1018.0,124.0,1034.0,108.0,1050.0,106.0,1076.0,104.0,1092.0,108.0" stroke="black" stroke-width="1" fill="none" />
<polyline points="2378.0,2.0,2394.0,2.0,2410.0,2.0,2426.0,2.0,2442.0,4.0,2458.0,4.0,2474.0,6.0,2490.0,8.0,2506.0,10.0,2522.0,18.0,2538.0,30.0" stroke="black" stroke-width="1" fill="none" />
<polyline points="2524.0,36.0,2508.0,34.0" stroke="black" stroke-width="1" fill="none" />
<polyline points="2510.0,28.0,2508.0,44.0,2506.0,60.0,2506.0,76.0,2502.0,92.0,2502.0,108.0,2500.0,124.0,2498.0,140.0,2496.0,156.0,2496.0,172.0,2494.0,188.0,2492.0,204.0,2492.0,220.0,2490.0,236.0,2488.0,252.0,2486.0,268.0,2484.0,284.0,2484.0,300.0,2482.0,316.0,2480.0,332.0,2478.0,348.0,2476.0,364.0,2474.0,380.0,2470.0,396.0,2468.0,412.0,2466.0,428.0,2464.0,444.0,2462.0,460.0,2460.0,476.0,2458.0,492.0,2456.0,508.0,2454.0,524.0,2452.0,540.0,2450.0,556.0,2448.0,572.0,2446.0,588.0,2442.0,604.0,2440.0,620.0,2440.0,636.0,2436.0,652.0,2434.0,668.0,2434.0,684.0,2432.0,700.0,2430.0,716.0,2428.0,732.0,2426.0,748.0,2424.0,764.0,2422.0,780.0,2422.0,796.0,2420.0,812.0,2416.0,828.0,2416.0,844.0,2414.0,860.0,2412.0,876.0,2410.0,892.0,2408.0,908.0,2406.0,924.0,2404.0,940.0,2402.0,956.0,2400.0,972.0,2398.0,988.0,2396.0,1004.0,2394.0,1020.0,2392.0,1036.0,2390.0,1052.0,2388.0,1068.0,2388.0,1084.0,2386.0,1100.0,2384.0,1116.0,2384.0,1132.0,2382.0,1148.0,2380.0,1164.0,2380.0,1180.0,2378.0,1196.0,2376.0,1212.0,2376.0,1228.0,2374.0,1244.0,2372.0,1260.0,2372.0,1276.0,2370.0,1292.0,2368.0,1308.0,2366.0,1324.0,2364.0,1340.0,2364.0,1356.0,2362.0,1372.0,2362.0,1388.0" stroke="black" stroke-width="1" fill="none" />
<polyline points="2372.0,1390.0,2382.0,1374.0,2384.0,1358.0,2386.0,1342.0,2388.0,1326.0,2390.0,1310.0,2392.0,1294.0,2394.0,1278.0,2396.0,1262.0,2396.0,1246.0,2398.0,1230.0,2400.0,1214.0,2402.0,1198.0,2404.0,1182.0,2406.0,1166.0,2408.0,1150.0,2410.0,1134.0,2410.0,1118.0,2412.0,1102.0,2414.0,1086.0,2414.0,1070.0,2416.0,1054.0,2416.0,1038.0,2418.0,1022.0,2418.0,1006.0,2422.0,990.0,2422.0,974.0,2424.0,958.0,2424.0,942.0,2428.0,926.0,2428.0,910.0,2430.0,894.0,2434.0,878.0,2436.0,862.0,2438.0,846.0,2440.0,830.0,2442.0,814.0,2444.0,798.0,2446.0,782.0,2448.0,766.0,2450.0,750.0,2450.0,734.0,2452.0,718.0,2454.0,702.0,2456.0,686.0,2456.0,670.0,2458.0,654.0,2460.0,638.0,2462.0,622.0,2462.0,606.0,2464.0,590.0,2466.0,574.0,2466.0,558.0,2470.0,542.0,2470.0,526.0,2472.0,510.0,2474.0,494.0,2476.0,478.0,2478.0,462.0,2480.0,446.0,2482.0,430.0,2484.0,414.0,2488.0,398.0,2490.0,382.0,2492.0,366.0,2494.0,350.0,2496.0,334.0,2498.0,318.0,2502.0,302.0,2504.0,286.0,2506.0,270.0,2508.0,254.0,2512.0,238.0,2514.0,222.0,2518.0,206.0,2520.0,190.0,2522.0,174.0,2524.0,158.0,2526.0,142.0,2528.0,126.0,2530.0,110.0,2530.0,94.0,2532.0,78.0,2534.0,62.0,2534.0,46.0,2514.0,30.0" stroke="black" stroke-width="1" fill="none" />
<polyline points="2494.0,22.0,2500.0,38.0,2496.0,54.0,2496.0,70.0,2494.0,86.0,2492.0,102.0,2490.0,118.0,2488.0,134.0,2488.0,150.0,2486.0,166.0,2484.0,182.0,2482.0,198.0,2480.0,214.0,2478.0,230.0,2478.0,246.0,2476.0,262.0,2474.0,278.0,2472.0,294.0,2470.0,310.0,2468.0,326.0,2468.0,342.0,2466.0,358.0,2464.0,374.0,2460.0,390.0,2458.0,406.0,2456.0,422.0,2454.0,438.0,2452.0,454.0,2450.0,470.0,2448.0,486.0,2444.0,502.0,2442.0,518.0,2442.0,534.0,2438.0,550.0,2436.0,566.0,2434.0,582.0,2432.0,598.0,2430.0,614.0,2428.0,630.0,2426.0,646.0,2424.0,662.0,2422.0,678.0,2420.0,694.0,2418.0,710.0,2416.0,726.0,2416.0,742.0,2414.0,758.0,2412.0,774.0,2410.0,790.0,2408.0,806.0,2406.0,822.0,2404.0,838.0,2402.0,854.0,2400.0,870.0,2400.0,886.0,2396.0,902.0,2396.0,918.0,2394.0,934.0,2390.0,950.0,2390.0,966.0,2386.0,982.0,2384.0,998.0,2384.0,1014.0,2382.0,1030.0,2380.0,1046.0,2378.0,1062.0,2376.0,1078.0,2374.0,1094.0,2374.0,1110.0,2372.0,1126.0,2370.0,1142.0,2368.0,1158.0,2368.0,1174.0,2366.0,1190.0,2366.0,1206.0,2364.0,1222.0,2362.0,1238.0,2362.0,1254.0,2360.0,1270.0,2358.0,1286.0,2358.0,1302.0,2354.0,1318.0,2354.0,1334.0,2352.0,1350.0,2350.0,1366.0,2350.0,1382.0,2372.0,1390.0" stroke="black" stroke-width="1" fill="none" />
</svg>