<svg xmlns="http://www.w3.org/2000/svg" height="864px" width="994px" version="1.1"><polyline points="308.0,98.0,268.0,114.0,240.0,130.0,218.0,146.0,200.0,162.0,184.0,178.0,172.0,194.0,158.0,210.0,148.0,226.0,140.0,242.0,132.0,258.0,126.0,274.0,120.0,290.0,116.0,306.0,114.0,322.0,110.0,338.0,76.0,354.0,64.0,370.0,56.0,386.0,54.0,402.0,52.0,418.0,52.0,434.0,52.0,450.0,52.0,466.0,52.0,482.0,52.0,498.0,54.0,514.0,58.0,530.0,66.0,546.0,80.0,562.0" stroke="black" stroke-width="1" fill="none" />
<polyline points="88.0,528.0,72.0,510.0" stroke="black" stroke-width="1" fill="none" />
<polyline points="58.0,530.0,74.0,554.0,90.0,564.0,106.0,568.0,110.0,580.0,110.0,596.0,112.0,612.0,114.0,628.0,118.0,644.0,122.0,660.0,128.0,676.0,134.0,692.0,142.0,708.0,152.0,724.0,164.0,740.0,176.0,756.0,190.0,772.0,208.0,788.0,228.0,804.0,252.0,820.0,282.0,836.0" stroke="black" stroke-width="1" fill="none" />
<polyline points="366.0,688.0,382.0,672.0,398.0,658.0,414.0,648.0,430.0,640.0,446.0,632.0,462.0,626.0,478.0,622.0,494.0,618.0,510.0,616.0,526.0,616.0,542.0,618.0,558.0,620.0,574.0,624.0,590.0,628.0,606.0,634.0,622.0,640.0,638.0,648.0,654.0,660.0,670.0,676.0" stroke="black" stroke-width="1" fill="none" />
<polyline points="646.0,704.0,632.0,688.0,608.0,672.0,572.0,656.0" stroke="black" stroke-width="1" fill="none" />
<polyline points="590.0,628.0,626.0,644.0,652.0,660.0,668.0,676.0,680.0,692.0,676.0,708.0" stroke="black" stroke-width="1" fill="none" />
<polyline points="468.0,654.0,432.0,670.0,410.0,686.0,396.0,702.0" stroke="black" stroke-width="1" fill="none" />
<polyline points="474.0,622.0,432.0,638.0,404.0,654.0,384.0,670.0,368.0,686.0,368.0,702.0,372.0,706.0,388.0,710.0,404.0,694.0,420.0,680.0,436.0,668.0,452.0,660.0,468.0,654.0,484.0,652.0,500.0,650.0,516.0,648.0,532.0,650.0,548.0,650.0,564.0,654.0,580.0,658.0,596.0,664.0,612.0,672.0,628.0,684.0,644.0,698.0,660.0,712.0,676.0,708.0" stroke="black" stroke-width="1" fill="none" />
<polyline points="650.0,440.0,666.0,472.0,682.0,488.0,698.0,498.0,714.0,502.0,730.0,506.0,746.0,504.0,762.0,498.0,778.0,490.0,794.0,476.0,810.0,460.0" stroke="black" stroke-width="1" fill="none" />
<polyline points="778.0,446.0,762.0,464.0,746.0,470.0,730.0,470.0,714.0,468.0,698.0,458.0,682.0,434.0" stroke="black" stroke-width="1" fill="none" />
<polyline points="680.0,390.0,696.0,364.0,712.0,354.0,728.0,352.0,744.0,354.0,760.0,360.0,776.0,372.0" stroke="black" stroke-width="1" fill="none" />
<polyline points="750.0,356.0,774.0,372.0,786.0,388.0,790.0,404.0,790.0,420.0,784.0,436.0,774.0,452.0" stroke="black" stroke-width="1" fill="none" />
<polyline points="822.0,386.0,806.0,356.0,790.0,340.0,774.0,330.0,758.0,324.0,742.0,322.0,726.0,322.0,710.0,324.0,694.0,330.0,678.0,340.0,662.0,358.0,646.0,390.0" stroke="black" stroke-width="1" fill="none" />
<polyline points="716.0,352.0,692.0,368.0,684.0,384.0,678.0,400.0,678.0,416.0,680.0,432.0,688.0,448.0,704.0,464.0" stroke="black" stroke-width="1" fill="none" />
<polyline points="752.0,502.0,782.0,486.0,802.0,470.0,814.0,454.0,822.0,438.0,824.0,422.0,824.0,406.0,822.0,390.0,816.0,374.0,806.0,358.0,790.0,342.0,760.0,326.0" stroke="black" stroke-width="1" fill="none" />
<polyline points="708.0,324.0,676.0,340.0,664.0,356.0,654.0,372.0,648.0,388.0,644.0,404.0,646.0,420.0,648.0,436.0,654.0,452.0,662.0,468.0,676.0,484.0,704.0,500.0" stroke="black" stroke-width="1" fill="none" />
<polyline points="886.0,656.0,870.0,694.0,854.0,720.0,838.0,740.0,822.0,758.0,806.0,772.0,790.0,782.0,774.0,794.0,758.0,802.0,742.0,808.0,726.0,814.0,710.0,820.0,694.0,822.0,678.0,826.0,662.0,828.0,646.0,830.0,630.0,832.0,614.0,832.0,598.0,832.0,582.0,832.0,566.0,832.0,550.0,832.0,534.0,832.0,518.0,832.0,502.0,832.0,486.0,832.0,470.0,832.0,454.0,832.0,438.0,832.0,422.0,832.0,406.0,832.0,390.0,830.0,374.0,828.0,358.0,826.0,342.0,822.0,326.0,818.0,310.0,812.0,294.0,804.0,278.0,796.0,262.0,788.0,246.0,776.0,230.0,764.0,214.0,748.0,198.0,728.0,182.0,708.0,166.0,682.0,150.0,640.0" stroke="black" stroke-width="1" fill="none" />
<polyline points="122.0,658.0,138.0,698.0,154.0,724.0,170.0,748.0,186.0,766.0,202.0,780.0,218.0,796.0,234.0,808.0,250.0,818.0,266.0,826.0,282.0,834.0,298.0,842.0,314.0,848.0,330.0,852.0,346.0,856.0,362.0,860.0,378.0,862.0,394.0,862.0,410.0,864.0,426.0,864.0,442.0,864.0,458.0,864.0,474.0,864.0,490.0,864.0,506.0,864.0,522.0,864.0,538.0,864.0,554.0,864.0,570.0,864.0,586.0,864.0,602.0,864.0,618.0,864.0,634.0,864.0,650.0,864.0,666.0,862.0,682.0,860.0,698.0,856.0,714.0,852.0,730.0,846.0,746.0,840.0,762.0,832.0,778.0,826.0,794.0,814.0,810.0,804.0,826.0,792.0,842.0,778.0,858.0,762.0,874.0,744.0,890.0,722.0,906.0,694.0,922.0,650.0" stroke="black" stroke-width="1" fill="none" />
<polyline points="932.0,576.0,932.0,592.0,930.0,608.0,928.0,624.0,926.0,640.0,920.0,656.0,916.0,672.0,908.0,688.0,900.0,704.0,892.0,720.0,882.0,736.0,868.0,752.0,852.0,768.0,834.0,784.0,814.0,800.0,790.0,816.0,758.0,832.0" stroke="black" stroke-width="1" fill="none" />
<polyline points="932.0,576.0,948.0,574.0,964.0,568.0,980.0,554.0" stroke="black" stroke-width="1" fill="none" />
<polyline points="956.0,532.0,962.0,516.0,964.0,500.0,964.0,484.0,964.0,468.0,962.0,452.0,962.0,436.0,960.0,420.0,954.0,404.0,950.0,396.0,934.0,400.0,936.0,396.0,934.0,412.0,934.0,428.0,932.0,444.0,932.0,460.0,932.0,476.0,932.0,492.0,932.0,508.0,932.0,524.0,936.0,538.0,952.0,536.0" stroke="black" stroke-width="1" fill="none" />
<polyline points="958.0,570.0,980.0,554.0,990.0,538.0,992.0,522.0,992.0,506.0,992.0,490.0,992.0,474.0,994.0,458.0,994.0,442.0,994.0,426.0,994.0,410.0,990.0,394.0,980.0,378.0,956.0,362.0" stroke="black" stroke-width="1" fill="none" />
<polyline points="884.0,278.0,868.0,244.0,852.0,220.0,836.0,200.0,820.0,184.0,804.0,170.0,788.0,158.0,772.0,150.0,756.0,142.0,740.0,134.0,724.0,130.0,708.0,126.0,692.0,122.0,676.0,120.0,660.0,118.0,644.0,116.0,628.0,116.0,612.0,116.0,596.0,116.0,580.0,116.0,564.0,116.0,548.0,116.0,532.0,116.0,516.0,116.0,500.0,116.0,484.0,116.0,468.0,116.0,452.0,116.0,436.0,116.0,420.0,116.0,404.0,116.0,388.0,116.0,372.0,118.0,356.0,120.0,340.0,124.0,324.0,126.0,308.0,130.0,292.0,138.0,276.0,144.0,260.0,154.0,244.0,162.0,228.0,176.0,212.0,192.0,196.0,210.0,180.0,234.0,164.0,262.0,148.0,304.0" stroke="black" stroke-width="1" fill="none" />
<polyline points="122.0,280.0,138.0,244.0,154.0,216.0,170.0,196.0,186.0,176.0,202.0,160.0,218.0,146.0,234.0,134.0,250.0,124.0,266.0,116.0,282.0,108.0,298.0,102.0,314.0,98.0,330.0,92.0,346.0,88.0,362.0,86.0,378.0,84.0,394.0,82.0,410.0,82.0,426.0,82.0,442.0,82.0,458.0,82.0,474.0,82.0,490.0,82.0,506.0,82.0,522.0,82.0,538.0,82.0,554.0,82.0,570.0,82.0,586.0,82.0,602.0,82.0,618.0,82.0,634.0,82.0,650.0,82.0,666.0,84.0,682.0,86.0,698.0,90.0,714.0,94.0,730.0,98.0,746.0,102.0,762.0,108.0,778.0,116.0,794.0,126.0,810.0,136.0,826.0,146.0,842.0,160.0,858.0,176.0,874.0,194.0,890.0,218.0,906.0,248.0,922.0,288.0" stroke="black" stroke-width="1" fill="none" />
<polyline points="724.0,130.0,762.0,146.0,790.0,162.0,810.0,178.0,828.0,194.0,842.0,210.0,856.0,226.0,866.0,242.0,874.0,258.0,882.0,274.0,888.0,290.0,892.0,306.0,896.0,322.0,898.0,338.0,900.0,354.0,902.0,370.0,902.0,386.0,902.0,402.0,902.0,418.0,902.0,434.0,900.0,450.0,900.0,466.0,900.0,482.0,900.0,498.0,900.0,514.0,900.0,530.0,900.0,546.0,900.0,562.0,900.0,578.0,900.0,594.0,898.0,610.0,896.0,626.0,892.0,642.0,886.0,658.0,880.0,674.0,872.0,690.0,864.0,706.0,852.0,722.0,840.0,738.0,824.0,754.0,808.0,770.0,784.0,786.0,756.0,802.0" stroke="black" stroke-width="1" fill="none" />
<polyline points="370.0,452.0,354.0,464.0,338.0,470.0,322.0,472.0,306.0,466.0,290.0,456.0,274.0,430.0" stroke="black" stroke-width="1" fill="none" />
<polyline points="242.0,438.0,258.0,470.0,274.0,488.0,290.0,498.0,306.0,504.0,322.0,506.0,338.0,504.0,354.0,498.0,370.0,490.0,386.0,478.0,402.0,462.0,418.0,434.0" stroke="black" stroke-width="1" fill="none" />
<polyline points="384.0,386.0,368.0,364.0,352.0,356.0,336.0,352.0,320.0,352.0,304.0,356.0,288.0,366.0,272.0,394.0" stroke="black" stroke-width="1" fill="none" />
<polyline points="240.0,386.0,256.0,354.0,272.0,338.0,288.0,330.0,304.0,324.0,320.0,320.0,336.0,320.0,352.0,322.0,368.0,326.0,384.0,334.0,400.0,348.0,416.0,372.0" stroke="black" stroke-width="1" fill="none" />
<polyline points="350.0,356.0,374.0,372.0,384.0,388.0,388.0,404.0,388.0,420.0,380.0,436.0,370.0,452.0,346.0,468.0" stroke="black" stroke-width="1" fill="none" />
<polyline points="298.0,464.0,282.0,448.0,274.0,432.0,270.0,416.0,272.0,400.0,276.0,384.0,288.0,368.0,312.0,352.0" stroke="black" stroke-width="1" fill="none" />
<polyline points="300.0,324.0,270.0,340.0,254.0,356.0,246.0,372.0,240.0,388.0,238.0,404.0,238.0,420.0,240.0,436.0,246.0,452.0,256.0,468.0,268.0,484.0,292.0,500.0" stroke="black" stroke-width="1" fill="none" />
<polyline points="108.0,522.0,108.0,506.0,108.0,490.0,108.0,474.0,108.0,458.0,108.0,442.0,108.0,426.0,108.0,410.0,108.0,394.0,104.0,378.0" stroke="black" stroke-width="1" fill="none" />
<polyline points="70.0,412.0,86.0,386.0,102.0,376.0,86.0,386.0,76.0,402.0,70.0,418.0,68.0,434.0,66.0,450.0,66.0,466.0,68.0,482.0,70.0,498.0,72.0,514.0,88.0,530.0" stroke="black" stroke-width="1" fill="none" />
<polyline points="54.0,392.0,70.0,360.0,86.0,350.0,102.0,346.0" stroke="black" stroke-width="1" fill="none" />
<polyline points="358.0,324.0,390.0,340.0,406.0,356.0,414.0,372.0,422.0,388.0,422.0,404.0,422.0,420.0,418.0,436.0,410.0,452.0,400.0,468.0,380.0,484.0,348.0,500.0" stroke="black" stroke-width="1" fill="none" />
<polyline points="320.0,816.0,282.0,800.0,254.0,784.0,234.0,768.0,216.0,752.0,202.0,736.0,190.0,720.0,178.0,704.0,168.0,688.0,160.0,672.0,154.0,656.0,150.0,640.0,146.0,624.0,142.0,608.0,140.0,592.0,140.0,576.0,140.0,560.0,140.0,544.0,140.0,528.0,140.0,512.0,140.0,496.0,140.0,480.0,140.0,464.0,140.0,448.0,140.0,432.0,140.0,416.0,140.0,400.0,138.0,384.0,140.0,368.0,140.0,352.0,142.0,336.0,144.0,320.0,148.0,304.0,154.0,288.0,160.0,272.0,168.0,256.0,176.0,240.0,186.0,224.0,198.0,208.0,212.0,192.0,226.0,176.0,246.0,160.0,274.0,144.0,312.0,128.0" stroke="black" stroke-width="1" fill="none" />
<polyline points="744.0,102.0,778.0,118.0,804.0,134.0,828.0,150.0,846.0,166.0,862.0,182.0,874.0,198.0,886.0,214.0,896.0,230.0,904.0,246.0,912.0,262.0,918.0,278.0,924.0,294.0,928.0,310.0,930.0,326.0,932.0,342.0,934.0,358.0,948.0,360.0,964.0,364.0,980.0,376.0" stroke="black" stroke-width="1" fill="none" />
</svg>