<svg xmlns="http://www.w3.org/2000/svg" height="512px" width="512px" version="1.1"><polyline points="465.0,329.0,467.0,337.0,468.0,345.0,470.0,353.0" stroke="black" stroke-width="1" fill="none" />
<polyline points="469.0,360.0,461.0,363.0" stroke="black" stroke-width="1" fill="none" />
<polyline points="475.0,367.0,475.0,358.0,472.0,350.0,471.0,342.0" stroke="black" stroke-width="1" fill="none" />
<polyline points="485.0,386.0,485.0,394.0,480.0,405.0,482.0,413.0,484.0,421.0" stroke="black" stroke-width="1" fill="none" />
<polyline points="465.0,405.0,473.0,403.0,481.0,396.0" stroke="black" stroke-width="1" fill="none" />
<polyline points="481.0,405.0,470.0,401.0,462.0,403.0" stroke="black" stroke-width="1" fill="none" />
<polyline points="427.0,306.0,419.0,307.0,411.0,309.0,403.0,311.0,395.0,314.0,387.0,315.0,379.0,316.0,371.0,318.0,363.0,320.0,355.0,322.0,347.0,324.0,339.0,325.0" stroke="black" stroke-width="1" fill="none" />
<polyline points="296.0,335.0,287.0,337.0,279.0,338.0,271.0,340.0,263.0,342.0,255.0,344.0,247.0,346.0,239.0,347.0,231.0,349.0,223.0,351.0,215.0,353.0,207.0,354.0,199.0,356.0,191.0,359.0,183.0,360.0" stroke="black" stroke-width="1" fill="none" />
<polyline points="153.0,371.0,161.0,369.0,169.0,367.0,177.0,365.0,185.0,363.0,193.0,362.0,201.0,360.0,209.0,358.0,217.0,356.0,225.0,354.0,233.0,352.0,241.0,351.0,249.0,349.0,257.0,347.0,265.0,345.0,273.0,343.0,281.0,342.0,289.0,340.0,297.0,339.0,305.0,337.0,313.0,335.0,321.0,333.0,329.0,332.0,337.0,330.0,345.0,328.0,353.0,326.0,361.0,324.0,369.0,323.0,377.0,321.0,385.0,320.0,393.0,318.0,401.0,316.0,409.0,314.0,417.0,313.0,425.0,311.0,433.0,309.0,441.0,307.0,449.0,306.0,457.0,306.0,456.0,314.0,459.0,319.0,459.0,327.0,462.0,333.0,464.0,341.0,466.0,349.0,468.0,357.0,473.0,365.0,477.0,373.0,480.0,381.0,482.0,389.0,481.0,397.0,483.0,402.0,477.0,406.0,479.0,414.0,480.0,422.0,481.0,430.0,483.0,438.0,485.0,446.0" stroke="black" stroke-width="1" fill="none" />
<polyline points="482.0,454.0,474.0,455.0,466.0,457.0,458.0,458.0,450.0,460.0,442.0,462.0,434.0,464.0,426.0,466.0,418.0,468.0,410.0,469.0,402.0,471.0,394.0,473.0,386.0,475.0,378.0,477.0,370.0,479.0,362.0,480.0,354.0,482.0,346.0,484.0,338.0,486.0,330.0,488.0,322.0,489.0,314.0,491.0,306.0,493.0,298.0,495.0,290.0,496.0,282.0,498.0,274.0,500.0,266.0,502.0,258.0,503.0,250.0,505.0,242.0,507.0,234.0,509.0,226.0,510.0" stroke="black" stroke-width="1" fill="none" />
<polyline points="181.0,467.0,173.0,470.0" stroke="black" stroke-width="1" fill="none" />
<polyline points="167.0,460.0,175.0,466.0,175.0,477.0,177.0,485.0,179.0,493.0,183.0,501.0,185.0,509.0" stroke="black" stroke-width="1" fill="none" />
<polyline points="172.0,426.0,162.0,429.0,157.0,436.0,154.0,428.0,157.0,420.0,157.0,412.0,155.0,404.0" stroke="black" stroke-width="1" fill="none" />
<polyline points="153.0,373.0,154.0,381.0,156.0,389.0,158.0,397.0,159.0,405.0,161.0,413.0,163.0,421.0,161.0,429.0,163.0,433.0,164.0,441.0,164.0,449.0,166.0,457.0,168.0,465.0,171.0,473.0,173.0,481.0,178.0,485.0" stroke="black" stroke-width="1" fill="none" />
<polyline points="24.0,509.0,22.0,501.0,25.0,500.0,23.0,492.0,17.0,492.0,16.0,490.0,17.0,488.0,16.0,496.0,13.0,504.0" stroke="black" stroke-width="1" fill="none" />
<polyline points="20.0,510.0,19.0,502.0,19.0,494.0" stroke="black" stroke-width="1" fill="none" />
<polyline points="8.0,465.0,0.0,465.0,1.0,465.0,1.0,473.0,1.0,481.0,2.0,489.0,4.0,497.0,4.0,506.0,6.0,504.0,14.0,504.0" stroke="black" stroke-width="1" fill="none" />
<polyline points="16.0,470.0,15.0,462.0,14.0,454.0" stroke="black" stroke-width="1" fill="none" />
<polyline points="11.0,459.0,10.0,451.0,8.0,443.0,6.0,435.0" stroke="black" stroke-width="1" fill="none" />
<polyline points="1.0,429.0,2.0,437.0,4.0,445.0,6.0,453.0,9.0,461.0,9.0,469.0" stroke="black" stroke-width="1" fill="none" />
<polyline points="79.0,62.0,87.0,71.0,95.0,69.0,103.0,68.0,111.0,66.0,119.0,64.0,127.0,62.0,135.0,60.0,143.0,59.0,151.0,57.0,159.0,55.0,167.0,53.0,175.0,51.0,183.0,49.0,191.0,48.0,199.0,46.0,207.0,44.0,215.0,42.0,223.0,40.0,231.0,39.0,239.0,37.0,247.0,36.0,255.0,34.0,263.0,31.0,271.0,30.0,279.0,28.0,287.0,26.0,295.0,25.0,303.0,23.0,311.0,21.0,319.0,19.0,327.0,17.0,335.0,16.0,343.0,14.0,351.0,12.0,359.0,10.0,367.0,9.0,375.0,7.0,383.0,6.0" stroke="black" stroke-width="1" fill="none" />
<polyline points="80.0,66.0,78.0,58.0,75.0,50.0,72.0,42.0,70.0,34.0,77.0,30.0,69.0,33.0" stroke="black" stroke-width="1" fill="none" />
<polyline points="0.0,0.0,105.0,0.0" stroke="black" stroke-width="1" fill="none" />
<polyline points="100.0,16.0,511.5,16.0" stroke="black" stroke-width="1" fill="none" />
<polyline points="511.5,32.5,334.5,209.5,331.5,212.5,330.5,213.5,328.0,216.0,327.5,216.5" stroke="black" stroke-width="1" fill="none" />
<polyline points="329.5,222.5,334.0,218.0,335.0,217.0,336.5,215.5,338.5,213.5,339.0,213.0,341.5,210.5,511.5,40.5" stroke="black" stroke-width="1" fill="none" />
<polyline points="511.5,80.5,367.0,225.0,366.5,225.5,363.0,229.0,367.0,233.0,366.5,233.5,368.0,232.0,369.0,231.0,369.5,230.5,388.0,212.0,389.0,211.0,511.5,88.5" stroke="black" stroke-width="1" fill="none" />
<polyline points="511.5,176.5,431.0,257.0,430.5,257.5,429.0,259.0,427.0,261.0,418.5,269.5,415.5,272.5,414.0,274.0" stroke="black" stroke-width="1" fill="none" />
<polyline points="418.5,277.5,419.0,277.0,420.5,275.5,421.5,274.5,422.0,274.0,423.0,273.0,424.5,271.5,449.5,246.5,450.0,246.0,511.5,184.5" stroke="black" stroke-width="1" fill="none" />
<polyline points="511.5,296.5,482.0,326.0" stroke="black" stroke-width="1" fill="none" />
<polyline points="479.0,321.0,480.5,319.5,482.5,317.5,511.5,288.5" stroke="black" stroke-width="1" fill="none" />
<polyline points="511.5,328.5,494.0,346.0,493.5,346.5,489.5,350.5" stroke="black" stroke-width="1" fill="none" />
<polyline points="488.0,344.0,489.0,343.0,490.0,342.0,511.5,320.5" stroke="black" stroke-width="1" fill="none" />
<polyline points="511.5,344.5,480.0,376.0,479.0,375.0,511.5,407.5" stroke="black" stroke-width="1" fill="none" />
<polyline points="511.5,416.5,498.5,429.5" stroke="black" stroke-width="1" fill="none" />
<polyline points="495.0,425.0,497.0,423.0,499.0,421.0,511.5,408.5" stroke="black" stroke-width="1" fill="none" />
<polyline points="511.5,400.5,501.5,410.5" stroke="black" stroke-width="1" fill="none" />
<polyline points="499.5,404.5,502.0,402.0,503.0,401.0,511.5,392.5" stroke="black" stroke-width="1" fill="none" />
<polyline points="511.5,384.5,499.0,397.0" stroke="black" stroke-width="1" fill="none" />
<polyline points="495.5,392.5,511.5,376.5" stroke="black" stroke-width="1" fill="none" />
<polyline points="511.5,368.5,491.0,389.0,489.0,393.0,491.0,395.0,492.0,396.0,511.5,415.5" stroke="black" stroke-width="1" fill="none" />
<polyline points="511.5,432.5,493.0,451.0,492.5,451.5,479.0,465.0" stroke="black" stroke-width="1" fill="none" />
<polyline points="484.0,468.0,511.5,440.5" stroke="black" stroke-width="1" fill="none" />
<polyline points="511.5,456.5,456.5,511.5" stroke="black" stroke-width="1" fill="none" />
<polyline points="448.5,511.5,511.5,448.5" stroke="black" stroke-width="1" fill="none" />
<polyline points="511.5,464.5,464.5,511.5" stroke="black" stroke-width="1" fill="none" />
<polyline points="472.5,511.5,511.5,472.5" stroke="black" stroke-width="1" fill="none" />
<polyline points="511.5,504.5,504.5,511.5" stroke="black" stroke-width="1" fill="none" />
<polyline points="496.5,511.5,511.5,496.5" stroke="black" stroke-width="1" fill="none" />
<polyline points="511.5,488.5,488.5,511.5" stroke="black" stroke-width="1" fill="none" />
<polyline points="480.5,511.5,511.5,480.5" stroke="black" stroke-width="1" fill="none" />
<polyline points="483.5,468.5,440.5,511.5" stroke="black" stroke-width="1" fill="none" />
<polyline points="432.5,511.5,442.5,501.5,444.5,499.5,452.5,491.5,454.0,490.0,459.0,485.0,460.5,483.5,464.5,479.5" stroke="black" stroke-width="1" fill="none" />
<polyline points="469.0,475.0,470.5,473.5,474.0,470.0,477.5,466.5" stroke="black" stroke-width="1" fill="none" />
<polyline points="477.5,458.5,482.0,454.0,480.0,454.5,480.0,511.5" stroke="black" stroke-width="1" fill="none" />
<polyline points="452.0,484.0,451.0,485.0,450.0,486.0,447.5,488.5" stroke="black" stroke-width="1" fill="none" />
<polyline points="444.5,483.5,445.0,483.0" stroke="black" stroke-width="1" fill="none" />
<polyline points="442.5,493.5,438.5,497.5,435.0,501.0,424.5,511.5" stroke="black" stroke-width="1" fill="none" />
<polyline points="424.0,504.0,416.5,511.5" stroke="black" stroke-width="1" fill="none" />
<polyline points="416.0,504.0,417.5,502.5,420.0,500.0,422.0,498.0,426.0,502.0,427.5,500.5,429.5,498.5,431.0,497.0" stroke="black" stroke-width="1" fill="none" />
<polyline points="433.5,486.5,434.0,486.0" stroke="black" stroke-width="1" fill="none" />
<polyline points="422.5,478.5,455.5,511.5" stroke="black" stroke-width="1" fill="none" />
<polyline points="417.5,494.5,416.0,496.0" stroke="black" stroke-width="1" fill="none" />
<polyline points="412.5,507.5,408.5,511.5" stroke="black" stroke-width="1" fill="none" />
<polyline points="404.0,508.0,405.5,506.5,407.0,505.0,408.5,503.5" stroke="black" stroke-width="1" fill="none" />
<polyline points="394.0,502.0,393.5,502.5" stroke="black" stroke-width="1" fill="none" />
<polyline points="386.0,510.0,384.5,511.5" stroke="black" stroke-width="1" fill="none" />
<polyline points="367.5,511.5,357.0,501.0,356.5,500.5,349.0,493.0,347.5,491.5,347.0,491.0,344.0,488.0,348.0,484.0,348.5,484.5,350.5,486.5,352.0,483.5,352.0,511.5" stroke="black" stroke-width="1" fill="none" />
<polyline points="343.5,511.5,327.5,495.5,324.0,492.0,327.0,489.0,328.0,488.5,328.0,511.5" stroke="black" stroke-width="1" fill="none" />
<polyline points="339.0,509.0,343.0,505.0,345.5,505.5,351.5,511.5" stroke="black" stroke-width="1" fill="none" />
<polyline points="344.0,504.0,333.5,493.5,334.0,490.0,334.5,489.5,335.5,488.5,337.5,486.5,336.0,486.5,336.0,511.5" stroke="black" stroke-width="1" fill="none" />
<polyline points="337.5,502.5,340.5,499.5,345.5,497.5,359.5,511.5" stroke="black" stroke-width="1" fill="none" />
<polyline points="375.5,511.5,358.5,494.5,357.0,493.0,354.5,490.5,354.5,485.5,358.0,482.0,360.0,482.0,360.0,511.5" stroke="black" stroke-width="1" fill="none" />
<polyline points="365.0,493.0,383.5,511.5" stroke="black" stroke-width="1" fill="none" />
<polyline points="391.5,511.5,373.0,493.0,370.0,490.0,367.5,487.5,364.5,483.5,368.0,480.0,368.0,480.0,368.0,511.5" stroke="black" stroke-width="1" fill="none" />
<polyline points="364.0,492.0,363.5,491.5,362.0,490.0,361.5,489.5,358.0,486.0,355.0,483.0" stroke="black" stroke-width="1" fill="none" />
<polyline points="360.5,480.0,511.5,480.0" stroke="black" stroke-width="1" fill="none" />
<polyline points="511.5,447.5,487.0,423.0,485.5,426.5,482.5,429.5,482.5,426.5,511.5,455.5" stroke="black" stroke-width="1" fill="none" />
<polyline points="495.0,441.0,511.5,424.5,511.5,423.5,493.5,405.5" stroke="black" stroke-width="1" fill="none" />
<polyline points="492.0,412.0,511.5,431.5" stroke="black" stroke-width="1" fill="none" />
<polyline points="492.0,444.0,486.5,449.5,484.0,448.0,511.5,448.0" stroke="black" stroke-width="1" fill="none" />
<polyline points="489.5,438.5,485.5,442.5,486.5,446.5,511.5,471.5" stroke="black" stroke-width="1" fill="none" />
<polyline points="511.5,463.5,484.0,436.0,484.5,435.5,486.5,433.5" stroke="black" stroke-width="1" fill="none" />
<polyline points="480.5,432.0,511.5,432.0" stroke="black" stroke-width="1" fill="none" />
<polyline points="511.5,439.5,489.5,417.5" stroke="black" stroke-width="1" fill="none" />
<polyline points="483.5,420.5,482.0,422.0,480.0,421.0,480.0,405.5,478.5,406.5,481.0,409.0,477.5,408.0,511.5,408.0" stroke="black" stroke-width="1" fill="none" />
<polyline points="481.5,414.5,480.5,415.5,480.5,416.5,484.0,420.0,480.0,424.0,511.5,424.0" stroke="black" stroke-width="1" fill="none" />
<polyline points="511.5,391.5,482.5,362.5,484.0,364.0,483.5,364.5,486.0,362.0,511.5,336.5" stroke="black" stroke-width="1" fill="none" />
<polyline points="511.5,352.5,481.5,382.5,480.5,384.0,511.5,384.0" stroke="black" stroke-width="1" fill="none" />
<polyline points="511.5,360.5,487.5,384.5,484.5,387.5,482.5,389.5,481.5,392.0,511.5,392.0" stroke="black" stroke-width="1" fill="none" />
<polyline points="511.5,367.5,459.0,315.0,460.0,316.0,463.0,313.0,459.0,309.0,465.5,302.5,466.5,301.5,511.5,256.5" stroke="black" stroke-width="1" fill="none" />
<polyline points="511.5,312.5,489.0,335.0" stroke="black" stroke-width="1" fill="none" />
<polyline points="484.5,331.5,511.5,304.5" stroke="black" stroke-width="1" fill="none" />
<polyline points="478.0,322.0,476.0,324.0" stroke="black" stroke-width="1" fill="none" />
<polyline points="473.5,318.5,511.5,280.5" stroke="black" stroke-width="1" fill="none" />
<polyline points="511.5,272.5,473.0,311.0" stroke="black" stroke-width="1" fill="none" />
<polyline points="468.5,307.5,511.5,264.5" stroke="black" stroke-width="1" fill="none" />
<polyline points="511.5,248.5,464.0,296.0,463.5,296.5,456.5,303.5,457.5,305.5,511.5,359.5" stroke="black" stroke-width="1" fill="none" />
<polyline points="511.5,335.5,231.0,55.0,229.5,58.5,228.5,59.5,226.5,61.5,225.5,62.5,224.5,63.5,224.0,64.0" stroke="black" stroke-width="1" fill="none" />
<polyline points="229.0,67.0,230.5,65.5,231.5,64.5,234.0,62.0,236.0,60.0,238.5,57.5,239.0,57.0,240.5,55.5,238.5,54.5,511.5,327.5" stroke="black" stroke-width="1" fill="none" />
<polyline points="511.5,295.5,264.5,48.5" stroke="black" stroke-width="1" fill="none" />
<polyline points="265.5,54.5,271.5,48.5,271.0,47.0,511.5,287.5" stroke="black" stroke-width="1" fill="none" />
<polyline points="464.5,319.5,461.0,323.0,461.5,325.5,467.5,331.5,466.5,333.5,464.5,335.5,464.0,336.0,467.5,339.5,467.0,341.0,466.0,342.0,464.5,344.0,511.5,344.0" stroke="black" stroke-width="1" fill="none" />
<polyline points="511.5,319.5,245.0,53.0,248.5,55.5,250.0,54.0,251.0,51.0,511.5,311.5" stroke="black" stroke-width="1" fill="none" />
<polyline points="511.5,271.5,284.0,44.0,281.0,47.0,270.0,58.0,269.5,58.5,268.0,60.0" stroke="black" stroke-width="1" fill="none" />
<polyline points="278.5,57.5,238.5,97.5,237.5,98.5,230.5,105.5" stroke="black" stroke-width="1" fill="none" />
<polyline points="236.5,107.5,244.5,99.5,245.5,98.5,247.5,96.5,248.5,95.5,254.5,89.5,255.5,88.5,257.0,87.0,257.5,86.5,264.5,79.5,265.5,78.5,292.5,51.5,293.0,51.0,301.0,43.0,303.0,39.0,511.5,247.5" stroke="black" stroke-width="1" fill="none" />
<polyline points="511.5,240.5,454.5,297.5,452.0,300.0,447.5,304.5" stroke="black" stroke-width="1" fill="none" />
<polyline points="442.0,302.0,437.5,306.5" stroke="black" stroke-width="1" fill="none" />
<polyline points="431.5,304.5,427.5,308.5,427.0,307.0,429.5,309.5,426.0,310.0,425.5,310.5" stroke="black" stroke-width="1" fill="none" />
<polyline points="421.0,307.0,417.5,310.5,416.0,312.0,415.5,312.5,416.5,312.5,412.5,308.5,410.5,309.5,407.0,313.0,406.0,314.0,405.0,315.0,407.5,311.5,409.5,313.5" stroke="black" stroke-width="1" fill="none" />
<polyline points="411.5,307.5,410.0,306.0,409.0,305.0,398.0,294.0,397.0,293.0,396.0,292.0,395.0,291.0,172.5,68.5,177.0,71.0,179.0,69.0,179.0,67.0,423.0,311.0" stroke="black" stroke-width="1" fill="none" />
<polyline points="430.5,289.5,433.0,287.0,437.0,283.0,438.5,281.5,439.5,280.5,511.5,208.5" stroke="black" stroke-width="1" fill="none" />
<polyline points="511.5,232.5,450.0,294.0" stroke="black" stroke-width="1" fill="none" />
<polyline points="446.5,289.5,511.5,224.5" stroke="black" stroke-width="1" fill="none" />
<polyline points="511.5,216.5,443.5,284.5" stroke="black" stroke-width="1" fill="none" />
<polyline points="443.0,293.0,440.5,295.5" stroke="black" stroke-width="1" fill="none" />
<polyline points="428.5,283.5,428.0,284.0,431.0,281.0,432.5,279.5,433.0,279.0,433.5,278.5,434.5,277.5,435.5,276.5,437.0,275.0,511.5,200.5" stroke="black" stroke-width="1" fill="none" />
<polyline points="511.5,192.5,430.5,273.5,429.5,274.5,427.0,277.0,423.0,281.0,422.5,281.5,420.5,283.5,420.0,284.0" stroke="black" stroke-width="1" fill="none" />
<polyline points="410.5,285.5,410.0,286.0" stroke="black" stroke-width="1" fill="none" />
<polyline points="406.0,274.0,407.0,273.0" stroke="black" stroke-width="1" fill="none" />
<polyline points="403.5,268.5,404.0,268.0,405.0,267.0,406.0,266.0,408.0,264.0,418.5,253.5,419.0,253.0,511.5,160.5" stroke="black" stroke-width="1" fill="none" />
<polyline points="511.5,168.5,421.0,259.0,420.0,260.0,419.0,261.0,418.0,262.0,415.0,265.0" stroke="black" stroke-width="1" fill="none" />
<polyline points="402.0,262.0,511.5,152.5" stroke="black" stroke-width="1" fill="none" />
<polyline points="511.5,144.5,400.5,255.5,400.0,256.0,398.0,258.0,397.0,259.0,396.0,260.0,395.0,261.0,393.5,262.5,391.5,264.5,390.5,265.5,386.5,261.5,387.5,260.5,390.0,258.0,391.0,257.0,394.0,254.0,398.0,250.0,399.0,249.0,400.5,247.5,402.5,245.5,511.5,136.5" stroke="black" stroke-width="1" fill="none" />
<polyline points="511.5,128.5,392.0,248.0,391.0,249.0,390.0,250.0" stroke="black" stroke-width="1" fill="none" />
<polyline points="385.0,247.0,389.0,243.0,390.5,241.5,511.5,120.5" stroke="black" stroke-width="1" fill="none" />
<polyline points="511.5,112.5,395.0,229.0,394.5,229.5,379.0,245.0" stroke="black" stroke-width="1" fill="none" />
<polyline points="382.5,249.5,382.0,250.0,380.5,251.5,380.0,252.0,378.0,254.0,377.0,255.0,374.0,258.0,373.5,258.5,372.0,260.0,371.5,260.5" stroke="black" stroke-width="1" fill="none" />
<polyline points="379.0,261.0,379.5,260.5,382.5,257.5,384.0,256.0" stroke="black" stroke-width="1" fill="none" />
<polyline points="377.0,247.0,374.5,249.5" stroke="black" stroke-width="1" fill="none" />
<polyline points="373.5,242.5,377.0,239.0,378.5,237.5,381.5,234.5,384.0,232.0,511.5,104.5" stroke="black" stroke-width="1" fill="none" />
<polyline points="511.5,96.5,377.5,230.5,377.0,231.0,374.5,233.5,373.0,235.0,368.5,239.5,367.5,240.5,366.0,242.0,362.0,238.0,364.0,236.0,360.5,239.5,359.5,240.5,356.0,244.0,354.5,245.5" stroke="black" stroke-width="1" fill="none" />
<polyline points="348.0,244.0,353.0,239.0,356.0,236.0,359.5,232.5" stroke="black" stroke-width="1" fill="none" />
<polyline points="357.0,227.0,363.0,221.0,364.5,219.5,511.5,72.5" stroke="black" stroke-width="1" fill="none" />
<polyline points="511.5,64.5,352.5,223.5,356.5,227.5,351.0,233.0" stroke="black" stroke-width="1" fill="none" />
<polyline points="348.0,228.0,351.0,225.0" stroke="black" stroke-width="1" fill="none" />
<polyline points="346.5,221.5,511.5,56.5" stroke="black" stroke-width="1" fill="none" />
<polyline points="511.5,48.5,356.5,203.5,356.0,204.0,348.0,212.0,345.5,214.5,345.0,215.0,343.5,216.5,341.0,219.0" stroke="black" stroke-width="1" fill="none" />
<polyline points="344.0,224.0,342.0,226.0,346.0,230.0,345.5,230.5" stroke="black" stroke-width="1" fill="none" />
<polyline points="346.5,237.5,344.0,240.0" stroke="black" stroke-width="1" fill="none" />
<polyline points="338.5,237.5,337.5,238.5" stroke="black" stroke-width="1" fill="none" />
<polyline points="334.0,234.0,334.5,233.5,335.0,233.0,338.0,230.0" stroke="black" stroke-width="1" fill="none" />
<polyline points="326.5,225.5,323.5,228.5" stroke="black" stroke-width="1" fill="none" />
<polyline points="319.0,225.0,320.5,223.5,322.0,222.0,324.0,220.0,320.0,216.0,320.5,215.5" stroke="black" stroke-width="1" fill="none" />
<polyline points="318.0,210.0,319.5,208.5,320.0,208.0,320.5,207.5,321.5,206.5,324.5,203.5,326.0,202.0,330.0,198.0,331.5,196.5,333.0,195.0,334.0,194.0,511.5,16.5" stroke="black" stroke-width="1" fill="none" />
<polyline points="511.5,24.5,354.5,181.5,354.0,182.0,336.0,200.0,335.0,201.0,331.5,204.5,331.0,205.0,327.0,209.0" stroke="black" stroke-width="1" fill="none" />
<polyline points="316.0,212.0,314.5,213.5,313.0,215.0,312.0,216.0,308.0,212.0,308.5,211.5,311.5,208.5,312.5,207.5,314.0,206.0,319.0,201.0,321.0,199.0,322.5,197.5,323.5,196.5,326.5,193.5,329.0,191.0,331.5,188.5,332.0,188.0,511.5,8.5" stroke="black" stroke-width="1" fill="none" />
<polyline points="511.5,0.5,333.5,178.5,332.5,179.5,317.5,194.5,315.5,196.5,311.5,200.5,308.5,203.5,308.0,204.0,304.0,208.0,301.5,210.5" stroke="black" stroke-width="1" fill="none" />
<polyline points="299.0,205.0,300.5,203.5" stroke="black" stroke-width="1" fill="none" />
<polyline points="295.5,200.5,298.0,198.0,298.5,197.5,300.0,196.0,301.0,195.0,302.0,194.0,303.5,192.5,304.0,192.0,305.0,191.0,305.5,190.5,306.5,189.5,307.0,189.0,309.0,187.0,311.5,184.5,312.5,183.5,317.0,179.0,319.0,177.0,496.0,0.0,496.0,0.0,496.0,511.5" stroke="black" stroke-width="1" fill="none" />
<polyline points="467.5,460.5,471.5,456.5,472.0,456.5,472.0,511.5" stroke="black" stroke-width="1" fill="none" />
<polyline points="457.5,462.5,461.5,458.5,464.0,458.5,464.0,511.5" stroke="black" stroke-width="1" fill="none" />
<polyline points="511.5,503.5,466.5,458.5,464.0,456.0,511.5,456.0" stroke="black" stroke-width="1" fill="none" />
<polyline points="511.5,479.5,485.5,453.5" stroke="black" stroke-width="1" fill="none" />
<polyline points="478.5,454.5,511.5,487.5" stroke="black" stroke-width="1" fill="none" />
<polyline points="511.5,495.5,472.5,456.5" stroke="black" stroke-width="1" fill="none" />
<polyline points="459.0,459.0,511.5,511.5" stroke="black" stroke-width="1" fill="none" />
<polyline points="439.5,511.5,409.5,481.5,407.5,479.5,407.0,479.0,406.5,473.5,408.0,472.0,408.0,472.0,410.0,474.0,408.0,471.5,408.0,511.5" stroke="black" stroke-width="1" fill="none" />
<polyline points="399.5,511.5,374.5,486.5,375.0,481.0,378.0,478.0,376.0,478.0,376.0,511.5" stroke="black" stroke-width="1" fill="none" />
<polyline points="385.0,489.0,407.5,511.5" stroke="black" stroke-width="1" fill="none" />
<polyline points="415.5,511.5,394.5,490.5,393.0,489.0,387.5,483.5,385.0,479.0,388.5,475.5,388.0,476.0,390.0,478.0,392.0,474.0,392.0,511.5" stroke="black" stroke-width="1" fill="none" />
<polyline points="384.0,488.0,381.5,485.5,377.5,481.5,374.5,478.5,370.5,482.5,368.5,480.5,364.5,484.5,362.5,482.5" stroke="black" stroke-width="1" fill="none" />
<polyline points="344.0,484.5,344.0,511.5" stroke="black" stroke-width="1" fill="none" />
<polyline points="336.0,496.0,339.5,492.5,342.0,494.0,335.5,487.5" stroke="black" stroke-width="1" fill="none" />
<polyline points="331.0,491.0,329.0,489.0,328.5,488.0,511.5,488.0" stroke="black" stroke-width="1" fill="none" />
<polyline points="463.5,511.5,420.5,468.5,418.5,469.5,417.5,470.5,416.0,469.5,416.0,511.5" stroke="black" stroke-width="1" fill="none" />
<polyline points="423.5,511.5,396.5,484.5,394.5,482.5,393.5,481.5" stroke="black" stroke-width="1" fill="none" />
<polyline points="396.0,476.0,398.0,474.0,399.0,472.0,511.5,472.0" stroke="black" stroke-width="1" fill="none" />
<polyline points="495.5,511.5,447.0,463.0,447.5,464.5,451.5,460.5,453.0,461.0,503.5,511.5" stroke="black" stroke-width="1" fill="none" />
<polyline points="447.5,511.5,417.5,481.5,417.0,481.0,416.5,480.5,416.0,480.0,415.5,479.5,414.0,478.0,412.5,476.5" stroke="black" stroke-width="1" fill="none" />
<polyline points="419.0,475.0,422.0,478.0" stroke="black" stroke-width="1" fill="none" />
<polyline points="416.0,472.0,413.5,469.5" stroke="black" stroke-width="1" fill="none" />
<polyline points="424.0,467.5,424.0,511.5" stroke="black" stroke-width="1" fill="none" />
<polyline points="431.5,511.5,403.0,483.0" stroke="black" stroke-width="1" fill="none" />
<polyline points="397.0,477.0,394.0,474.0" stroke="black" stroke-width="1" fill="none" />
<polyline points="400.0,473.0,400.0,511.5" stroke="black" stroke-width="1" fill="none" />
<polyline points="384.5,480.5,382.0,478.0,384.0,476.0,384.0,511.5" stroke="black" stroke-width="1" fill="none" />
<polyline points="404.5,476.5,401.5,473.5" stroke="black" stroke-width="1" fill="none" />
<polyline points="427.5,468.5,428.0,468.0,427.5,467.5,429.5,469.5,432.0,472.0,471.5,511.5" stroke="black" stroke-width="1" fill="none" />
<polyline points="479.5,511.5,438.0,470.0,437.5,466.5,438.0,466.0,439.5,464.5,441.0,463.0,440.0,463.0,440.0,511.5" stroke="black" stroke-width="1" fill="none" />
<polyline points="436.0,468.0,433.5,465.5,432.0,465.0,432.0,511.5" stroke="black" stroke-width="1" fill="none" />
<polyline points="456.0,511.5,456.0,460.5" stroke="black" stroke-width="1" fill="none" />
<polyline points="448.0,461.5,448.0,511.5" stroke="black" stroke-width="1" fill="none" />
<polyline points="487.5,511.5,439.5,463.5,435.5,464.0,511.5,464.0" stroke="black" stroke-width="1" fill="none" />
<polyline points="511.5,496.0,293.0,496.0,296.0,495.5,296.0,511.5" stroke="black" stroke-width="1" fill="none" />
<polyline points="287.5,511.5,282.0,506.0" stroke="black" stroke-width="1" fill="none" />
<polyline points="279.5,511.5,274.5,506.5,273.0,503.0,274.5,501.5,272.0,501.5,272.0,511.5,271.5,511.5,268.0,508.0,266.0,506.0,264.0,504.0,264.0,503.5,264.0,511.5,263.5,511.5,262.0,510.0,261.5,506.5,264.5,503.5" stroke="black" stroke-width="1" fill="none" />
<polyline points="270.0,502.0,272.5,504.5" stroke="black" stroke-width="1" fill="none" />
<polyline points="277.0,501.0,279.5,503.5,280.0,499.5,280.0,511.5" stroke="black" stroke-width="1" fill="none" />
<polyline points="288.0,504.0,295.5,511.5" stroke="black" stroke-width="1" fill="none" />
<polyline points="303.5,511.5,294.0,502.0,292.0,500.0,289.5,497.5,288.0,497.5,288.0,511.5" stroke="black" stroke-width="1" fill="none" />
<polyline points="285.5,501.5,283.5,499.5,285.0,496.0,286.0,496.0" stroke="black" stroke-width="1" fill="none" />
<polyline points="296.5,496.5,300.0,500.0,300.5,500.5,302.0,502.0,304.0,504.0,311.5,511.5" stroke="black" stroke-width="1" fill="none" />
<polyline points="319.5,511.5,309.0,501.0,305.5,497.5,303.5,495.5,304.0,494.5,304.0,511.5" stroke="black" stroke-width="1" fill="none" />
<polyline points="314.5,498.5,317.0,501.0,318.5,502.5,327.5,511.5" stroke="black" stroke-width="1" fill="none" />
<polyline points="335.5,511.5,320.5,496.5,319.5,495.5,316.0,492.0,317.0,491.0,317.5,490.5,320.0,491.0,320.0,511.5" stroke="black" stroke-width="1" fill="none" />
<polyline points="314.0,494.0,314.5,493.5,312.0,493.0,312.0,511.5" stroke="black" stroke-width="1" fill="none" />
<polyline points="311.5,495.5,309.0,493.0" stroke="black" stroke-width="1" fill="none" />
<polyline points="323.0,491.0,325.0,493.0,326.5,488.0,322.5,488.0" stroke="black" stroke-width="1" fill="none" />
<polyline points="343.0,487.0,345.0,489.0" stroke="black" stroke-width="1" fill="none" />
<polyline points="260.5,508.5,257.5,505.5,256.0,505.0,256.0,511.5,251.5,508.5,254.5,505.5,255.0,504.0,511.5,504.0" stroke="black" stroke-width="1" fill="none" />
<polyline points="504.0,511.5,504.0,0.0,504.0,0.0,511.5,7.5" stroke="black" stroke-width="1" fill="none" />
<polyline points="504.0,0.0,332.0,172.0,331.5,172.5,320.5,183.5,318.5,185.5,316.5,187.5,316.0,188.0,310.5,193.5" stroke="black" stroke-width="1" fill="none" />
<polyline points="302.5,185.5,488.0,0.0,488.0,0.0,488.0,511.5" stroke="black" stroke-width="1" fill="none" />
<polyline points="482.0,440.0,511.5,440.0" stroke="black" stroke-width="1" fill="none" />
<polyline points="511.5,416.0,479.0,416.0" stroke="black" stroke-width="1" fill="none" />
<polyline points="479.0,400.0,511.5,400.0" stroke="black" stroke-width="1" fill="none" />
<polyline points="511.5,375.5,480.5,344.5" stroke="black" stroke-width="1" fill="none" />
<polyline points="484.0,356.0,511.5,383.5" stroke="black" stroke-width="1" fill="none" />
<polyline points="511.5,399.5,479.0,367.0,480.0,368.0,478.0,370.0,475.5,368.0,511.5,368.0" stroke="black" stroke-width="1" fill="none" />
<polyline points="511.5,343.5,225.0,57.0" stroke="black" stroke-width="1" fill="none" />
<polyline points="219.0,59.0,511.5,351.5" stroke="black" stroke-width="1" fill="none" />
<polyline points="478.0,366.0,477.0,365.0,475.5,363.5,475.0,363.0,474.5,360.0,511.5,360.0" stroke="black" stroke-width="1" fill="none" />
<polyline points="511.5,376.0,478.0,376.0" stroke="black" stroke-width="1" fill="none" />
<polyline points="482.5,386.5,485.5,389.5" stroke="black" stroke-width="1" fill="none" />
<polyline points="482.5,394.5,484.5,396.5" stroke="black" stroke-width="1" fill="none" />
<polyline points="480.0,381.5,480.0,0.0,480.0,0.0,511.5,31.5" stroke="black" stroke-width="1" fill="none" />
<polyline points="511.5,15.5,496.0,0.0" stroke="black" stroke-width="1" fill="none" />
<polyline points="488.0,0.0,511.5,23.5" stroke="black" stroke-width="1" fill="none" />
<polyline points="480.0,0.0,320.5,159.5,318.0,162.0,315.5,164.5,314.5,165.5,300.0,180.0,297.5,182.5,296.5,183.5" stroke="black" stroke-width="1" fill="none" />
<polyline points="301.5,186.5,299.0,189.0,296.5,191.5,294.0,194.0,292.0,196.0,291.5,196.5,291.0,197.0,289.0,199.0" stroke="black" stroke-width="1" fill="none" />
<polyline points="292.5,203.5,292.0,204.0" stroke="black" stroke-width="1" fill="none" />
<polyline points="295.5,208.5,295.0,209.0" stroke="black" stroke-width="1" fill="none" />
<polyline points="284.5,219.5,284.0,220.0" stroke="black" stroke-width="1" fill="none" />
<polyline points="283.5,228.5,279.0,233.0" stroke="black" stroke-width="1" fill="none" />
<polyline points="277.0,227.0,281.5,222.5" stroke="black" stroke-width="1" fill="none" />
<polyline points="275.0,221.0,281.0,215.0" stroke="black" stroke-width="1" fill="none" />
<polyline points="275.0,213.0,279.5,208.5" stroke="black" stroke-width="1" fill="none" />
<polyline points="277.5,202.5,271.0,209.0" stroke="black" stroke-width="1" fill="none" />
<polyline points="271.0,201.0,277.0,195.0" stroke="black" stroke-width="1" fill="none" />
<polyline points="281.5,198.5,284.5,195.5" stroke="black" stroke-width="1" fill="none" />
<polyline points="282.5,189.5,285.0,187.0,285.5,186.5,288.5,183.5,291.0,181.0,304.5,167.5,306.0,166.0,469.5,2.5,470.0,2.0,472.0,0.0,472.0,0.0,472.0,347.5" stroke="black" stroke-width="1" fill="none" />
<polyline points="467.0,352.0,511.5,352.0" stroke="black" stroke-width="1" fill="none" />
<polyline points="471.0,360.0,470.0,360.0" stroke="black" stroke-width="1" fill="none" />
<polyline points="464.0,338.0,464.0,0.0,464.0,0.0,511.5,47.5" stroke="black" stroke-width="1" fill="none" />
<polyline points="511.5,39.5,472.0,0.0" stroke="black" stroke-width="1" fill="none" />
<polyline points="464.0,0.0,462.0,2.0,458.0,6.0,312.5,151.5,312.0,152.0,303.5,160.5,303.0,161.0,302.5,161.5,300.5,163.5,293.0,171.0,291.5,172.5,280.0,184.0,279.5,184.5,279.0,185.0,276.0,188.0,270.0,194.0,268.5,195.5,266.0,198.0" stroke="black" stroke-width="1" fill="none" />
<polyline points="264.0,192.0,266.0,190.0,268.0,188.0,284.5,171.5,285.5,170.5,287.5,168.5,291.5,164.5,309.5,146.5,310.0,146.0,446.5,9.5,447.5,8.5,449.5,6.5,450.5,5.5,452.0,4.0,454.5,1.5,455.5,0.5,456.0,0.0,456.0,306.0,457.0,305.0,212.0,60.0" stroke="black" stroke-width="1" fill="none" />
<polyline points="216.5,63.5,213.5,66.5,211.0,69.0,210.5,69.5,208.0,72.0,205.0,75.0" stroke="black" stroke-width="1" fill="none" />
<polyline points="211.0,77.0,215.5,72.5" stroke="black" stroke-width="1" fill="none" />
<polyline points="223.5,72.5,226.5,69.5" stroke="black" stroke-width="1" fill="none" />
<polyline points="229.0,75.0,237.0,67.0,239.0,65.0,247.5,56.5" stroke="black" stroke-width="1" fill="none" />
<polyline points="250.5,61.5,254.0,58.0,255.0,57.0,257.0,55.0,258.0,54.0,261.0,51.0,258.5,50.5,511.5,303.5" stroke="black" stroke-width="1" fill="none" />
<polyline points="465.5,326.5,463.5,328.5,459.0,328.0,511.5,328.0" stroke="black" stroke-width="1" fill="none" />
<polyline points="511.5,279.5,278.0,46.0,276.0,44.0,275.5,43.5" stroke="black" stroke-width="1" fill="none" />
<polyline points="272.5,31.5,273.5,30.5,272.0,30.0,272.0,343.5,273.5,342.5,276.5,339.5,275.0,339.0,278.5,342.5,283.5,340.5,286.0,338.0,289.0,337.0,291.0,339.0,293.5,338.5,296.5,335.5,295.0,335.0,298.0,338.0" stroke="black" stroke-width="1" fill="none" />
<polyline points="301.5,333.5,304.5,336.5,304.0,336.0,305.5,334.5,308.5,332.5,310.5,334.5,314.0,334.0,316.0,332.0,315.0,331.0,317.5,333.5" stroke="black" stroke-width="1" fill="none" />
<polyline points="321.0,329.0,324.5,332.5,324.0,332.0,326.5,329.5,328.5,328.5,330.5,330.5,334.5,329.5,336.5,327.5,337.0,329.0,334.5,326.5" stroke="black" stroke-width="1" fill="none" />
<polyline points="341.0,325.0,344.0,328.0,344.5,327.5,346.0,326.0,348.5,324.5,350.0,326.0,354.5,325.5,356.5,323.5,357.0,325.0,354.5,322.5" stroke="black" stroke-width="1" fill="none" />
<polyline points="360.5,320.5,364.0,324.0,364.5,323.5,367.0,321.0,368.0,320.0,370.0,322.0,375.0,321.0,378.5,317.5,380.5,316.5,383.5,319.5,385.0,319.0,386.5,317.5,387.0,317.0,388.5,315.5,388.0,316.0,390.0,318.0,395.0,317.0,397.0,315.0,397.5,314.5,399.5,312.5,400.0,312.0,403.5,315.5" stroke="black" stroke-width="1" fill="none" />
<polyline points="397.5,309.5,395.5,307.5,394.5,306.5,390.0,302.0,386.0,298.0,159.5,71.5,159.0,73.0,157.5,74.5,154.0,78.0,127.5,104.5,126.0,106.0,0.0,232.0,0.0,232.0,511.5,232.0" stroke="black" stroke-width="1" fill="none" />
<polyline points="511.5,135.5,382.5,6.5,384.0,5.5,384.0,320.0" stroke="black" stroke-width="1" fill="none" />
<polyline points="377.0,321.0,373.5,317.5" stroke="black" stroke-width="1" fill="none" />
<polyline points="378.0,306.0,377.5,305.5" stroke="black" stroke-width="1" fill="none" />
<polyline points="388.5,308.5,152.5,72.5" stroke="black" stroke-width="1" fill="none" />
<polyline points="146.0,74.0,367.0,295.0,368.5,296.5,375.5,303.5" stroke="black" stroke-width="1" fill="none" />
<polyline points="368.0,304.0,139.5,75.5,138.5,77.5,137.5,78.5,136.0,80.0,132.0,84.0,131.0,85.0,112.0,104.0" stroke="black" stroke-width="1" fill="none" />
<polyline points="117.0,107.0,122.0,102.0,123.0,101.0,145.0,79.0,146.0,78.0,147.0,77.0" stroke="black" stroke-width="1" fill="none" />
<polyline points="157.0,83.0,158.0,82.0,161.0,79.0,168.5,71.5,166.0,70.0,401.5,305.5" stroke="black" stroke-width="1" fill="none" />
<polyline points="393.5,313.5,397.0,317.0" stroke="black" stroke-width="1" fill="none" />
<polyline points="424.5,304.5,185.5,65.5,189.5,66.5,185.0,71.0" stroke="black" stroke-width="1" fill="none" />
<polyline points="190.5,73.5,192.0,72.0,193.0,71.0,194.5,69.5,198.0,66.0,199.5,64.5,199.5,63.5,443.0,307.0" stroke="black" stroke-width="1" fill="none" />
<polyline points="449.0,305.0,205.5,61.5,206.5,65.5,210.0,62.0" stroke="black" stroke-width="1" fill="none" />
<polyline points="205.5,66.5,204.0,68.0,201.0,71.0,198.5,73.5,198.0,74.0,194.0,78.0,191.0,81.0,190.5,81.5,186.5,77.5,189.0,75.0" stroke="black" stroke-width="1" fill="none" />
<polyline points="182.0,74.0,180.5,75.5,180.0,76.0,178.5,77.5,176.0,80.0,171.0,85.0,175.0,89.0,176.0,88.0,177.5,86.5,180.0,84.0,184.0,88.0,186.0,86.0,183.5,88.5,183.0,89.0,181.0,91.0,180.5,91.5,179.0,93.0,178.5,93.5,178.0,94.0,175.0,97.0,172.5,99.5,172.0,100.0,171.0,101.0,169.0,103.0,168.5,103.5,168.0,104.0,167.5,104.5,141.5,130.5" stroke="black" stroke-width="1" fill="none" />
<polyline points="147.0,133.0,161.5,118.5,163.0,117.0,174.5,105.5,175.0,105.0,181.5,98.5,182.0,98.0,185.5,94.5,189.0,91.0,192.5,87.5" stroke="black" stroke-width="1" fill="none" />
<polyline points="196.0,92.0,198.0,90.0,201.0,87.0,201.5,86.5,203.5,84.5,204.0,84.0" stroke="black" stroke-width="1" fill="none" />
<polyline points="210.0,86.0,212.0,84.0" stroke="black" stroke-width="1" fill="none" />
<polyline points="219.5,84.5,223.0,81.0,225.0,79.0,226.0,78.0" stroke="black" stroke-width="1" fill="none" />
<polyline points="230.5,81.5,228.0,84.0,232.0,88.0,231.0,89.0,230.5,89.5,230.0,90.0,234.0,94.0,240.5,87.5,241.5,86.5,243.5,84.5,244.0,84.0,251.0,77.0,252.5,75.5,267.0,61.0" stroke="black" stroke-width="1" fill="none" />
<polyline points="279.5,56.5,291.0,45.0,292.0,44.0,292.5,43.5,288.5,40.5,511.5,263.5" stroke="black" stroke-width="1" fill="none" />
<polyline points="511.5,191.5,337.0,17.0,336.0,16.0,336.0,330.5" stroke="black" stroke-width="1" fill="none" />
<polyline points="340.0,316.0,339.5,315.5" stroke="black" stroke-width="1" fill="none" />
<polyline points="346.0,314.0,346.5,314.5" stroke="black" stroke-width="1" fill="none" />
<polyline points="352.0,312.0,354.0,314.0" stroke="black" stroke-width="1" fill="none" />
<polyline points="357.5,309.5,355.5,307.5" stroke="black" stroke-width="1" fill="none" />
<polyline points="360.0,304.0,360.5,304.5,361.5,305.5,363.5,307.5" stroke="black" stroke-width="1" fill="none" />
<polyline points="359.0,303.0,347.0,291.0,346.5,290.5,132.5,76.5,128.5,79.5,60.0,148.0,59.0,149.0,0.0,208.0,0.0,208.0,511.5,208.0" stroke="black" stroke-width="1" fill="none" />
<polyline points="511.5,95.5,416.0,0.0,416.0,0.0,416.0,313.5" stroke="black" stroke-width="1" fill="none" />
<polyline points="436.5,308.5,192.0,64.0" stroke="black" stroke-width="1" fill="none" />
<polyline points="194.5,50.5,193.0,49.0,192.0,48.0,192.0,362.5,190.5,361.5,194.0,358.0,196.0,356.0,200.0,360.0,200.5,359.5,201.0,359.0,203.0,357.0,204.5,355.5,203.5,355.5,206.0,358.0" stroke="black" stroke-width="1" fill="none" />
<polyline points="210.5,354.5,212.5,356.5,212.5,355.5,215.0,353.0,216.0,352.0,220.0,356.0,222.5,353.5,225.0,351.0,223.5,351.5,226.0,354.0,230.0,350.0,232.0,352.0,233.0,351.0,236.0,348.0,236.0,348.0,239.5,351.5,243.0,349.0,246.0,346.0,243.0,347.0,245.5,349.5,249.5,345.5,251.5,347.5,253.0,347.0,256.0,344.0,255.5,343.5,259.0,347.0,263.5,344.5,266.0,342.0,269.5,341.5,271.0,343.0" stroke="black" stroke-width="1" fill="none" />
<polyline points="265.5,345.5,262.5,342.5" stroke="black" stroke-width="1" fill="none" />
<polyline points="263.5,327.5,261.5,325.5,258.0,322.0,254.0,318.0" stroke="black" stroke-width="1" fill="none" />
<polyline points="249.0,321.0,251.5,323.5,252.5,324.5,254.0,326.0" stroke="black" stroke-width="1" fill="none" />
<polyline points="245.0,325.0,244.0,324.0,242.5,322.5,240.5,320.5" stroke="black" stroke-width="1" fill="none" />
<polyline points="238.0,326.0,241.0,329.0" stroke="black" stroke-width="1" fill="none" />
<polyline points="234.5,330.5,233.5,329.5,233.0,329.0,231.5,327.5" stroke="black" stroke-width="1" fill="none" />
<polyline points="227.0,331.0,226.5,330.5,229.0,333.0,230.0,334.0,231.5,335.5,232.5,336.5,228.5,340.5,227.0,339.0,223.5,335.5,223.0,335.0,221.0,333.0,217.5,329.5" stroke="black" stroke-width="1" fill="none" />
<polyline points="215.0,335.0,0.0,120.0,0.0,120.0,511.5,120.0" stroke="black" stroke-width="1" fill="none" />
<polyline points="436.5,11.5,320.5,127.5,320.0,128.0,304.0,144.0,303.5,144.5,286.5,161.5,286.0,162.0,280.5,167.5,280.0,168.0,279.5,168.5,277.0,171.0,255.5,192.5" stroke="black" stroke-width="1" fill="none" />
<polyline points="259.0,197.0,263.0,193.0" stroke="black" stroke-width="1" fill="none" />
<polyline points="261.0,203.0,260.0,204.0" stroke="black" stroke-width="1" fill="none" />
<polyline points="255.0,201.0,254.0,202.0,250.0,198.0,251.0,197.0" stroke="black" stroke-width="1" fill="none" />
<polyline points="249.5,190.5,262.5,177.5,266.0,174.0,426.0,14.0,430.0,10.0,430.5,9.5" stroke="black" stroke-width="1" fill="none" />
<polyline points="432.0,0.0,432.0,309.5" stroke="black" stroke-width="1" fill="none" />
<polyline points="448.0,306.5,448.0,0.0,448.0,0.0,511.5,63.5" stroke="black" stroke-width="1" fill="none" />
<polyline points="511.5,55.5,456.0,0.0" stroke="black" stroke-width="1" fill="none" />
<polyline points="448.0,0.0,447.0,1.0" stroke="black" stroke-width="1" fill="none" />
<polyline points="442.5,5.5,441.5,6.5" stroke="black" stroke-width="1" fill="none" />
<polyline points="440.0,0.0,440.0,307.5" stroke="black" stroke-width="1" fill="none" />
<polyline points="424.0,311.5,424.0,0.0,424.0,0.0,511.5,87.5" stroke="black" stroke-width="1" fill="none" />
<polyline points="511.5,71.5,440.0,0.0" stroke="black" stroke-width="1" fill="none" />
<polyline points="432.0,0.0,511.5,79.5" stroke="black" stroke-width="1" fill="none" />
<polyline points="416.0,16.0,293.5,138.5,292.5,139.5,285.0,147.0,284.0,148.0,281.0,151.0,279.5,152.5,277.5,154.5,276.5,155.5,276.0,156.0,272.5,159.5,271.5,160.5,270.5,161.5,264.0,168.0,262.0,170.0,260.0,172.0,257.5,174.5,257.0,175.0,256.5,175.5,256.0,176.0,255.5,176.5,253.5,178.5,253.0,179.0,251.5,180.5,249.5,182.5,239.5,192.5,243.5,196.5,245.0,195.0" stroke="black" stroke-width="1" fill="none" />
<polyline points="245.0,203.0,244.0,204.0" stroke="black" stroke-width="1" fill="none" />
<polyline points="247.5,208.5,248.5,207.5,247.0,209.0,245.0,211.0" stroke="black" stroke-width="1" fill="none" />
<polyline points="242.5,221.5,241.5,222.5,239.5,224.5,239.0,225.0,236.5,227.5,235.5,228.5" stroke="black" stroke-width="1" fill="none" />
<polyline points="240.0,232.0,240.5,231.5,243.0,229.0,244.0,228.0" stroke="black" stroke-width="1" fill="none" />
<polyline points="249.0,223.0,250.0,222.0" stroke="black" stroke-width="1" fill="none" />
<polyline points="255.0,225.0,255.5,224.5,256.5,223.5,258.0,222.0,261.0,219.0,262.5,217.5" stroke="black" stroke-width="1" fill="none" />
<polyline points="260.0,212.0,260.5,211.5" stroke="black" stroke-width="1" fill="none" />
<polyline points="272.0,224.0,271.5,224.5" stroke="black" stroke-width="1" fill="none" />
<polyline points="264.5,231.5,264.0,232.0" stroke="black" stroke-width="1" fill="none" />
<polyline points="267.5,236.5,268.5,235.5" stroke="black" stroke-width="1" fill="none" />
<polyline points="261.0,243.0,260.5,243.5" stroke="black" stroke-width="1" fill="none" />
<polyline points="256.5,231.5,257.5,230.5" stroke="black" stroke-width="1" fill="none" />
<polyline points="236.5,219.5,236.0,220.0,232.0,224.0,230.5,225.5" stroke="black" stroke-width="1" fill="none" />
<polyline points="231.5,216.5,234.0,214.0" stroke="black" stroke-width="1" fill="none" />
<polyline points="232.0,208.0,232.5,207.5" stroke="black" stroke-width="1" fill="none" />
<polyline points="231.5,200.5,232.5,199.5" stroke="black" stroke-width="1" fill="none" />
<polyline points="229.5,194.5,237.5,186.5,238.0,186.0,239.5,184.5,240.5,183.5,245.5,178.5,248.5,175.5,249.0,175.0,250.5,173.5,252.0,172.0,253.0,171.0,254.0,170.0,255.5,168.5,256.5,167.5" stroke="black" stroke-width="1" fill="none" />
<polyline points="253.0,163.0,254.5,161.5,255.5,160.5,258.0,158.0,259.0,157.0,267.0,149.0,269.0,147.0,269.5,146.5,270.5,145.5,283.0,133.0,284.0,132.0,395.5,20.5" stroke="black" stroke-width="1" fill="none" />
<polyline points="405.5,18.5,270.5,153.5,269.0,155.0,268.5,155.5,268.0,156.0,261.0,163.0" stroke="black" stroke-width="1" fill="none" />
<polyline points="252.5,163.5,250.5,165.5,249.5,166.5,243.0,173.0,241.5,174.5,238.5,177.5,237.5,178.5,236.5,179.5,234.0,182.0,233.5,182.5,233.0,183.0,231.5,184.5,229.0,187.0,227.5,188.5,226.5,189.5,218.0,198.0,214.5,201.5,214.0,202.0" stroke="black" stroke-width="1" fill="none" />
<polyline points="209.0,199.0,220.5,187.5" stroke="black" stroke-width="1" fill="none" />
<polyline points="216.0,184.0,221.0,179.0,224.0,176.0,224.5,175.5,225.0,175.0,226.0,174.0,230.0,170.0,230.5,169.5,231.5,168.5,234.5,165.5,236.5,163.5,237.0,163.0,238.5,161.5,251.0,149.0,252.0,148.0,266.0,134.0,267.5,132.5,271.0,129.0,271.5,128.5,374.5,25.5" stroke="black" stroke-width="1" fill="none" />
<polyline points="385.5,22.5,280.0,128.0,278.5,129.5,267.5,140.5,265.5,142.5,259.0,149.0,258.0,150.0,252.5,155.5,250.0,158.0,249.0,159.0,247.0,161.0,246.5,161.5,243.0,165.0,240.0,168.0,238.0,170.0,237.0,171.0,235.0,173.0,234.0,174.0,231.0,177.0,229.5,178.5,228.0,180.0,226.0,182.0" stroke="black" stroke-width="1" fill="none" />
<polyline points="215.5,184.5,207.5,192.5,207.0,193.0,199.5,200.5,198.5,201.5,197.5,202.5,196.0,204.0,194.0,206.0,193.5,206.5,187.0,213.0,191.0,217.0,193.5,214.5,195.0,213.0,197.0,211.0,200.5,207.5,205.5,202.5" stroke="black" stroke-width="1" fill="none" />
<polyline points="202.5,213.5,202.0,214.0,199.5,216.5,198.5,217.5" stroke="black" stroke-width="1" fill="none" />
<polyline points="202.0,222.0,203.5,220.5,207.0,217.0,209.5,214.5" stroke="black" stroke-width="1" fill="none" />
<polyline points="214.0,218.0,212.5,219.5" stroke="black" stroke-width="1" fill="none" />
<polyline points="216.0,232.0,215.5,232.5" stroke="black" stroke-width="1" fill="none" />
<polyline points="211.0,237.0,210.0,238.0,206.0,242.0,205.0,243.0,209.0,247.0,210.0,246.0,208.0,248.0,207.5,248.5,205.0,251.0,204.5,251.5" stroke="black" stroke-width="1" fill="none" />
<polyline points="199.0,249.0,198.5,249.5" stroke="black" stroke-width="1" fill="none" />
<polyline points="195.0,245.0,196.5,243.5,198.5,241.5,199.0,241.0,202.0,238.0,203.0,237.0,203.5,236.5,205.5,234.5,206.5,233.5,208.5,231.5" stroke="black" stroke-width="1" fill="none" />
<polyline points="200.0,232.0,197.5,234.5,194.5,237.5,194.0,238.0,191.0,241.0,190.0,242.0" stroke="black" stroke-width="1" fill="none" />
<polyline points="192.0,248.0,191.0,249.0,187.5,252.5,187.0,253.0,185.5,254.5,182.5,257.5,186.5,261.5,187.0,261.0,190.0,258.0,191.0,257.0" stroke="black" stroke-width="1" fill="none" />
<polyline points="183.0,249.0,184.5,247.5,181.0,251.0,179.0,253.0,178.5,253.5,177.0,255.0,176.5,255.5,175.5,256.5,171.5,252.5,168.5,255.5,167.5,256.5,166.0,258.0" stroke="black" stroke-width="1" fill="none" />
<polyline points="170.5,261.5,168.0,264.0" stroke="black" stroke-width="1" fill="none" />
<polyline points="172.5,267.5,173.5,266.5" stroke="black" stroke-width="1" fill="none" />
<polyline points="176.0,272.0,175.5,272.5,174.5,273.5,173.5,274.5,170.0,278.0,169.5,278.5,166.5,281.5,164.0,284.0,163.5,284.5,162.5,285.5,160.5,287.5,158.5,289.5" stroke="black" stroke-width="1" fill="none" />
<polyline points="155.0,285.0,153.5,286.5,155.5,284.5,159.5,280.5,162.0,278.0,165.0,275.0,166.0,274.0,167.0,273.0,168.5,271.5,169.0,271.0" stroke="black" stroke-width="1" fill="none" />
<polyline points="163.5,268.5,167.0,265.0" stroke="black" stroke-width="1" fill="none" />
<polyline points="164.0,260.0,160.5,263.5,160.0,264.0,159.5,264.5,158.5,265.5,157.5,266.5,156.0,268.0,129.5,294.5,129.0,295.0,123.0,301.0,122.5,301.5,10.5,413.5,8.5,415.5,6.5,417.5" stroke="black" stroke-width="1" fill="none" />
<polyline points="10.0,422.0,11.0,421.0,13.0,419.0,17.0,415.0,18.0,414.0,116.0,316.0,116.5,315.5,137.0,295.0,137.5,294.5,141.5,290.5,142.0,290.0,144.5,287.5,146.0,286.0,148.5,283.5,150.5,281.5,159.0,273.0,159.5,272.5,162.0,270.0" stroke="black" stroke-width="1" fill="none" />
<polyline points="153.5,262.5,157.5,258.5,160.0,256.0,164.0,252.0,165.5,250.5,168.0,248.0,169.0,247.0,171.5,244.5,175.5,240.5,176.0,240.0,177.5,238.5,183.0,233.0,184.5,231.5,186.5,229.5,187.5,228.5,189.0,227.0,190.5,225.5,192.0,224.0,192.5,223.5,193.5,222.5" stroke="black" stroke-width="1" fill="none" />
<polyline points="194.0,230.0,192.0,232.0,191.5,232.5,190.5,233.5" stroke="black" stroke-width="1" fill="none" />
<polyline points="183.0,241.0,182.0,242.0,180.5,243.5,180.0,244.0,177.0,247.0,176.0,248.0" stroke="black" stroke-width="1" fill="none" />
<polyline points="168.5,239.5,172.5,235.5,173.5,234.5,175.0,233.0,175.5,232.5,181.0,227.0,182.5,225.5,185.5,222.5" stroke="black" stroke-width="1" fill="none" />
<polyline points="182.5,217.5,186.0,214.0" stroke="black" stroke-width="1" fill="none" />
<polyline points="181.5,218.5,178.5,221.5" stroke="black" stroke-width="1" fill="none" />
<polyline points="176.5,215.5,184.5,207.5,185.5,206.5,188.5,203.5,189.0,203.0,199.0,193.0,202.0,190.0,205.0,187.0,206.5,185.5,207.5,184.5,209.5,182.5,212.5,179.5,213.0,179.0,214.5,177.5,216.5,175.5,218.0,174.0,220.5,171.5,223.5,168.5,224.5,167.5,228.0,164.0,228.5,163.5,229.0,163.0,233.0,159.0,233.5,158.5,235.0,157.0,238.0,154.0,240.0,152.0,364.5,27.5" stroke="black" stroke-width="1" fill="none" />
<polyline points="354.5,29.5,262.5,121.5,262.0,122.0,251.5,132.5,251.0,133.0,243.0,141.0,239.5,144.5,235.0,149.0,234.5,149.5,231.5,152.5,230.5,153.5,220.0,164.0,217.5,166.5,214.0,170.0,213.0,171.0,208.5,175.5,208.0,176.0,207.0,177.0,205.5,178.5,202.5,181.5,202.0,182.0,197.0,187.0,196.0,188.0,194.5,189.5,194.0,190.0,190.5,193.5,189.5,194.5,178.5,205.5,177.5,206.5,177.0,207.0,173.0,211.0,167.0,217.0,166.5,217.5,163.0,221.0" stroke="black" stroke-width="1" fill="none" />
<polyline points="168.5,223.5,170.5,221.5,172.0,220.0,175.0,217.0" stroke="black" stroke-width="1" fill="none" />
<polyline points="174.0,226.0,173.5,226.5,170.0,230.0,168.5,231.5,167.5,232.5,166.5,233.5,165.5,234.5,164.5,235.5,164.0,236.0,157.0,243.0" stroke="black" stroke-width="1" fill="none" />
<polyline points="160.5,247.5,154.5,253.5,152.5,255.5,150.0,258.0,149.0,259.0,148.0,260.0" stroke="black" stroke-width="1" fill="none" />
<polyline points="151.5,264.5,140.5,275.5,140.0,276.0,137.0,279.0,136.0,280.0,135.5,280.5,134.5,281.5,123.5,292.5,122.0,294.0,108.5,307.5" stroke="black" stroke-width="1" fill="none" />
<polyline points="124.5,315.5,132.0,308.0,133.0,307.0,139.0,301.0,142.5,297.5,144.0,296.0,145.5,294.5,146.0,294.0,147.0,293.0,148.5,291.5,149.0,291.0,150.5,289.5" stroke="black" stroke-width="1" fill="none" />
<polyline points="153.5,294.5,151.0,297.0,150.0,298.0,149.0,299.0,147.0,301.0,146.0,302.0" stroke="black" stroke-width="1" fill="none" />
<polyline points="148.5,307.5,145.0,311.0,142.0,314.0,136.0,320.0,134.5,321.5,134.0,322.0,138.0,326.0,143.5,320.5,145.5,318.5,146.5,317.5" stroke="black" stroke-width="1" fill="none" />
<polyline points="153.5,318.5,155.5,316.5" stroke="black" stroke-width="1" fill="none" />
<polyline points="157.0,307.0,158.5,305.5" stroke="black" stroke-width="1" fill="none" />
<polyline points="156.5,299.5,157.5,298.5" stroke="black" stroke-width="1" fill="none" />
<polyline points="170.0,294.0,172.0,292.0,175.5,288.5,176.0,288.0,178.5,285.5,179.0,285.0" stroke="black" stroke-width="1" fill="none" />
<polyline points="182.5,289.5,183.5,288.5,187.5,284.5,188.5,283.5,192.0,280.0,193.0,279.0" stroke="black" stroke-width="1" fill="none" />
<polyline points="188.0,276.0,186.0,278.0" stroke="black" stroke-width="1" fill="none" />
<polyline points="171.5,284.5,171.0,285.0" stroke="black" stroke-width="1" fill="none" />
<polyline points="178.5,293.5,177.5,294.5" stroke="black" stroke-width="1" fill="none" />
<polyline points="182.0,298.0,182.5,297.5" stroke="black" stroke-width="1" fill="none" />
<polyline points="180.5,307.5,179.5,308.5" stroke="black" stroke-width="1" fill="none" />
<polyline points="172.0,316.0,171.0,317.0" stroke="black" stroke-width="1" fill="none" />
<polyline points="168.0,312.0,169.0,311.0" stroke="black" stroke-width="1" fill="none" />
<polyline points="172.0,300.0,172.5,299.5" stroke="black" stroke-width="1" fill="none" />
<polyline points="193.0,303.0,194.0,302.0" stroke="black" stroke-width="1" fill="none" />
<polyline points="218.0,322.0,223.0,327.0,223.5,327.5,224.5,328.5" stroke="black" stroke-width="1" fill="none" />
<polyline points="211.5,339.5,213.5,341.5" stroke="black" stroke-width="1" fill="none" />
<polyline points="207.0,343.0,206.0,342.0,205.0,341.0,204.5,340.5,203.0,339.0,0.0,136.0,0.0,136.0,511.5,136.0" stroke="black" stroke-width="1" fill="none" />
<polyline points="422.0,2.0,422.5,1.5" stroke="black" stroke-width="1" fill="none" />
<polyline points="408.0,0.0,408.0,314.5" stroke="black" stroke-width="1" fill="none" />
<polyline points="399.0,273.0,401.0,271.0" stroke="black" stroke-width="1" fill="none" />
<polyline points="400.0,264.0,401.0,263.0" stroke="black" stroke-width="1" fill="none" />
<polyline points="369.5,246.5,367.0,249.0" stroke="black" stroke-width="1" fill="none" />
<polyline points="342.5,273.5,342.0,274.0" stroke="black" stroke-width="1" fill="none" />
<polyline points="341.5,293.5,350.0,302.0" stroke="black" stroke-width="1" fill="none" />
<polyline points="348.0,308.0,351.0,311.0" stroke="black" stroke-width="1" fill="none" />
<polyline points="341.5,301.5,120.0,80.0,118.0,82.0,110.5,89.5,109.5,90.5,87.5,112.5" stroke="black" stroke-width="1" fill="none" />
<polyline points="98.5,117.5,110.0,106.0" stroke="black" stroke-width="1" fill="none" />
<polyline points="116.0,108.0,86.5,137.5,86.0,138.0,81.5,142.5" stroke="black" stroke-width="1" fill="none" />
<polyline points="91.5,148.5,145.0,95.0,146.5,93.5,149.5,90.5,152.5,87.5,156.0,84.0" stroke="black" stroke-width="1" fill="none" />
<polyline points="159.5,88.5,161.5,86.5,162.5,85.5,163.0,85.0,163.5,84.5,168.5,79.5,170.0,78.0,173.5,74.5,174.5,73.5,176.0,72.0" stroke="black" stroke-width="1" fill="none" />
<polyline points="175.0,55.0,174.0,54.0,176.0,51.0,176.0,365.5,180.0,364.0,184.0,360.0,183.5,359.5,186.5,362.5,190.5,358.5,193.0,361.0" stroke="black" stroke-width="1" fill="none" />
<polyline points="181.5,357.5,0.0,176.0,0.0,176.0,511.5,176.0" stroke="black" stroke-width="1" fill="none" />
<polyline points="511.5,103.5,408.0,0.0,408.0,0.0,405.5,2.5" stroke="black" stroke-width="1" fill="none" />
<polyline points="400.0,0.0,400.0,316.0" stroke="black" stroke-width="1" fill="none" />
<polyline points="392.0,318.0,392.0,0.0,392.0,0.0,511.5,119.5" stroke="black" stroke-width="1" fill="none" />
<polyline points="395.5,4.5,400.0,0.0,400.0,0.0,511.5,111.5" stroke="black" stroke-width="1" fill="none" />
<polyline points="511.5,127.5,388.5,4.5,391.0,1.0,392.0,0.0" stroke="black" stroke-width="1" fill="none" />
<polyline points="385.0,7.0,384.0,8.0" stroke="black" stroke-width="1" fill="none" />
<polyline points="376.0,8.0,511.5,143.5" stroke="black" stroke-width="1" fill="none" />
<polyline points="511.5,151.5,369.0,9.0,368.0,8.0,368.0,323.0" stroke="black" stroke-width="1" fill="none" />
<polyline points="340.5,308.5,338.0,306.0,335.0,303.0,112.5,80.5,108.5,83.5,0.0,192.0,0.0,192.0,511.5,192.0" stroke="black" stroke-width="1" fill="none" />
<polyline points="511.5,159.5,363.0,11.0,363.5,12.5,364.5,11.5,360.0,10.5,360.0,324.5" stroke="black" stroke-width="1" fill="none" />
<polyline points="333.0,309.0,329.0,305.0,326.0,302.0,319.0,295.0,317.5,293.5,106.5,82.5" stroke="black" stroke-width="1" fill="none" />
<polyline points="99.0,83.0,317.0,301.0" stroke="black" stroke-width="1" fill="none" />
<polyline points="314.0,306.0,315.5,307.5,313.0,305.0,311.0,303.0,309.0,301.0,93.0,85.0,97.0,87.0,97.5,86.5,96.0,88.0,85.0,99.0,84.5,99.5,66.5,117.5,66.0,118.0,0.0,184.0,0.0,184.0,511.5,184.0" stroke="black" stroke-width="1" fill="none" />
<polyline points="511.5,167.5,356.5,12.5,354.5,13.5,353.5,14.5,352.0,12.5,352.0,326.5" stroke="black" stroke-width="1" fill="none" />
<polyline points="327.0,311.0,326.5,310.5,324.5,308.5,323.5,307.5" stroke="black" stroke-width="1" fill="none" />
<polyline points="311.5,311.5,310.5,310.5,309.5,309.5,307.0,307.0" stroke="black" stroke-width="1" fill="none" />
<polyline points="304.0,312.0,305.0,313.0,301.0,315.0,298.5,317.5,294.5,318.5,298.0,322.0,299.5,323.5,304.5,328.5" stroke="black" stroke-width="1" fill="none" />
<polyline points="305.5,321.5,305.0,321.0" stroke="black" stroke-width="1" fill="none" />
<polyline points="296.0,328.0,295.0,327.0" stroke="black" stroke-width="1" fill="none" />
<polyline points="293.5,317.5,293.0,317.0,292.0,316.0,290.0,314.0,286.0,318.0,287.0,319.0,284.0,316.0,276.0,308.0" stroke="black" stroke-width="1" fill="none" />
<polyline points="272.5,312.5,269.5,309.5" stroke="black" stroke-width="1" fill="none" />
<polyline points="266.5,314.5,270.0,318.0,272.5,320.5,274.0,322.0" stroke="black" stroke-width="1" fill="none" />
<polyline points="274.5,314.5,274.0,314.0" stroke="black" stroke-width="1" fill="none" />
<polyline points="265.5,313.5,263.0,311.0" stroke="black" stroke-width="1" fill="none" />
<polyline points="262.0,318.0,263.0,319.0" stroke="black" stroke-width="1" fill="none" />
<polyline points="247.5,319.5,0.0,72.0,0.0,72.0,511.5,72.0" stroke="black" stroke-width="1" fill="none" />
<polyline points="511.5,175.5,349.5,13.5,344.0,14.5,344.0,328.5" stroke="black" stroke-width="1" fill="none" />
<polyline points="298.5,309.5,297.5,310.5,295.5,311.5,303.5,319.5" stroke="black" stroke-width="1" fill="none" />
<polyline points="296.5,303.5,297.5,302.5,300.5,300.5,304.0,304.0" stroke="black" stroke-width="1" fill="none" />
<polyline points="297.5,294.5,294.0,298.0" stroke="black" stroke-width="1" fill="none" />
<polyline points="292.5,291.5,296.0,288.0" stroke="black" stroke-width="1" fill="none" />
<polyline points="291.0,285.0,293.5,282.5,289.5,278.5,293.5,274.5" stroke="black" stroke-width="1" fill="none" />
<polyline points="288.0,272.0,292.5,267.5" stroke="black" stroke-width="1" fill="none" />
<polyline points="289.5,262.5,286.0,266.0" stroke="black" stroke-width="1" fill="none" />
<polyline points="284.5,259.5,289.0,255.0" stroke="black" stroke-width="1" fill="none" />
<polyline points="284.0,252.0,288.0,248.0" stroke="black" stroke-width="1" fill="none" />
<polyline points="285.5,242.5,281.0,247.0" stroke="black" stroke-width="1" fill="none" />
<polyline points="279.5,240.5,285.5,234.5" stroke="black" stroke-width="1" fill="none" />
<polyline points="295.0,233.0,295.5,232.5" stroke="black" stroke-width="1" fill="none" />
<polyline points="303.5,232.5,304.5,231.5,308.5,235.5,308.0,236.0,312.0,232.0,312.5,231.5" stroke="black" stroke-width="1" fill="none" />
<polyline points="316.0,244.0,315.5,244.5" stroke="black" stroke-width="1" fill="none" />
<polyline points="300.0,244.0,299.5,244.5" stroke="black" stroke-width="1" fill="none" />
<polyline points="289.5,190.5,293.0,187.0" stroke="black" stroke-width="1" fill="none" />
<polyline points="227.0,205.0,224.0,208.0" stroke="black" stroke-width="1" fill="none" />
<polyline points="219.0,205.0,217.0,207.0" stroke="black" stroke-width="1" fill="none" />
<polyline points="223.0,201.0,223.5,200.5,224.0,200.0,224.5,199.5" stroke="black" stroke-width="1" fill="none" />
<polyline points="200.5,175.5,201.5,174.5,205.5,170.5,206.0,170.0,207.0,169.0,208.5,167.5,211.0,165.0,216.0,160.0,217.5,158.5,228.0,148.0,231.0,145.0,232.5,143.5,234.0,142.0,243.5,132.5,244.0,132.0,259.5,116.5,261.5,114.5,266.5,109.5,268.0,108.0,344.0,32.0" stroke="black" stroke-width="1" fill="none" />
<polyline points="333.5,34.5,276.0,92.0,275.5,92.5,259.5,108.5,259.0,109.0,248.0,120.0,247.0,121.0,240.5,127.5,239.0,129.0,237.5,130.5,236.5,131.5,230.5,137.5,230.0,138.0,223.5,144.5" stroke="black" stroke-width="1" fill="none" />
<polyline points="222.0,138.0,227.5,132.5,228.0,132.0,230.5,129.5,231.0,129.0,234.5,125.5,235.5,124.5,239.0,121.0,240.5,119.5,257.0,103.0,258.5,101.5,323.5,36.5" stroke="black" stroke-width="1" fill="none" />
<polyline points="313.5,38.5,236.5,115.5,236.0,116.0,234.5,117.5,233.0,119.0,230.5,121.5,229.0,123.0,228.0,124.0,226.5,125.5,225.0,127.0,224.0,128.0,220.5,131.5,218.5,133.5,211.5,140.5" stroke="black" stroke-width="1" fill="none" />
<polyline points="216.5,143.5,219.5,140.5,216.0,144.0,200.0,160.0" stroke="black" stroke-width="1" fill="none" />
<polyline points="201.5,166.5,207.0,161.0,209.5,158.5,215.0,153.0" stroke="black" stroke-width="1" fill="none" />
<polyline points="206.0,146.0,211.0,141.0" stroke="black" stroke-width="1" fill="none" />
<polyline points="204.5,139.5,215.5,128.5,216.0,128.0,222.0,122.0,222.5,121.5,236.0,108.0" stroke="black" stroke-width="1" fill="none" />
<polyline points="228.0,108.0,224.5,111.5,224.0,112.0,220.5,115.5,220.0,116.0,217.0,119.0,216.5,119.5,213.5,122.5,212.5,123.5,208.5,127.5,207.5,128.5,207.0,129.0,206.5,129.5,203.0,133.0,201.5,134.5,198.0,138.0,196.0,140.0,189.0,147.0,193.0,151.0,194.5,149.5,195.5,148.5,198.0,146.0,199.5,144.5,204.0,140.0" stroke="black" stroke-width="1" fill="none" />
<polyline points="205.0,147.0,199.5,152.5" stroke="black" stroke-width="1" fill="none" />
<polyline points="199.5,160.5,194.0,166.0" stroke="black" stroke-width="1" fill="none" />
<polyline points="200.0,168.0,189.5,178.5" stroke="black" stroke-width="1" fill="none" />
<polyline points="194.5,181.5,199.0,177.0" stroke="black" stroke-width="1" fill="none" />
<polyline points="192.0,184.0,191.0,185.0,190.0,186.0,182.5,193.5,181.5,194.5,177.5,198.5,176.0,200.0,168.0,208.0,167.0,209.0,161.0,215.0,160.0,216.0,155.0,221.0,154.0,222.0,152.5,223.5" stroke="black" stroke-width="1" fill="none" />
<polyline points="155.0,229.0,160.5,223.5" stroke="black" stroke-width="1" fill="none" />
<polyline points="163.5,228.5,168.0,224.0" stroke="black" stroke-width="1" fill="none" />
<polyline points="161.5,230.5,159.5,232.5,159.0,233.0,158.0,234.0,156.0,236.0,154.5,237.5,154.0,238.0,148.5,243.5" stroke="black" stroke-width="1" fill="none" />
<polyline points="155.5,244.5,146.5,253.5,145.0,255.0,139.0,261.0,138.5,261.5,132.5,267.5,131.0,269.0,118.0,282.0" stroke="black" stroke-width="1" fill="none" />
<polyline points="127.0,281.0,133.0,275.0,134.0,274.0,147.5,260.5" stroke="black" stroke-width="1" fill="none" />
<polyline points="142.5,249.5,148.0,244.0" stroke="black" stroke-width="1" fill="none" />
<polyline points="148.0,236.0,152.0,232.0" stroke="black" stroke-width="1" fill="none" />
<polyline points="147.0,237.0,123.0,261.0" stroke="black" stroke-width="1" fill="none" />
<polyline points="131.0,261.0,141.5,250.5" stroke="black" stroke-width="1" fill="none" />
<polyline points="130.5,245.5,141.0,235.0,142.0,234.0,152.0,224.0" stroke="black" stroke-width="1" fill="none" />
<polyline points="144.0,224.0,152.0,216.0,152.5,215.5,155.0,213.0,155.5,212.5,157.5,210.5,158.0,210.0,166.5,201.5,170.0,198.0,171.5,196.5,172.0,196.0,172.5,195.5,173.0,195.0,174.0,194.0,175.0,193.0,176.5,191.5,177.5,190.5,180.5,187.5,182.5,185.5,189.0,179.0" stroke="black" stroke-width="1" fill="none" />
<polyline points="183.0,177.0,192.5,167.5" stroke="black" stroke-width="1" fill="none" />
<polyline points="191.0,161.0,185.0,167.0" stroke="black" stroke-width="1" fill="none" />
<polyline points="192.5,159.5,198.5,153.5" stroke="black" stroke-width="1" fill="none" />
<polyline points="192.0,152.0,168.0,176.0,167.5,176.5,166.5,177.5" stroke="black" stroke-width="1" fill="none" />
<polyline points="171.5,180.5,175.0,177.0,176.0,176.0,184.0,168.0" stroke="black" stroke-width="1" fill="none" />
<polyline points="180.5,179.5,177.5,182.5,175.5,184.5,171.5,188.5,170.0,190.0,168.0,192.0,167.0,193.0,162.0,198.0,158.0,202.0,145.0,215.0,144.5,215.5,142.5,217.5" stroke="black" stroke-width="1" fill="none" />
<polyline points="138.0,214.0,151.5,200.5,152.0,200.0,156.5,195.5,157.5,194.5,159.5,192.5,162.0,190.0,163.5,188.5,164.0,188.0,165.0,187.0,166.0,186.0,170.0,182.0" stroke="black" stroke-width="1" fill="none" />
<polyline points="165.0,179.0,149.0,195.0,148.5,195.5,142.0,202.0,140.5,203.5,127.5,216.5,125.0,219.0,124.5,219.5" stroke="black" stroke-width="1" fill="none" />
<polyline points="124.5,227.5,135.5,216.5" stroke="black" stroke-width="1" fill="none" />
<polyline points="143.5,224.5,137.5,230.5,137.0,231.0,131.0,237.0,129.5,238.5,126.0,242.0,130.0,246.0,0.0,376.0,0.0,376.0,155.5,376.0" stroke="black" stroke-width="1" fill="none" />
<polyline points="154.0,382.0,151.5,384.5,155.5,388.5,153.5,390.5" stroke="black" stroke-width="1" fill="none" />
<polyline points="157.0,395.0,154.5,397.5,153.0,401.0,150.5,398.5" stroke="black" stroke-width="1" fill="none" />
<polyline points="147.5,403.5,0.0,256.0,0.0,256.0,511.5,256.0" stroke="black" stroke-width="1" fill="none" />
<polyline points="511.5,183.5,343.5,15.5,344.0,16.0,343.5,16.5" stroke="black" stroke-width="1" fill="none" />
<polyline points="334.0,18.0,333.5,18.5,330.0,18.0,511.5,199.5" stroke="black" stroke-width="1" fill="none" />
<polyline points="511.5,207.5,323.5,19.5,324.0,20.0,323.5,20.5,320.0,19.0,320.0,333.0" stroke="black" stroke-width="1" fill="none" />
<polyline points="285.0,341.0,282.0,338.0" stroke="black" stroke-width="1" fill="none" />
<polyline points="275.5,307.5,52.5,84.5,51.0,83.0,0.0,32.0,0.0,32.0,511.5,32.0" stroke="black" stroke-width="1" fill="none" />
<polyline points="376.0,5.5,376.0,322.0" stroke="black" stroke-width="1" fill="none" />
<polyline points="341.0,293.0,126.5,78.5" stroke="black" stroke-width="1" fill="none" />
<polyline points="128.5,64.5,127.5,63.5,128.5,63.5,129.5,62.5,128.0,62.0,128.0,511.5,128.5,511.5,151.0,489.0,153.5,486.5,155.0,485.0" stroke="black" stroke-width="1" fill="none" />
<polyline points="157.5,490.5,136.5,511.5" stroke="black" stroke-width="1" fill="none" />
<polyline points="144.5,511.5,159.5,496.5" stroke="black" stroke-width="1" fill="none" />
<polyline points="167.0,505.0,160.5,511.5" stroke="black" stroke-width="1" fill="none" />
<polyline points="152.5,511.5,164.0,500.0" stroke="black" stroke-width="1" fill="none" />
<polyline points="174.0,506.0,168.5,511.5" stroke="black" stroke-width="1" fill="none" />
<polyline points="178.5,509.5,181.5,506.5,184.0,506.5,184.0,510.5" stroke="black" stroke-width="1" fill="none" />
<polyline points="177.5,502.5,180.5,499.5,176.5,495.5,178.5,493.5,174.5,494.5,181.0,501.0" stroke="black" stroke-width="1" fill="none" />
<polyline points="175.5,488.5,176.5,487.5,174.5,486.5,178.5,490.5" stroke="black" stroke-width="1" fill="none" />
<polyline points="174.5,481.5,175.5,480.5,176.0,480.5,176.0,511.5" stroke="black" stroke-width="1" fill="none" />
<polyline points="143.5,511.5,0.0,368.0,0.0,368.0,169.0,368.0,170.0,366.0,173.0,363.0,174.5,366.5,0.0,192.0" stroke="black" stroke-width="1" fill="none" />
<polyline points="0.0,200.0,511.5,200.0" stroke="black" stroke-width="1" fill="none" />
<polyline points="511.5,215.5,317.5,21.5,314.0,22.0,313.5,22.5,312.0,21.0,312.0,335.0" stroke="black" stroke-width="1" fill="none" />
<polyline points="289.0,313.0,281.0,305.0,280.0,304.0,278.5,302.5,277.0,301.0,66.5,90.5,68.5,91.5,64.5,95.5,64.0,96.0,43.5,116.5" stroke="black" stroke-width="1" fill="none" />
<polyline points="52.0,124.0,88.5,87.5,86.5,86.5,300.0,300.0" stroke="black" stroke-width="1" fill="none" />
<polyline points="293.5,309.5,288.0,304.0" stroke="black" stroke-width="1" fill="none" />
<polyline points="252.5,283.5,252.0,284.0" stroke="black" stroke-width="1" fill="none" />
<polyline points="244.5,283.5,243.0,285.0" stroke="black" stroke-width="1" fill="none" />
<polyline points="218.5,277.5,218.0,278.0" stroke="black" stroke-width="1" fill="none" />
<polyline points="224.5,247.5,225.0,247.0" stroke="black" stroke-width="1" fill="none" />
<polyline points="222.0,242.0,223.0,241.0" stroke="black" stroke-width="1" fill="none" />
<polyline points="231.0,241.0,232.5,239.5" stroke="black" stroke-width="1" fill="none" />
<polyline points="235.0,245.0,234.5,245.5" stroke="black" stroke-width="1" fill="none" />
<polyline points="242.0,254.0,241.5,254.5" stroke="black" stroke-width="1" fill="none" />
<polyline points="166.0,242.0,162.5,245.5" stroke="black" stroke-width="1" fill="none" />
<polyline points="130.0,262.0,0.0,392.0,0.0,392.0,158.5,392.0" stroke="black" stroke-width="1" fill="none" />
<polyline points="157.0,403.0,156.5,403.5,155.5,403.5,159.5,407.5,160.0,411.5,160.0,418.5,160.0,416.0,159.0,415.0" stroke="black" stroke-width="1" fill="none" />
<polyline points="147.0,427.0,146.5,426.5,149.5,429.5,151.0,431.0" stroke="black" stroke-width="1" fill="none" />
<polyline points="147.0,437.0,72.5,511.5" stroke="black" stroke-width="1" fill="none" />
<polyline points="64.5,511.5,142.5,433.5,138.5,429.5,139.5,428.5,137.5,430.5,56.5,511.5" stroke="black" stroke-width="1" fill="none" />
<polyline points="48.5,511.5,128.5,431.5,129.0,431.0,132.0,428.0,132.5,427.5,134.5,425.5,136.0,424.0,136.5,423.5" stroke="black" stroke-width="1" fill="none" />
<polyline points="130.5,421.5,41.5,510.5" stroke="black" stroke-width="1" fill="none" />
<polyline points="42.0,502.0,122.5,421.5,124.5,419.5,132.0,412.0" stroke="black" stroke-width="1" fill="none" />
<polyline points="130.0,406.0,132.0,404.0" stroke="black" stroke-width="1" fill="none" />
<polyline points="127.5,408.5,37.0,499.0" stroke="black" stroke-width="1" fill="none" />
<polyline points="36.0,492.0,121.5,406.5,122.5,405.5,126.0,402.0" stroke="black" stroke-width="1" fill="none" />
<polyline points="123.0,397.0,129.0,391.0,129.5,390.5,131.0,389.0,135.0,385.0,136.0,384.0,136.5,383.5,138.0,382.0" stroke="black" stroke-width="1" fill="none" />
<polyline points="132.5,379.5,137.0,375.0,137.5,374.5,143.5,368.5,146.5,365.5,150.0,362.0" stroke="black" stroke-width="1" fill="none" />
<polyline points="153.5,366.5,148.5,371.5" stroke="black" stroke-width="1" fill="none" />
<polyline points="153.0,375.0,149.0,379.0" stroke="black" stroke-width="1" fill="none" />
<polyline points="159.5,368.5,163.0,365.0" stroke="black" stroke-width="1" fill="none" />
<polyline points="155.0,371.0,0.0,216.0,0.0,216.0,511.5,216.0" stroke="black" stroke-width="1" fill="none" />
<polyline points="511.5,223.5,310.0,22.0" stroke="black" stroke-width="1" fill="none" />
<polyline points="304.0,23.5,304.0,337.0" stroke="black" stroke-width="1" fill="none" />
<polyline points="208.0,336.0,206.5,334.5" stroke="black" stroke-width="1" fill="none" />
<polyline points="195.0,339.0,202.5,346.5" stroke="black" stroke-width="1" fill="none" />
<polyline points="191.0,351.0,189.0,349.0" stroke="black" stroke-width="1" fill="none" />
<polyline points="186.5,354.5,174.5,342.5" stroke="black" stroke-width="1" fill="none" />
<polyline points="175.5,359.5,180.5,364.5" stroke="black" stroke-width="1" fill="none" />
<polyline points="149.5,354.5,145.0,359.0" stroke="black" stroke-width="1" fill="none" />
<polyline points="144.0,352.0,148.5,347.5" stroke="black" stroke-width="1" fill="none" />
<polyline points="142.5,345.5,147.0,341.0" stroke="black" stroke-width="1" fill="none" />
<polyline points="140.5,347.5,140.0,348.0,138.5,349.5,137.5,350.5,136.5,351.5,136.0,352.0,132.0,356.0,129.5,358.5,126.0,362.0,124.5,363.5" stroke="black" stroke-width="1" fill="none" />
<polyline points="127.0,369.0,125.0,371.0,123.5,372.5,14.5,481.5" stroke="black" stroke-width="1" fill="none" />
<polyline points="20.5,483.5,133.5,370.5" stroke="black" stroke-width="1" fill="none" />
<polyline points="132.0,364.0,134.0,362.0" stroke="black" stroke-width="1" fill="none" />
<polyline points="124.0,364.0,116.5,371.5,115.5,372.5,115.0,373.0,113.5,374.5,26.5,461.5,21.5,461.5,71.5,511.5" stroke="black" stroke-width="1" fill="none" />
<polyline points="80.5,511.5,150.5,441.5" stroke="black" stroke-width="1" fill="none" />
<polyline points="157.0,443.0,88.5,511.5" stroke="black" stroke-width="1" fill="none" />
<polyline points="96.5,511.5,156.5,451.5,160.5,447.5,163.5,444.5,164.0,444.0,159.5,439.5" stroke="black" stroke-width="1" fill="none" />
<polyline points="162.0,434.0,161.0,433.0,160.0,432.0,160.0,511.5" stroke="black" stroke-width="1" fill="none" />
<polyline points="135.5,511.5,0.0,376.0" stroke="black" stroke-width="1" fill="none" />
<polyline points="0.0,384.0,157.0,384.0" stroke="black" stroke-width="1" fill="none" />
<polyline points="134.5,393.5,134.0,394.0" stroke="black" stroke-width="1" fill="none" />
<polyline points="126.5,385.5,130.0,382.0" stroke="black" stroke-width="1" fill="none" />
<polyline points="122.0,398.0,31.5,488.5" stroke="black" stroke-width="1" fill="none" />
<polyline points="26.5,485.5,125.5,386.5" stroke="black" stroke-width="1" fill="none" />
<polyline points="108.5,371.5,116.5,363.5,117.0,363.0,124.5,355.5,125.5,354.5,126.0,354.0,126.5,353.5,129.0,351.0,131.0,349.0,132.0,348.0,135.5,344.5,136.5,343.5,137.5,342.5,145.5,334.5" stroke="black" stroke-width="1" fill="none" />
<polyline points="139.5,332.5,144.5,327.5" stroke="black" stroke-width="1" fill="none" />
<polyline points="153.0,327.0,153.5,326.5" stroke="black" stroke-width="1" fill="none" />
<polyline points="155.0,333.0,154.0,334.0" stroke="black" stroke-width="1" fill="none" />
<polyline points="139.0,333.0,137.5,334.5,136.5,335.5,133.5,338.5,132.0,340.0,127.0,345.0,125.5,346.5,120.5,351.5,119.5,352.5,26.5,445.5" stroke="black" stroke-width="1" fill="none" />
<polyline points="29.0,451.0,108.0,372.0" stroke="black" stroke-width="1" fill="none" />
<polyline points="123.0,341.0,128.5,335.5,129.5,334.5,133.0,331.0,133.5,330.5,136.5,327.5,132.5,323.5,125.0,331.0,124.0,332.0,122.5,333.5,121.5,334.5,118.5,337.5" stroke="black" stroke-width="1" fill="none" />
<polyline points="121.5,342.5,25.5,438.5" stroke="black" stroke-width="1" fill="none" />
<polyline points="23.5,432.5,117.5,338.5" stroke="black" stroke-width="1" fill="none" />
<polyline points="125.0,323.0,133.5,314.5,135.0,313.0,140.0,308.0,140.5,307.5,144.5,303.5" stroke="black" stroke-width="1" fill="none" />
<polyline points="124.5,323.5,23.0,425.0,21.0,427.0,20.5,427.5" stroke="black" stroke-width="1" fill="none" />
<polyline points="17.5,422.5,124.0,316.0" stroke="black" stroke-width="1" fill="none" />
<polyline points="107.5,308.5,12.5,403.5,11.0,405.0,6.0,410.0,2.5,413.5,0.0,416.0,0.0,416.0,162.5,416.0" stroke="black" stroke-width="1" fill="none" />
<polyline points="164.0,452.0,162.5,453.5" stroke="black" stroke-width="1" fill="none" />
<polyline points="165.5,458.5,164.5,459.5,164.0,460.0,166.0,462.0,168.0,465.5,168.0,468.5" stroke="black" stroke-width="1" fill="none" />
<polyline points="168.0,477.0,168.0,511.5" stroke="black" stroke-width="1" fill="none" />
<polyline points="151.5,511.5,0.0,360.0,0.0,360.0,204.5,360.0" stroke="black" stroke-width="1" fill="none" />
<polyline points="152.0,472.0,151.0,473.0" stroke="black" stroke-width="1" fill="none" />
<polyline points="151.0,481.0,120.5,511.5" stroke="black" stroke-width="1" fill="none" />
<polyline points="112.5,511.5,149.5,474.5" stroke="black" stroke-width="1" fill="none" />
<polyline points="153.0,463.0,104.5,511.5" stroke="black" stroke-width="1" fill="none" />
<polyline points="47.5,511.5,4.0,468.0,8.0,466.0,8.0,503.0,3.5,504.0,15.0,504.0,15.0,503.0,3.5,491.5,4.5,491.5,6.0,490.0,1.0,488.0,180.5,488.0" stroke="black" stroke-width="1" fill="none" />
<polyline points="173.0,493.0,161.5,481.5" stroke="black" stroke-width="1" fill="none" />
<polyline points="95.5,511.5,0.0,416.0" stroke="black" stroke-width="1" fill="none" />
<polyline points="3.0,421.0,0.0,424.0,0.0,424.0,163.5,424.0" stroke="black" stroke-width="1" fill="none" />
<polyline points="103.5,511.5,0.0,408.0,0.0,408.0,160.5,408.0" stroke="black" stroke-width="1" fill="none" />
<polyline points="111.5,511.5,0.0,400.0,0.0,400.0,159.5,400.0" stroke="black" stroke-width="1" fill="none" />
<polyline points="126.5,281.5,1.5,406.5" stroke="black" stroke-width="1" fill="none" />
<polyline points="0.0,400.0,116.5,283.5" stroke="black" stroke-width="1" fill="none" />
<polyline points="121.5,262.5,0.0,384.0,0.0,384.0,127.5,511.5" stroke="black" stroke-width="1" fill="none" />
<polyline points="39.5,511.5,32.5,504.5" stroke="black" stroke-width="1" fill="none" />
<polyline points="32.0,511.5,32.0,0.0,32.0,0.0,70.5,38.5,72.0,39.5,72.0,511.5" stroke="black" stroke-width="1" fill="none" />
<polyline points="55.5,511.5,17.5,473.5,16.0,472.0,16.0,503.0,19.0,504.0,184.5,504.0" stroke="black" stroke-width="1" fill="none" />
<polyline points="159.5,511.5,0.0,352.0,0.0,352.0,237.5,352.0" stroke="black" stroke-width="1" fill="none" />
<polyline points="160.5,480.5,0.0,320.0,0.0,320.0,385.0,320.0" stroke="black" stroke-width="1" fill="none" />
<polyline points="328.0,332.5,328.0,17.0" stroke="black" stroke-width="1" fill="none" />
<polyline points="304.0,24.0,511.5,231.5" stroke="black" stroke-width="1" fill="none" />
<polyline points="511.5,239.5,304.0,32.0,300.5,28.5,298.0,26.0,296.0,25.5,296.0,339.0" stroke="black" stroke-width="1" fill="none" />
<polyline points="149.5,397.5,0.0,248.0,0.0,248.0,511.5,248.0" stroke="black" stroke-width="1" fill="none" />
<polyline points="511.5,255.5,294.5,38.5,293.5,37.5,290.5,34.5,289.0,33.0,288.0,32.0,286.5,30.5,284.5,28.5,283.5,28.5,283.0,29.0,280.0,28.0,280.0,341.5" stroke="black" stroke-width="1" fill="none" />
<polyline points="161.5,457.5,0.0,296.0,0.0,296.0,511.5,296.0" stroke="black" stroke-width="1" fill="none" />
<polyline points="511.5,336.0,461.0,336.0" stroke="black" stroke-width="1" fill="none" />
<polyline points="458.0,320.0,511.5,320.0" stroke="black" stroke-width="1" fill="none" />
<polyline points="511.5,312.0,456.5,312.0" stroke="black" stroke-width="1" fill="none" />
<polyline points="253.5,509.5,250.0,506.0,248.0,506.0,248.0,511.5,246.5,510.5,244.0,508.0,244.5,507.5,240.5,511.5,239.5,511.5,238.0,510.0,240.0,511.5,240.0,508.0" stroke="black" stroke-width="1" fill="none" />
<polyline points="234.0,510.0,232.5,511.5,231.5,511.5,230.5,510.5,232.0,510.0,232.0,511.5" stroke="black" stroke-width="1" fill="none" />
<polyline points="63.5,511.5,20.0,468.0" stroke="black" stroke-width="1" fill="none" />
<polyline points="10.5,464.0,168.5,464.0" stroke="black" stroke-width="1" fill="none" />
<polyline points="79.5,511.5,21.5,453.5,20.0,452.0,19.5,451.5" stroke="black" stroke-width="1" fill="none" />
<polyline points="8.5,447.5,7.0,449.0,9.0,449.0,6.0,446.0,5.0,448.0,165.0,448.0" stroke="black" stroke-width="1" fill="none" />
<polyline points="87.5,511.5,0.0,424.0,4.0,428.0,2.5,429.5,0.0,430.0,0.0,0.0,0.0,0.0,78.5,78.5,77.5,74.5,80.5,71.5" stroke="black" stroke-width="1" fill="none" />
<polyline points="78.5,65.5,67.5,76.5" stroke="black" stroke-width="1" fill="none" />
<polyline points="73.0,81.0,74.0,82.0,75.0,83.0,75.5,83.5,77.5,85.5,78.5,86.5,80.0,88.0,303.0,311.0" stroke="black" stroke-width="1" fill="none" />
<polyline points="125.0,243.0,107.0,261.0,105.5,262.5,0.0,368.0" stroke="black" stroke-width="1" fill="none" />
<polyline points="0.0,360.0,92.0,268.0,92.5,267.5,115.5,244.5,117.5,242.5,126.5,233.5,127.0,233.0,137.0,223.0" stroke="black" stroke-width="1" fill="none" />
<polyline points="123.0,229.0,107.5,244.5,106.5,245.5,106.0,246.0,105.5,246.5,101.0,251.0,99.0,253.0,0.0,352.0" stroke="black" stroke-width="1" fill="none" />
<polyline points="0.0,344.0,273.0,344.0" stroke="black" stroke-width="1" fill="none" />
<polyline points="124.0,220.0,110.0,234.0,109.0,235.0,0.0,344.0,0.0,344.0,167.5,511.5" stroke="black" stroke-width="1" fill="none" />
<polyline points="119.5,511.5,0.0,392.0" stroke="black" stroke-width="1" fill="none" />
<polyline points="8.5,423.5,8.0,424.0" stroke="black" stroke-width="1" fill="none" />
<polyline points="13.0,427.0,15.0,425.0" stroke="black" stroke-width="1" fill="none" />
<polyline points="6.0,434.0,4.0,436.0,2.5,434.5,8.5,440.5,7.5,440.5,5.0,443.0,2.5,440.0,164.5,440.0" stroke="black" stroke-width="1" fill="none" />
<polyline points="175.5,511.5,0.0,336.0,0.0,336.0,311.5,336.0" stroke="black" stroke-width="1" fill="none" />
<polyline points="155.5,180.5,156.0,180.0,156.5,179.5,157.0,179.0,159.5,176.5,179.5,156.5,180.0,156.0,186.0,150.0" stroke="black" stroke-width="1" fill="none" />
<polyline points="188.5,139.5,195.0,133.0,195.5,132.5,202.0,126.0,203.0,125.0,206.0,122.0,207.5,120.5,215.0,113.0,217.0,111.0,225.0,103.0" stroke="black" stroke-width="1" fill="none" />
<polyline points="222.0,98.0,228.0,92.0" stroke="black" stroke-width="1" fill="none" />
<polyline points="223.5,88.5,224.5,87.5,223.0,89.0,222.0,90.0,219.0,93.0,218.0,94.0" stroke="black" stroke-width="1" fill="none" />
<polyline points="220.0,100.0,216.0,104.0,213.5,106.5,202.0,118.0,200.0,120.0,195.5,124.5,195.0,125.0,185.0,135.0,184.5,135.5,182.0,138.0,181.5,138.5,177.0,143.0,176.5,143.5,161.0,159.0" stroke="black" stroke-width="1" fill="none" />
<polyline points="167.5,160.5,188.0,140.0" stroke="black" stroke-width="1" fill="none" />
<polyline points="179.0,133.0,183.5,128.5,184.5,127.5,185.0,127.0,185.5,126.5,188.0,124.0,188.5,123.5,193.0,119.0,194.0,118.0,199.5,112.5,200.5,111.5,206.5,105.5,209.0,103.0,212.5,99.5,213.0,99.0,216.5,95.5,212.5,91.5,209.0,95.0,206.5,97.5,206.0,98.0,205.0,99.0,195.0,109.0,193.5,110.5,188.0,116.0,184.0,120.0,183.0,121.0,181.5,122.5,168.5,135.5,168.0,136.0,167.5,136.5,165.5,138.5,161.0,143.0" stroke="black" stroke-width="1" fill="none" />
<polyline points="167.0,145.0,173.0,139.0,173.5,138.5,178.0,134.0" stroke="black" stroke-width="1" fill="none" />
<polyline points="167.0,129.0,173.5,122.5,175.5,120.5,188.5,107.5,189.5,106.5,192.0,104.0,192.5,103.5,195.0,101.0,197.0,99.0,203.0,93.0" stroke="black" stroke-width="1" fill="none" />
<polyline points="193.0,95.0,190.5,97.5,188.5,99.5,184.0,104.0,183.0,105.0,167.0,121.0" stroke="black" stroke-width="1" fill="none" />
<polyline points="166.0,130.0,165.0,131.0" stroke="black" stroke-width="1" fill="none" />
<polyline points="166.5,145.5,162.5,149.5,160.5,151.5,129.0,183.0,128.5,183.5,125.5,186.5" stroke="black" stroke-width="1" fill="none" />
<polyline points="130.0,190.0,133.0,187.0,134.0,186.0,135.5,184.5,136.0,184.0,146.0,174.0,147.0,173.0,160.5,159.5" stroke="black" stroke-width="1" fill="none" />
<polyline points="166.0,162.0,142.0,186.0" stroke="black" stroke-width="1" fill="none" />
<polyline points="147.5,188.5,150.5,185.5,152.0,184.0,155.0,181.0" stroke="black" stroke-width="1" fill="none" />
<polyline points="144.5,191.5,142.0,194.0,140.0,196.0,109.0,227.0,108.0,228.0,0.0,336.0" stroke="black" stroke-width="1" fill="none" />
<polyline points="0.0,328.0,349.5,328.0" stroke="black" stroke-width="1" fill="none" />
<polyline points="141.5,186.5,136.5,191.5,136.0,192.0,131.0,197.0,129.5,198.5,127.0,201.0,126.5,201.5,123.0,205.0,122.0,206.0,104.5,223.5,103.0,225.0,99.0,229.0,98.0,230.0,0.0,328.0,0.0,328.0,183.5,511.5" stroke="black" stroke-width="1" fill="none" />
<polyline points="158.0,470.0,0.0,312.0,0.0,312.0,422.5,312.0" stroke="black" stroke-width="1" fill="none" />
<polyline points="238.0,82.0,240.0,80.0,240.5,79.5,242.0,78.0,243.0,77.0,265.0,55.0" stroke="black" stroke-width="1" fill="none" />
<polyline points="250.0,62.0,241.5,70.5,239.5,72.5,238.5,73.5,238.0,74.0,236.5,75.5,234.5,77.5,233.5,78.5" stroke="black" stroke-width="1" fill="none" />
<polyline points="233.5,41.5,232.0,40.0,232.5,39.5,233.0,39.0,232.0,38.5,232.0,352.5" stroke="black" stroke-width="1" fill="none" />
<polyline points="121.5,198.5,128.5,191.5" stroke="black" stroke-width="1" fill="none" />
<polyline points="123.5,188.5,119.0,193.0,118.5,193.5,100.0,212.0,99.0,213.0,0.0,312.0" stroke="black" stroke-width="1" fill="none" />
<polyline points="0.0,304.0,511.5,304.0" stroke="black" stroke-width="1" fill="none" />
<polyline points="302.5,38.5,299.5,35.5,298.5,34.5,296.5,32.5,296.0,32.0,290.5,26.5,288.0,26.5,288.0,341.0" stroke="black" stroke-width="1" fill="none" />
<polyline points="120.5,199.5,0.0,320.0" stroke="black" stroke-width="1" fill="none" />
<polyline points="0.0,304.0,159.0,463.0" stroke="black" stroke-width="1" fill="none" />
<polyline points="164.5,452.5,0.0,288.0,0.0,288.0,511.5,288.0" stroke="black" stroke-width="1" fill="none" />
<polyline points="280.0,32.0,278.5,30.5" stroke="black" stroke-width="1" fill="none" />
<polyline points="272.5,32.5,271.0,31.0" stroke="black" stroke-width="1" fill="none" />
<polyline points="266.5,34.5,264.5,32.5,264.0,32.0,264.0,345.5" stroke="black" stroke-width="1" fill="none" />
<polyline points="116.0,188.0,117.5,186.5,118.5,185.5,125.5,178.5,127.0,177.0,137.5,166.5,138.0,166.0,140.0,164.0,141.5,162.5,143.5,160.5,144.5,159.5,152.0,152.0,153.0,151.0,155.5,148.5,156.0,148.0,160.5,143.5" stroke="black" stroke-width="1" fill="none" />
<polyline points="164.5,131.5,135.0,161.0,134.5,161.5,133.5,162.5,132.0,164.0,122.0,174.0,121.5,174.5,105.0,191.0" stroke="black" stroke-width="1" fill="none" />
<polyline points="115.5,188.5,0.0,304.0" stroke="black" stroke-width="1" fill="none" />
<polyline points="0.0,296.0,104.5,191.5" stroke="black" stroke-width="1" fill="none" />
<polyline points="116.0,172.0,0.0,288.0" stroke="black" stroke-width="1" fill="none" />
<polyline points="0.0,280.0,511.5,280.0" stroke="black" stroke-width="1" fill="none" />
<polyline points="263.5,32.5,262.5,33.5,260.0,36.0,259.0,35.0,256.0,34.0,256.0,347.5" stroke="black" stroke-width="1" fill="none" />
<polyline points="116.5,171.5,117.0,171.0,117.5,170.5,120.0,168.0,121.5,166.5,136.5,151.5,137.5,150.5,141.0,147.0,141.5,146.5,166.0,122.0" stroke="black" stroke-width="1" fill="none" />
<polyline points="153.0,111.0,162.0,102.0,162.5,101.5,163.0,101.0,164.0,100.0,165.0,99.0,166.0,98.0,166.5,97.5,169.0,95.0,170.5,93.5,171.0,93.0,171.5,92.5,172.0,92.0,172.5,91.5" stroke="black" stroke-width="1" fill="none" />
<polyline points="167.5,88.5,164.0,92.0,163.5,92.5,162.0,94.0,161.5,94.5,160.5,95.5,159.5,96.5,142.0,114.0,141.5,114.5,0.0,256.0" stroke="black" stroke-width="1" fill="none" />
<polyline points="0.0,264.0,511.5,264.0" stroke="black" stroke-width="1" fill="none" />
<polyline points="253.5,34.5,252.5,35.5,251.5,35.5,253.0,37.0,248.0,36.0,248.0,349.5" stroke="black" stroke-width="1" fill="none" />
<polyline points="68.0,212.0,119.0,161.0,119.5,160.5,121.5,158.5,122.5,157.5,146.5,133.5" stroke="black" stroke-width="1" fill="none" />
<polyline points="141.0,131.0,110.0,162.0,109.0,163.0,108.0,164.0,107.5,164.5,0.0,272.0,0.0,272.0,511.5,272.0" stroke="black" stroke-width="1" fill="none" />
<polyline points="247.0,39.0,244.5,36.5,243.5,36.5,242.0,38.0,240.0,37.5,240.0,351.5" stroke="black" stroke-width="1" fill="none" />
<polyline points="67.5,212.5,0.0,280.0,0.0,280.0,145.5,425.5" stroke="black" stroke-width="1" fill="none" />
<polyline points="146.0,418.0,0.0,272.0" stroke="black" stroke-width="1" fill="none" />
<polyline points="0.0,264.0,145.0,409.0" stroke="black" stroke-width="1" fill="none" />
<polyline points="157.5,397.5,0.0,240.0,0.0,240.0,511.5,240.0" stroke="black" stroke-width="1" fill="none" />
<polyline points="240.5,40.5,239.0,39.0" stroke="black" stroke-width="1" fill="none" />
<polyline points="227.0,43.0,225.0,41.0,224.0,40.5,224.0,354.0" stroke="black" stroke-width="1" fill="none" />
<polyline points="87.5,176.5,107.5,156.5,108.0,156.0,120.0,144.0,120.5,143.5,124.0,140.0,125.0,139.0,135.0,129.0,135.5,128.5,152.5,111.5" stroke="black" stroke-width="1" fill="none" />
<polyline points="142.5,105.5,148.5,99.5,150.0,98.0,153.5,94.5,156.5,91.5,157.0,91.0,157.5,90.5,159.0,89.0" stroke="black" stroke-width="1" fill="none" />
<polyline points="140.0,108.0,104.0,144.0,103.5,144.5,91.0,157.0" stroke="black" stroke-width="1" fill="none" />
<polyline points="87.0,177.0,0.0,264.0" stroke="black" stroke-width="1" fill="none" />
<polyline points="0.0,248.0,90.0,158.0" stroke="black" stroke-width="1" fill="none" />
<polyline points="91.0,149.0,0.0,240.0" stroke="black" stroke-width="1" fill="none" />
<polyline points="0.0,232.0,155.5,387.5" stroke="black" stroke-width="1" fill="none" />
<polyline points="153.5,377.5,0.0,224.0,0.0,224.0,511.5,224.0" stroke="black" stroke-width="1" fill="none" />
<polyline points="221.0,45.0,219.5,43.5,216.0,42.5,216.0,356.0" stroke="black" stroke-width="1" fill="none" />
<polyline points="161.0,369.0,0.0,208.0" stroke="black" stroke-width="1" fill="none" />
<polyline points="0.0,200.0,167.0,367.0" stroke="black" stroke-width="1" fill="none" />
<polyline points="174.0,358.0,0.0,184.0" stroke="black" stroke-width="1" fill="none" />
<polyline points="0.0,176.0,51.0,125.0" stroke="black" stroke-width="1" fill="none" />
<polyline points="57.0,111.0,57.5,110.5,60.0,108.0,78.0,90.0" stroke="black" stroke-width="1" fill="none" />
<polyline points="71.5,87.5,287.0,303.0" stroke="black" stroke-width="1" fill="none" />
<polyline points="81.0,143.0,0.0,224.0" stroke="black" stroke-width="1" fill="none" />
<polyline points="0.0,216.0,87.0,129.0,87.5,128.5,97.5,118.5" stroke="black" stroke-width="1" fill="none" />
<polyline points="87.0,113.0,61.0,139.0,60.0,140.0,0.0,200.0" stroke="black" stroke-width="1" fill="none" />
<polyline points="0.0,168.0,511.5,168.0" stroke="black" stroke-width="1" fill="none" />
<polyline points="214.0,46.0,213.0,45.0,208.0,44.5,208.0,358.5" stroke="black" stroke-width="1" fill="none" />
<polyline points="174.0,342.0,0.0,168.0,0.0,168.0,56.0,112.0" stroke="black" stroke-width="1" fill="none" />
<polyline points="43.0,117.0,0.0,160.0,0.0,160.0,511.5,160.0" stroke="black" stroke-width="1" fill="none" />
<polyline points="207.5,47.5,205.0,45.0,200.0,47.0,200.0,360.5" stroke="black" stroke-width="1" fill="none" />
<polyline points="188.5,348.5,0.0,160.0" stroke="black" stroke-width="1" fill="none" />
<polyline points="0.0,152.0,511.5,152.0" stroke="black" stroke-width="1" fill="none" />
<polyline points="201.5,49.5,199.5,47.5" stroke="black" stroke-width="1" fill="none" />
<polyline points="187.5,51.5,185.5,49.5,184.0,49.5,184.0,364.5" stroke="black" stroke-width="1" fill="none" />
<polyline points="195.0,347.0,0.0,152.0,0.0,152.0,56.0,96.0,56.5,95.5,57.5,94.5" stroke="black" stroke-width="1" fill="none" />
<polyline points="47.5,96.5,0.0,144.0,0.0,144.0,511.5,144.0" stroke="black" stroke-width="1" fill="none" />
<polyline points="181.5,53.5,180.0,52.0" stroke="black" stroke-width="1" fill="none" />
<polyline points="170.0,54.0,169.5,54.5,168.0,53.0,168.0,367.0" stroke="black" stroke-width="1" fill="none" />
<polyline points="194.0,338.0,0.0,144.0" stroke="black" stroke-width="1" fill="none" />
<polyline points="0.0,136.0,37.5,98.5" stroke="black" stroke-width="1" fill="none" />
<polyline points="36.0,92.0,258.0,314.0" stroke="black" stroke-width="1" fill="none" />
<polyline points="159.0,57.0,160.0,56.0,160.0,56.0,162.0,58.0,160.0,55.5,160.0,369.0" stroke="black" stroke-width="1" fill="none" />
<polyline points="206.0,334.0,0.0,128.0,0.0,128.0,511.5,128.0" stroke="black" stroke-width="1" fill="none" />
<polyline points="168.0,56.0,166.0,54.0" stroke="black" stroke-width="1" fill="none" />
<polyline points="155.5,59.5,154.5,58.5,152.0,57.5,152.0,511.5" stroke="black" stroke-width="1" fill="none" />
<polyline points="144.0,511.5,144.0,59.5,147.0,59.0,148.5,60.5,148.5,59.5,149.5,58.5" stroke="black" stroke-width="1" fill="none" />
<polyline points="142.5,62.5,140.0,60.0,139.5,60.5,138.5,61.5,136.0,60.5,136.0,511.5" stroke="black" stroke-width="1" fill="none" />
<polyline points="120.0,511.5,120.0,64.0,120.5,64.5,123.0,67.0" stroke="black" stroke-width="1" fill="none" />
<polyline points="116.5,68.5,115.0,67.0,112.0,66.0,112.0,511.5" stroke="black" stroke-width="1" fill="none" />
<polyline points="104.0,511.5,104.0,68.0,101.0,69.0,103.0,71.0" stroke="black" stroke-width="1" fill="none" />
<polyline points="96.0,72.0,95.0,71.0,96.0,69.0,96.0,511.5" stroke="black" stroke-width="1" fill="none" />
<polyline points="88.0,511.5,88.0,70.5" stroke="black" stroke-width="1" fill="none" />
<polyline points="85.5,77.5,86.0,78.0,83.5,75.5,8.0,0.0,8.0,0.0,8.0,455.5,7.5,456.0,166.5,456.0" stroke="black" stroke-width="1" fill="none" />
<polyline points="216.0,328.0,0.0,112.0,0.0,112.0,511.5,112.0" stroke="black" stroke-width="1" fill="none" />
<polyline points="231.0,327.0,0.0,96.0,0.0,96.0,511.5,96.0" stroke="black" stroke-width="1" fill="none" />
<polyline points="238.5,318.5,0.0,80.0,0.0,80.0,511.5,80.0" stroke="black" stroke-width="1" fill="none" />
<polyline points="252.0,316.0,0.0,64.0,0.0,64.0,511.5,64.0" stroke="black" stroke-width="1" fill="none" />
<polyline points="267.5,307.5,46.0,86.0,45.0,83.0,75.0,53.0" stroke="black" stroke-width="1" fill="none" />
<polyline points="77.0,59.0,56.5,79.5,58.5,82.5,64.0,88.0" stroke="black" stroke-width="1" fill="none" />
<polyline points="69.5,85.5,71.0,87.0,68.0,84.0,0.0,16.0,0.0,16.0,93.5,16.0,95.0,16.0,99.5,16.0" stroke="black" stroke-width="1" fill="none" />
<polyline points="88.0,26.0,88.0,27.5" stroke="black" stroke-width="1" fill="none" />
<polyline points="80.0,26.5,80.0,30.0" stroke="black" stroke-width="1" fill="none" />
<polyline points="70.5,30.5,69.5,29.5,69.5,34.5,67.5,36.5" stroke="black" stroke-width="1" fill="none" />
<polyline points="71.0,41.0,24.5,87.5" stroke="black" stroke-width="1" fill="none" />
<polyline points="14.5,89.5,65.0,39.0" stroke="black" stroke-width="1" fill="none" />
<polyline points="64.5,31.5,66.5,29.5,63.5,32.5,3.5,92.5" stroke="black" stroke-width="1" fill="none" />
<polyline points="0.0,88.0,511.5,88.0" stroke="black" stroke-width="1" fill="none" />
<polyline points="262.0,310.0,0.0,48.0,0.0,48.0,511.5,48.0" stroke="black" stroke-width="1" fill="none" />
<polyline points="511.5,104.0,0.0,104.0,0.0,104.0,217.0,321.0" stroke="black" stroke-width="1" fill="none" />
<polyline points="236.0,324.0,0.0,88.0,0.0,88.0,64.0,24.0" stroke="black" stroke-width="1" fill="none" />
<polyline points="62.0,18.0,0.0,80.0" stroke="black" stroke-width="1" fill="none" />
<polyline points="0.0,72.0,60.0,12.0" stroke="black" stroke-width="1" fill="none" />
<polyline points="58.5,5.5,0.0,64.0" stroke="black" stroke-width="1" fill="none" />
<polyline points="0.0,56.0,511.5,56.0" stroke="black" stroke-width="1" fill="none" />
<polyline points="511.5,40.0,0.0,40.0,0.0,40.0,45.0,85.0" stroke="black" stroke-width="1" fill="none" />
<polyline points="35.0,85.0,73.0,47.0,75.0,51.0,24.0,0.0,24.0,0.0,24.0,492.0,22.5,496.0,182.5,496.0" stroke="black" stroke-width="1" fill="none" />
<polyline points="80.0,511.5,80.0,63.5,78.0,62.0,16.0,0.0,16.0,0.0,16.0,456.5" stroke="black" stroke-width="1" fill="none" />
<polyline points="4.5,475.5,2.5,477.5,2.5,474.5,16.0,488.0" stroke="black" stroke-width="1" fill="none" />
<polyline points="8.0,496.0,6.5,497.5,3.5,496.0,22.0,496.0" stroke="black" stroke-width="1" fill="none" />
<polyline points="15.5,495.5,2.0,482.0,0.0,480.0,177.5,480.0" stroke="black" stroke-width="1" fill="none" />
<polyline points="64.0,511.5,64.0,0.0" stroke="black" stroke-width="1" fill="none" />
<polyline points="59.0,3.0,56.0,0.0,56.0,0.0,56.0,511.5" stroke="black" stroke-width="1" fill="none" />
<polyline points="48.0,511.5,48.0,0.0,48.0,0.0,62.0,14.0" stroke="black" stroke-width="1" fill="none" />
<polyline points="72.0,19.5,72.0,31.0" stroke="black" stroke-width="1" fill="none" />
<polyline points="56.0,0.0,0.0,56.0,0.0,56.0,35.0,91.0" stroke="black" stroke-width="1" fill="none" />
<polyline points="27.5,100.5,19.5,108.5,19.0,109.0,0.0,128.0" stroke="black" stroke-width="1" fill="none" />
<polyline points="0.0,120.0,16.0,104.0" stroke="black" stroke-width="1" fill="none" />
<polyline points="5.5,106.5,0.0,112.0" stroke="black" stroke-width="1" fill="none" />
<polyline points="0.0,48.0,48.0,0.0" stroke="black" stroke-width="1" fill="none" />
<polyline points="40.0,0.0,40.0,511.5" stroke="black" stroke-width="1" fill="none" />
<polyline points="24.0,511.5,24.0,508.0,21.5,509.5,23.5,511.5" stroke="black" stroke-width="1" fill="none" />
<polyline points="2.5,485.5,4.5,483.5" stroke="black" stroke-width="1" fill="none" />
<polyline points="0.0,472.0,175.0,472.0" stroke="black" stroke-width="1" fill="none" />
<polyline points="164.0,432.0,0.0,432.0" stroke="black" stroke-width="1" fill="none" />
<polyline points="57.5,81.5,0.0,24.0,0.0,24.0,511.5,24.0" stroke="black" stroke-width="1" fill="none" />
<polyline points="511.5,8.0,135.5,8.0" stroke="black" stroke-width="1" fill="none" />
<polyline points="162.5,0.0,163.5,0.0,165.5,0.0,168.0,0.0,169.0,0.0,511.5,0.0" stroke="black" stroke-width="1" fill="none" />
<polyline points="136.0,64.0,134.5,62.5" stroke="black" stroke-width="1" fill="none" />
<polyline points="84.0,84.0,83.0,83.0" stroke="black" stroke-width="1" fill="none" />
<polyline points="66.5,26.5,40.0,0.0,40.0,0.0,0.0,40.0" stroke="black" stroke-width="1" fill="none" />
<polyline points="0.0,32.0,32.0,0.0" stroke="black" stroke-width="1" fill="none" />
<polyline points="24.0,0.0,0.0,24.0" stroke="black" stroke-width="1" fill="none" />
<polyline points="0.0,16.0,16.0,0.0" stroke="black" stroke-width="1" fill="none" />
<polyline points="8.0,0.0,0.0,8.0,0.0,8.0,93.5,8.0" stroke="black" stroke-width="1" fill="none" />
<polyline points="71.5,79.5,0.0,8.0" stroke="black" stroke-width="1" fill="none" />
<polyline points="0.0,0.0,0.0,0.0" stroke="black" stroke-width="1" fill="none" />
</svg>