<svg xmlns="http://www.w3.org/2000/svg" height="512px" width="512px" version="1.1"><polyline points="417.0,0.0,417.0,8.0,415.0,16.0,413.0,24.0,414.0,32.0,417.0,40.0,421.0,48.0,424.0,56.0,424.0,64.0,418.0,69.0,415.0,77.0,418.0,85.0,423.0,93.0,427.0,101.0,428.0,104.0,417.0,109.0,425.0,117.0,427.0,125.0,426.0,132.0,432.0,146.0,432.0,150.0,429.0,159.0,431.0,167.0,445.0,174.0,435.0,182.0,443.0,185.0,450.0,179.0,458.0,178.0" stroke="black" stroke-width="1" fill="none" />
<polyline points="440.0,176.0,432.0,176.0" stroke="black" stroke-width="1" fill="none" />
<polyline points="432.0,166.0,424.0,166.0" stroke="black" stroke-width="1" fill="none" />
<polyline points="418.0,169.0,426.0,174.0,434.0,174.0,438.0,171.0,446.0,173.0,454.0,174.0" stroke="black" stroke-width="1" fill="none" />
<polyline points="433.0,150.0,431.0,154.0,423.0,153.0,424.0,158.0,422.0,166.0,427.0,164.0,429.0,163.0,437.0,166.0,444.0,162.0,444.0,160.0,436.0,162.0,428.0,158.0,420.0,160.0" stroke="black" stroke-width="1" fill="none" />
<polyline points="415.0,171.0,421.0,171.0,430.0,179.0,433.0,182.0" stroke="black" stroke-width="1" fill="none" />
<polyline points="441.0,182.0,433.0,182.0,426.0,180.0,418.0,179.0,410.0,175.0,410.0,175.0,424.0,183.0,438.0,191.0" stroke="black" stroke-width="1" fill="none" />
<polyline points="406.0,170.0,398.0,178.0,392.0,186.0,391.0,194.0,391.0,202.0,389.0,203.0" stroke="black" stroke-width="1" fill="none" />
<polyline points="382.0,198.0,383.0,190.0,386.0,189.0" stroke="black" stroke-width="1" fill="none" />
<polyline points="379.0,190.0,379.0,198.0,374.0,206.0,373.0,214.0,373.0,222.0,373.0,230.0,373.0,238.0,372.0,246.0,372.0,254.0,371.0,262.0,369.0,270.0,366.0,278.0,363.0,286.0,359.0,294.0,355.0,302.0,350.0,310.0,344.0,318.0,338.0,326.0,332.0,334.0,325.0,342.0,326.0,340.0,334.0,330.0,342.0,320.0,350.0,310.0,358.0,296.0,366.0,278.0" stroke="black" stroke-width="1" fill="none" />
<polyline points="355.0,307.0,358.0,315.0,354.0,323.0,347.0,331.0,341.0,339.0,335.0,347.0,331.0,355.0,328.0,363.0,331.0,354.0,339.0,341.0,347.0,331.0,355.0,322.0" stroke="black" stroke-width="1" fill="none" />
<polyline points="363.0,316.0,355.0,307.0" stroke="black" stroke-width="1" fill="none" />
<polyline points="334.0,360.0,338.0,368.0,339.0,377.0,333.0,381.0,329.0,389.0,324.0,397.0,318.0,405.0,312.0,413.0,307.0,421.0,304.0,429.0,299.0,437.0,295.0,445.0,291.0,453.0,287.0,461.0,283.0,469.0,285.0,464.0,293.0,449.0,301.0,434.0,309.0,417.0,317.0,406.0,325.0,395.0,333.0,385.0,339.0,376.0" stroke="black" stroke-width="1" fill="none" />
<polyline points="341.0,370.0,333.0,361.0" stroke="black" stroke-width="1" fill="none" />
<polyline points="335.0,392.0,330.0,400.0,323.0,408.0,320.0,416.0,310.0,424.0,307.0,432.0,302.0,440.0,298.0,448.0,297.0,450.0,305.0,434.0,313.0,419.0,322.0,409.0,330.0,400.0,339.0,391.0,347.0,389.0,350.0,386.0,358.0,383.0,366.0,382.0" stroke="black" stroke-width="1" fill="none" />
<polyline points="359.0,394.0,351.0,402.0,345.0,410.0,339.0,418.0,335.0,426.0,332.0,434.0,328.0,442.0,324.0,450.0,322.0,458.0,318.0,466.0,315.0,474.0,311.0,482.0,308.0,490.0,305.0,498.0,301.0,506.0,303.0,501.0,311.0,482.0,319.0,464.0,327.0,452.0,335.0,445.0,343.0,440.0,351.0,434.0,359.0,428.0,367.0,421.0,375.0,414.0,379.0,411.0,370.0,419.0,360.0,427.0,349.0,435.0,338.0,443.0,328.0,451.0,329.0,440.0,337.0,422.0,345.0,409.0,353.0,400.0" stroke="black" stroke-width="1" fill="none" />
<polyline points="369.0,423.0,361.0,431.0,353.0,440.0,345.0,449.0,337.0,458.0,329.0,468.0,321.0,478.0,313.0,488.0,312.0,491.0,316.0,483.0,324.0,475.0,330.0,467.0,337.0,459.0,343.0,451.0,350.0,443.0,357.0,435.0,365.0,427.0,374.0,419.0" stroke="black" stroke-width="1" fill="none" />
<polyline points="413.0,367.0,405.0,378.0,397.0,388.0,389.0,398.0,387.0,402.0,393.0,394.0,399.0,386.0,405.0,378.0,411.0,370.0,418.0,362.0" stroke="black" stroke-width="1" fill="none" />
<polyline points="434.0,340.0,442.0,339.0,450.0,345.0" stroke="black" stroke-width="1" fill="none" />
<polyline points="449.0,337.0,457.0,352.0,461.0,356.0,469.0,356.0" stroke="black" stroke-width="1" fill="none" />
<polyline points="458.0,363.0,466.0,383.0" stroke="black" stroke-width="1" fill="none" />
<polyline points="487.0,353.0,495.0,354.0,500.0,356.0,501.0,364.0,501.0,372.0,501.0,380.0,502.0,388.0,503.0,396.0,503.0,404.0,503.0,412.0,505.0,420.0,505.0,428.0,505.0,436.0,506.0,444.0,507.0,452.0,507.0,460.0,507.0,471.0,508.0,479.0" stroke="black" stroke-width="1" fill="none" />
<polyline points="503.0,489.0,495.0,489.0,487.0,487.0" stroke="black" stroke-width="1" fill="none" />
<polyline points="474.0,493.0,492.0,500.0,508.0,508.0" stroke="black" stroke-width="1" fill="none" />
<polyline points="504.0,477.0,496.0,459.0,488.0,444.0,480.0,428.0" stroke="black" stroke-width="1" fill="none" />
<polyline points="460.0,466.0,468.0,467.0,476.0,467.0,482.0,473.0,490.0,475.0,498.0,477.0" stroke="black" stroke-width="1" fill="none" />
<polyline points="507.0,485.0,504.0,477.0,500.0,469.0,496.0,461.0,492.0,453.0,488.0,445.0,484.0,437.0,480.0,429.0,478.0,421.0,478.0,413.0,475.0,405.0,472.0,397.0,469.0,389.0,465.0,381.0,462.0,373.0,458.0,365.0,456.0,357.0,455.0,348.0,450.0,340.0,450.0,332.0,452.0,324.0,454.0,314.0,470.0,309.0,462.0,311.0,454.0,313.0" stroke="black" stroke-width="1" fill="none" />
<polyline points="465.0,311.0,466.0,319.0,455.0,321.0,463.0,321.0" stroke="black" stroke-width="1" fill="none" />
<polyline points="468.0,331.0,461.0,324.0,453.0,324.0,443.0,320.0,435.0,319.0,427.0,319.0,425.0,324.0,433.0,323.0,441.0,325.0,445.0,325.0,453.0,329.0,456.0,338.0,457.0,346.0,464.0,343.0,459.0,344.0,464.0,340.0,456.0,338.0" stroke="black" stroke-width="1" fill="none" />
<polyline points="461.0,333.0,460.0,328.0,452.0,328.0" stroke="black" stroke-width="1" fill="none" />
<polyline points="438.0,323.0,443.0,331.0,449.0,344.0,452.0,352.0,459.0,356.0,467.0,353.0" stroke="black" stroke-width="1" fill="none" />
<polyline points="488.0,338.0,490.0,330.0,487.0,322.0,484.0,320.0" stroke="black" stroke-width="1" fill="none" />
<polyline points="487.0,314.0,495.0,322.0,496.0,330.0,494.0,338.0,488.0,346.0,488.0,354.0,493.0,340.0" stroke="black" stroke-width="1" fill="none" />
<polyline points="486.0,336.0,485.0,328.0,484.0,320.0,474.0,314.0,473.0,313.0,481.0,312.0,489.0,314.0" stroke="black" stroke-width="1" fill="none" />
<polyline points="474.0,311.0,475.0,319.0,481.0,327.0,482.0,335.0,483.0,343.0,477.0,351.0" stroke="black" stroke-width="1" fill="none" />
<polyline points="477.0,345.0,469.0,348.0,471.0,344.0,471.0,336.0,465.0,329.0,470.0,319.0,469.0,311.0" stroke="black" stroke-width="1" fill="none" />
<polyline points="453.0,136.0,445.0,140.0,437.0,148.0,439.0,145.0,446.0,137.0,434.0,135.0,426.0,132.0" stroke="black" stroke-width="1" fill="none" />
<polyline points="438.0,136.0,428.0,141.0,436.0,138.0,444.0,136.0,452.0,134.0" stroke="black" stroke-width="1" fill="none" />
<polyline points="420.0,116.0,420.0,114.0" stroke="black" stroke-width="1" fill="none" />
<polyline points="417.0,108.0,418.0,106.0,424.0,107.0" stroke="black" stroke-width="1" fill="none" />
<polyline points="424.0,93.0,416.0,82.0" stroke="black" stroke-width="1" fill="none" />
<polyline points="421.0,71.0,413.0,70.0" stroke="black" stroke-width="1" fill="none" />
<polyline points="414.0,31.0,426.0,52.0,434.0,51.0,442.0,51.0,450.0,50.0,458.0,49.0,466.0,49.0,474.0,48.0,482.0,47.0,490.0,46.0,498.0,46.0,506.0,45.0" stroke="black" stroke-width="1" fill="none" />
<polyline points="374.0,183.0,366.0,174.0,358.0,170.0,359.0,169.0,367.0,177.0,374.0,185.0,374.0,193.0,379.0,202.0,386.0,195.0,387.0,190.0,395.0,186.0,403.0,173.0,411.0,170.0,419.0,174.0,424.0,182.0,432.0,184.0,436.0,189.0" stroke="black" stroke-width="1" fill="none" />
<polyline points="332.0,173.0,336.0,181.0,337.0,189.0,331.0,197.0" stroke="black" stroke-width="1" fill="none" />
<polyline points="245.0,339.0,237.0,342.0,232.0,347.0,240.0,339.0" stroke="black" stroke-width="1" fill="none" />
<polyline points="247.0,418.0,239.0,418.0,231.0,418.0,223.0,421.0,215.0,425.0,207.0,428.0,199.0,428.0" stroke="black" stroke-width="1" fill="none" />
<polyline points="212.0,426.0,230.0,418.0" stroke="black" stroke-width="1" fill="none" />
<polyline points="184.0,499.0,176.0,499.0,168.0,499.0,160.0,498.0" stroke="black" stroke-width="1" fill="none" />
<polyline points="168.0,500.0,164.0,508.0" stroke="black" stroke-width="1" fill="none" />
<polyline points="142.0,323.0,150.0,304.0,149.0,304.0,146.0,312.0,143.0,320.0,142.0,328.0,142.0,336.0,145.0,344.0" stroke="black" stroke-width="1" fill="none" />
<polyline points="17.0,393.0,9.0,385.0" stroke="black" stroke-width="1" fill="none" />
<polyline points="13.0,391.0,4.0,387.0,5.0,376.0,1.0,368.0" stroke="black" stroke-width="1" fill="none" />
<polyline points="0.0,359.0,8.0,366.0,16.0,386.0,27.0,388.0,35.0,394.0,43.0,397.0,51.0,400.0,59.0,408.0,67.0,419.0,75.0,429.0,83.0,439.0,91.0,450.0,99.0,462.0,107.0,472.0,115.0,480.0,123.0,486.0,131.0,490.0" stroke="black" stroke-width="1" fill="none" />
<polyline points="40.0,402.0,34.0,397.0,31.0,394.0,24.0,386.0,14.0,384.0,10.0,376.0,8.0,368.0,4.0,360.0,3.0,354.0,0.0,350.0" stroke="black" stroke-width="1" fill="none" />
<polyline points="0.0,329.0,8.0,341.0,16.0,354.0,24.0,365.0,32.0,374.0,40.0,386.0,48.0,395.0" stroke="black" stroke-width="1" fill="none" />
<polyline points="1.0,329.0,5.0,337.0,10.0,345.0,15.0,353.0,21.0,361.0,27.0,369.0,33.0,377.0,38.0,385.0,45.0,393.0,53.0,402.0,59.0,410.0,65.0,418.0,72.0,426.0,78.0,434.0,84.0,442.0,90.0,450.0,96.0,458.0,102.0,466.0,108.0,474.0,117.0,482.0,130.0,490.0" stroke="black" stroke-width="1" fill="none" />
<polyline points="397.0,507.0,405.0,505.0,412.0,503.0,420.0,501.0,428.0,501.0,436.0,501.0" stroke="black" stroke-width="1" fill="none" />
<polyline points="425.0,486.0,433.0,488.0,441.0,488.0,449.0,489.0,457.0,491.0,465.0,493.0,473.0,494.0,481.0,496.0,489.0,498.0,497.0,504.0,505.0,505.0" stroke="black" stroke-width="1" fill="none" />
<polyline points="89.0,185.0,85.0,177.0,85.0,169.0,90.0,161.0,101.0,154.0,93.0,159.0,85.0,169.0" stroke="black" stroke-width="1" fill="none" />
<polyline points="0.0,0.0,419.0,0.0,417.5,1.5,416.0,0.0,416.0,0.0,416.0,12.0,413.5,10.5,416.0,8.0,416.5,8.5,408.0,0.0,408.0,0.0,408.0,170.5,407.0,169.0,408.0,168.0" stroke="black" stroke-width="1" fill="none" />
<polyline points="403.5,164.5,401.0,167.0" stroke="black" stroke-width="1" fill="none" />
<polyline points="396.0,172.0,388.0,180.0,387.0,181.0,385.0,183.0,383.0,185.0,380.5,187.5" stroke="black" stroke-width="1" fill="none" />
<polyline points="375.5,184.5,399.5,160.5,402.0,158.0,404.5,155.5,408.5,151.5,411.5,148.5" stroke="black" stroke-width="1" fill="none" />
<polyline points="406.5,145.5,409.0,143.0,406.0,146.0,375.5,176.5,375.0,175.0,386.5,186.5,387.5,187.5,392.0,192.0,388.0,188.0,396.0,180.0" stroke="black" stroke-width="1" fill="none" />
<polyline points="401.0,169.0,240.0,8.0,239.5,7.5,232.0,0.0,232.0,0.0,232.0,211.5,232.0,212.0,232.0,214.0" stroke="black" stroke-width="1" fill="none" />
<polyline points="248.0,228.5,248.0,0.0,248.0,0.0,413.0,165.0" stroke="black" stroke-width="1" fill="none" />
<polyline points="409.0,159.0,409.5,158.5" stroke="black" stroke-width="1" fill="none" />
<polyline points="421.0,157.0,423.0,159.0,424.0,159.0,424.0,154.5" stroke="black" stroke-width="1" fill="none" />
<polyline points="417.5,153.5,264.0,0.0,264.0,0.0,264.0,239.5,264.0,241.0,264.0,250.0,264.0,252.0,264.0,257.0,264.0,259.0,264.0,311.5" stroke="black" stroke-width="1" fill="none" />
<polyline points="280.0,313.5,280.0,309.0,280.0,314.0,280.0,318.0,280.0,319.5,280.0,321.5,280.0,324.5,280.0,348.5" stroke="black" stroke-width="1" fill="none" />
<polyline points="288.0,347.5,288.0,350.0,288.0,355.5,288.0,359.5" stroke="black" stroke-width="1" fill="none" />
<polyline points="272.0,344.0,272.0,343.5,272.0,342.5,272.0,268.5,272.0,268.0,272.0,262.5,272.0,260.5,272.0,260.0,272.0,259.0,272.0,256.0,272.0,250.5,272.0,246.5" stroke="black" stroke-width="1" fill="none" />
<polyline points="280.0,245.5,280.0,241.5" stroke="black" stroke-width="1" fill="none" />
<polyline points="304.0,243.0,304.0,245.0" stroke="black" stroke-width="1" fill="none" />
<polyline points="285.5,213.5,284.0,212.0" stroke="black" stroke-width="1" fill="none" />
<polyline points="289.0,199.0,313.5,174.5" stroke="black" stroke-width="1" fill="none" />
<polyline points="315.0,181.0,299.5,196.5" stroke="black" stroke-width="1" fill="none" />
<polyline points="304.0,200.0,313.5,190.5" stroke="black" stroke-width="1" fill="none" />
<polyline points="316.0,180.0,287.5,151.5" stroke="black" stroke-width="1" fill="none" />
<polyline points="281.5,153.5,315.5,187.5" stroke="black" stroke-width="1" fill="none" />
<polyline points="313.5,193.5,278.5,158.5" stroke="black" stroke-width="1" fill="none" />
<polyline points="274.0,162.0,310.5,198.5" stroke="black" stroke-width="1" fill="none" />
<polyline points="305.5,201.5,271.5,167.5,267.5,171.5,278.0,182.0,278.5,182.5,301.0,205.0" stroke="black" stroke-width="1" fill="none" />
<polyline points="294.5,201.5,299.0,197.0" stroke="black" stroke-width="1" fill="none" />
<polyline points="286.0,194.0,309.5,170.5" stroke="black" stroke-width="1" fill="none" />
<polyline points="313.0,159.0,319.5,152.5" stroke="black" stroke-width="1" fill="none" />
<polyline points="324.5,147.5,399.0,73.0,399.5,72.5,412.0,60.0,413.0,59.0,413.5,58.5,415.5,56.5,421.0,51.0" stroke="black" stroke-width="1" fill="none" />
<polyline points="421.0,59.0,420.0,60.0,419.5,59.5,422.0,62.0,422.5,62.5,423.5,63.5,423.5,64.5,422.5,65.5,424.0,66.0,424.0,67.5,419.5,67.5,418.0,66.0,418.0,62.0,418.5,61.5,415.5,64.5,406.0,74.0" stroke="black" stroke-width="1" fill="none" />
<polyline points="409.5,78.5,411.5,76.5,414.0,74.0,415.0,73.0,413.5,69.5,344.0,0.0,344.0,0.0,344.0,196.0" stroke="black" stroke-width="1" fill="none" />
<polyline points="338.5,194.5,337.0,193.0,336.0,192.0,336.0,206.5" stroke="black" stroke-width="1" fill="none" />
<polyline points="328.0,212.5,328.0,197.0" stroke="black" stroke-width="1" fill="none" />
<polyline points="320.0,200.0,320.0,218.0" stroke="black" stroke-width="1" fill="none" />
<polyline points="341.0,189.0,338.5,186.5" stroke="black" stroke-width="1" fill="none" />
<polyline points="341.5,181.5,337.5,177.5,339.0,173.0,346.0,166.0,346.5,165.5,355.5,156.5" stroke="black" stroke-width="1" fill="none" />
<polyline points="359.0,161.0,353.0,167.0" stroke="black" stroke-width="1" fill="none" />
<polyline points="359.5,168.5,362.0,166.0" stroke="black" stroke-width="1" fill="none" />
<polyline points="367.0,169.0,369.0,167.0,371.5,164.5,373.0,163.0,370.0,162.0,393.5,185.5" stroke="black" stroke-width="1" fill="none" />
<polyline points="396.5,180.5,247.5,31.5,246.0,30.0,243.0,27.0,242.5,26.5,241.5,25.5,240.0,24.0,239.5,23.5,238.0,22.0,237.0,21.0,236.0,20.0,235.5,19.5,234.0,18.0,232.0,16.0,236.0,12.0,235.5,11.5,236.5,12.5,241.5,17.5,242.0,18.0,400.0,176.0" stroke="black" stroke-width="1" fill="none" />
<polyline points="409.5,169.5,240.0,0.0,240.0,0.0,240.0,225.5" stroke="black" stroke-width="1" fill="none" />
<polyline points="256.0,244.5,256.0,246.5" stroke="black" stroke-width="1" fill="none" />
<polyline points="280.0,240.5,280.0,0.0,280.0,0.0,400.0,120.0,401.0,121.0,413.0,133.0,414.0,134.0,415.5,135.5,410.5,133.5,408.0,136.0,405.5,138.5,373.5,170.5" stroke="black" stroke-width="1" fill="none" />
<polyline points="376.0,160.0,405.5,130.5" stroke="black" stroke-width="1" fill="none" />
<polyline points="398.0,130.0,405.0,123.0" stroke="black" stroke-width="1" fill="none" />
<polyline points="402.0,118.0,406.0,114.0,406.5,113.5,412.0,108.0,408.0,104.0,409.0,103.0,407.0,105.0,402.5,109.5,400.5,111.5,395.0,117.0" stroke="black" stroke-width="1" fill="none" />
<polyline points="398.0,122.0,374.5,145.5,370.5,149.5,368.5,151.5" stroke="black" stroke-width="1" fill="none" />
<polyline points="370.5,157.5,395.0,133.0,395.5,132.5,396.0,132.0" stroke="black" stroke-width="1" fill="none" />
<polyline points="393.5,118.5,370.0,142.0" stroke="black" stroke-width="1" fill="none" />
<polyline points="366.5,137.5,364.5,139.5,361.0,143.0,359.0,145.0,356.0,148.0,355.5,148.5" stroke="black" stroke-width="1" fill="none" />
<polyline points="354.0,142.0,355.5,140.5,358.5,137.5,362.0,134.0,363.5,132.5,382.0,114.0,383.0,113.0,409.0,87.0,413.0,83.0,415.0,81.0,416.0,83.5,416.0,127.0,416.0,129.5,416.0,139.5,416.0,142.5,416.0,169.0" stroke="black" stroke-width="1" fill="none" />
<polyline points="417.5,161.5,256.0,0.0,256.0,0.0,256.0,243.5" stroke="black" stroke-width="1" fill="none" />
<polyline points="288.0,244.5,288.0,0.0,288.0,0.0,413.5,125.5" stroke="black" stroke-width="1" fill="none" />
<polyline points="421.5,125.5,422.5,126.5,424.0,123.5,424.0,132.5" stroke="black" stroke-width="1" fill="none" />
<polyline points="424.0,143.5,424.0,150.5" stroke="black" stroke-width="1" fill="none" />
<polyline points="432.0,149.0,432.0,146.5" stroke="black" stroke-width="1" fill="none" />
<polyline points="434.5,152.0,437.0,152.0" stroke="black" stroke-width="1" fill="none" />
<polyline points="435.0,160.0,439.0,160.0" stroke="black" stroke-width="1" fill="none" />
<polyline points="433.0,160.0,429.5,160.0" stroke="black" stroke-width="1" fill="none" />
<polyline points="424.0,167.0,424.0,172.5" stroke="black" stroke-width="1" fill="none" />
<polyline points="431.0,176.0,438.0,176.0,439.0,176.0,446.0,176.0,451.5,176.0,457.5,176.0" stroke="black" stroke-width="1" fill="none" />
<polyline points="431.0,168.0,0.0,168.0" stroke="black" stroke-width="1" fill="none" />
<polyline points="0.0,160.0,426.0,160.0" stroke="black" stroke-width="1" fill="none" />
<polyline points="432.5,152.0,0.0,152.0" stroke="black" stroke-width="1" fill="none" />
<polyline points="1.0,145.0,0.0,144.0,0.0,144.0,438.5,144.0" stroke="black" stroke-width="1" fill="none" />
<polyline points="437.0,136.0,436.0,136.0" stroke="black" stroke-width="1" fill="none" />
<polyline points="424.0,120.5,424.0,116.5,419.0,115.0,304.0,0.0,304.0,0.0,304.0,239.5" stroke="black" stroke-width="1" fill="none" />
<polyline points="291.5,203.5,283.0,195.0" stroke="black" stroke-width="1" fill="none" />
<polyline points="283.0,189.0,294.0,178.0,296.5,175.5,305.0,167.0" stroke="black" stroke-width="1" fill="none" />
<polyline points="305.5,158.5,311.5,152.5" stroke="black" stroke-width="1" fill="none" />
<polyline points="306.5,149.5,306.0,150.0" stroke="black" stroke-width="1" fill="none" />
<polyline points="299.0,149.0,297.5,150.5" stroke="black" stroke-width="1" fill="none" />
<polyline points="300.5,155.5,293.0,163.0,291.5,164.5,290.0,166.0" stroke="black" stroke-width="1" fill="none" />
<polyline points="298.0,166.0,282.0,182.0" stroke="black" stroke-width="1" fill="none" />
<polyline points="274.0,182.0,272.5,183.5,272.0,184.0,269.0,187.0,267.5,187.5,282.5,202.5" stroke="black" stroke-width="1" fill="none" />
<polyline points="269.0,195.0,268.0,196.0,265.5,193.5,272.0,200.0" stroke="black" stroke-width="1" fill="none" />
<polyline points="275.5,187.5,269.0,181.0,268.0,180.0,266.5,178.5" stroke="black" stroke-width="1" fill="none" />
<polyline points="290.5,157.5,292.0,156.0" stroke="black" stroke-width="1" fill="none" />
<polyline points="285.0,141.0,307.0,163.0" stroke="black" stroke-width="1" fill="none" />
<polyline points="320.5,159.5,327.0,153.0,328.5,151.5,344.5,135.5,345.0,135.0,387.0,93.0,387.5,92.5,403.5,76.5" stroke="black" stroke-width="1" fill="none" />
<polyline points="416.0,88.0,417.0,87.0" stroke="black" stroke-width="1" fill="none" />
<polyline points="420.0,92.0,422.0,94.0,424.0,95.5,424.0,96.5,424.0,98.5,424.0,99.0,424.0,100.0,424.0,104.0,423.0,103.0,421.5,101.5" stroke="black" stroke-width="1" fill="none" />
<polyline points="415.0,103.0,413.0,101.0" stroke="black" stroke-width="1" fill="none" />
<polyline points="405.0,99.0,369.0,135.0" stroke="black" stroke-width="1" fill="none" />
<polyline points="354.0,134.0,375.0,113.0,376.5,111.5,407.5,80.5" stroke="black" stroke-width="1" fill="none" />
<polyline points="412.5,76.5,336.0,0.0,336.0,0.0,336.0,179.5" stroke="black" stroke-width="1" fill="none" />
<polyline points="344.0,176.0,348.5,171.5" stroke="black" stroke-width="1" fill="none" />
<polyline points="335.5,168.5,346.5,157.5,347.5,156.5,350.0,154.0" stroke="black" stroke-width="1" fill="none" />
<polyline points="347.5,148.5,344.0,152.0,341.5,154.5,331.0,165.0" stroke="black" stroke-width="1" fill="none" />
<polyline points="326.0,162.0,343.0,145.0,345.5,145.5,371.0,171.0" stroke="black" stroke-width="1" fill="none" />
<polyline points="374.0,182.0,383.0,191.0,386.0,192.0,393.0,192.0,392.0,193.5,392.0,0.0,392.0,0.0,413.5,21.5" stroke="black" stroke-width="1" fill="none" />
<polyline points="412.5,27.5,312.5,127.5" stroke="black" stroke-width="1" fill="none" />
<polyline points="308.0,124.0,353.0,169.0" stroke="black" stroke-width="1" fill="none" />
<polyline points="364.5,172.5,252.0,60.0,251.0,59.0,248.5,56.5,246.5,54.5,244.0,52.0,243.5,51.5,241.5,49.5" stroke="black" stroke-width="1" fill="none" />
<polyline points="245.0,45.0,344.5,144.5,346.5,141.5,348.0,140.0,350.0,138.0,352.5,135.5" stroke="black" stroke-width="1" fill="none" />
<polyline points="321.5,142.5,418.5,45.5" stroke="black" stroke-width="1" fill="none" />
<polyline points="416.5,39.5,318.5,137.5,316.5,140.5,351.0,175.0" stroke="black" stroke-width="1" fill="none" />
<polyline points="352.0,184.0,313.0,145.0" stroke="black" stroke-width="1" fill="none" />
<polyline points="306.5,138.5,304.5,136.5" stroke="black" stroke-width="1" fill="none" />
<polyline points="303.0,143.0,327.5,167.5" stroke="black" stroke-width="1" fill="none" />
<polyline points="317.0,165.0,286.5,134.5" stroke="black" stroke-width="1" fill="none" />
<polyline points="292.0,132.0,300.0,140.0" stroke="black" stroke-width="1" fill="none" />
<polyline points="291.5,131.5,288.0,128.0,287.0,127.0,285.5,125.5,284.0,124.0,283.0,123.0,280.5,120.5,279.0,119.0" stroke="black" stroke-width="1" fill="none" />
<polyline points="287.0,119.0,292.5,124.5" stroke="black" stroke-width="1" fill="none" />
<polyline points="297.5,121.5,256.5,80.5,256.0,80.0,253.0,77.0,251.0,75.0,243.0,67.0" stroke="black" stroke-width="1" fill="none" />
<polyline points="249.0,65.0,305.0,121.0,306.5,117.5,412.5,11.5" stroke="black" stroke-width="1" fill="none" />
<polyline points="409.5,6.5,411.0,5.0,414.0,2.0,416.0,0.0" stroke="black" stroke-width="1" fill="none" />
<polyline points="420.0,8.0,422.5,8.0" stroke="black" stroke-width="1" fill="none" />
<polyline points="422.0,16.0,418.5,16.0" stroke="black" stroke-width="1" fill="none" />
<polyline points="414.0,34.0,322.0,126.0,321.5,126.5,315.5,132.5" stroke="black" stroke-width="1" fill="none" />
<polyline points="309.5,122.5,413.0,19.0" stroke="black" stroke-width="1" fill="none" />
<polyline points="407.5,8.5,303.5,112.5" stroke="black" stroke-width="1" fill="none" />
<polyline points="301.5,106.5,406.0,2.0" stroke="black" stroke-width="1" fill="none" />
<polyline points="400.0,0.0,400.0,178.0" stroke="black" stroke-width="1" fill="none" />
<polyline points="384.0,194.5,384.0,195.5,382.0,194.0,380.0,196.0,379.5,195.5,381.5,197.5,382.0,200.0,378.5,200.0" stroke="black" stroke-width="1" fill="none" />
<polyline points="376.5,192.5,375.5,191.5" stroke="black" stroke-width="1" fill="none" />
<polyline points="384.0,187.5,384.0,0.0,384.0,0.0,412.5,28.5" stroke="black" stroke-width="1" fill="none" />
<polyline points="416.0,37.0,416.0,69.0,416.5,64.5,352.0,0.0,352.0,0.0,352.0,199.0" stroke="black" stroke-width="1" fill="none" />
<polyline points="360.0,194.0,360.0,191.0,360.0,190.0,360.0,179.5" stroke="black" stroke-width="1" fill="none" />
<polyline points="365.0,157.0,250.0,42.0,249.5,41.5,248.5,40.5,248.0,40.0,244.5,36.5,241.5,33.5,239.5,31.5,239.0,31.0,237.5,29.5" stroke="black" stroke-width="1" fill="none" />
<polyline points="232.5,32.5,235.0,35.0,237.5,37.5,238.5,38.5,240.0,40.0,240.5,40.5,242.0,42.0,243.0,43.0" stroke="black" stroke-width="1" fill="none" />
<polyline points="235.5,51.5,236.0,52.0,239.0,55.0,241.0,57.0" stroke="black" stroke-width="1" fill="none" />
<polyline points="230.5,46.5,225.0,41.0" stroke="black" stroke-width="1" fill="none" />
<polyline points="228.5,36.5,226.0,34.0,222.0,38.0,220.5,36.5" stroke="black" stroke-width="1" fill="none" />
<polyline points="219.5,43.5,220.5,44.5" stroke="black" stroke-width="1" fill="none" />
<polyline points="231.0,39.0,232.0,40.0" stroke="black" stroke-width="1" fill="none" />
<polyline points="225.0,57.0,226.5,58.5" stroke="black" stroke-width="1" fill="none" />
<polyline points="244.5,76.5,248.0,80.0,249.5,81.5,255.5,87.5,259.0,91.0,275.0,107.0,277.0,109.0,285.5,117.5" stroke="black" stroke-width="1" fill="none" />
<polyline points="287.0,105.0,390.5,1.5" stroke="black" stroke-width="1" fill="none" />
<polyline points="399.5,0.5,400.0,0.0,400.0,0.0,415.0,15.0" stroke="black" stroke-width="1" fill="none" />
<polyline points="398.5,1.5,389.0,11.0,387.5,12.5,299.0,101.0" stroke="black" stroke-width="1" fill="none" />
<polyline points="284.5,99.5,384.0,0.0" stroke="black" stroke-width="1" fill="none" />
<polyline points="376.0,0.0,376.0,198.0" stroke="black" stroke-width="1" fill="none" />
<polyline points="373.5,208.0,0.0,208.0" stroke="black" stroke-width="1" fill="none" />
<polyline points="0.0,200.0,377.0,200.0" stroke="black" stroke-width="1" fill="none" />
<polyline points="388.0,200.0,390.0,200.0" stroke="black" stroke-width="1" fill="none" />
<polyline points="413.5,117.5,296.0,0.0,296.0,0.0,296.0,247.5" stroke="black" stroke-width="1" fill="none" />
<polyline points="312.0,233.5,312.0,0.0,312.0,0.0,411.0,99.0" stroke="black" stroke-width="1" fill="none" />
<polyline points="419.5,91.5,328.0,0.0,328.0,0.0,328.0,175.5" stroke="black" stroke-width="1" fill="none" />
<polyline points="283.5,131.5,281.5,129.5" stroke="black" stroke-width="1" fill="none" />
<polyline points="266.5,106.5,263.5,103.5,261.5,101.5,258.5,98.5" stroke="black" stroke-width="1" fill="none" />
<polyline points="254.0,94.0,253.5,93.5,252.0,92.0,250.5,90.5,247.5,87.5,246.5,86.5,245.0,85.0,242.0,82.0" stroke="black" stroke-width="1" fill="none" />
<polyline points="243.5,91.5,244.0,92.0" stroke="black" stroke-width="1" fill="none" />
<polyline points="252.0,100.0,255.0,103.0,258.0,106.0,259.0,107.0" stroke="black" stroke-width="1" fill="none" />
<polyline points="279.5,96.5,376.0,0.0,376.0,0.0,417.0,41.0" stroke="black" stroke-width="1" fill="none" />
<polyline points="422.0,54.0,368.0,0.0,368.0,0.0,368.0,177.5" stroke="black" stroke-width="1" fill="none" />
<polyline points="409.0,137.0,272.0,0.0,272.0,0.0,272.0,244.0" stroke="black" stroke-width="1" fill="none" />
<polyline points="280.0,275.0,280.0,277.0,280.0,279.0,280.0,280.0" stroke="black" stroke-width="1" fill="none" />
<polyline points="280.0,287.5,280.0,291.5,280.0,293.0,280.0,297.0,280.0,299.5,280.0,300.5" stroke="black" stroke-width="1" fill="none" />
<polyline points="256.0,297.5,256.0,280.5,256.0,279.0,256.0,278.5" stroke="black" stroke-width="1" fill="none" />
<polyline points="248.0,339.5,248.0,358.0" stroke="black" stroke-width="1" fill="none" />
<polyline points="242.0,354.0,241.0,353.0" stroke="black" stroke-width="1" fill="none" />
<polyline points="242.0,346.0,239.5,343.5,240.0,339.5,240.0,360.0" stroke="black" stroke-width="1" fill="none" />
<polyline points="232.0,363.0,232.0,348.0" stroke="black" stroke-width="1" fill="none" />
<polyline points="224.0,351.5,224.0,403.0,224.0,406.5,224.0,511.5" stroke="black" stroke-width="1" fill="none" />
<polyline points="232.0,507.0,232.0,506.5,232.0,504.5,232.0,501.0,232.0,500.0,232.0,497.0" stroke="black" stroke-width="1" fill="none" />
<polyline points="240.0,509.5,240.0,465.0,240.0,464.0,240.0,462.5" stroke="black" stroke-width="1" fill="none" />
<polyline points="232.0,465.0,232.0,495.0" stroke="black" stroke-width="1" fill="none" />
<polyline points="216.0,497.5,216.0,511.5" stroke="black" stroke-width="1" fill="none" />
<polyline points="216.0,497.0,216.0,409.5,216.0,407.5,216.0,406.0,216.0,405.0,216.0,352.0" stroke="black" stroke-width="1" fill="none" />
<polyline points="208.0,350.5,208.0,404.5,208.0,408.5,208.0,511.5" stroke="black" stroke-width="1" fill="none" />
<polyline points="200.0,511.5,200.0,335.0" stroke="black" stroke-width="1" fill="none" />
<polyline points="192.0,332.0,192.0,398.0" stroke="black" stroke-width="1" fill="none" />
<polyline points="192.0,405.0,192.0,497.5" stroke="black" stroke-width="1" fill="none" />
<polyline points="192.0,507.5,192.0,509.5" stroke="black" stroke-width="1" fill="none" />
<polyline points="184.0,498.5,184.0,405.5" stroke="black" stroke-width="1" fill="none" />
<polyline points="176.0,408.5,176.0,498.5,176.5,504.0,481.5,504.0,484.0,504.0,488.0,504.0" stroke="black" stroke-width="1" fill="none" />
<polyline points="505.0,480.0,510.0,480.0,507.5,476.5,505.5,478.5" stroke="black" stroke-width="1" fill="none" />
<polyline points="503.5,472.5,507.0,469.0,507.5,467.5,493.5,453.5,494.0,456.0,509.0,456.0,507.0,461.0,500.5,467.5,501.5,469.5,507.5,475.5,504.0,477.5,504.0,417.0" stroke="black" stroke-width="1" fill="none" />
<polyline points="504.5,423.5,502.0,426.0" stroke="black" stroke-width="1" fill="none" />
<polyline points="504.5,431.5,502.5,433.5" stroke="black" stroke-width="1" fill="none" />
<polyline points="505.0,439.0,503.0,441.0" stroke="black" stroke-width="1" fill="none" />
<polyline points="505.0,447.0,495.5,456.5" stroke="black" stroke-width="1" fill="none" />
<polyline points="493.0,451.0,501.0,443.0,497.0,439.0,493.0,443.0,492.5,443.5,490.0,446.0,489.5,448.0,508.0,448.0" stroke="black" stroke-width="1" fill="none" />
<polyline points="506.5,453.5,498.0,462.0,498.5,464.0,511.5,464.0" stroke="black" stroke-width="1" fill="none" />
<polyline points="507.5,459.5,486.5,438.5,486.0,438.0,485.5,437.5,486.0,440.0,506.5,440.0" stroke="black" stroke-width="1" fill="none" />
<polyline points="493.0,435.0,491.5,436.5,491.0,437.0,487.5,440.5" stroke="black" stroke-width="1" fill="none" />
<polyline points="485.0,435.0,487.0,433.0,482.0,432.0,506.0,432.0" stroke="black" stroke-width="1" fill="none" />
<polyline points="501.0,411.0,502.5,409.5" stroke="black" stroke-width="1" fill="none" />
<polyline points="501.0,403.0,502.5,401.5" stroke="black" stroke-width="1" fill="none" />
<polyline points="500.5,395.5,502.5,393.5,502.5,390.5,500.0,388.0,498.0,386.0,497.0,385.0,501.0,381.0,498.0,378.0,499.0,373.0,500.5,371.5,500.5,372.5,497.5,369.5,499.0,365.0,500.0,364.0,500.5,364.5,498.0,362.0,498.0,358.0,500.0,356.0,496.0,354.5,496.0,459.0" stroke="black" stroke-width="1" fill="none" />
<polyline points="506.5,450.5,480.0,424.0,480.5,423.5,482.0,422.0,478.5,424.0,506.0,424.0" stroke="black" stroke-width="1" fill="none" />
<polyline points="503.0,407.0,485.5,389.5,483.5,387.5,482.0,386.0,480.5,384.5,479.0,383.0" stroke="black" stroke-width="1" fill="none" />
<polyline points="475.5,387.5,473.5,385.5,471.0,385.0,469.5,386.5,472.0,384.0,471.5,383.5,468.0,380.0,466.5,381.5,466.5,384.0,503.0,384.0" stroke="black" stroke-width="1" fill="none" />
<polyline points="495.5,391.5,494.5,390.5,496.5,392.5,503.0,399.0" stroke="black" stroke-width="1" fill="none" />
<polyline points="494.0,390.0,486.5,382.5" stroke="black" stroke-width="1" fill="none" />
<polyline points="489.5,377.5,491.5,379.5" stroke="black" stroke-width="1" fill="none" />
<polyline points="477.0,389.0,503.0,415.0" stroke="black" stroke-width="1" fill="none" />
<polyline points="504.5,424.5,478.0,398.0,476.0,396.0,474.0,398.0,473.5,400.0,503.5,400.0" stroke="black" stroke-width="1" fill="none" />
<polyline points="487.5,415.5,505.0,433.0" stroke="black" stroke-width="1" fill="none" />
<polyline points="484.5,427.5,482.0,430.0" stroke="black" stroke-width="1" fill="none" />
<polyline points="479.5,416.5,481.0,415.0,479.0,415.0,505.0,441.0" stroke="black" stroke-width="1" fill="none" />
<polyline points="488.0,443.5,488.0,354.5,486.0,354.0,484.0,356.0" stroke="black" stroke-width="1" fill="none" />
<polyline points="486.0,350.0,483.0,347.0,483.0,349.0,494.0,338.0,495.0,335.0,491.0,331.0,491.0,333.0,496.0,328.0,496.5,328.5,480.5,312.5,480.0,312.5,480.0,323.5,479.5,320.5,486.0,314.0,488.0,314.5,488.0,322.5,487.5,320.5,491.0,317.0" stroke="black" stroke-width="1" fill="none" />
<polyline points="494.5,321.5,491.0,325.0,490.5,328.0,497.0,328.0,496.0,324.0,496.0,334.5,496.0,336.0,490.5,336.0,490.0,338.0,492.5,340.5,488.0,341.5,488.0,347.5,489.5,345.5,483.5,339.5,484.0,340.0,485.5,338.5,486.5,336.0,482.0,336.0,483.0,333.0,485.0,331.0,482.5,330.5,485.5,333.5,486.0,328.0,481.5,328.0,482.0,326.0,483.5,324.5,483.5,323.5,477.5,317.5,477.0,315.0,479.5,312.5,482.0,312.0,473.0,312.0" stroke="black" stroke-width="1" fill="none" />
<polyline points="475.5,320.0,495.0,320.0" stroke="black" stroke-width="1" fill="none" />
<polyline points="491.5,344.0,482.5,344.0,480.0,346.5,480.0,428.5" stroke="black" stroke-width="1" fill="none" />
<polyline points="478.0,416.0,505.0,416.0" stroke="black" stroke-width="1" fill="none" />
<polyline points="480.0,408.0,478.5,409.5,476.0,408.0,504.0,408.0" stroke="black" stroke-width="1" fill="none" />
<polyline points="478.0,402.0,476.0,404.0,476.0,404.0,487.0,415.0" stroke="black" stroke-width="1" fill="none" />
<polyline points="472.0,392.0,473.5,390.5,470.5,390.5,477.5,397.5" stroke="black" stroke-width="1" fill="none" />
<polyline points="472.0,395.0,472.0,355.5,468.5,356.5,474.5,362.5" stroke="black" stroke-width="1" fill="none" />
<polyline points="476.5,356.5,481.0,361.0" stroke="black" stroke-width="1" fill="none" />
<polyline points="489.0,361.0,479.5,351.5" stroke="black" stroke-width="1" fill="none" />
<polyline points="490.5,354.5,496.0,360.0" stroke="black" stroke-width="1" fill="none" />
<polyline points="491.5,356.5,493.5,354.5" stroke="black" stroke-width="1" fill="none" />
<polyline points="467.0,357.0,462.5,361.5,461.0,363.0,459.5,364.5,458.5,362.5,466.5,370.5,467.5,371.5,469.5,373.5,466.0,374.0,464.5,375.5,464.0,376.0,471.0,383.0" stroke="black" stroke-width="1" fill="none" />
<polyline points="470.0,392.0,503.5,392.0" stroke="black" stroke-width="1" fill="none" />
<polyline points="464.0,377.0,464.0,356.0,465.0,353.0,464.0,352.0,464.0,350.5,464.0,354.0,460.5,356.5,467.5,363.5" stroke="black" stroke-width="1" fill="none" />
<polyline points="463.5,368.5,462.0,370.0,459.5,368.0,501.5,368.0" stroke="black" stroke-width="1" fill="none" />
<polyline points="501.5,376.0,463.0,376.0" stroke="black" stroke-width="1" fill="none" />
<polyline points="456.5,360.0,501.5,360.0" stroke="black" stroke-width="1" fill="none" />
<polyline points="464.0,345.5,464.0,344.5,464.0,340.0,464.0,333.5,462.0,330.0,463.0,329.0,464.0,329.0,464.0,330.5,464.0,326.0,464.0,325.5,467.0,328.0,449.5,328.0,445.5,328.0,444.0,328.0,443.5,323.5,441.0,321.0,440.0,320.5,440.0,324.5" stroke="black" stroke-width="1" fill="none" />
<polyline points="434.0,322.0,433.5,321.5,432.0,322.0,432.0,320.5,427.5,320.0,443.5,320.0" stroke="black" stroke-width="1" fill="none" />
<polyline points="457.5,320.0,465.5,320.0" stroke="black" stroke-width="1" fill="none" />
<polyline points="465.5,312.0,461.5,312.0" stroke="black" stroke-width="1" fill="none" />
<polyline points="453.0,333.0,454.0,334.0,456.0,334.5,456.0,338.5,456.0,341.5,456.0,347.5,456.5,352.0,486.5,352.0" stroke="black" stroke-width="1" fill="none" />
<polyline points="459.5,356.5,458.0,358.0" stroke="black" stroke-width="1" fill="none" />
<polyline points="453.0,344.0,471.5,344.0" stroke="black" stroke-width="1" fill="none" />
<polyline points="454.5,342.5,452.5,340.5" stroke="black" stroke-width="1" fill="none" />
<polyline points="448.5,336.0,471.5,336.0" stroke="black" stroke-width="1" fill="none" />
<polyline points="426.5,320.0,426.0,320.0" stroke="black" stroke-width="1" fill="none" />
<polyline points="426.0,360.0,426.5,360.0" stroke="black" stroke-width="1" fill="none" />
<polyline points="411.5,376.0,410.5,376.0" stroke="black" stroke-width="1" fill="none" />
<polyline points="412.0,384.0,401.5,384.0" stroke="black" stroke-width="1" fill="none" />
<polyline points="403.0,392.0,395.0,392.0" stroke="black" stroke-width="1" fill="none" />
<polyline points="394.0,400.0,389.5,400.0" stroke="black" stroke-width="1" fill="none" />
<polyline points="387.5,408.0,384.0,408.0" stroke="black" stroke-width="1" fill="none" />
<polyline points="384.5,424.0,387.5,424.0" stroke="black" stroke-width="1" fill="none" />
<polyline points="368.0,424.0,368.0,422.5" stroke="black" stroke-width="1" fill="none" />
<polyline points="363.0,427.0,363.5,427.5,360.0,428.5,360.0,433.5,360.0,432.0,358.5,430.5" stroke="black" stroke-width="1" fill="none" />
<polyline points="354.0,434.0,356.0,436.0,352.0,434.0,352.0,442.5,348.5,444.5,345.0,441.0,344.0,439.5,344.0,452.0,340.5,452.5,336.0,448.0,336.0,445.5,336.0,462.5" stroke="black" stroke-width="1" fill="none" />
<polyline points="330.0,466.0,323.5,459.5,321.0,456.0,365.5,456.0" stroke="black" stroke-width="1" fill="none" />
<polyline points="369.5,464.0,372.5,464.0,376.0,464.0,377.0,464.0" stroke="black" stroke-width="1" fill="none" />
<polyline points="380.0,472.0,372.5,472.0" stroke="black" stroke-width="1" fill="none" />
<polyline points="370.0,480.0,387.5,480.0" stroke="black" stroke-width="1" fill="none" />
<polyline points="386.5,488.0,391.5,488.0,392.5,488.0,395.5,488.0,396.5,488.0,401.0,488.0,406.0,488.0,410.0,488.0" stroke="black" stroke-width="1" fill="none" />
<polyline points="405.0,480.0,398.5,480.0" stroke="black" stroke-width="1" fill="none" />
<polyline points="387.0,472.0,381.5,472.0" stroke="black" stroke-width="1" fill="none" />
<polyline points="368.5,480.0,69.5,480.0,67.0,480.0,0.0,480.0" stroke="black" stroke-width="1" fill="none" />
<polyline points="0.0,472.0,75.0,472.0" stroke="black" stroke-width="1" fill="none" />
<polyline points="74.5,464.0,72.5,464.0" stroke="black" stroke-width="1" fill="none" />
<polyline points="64.5,464.0,61.5,464.0,60.0,464.0,0.0,464.0" stroke="black" stroke-width="1" fill="none" />
<polyline points="0.0,456.0,55.5,456.0,58.0,456.0,59.0,456.0" stroke="black" stroke-width="1" fill="none" />
<polyline points="59.0,448.0,61.0,448.0" stroke="black" stroke-width="1" fill="none" />
<polyline points="53.5,448.0,0.0,448.0" stroke="black" stroke-width="1" fill="none" />
<polyline points="0.0,440.0,55.0,440.0" stroke="black" stroke-width="1" fill="none" />
<polyline points="54.5,432.0,57.0,432.0,52.0,432.0,51.5,432.0,49.5,432.0,0.0,432.0" stroke="black" stroke-width="1" fill="none" />
<polyline points="0.0,424.0,44.0,424.0" stroke="black" stroke-width="1" fill="none" />
<polyline points="55.5,424.0,56.0,424.0" stroke="black" stroke-width="1" fill="none" />
<polyline points="64.0,424.0,66.0,424.0,70.0,424.0,307.5,424.0,311.0,424.0,330.0,424.0,331.5,424.0,332.5,424.0,336.5,424.0,379.0,424.0" stroke="black" stroke-width="1" fill="none" />
<polyline points="374.0,448.0,371.0,448.0" stroke="black" stroke-width="1" fill="none" />
<polyline points="352.0,440.0,349.5,437.5" stroke="black" stroke-width="1" fill="none" />
<polyline points="340.5,444.5,343.0,447.0" stroke="black" stroke-width="1" fill="none" />
<polyline points="337.0,457.0,331.5,451.5,328.0,451.5,328.0,473.5,323.0,475.0,318.5,470.5,317.5,474.5,317.0,475.0,316.0,476.0,319.5,479.5" stroke="black" stroke-width="1" fill="none" />
<polyline points="316.5,484.5,314.0,482.0,312.0,482.0,312.0,495.5" stroke="black" stroke-width="1" fill="none" />
<polyline points="310.5,489.5,311.5,488.5,311.0,487.0,313.0,489.0" stroke="black" stroke-width="1" fill="none" />
<polyline points="320.0,485.5,320.0,463.5,321.0,465.0,327.0,471.0" stroke="black" stroke-width="1" fill="none" />
<polyline points="333.5,461.5,327.0,455.0" stroke="black" stroke-width="1" fill="none" />
<polyline points="325.0,448.0,366.0,448.0" stroke="black" stroke-width="1" fill="none" />
<polyline points="371.0,472.0,99.0,472.0" stroke="black" stroke-width="1" fill="none" />
<polyline points="104.0,466.5,104.0,290.0,104.0,289.0,104.0,283.5,104.0,282.0,104.0,279.5" stroke="black" stroke-width="1" fill="none" />
<polyline points="96.0,278.5,96.0,283.5" stroke="black" stroke-width="1" fill="none" />
<polyline points="88.0,284.0,88.0,281.5,88.0,276.5,88.0,276.0" stroke="black" stroke-width="1" fill="none" />
<polyline points="96.0,275.0,96.0,0.0,96.0,0.0,165.5,69.5,166.5,70.5,177.5,81.5,178.0,82.0,181.5,85.5,184.0,88.0,187.5,91.5,188.0,92.0,189.5,93.5,185.5,97.5,190.0,102.0" stroke="black" stroke-width="1" fill="none" />
<polyline points="192.0,88.0,189.0,85.0" stroke="black" stroke-width="1" fill="none" />
<polyline points="194.0,82.0,195.0,83.0" stroke="black" stroke-width="1" fill="none" />
<polyline points="193.0,73.0,187.5,67.5" stroke="black" stroke-width="1" fill="none" />
<polyline points="192.5,64.5,189.0,61.0,188.0,60.0,186.0,58.0" stroke="black" stroke-width="1" fill="none" />
<polyline points="189.5,53.5,187.0,51.0,185.5,49.5,184.5,48.5,184.0,48.0,177.0,41.0,174.0,38.0,136.0,0.0,136.0,0.0,136.0,354.0" stroke="black" stroke-width="1" fill="none" />
<polyline points="144.0,354.5,144.0,342.5" stroke="black" stroke-width="1" fill="none" />
<polyline points="152.0,347.5,152.0,353.5" stroke="black" stroke-width="1" fill="none" />
<polyline points="161.0,353.0,169.5,361.5" stroke="black" stroke-width="1" fill="none" />
<polyline points="174.0,358.0,167.5,351.5" stroke="black" stroke-width="1" fill="none" />
<polyline points="168.0,342.0,168.0,365.5" stroke="black" stroke-width="1" fill="none" />
<polyline points="177.5,345.5,176.0,344.0,176.0,339.5,176.0,374.5" stroke="black" stroke-width="1" fill="none" />
<polyline points="194.0,354.0,196.5,356.5,193.5,353.5,192.5,352.5" stroke="black" stroke-width="1" fill="none" />
<polyline points="185.0,345.0,182.5,342.5" stroke="black" stroke-width="1" fill="none" />
<polyline points="184.0,332.5,184.0,385.0" stroke="black" stroke-width="1" fill="none" />
<polyline points="202.5,386.5,203.0,387.0,205.5,389.5,207.0,391.0,208.0,392.0,208.5,392.5,204.5,396.5,201.0,393.0" stroke="black" stroke-width="1" fill="none" />
<polyline points="208.5,384.5,209.5,385.5,208.0,384.0,207.5,383.5" stroke="black" stroke-width="1" fill="none" />
<polyline points="232.0,406.5,232.0,464.0" stroke="black" stroke-width="1" fill="none" />
<polyline points="248.0,454.0,248.0,492.0" stroke="black" stroke-width="1" fill="none" />
<polyline points="248.0,502.0,248.0,503.0,248.0,508.0,248.0,508.5" stroke="black" stroke-width="1" fill="none" />
<polyline points="264.0,486.5,264.0,483.0" stroke="black" stroke-width="1" fill="none" />
<polyline points="280.0,470.0,280.0,467.5,280.0,464.0,280.0,461.5" stroke="black" stroke-width="1" fill="none" />
<polyline points="288.0,457.5,288.0,456.0" stroke="black" stroke-width="1" fill="none" />
<polyline points="264.0,452.5,264.0,448.5,264.0,444.0,264.0,430.0" stroke="black" stroke-width="1" fill="none" />
<polyline points="272.0,429.5,272.0,431.5" stroke="black" stroke-width="1" fill="none" />
<polyline points="272.0,424.5,272.0,421.0" stroke="black" stroke-width="1" fill="none" />
<polyline points="264.0,419.5,264.0,418.0,264.0,414.0,264.0,411.0" stroke="black" stroke-width="1" fill="none" />
<polyline points="256.0,413.5,256.0,426.5" stroke="black" stroke-width="1" fill="none" />
<polyline points="245.0,419.0,238.5,425.5,237.5,426.5,235.0,429.0,234.0,430.0,231.5,432.5" stroke="black" stroke-width="1" fill="none" />
<polyline points="236.0,436.0,236.5,436.5" stroke="black" stroke-width="1" fill="none" />
<polyline points="221.5,434.5,237.0,419.0,234.0,418.0,243.0,427.0" stroke="black" stroke-width="1" fill="none" />
<polyline points="243.0,435.0,228.0,420.0,227.5,420.5,207.0,441.0" stroke="black" stroke-width="1" fill="none" />
<polyline points="201.0,439.0,213.5,426.5,211.0,427.0,223.0,439.0,220.0,436.0,221.0,435.0,219.0,437.0,218.5,437.5" stroke="black" stroke-width="1" fill="none" />
<polyline points="213.5,445.5,196.5,428.5" stroke="black" stroke-width="1" fill="none" />
<polyline points="203.0,429.0,190.0,442.0,186.0,446.0,185.5,446.5" stroke="black" stroke-width="1" fill="none" />
<polyline points="182.0,442.0,180.5,443.5,182.5,441.5,195.0,429.0" stroke="black" stroke-width="1" fill="none" />
<polyline points="188.5,427.5,174.5,441.5" stroke="black" stroke-width="1" fill="none" />
<polyline points="177.5,446.5,180.0,444.0" stroke="black" stroke-width="1" fill="none" />
<polyline points="172.0,452.0,171.0,453.0" stroke="black" stroke-width="1" fill="none" />
<polyline points="163.0,459.0,161.5,457.5" stroke="black" stroke-width="1" fill="none" />
<polyline points="157.0,453.0,156.0,452.0" stroke="black" stroke-width="1" fill="none" />
<polyline points="158.0,442.0,176.5,423.5,173.5,421.5,209.0,457.0" stroke="black" stroke-width="1" fill="none" />
<polyline points="213.5,453.5,211.5,451.5" stroke="black" stroke-width="1" fill="none" />
<polyline points="199.5,440.5,200.5,439.5" stroke="black" stroke-width="1" fill="none" />
<polyline points="207.5,447.5,186.0,426.0,181.0,427.0,168.5,439.5,167.5,440.5,166.0,442.0" stroke="black" stroke-width="1" fill="none" />
<polyline points="150.0,442.0,170.5,421.5" stroke="black" stroke-width="1" fill="none" />
<polyline points="164.0,420.0,203.5,459.5" stroke="black" stroke-width="1" fill="none" />
<polyline points="198.0,462.0,196.0,460.0" stroke="black" stroke-width="1" fill="none" />
<polyline points="187.5,467.5,186.5,466.5,183.0,463.0,182.5,462.5" stroke="black" stroke-width="1" fill="none" />
<polyline points="176.0,472.0,176.5,472.5,179.0,475.0,183.5,479.5" stroke="black" stroke-width="1" fill="none" />
<polyline points="175.0,479.0,169.0,473.0,166.5,470.5,165.5,469.5" stroke="black" stroke-width="1" fill="none" />
<polyline points="161.0,473.0,162.0,474.0" stroke="black" stroke-width="1" fill="none" />
<polyline points="170.5,466.5,173.0,469.0" stroke="black" stroke-width="1" fill="none" />
<polyline points="147.0,437.0,163.5,420.5" stroke="black" stroke-width="1" fill="none" />
<polyline points="156.5,420.5,195.5,459.5" stroke="black" stroke-width="1" fill="none" />
<polyline points="172.5,460.5,132.5,420.5" stroke="black" stroke-width="1" fill="none" />
<polyline points="138.0,422.0,133.5,426.5" stroke="black" stroke-width="1" fill="none" />
<polyline points="138.5,429.5,145.0,423.0,142.0,422.0,177.0,457.0" stroke="black" stroke-width="1" fill="none" />
<polyline points="142.0,446.0,140.0,444.0,138.5,442.5,137.5,441.5,136.5,440.5,134.0,438.0,133.0,437.0,128.5,432.5,128.0,432.0,127.5,431.5,127.0,431.0,126.0,430.0,122.5,426.5,122.0,426.0" stroke="black" stroke-width="1" fill="none" />
<polyline points="125.5,421.5,152.0,448.0" stroke="black" stroke-width="1" fill="none" />
<polyline points="142.0,434.0,154.0,422.0,150.0,422.0,192.5,464.5" stroke="black" stroke-width="1" fill="none" />
<polyline points="218.0,442.0,204.5,428.5" stroke="black" stroke-width="1" fill="none" />
<polyline points="217.0,425.0,232.0,440.0" stroke="black" stroke-width="1" fill="none" />
<polyline points="235.5,435.5,222.5,422.5" stroke="black" stroke-width="1" fill="none" />
<polyline points="242.0,418.0,248.5,424.5" stroke="black" stroke-width="1" fill="none" />
<polyline points="248.0,410.5,248.0,440.0" stroke="black" stroke-width="1" fill="none" />
<polyline points="256.0,441.0,256.0,461.0" stroke="black" stroke-width="1" fill="none" />
<polyline points="240.0,450.0,240.0,408.0" stroke="black" stroke-width="1" fill="none" />
<polyline points="256.0,355.5,256.0,348.0" stroke="black" stroke-width="1" fill="none" />
<polyline points="245.5,341.5,243.5,339.5" stroke="black" stroke-width="1" fill="none" />
<polyline points="208.0,338.0,208.0,347.5" stroke="black" stroke-width="1" fill="none" />
<polyline points="168.0,339.0,168.0,338.0" stroke="black" stroke-width="1" fill="none" />
<polyline points="160.0,342.0,160.0,357.0" stroke="black" stroke-width="1" fill="none" />
<polyline points="144.0,386.5,144.0,387.0,144.0,392.0,144.0,392.5" stroke="black" stroke-width="1" fill="none" />
<polyline points="136.0,391.5,136.0,395.0,136.0,398.0,136.0,402.5" stroke="black" stroke-width="1" fill="none" />
<polyline points="136.0,411.5,136.0,414.5,136.0,415.0,136.0,493.0" stroke="black" stroke-width="1" fill="none" />
<polyline points="168.0,499.0,168.0,409.5" stroke="black" stroke-width="1" fill="none" />
<polyline points="160.0,411.0,160.0,499.0" stroke="black" stroke-width="1" fill="none" />
<polyline points="152.0,498.0,152.0,411.0" stroke="black" stroke-width="1" fill="none" />
<polyline points="144.0,413.5,144.0,496.5" stroke="black" stroke-width="1" fill="none" />
<polyline points="128.0,489.0,128.0,389.5" stroke="black" stroke-width="1" fill="none" />
<polyline points="120.0,395.0,120.0,484.0" stroke="black" stroke-width="1" fill="none" />
<polyline points="112.0,476.5,112.0,392.0,112.0,390.0,112.0,389.5" stroke="black" stroke-width="1" fill="none" />
<polyline points="112.0,375.0,112.0,370.0" stroke="black" stroke-width="1" fill="none" />
<polyline points="120.0,362.5,120.0,361.5" stroke="black" stroke-width="1" fill="none" />
<polyline points="128.0,356.0,128.0,0.0,128.0,0.0,167.5,39.5,168.0,40.0,178.5,50.5,179.0,51.0,184.0,56.0" stroke="black" stroke-width="1" fill="none" />
<polyline points="193.0,57.0,196.5,60.5" stroke="black" stroke-width="1" fill="none" />
<polyline points="186.5,66.5,120.0,0.0,120.0,0.0,120.0,265.0,120.0,268.0,120.0,358.5" stroke="black" stroke-width="1" fill="none" />
<polyline points="112.0,369.5,112.0,271.0,112.0,269.5,112.0,266.5,112.0,265.0,112.0,0.0,112.0,0.0,186.0,74.0,186.5,74.5,192.5,80.5" stroke="black" stroke-width="1" fill="none" />
<polyline points="188.0,84.0,178.0,74.0" stroke="black" stroke-width="1" fill="none" />
<polyline points="157.0,75.0,155.0,77.0" stroke="black" stroke-width="1" fill="none" />
<polyline points="151.5,72.5,155.5,68.5,156.0,68.0,158.0,66.0" stroke="black" stroke-width="1" fill="none" />
<polyline points="154.5,61.5,156.0,60.0,153.5,62.5,136.5,79.5,140.5,83.5,139.0,85.0,138.5,85.5,137.5,86.5,136.5,87.5,132.0,92.0" stroke="black" stroke-width="1" fill="none" />
<polyline points="139.0,91.0,48.0,0.0,48.0,0.0,48.0,195.0" stroke="black" stroke-width="1" fill="none" />
<polyline points="52.5,180.5,52.0,180.0,51.0,179.0,39.0,167.0,35.0,171.0,37.5,173.5" stroke="black" stroke-width="1" fill="none" />
<polyline points="42.0,162.0,50.5,170.5,51.5,171.5,52.0,172.0,52.5,172.5,65.5,185.5" stroke="black" stroke-width="1" fill="none" />
<polyline points="62.5,174.5,44.5,156.5" stroke="black" stroke-width="1" fill="none" />
<polyline points="47.0,151.0,63.0,167.0" stroke="black" stroke-width="1" fill="none" />
<polyline points="67.5,156.5,90.0,134.0,91.0,133.0,92.0,132.0,90.0,130.0,108.5,148.5,109.5,146.5,115.5,140.5,114.0,138.0,149.5,173.5,147.5,172.5,147.0,173.0" stroke="black" stroke-width="1" fill="none" />
<polyline points="142.5,169.5,145.0,167.0" stroke="black" stroke-width="1" fill="none" />
<polyline points="142.0,162.0,139.0,165.0" stroke="black" stroke-width="1" fill="none" />
<polyline points="136.0,160.0,138.5,157.5,139.5,155.5,138.0,154.0,136.0,152.0,135.5,151.5,134.5,153.5,132.0,156.0" stroke="black" stroke-width="1" fill="none" />
<polyline points="127.0,153.0,131.0,149.0,131.5,147.5,135.0,151.0" stroke="black" stroke-width="1" fill="none" />
<polyline points="126.0,146.0,122.5,149.5" stroke="black" stroke-width="1" fill="none" />
<polyline points="116.5,147.5,121.0,143.0" stroke="black" stroke-width="1" fill="none" />
<polyline points="109.5,138.5,108.0,140.0,105.5,142.5,104.0,144.0" stroke="black" stroke-width="1" fill="none" />
<polyline points="98.5,141.5,103.0,137.0" stroke="black" stroke-width="1" fill="none" />
<polyline points="96.5,143.5,96.0,144.0,95.0,145.0,94.0,146.0" stroke="black" stroke-width="1" fill="none" />
<polyline points="86.0,146.0,95.5,136.5" stroke="black" stroke-width="1" fill="none" />
<polyline points="95.0,127.0,118.5,150.5" stroke="black" stroke-width="1" fill="none" />
<polyline points="118.5,161.5,113.0,167.0" stroke="black" stroke-width="1" fill="none" />
<polyline points="122.0,174.0,102.0,194.0" stroke="black" stroke-width="1" fill="none" />
<polyline points="96.5,191.5,122.0,166.0" stroke="black" stroke-width="1" fill="none" />
<polyline points="123.5,180.5,112.0,192.0,116.0,196.0,119.0,199.0" stroke="black" stroke-width="1" fill="none" />
<polyline points="114.5,202.5,113.0,201.0" stroke="black" stroke-width="1" fill="none" />
<polyline points="98.0,202.0,97.5,201.5" stroke="black" stroke-width="1" fill="none" />
<polyline points="91.5,195.5,91.0,195.0" stroke="black" stroke-width="1" fill="none" />
<polyline points="91.5,187.5,103.5,199.5" stroke="black" stroke-width="1" fill="none" />
<polyline points="95.0,185.0,112.0,168.0" stroke="black" stroke-width="1" fill="none" />
<polyline points="114.0,158.0,91.5,180.5" stroke="black" stroke-width="1" fill="none" />
<polyline points="87.0,177.0,108.0,156.0,107.0,155.0,125.0,173.0" stroke="black" stroke-width="1" fill="none" />
<polyline points="122.5,186.5,94.0,158.0,99.0,157.0,86.5,169.5,87.0,167.0,114.5,194.5" stroke="black" stroke-width="1" fill="none" />
<polyline points="111.5,199.5,85.5,173.5" stroke="black" stroke-width="1" fill="none" />
<polyline points="80.0,179.0,80.0,181.5" stroke="black" stroke-width="1" fill="none" />
<polyline points="80.0,189.5,80.0,229.5" stroke="black" stroke-width="1" fill="none" />
<polyline points="88.0,237.5,88.0,261.5,88.0,265.0,88.0,266.0,88.0,267.0,88.0,269.5" stroke="black" stroke-width="1" fill="none" />
<polyline points="80.0,271.5,80.0,273.5" stroke="black" stroke-width="1" fill="none" />
<polyline points="80.0,279.5,80.0,284.0" stroke="black" stroke-width="1" fill="none" />
<polyline points="72.0,278.0,72.0,276.0,72.0,275.0,72.0,274.0" stroke="black" stroke-width="1" fill="none" />
<polyline points="80.0,259.0,80.0,257.0" stroke="black" stroke-width="1" fill="none" />
<polyline points="80.0,250.5,80.0,245.0" stroke="black" stroke-width="1" fill="none" />
<polyline points="88.0,235.5,88.0,164.0,90.5,162.5,119.0,191.0" stroke="black" stroke-width="1" fill="none" />
<polyline points="132.5,196.5,134.0,198.0,138.0,194.0,141.5,197.5,142.5,193.5,144.5,191.5,140.5,188.5,148.5,196.5,150.5,193.5,153.0,191.0" stroke="black" stroke-width="1" fill="none" />
<polyline points="150.0,186.0,152.5,183.5" stroke="black" stroke-width="1" fill="none" />
<polyline points="149.0,179.0,150.5,177.5" stroke="black" stroke-width="1" fill="none" />
<polyline points="156.0,172.0,155.5,171.5,154.0,170.0,145.0,161.0,144.0,160.0,142.5,158.5" stroke="black" stroke-width="1" fill="none" />
<polyline points="148.0,156.0,150.0,158.0,147.5,155.5,118.0,126.0,115.0,123.0,114.5,122.5,111.5,120.5,112.5,119.5,113.5,118.5,114.5,117.5,116.0,116.0,117.0,115.0,117.5,114.5,119.0,113.0,120.0,112.0,122.5,109.5,125.5,109.5,121.0,105.0,120.5,104.5,119.0,103.0" stroke="black" stroke-width="1" fill="none" />
<polyline points="124.5,100.5,128.5,104.5" stroke="black" stroke-width="1" fill="none" />
<polyline points="135.0,95.0,40.0,0.0,40.0,0.0,40.0,191.0" stroke="black" stroke-width="1" fill="none" />
<polyline points="51.5,164.5,76.0,140.0,77.0,139.0,77.5,138.5,80.0,136.0,80.5,135.5" stroke="black" stroke-width="1" fill="none" />
<polyline points="87.5,127.5,88.5,128.5" stroke="black" stroke-width="1" fill="none" />
<polyline points="87.5,120.5,94.5,113.5,96.0,112.0,99.5,108.5,100.0,108.0,110.5,97.5,113.0,95.0,119.0,89.0,120.5,87.5,121.5,86.5,122.5,85.5,123.0,85.0" stroke="black" stroke-width="1" fill="none" />
<polyline points="116.5,83.5,143.0,57.0,144.0,56.0,151.0,49.0" stroke="black" stroke-width="1" fill="none" />
<polyline points="150.0,42.0,151.0,41.0,152.5,39.5,153.0,39.0" stroke="black" stroke-width="1" fill="none" />
<polyline points="151.5,32.5,153.0,31.0" stroke="black" stroke-width="1" fill="none" />
<polyline points="147.5,28.5,157.0,19.0" stroke="black" stroke-width="1" fill="none" />
<polyline points="159.0,25.0,157.5,26.5" stroke="black" stroke-width="1" fill="none" />
<polyline points="143.5,32.5,143.0,33.0,141.5,34.5,140.0,36.0" stroke="black" stroke-width="1" fill="none" />
<polyline points="141.0,43.0,84.5,99.5" stroke="black" stroke-width="1" fill="none" />
<polyline points="88.0,104.0,101.0,91.0,102.5,89.5,145.0,47.0" stroke="black" stroke-width="1" fill="none" />
<polyline points="152.0,56.0,134.5,73.5,134.0,74.0,132.0,76.0" stroke="black" stroke-width="1" fill="none" />
<polyline points="115.5,84.5,114.5,85.5,112.5,87.5,106.0,94.0,104.5,95.5,103.0,97.0,100.0,100.0,99.5,100.5,97.0,103.0,77.0,123.0" stroke="black" stroke-width="1" fill="none" />
<polyline points="76.5,115.5,68.0,124.0" stroke="black" stroke-width="1" fill="none" />
<polyline points="63.0,129.0,60.0,132.0" stroke="black" stroke-width="1" fill="none" />
<polyline points="55.5,128.5,55.0,129.0,57.5,126.5,58.0,126.0" stroke="black" stroke-width="1" fill="none" />
<polyline points="56.5,120.5,88.0,152.0" stroke="black" stroke-width="1" fill="none" />
<polyline points="83.0,149.0,85.0,147.0" stroke="black" stroke-width="1" fill="none" />
<polyline points="76.5,156.5,45.0,125.0" stroke="black" stroke-width="1" fill="none" />
<polyline points="40.0,128.0,53.5,141.5,54.5,142.5,70.0,158.0" stroke="black" stroke-width="1" fill="none" />
<polyline points="64.5,143.5,55.0,153.0" stroke="black" stroke-width="1" fill="none" />
<polyline points="46.0,150.0,44.0,148.0,40.0,144.0,32.0,136.0,30.5,134.5,25.5,129.5" stroke="black" stroke-width="1" fill="none" />
<polyline points="22.0,134.0,31.5,143.5" stroke="black" stroke-width="1" fill="none" />
<polyline points="28.5,148.5,31.0,151.0" stroke="black" stroke-width="1" fill="none" />
<polyline points="36.0,148.0,39.0,151.0" stroke="black" stroke-width="1" fill="none" />
<polyline points="43.0,141.0,45.0,139.0" stroke="black" stroke-width="1" fill="none" />
<polyline points="49.0,145.0,66.5,162.5" stroke="black" stroke-width="1" fill="none" />
<polyline points="47.0,143.0,37.5,133.5,36.5,132.5,36.0,132.0" stroke="black" stroke-width="1" fill="none" />
<polyline points="23.0,143.0,20.5,140.5" stroke="black" stroke-width="1" fill="none" />
<polyline points="15.0,143.0,11.5,139.5" stroke="black" stroke-width="1" fill="none" />
<polyline points="15.0,135.0,17.0,137.0" stroke="black" stroke-width="1" fill="none" />
<polyline points="11.0,131.0,4.0,124.0,1.5,121.5,0.0,120.0,0.0,120.0,426.5,120.0" stroke="black" stroke-width="1" fill="none" />
<polyline points="424.0,111.0,424.0,108.0" stroke="black" stroke-width="1" fill="none" />
<polyline points="413.5,93.5,320.0,0.0,320.0,0.0,320.0,176.0" stroke="black" stroke-width="1" fill="none" />
<polyline points="278.0,90.0,278.5,89.5,280.5,87.5,368.0,0.0" stroke="black" stroke-width="1" fill="none" />
<polyline points="360.0,0.0,360.0,177.0" stroke="black" stroke-width="1" fill="none" />
<polyline points="358.5,296.0,0.0,296.0" stroke="black" stroke-width="1" fill="none" />
<polyline points="0.0,288.0,362.5,288.0" stroke="black" stroke-width="1" fill="none" />
<polyline points="333.0,352.0,322.5,352.0" stroke="black" stroke-width="1" fill="none" />
<polyline points="319.0,360.0,331.0,360.0" stroke="black" stroke-width="1" fill="none" />
<polyline points="336.0,368.0,338.5,368.0" stroke="black" stroke-width="1" fill="none" />
<polyline points="333.5,384.0,0.0,384.0" stroke="black" stroke-width="1" fill="none" />
<polyline points="4.5,380.5,1.0,377.0,0.0,376.0,307.0,376.0,309.5,376.0,335.5,376.0" stroke="black" stroke-width="1" fill="none" />
<polyline points="339.5,392.0,354.0,392.0,355.0,392.0,381.5,392.0" stroke="black" stroke-width="1" fill="none" />
<polyline points="382.0,416.0,340.5,416.0" stroke="black" stroke-width="1" fill="none" />
<polyline points="334.0,416.0,318.0,416.0" stroke="black" stroke-width="1" fill="none" />
<polyline points="311.5,416.0,63.5,416.0,64.0,414.0,64.0,411.5" stroke="black" stroke-width="1" fill="none" />
<polyline points="56.5,408.0,316.5,408.0" stroke="black" stroke-width="1" fill="none" />
<polyline points="323.5,408.0,342.5,408.0,345.5,408.0,379.0,408.0" stroke="black" stroke-width="1" fill="none" />
<polyline points="380.5,432.0,331.5,432.0" stroke="black" stroke-width="1" fill="none" />
<polyline points="328.0,440.0,372.5,440.0" stroke="black" stroke-width="1" fill="none" />
<polyline points="395.0,464.0,395.5,464.0" stroke="black" stroke-width="1" fill="none" />
<polyline points="408.0,505.5,408.0,507.5" stroke="black" stroke-width="1" fill="none" />
<polyline points="416.0,507.0,416.0,503.5" stroke="black" stroke-width="1" fill="none" />
<polyline points="430.0,496.0,459.0,496.0" stroke="black" stroke-width="1" fill="none" />
<polyline points="432.0,502.5,432.0,503.5" stroke="black" stroke-width="1" fill="none" />
<polyline points="392.0,511.5,392.0,511.5" stroke="black" stroke-width="1" fill="none" />
<polyline points="304.0,511.5,304.0,502.0" stroke="black" stroke-width="1" fill="none" />
<polyline points="382.5,488.0,0.0,488.0" stroke="black" stroke-width="1" fill="none" />
<polyline points="0.0,496.0,422.5,496.0" stroke="black" stroke-width="1" fill="none" />
<polyline points="501.5,472.0,508.5,472.0" stroke="black" stroke-width="1" fill="none" />
<polyline points="366.0,464.0,91.0,464.0" stroke="black" stroke-width="1" fill="none" />
<polyline points="85.0,464.0,83.5,464.0" stroke="black" stroke-width="1" fill="none" />
<polyline points="85.0,456.0,87.5,456.0,93.0,456.0,319.5,456.0" stroke="black" stroke-width="1" fill="none" />
<polyline points="322.0,448.0,84.0,448.0,88.0,444.0,88.0,442.0,88.0,440.5,88.0,437.5" stroke="black" stroke-width="1" fill="none" />
<polyline points="96.0,437.5,96.0,442.0,96.0,443.5,96.0,456.0" stroke="black" stroke-width="1" fill="none" />
<polyline points="83.0,456.0,81.5,456.0,78.5,456.0,78.0,456.0" stroke="black" stroke-width="1" fill="none" />
<polyline points="76.5,440.0,325.5,440.0" stroke="black" stroke-width="1" fill="none" />
<polyline points="330.5,432.0,76.5,432.0,80.0,431.0,80.0,434.5" stroke="black" stroke-width="1" fill="none" />
<polyline points="88.0,435.0,88.0,343.0,88.0,342.0,88.0,332.0,88.0,329.0,88.0,314.5,88.0,312.5,88.0,311.5" stroke="black" stroke-width="1" fill="none" />
<polyline points="96.0,296.0,96.0,437.0" stroke="black" stroke-width="1" fill="none" />
<polyline points="80.0,426.0,80.0,420.0,80.0,419.5,80.0,417.5,80.0,416.0,80.0,339.5,80.0,334.5,80.0,333.0" stroke="black" stroke-width="1" fill="none" />
<polyline points="72.0,346.0,72.0,346.5" stroke="black" stroke-width="1" fill="none" />
<polyline points="72.0,353.0,72.0,360.0,72.0,361.0,72.0,365.5,72.0,366.5,72.0,395.5,72.0,397.5,72.0,400.0,72.0,400.5,72.0,401.5" stroke="black" stroke-width="1" fill="none" />
<polyline points="56.0,402.5,56.0,404.5" stroke="black" stroke-width="1" fill="none" />
<polyline points="47.5,399.5,29.5,381.5,29.0,379.0,32.0,376.0,32.0,374.0,32.0,395.0,34.0,390.0,38.0,386.0,40.0,385.5,40.0,398.0,43.5,396.5,46.0,394.0,48.0,394.5,48.0,401.0" stroke="black" stroke-width="1" fill="none" />
<polyline points="50.5,408.0,39.5,408.0" stroke="black" stroke-width="1" fill="none" />
<polyline points="38.0,394.0,42.5,389.5" stroke="black" stroke-width="1" fill="none" />
<polyline points="35.0,381.0,32.5,383.5,30.5,385.5,28.0,388.0,24.0,384.0,26.5,381.5" stroke="black" stroke-width="1" fill="none" />
<polyline points="24.5,375.5,28.5,371.5" stroke="black" stroke-width="1" fill="none" />
<polyline points="25.0,367.0,21.5,370.5" stroke="black" stroke-width="1" fill="none" />
<polyline points="23.5,376.5,19.5,380.5" stroke="black" stroke-width="1" fill="none" />
<polyline points="16.5,375.5,21.0,371.0" stroke="black" stroke-width="1" fill="none" />
<polyline points="24.0,364.5,24.0,386.5" stroke="black" stroke-width="1" fill="none" />
<polyline points="14.0,390.0,13.5,389.5" stroke="black" stroke-width="1" fill="none" />
<polyline points="19.0,387.0,13.0,381.0,13.5,378.5,15.0,377.0,11.0,373.0,21.5,362.5" stroke="black" stroke-width="1" fill="none" />
<polyline points="18.0,358.0,9.0,367.0,8.5,368.5,32.5,392.5" stroke="black" stroke-width="1" fill="none" />
<polyline points="28.0,380.0,4.5,356.5,5.0,355.0,11.5,348.5" stroke="black" stroke-width="1" fill="none" />
<polyline points="15.0,353.0,7.5,360.5" stroke="black" stroke-width="1" fill="none" />
<polyline points="0.0,360.0,314.0,360.0,316.0,360.0,318.0,360.0" stroke="black" stroke-width="1" fill="none" />
<polyline points="314.0,368.0,333.0,368.0" stroke="black" stroke-width="1" fill="none" />
<polyline points="331.5,400.0,347.5,400.0" stroke="black" stroke-width="1" fill="none" />
<polyline points="353.5,400.0,382.0,400.0" stroke="black" stroke-width="1" fill="none" />
<polyline points="141.0,325.0,138.0,322.0" stroke="black" stroke-width="1" fill="none" />
<polyline points="142.5,318.5,138.5,314.5" stroke="black" stroke-width="1" fill="none" />
<polyline points="152.0,298.0,152.0,281.0,152.0,280.0,152.0,276.5" stroke="black" stroke-width="1" fill="none" />
<polyline points="176.0,232.5,176.0,231.5" stroke="black" stroke-width="1" fill="none" />
<polyline points="200.0,203.0,200.0,202.0" stroke="black" stroke-width="1" fill="none" />
<polyline points="208.0,195.5,208.0,190.5" stroke="black" stroke-width="1" fill="none" />
<polyline points="154.5,194.5,144.5,184.5" stroke="black" stroke-width="1" fill="none" />
<polyline points="154.5,186.5,140.0,172.0" stroke="black" stroke-width="1" fill="none" />
<polyline points="125.0,181.0,99.5,155.5" stroke="black" stroke-width="1" fill="none" />
<polyline points="81.0,153.0,51.5,123.5" stroke="black" stroke-width="1" fill="none" />
<polyline points="55.0,119.0,53.5,117.5,52.5,116.5,51.0,115.0" stroke="black" stroke-width="1" fill="none" />
<polyline points="38.0,106.0,117.5,26.5,120.0,24.0,144.0,0.0,144.0,0.0,144.0,320.5" stroke="black" stroke-width="1" fill="none" />
<polyline points="160.0,247.5,160.0,0.0,160.0,0.0,179.5,19.5,180.0,20.0,182.5,22.5" stroke="black" stroke-width="1" fill="none" />
<polyline points="184.0,16.0,182.5,14.5,182.0,14.0,181.5,13.5" stroke="black" stroke-width="1" fill="none" />
<polyline points="181.0,5.0,178.5,2.5,178.0,2.0,176.0,0.0,176.0,0.0,176.0,229.0" stroke="black" stroke-width="1" fill="none" />
<polyline points="123.0,219.0,120.0,216.0" stroke="black" stroke-width="1" fill="none" />
<polyline points="72.0,216.0,72.0,222.0" stroke="black" stroke-width="1" fill="none" />
<polyline points="72.0,212.0,72.0,211.0" stroke="black" stroke-width="1" fill="none" />
<polyline points="93.0,149.0,0.0,56.0,0.0,56.0,424.0,56.0" stroke="black" stroke-width="1" fill="none" />
<polyline points="419.0,59.0,360.0,0.0,360.0,0.0,274.0,86.0" stroke="black" stroke-width="1" fill="none" />
<polyline points="276.0,76.0,352.0,0.0" stroke="black" stroke-width="1" fill="none" />
<polyline points="344.0,0.0,281.5,62.5,280.5,63.5,277.0,67.0" stroke="black" stroke-width="1" fill="none" />
<polyline points="275.5,60.5,276.5,59.5,280.5,55.5,336.0,0.0" stroke="black" stroke-width="1" fill="none" />
<polyline points="328.0,0.0,275.0,53.0,274.5,53.5,274.0,54.0" stroke="black" stroke-width="1" fill="none" />
<polyline points="269.5,50.5,268.5,51.5,272.0,48.0,320.0,0.0" stroke="black" stroke-width="1" fill="none" />
<polyline points="312.0,0.0,272.0,40.0" stroke="black" stroke-width="1" fill="none" />
<polyline points="271.0,33.0,304.0,0.0" stroke="black" stroke-width="1" fill="none" />
<polyline points="296.0,0.0,268.5,27.5" stroke="black" stroke-width="1" fill="none" />
<polyline points="264.0,24.0,263.5,24.5,265.5,22.5,288.0,0.0" stroke="black" stroke-width="1" fill="none" />
<polyline points="280.0,0.0,262.5,17.5" stroke="black" stroke-width="1" fill="none" />
<polyline points="265.5,6.5,272.0,0.0" stroke="black" stroke-width="1" fill="none" />
<polyline points="264.0,0.0,262.0,2.0" stroke="black" stroke-width="1" fill="none" />
<polyline points="235.0,11.0,231.5,7.5,230.5,6.5,228.5,4.5,225.0,1.0,224.0,0.0,224.0,0.0,224.0,203.0" stroke="black" stroke-width="1" fill="none" />
<polyline points="149.5,149.5,148.0,148.0" stroke="black" stroke-width="1" fill="none" />
<polyline points="144.0,136.0,141.0,133.0,137.0,137.0,138.5,138.5,135.5,135.5,134.5,134.5" stroke="black" stroke-width="1" fill="none" />
<polyline points="136.0,128.0,133.0,125.0,131.0,123.0,129.5,121.5,129.0,121.0,126.5,118.5,126.0,118.0,124.0,116.0,122.0,114.0,118.5,110.5,114.5,114.5,118.5,118.5,122.5,122.5,124.0,124.0" stroke="black" stroke-width="1" fill="none" />
<polyline points="128.5,128.5,133.0,133.0" stroke="black" stroke-width="1" fill="none" />
<polyline points="137.5,121.5,137.0,121.0" stroke="black" stroke-width="1" fill="none" />
<polyline points="110.5,121.5,109.5,122.5,107.5,124.5,107.0,125.0,106.0,122.0,124.5,140.5" stroke="black" stroke-width="1" fill="none" />
<polyline points="100.0,148.0,0.0,48.0,0.0,48.0,422.0,48.0" stroke="black" stroke-width="1" fill="none" />
<polyline points="424.5,64.0,0.0,64.0,0.0,64.0,47.0,111.0" stroke="black" stroke-width="1" fill="none" />
<polyline points="53.5,98.5,55.5,96.5,56.0,96.0,152.0,0.0,152.0,0.0,152.0,264.5" stroke="black" stroke-width="1" fill="none" />
<polyline points="216.0,200.5,216.0,0.0" stroke="black" stroke-width="1" fill="none" />
<polyline points="208.0,0.0,208.0,189.5" stroke="black" stroke-width="1" fill="none" />
<polyline points="179.5,91.5,88.0,0.0,88.0,0.0,88.0,162.5" stroke="black" stroke-width="1" fill="none" />
<polyline points="87.0,127.0,0.0,40.0,0.0,40.0,418.5,40.0" stroke="black" stroke-width="1" fill="none" />
<polyline points="440.0,48.0,441.0,48.0" stroke="black" stroke-width="1" fill="none" />
<polyline points="422.0,72.0,420.0,72.0" stroke="black" stroke-width="1" fill="none" />
<polyline points="212.0,36.0,211.5,35.5" stroke="black" stroke-width="1" fill="none" />
<polyline points="207.0,39.0,209.0,41.0" stroke="black" stroke-width="1" fill="none" />
<polyline points="187.5,35.5,184.0,32.0,182.0,30.0,152.0,0.0,156.0,4.0,134.5,25.5" stroke="black" stroke-width="1" fill="none" />
<polyline points="138.5,37.5,88.5,87.5,87.0,89.0,86.0,90.0" stroke="black" stroke-width="1" fill="none" />
<polyline points="87.0,81.0,157.5,10.5" stroke="black" stroke-width="1" fill="none" />
<polyline points="168.0,0.0,168.0,236.5" stroke="black" stroke-width="1" fill="none" />
<polyline points="113.5,137.5,101.0,125.0" stroke="black" stroke-width="1" fill="none" />
<polyline points="90.5,122.5,0.0,32.0,0.0,32.0,415.5,32.0" stroke="black" stroke-width="1" fill="none" />
<polyline points="200.0,0.0,200.0,200.0" stroke="black" stroke-width="1" fill="none" />
<polyline points="172.5,92.5,80.0,0.0,80.0,0.0,80.0,176.0" stroke="black" stroke-width="1" fill="none" />
<polyline points="71.0,113.0,74.0,110.0,76.5,107.5,84.0,100.0" stroke="black" stroke-width="1" fill="none" />
<polyline points="87.5,104.5,86.0,106.0,85.0,107.0,81.5,110.5,81.0,111.0,80.0,112.0" stroke="black" stroke-width="1" fill="none" />
<polyline points="69.0,99.0,71.0,97.0,72.0,96.0,86.0,82.0" stroke="black" stroke-width="1" fill="none" />
<polyline points="68.5,91.5,132.0,28.0" stroke="black" stroke-width="1" fill="none" />
<polyline points="136.0,0.0,27.5,108.5" stroke="black" stroke-width="1" fill="none" />
<polyline points="28.5,116.5,29.5,117.5" stroke="black" stroke-width="1" fill="none" />
<polyline points="17.0,111.0,98.5,29.5,99.5,28.5,128.0,0.0" stroke="black" stroke-width="1" fill="none" />
<polyline points="120.0,0.0,11.5,108.5" stroke="black" stroke-width="1" fill="none" />
<polyline points="0.5,111.5,112.0,0.0" stroke="black" stroke-width="1" fill="none" />
<polyline points="104.0,0.0,104.0,269.0" stroke="black" stroke-width="1" fill="none" />
<polyline points="72.0,205.5,72.0,0.0,72.0,0.0,162.0,90.0,162.5,90.5,163.5,91.5" stroke="black" stroke-width="1" fill="none" />
<polyline points="155.5,91.5,64.0,0.0,64.0,0.0,64.0,202.0" stroke="black" stroke-width="1" fill="none" />
<polyline points="56.0,195.0,56.0,0.0,56.0,0.0,145.5,89.5,146.0,90.0,148.5,92.5" stroke="black" stroke-width="1" fill="none" />
<polyline points="177.0,73.0,104.0,0.0,104.0,0.0,42.5,61.5,42.0,62.0,0.0,104.0,0.0,104.0,428.5,104.0" stroke="black" stroke-width="1" fill="none" />
<polyline points="187.0,43.0,175.5,31.5" stroke="black" stroke-width="1" fill="none" />
<polyline points="176.0,8.0,168.0,0.0" stroke="black" stroke-width="1" fill="none" />
<polyline points="184.0,0.0,184.0,226.0" stroke="black" stroke-width="1" fill="none" />
<polyline points="113.5,121.5,110.5,118.5" stroke="black" stroke-width="1" fill="none" />
<polyline points="113.0,113.0,112.0,112.0" stroke="black" stroke-width="1" fill="none" />
<polyline points="68.0,92.0,66.0,94.0,63.5,96.5,62.5,97.5,60.5,99.5,60.0,100.0" stroke="black" stroke-width="1" fill="none" />
<polyline points="24.0,72.0,32.0,64.0,32.5,63.5,34.5,61.5,36.5,59.5,96.0,0.0" stroke="black" stroke-width="1" fill="none" />
<polyline points="88.0,0.0,19.0,69.0,18.0,70.0,13.0,75.0,11.5,76.5,0.0,88.0,0.0,88.0,420.5,88.0" stroke="black" stroke-width="1" fill="none" />
<polyline points="192.0,0.0,192.0,215.5" stroke="black" stroke-width="1" fill="none" />
<polyline points="132.0,100.0,32.0,0.0,32.0,0.0,32.0,193.5" stroke="black" stroke-width="1" fill="none" />
<polyline points="24.0,193.0,24.0,0.0,24.0,0.0,121.0,97.0" stroke="black" stroke-width="1" fill="none" />
<polyline points="174.5,30.5,144.0,0.0" stroke="black" stroke-width="1" fill="none" />
<polyline points="80.0,0.0,15.0,65.0,14.5,65.5,12.0,68.0,11.0,69.0,3.5,76.5,2.5,77.5,0.0,80.0,0.0,80.0,416.5,80.0" stroke="black" stroke-width="1" fill="none" />
<polyline points="23.5,72.5,0.0,96.0,0.0,96.0,427.5,96.0" stroke="black" stroke-width="1" fill="none" />
<polyline points="72.0,0.0,19.0,53.0,18.5,53.5,14.5,57.5,10.5,61.5,2.5,69.5,0.0,72.0,417.5,72.0" stroke="black" stroke-width="1" fill="none" />
<polyline points="64.0,0.0,6.5,57.5,5.0,59.0,2.5,61.5" stroke="black" stroke-width="1" fill="none" />
<polyline points="1.0,55.0,56.0,0.0" stroke="black" stroke-width="1" fill="none" />
<polyline points="48.0,0.0,0.0,48.0" stroke="black" stroke-width="1" fill="none" />
<polyline points="0.0,40.0,40.0,0.0" stroke="black" stroke-width="1" fill="none" />
<polyline points="32.0,0.0,0.0,32.0" stroke="black" stroke-width="1" fill="none" />
<polyline points="0.0,24.0,414.5,24.0" stroke="black" stroke-width="1" fill="none" />
<polyline points="24.0,0.0,0.0,24.0,0.0,24.0,94.0,118.0" stroke="black" stroke-width="1" fill="none" />
<polyline points="116.0,100.0,16.0,0.0,16.0,0.0,16.0,196.5" stroke="black" stroke-width="1" fill="none" />
<polyline points="8.0,194.5,8.0,0.0,8.0,0.0,112.0,104.0" stroke="black" stroke-width="1" fill="none" />
<polyline points="21.5,133.5,16.5,128.5" stroke="black" stroke-width="1" fill="none" />
<polyline points="2.5,130.5,1.0,129.0,0.0,128.0,427.5,128.0" stroke="black" stroke-width="1" fill="none" />
<polyline points="10.5,146.5,10.0,146.0" stroke="black" stroke-width="1" fill="none" />
<polyline points="0.0,136.0,429.0,136.0" stroke="black" stroke-width="1" fill="none" />
<polyline points="18.5,114.5,0.0,96.0" stroke="black" stroke-width="1" fill="none" />
<polyline points="0.0,88.0,28.0,116.0" stroke="black" stroke-width="1" fill="none" />
<polyline points="5.5,117.5,0.0,112.0,0.0,112.0,429.0,112.0" stroke="black" stroke-width="1" fill="none" />
<polyline points="16.0,0.0,0.0,16.0,0.0,16.0,416.5,16.0" stroke="black" stroke-width="1" fill="none" />
<polyline points="8.0,0.0,0.0,8.0,0.0,8.0,418.5,8.0" stroke="black" stroke-width="1" fill="none" />
<polyline points="36.5,116.5,0.0,80.0" stroke="black" stroke-width="1" fill="none" />
<polyline points="0.0,72.0,42.0,114.0" stroke="black" stroke-width="1" fill="none" />
<polyline points="11.5,115.5,0.0,104.0" stroke="black" stroke-width="1" fill="none" />
<polyline points="0.0,176.0,405.5,176.0" stroke="black" stroke-width="1" fill="none" />
<polyline points="99.5,115.5,0.0,16.0" stroke="black" stroke-width="1" fill="none" />
<polyline points="0.0,8.0,103.0,111.0" stroke="black" stroke-width="1" fill="none" />
<polyline points="107.5,107.5,0.0,0.0,0.0,0.0,0.0,189.0,0.0,192.0,384.5,192.0" stroke="black" stroke-width="1" fill="none" />
<polyline points="64.0,339.0,64.0,340.0" stroke="black" stroke-width="1" fill="none" />
<polyline points="64.0,351.0,64.0,354.5,64.0,356.0,64.0,356.5,64.0,358.0,64.0,360.0" stroke="black" stroke-width="1" fill="none" />
<polyline points="64.0,373.0,64.0,375.0" stroke="black" stroke-width="1" fill="none" />
<polyline points="34.0,378.0,0.0,344.0,0.0,344.0,336.5,344.0" stroke="black" stroke-width="1" fill="none" />
<polyline points="72.0,421.5,72.0,424.0" stroke="black" stroke-width="1" fill="none" />
<polyline points="54.0,416.0,53.5,416.0" stroke="black" stroke-width="1" fill="none" />
<polyline points="24.0,410.0,24.0,408.0" stroke="black" stroke-width="1" fill="none" />
<polyline points="16.0,393.5,16.0,353.5" stroke="black" stroke-width="1" fill="none" />
<polyline points="8.5,343.5,2.0,350.0,0.0,351.0,0.0,328.0,0.0,328.0,337.5,328.0" stroke="black" stroke-width="1" fill="none" />
<polyline points="168.0,504.0,0.0,504.0" stroke="black" stroke-width="1" fill="none" />
<polyline points="0.0,416.0,50.5,416.0" stroke="black" stroke-width="1" fill="none" />
<polyline points="8.0,390.0,8.0,378.5,8.0,377.0,8.0,341.0,6.0,338.0,0.0,344.0" stroke="black" stroke-width="1" fill="none" />
<polyline points="0.0,336.0,333.5,336.0" stroke="black" stroke-width="1" fill="none" />
<polyline points="98.0,472.0,86.0,472.0" stroke="black" stroke-width="1" fill="none" />
<polyline points="38.5,408.0,0.0,408.0" stroke="black" stroke-width="1" fill="none" />
<polyline points="0.0,400.0,322.0,400.0" stroke="black" stroke-width="1" fill="none" />
<polyline points="48.0,349.5,48.0,347.5" stroke="black" stroke-width="1" fill="none" />
<polyline points="3.0,333.0,0.0,336.0,0.0,336.0,10.5,346.5" stroke="black" stroke-width="1" fill="none" />
<polyline points="0.0,352.0,320.5,352.0" stroke="black" stroke-width="1" fill="none" />
<polyline points="0.0,367.0,0.0,380.0" stroke="black" stroke-width="1" fill="none" />
<polyline points="0.0,368.0,309.5,368.0" stroke="black" stroke-width="1" fill="none" />
<polyline points="327.5,392.0,0.0,392.0" stroke="black" stroke-width="1" fill="none" />
<polyline points="0.0,320.0,343.5,320.0" stroke="black" stroke-width="1" fill="none" />
<polyline points="349.5,312.0,0.0,312.0" stroke="black" stroke-width="1" fill="none" />
<polyline points="0.0,304.0,354.0,304.0" stroke="black" stroke-width="1" fill="none" />
<polyline points="366.0,280.0,0.0,280.0" stroke="black" stroke-width="1" fill="none" />
<polyline points="0.0,272.0,368.5,272.0" stroke="black" stroke-width="1" fill="none" />
<polyline points="370.0,264.0,0.0,264.0" stroke="black" stroke-width="1" fill="none" />
<polyline points="0.0,256.0,371.0,256.0" stroke="black" stroke-width="1" fill="none" />
<polyline points="372.0,248.0,0.0,248.0" stroke="black" stroke-width="1" fill="none" />
<polyline points="0.0,240.0,372.5,240.0" stroke="black" stroke-width="1" fill="none" />
<polyline points="372.5,232.0,0.0,232.0" stroke="black" stroke-width="1" fill="none" />
<polyline points="0.0,224.0,373.0,224.0" stroke="black" stroke-width="1" fill="none" />
<polyline points="373.0,216.0,0.0,216.0" stroke="black" stroke-width="1" fill="none" />
<polyline points="0.0,184.0,397.5,184.0" stroke="black" stroke-width="1" fill="none" />
<polyline points="0.0,0.0,0.0,0.0" stroke="black" stroke-width="1" fill="none" />
</svg>