<svg xmlns="http://www.w3.org/2000/svg" height="512px" width="512px" version="1.1"><polyline points="136.0,0.0,137.0,8.0,140.0,12.0" stroke="black" stroke-width="1" fill="none" />
<polyline points="139.0,0.0,141.0,8.0,148.0,19.0,152.0,27.0" stroke="black" stroke-width="1" fill="none" />
<polyline points="169.0,35.0,177.0,53.0,185.0,59.0,193.0,59.0,201.0,59.0" stroke="black" stroke-width="1" fill="none" />
<polyline points="231.0,61.0,239.0,49.0,247.0,42.0,248.0,41.0,239.0,49.0,234.0,57.0,231.0,66.0,228.0,74.0,223.0,82.0,215.0,84.0,213.0,92.0,198.0,100.0,190.0,108.0,185.0,116.0,182.0,124.0,178.0,132.0,174.0,140.0,170.0,150.0,169.0,158.0,171.0,163.0,172.0,172.0,169.0,180.0,167.0,188.0,168.0,196.0,170.0,207.0,173.0,215.0,174.0,223.0,177.0,232.0,177.0,234.0,169.0,234.0,161.0,238.0,161.0,238.0,161.0,246.0,160.0,254.0,161.0,262.0,162.0,270.0,173.0,276.0,173.0,284.0,184.0,276.0,192.0,276.0,191.0,274.0,193.0,282.0,193.0,290.0,193.0,298.0,193.0,306.0,192.0,314.0,192.0,322.0,191.0,330.0,191.0,338.0,190.0,346.0,190.0,354.0,191.0,362.0,198.0,361.0,209.0,353.0,217.0,345.0,225.0,342.0" stroke="black" stroke-width="1" fill="none" />
<polyline points="221.0,325.0,225.0,325.0,226.0,333.0,226.0,341.0,211.0,349.0,209.0,357.0,212.0,365.0,218.0,373.0,218.0,381.0,219.0,389.0,220.0,397.0,221.0,405.0,223.0,413.0,225.0,421.0,227.0,429.0,230.0,437.0,233.0,445.0,236.0,453.0,239.0,461.0,242.0,469.0,246.0,477.0,250.0,485.0,255.0,493.0,261.0,501.0,267.0,509.0" stroke="black" stroke-width="1" fill="none" />
<polyline points="306.0,484.0,308.0,476.0,309.0,468.0,311.0,460.0,313.0,452.0,314.0,444.0,316.0,436.0,318.0,428.0,320.0,420.0,322.0,412.0,324.0,404.0,326.0,396.0,330.0,388.0,332.0,380.0,336.0,372.0,339.0,364.0,343.0,356.0,337.0,377.0,329.0,397.0" stroke="black" stroke-width="1" fill="none" />
<polyline points="330.0,385.0,338.0,366.0" stroke="black" stroke-width="1" fill="none" />
<polyline points="348.0,351.0,356.0,331.0,365.0,318.0,369.0,305.0,376.0,309.0,382.0,302.0" stroke="black" stroke-width="1" fill="none" />
<polyline points="390.0,325.0,404.0,333.0,401.0,331.0,393.0,326.0,385.0,323.0,377.0,322.0,369.0,324.0" stroke="black" stroke-width="1" fill="none" />
<polyline points="358.0,299.0,356.0,304.0,355.0,296.0" stroke="black" stroke-width="1" fill="none" />
<polyline points="367.0,274.0,372.0,282.0,374.0,290.0,376.0,298.0,373.0,306.0,372.0,309.0,366.0,317.0,362.0,324.0,356.0,332.0,354.0,340.0,350.0,348.0,347.0,356.0,343.0,364.0,339.0,372.0,336.0,381.0,332.0,389.0,329.0,397.0,327.0,405.0,325.0,413.0,323.0,421.0,321.0,429.0,319.0,437.0,317.0,445.0,316.0,453.0,314.0,461.0,312.0,469.0,311.0,477.0,309.0,485.0" stroke="black" stroke-width="1" fill="none" />
<polyline points="368.0,482.0,376.0,480.0,389.0,480.0,390.0,475.0,388.0,480.0,388.0,476.0,396.0,473.0,398.0,471.0" stroke="black" stroke-width="1" fill="none" />
<polyline points="411.0,481.0,403.0,484.0,395.0,488.0,387.0,490.0,383.0,495.0,378.0,500.0,386.0,497.0,380.0,489.0,375.0,488.0,368.0,479.0" stroke="black" stroke-width="1" fill="none" />
<polyline points="375.0,484.0,383.0,483.0,384.0,485.0,376.0,488.0" stroke="black" stroke-width="1" fill="none" />
<polyline points="385.0,493.0,393.0,495.0" stroke="black" stroke-width="1" fill="none" />
<polyline points="396.0,506.0,404.0,503.0,412.0,499.0,418.0,499.0,421.0,507.0,431.0,508.0" stroke="black" stroke-width="1" fill="none" />
<polyline points="433.0,497.0,425.0,497.0" stroke="black" stroke-width="1" fill="none" />
<polyline points="418.0,495.0,426.0,494.0,434.0,494.0" stroke="black" stroke-width="1" fill="none" />
<polyline points="413.0,482.0,396.0,490.0,392.0,495.0,401.0,488.0,409.0,485.0" stroke="black" stroke-width="1" fill="none" />
<polyline points="374.0,498.0,375.0,499.0,367.0,498.0" stroke="black" stroke-width="1" fill="none" />
<polyline points="265.0,500.0,257.0,488.0,249.0,475.0,241.0,456.0,233.0,435.0,229.0,434.0,237.0,456.0,245.0,475.0,253.0,489.0,261.0,500.0" stroke="black" stroke-width="1" fill="none" />
<polyline points="223.0,377.0,231.0,382.0,239.0,384.0,247.0,384.0,255.0,384.0,263.0,383.0,271.0,383.0,279.0,382.0,287.0,380.0,295.0,378.0,303.0,376.0,311.0,373.0,319.0,369.0,327.0,364.0,335.0,359.0,343.0,356.0,338.0,357.0,325.0,365.0,310.0,373.0" stroke="black" stroke-width="1" fill="none" />
<polyline points="211.0,362.0,221.0,376.0,222.0,384.0,222.0,392.0,224.0,400.0,226.0,408.0,227.0,416.0,229.0,424.0,232.0,432.0,234.0,440.0,237.0,448.0,241.0,456.0,244.0,464.0,247.0,472.0,251.0,480.0,256.0,488.0,262.0,496.0,267.0,504.0" stroke="black" stroke-width="1" fill="none" />
<polyline points="195.0,365.0,204.0,357.0" stroke="black" stroke-width="1" fill="none" />
<polyline points="219.0,330.0,211.0,319.0,203.0,302.0" stroke="black" stroke-width="1" fill="none" />
<polyline points="199.0,290.0,202.0,298.0,204.0,306.0,209.0,314.0,213.0,322.0,218.0,330.0" stroke="black" stroke-width="1" fill="none" />
<polyline points="193.0,360.0,194.0,352.0,194.0,344.0,195.0,336.0,195.0,328.0,196.0,320.0,196.0,312.0,196.0,304.0,197.0,296.0,199.0,288.0" stroke="black" stroke-width="1" fill="none" />
<polyline points="184.0,280.0,190.0,272.0" stroke="black" stroke-width="1" fill="none" />
<polyline points="177.0,279.0,170.0,273.0,162.0,268.0" stroke="black" stroke-width="1" fill="none" />
<polyline points="166.0,204.0,158.0,204.0,150.0,205.0,153.0,204.0,149.0,212.0,149.0,220.0,148.0,228.0,147.0,236.0,147.0,244.0,146.0,252.0,145.0,260.0,145.0,268.0,144.0,276.0,143.0,284.0,142.0,292.0,142.0,300.0" stroke="black" stroke-width="1" fill="none" />
<polyline points="107.0,322.0,99.0,322.0,91.0,322.0,83.0,323.0,85.0,322.0,83.0,330.0,87.0,342.0,86.0,350.0,85.0,358.0" stroke="black" stroke-width="1" fill="none" />
<polyline points="68.0,370.0,76.0,366.0,84.0,366.0,92.0,365.0,92.0,372.0,91.0,380.0,91.0,388.0" stroke="black" stroke-width="1" fill="none" />
<polyline points="105.0,394.0,97.0,399.0,89.0,403.0,81.0,408.0,73.0,413.0,65.0,418.0,57.0,425.0,49.0,433.0,41.0,443.0,33.0,451.0,25.0,460.0,17.0,471.0,9.0,481.0,1.0,489.0,6.0,484.0,13.0,476.0,19.0,468.0,25.0,460.0,32.0,452.0,40.0,444.0,46.0,436.0,54.0,428.0,63.0,420.0,74.0,412.0,88.0,404.0,101.0,396.0,109.0,388.0,110.0,380.0,110.0,372.0,111.0,364.0,112.0,356.0,113.0,348.0,113.0,340.0,114.0,332.0,115.0,324.0,116.0,316.0,116.0,308.0,109.0,307.0,101.0,307.0,93.0,307.0,85.0,308.0,77.0,308.0,69.0,308.0,61.0,308.0,53.0,308.0,45.0,308.0,37.0,308.0,29.0,311.0,32.0,308.0,28.0,316.0,27.0,324.0,20.0,337.0,21.0,342.0,13.0,339.0,12.0,338.0,20.0,337.0" stroke="black" stroke-width="1" fill="none" />
<polyline points="14.0,335.0,14.0,344.0,12.0,347.0,16.0,349.0,16.0,344.0,8.0,345.0" stroke="black" stroke-width="1" fill="none" />
<polyline points="0.0,367.0,8.0,367.0,16.0,367.0,16.0,372.0,8.0,372.0,0.0,372.0" stroke="black" stroke-width="1" fill="none" />
<polyline points="39.0,375.0,47.0,374.0,50.0,371.0,42.0,370.0,41.0,367.0,49.0,367.0" stroke="black" stroke-width="1" fill="none" />
<polyline points="56.0,364.0,48.0,364.0,40.0,364.0,40.0,362.0,48.0,361.0,56.0,360.0" stroke="black" stroke-width="1" fill="none" />
<polyline points="43.0,357.0,51.0,358.0,59.0,357.0,67.0,362.0,75.0,363.0,83.0,362.0" stroke="black" stroke-width="1" fill="none" />
<polyline points="65.0,353.0,57.0,354.0,49.0,354.0,41.0,355.0" stroke="black" stroke-width="1" fill="none" />
<polyline points="41.0,377.0,49.0,378.0" stroke="black" stroke-width="1" fill="none" />
<polyline points="39.0,391.0,36.0,399.0,34.0,407.0,32.0,407.0,33.0,416.0,34.0,424.0,38.0,427.0,46.0,423.0,55.0,422.0" stroke="black" stroke-width="1" fill="none" />
<polyline points="52.0,410.0,44.0,411.0,36.0,410.0" stroke="black" stroke-width="1" fill="none" />
<polyline points="33.0,416.0,41.0,414.0,49.0,413.0" stroke="black" stroke-width="1" fill="none" />
<polyline points="45.0,425.0,55.0,422.0,58.0,414.0,59.0,406.0,60.0,398.0,60.0,391.0,52.0,391.0,44.0,391.0,36.0,393.0" stroke="black" stroke-width="1" fill="none" />
<polyline points="0.0,417.0,8.0,417.0,12.0,418.0,14.0,426.0,13.0,434.0,12.0,442.0,11.0,450.0,10.0,458.0,7.0,466.0,6.0,467.0" stroke="black" stroke-width="1" fill="none" />
<polyline points="8.0,475.0,0.0,475.0" stroke="black" stroke-width="1" fill="none" />
<polyline points="89.0,415.0,81.0,424.0,73.0,435.0,75.0,431.0,82.0,423.0,89.0,415.0,95.0,407.0,93.0,405.0,80.0,413.0,68.0,421.0,58.0,429.0,54.0,434.0,62.0,426.0,70.0,419.0,78.0,414.0,86.0,409.0" stroke="black" stroke-width="1" fill="none" />
<polyline points="137.0,375.0,137.0,367.0,136.0,365.0" stroke="black" stroke-width="1" fill="none" />
<polyline points="144.0,363.0,152.0,360.0,160.0,362.0,168.0,365.0,176.0,367.0" stroke="black" stroke-width="1" fill="none" />
<polyline points="169.0,371.0,161.0,373.0,153.0,375.0,145.0,377.0,142.0,374.0,144.0,376.0,144.0,368.0,148.0,360.0" stroke="black" stroke-width="1" fill="none" />
<polyline points="94.0,300.0,86.0,301.0,78.0,300.0,77.0,298.0,85.0,296.0,93.0,296.0" stroke="black" stroke-width="1" fill="none" />
<polyline points="104.0,331.0,96.0,331.0,88.0,331.0,84.0,335.0,76.0,334.0,68.0,335.0,70.0,334.0,67.0,342.0,66.0,350.0,63.0,359.0,69.0,368.0,68.0,376.0,66.0,384.0,68.0,392.0,72.0,392.0,80.0,391.0,88.0,391.0" stroke="black" stroke-width="1" fill="none" />
<polyline points="71.0,267.0,63.0,260.0,63.0,260.0,71.0,268.0,73.0,276.0,71.0,284.0,62.0,292.0,63.0,292.0,71.0,284.0" stroke="black" stroke-width="1" fill="none" />
<polyline points="34.0,256.0,26.0,243.0,18.0,246.0,14.0,246.0,16.0,238.0,17.0,230.0,18.0,222.0,18.0,222.0" stroke="black" stroke-width="1" fill="none" />
<polyline points="29.0,244.0,33.0,252.0,37.0,260.0,29.0,268.0,31.0,267.0" stroke="black" stroke-width="1" fill="none" />
<polyline points="15.0,268.0,25.0,276.0,41.0,284.0,45.0,285.0,37.0,281.0,29.0,277.0,39.0,267.0,44.0,259.0,45.0,251.0,38.0,268.0,30.0,273.0,22.0,274.0,14.0,265.0,14.0,265.0,11.0,273.0,10.0,281.0,8.0,289.0,7.0,297.0,6.0,305.0,5.0,313.0,4.0,321.0,3.0,329.0,8.0,332.0,16.0,332.0,24.0,331.0" stroke="black" stroke-width="1" fill="none" />
<polyline points="126.0,206.0,134.0,202.0,142.0,202.0,150.0,200.0,158.0,200.0,166.0,200.0" stroke="black" stroke-width="1" fill="none" />
<polyline points="128.0,202.0,126.0,210.0,125.0,218.0,125.0,226.0,124.0,234.0,123.0,242.0,122.0,250.0,122.0,258.0,121.0,266.0" stroke="black" stroke-width="1" fill="none" />
<polyline points="64.0,162.0,56.0,158.0" stroke="black" stroke-width="1" fill="none" />
<polyline points="53.0,147.0,61.0,145.0,69.0,145.0,77.0,144.0,85.0,143.0,93.0,142.0,101.0,142.0,109.0,142.0,117.0,142.0,125.0,140.0,133.0,140.0,141.0,140.0,149.0,140.0,157.0,139.0,165.0,138.0,173.0,138.0,174.0,143.0" stroke="black" stroke-width="1" fill="none" />
<polyline points="176.0,135.0,184.0,117.0,192.0,106.0,201.0,98.0,209.0,95.0" stroke="black" stroke-width="1" fill="none" />
<polyline points="276.0,46.0,284.0,52.0" stroke="black" stroke-width="1" fill="none" />
<polyline points="292.0,82.0,282.0,89.0,290.0,83.0" stroke="black" stroke-width="1" fill="none" />
<polyline points="294.0,70.0,300.0,62.0,302.0,54.0,307.0,46.0,314.0,38.0" stroke="black" stroke-width="1" fill="none" />
<polyline points="335.0,34.0,348.0,42.0,354.0,50.0,358.0,58.0,360.0,66.0,360.0,74.0,360.0,82.0,360.0,90.0,360.0,89.0,371.0,103.0,375.0,111.0,378.0,119.0,382.0,127.0,387.0,135.0,391.0,143.0,390.0,151.0,395.0,159.0,401.0,167.0,403.0,175.0,398.0,183.0,399.0,191.0,400.0,199.0,398.0,207.0,394.0,215.0,389.0,218.0,397.0,208.0" stroke="black" stroke-width="1" fill="none" />
<polyline points="400.0,194.0,408.0,194.0,416.0,193.0,424.0,192.0,432.0,192.0,437.0,195.0,436.0,203.0,435.0,211.0" stroke="black" stroke-width="1" fill="none" />
<polyline points="433.0,228.0,428.0,236.0,433.0,237.0,433.0,245.0,433.0,253.0,434.0,261.0,433.0,269.0,433.0,277.0" stroke="black" stroke-width="1" fill="none" />
<polyline points="414.0,277.0,412.0,269.0,404.0,267.0,405.0,259.0,406.0,251.0,420.0,246.0,412.0,246.0,404.0,253.0" stroke="black" stroke-width="1" fill="none" />
<polyline points="396.0,271.0,397.0,279.0,398.0,287.0,398.0,295.0,398.0,303.0,399.0,311.0,399.0,319.0" stroke="black" stroke-width="1" fill="none" />
<polyline points="423.0,328.0,431.0,328.0,440.0,326.0,442.0,330.0" stroke="black" stroke-width="1" fill="none" />
<polyline points="433.0,319.0,425.0,322.0,417.0,333.0,409.0,336.0,401.0,339.0,398.0,336.0,400.0,339.0,422.0,327.0,429.0,319.0" stroke="black" stroke-width="1" fill="none" />
<polyline points="417.0,341.0,418.0,349.0,420.0,357.0,421.0,365.0" stroke="black" stroke-width="1" fill="none" />
<polyline points="456.0,342.0,464.0,330.0,472.0,326.0,480.0,327.0,488.0,333.0,496.0,339.0,504.0,349.0" stroke="black" stroke-width="1" fill="none" />
<polyline points="508.0,380.0,500.0,380.0,492.0,384.0,484.0,391.0,479.0,399.0,484.0,391.0,494.0,383.0,499.0,383.0,501.0,386.0,499.0,394.0,495.0,390.0,503.0,386.0" stroke="black" stroke-width="1" fill="none" />
<polyline points="499.0,360.0,491.0,370.0,483.0,382.0,475.0,398.0,472.0,407.0,475.0,399.0,479.0,391.0,483.0,383.0,487.0,375.0,493.0,367.0,500.0,359.0,504.0,351.0,499.0,343.0,491.0,335.0,478.0,327.0" stroke="black" stroke-width="1" fill="none" />
<polyline points="467.0,327.0,459.0,335.0,456.0,343.0,454.0,351.0,453.0,359.0" stroke="black" stroke-width="1" fill="none" />
<polyline points="419.0,279.0,420.0,271.0,426.0,268.0,426.0,260.0,426.0,252.0,426.0,244.0,425.0,236.0,424.0,228.0,418.0,226.0,410.0,228.0,402.0,228.0,401.0,225.0,409.0,222.0,412.0,219.0,420.0,223.0" stroke="black" stroke-width="1" fill="none" />
<polyline points="400.0,233.0,400.0,241.0,400.0,249.0,400.0,257.0,401.0,265.0,402.0,273.0,402.0,281.0,402.0,289.0,403.0,297.0,403.0,305.0,403.0,313.0,404.0,321.0,403.0,324.0" stroke="black" stroke-width="1" fill="none" />
<polyline points="390.0,270.0,382.0,270.0,374.0,270.0,366.0,273.0,358.0,285.0,360.0,281.0,365.0,273.0" stroke="black" stroke-width="1" fill="none" />
<polyline points="399.0,188.0,407.0,190.0,415.0,189.0,423.0,189.0,431.0,189.0,439.0,189.0,447.0,189.0,455.0,189.0" stroke="black" stroke-width="1" fill="none" />
<polyline points="452.0,142.0,458.0,137.0" stroke="black" stroke-width="1" fill="none" />
<polyline points="448.0,156.0,440.0,162.0,432.0,162.0,424.0,163.0,416.0,164.0,408.0,164.0,407.0,168.0,399.0,163.0,391.0,153.0" stroke="black" stroke-width="1" fill="none" />
<polyline points="382.0,127.0,390.0,125.0,398.0,125.0,406.0,125.0,414.0,123.0,422.0,123.0,430.0,123.0,438.0,123.0,446.0,123.0,454.0,122.0,454.0,129.0,455.0,137.0,452.0,144.0,452.0,152.0,443.0,160.0" stroke="black" stroke-width="1" fill="none" />
<polyline points="484.0,20.0,487.0,12.0,486.0,5.0,478.0,6.0,470.0,7.0,462.0,8.0" stroke="black" stroke-width="1" fill="none" />
<polyline points="394.0,13.0,386.0,13.0,378.0,13.0,370.0,13.0,362.0,15.0,354.0,15.0,346.0,16.0,338.0,17.0,330.0,17.0,322.0,19.0,314.0,19.0,306.0,19.0,298.0,21.0,290.0,21.0,282.0,21.0,274.0,21.0" stroke="black" stroke-width="1" fill="none" />
<polyline points="267.0,0.0,268.0,8.0,270.0,16.0,271.0,24.0,273.0,32.0,271.0,40.0,278.0,48.0,287.0,56.0,289.0,64.0,301.0,59.0,309.0,43.0" stroke="black" stroke-width="1" fill="none" />
<polyline points="335.0,34.0,343.0,37.0,351.0,44.0,359.0,58.0" stroke="black" stroke-width="1" fill="none" />
<polyline points="374.0,30.0,375.0,22.0,374.0,14.0" stroke="black" stroke-width="1" fill="none" />
<polyline points="255.0,2.0,247.0,2.0,239.0,2.0,231.0,2.0,223.0,2.0,210.0,2.0,202.0,4.0,194.0,5.0,186.0,6.0,178.0,6.0,170.0,6.0,162.0,8.0" stroke="black" stroke-width="1" fill="none" />
<polyline points="150.0,1.0,150.0,2.0,160.0,9.0,162.0,17.0,165.0,25.0,168.0,33.0,172.0,41.0,174.0,49.0,178.0,57.0" stroke="black" stroke-width="1" fill="none" />
<polyline points="147.0,34.0,139.0,36.0,131.0,36.0,123.0,37.0,115.0,38.0,107.0,38.0,99.0,40.0,91.0,40.0,78.0,41.0,70.0,42.0,62.0,43.0,54.0,43.0,46.0,45.0,38.0,45.0,30.0,46.0,22.0,47.0" stroke="black" stroke-width="1" fill="none" />
<polyline points="23.0,21.0,22.0,13.0" stroke="black" stroke-width="1" fill="none" />
<polyline points="57.0,145.0,58.0,153.0,65.0,164.0,66.0,172.0,69.0,174.0,77.0,177.0,85.0,179.0,93.0,180.0,101.0,179.0,109.0,179.0,117.0,179.0,125.0,179.0,133.0,179.0,141.0,178.0,149.0,177.0,157.0,177.0,165.0,177.0" stroke="black" stroke-width="1" fill="none" />
<polyline points="476.0,478.0,479.0,486.0,482.0,494.0" stroke="black" stroke-width="1" fill="none" />
<polyline points="137.0,0.0,138.5,0.0" stroke="black" stroke-width="1" fill="none" />
<polyline points="138.0,8.0,139.5,8.0" stroke="black" stroke-width="1" fill="none" />
<polyline points="152.0,0.0,159.5,0.0" stroke="black" stroke-width="1" fill="none" />
<polyline points="158.5,8.0,269.5,8.0" stroke="black" stroke-width="1" fill="none" />
<polyline points="264.0,0.0,264.0,385.0,264.0,386.5,264.0,387.0,264.0,389.5,264.0,407.5" stroke="black" stroke-width="1" fill="none" />
<polyline points="264.0,413.5,264.0,417.0,264.0,422.5,264.0,429.0,264.0,430.0,264.0,437.5,264.0,438.5,264.0,439.5,264.0,441.0,264.0,511.5,267.5,508.5,269.0,507.0" stroke="black" stroke-width="1" fill="none" />
<polyline points="264.5,503.5,266.0,502.0" stroke="black" stroke-width="1" fill="none" />
<polyline points="262.5,497.5,261.0,499.0,260.0,500.0,271.5,511.5" stroke="black" stroke-width="1" fill="none" />
<polyline points="258.0,494.0,259.0,493.0" stroke="black" stroke-width="1" fill="none" />
<polyline points="254.5,489.5,256.0,488.0" stroke="black" stroke-width="1" fill="none" />
<polyline points="251.5,484.5,253.0,483.0,249.0,479.0,249.5,478.5,248.0,480.0,258.5,490.5" stroke="black" stroke-width="1" fill="none" />
<polyline points="246.0,474.0,247.0,473.0,246.0,470.0,241.5,465.5,241.5,462.5,242.0,462.0" stroke="black" stroke-width="1" fill="none" />
<polyline points="239.0,457.0,240.0,456.0,240.5,456.5,236.5,452.5,237.0,451.0,237.5,450.5,240.0,450.0,240.0,466.5,240.0,470.5,240.0,471.5,240.0,472.0,240.0,473.5,240.0,474.0,240.0,474.5,240.0,476.0,240.0,511.5" stroke="black" stroke-width="1" fill="none" />
<polyline points="272.0,511.5,272.0,420.0" stroke="black" stroke-width="1" fill="none" />
<polyline points="280.0,420.0,280.0,511.5" stroke="black" stroke-width="1" fill="none" />
<polyline points="302.0,510.0,303.5,511.5,304.5,511.5,305.0,511.0" stroke="black" stroke-width="1" fill="none" />
<polyline points="303.0,505.0,306.0,502.0,303.0,503.0,306.5,506.5" stroke="black" stroke-width="1" fill="none" />
<polyline points="307.5,499.5,304.5,496.5,305.0,495.0,307.5,492.5,309.0,493.0,305.5,489.5,307.0,485.0,309.5,482.5,307.0,483.0,310.0,486.0" stroke="black" stroke-width="1" fill="none" />
<polyline points="311.5,479.5,308.0,476.0,309.0,475.0,312.0,472.0,312.5,472.5,309.0,469.0,311.0,465.0,313.5,462.5,311.0,463.0,314.0,466.0" stroke="black" stroke-width="1" fill="none" />
<polyline points="315.0,459.0,312.5,456.5,313.5,454.5,315.5,452.5,316.0,452.0,313.5,449.5,315.5,444.5,318.0,442.0,315.5,443.5,318.0,446.0" stroke="black" stroke-width="1" fill="none" />
<polyline points="320.0,452.0,320.0,456.0,320.0,456.5,320.0,468.0" stroke="black" stroke-width="1" fill="none" />
<polyline points="336.0,468.0,336.0,467.5,336.0,468.5,336.0,469.0" stroke="black" stroke-width="1" fill="none" />
<polyline points="336.0,475.5,336.0,476.0,336.0,477.5,336.0,511.5" stroke="black" stroke-width="1" fill="none" />
<polyline points="349.5,509.5,351.5,511.5" stroke="black" stroke-width="1" fill="none" />
<polyline points="347.0,499.0,345.5,497.5,345.0,497.0,344.5,496.5,340.5,492.5,340.0,492.0" stroke="black" stroke-width="1" fill="none" />
<polyline points="343.5,487.5,343.0,487.0" stroke="black" stroke-width="1" fill="none" />
<polyline points="347.5,483.5,346.0,482.0,350.0,478.0,349.5,477.5" stroke="black" stroke-width="1" fill="none" />
<polyline points="354.0,474.0,352.5,472.5" stroke="black" stroke-width="1" fill="none" />
<polyline points="356.0,468.0,357.0,469.0,356.5,467.5,357.0,467.0" stroke="black" stroke-width="1" fill="none" />
<polyline points="371.0,475.0,372.5,476.5,374.0,478.0,376.0,480.0,377.0,479.0,379.0,477.0,380.0,476.0,384.0,480.0,380.0,484.0,382.5,486.5,380.0,484.0,376.5,487.5,375.5,487.5,377.0,489.0,379.0,491.0,383.0,495.0,384.0,496.0,386.0,498.0" stroke="black" stroke-width="1" fill="none" />
<polyline points="388.0,492.0,389.5,490.5,387.0,491.0,389.0,493.0,393.5,494.5,395.0,493.0,395.0,491.0,393.0,489.0,392.0,488.0,392.0,498.0" stroke="black" stroke-width="1" fill="none" />
<polyline points="392.0,505.5,392.0,511.5,391.5,511.5,388.5,508.5,384.0,508.5,384.0,511.5" stroke="black" stroke-width="1" fill="none" />
<polyline points="376.0,509.5,376.0,508.5" stroke="black" stroke-width="1" fill="none" />
<polyline points="375.5,496.5,377.0,495.0,375.0,495.0,377.5,497.5" stroke="black" stroke-width="1" fill="none" />
<polyline points="369.5,497.5,368.0,496.0,368.0,492.5,368.0,511.5" stroke="black" stroke-width="1" fill="none" />
<polyline points="362.0,498.0,361.5,497.5" stroke="black" stroke-width="1" fill="none" />
<polyline points="355.0,499.0,353.0,497.0" stroke="black" stroke-width="1" fill="none" />
<polyline points="368.5,480.5,370.0,482.0" stroke="black" stroke-width="1" fill="none" />
<polyline points="376.0,483.5,376.0,505.0" stroke="black" stroke-width="1" fill="none" />
<polyline points="396.5,508.5,398.5,510.5,397.0,507.0,398.5,505.5,400.5,504.5,401.5,505.5,400.0,508.0,400.0,502.5" stroke="black" stroke-width="1" fill="none" />
<polyline points="406.5,502.5,409.5,505.5,405.0,507.0,411.0,501.0,412.0,500.0,416.0,504.0" stroke="black" stroke-width="1" fill="none" />
<polyline points="418.0,498.0,428.0,508.0,429.5,506.5,432.5,503.5,430.5,502.5,433.5,505.5" stroke="black" stroke-width="1" fill="none" />
<polyline points="436.5,500.5,435.0,499.0,432.0,496.0,434.0,494.0,430.5,494.5,433.5,497.5" stroke="black" stroke-width="1" fill="none" />
<polyline points="440.5,496.5,448.5,504.5,449.0,505.0,455.5,511.5" stroke="black" stroke-width="1" fill="none" />
<polyline points="462.0,510.0,463.5,511.5" stroke="black" stroke-width="1" fill="none" />
<polyline points="447.5,511.5,441.0,505.0" stroke="black" stroke-width="1" fill="none" />
<polyline points="439.5,511.5,439.5,511.5" stroke="black" stroke-width="1" fill="none" />
<polyline points="427.0,509.0,424.5,511.5,423.5,511.5,421.5,509.5,422.0,506.0,426.0,502.0" stroke="black" stroke-width="1" fill="none" />
<polyline points="420.5,499.5,425.5,494.5,423.0,495.0,425.5,497.5" stroke="black" stroke-width="1" fill="none" />
<polyline points="420.0,492.0,419.5,491.5,419.0,491.0,418.5,490.5,416.0,491.0,416.0,511.5" stroke="black" stroke-width="1" fill="none" />
<polyline points="409.5,510.5,408.5,511.5,407.5,511.5,404.0,508.0,408.0,511.5,408.0,500.0,408.0,495.5,408.0,488.5,406.5,486.5,404.5,484.5,402.0,486.0,400.0,488.0,400.5,488.5,399.0,487.0,400.0,485.0,400.0,490.0,400.0,490.5,400.0,494.5,400.0,495.5,400.0,496.0" stroke="black" stroke-width="1" fill="none" />
<polyline points="389.0,483.0,391.0,481.0,392.0,478.0,392.0,485.5" stroke="black" stroke-width="1" fill="none" />
<polyline points="394.0,474.0,389.5,469.5" stroke="black" stroke-width="1" fill="none" />
<polyline points="395.0,467.0,395.5,467.5,400.0,467.5,400.0,471.5,400.0,473.5,400.0,474.0" stroke="black" stroke-width="1" fill="none" />
<polyline points="410.0,482.0,412.5,484.5,412.5,483.5,413.5,482.5,416.0,486.0,416.0,490.0" stroke="black" stroke-width="1" fill="none" />
<polyline points="420.0,484.0,419.0,483.0,424.0,482.0,424.0,511.5" stroke="black" stroke-width="1" fill="none" />
<polyline points="445.0,493.0,438.0,486.0" stroke="black" stroke-width="1" fill="none" />
<polyline points="445.0,485.0,446.5,486.5,444.0,484.0,437.5,477.5" stroke="black" stroke-width="1" fill="none" />
<polyline points="439.5,471.5,446.5,478.5,450.5,482.5,451.5,483.5,452.0,484.0,452.5,484.5,453.5,485.5,455.5,487.5,456.0,488.0,456.5,488.5" stroke="black" stroke-width="1" fill="none" />
<polyline points="452.0,492.0,455.0,495.0" stroke="black" stroke-width="1" fill="none" />
<polyline points="450.5,498.5,457.0,505.0" stroke="black" stroke-width="1" fill="none" />
<polyline points="484.5,500.5,489.5,505.5,487.5,504.5,487.0,505.0" stroke="black" stroke-width="1" fill="none" />
<polyline points="489.5,510.5,489.0,511.0" stroke="black" stroke-width="1" fill="none" />
<polyline points="504.0,511.5,504.0,504.5,504.0,501.5,504.0,495.0" stroke="black" stroke-width="1" fill="none" />
<polyline points="504.0,487.5,504.0,486.0,504.0,485.0,504.0,483.5" stroke="black" stroke-width="1" fill="none" />
<polyline points="496.0,470.0,496.0,511.5" stroke="black" stroke-width="1" fill="none" />
<polyline points="483.0,493.0,484.5,491.5,480.5,487.5,483.0,485.0,480.0,488.0,486.0,494.0" stroke="black" stroke-width="1" fill="none" />
<polyline points="480.5,479.5,483.5,476.5,485.0,477.0,480.0,472.0,482.5,469.5,486.5,465.5,488.5,464.5,482.5,458.5,483.5,460.5,487.5,456.5" stroke="black" stroke-width="1" fill="none" />
<polyline points="493.5,453.5,483.5,443.5" stroke="black" stroke-width="1" fill="none" />
<polyline points="488.5,440.5,494.0,446.0" stroke="black" stroke-width="1" fill="none" />
<polyline points="494.5,438.5,494.0,438.0,491.0,435.0,490.0,434.0" stroke="black" stroke-width="1" fill="none" />
<polyline points="495.0,431.0,495.5,431.5" stroke="black" stroke-width="1" fill="none" />
<polyline points="483.0,451.0,491.0,459.0" stroke="black" stroke-width="1" fill="none" />
<polyline points="481.5,465.5,486.5,470.5" stroke="black" stroke-width="1" fill="none" />
<polyline points="478.0,478.0,484.5,484.5" stroke="black" stroke-width="1" fill="none" />
<polyline points="472.0,473.0,472.0,511.5" stroke="black" stroke-width="1" fill="none" />
<polyline points="488.0,511.5,488.0,398.5" stroke="black" stroke-width="1" fill="none" />
<polyline points="496.0,399.0,496.0,453.5" stroke="black" stroke-width="1" fill="none" />
<polyline points="472.0,472.0,472.0,472.5,472.0,471.5,472.0,427.0" stroke="black" stroke-width="1" fill="none" />
<polyline points="480.0,411.0,480.0,511.5" stroke="black" stroke-width="1" fill="none" />
<polyline points="464.0,511.5,464.0,464.0,464.0,461.0,464.0,460.0" stroke="black" stroke-width="1" fill="none" />
<polyline points="456.0,446.0,456.0,511.5" stroke="black" stroke-width="1" fill="none" />
<polyline points="448.0,472.0,446.0,470.0" stroke="black" stroke-width="1" fill="none" />
<polyline points="448.5,464.5,445.0,461.0" stroke="black" stroke-width="1" fill="none" />
<polyline points="438.5,462.5,434.0,458.0" stroke="black" stroke-width="1" fill="none" />
<polyline points="434.0,450.0,442.0,458.0" stroke="black" stroke-width="1" fill="none" />
<polyline points="434.5,466.5,435.5,467.5" stroke="black" stroke-width="1" fill="none" />
<polyline points="424.0,468.5,424.0,476.5,422.0,478.0,420.5,476.5,424.5,472.5,422.5,470.5,421.5,469.5,420.5,468.5,424.0,467.5,424.0,465.0" stroke="black" stroke-width="1" fill="none" />
<polyline points="416.0,454.0,416.0,479.5" stroke="black" stroke-width="1" fill="none" />
<polyline points="402.5,458.5,401.0,457.0" stroke="black" stroke-width="1" fill="none" />
<polyline points="416.0,452.5,416.0,449.5" stroke="black" stroke-width="1" fill="none" />
<polyline points="424.0,440.0,424.0,438.0" stroke="black" stroke-width="1" fill="none" />
<polyline points="431.5,439.5,433.5,441.5,435.0,443.0,446.5,454.5" stroke="black" stroke-width="1" fill="none" />
<polyline points="445.0,445.0,442.0,442.0,439.5,439.5,438.0,438.0,436.5,436.5,434.0,434.0,432.0,432.0,431.0,431.0" stroke="black" stroke-width="1" fill="none" />
<polyline points="437.0,429.0,437.5,429.5" stroke="black" stroke-width="1" fill="none" />
<polyline points="448.0,426.5,448.0,511.5" stroke="black" stroke-width="1" fill="none" />
<polyline points="382.5,470.5,380.5,468.5" stroke="black" stroke-width="1" fill="none" />
<polyline points="400.0,464.5,400.0,413.5,400.0,409.0,400.0,408.5" stroke="black" stroke-width="1" fill="none" />
<polyline points="384.0,409.5,384.0,407.0,384.0,404.5,384.0,402.5" stroke="black" stroke-width="1" fill="none" />
<polyline points="384.0,415.5,384.0,416.0,384.0,419.0,384.0,422.0,384.0,425.0,384.0,427.5,384.0,429.0,384.0,437.5,384.0,438.0,384.0,501.5" stroke="black" stroke-width="1" fill="none" />
<polyline points="432.0,511.5,432.0,398.5" stroke="black" stroke-width="1" fill="none" />
<polyline points="426.5,402.5,425.0,401.0" stroke="black" stroke-width="1" fill="none" />
<polyline points="428.0,412.0,431.0,415.0" stroke="black" stroke-width="1" fill="none" />
<polyline points="428.0,420.0,428.5,420.5,425.5,417.5,425.0,417.0" stroke="black" stroke-width="1" fill="none" />
<polyline points="440.0,411.5,440.0,511.5" stroke="black" stroke-width="1" fill="none" />
<polyline points="424.0,437.0,424.0,380.5" stroke="black" stroke-width="1" fill="none" />
<polyline points="416.0,389.0,416.0,389.5" stroke="black" stroke-width="1" fill="none" />
<polyline points="416.0,373.5,416.0,371.5" stroke="black" stroke-width="1" fill="none" />
<polyline points="416.0,363.0,416.0,343.5" stroke="black" stroke-width="1" fill="none" />
<polyline points="408.0,344.5,408.0,342.0" stroke="black" stroke-width="1" fill="none" />
<polyline points="409.5,336.0,416.5,336.0" stroke="black" stroke-width="1" fill="none" />
<polyline points="420.5,328.0,437.5,328.0,439.0,328.0,445.0,328.0" stroke="black" stroke-width="1" fill="none" />
<polyline points="434.0,326.0,432.5,327.5,428.5,323.5,429.0,323.0,430.0,322.0,431.5,320.5,432.0,320.0,432.0,328.5" stroke="black" stroke-width="1" fill="none" />
<polyline points="426.5,325.5,425.0,327.0,424.0,328.0,423.0,327.0,424.0,328.5,424.0,325.0,427.0,323.0,432.0,328.0" stroke="black" stroke-width="1" fill="none" />
<polyline points="435.0,323.0,432.5,320.5,437.0,320.0,427.0,320.0" stroke="black" stroke-width="1" fill="none" />
<polyline points="403.0,317.0,401.0,319.0,400.5,320.5,403.5,323.5,400.0,324.0,400.0,218.0,400.0,217.5,400.0,216.0,400.0,215.5,400.0,214.0,395.0,213.0,391.0,217.0,388.5,219.5,387.0,221.0" stroke="black" stroke-width="1" fill="none" />
<polyline points="392.5,223.5,381.5,234.5,377.5,230.5,385.0,223.0" stroke="black" stroke-width="1" fill="none" />
<polyline points="378.0,222.0,399.0,201.0,400.0,200.0,301.0,101.0" stroke="black" stroke-width="1" fill="none" />
<polyline points="296.5,104.5,397.5,205.5" stroke="black" stroke-width="1" fill="none" />
<polyline points="396.5,212.5,303.0,119.0,301.0,117.0,290.0,106.0" stroke="black" stroke-width="1" fill="none" />
<polyline points="294.5,102.5,295.5,103.5" stroke="black" stroke-width="1" fill="none" />
<polyline points="289.0,105.0,284.0,100.0,283.5,99.5,237.5,53.5,243.0,53.0,248.5,47.5,245.0,45.0,285.5,85.5,284.5,83.5,311.5,56.5,315.0,53.0,316.5,51.5" stroke="black" stroke-width="1" fill="none" />
<polyline points="312.0,48.0,376.0,112.0,375.5,112.5,335.0,153.0,331.0,149.0,373.0,107.0,376.0,105.5,376.0,270.5,379.0,269.0,379.5,268.5,379.5,267.5,382.0,270.0" stroke="black" stroke-width="1" fill="none" />
<polyline points="387.5,267.5,389.0,269.0" stroke="black" stroke-width="1" fill="none" />
<polyline points="391.5,263.5,401.5,273.5,399.0,273.0,401.0,271.0,404.0,272.0,396.5,272.0,396.0,268.0,397.0,267.0,398.5,265.5,400.5,263.5" stroke="black" stroke-width="1" fill="none" />
<polyline points="396.0,260.0,400.0,256.0" stroke="black" stroke-width="1" fill="none" />
<polyline points="395.5,252.5,400.0,248.0" stroke="black" stroke-width="1" fill="none" />
<polyline points="395.0,245.0,400.0,240.0" stroke="black" stroke-width="1" fill="none" />
<polyline points="399.0,233.0,390.0,242.0" stroke="black" stroke-width="1" fill="none" />
<polyline points="383.0,241.0,400.0,224.0,399.0,223.0,401.0,225.0" stroke="black" stroke-width="1" fill="none" />
<polyline points="400.5,232.5,290.0,122.0" stroke="black" stroke-width="1" fill="none" />
<polyline points="282.0,122.0,401.0,241.0" stroke="black" stroke-width="1" fill="none" />
<polyline points="401.0,249.0,272.0,120.0" stroke="black" stroke-width="1" fill="none" />
<polyline points="267.0,117.0,266.5,117.5" stroke="black" stroke-width="1" fill="none" />
<polyline points="266.5,125.5,253.0,139.0" stroke="black" stroke-width="1" fill="none" />
<polyline points="263.0,137.0,271.5,128.5" stroke="black" stroke-width="1" fill="none" />
<polyline points="278.0,130.0,269.5,138.5,268.5,139.5,268.0,140.0" stroke="black" stroke-width="1" fill="none" />
<polyline points="277.0,139.0,281.5,134.5" stroke="black" stroke-width="1" fill="none" />
<polyline points="285.0,139.0,281.5,142.5" stroke="black" stroke-width="1" fill="none" />
<polyline points="274.0,150.0,273.0,151.0" stroke="black" stroke-width="1" fill="none" />
<polyline points="280.0,160.0,270.0,170.0,268.5,171.5,267.5,172.5,263.5,168.5,277.0,155.0" stroke="black" stroke-width="1" fill="none" />
<polyline points="272.0,152.0,260.5,163.5" stroke="black" stroke-width="1" fill="none" />
<polyline points="259.0,157.0,265.5,150.5" stroke="black" stroke-width="1" fill="none" />
<polyline points="250.0,166.0,247.5,168.5" stroke="black" stroke-width="1" fill="none" />
<polyline points="240.0,168.0,256.5,151.5" stroke="black" stroke-width="1" fill="none" />
<polyline points="241.0,143.0,262.5,121.5" stroke="black" stroke-width="1" fill="none" />
<polyline points="275.0,109.0,275.5,108.5" stroke="black" stroke-width="1" fill="none" />
<polyline points="276.0,100.0,227.5,148.5" stroke="black" stroke-width="1" fill="none" />
<polyline points="218.5,157.5,218.0,158.0,215.5,160.5,171.0,205.0,171.0,203.0,208.0,240.0" stroke="black" stroke-width="1" fill="none" />
<polyline points="205.5,245.5,213.5,253.5" stroke="black" stroke-width="1" fill="none" />
<polyline points="216.0,264.0,195.5,284.5,194.5,282.5,291.5,379.5,293.5,378.5,301.0,371.0" stroke="black" stroke-width="1" fill="none" />
<polyline points="305.5,374.5,313.5,366.5" stroke="black" stroke-width="1" fill="none" />
<polyline points="322.0,366.0,326.5,361.5,327.0,361.0,330.5,357.5,332.0,356.0,338.0,350.0,339.5,348.5,356.0,332.0" stroke="black" stroke-width="1" fill="none" />
<polyline points="346.5,325.5,356.5,315.5,355.5,315.5,364.0,324.0,368.0,327.0,368.0,360.0,368.0,360.5,368.0,362.0" stroke="black" stroke-width="1" fill="none" />
<polyline points="360.0,380.5,360.0,388.0,360.0,391.5,360.0,511.5" stroke="black" stroke-width="1" fill="none" />
<polyline points="376.0,482.0,376.0,430.5,376.0,429.0,376.0,424.5,376.0,422.5,376.0,420.5,376.0,416.5,376.0,414.5" stroke="black" stroke-width="1" fill="none" />
<polyline points="368.0,412.0,368.0,422.0,368.0,424.0,368.0,424.5,368.0,426.5,368.0,432.0,368.0,433.0,368.0,492.0" stroke="black" stroke-width="1" fill="none" />
<polyline points="408.0,488.0,408.0,434.0,408.0,428.5,408.0,428.0" stroke="black" stroke-width="1" fill="none" />
<polyline points="384.0,398.5,384.0,386.0" stroke="black" stroke-width="1" fill="none" />
<polyline points="392.0,386.0,392.0,476.5" stroke="black" stroke-width="1" fill="none" />
<polyline points="352.0,511.5,352.0,413.5,352.0,412.0,352.0,47.5" stroke="black" stroke-width="1" fill="none" />
<polyline points="344.0,42.0,344.0,418.5,344.0,421.0,344.0,424.5,344.0,428.5,344.0,431.5,344.0,433.5,344.0,434.5,344.0,437.0,344.0,441.5,344.0,442.0,344.0,511.5" stroke="black" stroke-width="1" fill="none" />
<polyline points="328.0,511.5,328.0,498.5" stroke="black" stroke-width="1" fill="none" />
<polyline points="319.5,439.5,316.5,436.5,318.0,434.0,320.0,432.0,321.0,433.0,318.0,430.0" stroke="black" stroke-width="1" fill="none" />
<polyline points="320.0,424.0,322.5,421.5,319.5,423.5,322.5,426.5" stroke="black" stroke-width="1" fill="none" />
<polyline points="324.5,420.5,321.5,417.5,322.5,413.5,326.0,410.0,323.0,411.0,326.0,414.0" stroke="black" stroke-width="1" fill="none" />
<polyline points="327.0,407.0,324.0,404.0,326.5,401.5,328.5,399.5,329.0,401.0,326.5,398.5" stroke="black" stroke-width="1" fill="none" />
<polyline points="331.0,395.0,328.0,392.0,329.0,391.0,330.0,390.0,330.5,389.5,333.0,387.0,330.5,386.5,333.5,389.5" stroke="black" stroke-width="1" fill="none" />
<polyline points="335.5,383.5,332.5,380.5,335.0,377.0,337.0,375.0,337.5,374.5,339.0,373.0,340.0,372.0,337.5,369.5" stroke="black" stroke-width="1" fill="none" />
<polyline points="340.5,364.5,343.0,367.0,341.0,363.0,345.5,358.5,343.0,359.0,345.5,361.5" stroke="black" stroke-width="1" fill="none" />
<polyline points="342.5,353.5,343.5,352.5,344.0,352.0,352.5,343.5" stroke="black" stroke-width="1" fill="none" />
<polyline points="344.0,336.0,367.0,313.0" stroke="black" stroke-width="1" fill="none" />
<polyline points="358.5,313.5,369.0,303.0,370.5,301.5,372.5,299.5,373.5,298.5,375.0,297.0,376.0,298.5,376.0,305.5,376.5,304.5,374.5,302.5,374.0,302.0,281.5,209.5,281.5,214.5,277.5,218.5" stroke="black" stroke-width="1" fill="none" />
<polyline points="275.0,213.0,277.5,210.5" stroke="black" stroke-width="1" fill="none" />
<polyline points="287.0,207.0,354.0,274.0,356.0,276.0,375.0,295.0,373.5,290.5,355.0,309.0,351.5,312.5,343.5,320.5,341.0,323.0,340.5,323.5,339.0,325.0,338.0,326.0,337.5,326.5,336.5,327.5" stroke="black" stroke-width="1" fill="none" />
<polyline points="344.0,328.0,345.0,327.0" stroke="black" stroke-width="1" fill="none" />
<polyline points="342.5,337.5,342.0,338.0" stroke="black" stroke-width="1" fill="none" />
<polyline points="337.5,342.5,335.5,344.5" stroke="black" stroke-width="1" fill="none" />
<polyline points="329.0,351.0,328.0,352.0" stroke="black" stroke-width="1" fill="none" />
<polyline points="317.0,339.0,319.0,337.0,322.5,333.5,325.5,330.5,326.5,329.5,354.5,301.5,357.5,298.5,372.0,284.0" stroke="black" stroke-width="1" fill="none" />
<polyline points="369.5,278.5,353.0,295.0,352.0,296.0,350.0,298.0,347.0,301.0,344.5,303.5,343.0,305.0,341.5,306.5,340.5,307.5,339.0,309.0" stroke="black" stroke-width="1" fill="none" />
<polyline points="334.0,314.0,327.0,321.0,326.5,321.5,318.0,330.0,316.0,332.0,314.5,333.5" stroke="black" stroke-width="1" fill="none" />
<polyline points="312.5,327.5,314.5,325.5,315.5,324.5,317.5,322.5,320.0,320.0,332.0,308.0" stroke="black" stroke-width="1" fill="none" />
<polyline points="327.0,305.0,326.5,305.5,325.5,306.5,319.0,313.0,318.0,314.0,314.0,318.0" stroke="black" stroke-width="1" fill="none" />
<polyline points="315.0,309.0,319.0,305.0" stroke="black" stroke-width="1" fill="none" />
<polyline points="314.0,310.0,303.5,320.5" stroke="black" stroke-width="1" fill="none" />
<polyline points="298.0,318.0,303.5,312.5,304.0,312.0,308.5,307.5,310.5,305.5,312.0,304.0" stroke="black" stroke-width="1" fill="none" />
<polyline points="302.5,305.5,301.5,306.5,299.5,308.5,290.0,318.0" stroke="black" stroke-width="1" fill="none" />
<polyline points="287.5,312.5,283.5,316.5" stroke="black" stroke-width="1" fill="none" />
<polyline points="277.5,314.5,284.0,308.0" stroke="black" stroke-width="1" fill="none" />
<polyline points="291.0,309.0,292.0,308.0,293.5,306.5,294.5,305.5" stroke="black" stroke-width="1" fill="none" />
<polyline points="272.5,311.5,270.5,313.5" stroke="black" stroke-width="1" fill="none" />
<polyline points="234.0,310.0,233.5,310.5" stroke="black" stroke-width="1" fill="none" />
<polyline points="233.5,318.5,227.5,324.5" stroke="black" stroke-width="1" fill="none" />
<polyline points="222.0,322.0,232.5,311.5" stroke="black" stroke-width="1" fill="none" />
<polyline points="234.0,326.0,228.5,331.5,228.0,332.0,278.0,382.0,275.5,380.5,282.0,374.0" stroke="black" stroke-width="1" fill="none" />
<polyline points="284.5,379.5,290.5,373.5" stroke="black" stroke-width="1" fill="none" />
<polyline points="271.0,383.0,239.0,351.0,237.5,349.5,236.0,348.0" stroke="black" stroke-width="1" fill="none" />
<polyline points="236.0,356.0,237.0,357.0,237.5,357.5,263.5,383.5,265.5,382.5,267.0,381.0" stroke="black" stroke-width="1" fill="none" />
<polyline points="272.0,386.5,272.0,416.5" stroke="black" stroke-width="1" fill="none" />
<polyline points="280.0,417.0,280.0,48.5" stroke="black" stroke-width="1" fill="none" />
<polyline points="282.0,54.0,173.0,163.0,172.5,164.5,208.5,200.5" stroke="black" stroke-width="1" fill="none" />
<polyline points="204.0,212.0,199.0,217.0" stroke="black" stroke-width="1" fill="none" />
<polyline points="202.0,222.0,200.5,223.5,199.5,224.5,199.0,225.0" stroke="black" stroke-width="1" fill="none" />
<polyline points="202.5,229.5,197.0,235.0,193.0,231.0,197.5,226.5" stroke="black" stroke-width="1" fill="none" />
<polyline points="192.5,239.5,180.5,251.5,177.5,254.5,170.5,261.5,166.5,262.5,184.0,280.0,183.0,281.0,181.0,283.0,180.0,284.0,178.0,282.0,178.5,277.5,183.5,272.5" stroke="black" stroke-width="1" fill="none" />
<polyline points="188.5,267.5,209.0,247.0" stroke="black" stroke-width="1" fill="none" />
<polyline points="214.0,258.0,194.0,278.0" stroke="black" stroke-width="1" fill="none" />
<polyline points="191.5,272.5,211.5,252.5" stroke="black" stroke-width="1" fill="none" />
<polyline points="200.5,247.5,184.0,264.0,180.0,260.0,298.0,378.0" stroke="black" stroke-width="1" fill="none" />
<polyline points="285.5,381.5,203.0,299.0,203.5,300.5,223.5,280.5" stroke="black" stroke-width="1" fill="none" />
<polyline points="231.0,289.0,209.0,311.0,208.0,312.0,208.0,95.0,208.5,96.5,212.5,100.5,213.0,101.0,213.5,101.5,215.5,103.5,295.0,183.0,299.0,179.0,213.5,93.5,218.0,94.0,225.0,87.0" stroke="black" stroke-width="1" fill="none" />
<polyline points="225.0,81.0,400.5,256.5" stroke="black" stroke-width="1" fill="none" />
<polyline points="405.0,253.0,417.0,265.0,417.5,265.5,422.5,270.5" stroke="black" stroke-width="1" fill="none" />
<polyline points="420.0,276.0,417.5,278.5" stroke="black" stroke-width="1" fill="none" />
<polyline points="415.0,273.0,421.0,267.0,423.5,263.5,426.0,266.0" stroke="black" stroke-width="1" fill="none" />
<polyline points="420.0,260.0,421.5,258.5" stroke="black" stroke-width="1" fill="none" />
<polyline points="419.0,253.0,422.5,249.5,423.5,247.5,422.0,246.0,418.0,246.0,413.5,250.5,412.5,252.5,409.5,249.5,408.0,249.0,408.0,269.0,410.5,266.5,420.5,276.5,424.0,278.5,424.0,227.0" stroke="black" stroke-width="1" fill="none" />
<polyline points="416.0,227.5,416.0,280.5" stroke="black" stroke-width="1" fill="none" />
<polyline points="408.0,280.0,433.5,280.0" stroke="black" stroke-width="1" fill="none" />
<polyline points="425.5,257.5,413.5,245.5" stroke="black" stroke-width="1" fill="none" />
<polyline points="410.5,253.5,407.0,257.0,406.5,262.5,408.0,264.0,409.0,265.0,409.5,265.5" stroke="black" stroke-width="1" fill="none" />
<polyline points="405.5,272.0,435.0,272.0" stroke="black" stroke-width="1" fill="none" />
<polyline points="417.0,255.0,414.5,257.5,414.5,254.5,422.5,262.5" stroke="black" stroke-width="1" fill="none" />
<polyline points="401.5,278.5,399.5,280.5,399.0,279.0,402.0,282.0,401.5,286.5,399.5,288.5,399.0,287.0,402.0,290.0,402.0,294.0,399.5,296.5,398.0,296.0,404.0,296.0,402.5,298.5,399.0,295.0" stroke="black" stroke-width="1" fill="none" />
<polyline points="397.5,288.0,404.0,288.0" stroke="black" stroke-width="1" fill="none" />
<polyline points="404.0,280.0,397.0,280.0" stroke="black" stroke-width="1" fill="none" />
<polyline points="402.5,301.5,400.0,304.0,399.5,303.5,403.0,307.0,402.5,309.5,400.5,311.5,400.0,312.0,403.0,315.0,405.0,312.0,398.5,312.0" stroke="black" stroke-width="1" fill="none" />
<polyline points="398.0,304.0,404.5,304.0" stroke="black" stroke-width="1" fill="none" />
<polyline points="405.5,320.0,399.0,320.0" stroke="black" stroke-width="1" fill="none" />
<polyline points="376.0,308.0,376.0,307.5" stroke="black" stroke-width="1" fill="none" />
<polyline points="369.5,305.5,256.5,192.5,256.0,192.0,253.0,189.0,249.0,193.0,252.0,196.0,253.0,197.0,256.0,200.0,259.5,203.5,288.5,232.5,289.5,233.5,347.5,291.5,348.0,292.0,354.5,298.5" stroke="black" stroke-width="1" fill="none" />
<polyline points="359.0,303.0,367.5,311.5" stroke="black" stroke-width="1" fill="none" />
<polyline points="364.5,275.5,366.5,273.5,368.0,274.5,368.0,314.0" stroke="black" stroke-width="1" fill="none" />
<polyline points="372.0,284.0,363.0,275.0,362.0,274.0,361.5,273.5,365.5,269.5,366.0,270.0" stroke="black" stroke-width="1" fill="none" />
<polyline points="371.0,267.0,374.0,270.0" stroke="black" stroke-width="1" fill="none" />
<polyline points="380.5,260.5,371.0,251.0,368.5,248.5,368.0,248.0" stroke="black" stroke-width="1" fill="none" />
<polyline points="372.5,244.5,387.0,259.0" stroke="black" stroke-width="1" fill="none" />
<polyline points="401.0,265.0,305.0,169.0,310.5,169.5,319.0,161.0" stroke="black" stroke-width="1" fill="none" />
<polyline points="322.0,166.0,321.0,167.0,325.0,163.0,326.0,162.0,327.5,160.5,329.5,158.5" stroke="black" stroke-width="1" fill="none" />
<polyline points="333.0,163.0,377.5,118.5" stroke="black" stroke-width="1" fill="none" />
<polyline points="382.0,130.0,379.0,133.0,377.0,135.0,358.0,154.0,357.5,154.5,354.5,157.5" stroke="black" stroke-width="1" fill="none" />
<polyline points="364.0,156.0,385.5,134.5,384.0,134.5,384.0,270.5" stroke="black" stroke-width="1" fill="none" />
<polyline points="376.0,264.0,370.0,258.0,369.0,257.0,368.0,256.0" stroke="black" stroke-width="1" fill="none" />
<polyline points="374.0,242.0,377.5,238.5" stroke="black" stroke-width="1" fill="none" />
<polyline points="379.5,212.5,398.5,193.5,400.0,195.0,400.0,203.0" stroke="black" stroke-width="1" fill="none" />
<polyline points="408.0,211.5,408.0,224.5,408.0,228.5,408.0,247.5" stroke="black" stroke-width="1" fill="none" />
<polyline points="416.0,240.0,410.0,234.0" stroke="black" stroke-width="1" fill="none" />
<polyline points="414.0,222.0,412.0,220.0,416.0,220.5,416.0,221.0,416.0,221.5,416.0,222.0" stroke="black" stroke-width="1" fill="none" />
<polyline points="424.0,216.0,424.0,212.0" stroke="black" stroke-width="1" fill="none" />
<polyline points="416.0,210.0,416.0,217.5" stroke="black" stroke-width="1" fill="none" />
<polyline points="393.5,217.5,298.0,122.0" stroke="black" stroke-width="1" fill="none" />
<polyline points="311.5,112.5,354.0,70.0" stroke="black" stroke-width="1" fill="none" />
<polyline points="355.5,76.5,354.0,78.0" stroke="black" stroke-width="1" fill="none" />
<polyline points="358.0,90.0,321.5,126.5" stroke="black" stroke-width="1" fill="none" />
<polyline points="320.0,120.0,357.0,83.0" stroke="black" stroke-width="1" fill="none" />
<polyline points="361.0,95.0,319.0,137.0,318.5,137.5,317.5,138.5" stroke="black" stroke-width="1" fill="none" />
<polyline points="320.5,143.5,364.0,100.0,368.0,97.0,368.0,271.0" stroke="black" stroke-width="1" fill="none" />
<polyline points="361.5,265.5,294.0,198.0" stroke="black" stroke-width="1" fill="none" />
<polyline points="291.0,203.0,354.5,266.5,356.5,268.5,359.5,271.5" stroke="black" stroke-width="1" fill="none" />
<polyline points="337.0,255.0,336.5,255.5" stroke="black" stroke-width="1" fill="none" />
<polyline points="335.0,249.0,326.5,257.5" stroke="black" stroke-width="1" fill="none" />
<polyline points="316.5,259.5,329.5,246.5" stroke="black" stroke-width="1" fill="none" />
<polyline points="324.5,243.5,312.0,256.0" stroke="black" stroke-width="1" fill="none" />
<polyline points="307.0,253.0,319.5,240.5" stroke="black" stroke-width="1" fill="none" />
<polyline points="314.5,237.5,317.0,235.0" stroke="black" stroke-width="1" fill="none" />
<polyline points="310.5,241.5,299.5,252.5" stroke="black" stroke-width="1" fill="none" />
<polyline points="289.5,254.5,308.5,235.5" stroke="black" stroke-width="1" fill="none" />
<polyline points="305.0,231.0,307.5,228.5,303.5,224.5,303.0,225.0,302.0,226.0,301.0,227.0" stroke="black" stroke-width="1" fill="none" />
<polyline points="300.0,236.0,297.5,238.5,296.5,239.5,285.0,251.0" stroke="black" stroke-width="1" fill="none" />
<polyline points="276.0,252.0,288.0,240.0,290.0,238.0,290.5,237.5" stroke="black" stroke-width="1" fill="none" />
<polyline points="275.5,244.5,269.0,251.0" stroke="black" stroke-width="1" fill="none" />
<polyline points="260.5,244.5,356.0,340.0" stroke="black" stroke-width="1" fill="none" />
<polyline points="366.0,318.0,260.5,212.5" stroke="black" stroke-width="1" fill="none" />
<polyline points="260.0,220.0,260.5,220.5,261.0,221.0,266.5,226.5,268.0,228.0,352.0,312.0" stroke="black" stroke-width="1" fill="none" />
<polyline points="366.0,254.0,307.0,195.0,305.5,193.5,304.0,192.0,300.0,196.0,302.5,198.5,305.5,201.5,363.5,259.5" stroke="black" stroke-width="1" fill="none" />
<polyline points="330.5,221.5,331.0,221.0" stroke="black" stroke-width="1" fill="none" />
<polyline points="330.0,214.0,331.0,213.0,329.5,214.5,321.0,223.0" stroke="black" stroke-width="1" fill="none" />
<polyline points="314.0,222.0,320.0,216.0" stroke="black" stroke-width="1" fill="none" />
<polyline points="319.0,209.0,310.5,217.5" stroke="black" stroke-width="1" fill="none" />
<polyline points="303.5,216.5,313.5,206.5" stroke="black" stroke-width="1" fill="none" />
<polyline points="326.5,201.5,328.0,200.0" stroke="black" stroke-width="1" fill="none" />
<polyline points="330.0,206.0,328.5,207.5" stroke="black" stroke-width="1" fill="none" />
<polyline points="320.5,191.5,322.5,189.5" stroke="black" stroke-width="1" fill="none" />
<polyline points="327.0,185.0,328.0,184.0" stroke="black" stroke-width="1" fill="none" />
<polyline points="324.5,179.5,325.5,178.5,327.5,176.5,335.5,168.5,337.0,167.0,380.0,124.0,380.5,124.5,308.0,52.0,304.0,52.5,304.0,511.5" stroke="black" stroke-width="1" fill="none" />
<polyline points="320.0,451.5,320.0,40.0,323.5,43.5,359.5,79.5" stroke="black" stroke-width="1" fill="none" />
<polyline points="353.5,78.5,315.5,116.5" stroke="black" stroke-width="1" fill="none" />
<polyline points="310.5,105.5,346.0,70.0" stroke="black" stroke-width="1" fill="none" />
<polyline points="344.5,63.5,346.5,61.5" stroke="black" stroke-width="1" fill="none" />
<polyline points="340.5,67.5,311.5,96.5" stroke="black" stroke-width="1" fill="none" />
<polyline points="308.5,91.5,337.0,63.0,333.0,59.0,334.5,57.5,332.0,60.0,306.0,86.0" stroke="black" stroke-width="1" fill="none" />
<polyline points="301.0,83.0,320.0,64.0" stroke="black" stroke-width="1" fill="none" />
<polyline points="314.5,61.5,296.5,79.5" stroke="black" stroke-width="1" fill="none" />
<polyline points="294.0,70.0,402.5,178.5" stroke="black" stroke-width="1" fill="none" />
<polyline points="397.5,186.5,379.0,205.0" stroke="black" stroke-width="1" fill="none" />
<polyline points="378.5,197.5,401.5,174.5" stroke="black" stroke-width="1" fill="none" />
<polyline points="399.5,168.5,376.5,191.5" stroke="black" stroke-width="1" fill="none" />
<polyline points="374.5,185.5,394.5,165.5,400.0,165.5,400.0,181.5" stroke="black" stroke-width="1" fill="none" />
<polyline points="392.5,159.5,393.0,159.0,392.0,157.5,392.0,270.0" stroke="black" stroke-width="1" fill="none" />
<polyline points="371.0,243.0,308.5,180.5" stroke="black" stroke-width="1" fill="none" />
<polyline points="316.0,180.0,329.0,167.0" stroke="black" stroke-width="1" fill="none" />
<polyline points="337.5,174.5,339.0,173.0,339.5,172.5,354.0,158.0" stroke="black" stroke-width="1" fill="none" />
<polyline points="367.5,160.5,384.5,143.5,387.0,141.0,388.5,139.5,388.5,140.5,387.0,139.0" stroke="black" stroke-width="1" fill="none" />
<polyline points="389.0,155.0,388.5,155.5" stroke="black" stroke-width="1" fill="none" />
<polyline points="389.5,162.5,367.0,185.0" stroke="black" stroke-width="1" fill="none" />
<polyline points="361.5,182.5,367.5,176.5" stroke="black" stroke-width="1" fill="none" />
<polyline points="372.0,172.0,387.0,157.0" stroke="black" stroke-width="1" fill="none" />
<polyline points="384.0,152.0,370.0,166.0" stroke="black" stroke-width="1" fill="none" />
<polyline points="363.5,172.5,359.0,177.0" stroke="black" stroke-width="1" fill="none" />
<polyline points="353.0,175.0,361.5,166.5" stroke="black" stroke-width="1" fill="none" />
<polyline points="359.0,161.0,347.0,173.0,346.0,174.0,345.0,175.0" stroke="black" stroke-width="1" fill="none" />
<polyline points="319.0,169.0,314.0,174.0" stroke="black" stroke-width="1" fill="none" />
<polyline points="308.0,164.0,315.0,157.0" stroke="black" stroke-width="1" fill="none" />
<polyline points="324.5,147.5,368.0,104.0" stroke="black" stroke-width="1" fill="none" />
<polyline points="359.0,63.0,355.0,59.0,360.0,60.5,360.0,378.0" stroke="black" stroke-width="1" fill="none" />
<polyline points="368.0,388.5,368.0,394.0,368.0,399.5,368.0,400.5,368.0,402.0,368.0,404.0,368.0,409.0,368.0,409.5" stroke="black" stroke-width="1" fill="none" />
<polyline points="338.0,378.0,335.0,375.0" stroke="black" stroke-width="1" fill="none" />
<polyline points="259.0,381.0,257.0,383.0" stroke="black" stroke-width="1" fill="none" />
<polyline points="251.0,381.0,249.0,383.0" stroke="black" stroke-width="1" fill="none" />
<polyline points="243.0,381.0,241.5,382.5" stroke="black" stroke-width="1" fill="none" />
<polyline points="234.5,381.5,234.0,382.0" stroke="black" stroke-width="1" fill="none" />
<polyline points="232.5,376.5,240.0,384.0" stroke="black" stroke-width="1" fill="none" />
<polyline points="248.0,384.0,235.0,371.0" stroke="black" stroke-width="1" fill="none" />
<polyline points="234.5,362.5,256.0,384.0,256.0,389.5,256.0,404.0" stroke="black" stroke-width="1" fill="none" />
<polyline points="256.0,414.0,256.0,418.0" stroke="black" stroke-width="1" fill="none" />
<polyline points="248.0,416.0,248.0,412.0" stroke="black" stroke-width="1" fill="none" />
<polyline points="240.0,414.0,240.0,416.5" stroke="black" stroke-width="1" fill="none" />
<polyline points="229.5,426.5,228.5,427.5,228.5,428.5,231.5,431.5,232.0,429.5,232.0,445.0,234.5,445.5,235.5,444.5" stroke="black" stroke-width="1" fill="none" />
<polyline points="232.5,439.5,233.0,439.0,231.5,439.5,235.0,443.0" stroke="black" stroke-width="1" fill="none" />
<polyline points="256.0,444.5,256.0,445.5" stroke="black" stroke-width="1" fill="none" />
<polyline points="256.0,439.5,256.0,437.5" stroke="black" stroke-width="1" fill="none" />
<polyline points="256.0,460.0,256.0,511.5" stroke="black" stroke-width="1" fill="none" />
<polyline points="288.0,511.5,288.0,94.0" stroke="black" stroke-width="1" fill="none" />
<polyline points="296.0,95.0,296.0,511.5" stroke="black" stroke-width="1" fill="none" />
<polyline points="312.0,511.5,312.0,42.0" stroke="black" stroke-width="1" fill="none" />
<polyline points="318.0,46.0,360.0,88.0" stroke="black" stroke-width="1" fill="none" />
<polyline points="359.5,71.5,341.5,53.5,340.5,52.5,337.5,49.5,335.0,47.0,334.0,46.0,336.0,41.0,336.0,429.0" stroke="black" stroke-width="1" fill="none" />
<polyline points="353.0,345.0,254.5,246.5,258.5,242.5,256.0,240.0,259.0,243.0,260.0,244.0" stroke="black" stroke-width="1" fill="none" />
<polyline points="252.0,252.0,251.0,251.0" stroke="black" stroke-width="1" fill="none" />
<polyline points="255.5,255.5,256.0,256.0,258.5,258.5,350.0,350.0" stroke="black" stroke-width="1" fill="none" />
<polyline points="361.0,329.0,257.5,225.5" stroke="black" stroke-width="1" fill="none" />
<polyline points="256.5,232.5,357.5,333.5" stroke="black" stroke-width="1" fill="none" />
<polyline points="302.5,265.5,305.0,263.0" stroke="black" stroke-width="1" fill="none" />
<polyline points="258.0,266.0,348.0,356.0" stroke="black" stroke-width="1" fill="none" />
<polyline points="304.0,376.0,177.0,249.0,179.5,244.5,190.0,234.0" stroke="black" stroke-width="1" fill="none" />
<polyline points="188.0,228.0,180.0,236.0,179.0,235.0,315.5,371.5" stroke="black" stroke-width="1" fill="none" />
<polyline points="310.0,374.0,176.0,240.0,176.0,235.0,176.0,283.0,176.5,288.0,174.0,288.0,178.0,288.0,179.5,288.0" stroke="black" stroke-width="1" fill="none" />
<polyline points="184.0,283.5,184.0,119.0,186.0,122.0,240.5,176.5" stroke="black" stroke-width="1" fill="none" />
<polyline points="252.0,180.0,253.0,181.0" stroke="black" stroke-width="1" fill="none" />
<polyline points="259.0,179.0,190.0,110.0,193.5,110.5,194.5,109.5,195.0,109.0,205.0,99.0,202.5,98.5,292.5,188.5" stroke="black" stroke-width="1" fill="none" />
<polyline points="308.5,188.5,367.5,247.5" stroke="black" stroke-width="1" fill="none" />
<polyline points="399.0,191.0,304.0,96.0" stroke="black" stroke-width="1" fill="none" />
<polyline points="276.5,91.5,276.0,92.0" stroke="black" stroke-width="1" fill="none" />
<polyline points="270.5,97.5,170.0,198.0,168.0,198.5,168.0,185.5,169.0,185.0,205.0,221.0" stroke="black" stroke-width="1" fill="none" />
<polyline points="197.0,211.0,206.0,202.0" stroke="black" stroke-width="1" fill="none" />
<polyline points="190.5,217.5,179.0,229.0" stroke="black" stroke-width="1" fill="none" />
<polyline points="177.0,223.0,208.0,192.0" stroke="black" stroke-width="1" fill="none" />
<polyline points="210.5,181.5,175.0,217.0,173.0,213.0,201.5,241.5" stroke="black" stroke-width="1" fill="none" />
<polyline points="196.0,244.0,182.0,258.0,179.0,261.0,178.5,261.5,178.0,266.0,185.5,273.5" stroke="black" stroke-width="1" fill="none" />
<polyline points="176.5,264.5,167.5,255.5" stroke="black" stroke-width="1" fill="none" />
<polyline points="172.5,252.5,177.5,257.5" stroke="black" stroke-width="1" fill="none" />
<polyline points="158.0,256.0,435.5,256.0" stroke="black" stroke-width="1" fill="none" />
<polyline points="432.0,267.5,432.0,236.0" stroke="black" stroke-width="1" fill="none" />
<polyline points="435.5,264.0,158.5,264.0" stroke="black" stroke-width="1" fill="none" />
<polyline points="160.0,272.0,368.5,272.0" stroke="black" stroke-width="1" fill="none" />
<polyline points="301.5,210.5,296.5,215.5" stroke="black" stroke-width="1" fill="none" />
<polyline points="291.0,213.0,298.0,206.0" stroke="black" stroke-width="1" fill="none" />
<polyline points="289.5,214.5,283.5,220.5" stroke="black" stroke-width="1" fill="none" />
<polyline points="288.5,192.5,204.0,108.0,201.5,110.5,200.5,111.5,199.0,113.0,198.0,114.0,194.5,117.5,193.0,119.0,192.0,120.0,191.5,120.5,189.5,117.5,229.0,157.0" stroke="black" stroke-width="1" fill="none" />
<polyline points="233.5,161.5,245.5,173.5" stroke="black" stroke-width="1" fill="none" />
<polyline points="245.0,189.0,247.0,191.0,248.0,192.0,248.5,192.5" stroke="black" stroke-width="1" fill="none" />
<polyline points="258.0,186.0,280.5,208.5" stroke="black" stroke-width="1" fill="none" />
<polyline points="285.0,197.0,194.0,106.0,192.0,106.0,192.0,278.5" stroke="black" stroke-width="1" fill="none" />
<polyline points="192.0,288.0,375.0,288.0" stroke="black" stroke-width="1" fill="none" />
<polyline points="321.0,369.0,220.0,268.0,218.5,269.5,199.5,288.5,196.5,291.5,194.5,293.5,197.0,293.0,194.5,290.5" stroke="black" stroke-width="1" fill="none" />
<polyline points="193.0,296.0,198.5,296.0,200.0,296.0,377.0,296.0" stroke="black" stroke-width="1" fill="none" />
<polyline points="325.5,365.5,228.5,268.5,226.0,266.0,225.5,265.5" stroke="black" stroke-width="1" fill="none" />
<polyline points="221.0,275.0,202.0,294.0" stroke="black" stroke-width="1" fill="none" />
<polyline points="196.0,300.0,194.5,301.5,196.5,300.5,194.5,298.5" stroke="black" stroke-width="1" fill="none" />
<polyline points="192.5,304.0,197.5,304.0,194.0,306.0,196.0,308.0,196.0,308.0,194.0,310.0,192.0,312.0,197.0,312.0,194.0,314.0,196.0,316.0,195.5,316.5,194.0,318.0,193.0,321.0,195.5,323.5,195.0,325.0,193.0,327.0,192.5,328.5,194.5,330.5,194.0,334.0,192.5,335.5,192.0,336.0,194.0,338.0,194.0,342.0,192.0,344.0,192.0,344.0,194.0,346.0,195.5,344.0,190.0,344.0" stroke="black" stroke-width="1" fill="none" />
<polyline points="193.5,350.5,191.5,352.5,191.5,351.5,193.5,353.5,194.5,352.0,189.5,352.0" stroke="black" stroke-width="1" fill="none" />
<polyline points="190.5,358.5,192.5,360.5,192.0,360.0,193.5,358.5,192.0,361.5,192.0,325.0,191.5,328.0,196.5,328.0" stroke="black" stroke-width="1" fill="none" />
<polyline points="196.0,336.0,190.5,336.0" stroke="black" stroke-width="1" fill="none" />
<polyline points="191.5,320.0,196.5,320.0" stroke="black" stroke-width="1" fill="none" />
<polyline points="207.0,312.0,371.5,312.0" stroke="black" stroke-width="1" fill="none" />
<polyline points="331.0,363.0,236.0,268.0,240.0,264.0,240.5,264.5,242.5,266.5,245.0,269.0,245.5,269.5,336.0,360.0" stroke="black" stroke-width="1" fill="none" />
<polyline points="340.5,356.5,254.5,270.5,253.0,269.0,251.0,267.0,249.5,265.5,248.5,264.5" stroke="black" stroke-width="1" fill="none" />
<polyline points="253.0,261.0,257.5,265.5" stroke="black" stroke-width="1" fill="none" />
<polyline points="244.0,252.0,243.5,251.5" stroke="black" stroke-width="1" fill="none" />
<polyline points="233.0,295.0,231.5,296.5" stroke="black" stroke-width="1" fill="none" />
<polyline points="231.5,304.5,214.5,321.5,210.0,320.0,366.5,320.0" stroke="black" stroke-width="1" fill="none" />
<polyline points="441.5,376.0,489.0,376.0" stroke="black" stroke-width="1" fill="none" />
<polyline points="491.5,384.0,511.5,384.0" stroke="black" stroke-width="1" fill="none" />
<polyline points="511.5,376.0,506.5,376.0" stroke="black" stroke-width="1" fill="none" />
<polyline points="504.0,368.0,511.5,368.0" stroke="black" stroke-width="1" fill="none" />
<polyline points="511.5,360.0,509.5,360.0" stroke="black" stroke-width="1" fill="none" />
<polyline points="494.5,368.0,447.5,368.0" stroke="black" stroke-width="1" fill="none" />
<polyline points="452.5,360.0,501.0,360.0" stroke="black" stroke-width="1" fill="none" />
<polyline points="505.5,352.0,455.0,352.0" stroke="black" stroke-width="1" fill="none" />
<polyline points="458.0,344.0,500.0,344.0" stroke="black" stroke-width="1" fill="none" />
<polyline points="497.5,336.0,502.5,336.0" stroke="black" stroke-width="1" fill="none" />
<polyline points="480.0,333.0,480.0,342.5" stroke="black" stroke-width="1" fill="none" />
<polyline points="472.0,332.5,472.0,363.5" stroke="black" stroke-width="1" fill="none" />
<polyline points="472.0,370.0,472.0,407.5" stroke="black" stroke-width="1" fill="none" />
<polyline points="480.0,407.5,480.0,410.0" stroke="black" stroke-width="1" fill="none" />
<polyline points="500.5,392.0,503.0,392.0" stroke="black" stroke-width="1" fill="none" />
<polyline points="511.5,456.0,38.0,456.0" stroke="black" stroke-width="1" fill="none" />
<polyline points="30.5,454.5,13.5,437.5,14.5,433.5,29.5,418.5" stroke="black" stroke-width="1" fill="none" />
<polyline points="29.5,426.5,13.0,443.0,13.0,445.0,27.0,459.0,26.0,454.0,9.0,471.0,8.5,472.5,3.5,467.5,4.5,467.5,1.0,471.0,0.0,472.0,18.0,472.0,17.5,470.5,18.0,470.0,16.5,471.5,16.0,472.0,12.0,476.0,0.0,488.0,0.0,488.0,5.0,488.0,7.0,488.0,511.5,488.0" stroke="black" stroke-width="1" fill="none" />
<polyline points="511.5,504.0,0.0,504.0" stroke="black" stroke-width="1" fill="none" />
<polyline points="1.5,496.0,511.5,496.0" stroke="black" stroke-width="1" fill="none" />
<polyline points="511.5,480.0,15.5,480.0,12.5,476.5,11.5,475.5" stroke="black" stroke-width="1" fill="none" />
<polyline points="4.5,475.5,0.0,480.0,0.0,480.0,12.5,480.0" stroke="black" stroke-width="1" fill="none" />
<polyline points="5.5,485.5,0.0,480.0" stroke="black" stroke-width="1" fill="none" />
<polyline points="3.5,475.5,9.5,481.5" stroke="black" stroke-width="1" fill="none" />
<polyline points="2.0,490.0,0.0,488.0" stroke="black" stroke-width="1" fill="none" />
<polyline points="0.5,472.5,0.0,472.0" stroke="black" stroke-width="1" fill="none" />
<polyline points="0.0,465.5,0.0,491.0" stroke="black" stroke-width="1" fill="none" />
<polyline points="16.5,472.5,9.5,465.5,8.0,466.0,8.0,483.0" stroke="black" stroke-width="1" fill="none" />
<polyline points="16.0,473.5,16.0,372.5,13.5,373.5,34.0,394.0,34.0,390.0,19.5,404.5" stroke="black" stroke-width="1" fill="none" />
<polyline points="12.5,403.5,34.0,382.0" stroke="black" stroke-width="1" fill="none" />
<polyline points="36.0,388.0,39.0,391.0,42.5,389.5,44.0,388.0,41.5,385.5,46.5,390.5,51.0,389.0,54.5,385.5,50.5,386.5,54.5,390.5,59.5,388.5,62.0,386.0,63.5,383.5,65.5,385.5" stroke="black" stroke-width="1" fill="none" />
<polyline points="72.0,387.0,72.0,414.0,71.0,415.0,60.5,404.5,56.0,405.0,56.0,407.5,59.5,411.5,66.0,418.0,65.0,415.0,59.5,420.5,58.5,421.5,58.0,422.0,56.0,422.5,56.0,426.5,51.5,428.5,45.0,435.0,44.5,436.5,45.5,437.5,41.0,439.0,27.5,452.5" stroke="black" stroke-width="1" fill="none" />
<polyline points="29.5,442.5,35.5,436.5,37.0,437.0,42.0,442.0,38.0,446.0,15.5,423.5,15.5,424.5,31.5,408.5" stroke="black" stroke-width="1" fill="none" />
<polyline points="31.0,401.0,18.5,413.5" stroke="black" stroke-width="1" fill="none" />
<polyline points="10.0,410.0,36.5,436.5,39.0,433.0,40.5,431.5,41.5,430.5,43.0,429.0,45.0,429.0,49.0,433.0" stroke="black" stroke-width="1" fill="none" />
<polyline points="43.0,435.0,36.5,428.5,34.5,429.5,32.0,432.0,28.0,436.0,12.0,452.0,11.5,451.5,23.5,463.5,19.5,467.5,11.0,459.0,11.0,461.0,28.0,444.0" stroke="black" stroke-width="1" fill="none" />
<polyline points="34.0,450.0,14.5,430.5" stroke="black" stroke-width="1" fill="none" />
<polyline points="8.0,418.0,8.0,372.5,5.5,373.5,32.5,400.5" stroke="black" stroke-width="1" fill="none" />
<polyline points="32.0,408.0,6.0,382.0,5.5,381.5,4.0,380.0,7.0,377.0,10.5,373.5" stroke="black" stroke-width="1" fill="none" />
<polyline points="14.0,378.0,13.5,378.5,16.5,375.5,18.5,373.5,21.0,373.0,34.5,386.5" stroke="black" stroke-width="1" fill="none" />
<polyline points="39.0,383.0,1.0,345.0,0.0,344.0,68.5,344.0,66.0,346.0,30.0,310.0,32.0,307.0,32.0,452.5" stroke="black" stroke-width="1" fill="none" />
<polyline points="40.0,445.5,40.0,427.0" stroke="black" stroke-width="1" fill="none" />
<polyline points="48.0,423.0,48.0,435.0" stroke="black" stroke-width="1" fill="none" />
<polyline points="51.0,440.0,511.5,440.0" stroke="black" stroke-width="1" fill="none" />
<polyline points="511.5,472.0,22.0,472.0" stroke="black" stroke-width="1" fill="none" />
<polyline points="24.0,463.0,24.0,341.5,23.5,343.5,38.5,358.5,40.5,360.5,41.5,361.5,36.5,363.5,23.0,377.0" stroke="black" stroke-width="1" fill="none" />
<polyline points="23.5,368.5,38.0,354.0,40.5,352.5,42.0,354.0" stroke="black" stroke-width="1" fill="none" />
<polyline points="48.0,352.0,49.0,351.0,49.5,353.5,27.0,331.0,24.0,332.0,24.0,339.0,23.5,336.5,51.0,309.0,53.5,309.5,78.0,334.0,78.0,336.0,115.0,336.0,112.0,336.0,111.0,337.0,112.5,336.5,108.0,332.0,108.0,332.0,105.0,335.0,104.0,331.0,104.0,395.0" stroke="black" stroke-width="1" fill="none" />
<polyline points="98.0,398.0,108.0,388.0" stroke="black" stroke-width="1" fill="none" />
<polyline points="106.5,381.5,108.5,379.5" stroke="black" stroke-width="1" fill="none" />
<polyline points="103.5,384.5,94.0,394.0,89.0,393.0,95.5,399.5" stroke="black" stroke-width="1" fill="none" />
<polyline points="86.0,402.0,81.5,406.5,80.5,407.5,79.5,408.5,75.5,411.5,62.0,398.0" stroke="black" stroke-width="1" fill="none" />
<polyline points="62.0,410.0,61.0,411.0" stroke="black" stroke-width="1" fill="none" />
<polyline points="58.5,418.5,61.5,421.5,64.0,420.5,64.0,358.0,64.0,360.0,65.0,361.0,68.5,364.5,70.5,366.5,72.0,367.0,72.0,363.5,72.5,360.0,74.5,360.0,77.5,360.0,112.0,360.0,108.0,356.0,97.5,366.5,95.0,367.0,109.0,381.0" stroke="black" stroke-width="1" fill="none" />
<polyline points="103.0,377.0,95.5,384.5,93.0,381.0,106.5,394.5" stroke="black" stroke-width="1" fill="none" />
<polyline points="100.5,396.5,92.0,388.0,88.0,390.5,88.0,405.0,85.0,405.0,73.0,393.0" stroke="black" stroke-width="1" fill="none" />
<polyline points="80.0,390.5,80.0,409.5,80.5,408.5,52.0,380.0,48.0,378.0,48.0,392.0" stroke="black" stroke-width="1" fill="none" />
<polyline points="46.0,382.0,43.5,379.5,40.0,377.5,40.0,392.0" stroke="black" stroke-width="1" fill="none" />
<polyline points="48.0,405.5,48.0,407.5,48.0,410.5,48.0,413.5,48.0,416.5,48.0,420.0" stroke="black" stroke-width="1" fill="none" />
<polyline points="40.0,414.0,40.0,411.5" stroke="black" stroke-width="1" fill="none" />
<polyline points="30.0,422.0,0.0,392.0,0.0,392.0,109.5,392.0,108.5,388.5,94.0,374.0,96.0,376.0,100.5,371.5,105.5,369.5,107.0,371.0,104.0,368.0,88.0,352.0,88.5,351.5,89.5,350.5" stroke="black" stroke-width="1" fill="none" />
<polyline points="88.5,344.5,108.0,364.0,108.5,364.5,110.5,366.5" stroke="black" stroke-width="1" fill="none" />
<polyline points="109.0,355.0,112.0,352.0" stroke="black" stroke-width="1" fill="none" />
<polyline points="111.0,345.0,111.5,344.5" stroke="black" stroke-width="1" fill="none" />
<polyline points="104.5,351.5,98.0,358.0" stroke="black" stroke-width="1" fill="none" />
<polyline points="87.5,360.5,86.0,362.0,85.0,363.0,84.0,364.0,83.5,363.5,85.0,365.0,88.0,366.5,88.0,331.0,84.5,332.5,86.5,334.5,89.5,334.5,91.5,332.5,92.5,332.5,112.0,352.0" stroke="black" stroke-width="1" fill="none" />
<polyline points="110.5,358.5,89.0,337.0" stroke="black" stroke-width="1" fill="none" />
<polyline points="83.5,332.5,83.0,333.0,82.0,330.0,61.5,309.5,64.0,308.5,64.0,354.5,63.5,352.5,65.0,351.0,65.5,353.5,29.0,317.0,30.0,314.0,35.0,309.0,37.0,309.0,67.0,339.0,66.0,334.0,68.0,332.0,68.5,331.5,69.5,330.5" stroke="black" stroke-width="1" fill="none" />
<polyline points="65.0,327.0,82.5,309.5,80.0,308.5,80.0,335.0,80.0,338.0,80.0,338.5" stroke="black" stroke-width="1" fill="none" />
<polyline points="75.0,344.0,114.0,344.0,112.0,344.0,100.0,332.0,100.0,332.0,96.5,335.5,96.0,331.0,96.0,399.5" stroke="black" stroke-width="1" fill="none" />
<polyline points="91.0,403.0,81.0,393.0" stroke="black" stroke-width="1" fill="none" />
<polyline points="88.5,408.0,95.0,408.0" stroke="black" stroke-width="1" fill="none" />
<polyline points="95.0,424.0,511.5,424.0" stroke="black" stroke-width="1" fill="none" />
<polyline points="511.5,464.0,31.0,464.0" stroke="black" stroke-width="1" fill="none" />
<polyline points="24.0,464.0,0.0,464.0" stroke="black" stroke-width="1" fill="none" />
<polyline points="0.0,456.0,30.5,456.0" stroke="black" stroke-width="1" fill="none" />
<polyline points="45.0,448.0,511.5,448.0" stroke="black" stroke-width="1" fill="none" />
<polyline points="511.5,432.0,88.0,432.0" stroke="black" stroke-width="1" fill="none" />
<polyline points="77.5,432.0,58.0,432.0" stroke="black" stroke-width="1" fill="none" />
<polyline points="51.5,432.0,0.0,432.0" stroke="black" stroke-width="1" fill="none" />
<polyline points="0.0,424.0,60.0,424.0,65.5,424.0,82.5,424.0" stroke="black" stroke-width="1" fill="none" />
<polyline points="89.0,416.0,75.5,416.0" stroke="black" stroke-width="1" fill="none" />
<polyline points="60.0,380.0,55.5,375.5,53.0,373.0,52.5,372.5,48.0,371.0,48.0,374.5,45.0,373.0,44.0,372.0" stroke="black" stroke-width="1" fill="none" />
<polyline points="39.5,375.5,38.0,374.0,36.0,372.0,5.5,402.5,6.5,406.5,0.0,400.0,0.0,400.0,97.0,400.0" stroke="black" stroke-width="1" fill="none" />
<polyline points="116.0,416.0,511.5,416.0" stroke="black" stroke-width="1" fill="none" />
<polyline points="511.5,408.0,122.5,408.0" stroke="black" stroke-width="1" fill="none" />
<polyline points="135.5,400.0,179.5,400.0,182.5,400.0,511.5,400.0" stroke="black" stroke-width="1" fill="none" />
<polyline points="498.5,392.0,184.5,392.0" stroke="black" stroke-width="1" fill="none" />
<polyline points="192.0,395.5,192.0,410.5" stroke="black" stroke-width="1" fill="none" />
<polyline points="200.0,407.0,200.0,476.0" stroke="black" stroke-width="1" fill="none" />
<polyline points="200.0,486.0,200.0,491.0" stroke="black" stroke-width="1" fill="none" />
<polyline points="216.0,511.5,216.0,456.5" stroke="black" stroke-width="1" fill="none" />
<polyline points="224.0,467.0,224.0,472.5,224.0,473.0,224.0,511.5" stroke="black" stroke-width="1" fill="none" />
<polyline points="248.0,511.5,248.0,469.0,244.5,467.5,243.5,468.5,248.0,465.5,248.0,464.0" stroke="black" stroke-width="1" fill="none" />
<polyline points="232.0,480.5,232.0,511.5" stroke="black" stroke-width="1" fill="none" />
<polyline points="208.0,511.5,208.0,428.5" stroke="black" stroke-width="1" fill="none" />
<polyline points="192.0,424.5,192.0,421.0" stroke="black" stroke-width="1" fill="none" />
<polyline points="225.5,417.5,228.0,420.0" stroke="black" stroke-width="1" fill="none" />
<polyline points="225.0,409.0,222.5,406.5" stroke="black" stroke-width="1" fill="none" />
<polyline points="223.5,399.5,222.0,398.0,224.0,397.0,224.0,419.5" stroke="black" stroke-width="1" fill="none" />
<polyline points="240.0,401.5,240.0,396.0" stroke="black" stroke-width="1" fill="none" />
<polyline points="248.0,391.5,248.0,403.5" stroke="black" stroke-width="1" fill="none" />
<polyline points="221.5,389.5,220.0,388.0" stroke="black" stroke-width="1" fill="none" />
<polyline points="216.5,367.5,218.0,366.0,215.0,367.0,221.5,373.5" stroke="black" stroke-width="1" fill="none" />
<polyline points="213.0,363.0,219.5,356.5" stroke="black" stroke-width="1" fill="none" />
<polyline points="213.5,354.5,211.5,356.5,211.0,355.0,221.5,365.5" stroke="black" stroke-width="1" fill="none" />
<polyline points="221.0,357.0,213.5,349.5,216.0,346.0,216.0,371.0" stroke="black" stroke-width="1" fill="none" />
<polyline points="206.5,368.0,436.5,368.0" stroke="black" stroke-width="1" fill="none" />
<polyline points="439.0,376.0,190.5,376.0" stroke="black" stroke-width="1" fill="none" />
<polyline points="187.0,384.0,485.0,384.0" stroke="black" stroke-width="1" fill="none" />
<polyline points="493.0,336.0,461.0,336.0" stroke="black" stroke-width="1" fill="none" />
<polyline points="468.0,328.0,482.5,328.0" stroke="black" stroke-width="1" fill="none" />
<polyline points="433.5,360.0,208.0,360.0,203.5,360.0,203.0,360.0" stroke="black" stroke-width="1" fill="none" />
<polyline points="201.5,368.0,197.0,368.0" stroke="black" stroke-width="1" fill="none" />
<polyline points="194.5,360.0,189.0,360.0" stroke="black" stroke-width="1" fill="none" />
<polyline points="176.0,368.0,176.0,369.0" stroke="black" stroke-width="1" fill="none" />
<polyline points="169.5,366.5,163.5,372.5" stroke="black" stroke-width="1" fill="none" />
<polyline points="158.0,374.0,146.5,362.5,148.5,363.5,150.5,361.5,152.0,361.0,152.0,375.5,153.5,374.5,163.5,364.5,165.0,365.0,171.0,371.0,168.0,372.5,168.0,365.5" stroke="black" stroke-width="1" fill="none" />
<polyline points="165.0,373.0,154.0,362.0,157.0,363.0,154.0,366.0" stroke="black" stroke-width="1" fill="none" />
<polyline points="148.0,364.0,146.0,366.0,145.5,369.5,151.0,375.0,147.5,372.5,145.0,375.0,144.0,377.0,144.0,372.0" stroke="black" stroke-width="1" fill="none" />
<polyline points="138.0,368.0,178.0,368.0" stroke="black" stroke-width="1" fill="none" />
<polyline points="160.0,363.0,160.0,374.0" stroke="black" stroke-width="1" fill="none" />
<polyline points="151.0,376.0,137.5,376.0" stroke="black" stroke-width="1" fill="none" />
<polyline points="146.0,360.0,158.0,360.0" stroke="black" stroke-width="1" fill="none" />
<polyline points="112.0,357.0,112.0,330.5" stroke="black" stroke-width="1" fill="none" />
<polyline points="110.5,321.5,115.0,317.0" stroke="black" stroke-width="1" fill="none" />
<polyline points="108.0,316.0,115.0,309.0,112.0,307.5,112.0,323.5" stroke="black" stroke-width="1" fill="none" />
<polyline points="106.5,317.5,102.5,321.5" stroke="black" stroke-width="1" fill="none" />
<polyline points="95.0,321.0,107.0,309.0,108.5,308.5,115.0,315.0" stroke="black" stroke-width="1" fill="none" />
<polyline points="106.0,322.0,93.0,309.0,90.5,309.5,82.5,317.5,86.5,321.5,89.0,319.0,89.5,318.5,98.5,309.5,101.0,309.0,114.0,322.0" stroke="black" stroke-width="1" fill="none" />
<polyline points="98.5,322.5,85.5,309.5,88.0,308.5,88.0,323.5" stroke="black" stroke-width="1" fill="none" />
<polyline points="82.0,326.0,81.0,327.0,77.0,331.0,75.0,333.0" stroke="black" stroke-width="1" fill="none" />
<polyline points="75.5,324.5,80.5,319.5,83.5,323.5,69.5,309.5,72.0,308.5,72.0,334.5" stroke="black" stroke-width="1" fill="none" />
<polyline points="61.0,331.0,60.0,332.0,59.5,332.5,58.5,333.5" stroke="black" stroke-width="1" fill="none" />
<polyline points="49.5,334.5,74.5,309.5,77.5,309.5,90.5,322.5" stroke="black" stroke-width="1" fill="none" />
<polyline points="104.0,323.5,104.0,308.0" stroke="black" stroke-width="1" fill="none" />
<polyline points="96.0,308.0,96.0,323.5" stroke="black" stroke-width="1" fill="none" />
<polyline points="66.5,309.5,44.0,332.0,40.5,335.5,19.5,356.5,17.0,353.0,36.5,372.5" stroke="black" stroke-width="1" fill="none" />
<polyline points="40.0,368.0,38.5,366.5,37.5,365.5,21.0,349.0,22.5,345.5,58.5,309.5,56.0,308.5,56.0,354.5,58.5,354.5,42.0,338.0" stroke="black" stroke-width="1" fill="none" />
<polyline points="38.5,345.5,18.5,365.5,14.5,361.5,15.0,361.0,12.5,364.5,14.5,366.5,11.5,364.5,10.5,365.5" stroke="black" stroke-width="1" fill="none" />
<polyline points="9.0,359.0,13.0,355.0" stroke="black" stroke-width="1" fill="none" />
<polyline points="8.5,351.5,6.0,354.0,1.5,353.5,10.0,362.0,6.5,361.5,2.0,366.0,0.0,367.5,0.0,326.0,0.0,328.0,115.5,328.0" stroke="black" stroke-width="1" fill="none" />
<polyline points="87.0,359.0,92.5,364.5" stroke="black" stroke-width="1" fill="none" />
<polyline points="80.0,363.0,80.0,366.5" stroke="black" stroke-width="1" fill="none" />
<polyline points="67.5,371.5,65.5,369.5,64.5,368.5,64.0,368.0" stroke="black" stroke-width="1" fill="none" />
<polyline points="58.5,370.5,63.0,375.0,63.5,375.5,64.5,376.5,65.0,377.0,66.5,378.5" stroke="black" stroke-width="1" fill="none" />
<polyline points="56.0,391.5,56.0,365.0,56.0,360.5,56.0,357.5" stroke="black" stroke-width="1" fill="none" />
<polyline points="48.0,358.5,48.0,361.5,48.0,364.5,48.0,367.5" stroke="black" stroke-width="1" fill="none" />
<polyline points="39.5,351.5,21.0,333.0,19.5,332.5,17.5,334.5,16.0,336.0,16.0,332.5,15.0,335.0,13.0,333.0,11.0,333.0,2.5,341.5" stroke="black" stroke-width="1" fill="none" />
<polyline points="0.0,336.0,70.0,336.0,70.0,334.0,45.0,309.0,43.0,309.0,29.0,323.0,28.5,324.5,41.0,337.0" stroke="black" stroke-width="1" fill="none" />
<polyline points="48.0,355.0,48.0,307.5" stroke="black" stroke-width="1" fill="none" />
<polyline points="48.0,300.5,48.0,269.0" stroke="black" stroke-width="1" fill="none" />
<polyline points="40.0,267.5,40.0,303.0,40.0,307.0,40.0,376.5" stroke="black" stroke-width="1" fill="none" />
<polyline points="14.5,385.5,0.0,400.0" stroke="black" stroke-width="1" fill="none" />
<polyline points="0.0,408.0,82.5,408.0" stroke="black" stroke-width="1" fill="none" />
<polyline points="31.5,415.5,0.0,384.0,0.0,384.0,111.0,384.0" stroke="black" stroke-width="1" fill="none" />
<polyline points="111.0,376.0,0.0,376.0,0.0,376.0,3.0,379.0,0.0,376.0,3.0,373.0,0.0,372.5,0.0,418.0,0.5,416.5,0.0,416.0,0.0,416.0,71.0,416.0" stroke="black" stroke-width="1" fill="none" />
<polyline points="88.0,461.5,88.0,463.0,88.0,464.5,88.0,511.5" stroke="black" stroke-width="1" fill="none" />
<polyline points="112.0,511.5,112.0,510.5,112.0,508.0,112.0,504.0" stroke="black" stroke-width="1" fill="none" />
<polyline points="128.0,511.5,128.0,472.0" stroke="black" stroke-width="1" fill="none" />
<polyline points="120.0,478.5,120.0,487.0,120.0,488.0,120.0,511.5" stroke="black" stroke-width="1" fill="none" />
<polyline points="144.0,511.5,144.0,511.0,144.0,508.0,144.0,504.0,144.0,501.5,144.0,500.0" stroke="black" stroke-width="1" fill="none" />
<polyline points="152.0,499.5,152.0,498.5" stroke="black" stroke-width="1" fill="none" />
<polyline points="160.0,506.0,160.0,508.0" stroke="black" stroke-width="1" fill="none" />
<polyline points="168.0,509.0,168.0,511.5" stroke="black" stroke-width="1" fill="none" />
<polyline points="176.0,511.5,176.0,505.5" stroke="black" stroke-width="1" fill="none" />
<polyline points="168.0,503.5,168.0,501.0" stroke="black" stroke-width="1" fill="none" />
<polyline points="152.0,510.5,152.0,511.5" stroke="black" stroke-width="1" fill="none" />
<polyline points="136.0,511.5,136.0,492.5,136.0,487.0,136.0,485.0,136.0,482.5,136.0,481.5" stroke="black" stroke-width="1" fill="none" />
<polyline points="96.0,461.5,96.0,511.5" stroke="black" stroke-width="1" fill="none" />
<polyline points="80.0,511.5,80.0,475.5" stroke="black" stroke-width="1" fill="none" />
<polyline points="72.0,479.5,72.0,491.0,72.0,492.5,72.0,511.5" stroke="black" stroke-width="1" fill="none" />
<polyline points="64.0,499.5,64.0,498.0" stroke="black" stroke-width="1" fill="none" />
<polyline points="64.0,489.0,64.0,487.5" stroke="black" stroke-width="1" fill="none" />
<polyline points="38.5,448.0,0.0,448.0" stroke="black" stroke-width="1" fill="none" />
<polyline points="0.0,440.0,45.0,440.0" stroke="black" stroke-width="1" fill="none" />
<polyline points="9.0,417.0,6.0,414.0,3.5,411.5,2.5,410.5,1.0,409.0,0.0,408.0" stroke="black" stroke-width="1" fill="none" />
<polyline points="8.0,408.0,9.0,409.0" stroke="black" stroke-width="1" fill="none" />
<polyline points="0.0,392.0,8.0,384.0" stroke="black" stroke-width="1" fill="none" />
<polyline points="7.0,367.0,0.0,360.0,0.0,360.0,67.5,360.0" stroke="black" stroke-width="1" fill="none" />
<polyline points="72.0,352.0,113.5,352.0" stroke="black" stroke-width="1" fill="none" />
<polyline points="64.0,291.5,64.0,287.0,64.0,285.5,64.0,283.0" stroke="black" stroke-width="1" fill="none" />
<polyline points="55.5,287.5,38.5,270.5" stroke="black" stroke-width="1" fill="none" />
<polyline points="33.0,273.0,46.5,286.5,45.0,283.0,46.5,281.5" stroke="black" stroke-width="1" fill="none" />
<polyline points="42.0,278.0,39.5,280.5" stroke="black" stroke-width="1" fill="none" />
<polyline points="32.0,287.5,32.0,305.0" stroke="black" stroke-width="1" fill="none" />
<polyline points="24.0,307.0,24.0,294.5" stroke="black" stroke-width="1" fill="none" />
<polyline points="16.0,301.5,16.0,304.5" stroke="black" stroke-width="1" fill="none" />
<polyline points="5.0,309.0,0.0,304.0,0.0,304.0,61.5,304.0" stroke="black" stroke-width="1" fill="none" />
<polyline points="56.0,297.0,56.0,277.5" stroke="black" stroke-width="1" fill="none" />
<polyline points="67.5,296.0,0.0,296.0,0.5,296.5,5.5,301.5" stroke="black" stroke-width="1" fill="none" />
<polyline points="8.0,309.0,8.0,207.0" stroke="black" stroke-width="1" fill="none" />
<polyline points="3.5,211.5,0.5,208.5,0.0,208.0,126.5,208.0" stroke="black" stroke-width="1" fill="none" />
<polyline points="123.0,224.0,120.5,224.0" stroke="black" stroke-width="1" fill="none" />
<polyline points="153.0,216.0,435.5,216.0" stroke="black" stroke-width="1" fill="none" />
<polyline points="435.5,240.0,157.5,240.0" stroke="black" stroke-width="1" fill="none" />
<polyline points="157.5,232.0,435.0,232.0" stroke="black" stroke-width="1" fill="none" />
<polyline points="435.5,248.0,157.5,248.0" stroke="black" stroke-width="1" fill="none" />
<polyline points="168.0,236.0,168.0,276.0" stroke="black" stroke-width="1" fill="none" />
<polyline points="162.0,280.0,372.5,280.0" stroke="black" stroke-width="1" fill="none" />
<polyline points="398.0,182.0,258.5,42.5,257.5,46.5,238.0,66.0,235.0,67.0,280.0,112.0" stroke="black" stroke-width="1" fill="none" />
<polyline points="291.0,69.0,168.5,191.5,168.0,192.0,207.5,231.5" stroke="black" stroke-width="1" fill="none" />
<polyline points="175.0,223.0,219.0,267.0" stroke="black" stroke-width="1" fill="none" />
<polyline points="230.5,297.5,211.5,316.5,210.0,314.0,221.5,325.5,220.0,324.0,218.0,326.0,216.0,326.0,216.0,82.0,218.0,82.0,301.0,165.0" stroke="black" stroke-width="1" fill="none" />
<polyline points="298.5,170.5,217.5,89.5,219.0,85.0,219.5,84.5" stroke="black" stroke-width="1" fill="none" />
<polyline points="224.0,79.0,224.0,326.0,224.0,329.5,224.0,332.5,227.0,336.0,401.0,336.0" stroke="black" stroke-width="1" fill="none" />
<polyline points="328.0,439.0,328.0,39.0" stroke="black" stroke-width="1" fill="none" />
<polyline points="339.0,24.0,341.0,24.0,345.5,24.0,348.0,24.0,352.0,24.0,353.0,24.0" stroke="black" stroke-width="1" fill="none" />
<polyline points="369.5,24.0,376.0,24.0" stroke="black" stroke-width="1" fill="none" />
<polyline points="375.0,16.0,371.5,16.0" stroke="black" stroke-width="1" fill="none" />
<polyline points="408.5,32.0,511.5,32.0" stroke="black" stroke-width="1" fill="none" />
<polyline points="511.5,64.0,47.0,64.0" stroke="black" stroke-width="1" fill="none" />
<polyline points="62.0,56.0,67.0,56.0" stroke="black" stroke-width="1" fill="none" />
<polyline points="119.5,56.0,121.5,56.0,123.5,56.0,128.0,56.0,129.0,56.0,511.5,56.0" stroke="black" stroke-width="1" fill="none" />
<polyline points="504.0,69.0,504.0,70.5" stroke="black" stroke-width="1" fill="none" />
<polyline points="496.0,70.5,496.0,72.0" stroke="black" stroke-width="1" fill="none" />
<polyline points="488.0,72.5,488.0,70.5" stroke="black" stroke-width="1" fill="none" />
<polyline points="480.0,70.5,480.0,72.5" stroke="black" stroke-width="1" fill="none" />
<polyline points="472.0,70.5,472.0,75.0" stroke="black" stroke-width="1" fill="none" />
<polyline points="472.0,69.0,472.0,64.5" stroke="black" stroke-width="1" fill="none" />
<polyline points="456.0,73.0,456.0,74.5" stroke="black" stroke-width="1" fill="none" />
<polyline points="448.0,74.5,448.0,73.0" stroke="black" stroke-width="1" fill="none" />
<polyline points="416.0,75.5,416.0,76.5" stroke="black" stroke-width="1" fill="none" />
<polyline points="454.5,128.0,511.5,128.0" stroke="black" stroke-width="1" fill="none" />
<polyline points="504.0,121.5,504.0,119.5" stroke="black" stroke-width="1" fill="none" />
<polyline points="496.0,119.5,496.0,121.5" stroke="black" stroke-width="1" fill="none" />
<polyline points="488.0,121.5,488.0,120.0" stroke="black" stroke-width="1" fill="none" />
<polyline points="511.5,136.0,460.5,136.0" stroke="black" stroke-width="1" fill="none" />
<polyline points="453.0,144.0,511.5,144.0" stroke="black" stroke-width="1" fill="none" />
<polyline points="509.5,197.5,510.0,198.0,511.5,200.0,500.0,200.0" stroke="black" stroke-width="1" fill="none" />
<polyline points="511.5,192.0,481.0,192.0" stroke="black" stroke-width="1" fill="none" />
<polyline points="437.0,200.0,165.5,200.0" stroke="black" stroke-width="1" fill="none" />
<polyline points="173.5,210.5,212.5,171.5" stroke="black" stroke-width="1" fill="none" />
<polyline points="225.5,169.5,233.0,177.0" stroke="black" stroke-width="1" fill="none" />
<polyline points="260.0,180.0,281.0,201.0" stroke="black" stroke-width="1" fill="none" />
<polyline points="227.0,285.0,206.0,306.0,203.0,304.0,379.5,304.0" stroke="black" stroke-width="1" fill="none" />
<polyline points="430.5,352.0,209.5,352.0" stroke="black" stroke-width="1" fill="none" />
<polyline points="218.5,346.5,220.5,348.5,221.0,347.0,221.5,346.5,221.0,344.0,425.5,344.0" stroke="black" stroke-width="1" fill="none" />
<polyline points="396.0,328.0,216.0,328.0" stroke="black" stroke-width="1" fill="none" />
<polyline points="229.5,338.5,231.0,337.0,229.5,341.5,230.0,342.0,226.0,346.0,225.5,345.5,224.0,345.0,224.0,377.5" stroke="black" stroke-width="1" fill="none" />
<polyline points="272.0,385.0,272.0,41.0" stroke="black" stroke-width="1" fill="none" />
<polyline points="270.5,46.5,291.0,67.0,286.5,65.5,171.0,181.0,171.0,179.0,206.0,214.0" stroke="black" stroke-width="1" fill="none" />
<polyline points="224.5,168.5,183.0,127.0" stroke="black" stroke-width="1" fill="none" />
<polyline points="181.0,133.0,225.5,177.5" stroke="black" stroke-width="1" fill="none" />
<polyline points="220.5,180.5,178.5,138.5,176.0,141.5,176.0,232.0" stroke="black" stroke-width="1" fill="none" />
<polyline points="156.5,224.0,435.0,224.0" stroke="black" stroke-width="1" fill="none" />
<polyline points="436.5,208.0,151.5,208.0" stroke="black" stroke-width="1" fill="none" />
<polyline points="147.5,192.0,401.0,192.0" stroke="black" stroke-width="1" fill="none" />
<polyline points="401.5,169.5,298.0,66.0" stroke="black" stroke-width="1" fill="none" />
<polyline points="301.5,61.5,388.5,148.5" stroke="black" stroke-width="1" fill="none" />
<polyline points="386.0,138.0,304.5,56.5" stroke="black" stroke-width="1" fill="none" />
<polyline points="296.0,57.0,296.0,84.0" stroke="black" stroke-width="1" fill="none" />
<polyline points="285.5,58.5,173.0,171.0,173.0,173.0,207.0,207.0" stroke="black" stroke-width="1" fill="none" />
<polyline points="216.0,184.0,175.5,143.5,175.5,144.5,205.5,114.5,207.0,113.0,208.0,112.0,208.5,111.5,211.0,109.0" stroke="black" stroke-width="1" fill="none" />
<polyline points="214.5,113.5,277.5,50.5" stroke="black" stroke-width="1" fill="none" />
<polyline points="271.5,48.5,217.5,102.5" stroke="black" stroke-width="1" fill="none" />
<polyline points="214.0,114.0,205.0,123.0,203.5,124.5,175.0,153.0,173.0,149.0,213.0,189.0" stroke="black" stroke-width="1" fill="none" />
<polyline points="209.5,193.5,173.5,157.5,171.0,155.0,170.0,154.0,169.0,152.0,390.5,152.0" stroke="black" stroke-width="1" fill="none" />
<polyline points="434.0,168.0,511.5,168.0" stroke="black" stroke-width="1" fill="none" />
<polyline points="511.5,184.0,167.0,184.0" stroke="black" stroke-width="1" fill="none" />
<polyline points="170.5,176.0,511.5,176.0" stroke="black" stroke-width="1" fill="none" />
<polyline points="511.5,160.0,445.0,160.0" stroke="black" stroke-width="1" fill="none" />
<polyline points="458.0,152.0,511.5,152.0" stroke="black" stroke-width="1" fill="none" />
<polyline points="437.0,192.0,431.0,192.0" stroke="black" stroke-width="1" fill="none" />
<polyline points="287.0,111.0,234.5,58.5,236.5,59.5,241.0,55.0" stroke="black" stroke-width="1" fill="none" />
<polyline points="240.5,48.5,280.5,88.5" stroke="black" stroke-width="1" fill="none" />
<polyline points="290.5,82.5,249.0,41.0" stroke="black" stroke-width="1" fill="none" />
<polyline points="255.0,39.0,256.5,40.5" stroke="black" stroke-width="1" fill="none" />
<polyline points="264.5,47.5,231.5,80.5,229.5,77.5,270.5,118.5,274.5,114.5,231.5,71.5" stroke="black" stroke-width="1" fill="none" />
<polyline points="232.0,59.0,232.0,383.5" stroke="black" stroke-width="1" fill="none" />
<polyline points="256.0,385.0,256.0,2.0" stroke="black" stroke-width="1" fill="none" />
<polyline points="248.0,2.0,248.0,385.0" stroke="black" stroke-width="1" fill="none" />
<polyline points="240.0,385.5,240.0,2.5" stroke="black" stroke-width="1" fill="none" />
<polyline points="232.0,3.0,232.0,58.0" stroke="black" stroke-width="1" fill="none" />
<polyline points="193.5,33.5,192.0,32.0" stroke="black" stroke-width="1" fill="none" />
<polyline points="183.0,39.0,186.5,42.5" stroke="black" stroke-width="1" fill="none" />
<polyline points="178.5,42.5,175.0,39.0" stroke="black" stroke-width="1" fill="none" />
<polyline points="168.0,31.0,168.0,30.5,168.0,30.0,168.0,8.0,171.5,11.5,179.0,19.0,175.5,16.5,174.0,18.0,172.0,20.0,168.0,16.0" stroke="black" stroke-width="1" fill="none" />
<polyline points="159.5,16.0,271.5,16.0" stroke="black" stroke-width="1" fill="none" />
<polyline points="276.0,32.0,408.0,32.0" stroke="black" stroke-width="1" fill="none" />
<polyline points="459.0,24.0,511.5,24.0" stroke="black" stroke-width="1" fill="none" />
<polyline points="511.5,48.0,141.5,48.0" stroke="black" stroke-width="1" fill="none" />
<polyline points="152.5,40.0,511.5,40.0" stroke="black" stroke-width="1" fill="none" />
<polyline points="511.5,72.0,0.0,72.0" stroke="black" stroke-width="1" fill="none" />
<polyline points="0.0,80.0,511.5,80.0" stroke="black" stroke-width="1" fill="none" />
<polyline points="511.5,120.0,0.0,120.0" stroke="black" stroke-width="1" fill="none" />
<polyline points="0.0,112.0,511.5,112.0" stroke="black" stroke-width="1" fill="none" />
<polyline points="511.5,104.0,0.0,104.0" stroke="black" stroke-width="1" fill="none" />
<polyline points="0.0,96.0,511.5,96.0" stroke="black" stroke-width="1" fill="none" />
<polyline points="511.5,88.0,0.0,88.0" stroke="black" stroke-width="1" fill="none" />
<polyline points="0.0,128.0,382.0,128.0" stroke="black" stroke-width="1" fill="none" />
<polyline points="288.0,86.0,288.0,56.5" stroke="black" stroke-width="1" fill="none" />
<polyline points="272.0,38.5,272.0,35.0" stroke="black" stroke-width="1" fill="none" />
<polyline points="224.0,58.0,224.0,3.5,225.0,0.0,267.5,0.0" stroke="black" stroke-width="1" fill="none" />
<polyline points="216.0,0.0,216.0,2.5,216.0,4.0,216.0,58.5" stroke="black" stroke-width="1" fill="none" />
<polyline points="208.0,58.5,208.0,5.0" stroke="black" stroke-width="1" fill="none" />
<polyline points="200.0,5.5,200.0,59.5" stroke="black" stroke-width="1" fill="none" />
<polyline points="200.0,98.0,200.0,294.0" stroke="black" stroke-width="1" fill="none" />
<polyline points="171.0,288.0,165.5,288.0" stroke="black" stroke-width="1" fill="none" />
<polyline points="112.0,368.0,0.0,368.0" stroke="black" stroke-width="1" fill="none" />
<polyline points="0.0,360.0,2.5,357.5" stroke="black" stroke-width="1" fill="none" />
<polyline points="0.0,352.0,68.5,352.0" stroke="black" stroke-width="1" fill="none" />
<polyline points="16.0,349.5,16.0,367.5" stroke="black" stroke-width="1" fill="none" />
<polyline points="4.0,348.0,10.5,341.5,11.0,341.0,11.5,340.5,16.0,341.0,16.0,345.0" stroke="black" stroke-width="1" fill="none" />
<polyline points="9.0,345.0,0.0,336.0" stroke="black" stroke-width="1" fill="none" />
<polyline points="5.0,333.0,15.5,343.5" stroke="black" stroke-width="1" fill="none" />
<polyline points="8.0,332.5,8.0,367.5" stroke="black" stroke-width="1" fill="none" />
<polyline points="0.0,320.0,116.0,320.0" stroke="black" stroke-width="1" fill="none" />
<polyline points="32.0,279.5,32.0,272.0,28.5,268.5,25.5,265.5" stroke="black" stroke-width="1" fill="none" />
<polyline points="32.0,264.0,33.0,265.0,32.0,267.5,32.0,248.5" stroke="black" stroke-width="1" fill="none" />
<polyline points="24.0,243.5,24.0,274.0" stroke="black" stroke-width="1" fill="none" />
<polyline points="16.0,268.0,16.0,253.5,16.0,253.0,16.0,249.0" stroke="black" stroke-width="1" fill="none" />
<polyline points="16.0,235.5,16.0,208.0" stroke="black" stroke-width="1" fill="none" />
<polyline points="24.0,209.5,24.0,211.0,24.0,214.0,24.0,220.0" stroke="black" stroke-width="1" fill="none" />
<polyline points="32.0,219.0,32.0,217.5" stroke="black" stroke-width="1" fill="none" />
<polyline points="36.0,228.0,37.5,229.5" stroke="black" stroke-width="1" fill="none" />
<polyline points="46.0,256.0,58.5,256.0" stroke="black" stroke-width="1" fill="none" />
<polyline points="68.5,264.0,0.0,264.0,0.0,261.0,0.0,317.0,0.0,312.0,117.5,312.0" stroke="black" stroke-width="1" fill="none" />
<polyline points="71.5,288.0,0.0,288.0" stroke="black" stroke-width="1" fill="none" />
<polyline points="0.0,280.0,74.0,280.0" stroke="black" stroke-width="1" fill="none" />
<polyline points="72.5,272.0,0.0,272.0" stroke="black" stroke-width="1" fill="none" />
<polyline points="0.0,258.0,0.0,204.0,0.0,200.0,129.5,200.0" stroke="black" stroke-width="1" fill="none" />
<polyline points="143.0,192.0,145.0,192.0" stroke="black" stroke-width="1" fill="none" />
<polyline points="125.5,216.0,0.0,216.0" stroke="black" stroke-width="1" fill="none" />
<polyline points="0.0,224.0,85.5,224.0" stroke="black" stroke-width="1" fill="none" />
<polyline points="70.0,232.0,66.0,232.0" stroke="black" stroke-width="1" fill="none" />
<polyline points="66.5,240.0,67.5,240.0" stroke="black" stroke-width="1" fill="none" />
<polyline points="38.0,256.0,0.0,256.0" stroke="black" stroke-width="1" fill="none" />
<polyline points="0.0,248.0,49.0,248.0" stroke="black" stroke-width="1" fill="none" />
<polyline points="51.5,240.0,0.0,240.0" stroke="black" stroke-width="1" fill="none" />
<polyline points="0.0,232.0,62.5,232.0" stroke="black" stroke-width="1" fill="none" />
<polyline points="24.0,183.0,24.0,182.0" stroke="black" stroke-width="1" fill="none" />
<polyline points="16.0,182.5,16.0,183.0" stroke="black" stroke-width="1" fill="none" />
<polyline points="0.0,182.5,0.0,185.0,0.0,184.0,95.5,184.0" stroke="black" stroke-width="1" fill="none" />
<polyline points="122.5,192.0,0.0,192.0" stroke="black" stroke-width="1" fill="none" />
<polyline points="0.0,176.0,70.0,176.0" stroke="black" stroke-width="1" fill="none" />
<polyline points="65.0,168.0,0.0,168.0,0.0,164.0,0.0,163.5,0.0,160.0,60.0,160.0" stroke="black" stroke-width="1" fill="none" />
<polyline points="57.5,152.0,0.0,152.0" stroke="black" stroke-width="1" fill="none" />
<polyline points="0.0,144.0,77.0,144.0" stroke="black" stroke-width="1" fill="none" />
<polyline points="124.0,136.0,389.0,136.0" stroke="black" stroke-width="1" fill="none" />
<polyline points="405.0,168.0,169.0,168.0" stroke="black" stroke-width="1" fill="none" />
<polyline points="170.5,160.0,397.0,160.0" stroke="black" stroke-width="1" fill="none" />
<polyline points="392.0,144.0,174.5,144.0,175.0,145.0,173.0,147.0" stroke="black" stroke-width="1" fill="none" />
<polyline points="187.0,117.0,187.5,116.5,188.5,116.5,187.0,115.0" stroke="black" stroke-width="1" fill="none" />
<polyline points="198.5,102.5,203.0,107.0" stroke="black" stroke-width="1" fill="none" />
<polyline points="192.0,60.0,192.0,6.5" stroke="black" stroke-width="1" fill="none" />
<polyline points="184.0,7.0,184.0,60.0" stroke="black" stroke-width="1" fill="none" />
<polyline points="176.0,52.0,176.0,7.0" stroke="black" stroke-width="1" fill="none" />
<polyline points="160.5,24.0,273.5,24.0" stroke="black" stroke-width="1" fill="none" />
<polyline points="275.5,32.0,154.0,32.0" stroke="black" stroke-width="1" fill="none" />
<polyline points="153.5,24.0,152.0,24.0" stroke="black" stroke-width="1" fill="none" />
<polyline points="200.5,0.0,220.0,0.0" stroke="black" stroke-width="1" fill="none" />
<polyline points="119.5,136.0,0.0,136.0" stroke="black" stroke-width="1" fill="none" />
<polyline points="473.5,16.0,511.5,16.0" stroke="black" stroke-width="1" fill="none" />
<polyline points="511.5,8.0,487.5,8.0" stroke="black" stroke-width="1" fill="none" />
<polyline points="493.0,0.0,495.5,0.0,501.0,0.0,511.5,0.0" stroke="black" stroke-width="1" fill="none" />
</svg>