<svg xmlns="http://www.w3.org/2000/svg" height="512px" width="512px" version="1.1"><polyline points="194.0,0.0,198.0,8.0,203.0,16.0,209.0,24.0,214.0,32.0,220.0,40.0,225.0,48.0,230.0,56.0,236.0,64.0,241.0,72.0,247.0,80.0,252.0,88.0,257.0,96.0,263.0,104.0,268.0,112.0,273.0,120.0,278.0,128.0,284.0,136.0,289.0,144.0,294.0,152.0,300.0,160.0,305.0,168.0,310.0,176.0,315.0,184.0,321.0,192.0,326.0,200.0,332.0,208.0,337.0,216.0,342.0,224.0,347.0,232.0,353.0,240.0,358.0,248.0,363.0,256.0,369.0,264.0,359.0,272.0,365.0,268.0,365.0,272.0,357.0,278.0,349.0,284.0,351.0,282.0,363.0,274.0,370.0,266.0,372.0,269.0,377.0,277.0,383.0,285.0,388.0,293.0,393.0,301.0,399.0,309.0,404.0,317.0,409.0,325.0,415.0,333.0,420.0,341.0,426.0,349.0,431.0,357.0,436.0,365.0,442.0,373.0,447.0,381.0,452.0,389.0,457.0,397.0,463.0,405.0,468.0,413.0,473.0,421.0,479.0,429.0,484.0,437.0,490.0,445.0,495.0,453.0,500.0,461.0,505.0,469.0" stroke="black" stroke-width="1" fill="none" />
<polyline points="509.0,427.0,507.0,430.0,504.0,419.0,499.0,418.0,496.0,412.0,490.0,404.0,484.0,396.0,479.0,388.0,474.0,380.0,473.0,373.0,470.0,370.0,468.0,366.0,461.0,363.0,457.0,355.0,453.0,348.0,448.0,343.0,444.0,335.0,439.0,327.0,433.0,319.0,427.0,311.0,422.0,303.0,417.0,295.0,414.0,290.0,409.0,282.0,407.0,274.0,403.0,273.0,396.0,265.0,392.0,257.0,394.0,255.0,390.0,247.0,385.0,247.0,379.0,239.0,374.0,231.0,368.0,223.0,363.0,214.0,357.0,206.0,352.0,198.0,346.0,190.0,342.0,182.0,336.0,174.0,331.0,166.0,325.0,158.0,321.0,150.0,315.0,142.0,309.0,134.0,304.0,126.0,303.0,117.0,297.0,110.0,292.0,102.0,283.0,93.0,278.0,86.0,273.0,78.0,267.0,70.0,262.0,62.0,255.0,54.0,250.0,46.0,247.0,38.0,243.0,33.0,237.0,26.0,232.0,18.0,226.0,10.0,226.0,2.0,221.0,1.0" stroke="black" stroke-width="1" fill="none" />
<polyline points="214.0,1.0,222.0,12.0,230.0,24.0,238.0,36.0,246.0,48.0,254.0,60.0,262.0,71.0,270.0,83.0,278.0,95.0,286.0,108.0,294.0,120.0,302.0,132.0,310.0,144.0,318.0,156.0,326.0,168.0,334.0,180.0,342.0,193.0,350.0,204.0,358.0,216.0,366.0,228.0,374.0,241.0,382.0,253.0,390.0,265.0,398.0,277.0,406.0,289.0,414.0,300.0,422.0,312.0,430.0,324.0,438.0,336.0,446.0,348.0,454.0,360.0,462.0,372.0,470.0,384.0,478.0,396.0,486.0,408.0,494.0,420.0,502.0,433.0,510.0,445.0" stroke="black" stroke-width="1" fill="none" />
<polyline points="506.0,469.0,498.0,456.0,490.0,444.0,482.0,432.0,474.0,421.0,466.0,409.0,458.0,397.0,450.0,385.0,442.0,372.0,434.0,360.0,426.0,348.0,418.0,337.0,410.0,325.0,402.0,313.0,394.0,301.0,386.0,289.0,378.0,277.0,370.0,265.0,362.0,253.0,354.0,241.0,346.0,229.0,338.0,217.0,330.0,205.0,322.0,193.0,314.0,181.0,306.0,168.0,298.0,156.0,290.0,144.0,282.0,132.0,274.0,120.0,266.0,108.0,258.0,96.0,250.0,84.0,242.0,72.0,234.0,60.0,226.0,48.0,218.0,36.0,210.0,24.0,202.0,13.0,194.0,1.0" stroke="black" stroke-width="1" fill="none" />
<polyline points="214.0,0.0,219.0,8.0,224.0,16.0,229.0,24.0,235.0,32.0,240.0,40.0,245.0,48.0,251.0,56.0,256.0,64.0,262.0,72.0,267.0,80.0,272.0,88.0,278.0,96.0,283.0,104.0,288.0,112.0,293.0,120.0,299.0,128.0,304.0,136.0,309.0,144.0,315.0,152.0,320.0,160.0,325.0,168.0,330.0,176.0,336.0,184.0,341.0,192.0,346.0,200.0,351.0,208.0,357.0,216.0,362.0,224.0,367.0,232.0,373.0,240.0,378.0,248.0,383.0,256.0,389.0,264.0,394.0,272.0,400.0,280.0,405.0,288.0,410.0,296.0,416.0,304.0,421.0,312.0,426.0,320.0,432.0,328.0,437.0,336.0,442.0,344.0,448.0,352.0,453.0,360.0,458.0,368.0,464.0,376.0,469.0,384.0,474.0,392.0,480.0,400.0,485.0,408.0,490.0,416.0,496.0,424.0,501.0,432.0,506.0,440.0" stroke="black" stroke-width="1" fill="none" />
<polyline points="499.0,414.0,496.0,406.0,488.0,395.0,483.0,387.0" stroke="black" stroke-width="1" fill="none" />
<polyline points="446.0,330.0,438.0,319.0,438.0,319.0,443.0,327.0,447.0,336.0,453.0,343.0,449.0,343.0,456.0,346.0,461.0,355.0,466.0,360.0,470.0,373.0,473.0,376.0,476.0,383.0,482.0,385.0,483.0,394.0,489.0,400.0,491.0,403.0,496.0,411.0,502.0,415.0,504.0,423.0" stroke="black" stroke-width="1" fill="none" />
<polyline points="446.0,279.0,442.0,270.0,434.0,267.0,434.0,267.0,441.0,275.0" stroke="black" stroke-width="1" fill="none" />
<polyline points="419.0,246.0,411.0,241.0" stroke="black" stroke-width="1" fill="none" />
<polyline points="408.0,223.0,400.0,212.0,392.0,204.0,392.0,204.0,399.0,212.0,405.0,220.0" stroke="black" stroke-width="1" fill="none" />
<polyline points="385.0,241.0,382.0,236.0,375.0,225.0,367.0,221.0" stroke="black" stroke-width="1" fill="none" />
<polyline points="378.0,183.0,370.0,171.0,367.0,174.0,371.0,175.0,377.0,183.0,382.0,191.0" stroke="black" stroke-width="1" fill="none" />
<polyline points="363.0,155.0,355.0,144.0,347.0,135.0,347.0,135.0,353.0,143.0,359.0,151.0" stroke="black" stroke-width="1" fill="none" />
<polyline points="331.0,159.0,333.0,167.0,339.0,174.0,344.0,179.0,348.0,186.0,351.0,193.0,358.0,201.0,364.0,208.0,362.0,212.0,365.0,216.0,373.0,222.0,374.0,228.0,376.0,233.0,383.0,236.0,385.0,247.0,392.0,250.0,398.0,258.0,406.0,270.0,412.0,280.0,414.0,285.0,420.0,292.0,419.0,298.0,427.0,302.0,430.0,308.0,432.0,317.0,438.0,317.0,443.0,330.0" stroke="black" stroke-width="1" fill="none" />
<polyline points="510.0,233.0,502.0,221.0,494.0,210.0,486.0,203.0,478.0,194.0" stroke="black" stroke-width="1" fill="none" />
<polyline points="462.0,168.0,454.0,159.0" stroke="black" stroke-width="1" fill="none" />
<polyline points="439.0,137.0,447.0,147.0,455.0,155.0,463.0,165.0,471.0,177.0,476.0,188.0,484.0,196.0" stroke="black" stroke-width="1" fill="none" />
<polyline points="510.0,239.0,508.0,231.0,505.0,227.0,501.0,221.0,495.0,218.0,493.0,210.0,489.0,205.0,484.0,197.0,476.0,189.0,473.0,180.0,465.0,175.0,462.0,169.0,459.0,161.0,456.0,157.0,451.0,149.0,445.0,141.0,434.0,130.0" stroke="black" stroke-width="1" fill="none" />
<polyline points="445.0,146.0,439.0,138.0,437.0,130.0,435.0,127.0,429.0,119.0,426.0,114.0,420.0,106.0,415.0,98.0,410.0,90.0,404.0,82.0,400.0,82.0,394.0,74.0,391.0,72.0,380.0,80.0,366.0,88.0,367.0,96.0,372.0,104.0,377.0,112.0,383.0,120.0,389.0,128.0,394.0,136.0,399.0,144.0,405.0,152.0,410.0,160.0,416.0,168.0,420.0,176.0,425.0,184.0,431.0,192.0,437.0,200.0,442.0,208.0,448.0,216.0,453.0,224.0,458.0,232.0,464.0,240.0,469.0,248.0,474.0,256.0,480.0,264.0,486.0,272.0,491.0,280.0,497.0,288.0,502.0,296.0,507.0,304.0" stroke="black" stroke-width="1" fill="none" />
<polyline points="504.0,298.0,496.0,286.0,488.0,275.0,480.0,263.0,472.0,251.0,464.0,239.0,456.0,227.0,448.0,215.0,440.0,204.0,432.0,192.0,424.0,180.0,416.0,168.0,408.0,156.0,400.0,144.0,392.0,132.0,384.0,120.0,376.0,109.0,368.0,97.0,360.0,88.0,352.0,76.0,344.0,65.0,336.0,53.0,336.0,53.0,340.0,61.0,346.0,69.0,352.0,77.0,357.0,85.0,362.0,93.0,367.0,88.0,375.0,83.0,383.0,78.0,391.0,72.0,399.0,79.0,405.0,83.0,413.0,94.0,421.0,106.0,429.0,116.0,437.0,128.0,445.0,140.0,453.0,151.0" stroke="black" stroke-width="1" fill="none" />
<polyline points="332.0,114.0,324.0,108.0" stroke="black" stroke-width="1" fill="none" />
<polyline points="305.0,127.0,308.0,124.0,313.0,133.0,315.0,140.0,323.0,146.0,329.0,156.0,331.0,159.0,336.0,166.0,344.0,179.0,344.0,182.0,347.0,190.0,355.0,194.0,363.0,206.0" stroke="black" stroke-width="1" fill="none" />
<polyline points="321.0,89.0,313.0,77.0,305.0,70.0,301.0,61.0" stroke="black" stroke-width="1" fill="none" />
<polyline points="299.0,55.0,302.0,63.0,305.0,71.0,314.0,79.0,317.0,87.0" stroke="black" stroke-width="1" fill="none" />
<polyline points="296.0,113.0,288.0,101.0,280.0,89.0" stroke="black" stroke-width="1" fill="none" />
<polyline points="303.0,116.0,295.0,106.0,287.0,98.0,281.0,86.0,276.0,76.0,268.0,64.0,260.0,53.0,251.0,46.0,251.0,43.0,247.0,37.0,247.0,33.0,244.0,27.0,243.0,27.0,235.0,19.0,232.0,11.0,229.0,13.0" stroke="black" stroke-width="1" fill="none" />
<polyline points="256.0,48.0,260.0,56.0,267.0,64.0,272.0,71.0,277.0,79.0,284.0,89.0,288.0,97.0,290.0,105.0,295.0,113.0" stroke="black" stroke-width="1" fill="none" />
<polyline points="316.0,24.0,308.0,13.0,300.0,1.0,300.0,0.0,304.0,8.0,310.0,16.0,315.0,24.0" stroke="black" stroke-width="1" fill="none" />
<polyline points="53.0,291.0,50.0,299.0,56.0,307.0,61.0,315.0,67.0,323.0,72.0,331.0,77.0,339.0,82.0,347.0,88.0,355.0,93.0,363.0,98.0,371.0,104.0,379.0,109.0,387.0,114.0,395.0,120.0,403.0,125.0,411.0,131.0,419.0,136.0,427.0,138.0,427.0,143.0,423.0,151.0,417.0,153.0,414.0,144.0,422.0" stroke="black" stroke-width="1" fill="none" />
<polyline points="140.0,432.0,148.0,425.0,156.0,419.0,159.0,416.0,150.0,424.0,140.0,432.0,145.0,440.0,150.0,448.0,155.0,456.0,161.0,464.0,166.0,472.0,171.0,480.0,176.0,488.0,182.0,496.0,187.0,504.0,189.0,506.0,181.0,494.0,173.0,482.0,165.0,469.0,157.0,458.0,149.0,444.0,141.0,433.0" stroke="black" stroke-width="1" fill="none" />
<polyline points="185.0,507.0,179.0,499.0,174.0,491.0,168.0,483.0,163.0,475.0,158.0,467.0,152.0,459.0,147.0,451.0,142.0,443.0,137.0,435.0,131.0,427.0,126.0,419.0,121.0,411.0,115.0,403.0,110.0,395.0,105.0,387.0,99.0,379.0,94.0,371.0,89.0,363.0,83.0,355.0,78.0,347.0,73.0,339.0,67.0,331.0,62.0,323.0,56.0,315.0,51.0,307.0,45.0,299.0,42.0,298.0,29.0,306.0,16.0,314.0,4.0,321.0,4.0,321.0,12.0,316.0,20.0,312.0,28.0,307.0,36.0,301.0,44.0,298.0,52.0,308.0,60.0,319.0,68.0,331.0,76.0,343.0,84.0,355.0,92.0,367.0,100.0,379.0,108.0,391.0,116.0,403.0,124.0,415.0,132.0,427.0,140.0,439.0,148.0,451.0,156.0,463.0,164.0,475.0,172.0,487.0,180.0,499.0" stroke="black" stroke-width="1" fill="none" />
<polyline points="137.0,422.0,129.0,416.0,121.0,404.0,113.0,391.0,105.0,380.0,97.0,368.0,89.0,356.0,81.0,344.0,73.0,332.0,65.0,320.0,57.0,308.0,49.0,296.0,40.0,294.0,32.0,300.0,24.0,304.0,16.0,310.0,8.0,315.0,0.0,317.0,15.0,310.0,28.0,302.0,40.0,294.0" stroke="black" stroke-width="1" fill="none" />
<polyline points="0.0,0.0,511.5,0.0,511.5,0.5,415.5,96.5" stroke="black" stroke-width="1" fill="none" />
<polyline points="412.0,92.0,504.0,0.0,504.0,0.0,504.0,226.5,504.0,228.0,504.0,230.0,508.0,228.0,511.5,224.5" stroke="black" stroke-width="1" fill="none" />
<polyline points="504.0,224.0,511.5,216.5" stroke="black" stroke-width="1" fill="none" />
<polyline points="511.5,208.5,501.0,219.0,503.0,223.0,511.5,231.5,511.5,232.5,510.5,233.5" stroke="black" stroke-width="1" fill="none" />
<polyline points="498.0,214.0,511.5,200.5" stroke="black" stroke-width="1" fill="none" />
<polyline points="511.5,192.5,494.5,209.5" stroke="black" stroke-width="1" fill="none" />
<polyline points="491.0,205.0,511.5,184.5" stroke="black" stroke-width="1" fill="none" />
<polyline points="511.5,176.5,488.0,200.0,484.5,196.5,511.5,223.5" stroke="black" stroke-width="1" fill="none" />
<polyline points="511.5,191.5,410.5,90.5,409.0,87.0,496.0,0.0,496.0,0.0,496.0,217.5" stroke="black" stroke-width="1" fill="none" />
<polyline points="484.5,195.5,511.5,168.5" stroke="black" stroke-width="1" fill="none" />
<polyline points="511.5,160.5,481.5,190.5" stroke="black" stroke-width="1" fill="none" />
<polyline points="478.0,186.0,508.0,156.0,508.5,155.5,511.5,152.5" stroke="black" stroke-width="1" fill="none" />
<polyline points="511.5,144.5,474.5,181.5,472.0,181.0,472.0,183.0" stroke="black" stroke-width="1" fill="none" />
<polyline points="471.5,176.5,511.5,136.5" stroke="black" stroke-width="1" fill="none" />
<polyline points="511.5,128.5,468.0,172.0,465.0,169.0,511.5,215.5" stroke="black" stroke-width="1" fill="none" />
<polyline points="511.5,183.5,328.0,0.0,328.0,0.0,328.0,155.5,327.5,152.5,333.5,146.5,335.5,144.5,346.0,134.0" stroke="black" stroke-width="1" fill="none" />
<polyline points="353.5,142.5,342.0,154.0,339.5,156.5,334.5,161.5,333.5,165.5,334.0,166.0,336.0,166.5,336.0,0.0,336.0,0.0,511.5,175.5" stroke="black" stroke-width="1" fill="none" />
<polyline points="465.0,167.0,511.5,120.5" stroke="black" stroke-width="1" fill="none" />
<polyline points="511.5,112.5,461.5,162.5" stroke="black" stroke-width="1" fill="none" />
<polyline points="458.5,157.5,511.5,104.5" stroke="black" stroke-width="1" fill="none" />
<polyline points="511.5,96.5,458.0,150.0,457.5,150.5,455.0,153.0" stroke="black" stroke-width="1" fill="none" />
<polyline points="452.0,148.0,511.5,88.5" stroke="black" stroke-width="1" fill="none" />
<polyline points="511.5,80.5,448.5,143.5,448.0,144.0,511.5,207.5" stroke="black" stroke-width="1" fill="none" />
<polyline points="511.5,167.5,344.0,0.0,344.0,0.0,344.0,179.0,344.0,176.0,349.5,170.5,350.0,170.0,359.0,161.0,363.0,165.0,354.0,174.0,353.0,175.0,350.0,178.0,349.5,178.5,347.0,181.0,346.5,184.0,427.0,184.0,425.5,185.5,428.5,188.5,427.5,188.5,426.5,189.5" stroke="black" stroke-width="1" fill="none" />
<polyline points="423.0,185.0,424.0,184.0,424.5,184.5,420.0,180.0,424.0,181.5,424.0,216.0,424.0,221.0,424.0,298.5,423.5,296.5,430.0,290.0,431.0,289.0,443.0,277.0" stroke="black" stroke-width="1" fill="none" />
<polyline points="446.0,282.0,434.5,293.5" stroke="black" stroke-width="1" fill="none" />
<polyline points="438.0,298.0,449.5,286.5" stroke="black" stroke-width="1" fill="none" />
<polyline points="457.0,303.0,447.0,313.0,446.0,314.0,440.0,320.0,439.0,319.0,511.5,391.5" stroke="black" stroke-width="1" fill="none" />
<polyline points="511.5,400.5,501.0,411.0,501.0,413.0,511.5,423.5,511.5,424.5,510.0,426.0,507.5,428.5,503.0,433.0" stroke="black" stroke-width="1" fill="none" />
<polyline points="499.5,428.5,503.5,424.5,504.5,424.5,482.0,402.0,481.0,401.0,480.5,400.5,480.5,399.5,484.0,396.0,487.0,399.0,488.5,400.5,488.5,399.5,484.0,404.0" stroke="black" stroke-width="1" fill="none" />
<polyline points="487.0,409.0,491.0,405.0,492.5,404.5,493.0,405.0,494.5,401.5,510.5,385.5" stroke="black" stroke-width="1" fill="none" />
<polyline points="509.5,378.5,511.0,377.0,511.5,375.5,511.0,375.0,509.0,379.0,490.5,397.5,488.0,398.5,488.0,414.0,490.5,413.5,494.5,409.5,496.0,408.5,496.0,425.5,497.0,425.0,511.5,439.5,511.5,440.5,509.5,442.5" stroke="black" stroke-width="1" fill="none" />
<polyline points="506.0,438.0,510.5,433.5,511.5,431.5,510.0,430.0,508.5,428.5,505.0,425.0,504.0,423.0,504.0,438.0" stroke="black" stroke-width="1" fill="none" />
<polyline points="488.0,441.0,488.0,511.5" stroke="black" stroke-width="1" fill="none" />
<polyline points="471.5,511.5,446.5,486.5" stroke="black" stroke-width="1" fill="none" />
<polyline points="451.0,483.0,464.0,496.0,464.5,496.5,479.5,511.5" stroke="black" stroke-width="1" fill="none" />
<polyline points="463.5,511.5,442.0,490.0,439.0,487.0,438.5,486.5" stroke="black" stroke-width="1" fill="none" />
<polyline points="433.5,489.5,433.0,489.0,436.5,492.5,455.5,511.5" stroke="black" stroke-width="1" fill="none" />
<polyline points="431.5,511.5,419.5,499.5,419.0,499.0,414.0,494.0,413.5,493.5,409.5,489.5" stroke="black" stroke-width="1" fill="none" />
<polyline points="409.0,497.0,423.5,511.5" stroke="black" stroke-width="1" fill="none" />
<polyline points="415.5,511.5,413.5,509.5" stroke="black" stroke-width="1" fill="none" />
<polyline points="407.5,511.5,398.5,502.5,397.0,501.0,394.0,498.0,393.0,497.0,392.0,496.0,388.5,492.5,388.0,492.0" stroke="black" stroke-width="1" fill="none" />
<polyline points="383.0,495.0,385.0,497.0,387.0,499.0,399.5,511.5" stroke="black" stroke-width="1" fill="none" />
<polyline points="391.5,511.5,389.5,509.5,386.5,509.5,384.5,511.5" stroke="black" stroke-width="1" fill="none" />
<polyline points="380.0,508.0,382.5,505.5" stroke="black" stroke-width="1" fill="none" />
<polyline points="379.0,501.0,377.0,503.0,373.5,501.5,383.5,511.5" stroke="black" stroke-width="1" fill="none" />
<polyline points="375.5,511.5,374.5,510.5,373.0,509.0,372.5,508.5,372.0,508.0,369.0,505.0,367.5,503.5,364.0,500.0" stroke="black" stroke-width="1" fill="none" />
<polyline points="370.0,498.0,371.0,499.0,372.5,500.5,373.0,501.0,374.5,497.5,376.0,496.0" stroke="black" stroke-width="1" fill="none" />
<polyline points="380.5,492.5,381.5,493.5" stroke="black" stroke-width="1" fill="none" />
<polyline points="373.5,490.5,371.5,492.5" stroke="black" stroke-width="1" fill="none" />
<polyline points="367.0,489.0,368.0,488.0" stroke="black" stroke-width="1" fill="none" />
<polyline points="364.5,483.5,366.0,482.0,362.0,478.0,363.0,477.0,359.0,479.0,388.0,508.0" stroke="black" stroke-width="1" fill="none" />
<polyline points="396.5,492.5,395.0,491.0" stroke="black" stroke-width="1" fill="none" />
<polyline points="399.5,487.5,400.0,488.0" stroke="black" stroke-width="1" fill="none" />
<polyline points="405.0,501.0,412.0,508.0" stroke="black" stroke-width="1" fill="none" />
<polyline points="424.5,496.5,426.0,498.0,427.5,499.5,439.5,511.5" stroke="black" stroke-width="1" fill="none" />
<polyline points="447.5,511.5,432.0,496.0,428.5,492.5,428.0,492.0" stroke="black" stroke-width="1" fill="none" />
<polyline points="421.0,493.0,417.5,489.5" stroke="black" stroke-width="1" fill="none" />
<polyline points="422.5,486.5,423.5,487.5,421.0,485.0,418.0,482.0" stroke="black" stroke-width="1" fill="none" />
<polyline points="440.0,480.0,442.0,482.0" stroke="black" stroke-width="1" fill="none" />
<polyline points="448.0,480.0,449.5,481.5,453.5,477.5,452.0,476.0" stroke="black" stroke-width="1" fill="none" />
<polyline points="456.5,480.5,458.0,482.0,461.5,485.5,487.5,511.5" stroke="black" stroke-width="1" fill="none" />
<polyline points="495.5,511.5,476.5,492.5,476.0,492.0,466.0,482.0,465.5,481.5,464.0,480.0,468.0,476.0,466.5,474.5,464.0,472.0,463.5,471.5,459.5,475.5,458.5,474.5" stroke="black" stroke-width="1" fill="none" />
<polyline points="470.0,478.0,471.0,479.0,474.0,482.0,503.5,511.5" stroke="black" stroke-width="1" fill="none" />
<polyline points="511.5,503.5,497.0,489.0" stroke="black" stroke-width="1" fill="none" />
<polyline points="492.5,484.5,491.0,483.0,488.0,480.0,487.5,479.5,484.5,476.5,482.5,474.5,482.0,474.0,480.5,472.5" stroke="black" stroke-width="1" fill="none" />
<polyline points="477.0,477.0,479.0,479.0,480.0,480.0,484.5,484.5,485.0,485.0,495.5,495.5,496.5,496.5,511.5,511.5" stroke="black" stroke-width="1" fill="none" />
<polyline points="511.5,487.5,508.5,484.5,508.0,484.0,505.5,481.5,504.5,480.5,504.0,480.0" stroke="black" stroke-width="1" fill="none" />
<polyline points="509.5,477.5,505.0,473.0,503.5,471.5,502.5,470.5" stroke="black" stroke-width="1" fill="none" />
<polyline points="498.0,474.0,497.0,473.0" stroke="black" stroke-width="1" fill="none" />
<polyline points="493.5,477.5,494.5,478.5,497.5,481.5,511.5,495.5" stroke="black" stroke-width="1" fill="none" />
<polyline points="504.0,511.5,504.0,464.5" stroke="black" stroke-width="1" fill="none" />
<polyline points="497.5,465.5,497.0,465.0,494.0,462.0,492.5,460.5,492.0,460.0,491.0,459.0" stroke="black" stroke-width="1" fill="none" />
<polyline points="494.0,454.0,493.5,453.5,496.0,452.5,496.0,511.5" stroke="black" stroke-width="1" fill="none" />
<polyline points="476.0,476.0,474.0,474.0" stroke="black" stroke-width="1" fill="none" />
<polyline points="484.5,460.5,483.5,459.5" stroke="black" stroke-width="1" fill="none" />
<polyline points="486.0,454.0,484.5,452.5" stroke="black" stroke-width="1" fill="none" />
<polyline points="490.5,466.5,492.0,468.0" stroke="black" stroke-width="1" fill="none" />
<polyline points="504.0,461.5,504.0,457.5" stroke="black" stroke-width="1" fill="none" />
<polyline points="496.5,423.5,500.0,420.0,504.0,416.0,511.5,408.5" stroke="black" stroke-width="1" fill="none" />
<polyline points="511.5,416.5,506.5,421.5" stroke="black" stroke-width="1" fill="none" />
<polyline points="497.0,415.0,493.5,418.5" stroke="black" stroke-width="1" fill="none" />
<polyline points="497.5,409.5,497.0,409.0,497.5,406.5,511.5,392.5" stroke="black" stroke-width="1" fill="none" />
<polyline points="505.0,375.0,487.5,392.5,486.0,390.0,511.5,415.5" stroke="black" stroke-width="1" fill="none" />
<polyline points="511.0,383.0,422.5,294.5,420.0,296.0,503.5,296.0,505.5,296.0,511.5,296.0" stroke="black" stroke-width="1" fill="none" />
<polyline points="504.0,299.0,504.0,420.5" stroke="black" stroke-width="1" fill="none" />
<polyline points="511.5,399.5,454.5,342.5,455.0,345.0,477.0,323.0" stroke="black" stroke-width="1" fill="none" />
<polyline points="478.5,329.5,459.0,349.0,456.0,350.5,456.0,364.5,458.5,365.5,461.5,362.5,464.0,362.5,464.0,360.5,465.5,358.5,483.5,340.5,485.5,341.5,486.5,342.5" stroke="black" stroke-width="1" fill="none" />
<polyline points="491.0,349.0,472.0,368.0,471.5,367.5,511.5,407.5" stroke="black" stroke-width="1" fill="none" />
<polyline points="484.5,387.5,500.5,371.5,501.5,370.5,502.5,369.5" stroke="black" stroke-width="1" fill="none" />
<polyline points="499.5,364.5,481.5,382.5,479.5,383.5,478.5,382.5,477.5,386.5,474.5,389.5" stroke="black" stroke-width="1" fill="none" />
<polyline points="480.0,388.0,480.0,401.5" stroke="black" stroke-width="1" fill="none" />
<polyline points="477.5,394.5,481.5,390.5,484.5,388.5,483.0,387.0" stroke="black" stroke-width="1" fill="none" />
<polyline points="478.0,378.0,494.5,361.5,499.5,363.5,504.5,368.5" stroke="black" stroke-width="1" fill="none" />
<polyline points="495.5,352.5,475.5,372.5,473.5,377.5,475.0,379.0,474.5,381.5,471.0,385.0" stroke="black" stroke-width="1" fill="none" />
<polyline points="467.5,380.5,471.5,376.5,472.0,377.5,472.0,388.5" stroke="black" stroke-width="1" fill="none" />
<polyline points="466.0,378.0,485.5,397.5" stroke="black" stroke-width="1" fill="none" />
<polyline points="496.0,406.0,496.0,287.0,495.5,287.5,495.0,287.0,494.0,286.0,492.0,284.0,490.5,282.5,466.0,258.0" stroke="black" stroke-width="1" fill="none" />
<polyline points="461.0,261.0,474.5,274.5" stroke="black" stroke-width="1" fill="none" />
<polyline points="480.0,272.0,482.0,270.0" stroke="black" stroke-width="1" fill="none" />
<polyline points="485.5,274.5,484.0,276.0,488.0,277.0,488.0,395.0" stroke="black" stroke-width="1" fill="none" />
<polyline points="480.0,384.0,480.0,264.5,479.5,264.5,476.0,268.0" stroke="black" stroke-width="1" fill="none" />
<polyline points="472.5,263.5,474.0,262.0,475.0,261.0,476.5,259.5,477.5,261.5,474.0,258.0,472.0,256.0,469.0,253.0,472.0,252.0,472.0,372.5,468.5,371.5,465.0,375.0" stroke="black" stroke-width="1" fill="none" />
<polyline points="461.5,370.5,465.0,367.0,464.0,365.0,464.0,376.0" stroke="black" stroke-width="1" fill="none" />
<polyline points="471.0,367.0,468.5,364.5,469.0,363.0,487.0,345.0" stroke="black" stroke-width="1" fill="none" />
<polyline points="495.5,351.5,498.5,354.5" stroke="black" stroke-width="1" fill="none" />
<polyline points="481.0,335.0,461.0,355.0,459.5,356.5,455.0,361.0" stroke="black" stroke-width="1" fill="none" />
<polyline points="452.0,356.0,455.5,352.5" stroke="black" stroke-width="1" fill="none" />
<polyline points="450.0,354.0,469.5,373.5" stroke="black" stroke-width="1" fill="none" />
<polyline points="464.0,358.0,464.0,240.5,465.5,240.0,0.0,240.0,4.0,236.0,6.0,234.0" stroke="black" stroke-width="1" fill="none" />
<polyline points="9.5,238.5,8.0,240.0" stroke="black" stroke-width="1" fill="none" />
<polyline points="11.0,245.0,13.0,243.0" stroke="black" stroke-width="1" fill="none" />
<polyline points="15.5,248.5,14.0,250.0,13.5,253.5,14.0,254.0,14.5,254.5,32.5,272.5,31.0,273.0,30.5,273.5" stroke="black" stroke-width="1" fill="none" />
<polyline points="27.5,268.5,28.0,268.0,24.0,264.0,25.5,262.5" stroke="black" stroke-width="1" fill="none" />
<polyline points="21.0,259.0,22.0,258.0" stroke="black" stroke-width="1" fill="none" />
<polyline points="18.5,253.5,17.0,255.0,19.5,251.5,0.0,232.0,0.0,232.0,376.0,232.0,375.0,233.0,372.0,236.0,369.5,233.5,386.0,250.0,387.5,251.5,388.0,252.0,388.0,252.0,384.5,255.5,385.0,257.0,403.0,275.0,403.5,275.5,404.0,276.0,404.0,276.0,401.0,279.0,401.5,281.5,418.0,298.0,418.5,298.5,420.0,300.0,420.0,300.0,416.5,303.5,418.5,306.5,435.0,323.0,435.5,323.5,438.5,326.5,439.0,329.0,436.0,332.0,435.0,331.0,452.0,348.0,452.0,348.0,449.0,351.0" stroke="black" stroke-width="1" fill="none" />
<polyline points="445.5,346.5,449.0,343.0,448.0,340.0,448.0,353.0" stroke="black" stroke-width="1" fill="none" />
<polyline points="442.0,342.0,445.5,338.5,451.0,339.0,453.0,341.0,452.5,339.5,476.0,316.0" stroke="black" stroke-width="1" fill="none" />
<polyline points="479.5,311.5,472.0,304.0" stroke="black" stroke-width="1" fill="none" />
<polyline points="464.0,304.0,478.5,318.5" stroke="black" stroke-width="1" fill="none" />
<polyline points="467.5,316.5,449.5,334.5" stroke="black" stroke-width="1" fill="none" />
<polyline points="446.5,329.5,464.0,312.0,463.0,311.0,465.0,313.0,467.5,315.5,478.5,326.5" stroke="black" stroke-width="1" fill="none" />
<polyline points="459.0,309.0,449.5,318.5,449.0,319.0,443.5,324.5" stroke="black" stroke-width="1" fill="none" />
<polyline points="442.0,330.0,442.5,330.5,440.0,329.5,440.0,340.5,439.5,336.5,442.5,333.5" stroke="black" stroke-width="1" fill="none" />
<polyline points="434.5,330.5,433.5,329.5,433.0,327.0,436.0,324.0" stroke="black" stroke-width="1" fill="none" />
<polyline points="433.0,319.0,429.5,322.5,432.0,318.0,432.0,328.5" stroke="black" stroke-width="1" fill="none" />
<polyline points="438.5,318.5,437.5,317.5,437.0,315.0,442.5,309.5,444.0,308.0,453.0,299.0" stroke="black" stroke-width="1" fill="none" />
<polyline points="450.0,294.0,441.0,303.0,439.5,304.5,433.5,310.5,432.0,309.5,432.0,232.0" stroke="black" stroke-width="1" fill="none" />
<polyline points="428.5,236.5,424.5,232.5" stroke="black" stroke-width="1" fill="none" />
<polyline points="417.0,233.0,424.0,240.0" stroke="black" stroke-width="1" fill="none" />
<polyline points="418.5,245.5,409.0,255.0" stroke="black" stroke-width="1" fill="none" />
<polyline points="412.5,259.5,419.0,253.0" stroke="black" stroke-width="1" fill="none" />
<polyline points="425.0,255.0,415.5,264.5" stroke="black" stroke-width="1" fill="none" />
<polyline points="419.0,269.0,427.0,261.0" stroke="black" stroke-width="1" fill="none" />
<polyline points="430.5,265.5,421.0,275.0,420.5,275.5,417.5,278.5,417.0,279.0,414.0,282.0,411.0,283.0,410.0,282.0,410.5,280.0,493.0,280.0,495.5,280.0,511.5,280.0" stroke="black" stroke-width="1" fill="none" />
<polyline points="511.5,288.0,500.5,288.0" stroke="black" stroke-width="1" fill="none" />
<polyline points="490.0,278.0,488.0,280.0" stroke="black" stroke-width="1" fill="none" />
<polyline points="482.5,282.5,488.5,288.5" stroke="black" stroke-width="1" fill="none" />
<polyline points="479.0,287.0,473.0,281.0" stroke="black" stroke-width="1" fill="none" />
<polyline points="490.5,272.0,511.5,272.0" stroke="black" stroke-width="1" fill="none" />
<polyline points="511.5,264.0,492.5,264.0" stroke="black" stroke-width="1" fill="none" />
<polyline points="492.0,256.0,511.5,256.0" stroke="black" stroke-width="1" fill="none" />
<polyline points="487.0,272.0,0.0,272.0" stroke="black" stroke-width="1" fill="none" />
<polyline points="0.0,264.0,397.5,264.0,400.0,264.0,481.5,264.0" stroke="black" stroke-width="1" fill="none" />
<polyline points="476.0,256.0,0.0,256.0" stroke="black" stroke-width="1" fill="none" />
<polyline points="0.0,248.0,386.5,248.0,385.0,247.0,381.5,250.5,384.0,245.5,384.0,257.0,388.0,260.0,392.0,256.0,392.0,256.5,392.0,268.0,394.5,269.5,397.5,266.5,401.5,265.5,402.0,266.0,404.5,267.5,410.5,261.5" stroke="black" stroke-width="1" fill="none" />
<polyline points="413.5,266.5,408.0,272.0,407.5,271.5,496.0,360.0" stroke="black" stroke-width="1" fill="none" />
<polyline points="511.5,327.5,511.5,327.5" stroke="black" stroke-width="1" fill="none" />
<polyline points="511.5,311.5,510.0,310.0,506.5,306.5,503.5,303.5" stroke="black" stroke-width="1" fill="none" />
<polyline points="510.0,304.0,511.5,304.0" stroke="black" stroke-width="1" fill="none" />
<polyline points="458.0,298.0,356.5,196.5,356.5,195.5,362.5,189.5,364.5,187.5,374.0,178.0" stroke="black" stroke-width="1" fill="none" />
<polyline points="369.0,175.0,360.5,183.5,359.0,185.0,356.0,188.0,355.5,188.5,353.0,191.0,349.5,194.5,346.5,197.5,352.0,197.5,352.0,209.0,352.5,207.5,356.0,204.0,356.5,204.5,355.0,203.0,354.0,202.0,337.5,185.5,337.0,183.0,340.0,180.0,342.0,182.0,343.0,183.0,343.0,185.0,340.0,188.0,344.0,186.5,344.0,196.5,343.0,193.0,346.5,189.5,349.5,186.5,367.0,169.0" stroke="black" stroke-width="1" fill="none" />
<polyline points="373.5,165.5,375.0,167.0,375.5,167.5,376.0,168.0" stroke="black" stroke-width="1" fill="none" />
<polyline points="379.0,163.0,377.5,161.5" stroke="black" stroke-width="1" fill="none" />
<polyline points="384.0,161.5,384.0,239.0,385.5,238.5,392.0,232.0,393.0,231.0,404.0,220.0,405.5,221.5,309.5,125.5,308.5,123.5,324.0,108.0" stroke="black" stroke-width="1" fill="none" />
<polyline points="329.0,111.0,311.5,128.5,312.0,132.5,312.0,134.5,311.0,137.0,308.0,140.0,307.5,139.5,324.0,156.0,324.0,156.0,321.0,159.0,322.0,162.0,339.0,179.0,336.5,175.5,333.5,178.5" stroke="black" stroke-width="1" fill="none" />
<polyline points="330.5,173.5,333.5,170.5,336.0,171.0,336.0,184.0" stroke="black" stroke-width="1" fill="none" />
<polyline points="341.5,173.5,441.5,273.5,439.5,272.5,420.5,291.5,420.0,292.0,419.5,291.5,416.0,292.5,416.0,305.0,420.0,308.0,424.0,304.0,423.5,303.5,424.5,304.5,424.0,303.0,424.0,316.5,426.5,317.5,430.5,313.5,432.0,313.5,432.0,315.5,431.0,312.0,511.5,312.0" stroke="black" stroke-width="1" fill="none" />
<polyline points="462.5,310.5,373.5,221.5,373.0,219.0,378.0,214.0,379.0,213.0,390.5,201.5" stroke="black" stroke-width="1" fill="none" />
<polyline points="397.5,210.5,387.0,221.0,386.0,222.0,379.0,229.0,378.5,232.0,460.0,232.0,463.0,232.0,465.5,232.0" stroke="black" stroke-width="1" fill="none" />
<polyline points="473.5,232.0,511.5,232.0" stroke="black" stroke-width="1" fill="none" />
<polyline points="511.5,248.0,482.5,248.0" stroke="black" stroke-width="1" fill="none" />
<polyline points="476.0,248.0,475.5,248.0,474.5,248.0,474.0,248.0,470.5,248.0,389.5,248.0,390.5,246.5,484.5,340.5" stroke="black" stroke-width="1" fill="none" />
<polyline points="456.0,346.5,456.0,236.5,456.0,234.0,456.0,229.5" stroke="black" stroke-width="1" fill="none" />
<polyline points="458.0,224.0,460.5,224.0" stroke="black" stroke-width="1" fill="none" />
<polyline points="466.5,224.0,511.5,224.0" stroke="black" stroke-width="1" fill="none" />
<polyline points="511.5,199.5,429.0,117.0,429.0,115.0,511.5,32.5" stroke="black" stroke-width="1" fill="none" />
<polyline points="511.5,64.5,442.0,134.0" stroke="black" stroke-width="1" fill="none" />
<polyline points="438.5,129.5,511.5,56.5" stroke="black" stroke-width="1" fill="none" />
<polyline points="511.5,72.5,445.5,138.5,446.0,142.0,446.5,142.5" stroke="black" stroke-width="1" fill="none" />
<polyline points="435.5,124.5,511.5,48.5" stroke="black" stroke-width="1" fill="none" />
<polyline points="511.5,40.5,432.0,120.0" stroke="black" stroke-width="1" fill="none" />
<polyline points="425.5,110.5,511.5,24.5" stroke="black" stroke-width="1" fill="none" />
<polyline points="511.5,16.5,422.0,106.0" stroke="black" stroke-width="1" fill="none" />
<polyline points="419.0,101.0,511.5,8.5,511.5,7.5,504.0,0.0" stroke="black" stroke-width="1" fill="none" />
<polyline points="496.0,0.0,511.5,15.5" stroke="black" stroke-width="1" fill="none" />
<polyline points="511.5,23.5,488.0,0.0,488.0,0.0,488.0,205.5" stroke="black" stroke-width="1" fill="none" />
<polyline points="480.0,192.5,480.0,0.0,480.0,0.0,511.5,31.5" stroke="black" stroke-width="1" fill="none" />
<polyline points="488.0,0.0,405.5,82.5" stroke="black" stroke-width="1" fill="none" />
<polyline points="402.0,78.0,480.0,0.0" stroke="black" stroke-width="1" fill="none" />
<polyline points="472.0,0.0,472.0,180.5" stroke="black" stroke-width="1" fill="none" />
<polyline points="464.0,170.5,464.0,0.0,464.0,0.0,511.5,47.5" stroke="black" stroke-width="1" fill="none" />
<polyline points="511.5,39.5,472.0,0.0,472.0,0.0,399.0,73.0" stroke="black" stroke-width="1" fill="none" />
<polyline points="395.5,68.5,464.0,0.0" stroke="black" stroke-width="1" fill="none" />
<polyline points="456.0,0.0,456.0,158.5" stroke="black" stroke-width="1" fill="none" />
<polyline points="448.0,149.0,448.0,0.0,448.0,0.0,511.5,63.5" stroke="black" stroke-width="1" fill="none" />
<polyline points="511.5,55.5,456.0,0.0,456.0,0.0,375.5,80.5" stroke="black" stroke-width="1" fill="none" />
<polyline points="369.5,78.5,448.0,0.0" stroke="black" stroke-width="1" fill="none" />
<polyline points="440.0,0.0,440.0,138.0" stroke="black" stroke-width="1" fill="none" />
<polyline points="432.0,126.0,432.0,0.0,432.0,0.0,511.5,79.5" stroke="black" stroke-width="1" fill="none" />
<polyline points="511.5,71.5,440.0,0.0,440.0,0.0,364.0,76.0" stroke="black" stroke-width="1" fill="none" />
<polyline points="365.0,83.0,360.5,87.5,358.0,86.0,364.5,92.5,364.5,91.5,363.0,93.0" stroke="black" stroke-width="1" fill="none" />
<polyline points="368.0,97.5,368.0,214.0,369.5,214.5,375.0,209.0,377.5,206.5,384.5,199.5" stroke="black" stroke-width="1" fill="none" />
<polyline points="382.0,194.0,374.0,202.0,371.5,204.5,366.0,210.0,362.5,213.5,359.0,217.0" stroke="black" stroke-width="1" fill="none" />
<polyline points="362.5,221.5,365.0,219.0,368.0,218.0,368.0,220.0,368.0,222.0,368.0,232.5,368.5,231.5,372.0,228.0,371.0,227.0,354.0,210.0,356.0,212.0,359.5,208.5,360.0,208.5,360.0,220.5" stroke="black" stroke-width="1" fill="none" />
<polyline points="365.5,226.5,369.0,223.0,371.5,219.5,369.5,217.5,368.0,216.0,449.0,216.0,448.0,218.0,448.0,335.0" stroke="black" stroke-width="1" fill="none" />
<polyline points="440.0,324.0,440.0,268.5,435.5,268.5,425.0,279.0,424.5,279.5,418.0,286.0,415.5,287.5,414.5,286.5,413.5,290.5,410.5,293.5" stroke="black" stroke-width="1" fill="none" />
<polyline points="407.0,289.0,410.5,285.5,408.0,281.5,408.0,292.5" stroke="black" stroke-width="1" fill="none" />
<polyline points="414.0,298.0,417.0,295.0" stroke="black" stroke-width="1" fill="none" />
<polyline points="427.0,301.0,433.0,295.0" stroke="black" stroke-width="1" fill="none" />
<polyline points="436.0,300.0,430.5,305.5,426.5,309.5,423.0,313.0" stroke="black" stroke-width="1" fill="none" />
<polyline points="408.0,323.0,408.0,511.5" stroke="black" stroke-width="1" fill="none" />
<polyline points="366.5,510.5,363.5,507.5,359.5,511.5,354.0,506.0" stroke="black" stroke-width="1" fill="none" />
<polyline points="351.5,511.5,351.5,511.5,350.0,510.0,348.0,508.0,347.5,507.5,347.0,507.0" stroke="black" stroke-width="1" fill="none" />
<polyline points="343.5,511.5,341.0,509.0,337.0,505.0,336.0,504.0" stroke="black" stroke-width="1" fill="none" />
<polyline points="326.0,510.0,325.5,509.5" stroke="black" stroke-width="1" fill="none" />
<polyline points="317.5,498.5,318.0,498.0,317.0,501.0,313.0,497.0,309.0,501.0,312.0,504.0,308.0,508.0,304.0,504.0,300.0,508.0,303.0,511.0" stroke="black" stroke-width="1" fill="none" />
<polyline points="295.5,511.5,295.0,511.0" stroke="black" stroke-width="1" fill="none" />
<polyline points="318.0,494.0,321.5,497.5,321.5,494.5,325.5,490.5,326.5,489.5,327.5,488.5,329.0,487.0,329.5,486.5,326.5,486.5,330.5,490.5" stroke="black" stroke-width="1" fill="none" />
<polyline points="326.0,494.0,322.5,490.5" stroke="black" stroke-width="1" fill="none" />
<polyline points="331.5,483.5,335.0,487.0" stroke="black" stroke-width="1" fill="none" />
<polyline points="339.5,483.5,336.0,480.0" stroke="black" stroke-width="1" fill="none" />
<polyline points="340.5,476.5,344.0,480.0" stroke="black" stroke-width="1" fill="none" />
<polyline points="348.5,476.5,345.5,473.5,349.5,469.5,353.5,473.5,353.0,471.0,354.0,470.0,355.0,469.0,359.0,465.0,360.5,463.5,361.5,462.5,363.0,461.0,363.5,460.5,363.0,459.0,366.5,462.5,365.0,459.0,365.5,458.5,367.5,455.5,371.5,459.5" stroke="black" stroke-width="1" fill="none" />
<polyline points="376.0,456.0,372.5,452.5" stroke="black" stroke-width="1" fill="none" />
<polyline points="376.0,448.0,380.5,452.5,384.5,448.5,381.5,445.5" stroke="black" stroke-width="1" fill="none" />
<polyline points="386.0,442.0,389.5,445.5,389.0,443.0,390.0,442.0,391.0,441.0,392.5,439.5,394.0,438.0,394.5,437.5,395.0,435.0,398.5,438.5" stroke="black" stroke-width="1" fill="none" />
<polyline points="393.5,441.5,390.5,438.5" stroke="black" stroke-width="1" fill="none" />
<polyline points="399.5,431.5,403.0,435.0" stroke="black" stroke-width="1" fill="none" />
<polyline points="407.5,431.5,403.5,427.5" stroke="black" stroke-width="1" fill="none" />
<polyline points="409.0,425.0,411.5,427.5" stroke="black" stroke-width="1" fill="none" />
<polyline points="416.0,424.0,413.0,421.0" stroke="black" stroke-width="1" fill="none" />
<polyline points="418.0,418.0,420.5,420.5" stroke="black" stroke-width="1" fill="none" />
<polyline points="425.0,417.0,422.5,414.5,425.5,414.5,426.0,414.0,427.0,413.0,428.5,411.5,427.0,411.0,429.5,413.5" stroke="black" stroke-width="1" fill="none" />
<polyline points="434.0,410.0,432.0,408.0" stroke="black" stroke-width="1" fill="none" />
<polyline points="435.5,403.5,438.5,406.5" stroke="black" stroke-width="1" fill="none" />
<polyline points="443.5,403.5,440.5,400.5" stroke="black" stroke-width="1" fill="none" />
<polyline points="445.0,397.0,447.5,399.5" stroke="black" stroke-width="1" fill="none" />
<polyline points="452.0,396.0,450.0,394.0" stroke="black" stroke-width="1" fill="none" />
<polyline points="456.0,393.5,456.0,511.5" stroke="black" stroke-width="1" fill="none" />
<polyline points="444.5,468.5,443.5,467.5" stroke="black" stroke-width="1" fill="none" />
<polyline points="480.0,429.5,480.0,511.5" stroke="black" stroke-width="1" fill="none" />
<polyline points="472.0,511.5,472.0,418.0" stroke="black" stroke-width="1" fill="none" />
<polyline points="464.0,405.5,464.0,511.5" stroke="black" stroke-width="1" fill="none" />
<polyline points="360.5,471.5,359.0,473.0,356.0,476.0,355.5,475.5" stroke="black" stroke-width="1" fill="none" />
<polyline points="352.0,464.0,353.5,462.5,350.0,462.0,367.5,479.5" stroke="black" stroke-width="1" fill="none" />
<polyline points="362.5,466.5,358.5,462.5" stroke="black" stroke-width="1" fill="none" />
<polyline points="350.0,458.0,349.5,458.5,347.5,459.5,348.5,460.5,347.0,459.0,346.0,458.0,346.0,454.0,347.5,452.5,348.0,452.0,348.5,452.5,349.0,453.0,350.0,454.0" stroke="black" stroke-width="1" fill="none" />
<polyline points="339.5,444.5,340.5,443.5" stroke="black" stroke-width="1" fill="none" />
<polyline points="345.5,449.5,333.0,437.0,333.5,434.5,334.5,433.5" stroke="black" stroke-width="1" fill="none" />
<polyline points="326.5,425.5,327.5,424.5,328.0,424.0,328.5,424.5,327.5,423.5,320.0,416.0,321.0,415.0,321.5,414.5,318.0,414.0,316.5,412.5" stroke="black" stroke-width="1" fill="none" />
<polyline points="314.0,406.0,314.5,405.5,315.0,403.0,313.0,401.0,311.5,399.5,311.0,399.0,309.5,397.5,304.5,392.5" stroke="black" stroke-width="1" fill="none" />
<polyline points="297.5,377.5,295.5,375.5,294.5,374.5,293.0,373.0,292.0,372.0,290.0,370.0,289.0,369.0,287.5,367.5" stroke="black" stroke-width="1" fill="none" />
<polyline points="275.5,348.5,276.5,347.5,275.5,347.5,280.0,352.0" stroke="black" stroke-width="1" fill="none" />
<polyline points="272.0,345.5,272.0,511.5" stroke="black" stroke-width="1" fill="none" />
<polyline points="320.0,511.5,320.0,265.5,320.0,265.0,320.0,261.0,320.0,260.5,320.0,260.0" stroke="black" stroke-width="1" fill="none" />
<polyline points="312.0,264.5,312.0,511.5" stroke="black" stroke-width="1" fill="none" />
<polyline points="400.0,511.5,400.0,312.5" stroke="black" stroke-width="1" fill="none" />
<polyline points="392.0,301.0,392.0,511.5" stroke="black" stroke-width="1" fill="none" />
<polyline points="448.0,511.5,448.0,383.0" stroke="black" stroke-width="1" fill="none" />
<polyline points="440.0,370.5,440.0,511.5" stroke="black" stroke-width="1" fill="none" />
<polyline points="432.0,511.5,432.0,359.0" stroke="black" stroke-width="1" fill="none" />
<polyline points="424.0,347.5,424.0,511.5" stroke="black" stroke-width="1" fill="none" />
<polyline points="416.0,511.5,416.0,335.5" stroke="black" stroke-width="1" fill="none" />
<polyline points="416.0,288.0,416.0,211.0,416.0,209.0,416.0,206.5" stroke="black" stroke-width="1" fill="none" />
<polyline points="425.5,209.5,426.5,210.5" stroke="black" stroke-width="1" fill="none" />
<polyline points="432.0,208.0,432.5,208.5,433.0,209.0,435.0,211.0,439.0,207.0,415.0,183.0" stroke="black" stroke-width="1" fill="none" />
<polyline points="410.5,186.5,422.0,198.0,423.0,199.0,424.0,200.0" stroke="black" stroke-width="1" fill="none" />
<polyline points="430.0,194.0,431.0,193.0,432.0,193.0,432.0,215.5,432.0,218.5,432.0,229.0" stroke="black" stroke-width="1" fill="none" />
<polyline points="440.0,244.0,440.0,266.5" stroke="black" stroke-width="1" fill="none" />
<polyline points="431.5,255.5,427.0,251.0" stroke="black" stroke-width="1" fill="none" />
<polyline points="407.0,257.0,401.5,262.5" stroke="black" stroke-width="1" fill="none" />
<polyline points="398.5,257.5,403.5,252.5,406.0,250.0,413.5,242.5" stroke="black" stroke-width="1" fill="none" />
<polyline points="412.0,236.0,403.0,245.0,401.0,247.0,395.0,253.0" stroke="black" stroke-width="1" fill="none" />
<polyline points="391.5,248.5,397.5,242.5,399.0,241.0,408.0,232.0" stroke="black" stroke-width="1" fill="none" />
<polyline points="402.5,229.5,396.5,235.5,394.0,238.0,387.5,244.5,387.0,243.0,389.5,245.5" stroke="black" stroke-width="1" fill="none" />
<polyline points="381.5,242.5,378.0,246.0" stroke="black" stroke-width="1" fill="none" />
<polyline points="375.5,240.5,378.0,238.0,376.0,234.5,376.0,245.0" stroke="black" stroke-width="1" fill="none" />
<polyline points="382.0,234.0,388.0,228.0,389.0,227.0,401.0,215.0,400.0,211.0,400.0,262.0,395.0,261.0,391.0,265.0" stroke="black" stroke-width="1" fill="none" />
<polyline points="400.0,270.0,400.0,280.0,404.0,284.0,407.0,281.0,406.0,278.0,405.5,277.5" stroke="black" stroke-width="1" fill="none" />
<polyline points="411.5,276.5,417.0,271.0" stroke="black" stroke-width="1" fill="none" />
<polyline points="407.0,271.0,405.5,269.5,401.0,271.0,397.5,274.5" stroke="black" stroke-width="1" fill="none" />
<polyline points="408.0,277.5,408.0,222.0,409.0,225.0,411.5,227.5" stroke="black" stroke-width="1" fill="none" />
<polyline points="408.0,219.0,408.0,218.5" stroke="black" stroke-width="1" fill="none" />
<polyline points="394.0,206.0,383.0,217.0,382.0,218.0,375.5,224.5,376.0,228.5,376.0,230.0" stroke="black" stroke-width="1" fill="none" />
<polyline points="363.0,205.0,368.5,199.5,370.5,197.5,380.0,188.0,383.5,191.5,390.0,198.0" stroke="black" stroke-width="1" fill="none" />
<polyline points="386.5,186.5,380.0,180.0" stroke="black" stroke-width="1" fill="none" />
<polyline points="374.5,185.5,367.5,192.5,365.0,195.0,362.0,198.0,361.5,198.5,359.0,201.0,357.5,200.0,438.5,200.0,437.0,203.0,436.5,203.5,440.0,205.5,440.0,243.0" stroke="black" stroke-width="1" fill="none" />
<polyline points="413.5,237.5,326.5,150.5,325.5,152.0,406.0,152.0,409.0,152.0,412.0,152.0,412.5,152.0,511.5,152.0" stroke="black" stroke-width="1" fill="none" />
<polyline points="511.5,87.5,424.0,0.0,424.0,0.0,424.0,114.0" stroke="black" stroke-width="1" fill="none" />
<polyline points="416.0,104.0,416.0,102.5" stroke="black" stroke-width="1" fill="none" />
<polyline points="386.5,125.5,385.0,127.0,384.0,122.0,384.0,157.5" stroke="black" stroke-width="1" fill="none" />
<polyline points="376.0,149.0,376.0,226.5" stroke="black" stroke-width="1" fill="none" />
<polyline points="350.0,202.0,352.5,199.5" stroke="black" stroke-width="1" fill="none" />
<polyline points="360.0,203.0,360.0,129.0" stroke="black" stroke-width="1" fill="none" />
<polyline points="350.0,138.0,338.5,149.5,336.5,151.5,331.0,157.0,328.0,160.0,328.0,172.0,327.0,169.0,330.5,165.5" stroke="black" stroke-width="1" fill="none" />
<polyline points="327.5,160.5,324.0,164.0" stroke="black" stroke-width="1" fill="none" />
<polyline points="317.5,154.5,321.5,150.5,320.0,149.5,320.0,160.5" stroke="black" stroke-width="1" fill="none" />
<polyline points="314.5,149.5,317.5,146.5,321.0,143.0,326.5,137.5,329.0,135.0,337.5,126.5,339.0,123.0,345.0,129.0,340.5,131.5,332.0,140.0,330.5,141.5,324.5,147.5,324.5,148.5,325.0,149.0" stroke="black" stroke-width="1" fill="none" />
<polyline points="318.0,138.0,335.0,121.0" stroke="black" stroke-width="1" fill="none" />
<polyline points="330.5,117.5,315.0,133.0,314.5,136.0,395.0,136.0,396.5,136.0,511.5,136.0" stroke="black" stroke-width="1" fill="none" />
<polyline points="511.5,95.5,416.0,0.0,416.0,0.0,416.0,101.5" stroke="black" stroke-width="1" fill="none" />
<polyline points="383.5,120.5,383.0,121.0" stroke="black" stroke-width="1" fill="none" />
<polyline points="379.5,115.5,375.0,111.0,376.0,109.5,376.0,144.5" stroke="black" stroke-width="1" fill="none" />
<polyline points="378.0,138.0,377.0,137.0" stroke="black" stroke-width="1" fill="none" />
<polyline points="382.5,134.5,384.5,136.5" stroke="black" stroke-width="1" fill="none" />
<polyline points="390.0,134.0,391.0,135.0,392.0,133.0,392.0,169.5,392.0,173.0,392.0,250.5" stroke="black" stroke-width="1" fill="none" />
<polyline points="368.0,264.5,368.0,273.0" stroke="black" stroke-width="1" fill="none" />
<polyline points="362.0,274.0,361.5,273.5,360.0,270.5,360.0,278.0,360.0,279.0,360.0,280.0,360.0,285.5,360.0,286.5,360.0,288.0,360.0,511.5" stroke="black" stroke-width="1" fill="none" />
<polyline points="384.0,511.5,384.0,296.5,384.0,296.0,384.0,294.5,384.0,292.0,384.0,288.5" stroke="black" stroke-width="1" fill="none" />
<polyline points="376.0,292.0,376.0,511.5" stroke="black" stroke-width="1" fill="none" />
<polyline points="368.0,511.5,368.0,294.5,368.0,292.5,368.0,288.0" stroke="black" stroke-width="1" fill="none" />
<polyline points="376.0,284.0,376.0,282.0,376.0,278.5,376.0,276.5" stroke="black" stroke-width="1" fill="none" />
<polyline points="352.0,277.0,352.0,284.5,352.0,286.0,352.0,287.0,352.0,288.0,352.0,511.5" stroke="black" stroke-width="1" fill="none" />
<polyline points="344.0,511.5,344.0,292.0,343.0,287.0,342.5,286.5,344.0,291.5,344.0,281.0" stroke="black" stroke-width="1" fill="none" />
<polyline points="336.0,282.0,336.0,511.5" stroke="black" stroke-width="1" fill="none" />
<polyline points="328.0,511.5,328.0,273.0" stroke="black" stroke-width="1" fill="none" />
<polyline points="336.0,264.5,336.0,264.0" stroke="black" stroke-width="1" fill="none" />
<polyline points="333.0,293.0,334.0,294.0" stroke="black" stroke-width="1" fill="none" />
<polyline points="324.5,300.5,323.0,299.0" stroke="black" stroke-width="1" fill="none" />
<polyline points="315.5,307.5,313.5,305.5" stroke="black" stroke-width="1" fill="none" />
<polyline points="305.5,313.5,304.5,312.5" stroke="black" stroke-width="1" fill="none" />
<polyline points="300.0,316.0,301.0,317.0" stroke="black" stroke-width="1" fill="none" />
<polyline points="296.0,320.0,295.0,319.0" stroke="black" stroke-width="1" fill="none" />
<polyline points="291.5,323.5,290.0,322.0" stroke="black" stroke-width="1" fill="none" />
<polyline points="285.5,325.5,287.0,327.0" stroke="black" stroke-width="1" fill="none" />
<polyline points="282.0,330.0,280.5,328.5,280.0,325.5,280.0,511.5" stroke="black" stroke-width="1" fill="none" />
<polyline points="304.0,511.5,304.0,239.0,304.0,238.0,304.0,237.0,304.0,235.5,304.0,234.5" stroke="black" stroke-width="1" fill="none" />
<polyline points="312.0,232.5,312.0,231.0" stroke="black" stroke-width="1" fill="none" />
<polyline points="312.0,240.0,312.0,244.5,312.0,245.0,312.0,261.5" stroke="black" stroke-width="1" fill="none" />
<polyline points="304.0,230.5,304.0,225.0,304.0,221.5,304.0,221.0" stroke="black" stroke-width="1" fill="none" />
<polyline points="296.0,211.0,296.0,511.5" stroke="black" stroke-width="1" fill="none" />
<polyline points="288.0,511.5,288.0,142.5,288.0,144.0,286.0,142.0" stroke="black" stroke-width="1" fill="none" />
<polyline points="281.5,145.5,283.0,147.0" stroke="black" stroke-width="1" fill="none" />
<polyline points="273.0,153.0,272.5,152.5" stroke="black" stroke-width="1" fill="none" />
<polyline points="263.5,159.5,262.5,158.5" stroke="black" stroke-width="1" fill="none" />
<polyline points="253.5,165.5,252.5,164.5,248.5,168.5,247.5,167.5,243.5,171.5,242.5,170.5" stroke="black" stroke-width="1" fill="none" />
<polyline points="239.0,175.0,237.5,173.5" stroke="black" stroke-width="1" fill="none" />
<polyline points="233.0,177.0,234.0,178.0" stroke="black" stroke-width="1" fill="none" />
<polyline points="229.5,181.5,228.0,180.0" stroke="black" stroke-width="1" fill="none" />
<polyline points="219.5,187.5,217.5,185.5" stroke="black" stroke-width="1" fill="none" />
<polyline points="213.0,189.0,214.0,190.0" stroke="black" stroke-width="1" fill="none" />
<polyline points="209.5,193.5,208.0,192.0" stroke="black" stroke-width="1" fill="none" />
<polyline points="203.5,195.5,205.0,197.0" stroke="black" stroke-width="1" fill="none" />
<polyline points="199.5,199.5,198.5,198.5" stroke="black" stroke-width="1" fill="none" />
<polyline points="193.5,201.5,195.5,203.5" stroke="black" stroke-width="1" fill="none" />
<polyline points="190.0,206.0,188.5,204.5,184.5,207.5,184.0,208.0,183.0,207.0,186.0,210.0,186.5,213.5,185.5,214.5" stroke="black" stroke-width="1" fill="none" />
<polyline points="188.0,220.0,191.0,223.0,191.5,223.5,198.5,230.5,199.5,232.5,198.5,233.5" stroke="black" stroke-width="1" fill="none" />
<polyline points="205.0,245.0,208.0,248.0,208.5,248.5,215.0,255.0,212.0,252.0,211.0,253.0" stroke="black" stroke-width="1" fill="none" />
<polyline points="222.5,270.5,228.0,276.0,229.5,277.5,230.5,278.5,231.5,279.5,232.0,280.0" stroke="black" stroke-width="1" fill="none" />
<polyline points="224.0,272.0,225.0,271.0" stroke="black" stroke-width="1" fill="none" />
<polyline points="238.0,290.0,237.0,291.0,235.5,291.5,236.5,292.5,240.0,296.0,245.0,301.0" stroke="black" stroke-width="1" fill="none" />
<polyline points="250.5,309.5,249.5,310.5" stroke="black" stroke-width="1" fill="none" />
<polyline points="252.0,316.0,255.0,319.0,256.0,320.0,262.0,326.0,263.5,328.5,262.5,329.5" stroke="black" stroke-width="1" fill="none" />
<polyline points="271.0,335.0,273.0,337.0" stroke="black" stroke-width="1" fill="none" />
<polyline points="263.0,343.0,261.5,341.5,257.5,345.5,258.5,346.5" stroke="black" stroke-width="1" fill="none" />
<polyline points="254.0,350.0,252.0,348.0" stroke="black" stroke-width="1" fill="none" />
<polyline points="243.0,355.0,245.0,357.0" stroke="black" stroke-width="1" fill="none" />
<polyline points="239.0,359.0,238.5,358.5" stroke="black" stroke-width="1" fill="none" />
<polyline points="235.0,363.0,233.5,361.5" stroke="black" stroke-width="1" fill="none" />
<polyline points="230.0,366.0,228.5,364.5" stroke="black" stroke-width="1" fill="none" />
<polyline points="224.0,368.0,225.5,369.5" stroke="black" stroke-width="1" fill="none" />
<polyline points="220.5,372.5,219.5,371.5,215.5,375.5,216.0,376.0" stroke="black" stroke-width="1" fill="none" />
<polyline points="211.0,379.0,209.5,377.5,205.5,381.5,206.0,382.0,208.0,386.5,208.0,397.5,208.0,399.0,208.0,402.0,208.0,404.0,208.0,416.0,208.0,419.0,208.0,420.5,208.0,422.5,208.0,429.0,208.0,431.5,208.0,434.0,208.0,437.5,208.0,439.5,208.0,442.0,208.0,449.0,208.0,450.0,208.0,453.0,208.0,456.0,208.0,459.0,208.0,462.5,208.0,465.5,208.0,467.5,208.0,473.0" stroke="black" stroke-width="1" fill="none" />
<polyline points="216.0,473.5,216.0,468.0" stroke="black" stroke-width="1" fill="none" />
<polyline points="216.0,475.5,216.0,482.0,216.0,485.0,216.0,489.0,216.0,491.5,216.0,492.0,216.0,493.5,216.0,502.0,216.0,503.5,216.0,505.0" stroke="black" stroke-width="1" fill="none" />
<polyline points="208.0,505.0,208.0,504.0,208.0,500.5,208.0,500.0,208.0,495.0,208.0,490.5" stroke="black" stroke-width="1" fill="none" />
<polyline points="224.0,495.0,224.0,511.5" stroke="black" stroke-width="1" fill="none" />
<polyline points="248.0,511.5,248.0,82.5" stroke="black" stroke-width="1" fill="none" />
<polyline points="240.0,70.5,240.0,511.5" stroke="black" stroke-width="1" fill="none" />
<polyline points="264.0,511.5,264.0,107.5" stroke="black" stroke-width="1" fill="none" />
<polyline points="272.0,118.0,272.0,344.5" stroke="black" stroke-width="1" fill="none" />
<polyline points="280.0,324.0,280.0,226.5" stroke="black" stroke-width="1" fill="none" />
<polyline points="304.0,196.5,304.0,194.0,304.0,191.0,304.0,168.5" stroke="black" stroke-width="1" fill="none" />
<polyline points="312.0,180.5,312.0,183.0" stroke="black" stroke-width="1" fill="none" />
<polyline points="320.0,192.5,320.0,196.0" stroke="black" stroke-width="1" fill="none" />
<polyline points="328.0,206.5,328.0,207.0" stroke="black" stroke-width="1" fill="none" />
<polyline points="352.0,192.0,352.0,112.0" stroke="black" stroke-width="1" fill="none" />
<polyline points="359.0,111.0,375.0,127.0" stroke="black" stroke-width="1" fill="none" />
<polyline points="371.0,115.0,387.5,131.5" stroke="black" stroke-width="1" fill="none" />
<polyline points="395.0,139.0,396.5,140.5,396.0,140.0,396.5,139.5" stroke="black" stroke-width="1" fill="none" />
<polyline points="400.0,145.5,400.0,181.5,400.0,185.0,400.0,186.0,400.0,187.5,400.0,201.0" stroke="black" stroke-width="1" fill="none" />
<polyline points="408.0,199.0,408.0,213.0" stroke="black" stroke-width="1" fill="none" />
<polyline points="433.0,199.0,434.0,198.0" stroke="black" stroke-width="1" fill="none" />
<polyline points="444.0,208.0,0.0,208.0" stroke="black" stroke-width="1" fill="none" />
<polyline points="0.0,200.0,354.5,200.0" stroke="black" stroke-width="1" fill="none" />
<polyline points="340.5,171.5,346.0,166.0,348.5,163.5,359.5,152.5" stroke="black" stroke-width="1" fill="none" />
<polyline points="356.5,147.5,344.5,159.5,343.0,161.0,337.5,166.5,336.0,168.0,417.0,168.0,419.0,168.0,422.0,168.0,425.0,168.0,425.5,168.0,426.5,168.0,511.5,168.0" stroke="black" stroke-width="1" fill="none" />
<polyline points="511.5,103.5,408.0,0.0,408.0,0.0,408.0,92.0" stroke="black" stroke-width="1" fill="none" />
<polyline points="373.5,106.5,372.5,107.5" stroke="black" stroke-width="1" fill="none" />
<polyline points="370.0,102.0,371.0,101.0,367.5,103.5,373.5,109.5" stroke="black" stroke-width="1" fill="none" />
<polyline points="369.0,113.0,370.5,114.5" stroke="black" stroke-width="1" fill="none" />
<polyline points="366.0,110.0,363.0,107.0" stroke="black" stroke-width="1" fill="none" />
<polyline points="367.5,87.5,338.5,58.5,340.5,59.5,400.0,0.0,400.0,0.0,400.0,83.5" stroke="black" stroke-width="1" fill="none" />
<polyline points="362.0,78.0,357.0,83.0,352.0,81.5,352.0,109.0" stroke="black" stroke-width="1" fill="none" />
<polyline points="342.0,110.0,339.5,107.5" stroke="black" stroke-width="1" fill="none" />
<polyline points="331.5,107.5,342.5,118.5" stroke="black" stroke-width="1" fill="none" />
<polyline points="323.0,101.0,305.5,118.5,304.0,117.5,304.0,0.0,304.0,0.0,382.5,78.5" stroke="black" stroke-width="1" fill="none" />
<polyline points="354.0,78.0,432.0,0.0" stroke="black" stroke-width="1" fill="none" />
<polyline points="424.0,0.0,350.0,74.0" stroke="black" stroke-width="1" fill="none" />
<polyline points="347.0,69.0,416.0,0.0" stroke="black" stroke-width="1" fill="none" />
<polyline points="408.0,0.0,344.0,64.0" stroke="black" stroke-width="1" fill="none" />
<polyline points="337.0,55.0,392.0,0.0,392.0,0.0,392.0,74.5,392.5,72.5,320.0,0.0,320.0,0.0,320.0,144.5" stroke="black" stroke-width="1" fill="none" />
<polyline points="314.5,141.5,311.5,144.5,312.0,148.5,312.0,138.0,306.5,138.5,305.5,137.5,305.0,135.0,308.0,132.0" stroke="black" stroke-width="1" fill="none" />
<polyline points="304.5,127.5,301.5,130.5" stroke="black" stroke-width="1" fill="none" />
<polyline points="298.5,125.5,302.0,122.0,304.0,122.5,304.0,136.0" stroke="black" stroke-width="1" fill="none" />
<polyline points="308.0,124.0,305.5,121.5,303.5,120.0,511.5,120.0" stroke="black" stroke-width="1" fill="none" />
<polyline points="511.5,111.5,400.0,0.0" stroke="black" stroke-width="1" fill="none" />
<polyline points="392.0,0.0,511.5,119.5" stroke="black" stroke-width="1" fill="none" />
<polyline points="511.5,127.5,384.0,0.0,384.0,0.0,384.0,79.0,387.5,75.5,312.0,0.0,312.0,0.0,312.0,130.0" stroke="black" stroke-width="1" fill="none" />
<polyline points="302.0,114.0,318.5,97.5" stroke="black" stroke-width="1" fill="none" />
<polyline points="316.0,92.0,298.5,109.5,296.0,113.0,296.0,124.0,295.5,120.5,298.5,117.5" stroke="black" stroke-width="1" fill="none" />
<polyline points="295.0,113.0,292.5,115.5,290.5,114.5,307.0,131.0" stroke="black" stroke-width="1" fill="none" />
<polyline points="294.0,110.0,275.5,91.5,276.0,92.0,279.0,89.0,280.0,89.5,280.0,100.0,282.5,101.5,285.5,98.5,286.5,97.5,287.0,97.0,288.5,95.5,309.0,75.0" stroke="black" stroke-width="1" fill="none" />
<polyline points="315.0,85.0,295.0,105.0,292.5,107.5,289.0,111.0" stroke="black" stroke-width="1" fill="none" />
<polyline points="286.0,106.0,289.5,102.5,288.0,102.0,288.0,112.5" stroke="black" stroke-width="1" fill="none" />
<polyline points="291.5,100.5,312.0,80.0" stroke="black" stroke-width="1" fill="none" />
<polyline points="305.5,70.5,285.0,91.0,282.5,93.5,279.5,96.5" stroke="black" stroke-width="1" fill="none" />
<polyline points="279.5,87.5,278.5,86.5,280.0,85.5,280.0,87.5,283.0,85.0,302.0,66.0" stroke="black" stroke-width="1" fill="none" />
<polyline points="300.0,60.0,279.5,80.5,276.5,83.5,273.0,87.0" stroke="black" stroke-width="1" fill="none" />
<polyline points="270.0,82.0,273.0,79.0,272.0,75.5,272.0,88.0" stroke="black" stroke-width="1" fill="none" />
<polyline points="267.0,77.0,270.0,74.0,274.5,74.5,368.5,168.5" stroke="black" stroke-width="1" fill="none" />
<polyline points="360.0,152.0,258.5,50.5,260.0,52.0,278.5,33.5,281.5,33.5,299.5,51.5" stroke="black" stroke-width="1" fill="none" />
<polyline points="296.0,56.0,276.5,75.5" stroke="black" stroke-width="1" fill="none" />
<polyline points="273.5,70.5,290.5,53.5,293.5,53.5,300.5,60.5" stroke="black" stroke-width="1" fill="none" />
<polyline points="287.5,48.5,270.0,66.0,266.5,69.5,263.5,72.5" stroke="black" stroke-width="1" fill="none" />
<polyline points="260.5,67.5,264.0,64.0,264.0,64.0,264.0,76.0" stroke="black" stroke-width="1" fill="none" />
<polyline points="266.0,66.0,264.5,64.5,267.0,61.0,285.0,43.0" stroke="black" stroke-width="1" fill="none" />
<polyline points="281.5,38.5,263.0,57.0,260.5,59.5,257.0,63.0,258.5,66.5,277.0,85.0" stroke="black" stroke-width="1" fill="none" />
<polyline points="290.5,98.5,383.0,191.0" stroke="black" stroke-width="1" fill="none" />
<polyline points="408.0,193.0,408.0,182.5" stroke="black" stroke-width="1" fill="none" />
<polyline points="416.0,170.5,416.0,205.0" stroke="black" stroke-width="1" fill="none" />
<polyline points="433.0,192.0,0.0,192.0" stroke="black" stroke-width="1" fill="none" />
<polyline points="0.0,184.0,344.0,184.0" stroke="black" stroke-width="1" fill="none" />
<polyline points="338.5,170.5,338.0,170.0" stroke="black" stroke-width="1" fill="none" />
<polyline points="296.0,155.5,296.0,189.0,296.0,190.0,296.0,209.5" stroke="black" stroke-width="1" fill="none" />
<polyline points="280.0,226.0,280.0,130.5" stroke="black" stroke-width="1" fill="none" />
<polyline points="296.0,108.5,296.0,0.0" stroke="black" stroke-width="1" fill="none" />
<polyline points="301.5,2.5,304.0,0.0" stroke="black" stroke-width="1" fill="none" />
<polyline points="305.0,7.0,312.0,0.0" stroke="black" stroke-width="1" fill="none" />
<polyline points="320.0,0.0,308.0,12.0,304.5,8.5,377.5,81.5" stroke="black" stroke-width="1" fill="none" />
<polyline points="372.0,84.0,314.0,26.0,317.5,26.5,344.0,0.0" stroke="black" stroke-width="1" fill="none" />
<polyline points="352.0,0.0,352.0,80.0" stroke="black" stroke-width="1" fill="none" />
<polyline points="331.0,91.0,329.5,89.5" stroke="black" stroke-width="1" fill="none" />
<polyline points="326.0,94.0,328.5,96.5" stroke="black" stroke-width="1" fill="none" />
<polyline points="333.0,61.0,331.0,59.0,328.5,56.5,327.5,55.5,330.5,53.5,333.0,51.0,334.0,50.0,384.0,0.0" stroke="black" stroke-width="1" fill="none" />
<polyline points="376.0,0.0,376.0,83.5" stroke="black" stroke-width="1" fill="none" />
<polyline points="336.5,56.5,319.5,39.5,318.5,38.5,318.0,38.0,321.5,38.5,360.0,0.0,360.0,0.0,360.0,128.0" stroke="black" stroke-width="1" fill="none" />
<polyline points="334.5,118.5,245.5,29.5,244.5,27.5,264.0,8.0,268.0,12.0,247.5,32.5,245.0,37.0,246.0,38.0,247.0,41.0,244.0,44.0,243.0,43.0,262.0,62.0" stroke="black" stroke-width="1" fill="none" />
<polyline points="256.5,55.5,254.0,58.0" stroke="black" stroke-width="1" fill="none" />
<polyline points="250.5,53.5,253.5,50.5,256.0,51.5,256.0,64.0" stroke="black" stroke-width="1" fill="none" />
<polyline points="257.5,46.5,277.0,27.0,279.5,23.5,284.0,28.0,288.0,32.0,299.0,43.0" stroke="black" stroke-width="1" fill="none" />
<polyline points="308.0,36.0,326.5,54.5" stroke="black" stroke-width="1" fill="none" />
<polyline points="327.5,48.5,376.0,0.0,376.0,0.0,511.5,135.5" stroke="black" stroke-width="1" fill="none" />
<polyline points="511.5,143.5,368.0,0.0,368.0,0.0,368.0,88.5" stroke="black" stroke-width="1" fill="none" />
<polyline points="328.5,64.5,324.5,60.5" stroke="black" stroke-width="1" fill="none" />
<polyline points="324.5,43.5,368.0,0.0" stroke="black" stroke-width="1" fill="none" />
<polyline points="360.0,0.0,511.5,151.5" stroke="black" stroke-width="1" fill="none" />
<polyline points="511.5,159.5,352.0,0.0,352.0,0.0,319.0,33.0" stroke="black" stroke-width="1" fill="none" />
<polyline points="314.5,21.5,336.0,0.0" stroke="black" stroke-width="1" fill="none" />
<polyline points="328.0,0.0,311.5,16.5" stroke="black" stroke-width="1" fill="none" />
<polyline points="295.0,31.0,294.5,30.5" stroke="black" stroke-width="1" fill="none" />
<polyline points="288.0,24.0,287.5,23.5,286.0,22.0,283.0,19.0" stroke="black" stroke-width="1" fill="none" />
<polyline points="274.5,21.5,254.0,42.0,250.5,42.5,250.0,42.0,248.0,42.0,248.0,52.0,247.5,48.5,250.0,46.0" stroke="black" stroke-width="1" fill="none" />
<polyline points="250.5,37.5,270.5,17.5" stroke="black" stroke-width="1" fill="none" />
<polyline points="261.5,2.5,241.5,22.5,241.0,25.0,241.5,25.5,240.0,25.5,240.0,27.5,240.0,30.0,240.0,40.0,241.0,39.0,243.5,36.5,242.5,34.5,226.5,18.5,228.5,19.5,231.5,16.5,232.0,15.0,232.0,28.5,234.5,29.5,237.5,26.5" stroke="black" stroke-width="1" fill="none" />
<polyline points="241.0,31.0,237.5,34.5" stroke="black" stroke-width="1" fill="none" />
<polyline points="242.0,42.0,242.5,42.5" stroke="black" stroke-width="1" fill="none" />
<polyline points="256.0,47.5,256.0,0.0,256.0,0.0,270.5,14.5" stroke="black" stroke-width="1" fill="none" />
<polyline points="272.0,0.0,272.0,70.5" stroke="black" stroke-width="1" fill="none" />
<polyline points="290.0,50.0,240.0,0.0,240.0,0.0,240.0,22.5,237.5,18.5,256.0,0.0" stroke="black" stroke-width="1" fill="none" />
<polyline points="248.0,0.0,248.0,36.5" stroke="black" stroke-width="1" fill="none" />
<polyline points="234.0,22.0,231.5,24.5" stroke="black" stroke-width="1" fill="none" />
<polyline points="234.5,13.5,237.0,11.0,237.5,10.5,248.0,0.0,248.0,0.0,278.0,30.0" stroke="black" stroke-width="1" fill="none" />
<polyline points="280.0,0.0,280.0,83.5" stroke="black" stroke-width="1" fill="none" />
<polyline points="288.0,97.5,288.0,0.0" stroke="black" stroke-width="1" fill="none" />
<polyline points="264.0,0.0,264.0,60.0" stroke="black" stroke-width="1" fill="none" />
<polyline points="232.0,58.5,232.0,335.5,232.0,337.0,232.0,397.0,232.0,399.0,232.0,511.5" stroke="black" stroke-width="1" fill="none" />
<polyline points="256.0,511.5,256.0,95.0" stroke="black" stroke-width="1" fill="none" />
<polyline points="224.0,47.0,224.0,477.0,224.0,480.0,224.0,494.5" stroke="black" stroke-width="1" fill="none" />
<polyline points="216.0,464.0,216.0,443.0,216.0,442.0,216.0,426.5,216.0,425.0,216.0,409.5,216.0,407.5,216.0,397.0,216.0,396.5,216.0,396.0,216.0,395.0,216.0,343.0,216.0,342.0,216.0,34.5" stroke="black" stroke-width="1" fill="none" />
<polyline points="208.0,22.0,208.0,346.0,208.0,347.5,208.0,384.5" stroke="black" stroke-width="1" fill="none" />
<polyline points="202.5,386.5,200.5,384.5" stroke="black" stroke-width="1" fill="none" />
<polyline points="200.0,393.0,200.0,396.0,200.0,398.0,200.0,405.0,200.0,408.0,200.0,410.5,200.0,415.0,200.0,420.0" stroke="black" stroke-width="1" fill="none" />
<polyline points="192.0,421.0,192.0,422.0,192.0,418.5,192.0,417.0,192.0,413.5,192.0,410.5,192.0,406.0,192.0,403.0,192.0,400.0,192.0,382.0" stroke="black" stroke-width="1" fill="none" />
<polyline points="191.0,391.0,192.5,392.5" stroke="black" stroke-width="1" fill="none" />
<polyline points="187.5,395.5,187.0,395.0,184.0,393.5,184.0,401.0,183.0,399.0,181.5,397.5" stroke="black" stroke-width="1" fill="none" />
<polyline points="176.0,399.0,176.0,407.5" stroke="black" stroke-width="1" fill="none" />
<polyline points="168.5,408.5,168.0,408.0,168.0,405.5,168.0,412.0" stroke="black" stroke-width="1" fill="none" />
<polyline points="160.0,410.5,160.0,415.5" stroke="black" stroke-width="1" fill="none" />
<polyline points="152.0,418.0,152.0,422.5" stroke="black" stroke-width="1" fill="none" />
<polyline points="144.0,424.5,144.0,428.5" stroke="black" stroke-width="1" fill="none" />
<polyline points="136.0,429.0,136.0,433.0,134.5,432.0,511.5,432.0" stroke="black" stroke-width="1" fill="none" />
<polyline points="511.5,504.0,183.0,504.0,185.0,505.0,189.5,509.5" stroke="black" stroke-width="1" fill="none" />
<polyline points="184.0,505.0,184.0,499.5" stroke="black" stroke-width="1" fill="none" />
<polyline points="177.5,496.0,511.5,496.0" stroke="black" stroke-width="1" fill="none" />
<polyline points="511.5,488.0,172.5,488.0,174.5,486.5,175.5,487.5,176.0,487.0,176.0,492.5,178.5,493.5,179.0,493.0" stroke="black" stroke-width="1" fill="none" />
<polyline points="172.5,484.5,169.0,481.0,168.0,480.5,168.0,475.0,167.0,480.0,511.5,480.0" stroke="black" stroke-width="1" fill="none" />
<polyline points="511.5,472.0,162.0,472.0,160.0,468.5,160.0,463.5,158.0,462.0,157.0,461.0,155.5,459.5,155.0,459.0,153.5,457.5,153.0,457.0,152.0,457.0,152.0,450.5,151.5,456.0,511.5,456.0" stroke="black" stroke-width="1" fill="none" />
<polyline points="511.5,464.0,156.0,464.0" stroke="black" stroke-width="1" fill="none" />
<polyline points="146.0,448.0,511.5,448.0" stroke="black" stroke-width="1" fill="none" />
<polyline points="511.5,440.0,140.5,440.0,141.0,437.0,139.5,435.5,144.0,438.0,144.0,445.0" stroke="black" stroke-width="1" fill="none" />
<polyline points="136.0,426.5,136.0,426.0" stroke="black" stroke-width="1" fill="none" />
<polyline points="130.0,424.0,511.5,424.0" stroke="black" stroke-width="1" fill="none" />
<polyline points="511.5,416.0,125.0,416.0,128.0,416.0,128.0,420.5" stroke="black" stroke-width="1" fill="none" />
<polyline points="124.0,412.0,122.0,410.0,120.0,408.5,120.0,403.5,119.0,408.0,511.5,408.0" stroke="black" stroke-width="1" fill="none" />
<polyline points="511.5,400.0,113.5,400.0,112.0,396.5,112.0,391.0,108.5,392.0,511.5,392.0" stroke="black" stroke-width="1" fill="none" />
<polyline points="511.5,384.0,103.5,384.0,106.0,386.0,108.5,388.5" stroke="black" stroke-width="1" fill="none" />
<polyline points="104.0,384.0,104.0,379.0,102.0,378.0,101.5,378.5,98.0,376.0,511.5,376.0" stroke="black" stroke-width="1" fill="none" />
<polyline points="511.5,368.0,92.5,368.0,95.0,367.0,92.5,364.5,91.5,363.5,89.0,361.0,88.0,360.5,88.0,355.5,86.0,354.0,85.5,354.5,82.0,352.0,511.5,352.0" stroke="black" stroke-width="1" fill="none" />
<polyline points="511.5,360.0,87.5,360.0" stroke="black" stroke-width="1" fill="none" />
<polyline points="96.0,367.0,96.0,372.5" stroke="black" stroke-width="1" fill="none" />
<polyline points="80.0,349.0,80.0,344.0,78.5,342.5,73.0,337.0,72.0,336.5,72.0,330.5" stroke="black" stroke-width="1" fill="none" />
<polyline points="70.5,336.0,511.5,336.0" stroke="black" stroke-width="1" fill="none" />
<polyline points="511.5,344.0,76.5,344.0,76.0,340.0,76.5,339.5" stroke="black" stroke-width="1" fill="none" />
<polyline points="66.0,328.0,511.5,328.0" stroke="black" stroke-width="1" fill="none" />
<polyline points="511.5,320.0,60.5,320.0,63.0,321.0,64.0,320.0,64.0,318.0,64.0,325.0" stroke="black" stroke-width="1" fill="none" />
<polyline points="62.5,318.5,56.0,312.0,56.5,311.5,57.0,311.0,55.0,312.0,430.5,312.0" stroke="black" stroke-width="1" fill="none" />
<polyline points="509.0,304.0,49.0,304.0,49.5,302.5,51.5,300.5,50.5,298.5,48.5,296.5,47.5,296.5,46.5,297.5,42.0,298.0,40.0,296.0,38.0,298.0,36.5,299.5,36.5,300.5,35.0,299.0,35.0,301.0,34.5,301.5,32.0,304.0,30.0,302.0" stroke="black" stroke-width="1" fill="none" />
<polyline points="25.5,305.5,27.0,307.0,24.0,309.0,24.0,304.5,24.0,300.5,24.0,298.0,24.0,297.5,24.0,0.0,24.0,0.0,44.0,20.0,44.5,20.5,59.0,35.0,60.0,36.0,62.0,38.0,63.0,39.0,66.0,42.0,66.5,42.5,94.5,70.5,90.5,69.5,89.5,70.5,88.0,72.0,89.0,73.0,92.5,76.5,105.5,89.5,103.0,89.0,102.0,90.0,102.5,94.5,103.5,95.5,104.5,96.5,107.5,99.5,108.0,100.0,117.5,109.5,118.5,110.5,121.0,113.0,122.5,117.5,121.5,118.5,121.5,121.5,132.5,132.5,135.5,136.5,134.5,137.5,138.5,141.5,137.5,142.5,139.0,147.0,149.5,157.5,148.0,156.0,147.5,156.5" stroke="black" stroke-width="1" fill="none" />
<polyline points="151.0,161.0,150.5,161.5" stroke="black" stroke-width="1" fill="none" />
<polyline points="156.5,172.5,164.5,180.5,165.0,181.0,166.5,182.5" stroke="black" stroke-width="1" fill="none" />
<polyline points="160.0,176.0,161.0,175.0" stroke="black" stroke-width="1" fill="none" />
<polyline points="171.0,195.0,172.0,196.0,173.0,195.0,174.0,194.0,174.5,198.5,180.0,204.0" stroke="black" stroke-width="1" fill="none" />
<polyline points="179.0,211.0,179.5,211.5" stroke="black" stroke-width="1" fill="none" />
<polyline points="175.0,215.0,173.5,213.5" stroke="black" stroke-width="1" fill="none" />
<polyline points="170.0,218.0,168.5,216.5" stroke="black" stroke-width="1" fill="none" />
<polyline points="165.0,221.0,163.5,219.5" stroke="black" stroke-width="1" fill="none" />
<polyline points="159.0,223.0,161.0,225.0" stroke="black" stroke-width="1" fill="none" />
<polyline points="155.5,227.5,154.0,226.0" stroke="black" stroke-width="1" fill="none" />
<polyline points="150.5,230.5,149.0,229.0" stroke="black" stroke-width="1" fill="none" />
<polyline points="145.5,233.5,144.0,232.0" stroke="black" stroke-width="1" fill="none" />
<polyline points="139.0,235.0,141.0,237.0" stroke="black" stroke-width="1" fill="none" />
<polyline points="135.5,239.5,134.0,238.0" stroke="black" stroke-width="1" fill="none" />
<polyline points="129.0,241.0,131.0,243.0" stroke="black" stroke-width="1" fill="none" />
<polyline points="126.5,246.5,124.5,244.5" stroke="black" stroke-width="1" fill="none" />
<polyline points="119.5,247.5,121.5,249.5" stroke="black" stroke-width="1" fill="none" />
<polyline points="116.5,252.5,114.5,250.5" stroke="black" stroke-width="1" fill="none" />
<polyline points="109.5,253.5,111.5,255.5" stroke="black" stroke-width="1" fill="none" />
<polyline points="106.5,258.5,104.5,256.5" stroke="black" stroke-width="1" fill="none" />
<polyline points="100.0,260.0,101.5,261.5,99.5,259.5,99.0,259.0" stroke="black" stroke-width="1" fill="none" />
<polyline points="94.5,262.5,97.0,265.0" stroke="black" stroke-width="1" fill="none" />
<polyline points="91.5,267.5,90.0,266.0" stroke="black" stroke-width="1" fill="none" />
<polyline points="87.0,271.0,84.5,268.5,80.5,272.5,82.0,274.0" stroke="black" stroke-width="1" fill="none" />
<polyline points="77.0,277.0,75.0,275.0" stroke="black" stroke-width="1" fill="none" />
<polyline points="71.5,279.5,70.0,278.0" stroke="black" stroke-width="1" fill="none" />
<polyline points="66.5,282.5,64.5,280.5,60.5,284.5,62.0,286.0" stroke="black" stroke-width="1" fill="none" />
<polyline points="57.0,289.0,55.0,287.0" stroke="black" stroke-width="1" fill="none" />
<polyline points="50.5,290.5,52.0,292.0" stroke="black" stroke-width="1" fill="none" />
<polyline points="56.0,297.0,56.0,298.0,56.0,298.5,56.0,299.5,56.0,300.0,56.0,300.5,56.0,305.5,56.0,313.0" stroke="black" stroke-width="1" fill="none" />
<polyline points="53.0,307.0,53.5,306.5" stroke="black" stroke-width="1" fill="none" />
<polyline points="45.0,293.0,37.5,285.5,36.5,284.5,36.0,284.0,37.0,283.0,38.0,282.0" stroke="black" stroke-width="1" fill="none" />
<polyline points="56.0,294.0,56.0,0.0,56.0,0.0,94.0,38.0,96.0,40.0,99.0,43.0,99.5,43.5,102.5,46.5,98.5,50.5,100.0,52.0,97.5,49.5,97.0,49.0,94.5,46.5,90.5,42.5,88.0,40.0,87.0,39.0,86.0,38.0,48.0,0.0,48.0,0.0,48.0,302.0" stroke="black" stroke-width="1" fill="none" />
<polyline points="72.0,307.5,72.0,309.5,72.0,312.0,72.0,313.0" stroke="black" stroke-width="1" fill="none" />
<polyline points="80.0,313.0,80.0,312.0,80.0,309.5,80.0,307.5,80.0,305.0,80.0,303.0" stroke="black" stroke-width="1" fill="none" />
<polyline points="88.0,301.5,88.0,306.0,88.0,306.5,88.0,312.0,88.0,314.0,88.0,315.5" stroke="black" stroke-width="1" fill="none" />
<polyline points="96.0,315.5,96.0,313.5" stroke="black" stroke-width="1" fill="none" />
<polyline points="96.0,320.0,96.0,322.0" stroke="black" stroke-width="1" fill="none" />
<polyline points="104.0,319.5,104.0,319.0,104.0,317.0,104.0,313.0" stroke="black" stroke-width="1" fill="none" />
<polyline points="112.0,311.0,112.0,323.0" stroke="black" stroke-width="1" fill="none" />
<polyline points="120.0,326.5,120.0,331.0" stroke="black" stroke-width="1" fill="none" />
<polyline points="128.0,330.5,128.0,330.0" stroke="black" stroke-width="1" fill="none" />
<polyline points="136.0,326.5,136.0,333.5,136.0,335.0,136.0,337.0" stroke="black" stroke-width="1" fill="none" />
<polyline points="144.0,337.5,144.0,342.5" stroke="black" stroke-width="1" fill="none" />
<polyline points="144.0,349.5,144.0,353.0" stroke="black" stroke-width="1" fill="none" />
<polyline points="152.0,357.0,152.0,358.5" stroke="black" stroke-width="1" fill="none" />
<polyline points="160.0,359.0,160.0,357.5,160.0,356.0,160.0,353.5,160.0,350.0,160.0,349.0,160.0,348.5,160.0,343.5,160.0,338.0,160.0,337.5,160.0,335.5,160.0,0.0,160.0,0.0,172.0,12.0,174.0,14.0,176.0,16.0,180.0,12.0,181.0,13.0" stroke="black" stroke-width="1" fill="none" />
<polyline points="185.5,9.5,176.0,0.0,176.0,0.0,176.0,297.5,176.0,298.0,176.0,327.5,176.0,329.0,176.0,334.0,176.0,337.0,176.0,341.5,176.0,342.0,176.0,359.5,176.0,363.5,176.0,365.0,176.0,369.0,176.0,373.5,176.0,377.5,176.0,386.0,176.0,390.5,176.0,391.5,176.0,393.0,176.0,394.0" stroke="black" stroke-width="1" fill="none" />
<polyline points="184.0,406.5,184.0,413.0" stroke="black" stroke-width="1" fill="none" />
<polyline points="184.0,422.0,184.0,424.0" stroke="black" stroke-width="1" fill="none" />
<polyline points="176.0,423.0,176.0,422.0" stroke="black" stroke-width="1" fill="none" />
<polyline points="192.0,440.0,192.0,441.0" stroke="black" stroke-width="1" fill="none" />
<polyline points="200.0,444.0,200.0,448.5,200.0,451.0,200.0,452.0" stroke="black" stroke-width="1" fill="none" />
<polyline points="200.0,437.5,200.0,435.0,200.0,433.0,200.0,431.5" stroke="black" stroke-width="1" fill="none" />
<polyline points="200.0,472.0,200.0,473.0" stroke="black" stroke-width="1" fill="none" />
<polyline points="200.0,391.5,200.0,337.0,200.0,335.0,200.0,10.0" stroke="black" stroke-width="1" fill="none" />
<polyline points="201.0,17.0,204.0,20.0" stroke="black" stroke-width="1" fill="none" />
<polyline points="199.0,23.0,195.5,19.5" stroke="black" stroke-width="1" fill="none" />
<polyline points="190.5,22.5,194.0,26.0" stroke="black" stroke-width="1" fill="none" />
<polyline points="189.0,29.0,185.5,25.5" stroke="black" stroke-width="1" fill="none" />
<polyline points="179.5,27.5,184.0,32.0" stroke="black" stroke-width="1" fill="none" />
<polyline points="179.0,35.0,174.5,30.5" stroke="black" stroke-width="1" fill="none" />
<polyline points="170.0,34.0,174.0,38.0,170.5,37.5,170.0,38.0,169.0,41.0,164.0,36.0" stroke="black" stroke-width="1" fill="none" />
<polyline points="159.5,39.5,164.0,44.0" stroke="black" stroke-width="1" fill="none" />
<polyline points="158.5,41.5,156.5,43.5,155.0,45.0,153.0,47.0,153.5,49.5,149.0,45.0" stroke="black" stroke-width="1" fill="none" />
<polyline points="144.0,48.0,149.0,53.0" stroke="black" stroke-width="1" fill="none" />
<polyline points="139.0,53.0,137.5,54.5,136.5,55.5,134.0,58.0,134.0,54.0,138.5,58.5" stroke="black" stroke-width="1" fill="none" />
<polyline points="143.5,55.5,139.0,51.0" stroke="black" stroke-width="1" fill="none" />
<polyline points="140.5,44.5,139.0,43.0" stroke="black" stroke-width="1" fill="none" />
<polyline points="142.5,38.5,136.0,32.0,135.5,31.5,104.0,0.0,104.0,0.0,104.0,301.0,104.0,303.5,104.0,304.0,104.0,304.5,104.0,312.5" stroke="black" stroke-width="1" fill="none" />
<polyline points="112.0,307.5,112.0,0.0,112.0,0.0,145.0,33.0" stroke="black" stroke-width="1" fill="none" />
<polyline points="152.0,32.0,120.0,0.0,120.0,0.0,120.0,314.5,120.0,315.0,120.0,321.5" stroke="black" stroke-width="1" fill="none" />
<polyline points="128.0,326.0,128.0,316.0" stroke="black" stroke-width="1" fill="none" />
<polyline points="136.0,320.0,136.0,324.5" stroke="black" stroke-width="1" fill="none" />
<polyline points="144.0,326.0,144.0,329.0,144.0,330.5,144.0,334.5" stroke="black" stroke-width="1" fill="none" />
<polyline points="152.0,335.0,152.0,337.5,152.0,340.0,152.0,343.5" stroke="black" stroke-width="1" fill="none" />
<polyline points="152.0,334.0,152.0,330.5" stroke="black" stroke-width="1" fill="none" />
<polyline points="168.0,349.5,168.0,351.5" stroke="black" stroke-width="1" fill="none" />
<polyline points="168.0,359.0,168.0,361.0,168.0,364.5,168.0,368.0" stroke="black" stroke-width="1" fill="none" />
<polyline points="160.0,369.5,160.0,371.0,160.0,366.0,160.0,365.5" stroke="black" stroke-width="1" fill="none" />
<polyline points="160.0,376.5,160.0,377.0" stroke="black" stroke-width="1" fill="none" />
<polyline points="160.0,383.5,160.0,385.0" stroke="black" stroke-width="1" fill="none" />
<polyline points="168.0,381.0,168.0,380.5,168.0,378.5,168.0,377.0" stroke="black" stroke-width="1" fill="none" />
<polyline points="184.0,367.0,184.0,389.0" stroke="black" stroke-width="1" fill="none" />
<polyline points="192.0,379.5,192.0,360.5,192.0,358.5,192.0,350.0,192.0,348.0,192.0,0.0" stroke="black" stroke-width="1" fill="none" />
<polyline points="187.0,3.0,184.0,0.0,184.0,0.0,184.0,346.0,184.0,347.5,184.0,355.0,184.0,356.0,184.0,366.5" stroke="black" stroke-width="1" fill="none" />
<polyline points="168.0,347.5,168.0,0.0,168.0,0.0,175.0,7.0,175.5,7.5,179.0,11.0" stroke="black" stroke-width="1" fill="none" />
<polyline points="169.0,17.0,168.0,16.0,166.5,14.5,152.0,0.0,152.0,0.0,152.0,326.5" stroke="black" stroke-width="1" fill="none" />
<polyline points="144.0,324.5,144.0,0.0,144.0,0.0,163.5,19.5" stroke="black" stroke-width="1" fill="none" />
<polyline points="161.0,25.0,161.5,25.5,162.5,26.5,163.0,27.0,160.0,24.0,136.0,0.0,136.0,0.0,136.0,318.0" stroke="black" stroke-width="1" fill="none" />
<polyline points="128.0,313.5,128.0,0.0,128.0,0.0,158.0,30.0" stroke="black" stroke-width="1" fill="none" />
<polyline points="154.0,42.0,159.0,47.0" stroke="black" stroke-width="1" fill="none" />
<polyline points="135.5,39.5,132.0,36.0,131.5,35.5,96.0,0.0,96.0,0.0,96.0,303.0,96.0,304.0,96.0,309.5" stroke="black" stroke-width="1" fill="none" />
<polyline points="88.0,299.0,88.0,0.0,88.0,0.0,132.0,44.0" stroke="black" stroke-width="1" fill="none" />
<polyline points="126.0,46.0,125.5,45.5,124.0,44.0,123.0,43.0,121.0,41.0,80.0,0.0,80.0,0.0,80.0,300.5" stroke="black" stroke-width="1" fill="none" />
<polyline points="72.0,296.0,72.0,305.5" stroke="black" stroke-width="1" fill="none" />
<polyline points="72.0,295.0,72.0,0.0,72.0,0.0,110.0,38.0,112.0,40.0,114.0,42.0,118.0,46.0,119.5,47.5" stroke="black" stroke-width="1" fill="none" />
<polyline points="123.5,59.5,128.5,64.5" stroke="black" stroke-width="1" fill="none" />
<polyline points="133.0,61.0,129.0,57.0" stroke="black" stroke-width="1" fill="none" />
<polyline points="120.0,64.0,118.5,65.5,117.5,66.5,116.0,68.0,118.0,70.0,113.5,65.5" stroke="black" stroke-width="1" fill="none" />
<polyline points="118.0,62.0,123.0,67.0" stroke="black" stroke-width="1" fill="none" />
<polyline points="113.0,73.0,108.0,68.0" stroke="black" stroke-width="1" fill="none" />
<polyline points="103.0,71.0,108.0,76.0" stroke="black" stroke-width="1" fill="none" />
<polyline points="101.5,74.5,100.0,76.0,98.0,74.0,103.0,79.0" stroke="black" stroke-width="1" fill="none" />
<polyline points="100.0,84.0,99.5,84.5" stroke="black" stroke-width="1" fill="none" />
<polyline points="96.0,80.0,98.0,78.0,95.5,80.5,94.0,82.0,92.5,84.5,87.5,79.5" stroke="black" stroke-width="1" fill="none" />
<polyline points="82.5,82.5,87.5,87.5,82.5,85.5,81.0,87.0,79.5,88.5,79.0,89.0,78.0,86.0,82.0,90.0" stroke="black" stroke-width="1" fill="none" />
<polyline points="77.5,93.5,73.0,89.0" stroke="black" stroke-width="1" fill="none" />
<polyline points="68.0,92.0,72.5,96.5" stroke="black" stroke-width="1" fill="none" />
<polyline points="63.5,96.5,62.5,97.5,61.0,99.0,60.0,100.0,57.5,97.5,62.5,102.5" stroke="black" stroke-width="1" fill="none" />
<polyline points="57.0,105.0,53.0,101.0" stroke="black" stroke-width="1" fill="none" />
<polyline points="47.5,103.5,51.5,107.5" stroke="black" stroke-width="1" fill="none" />
<polyline points="45.5,106.5,44.0,108.0,42.5,106.5,47.0,111.0,42.5,109.5,41.5,110.5,41.5,113.5,37.0,109.0" stroke="black" stroke-width="1" fill="none" />
<polyline points="32.0,112.0,37.0,117.0" stroke="black" stroke-width="1" fill="none" />
<polyline points="27.0,117.0,25.5,118.5,23.5,120.5,23.0,121.0,22.0,118.0,26.5,122.5" stroke="black" stroke-width="1" fill="none" />
<polyline points="21.5,125.5,17.0,121.0" stroke="black" stroke-width="1" fill="none" />
<polyline points="12.0,124.0,16.5,128.5" stroke="black" stroke-width="1" fill="none" />
<polyline points="11.0,131.0,6.5,126.5,5.5,130.5,4.0,132.0,2.0,130.0,6.5,134.5" stroke="black" stroke-width="1" fill="none" />
<polyline points="1.0,137.0,0.0,136.0,0.0,136.0,312.5,136.0" stroke="black" stroke-width="1" fill="none" />
<polyline points="315.5,83.5,232.0,0.0,232.0,0.0,232.0,11.5,231.0,9.0,235.0,5.0,236.0,4.0,240.0,0.0" stroke="black" stroke-width="1" fill="none" />
<polyline points="232.0,0.0,231.5,0.5,231.0,1.0,228.0,4.0,227.0,3.0,322.5,98.5" stroke="black" stroke-width="1" fill="none" />
<polyline points="333.5,168.0,0.0,168.0" stroke="black" stroke-width="1" fill="none" />
<polyline points="0.0,160.0,412.0,160.0,414.0,160.0,417.5,160.0,419.0,160.0,511.5,160.0" stroke="black" stroke-width="1" fill="none" />
<polyline points="511.5,216.0,462.5,216.0" stroke="black" stroke-width="1" fill="none" />
<polyline points="453.5,216.0,453.0,216.0" stroke="black" stroke-width="1" fill="none" />
<polyline points="454.5,224.0,0.0,224.0,0.0,224.0,4.0,228.0,2.5,229.5,1.0,231.0" stroke="black" stroke-width="1" fill="none" />
<polyline points="0.0,216.0,365.0,216.0" stroke="black" stroke-width="1" fill="none" />
<polyline points="410.0,162.0,408.5,160.5,408.0,158.0,408.0,179.0" stroke="black" stroke-width="1" fill="none" />
<polyline points="424.5,176.0,427.5,176.0,432.5,176.0,511.5,176.0" stroke="black" stroke-width="1" fill="none" />
<polyline points="511.5,208.0,457.5,208.0" stroke="black" stroke-width="1" fill="none" />
<polyline points="452.5,200.0,511.5,200.0" stroke="black" stroke-width="1" fill="none" />
<polyline points="511.5,240.0,480.0,240.0" stroke="black" stroke-width="1" fill="none" />
<polyline points="443.5,212.5,443.0,213.0" stroke="black" stroke-width="1" fill="none" />
<polyline points="447.5,192.0,511.5,192.0" stroke="black" stroke-width="1" fill="none" />
<polyline points="511.5,184.0,440.5,184.0" stroke="black" stroke-width="1" fill="none" />
<polyline points="432.5,184.0,431.5,184.0,431.0,184.0,430.5,184.0" stroke="black" stroke-width="1" fill="none" />
<polyline points="422.0,176.0,0.0,176.0" stroke="black" stroke-width="1" fill="none" />
<polyline points="0.0,152.0,322.5,152.0" stroke="black" stroke-width="1" fill="none" />
<polyline points="403.0,144.0,511.5,144.0" stroke="black" stroke-width="1" fill="none" />
<polyline points="228.0,12.0,225.0,15.0,228.0,12.0,227.0,11.0,224.0,8.0,222.0,10.0" stroke="black" stroke-width="1" fill="none" />
<polyline points="218.5,5.5,221.0,3.0,224.0,4.5,224.0,17.0" stroke="black" stroke-width="1" fill="none" />
<polyline points="225.5,9.5,216.0,0.0,216.0,0.0,216.0,4.5,216.0,0.0,216.0,0.0" stroke="black" stroke-width="1" fill="none" />
<polyline points="104.5,40.5,100.0,36.0,99.5,35.5,64.0,0.0,64.0,0.0,64.0,304.0" stroke="black" stroke-width="1" fill="none" />
<polyline points="40.0,299.0,40.0,0.0,40.0,0.0,80.0,40.0,82.0,42.0,84.0,44.0" stroke="black" stroke-width="1" fill="none" />
<polyline points="82.5,50.5,83.5,51.5,84.0,52.0,86.5,54.5,84.5,59.5,83.0,61.0" stroke="black" stroke-width="1" fill="none" />
<polyline points="86.5,65.5,87.5,64.5" stroke="black" stroke-width="1" fill="none" />
<polyline points="78.5,62.5,77.0,61.0" stroke="black" stroke-width="1" fill="none" />
<polyline points="80.5,55.5,82.5,53.5,78.5,49.5,79.0,49.0" stroke="black" stroke-width="1" fill="none" />
<polyline points="74.5,45.5,73.0,47.0" stroke="black" stroke-width="1" fill="none" />
<polyline points="70.0,42.0,72.0,40.0" stroke="black" stroke-width="1" fill="none" />
<polyline points="67.5,36.5,69.0,35.0" stroke="black" stroke-width="1" fill="none" />
<polyline points="66.0,30.0,63.5,32.5" stroke="black" stroke-width="1" fill="none" />
<polyline points="60.0,28.0,63.5,24.5,59.5,20.5,57.5,22.5" stroke="black" stroke-width="1" fill="none" />
<polyline points="54.5,17.5,57.0,15.0" stroke="black" stroke-width="1" fill="none" />
<polyline points="53.5,10.5,51.0,13.0" stroke="black" stroke-width="1" fill="none" />
<polyline points="47.5,8.5,51.0,5.0" stroke="black" stroke-width="1" fill="none" />
<polyline points="47.5,0.5,44.5,3.5" stroke="black" stroke-width="1" fill="none" />
<polyline points="32.0,0.0,32.0,304.5" stroke="black" stroke-width="1" fill="none" />
<polyline points="16.0,303.0,16.0,300.5" stroke="black" stroke-width="1" fill="none" />
<polyline points="16.0,311.5,16.0,313.5" stroke="black" stroke-width="1" fill="none" />
<polyline points="8.0,316.5,8.0,318.0,6.5,320.0,0.0,320.0" stroke="black" stroke-width="1" fill="none" />
<polyline points="0.0,312.0,19.5,312.0" stroke="black" stroke-width="1" fill="none" />
<polyline points="16.0,300.0,16.0,0.0,16.0,0.0,66.0,50.0,66.5,50.5,70.0,54.0,72.0,56.0,74.0,58.0,70.0,62.0,67.5,59.5,66.0,58.0,62.0,54.0,61.5,53.5,56.5,48.5,56.0,48.0,44.0,36.0,43.5,35.5,8.0,0.0,8.0,0.0,8.0,302.0" stroke="black" stroke-width="1" fill="none" />
<polyline points="0.0,301.0,0.0,0.0,0.0,0.0,39.5,39.5,40.0,40.0,48.0,48.0,48.5,48.5,51.0,51.0,51.5,51.5,52.0,52.0,52.5,52.5,53.0,53.0,49.0,57.0,48.5,56.5,48.0,56.0,47.0,55.0,43.0,59.0,46.0,62.0" stroke="black" stroke-width="1" fill="none" />
<polyline points="41.5,57.5,39.0,55.0,35.0,59.0,38.0,62.0,34.0,66.0,31.5,63.5" stroke="black" stroke-width="1" fill="none" />
<polyline points="24.0,64.0,21.5,61.5,19.5,59.5,19.0,59.0,16.5,56.5,15.5,55.5" stroke="black" stroke-width="1" fill="none" />
<polyline points="21.0,53.0,24.0,56.0" stroke="black" stroke-width="1" fill="none" />
<polyline points="29.0,53.0,32.0,56.0" stroke="black" stroke-width="1" fill="none" />
<polyline points="37.5,53.5,34.0,50.0,32.0,48.0,0.0,16.0,0.0,16.0,511.5,16.0" stroke="black" stroke-width="1" fill="none" />
<polyline points="141.0,147.0,140.5,147.5" stroke="black" stroke-width="1" fill="none" />
<polyline points="127.5,128.5,128.5,127.5,124.5,123.5,125.5,122.5" stroke="black" stroke-width="1" fill="none" />
<polyline points="114.5,109.5,115.5,108.5" stroke="black" stroke-width="1" fill="none" />
<polyline points="112.0,104.0,113.0,103.0,109.0,99.0,110.0,98.0" stroke="black" stroke-width="1" fill="none" />
<polyline points="67.0,99.0,63.0,95.0" stroke="black" stroke-width="1" fill="none" />
<polyline points="69.5,77.5,68.5,76.5,64.5,72.5,62.5,70.5" stroke="black" stroke-width="1" fill="none" />
<polyline points="58.0,74.0,57.5,73.5" stroke="black" stroke-width="1" fill="none" />
<polyline points="65.0,65.0,64.0,64.0" stroke="black" stroke-width="1" fill="none" />
<polyline points="68.5,68.5,71.0,71.0,73.0,73.0,74.5,74.5" stroke="black" stroke-width="1" fill="none" />
<polyline points="54.0,62.0,53.5,61.5" stroke="black" stroke-width="1" fill="none" />
<polyline points="43.5,51.5,38.5,46.5,38.0,46.0,30.5,38.5" stroke="black" stroke-width="1" fill="none" />
<polyline points="23.0,47.0,24.0,48.0,24.5,48.5,27.5,51.5" stroke="black" stroke-width="1" fill="none" />
<polyline points="16.0,64.0,14.5,62.5" stroke="black" stroke-width="1" fill="none" />
<polyline points="13.0,69.0,14.0,70.0" stroke="black" stroke-width="1" fill="none" />
<polyline points="0.0,72.0,511.5,72.0" stroke="black" stroke-width="1" fill="none" />
<polyline points="92.5,52.5,91.5,51.5,90.5,50.5,89.5,49.5" stroke="black" stroke-width="1" fill="none" />
<polyline points="81.5,49.5,32.0,0.0" stroke="black" stroke-width="1" fill="none" />
<polyline points="12.5,20.5,27.5,35.5" stroke="black" stroke-width="1" fill="none" />
<polyline points="22.0,46.0,14.0,38.0" stroke="black" stroke-width="1" fill="none" />
<polyline points="9.0,41.0,19.5,51.5" stroke="black" stroke-width="1" fill="none" />
<polyline points="5.5,53.5,4.5,52.5" stroke="black" stroke-width="1" fill="none" />
<polyline points="0.0,56.0,511.5,56.0" stroke="black" stroke-width="1" fill="none" />
<polyline points="35.0,75.0,33.5,73.5" stroke="black" stroke-width="1" fill="none" />
<polyline points="10.5,50.5,6.0,46.0,5.0,45.0,4.5,44.5,4.0,44.0,3.0,43.0,2.0,42.0,0.0,40.0,0.0,40.0,511.5,40.0" stroke="black" stroke-width="1" fill="none" />
<polyline points="32.0,120.0,27.0,115.0" stroke="black" stroke-width="1" fill="none" />
<polyline points="0.0,112.0,511.5,112.0" stroke="black" stroke-width="1" fill="none" />
<polyline points="7.0,39.0,5.0,37.0,3.0,35.0,1.0,33.0,0.0,32.0,511.5,32.0" stroke="black" stroke-width="1" fill="none" />
<polyline points="13.5,37.5,0.5,24.5,0.0,24.0,511.5,24.0" stroke="black" stroke-width="1" fill="none" />
<polyline points="12.0,20.0,10.0,18.0,9.0,17.0,0.0,8.0,0.0,8.0,511.5,8.0" stroke="black" stroke-width="1" fill="none" />
<polyline points="419.5,296.0,0.0,296.0" stroke="black" stroke-width="1" fill="none" />
<polyline points="0.0,288.0,498.0,288.0" stroke="black" stroke-width="1" fill="none" />
<polyline points="34.0,304.0,0.0,304.0" stroke="black" stroke-width="1" fill="none" />
<polyline points="0.0,280.0,408.5,280.0" stroke="black" stroke-width="1" fill="none" />
<polyline points="400.5,144.0,0.0,144.0" stroke="black" stroke-width="1" fill="none" />
<polyline points="0.0,128.0,511.5,128.0" stroke="black" stroke-width="1" fill="none" />
<polyline points="302.0,120.0,0.0,120.0" stroke="black" stroke-width="1" fill="none" />
<polyline points="0.0,104.0,511.5,104.0" stroke="black" stroke-width="1" fill="none" />
<polyline points="511.5,96.0,0.0,96.0" stroke="black" stroke-width="1" fill="none" />
<polyline points="0.0,88.0,511.5,88.0" stroke="black" stroke-width="1" fill="none" />
<polyline points="511.5,80.0,0.0,80.0" stroke="black" stroke-width="1" fill="none" />
<polyline points="0.0,64.0,511.5,64.0" stroke="black" stroke-width="1" fill="none" />
<polyline points="511.5,48.0,0.0,48.0" stroke="black" stroke-width="1" fill="none" />
</svg>