<svg xmlns="http://www.w3.org/2000/svg" height="512px" width="512px" version="1.1"><polyline points="68.0,13.0,69.0,21.0,72.0,29.0,75.0,37.0,78.0,45.0,80.0,53.0,86.0,55.0,94.0,53.0,102.0,51.0,110.0,50.0,118.0,48.0,126.0,46.0,134.0,44.0,142.0,42.0,150.0,40.0,158.0,38.0,166.0,36.0,174.0,34.0,182.0,32.0,190.0,30.0,198.0,28.0,206.0,26.0,214.0,24.0,222.0,22.0,230.0,20.0,238.0,18.0,246.0,16.0,254.0,14.0,262.0,12.0,270.0,10.0,278.0,8.0,286.0,6.0,294.0,4.0,302.0,2.0,310.0,1.0" stroke="black" stroke-width="1" fill="none" />
<polyline points="75.0,12.0,67.0,16.0" stroke="black" stroke-width="1" fill="none" />
<polyline points="158.0,352.0,166.0,350.0,174.0,348.0,182.0,346.0,190.0,344.0,198.0,342.0,206.0,341.0,214.0,339.0,222.0,337.0,230.0,335.0,238.0,333.0,246.0,331.0,254.0,329.0,262.0,327.0,270.0,326.0,278.0,324.0,286.0,322.0,294.0,320.0,302.0,318.0,310.0,316.0,318.0,314.0,326.0,312.0,334.0,311.0,342.0,309.0,350.0,307.0,358.0,305.0,366.0,303.0,374.0,301.0,382.0,299.0,390.0,298.0,398.0,296.0,406.0,294.0,414.0,292.0,422.0,290.0,430.0,288.0,438.0,287.0,446.0,285.0,454.0,283.0,458.0,286.0,460.0,294.0,464.0,299.0,463.0,307.0,466.0,313.0,468.0,321.0,470.0,329.0,472.0,337.0,478.0,344.0,482.0,352.0,484.0,360.0,486.0,368.0,481.0,376.0,485.0,384.0,486.0,392.0,488.0,400.0" stroke="black" stroke-width="1" fill="none" />
<polyline points="488.0,383.0,478.0,380.0,470.0,382.0,465.0,380.0,473.0,377.0,481.0,376.0,481.0,381.0,482.0,389.0,484.0,397.0,485.0,405.0,487.0,413.0,488.0,421.0" stroke="black" stroke-width="1" fill="none" />
<polyline points="483.0,354.0,477.0,338.0,475.0,336.0,473.0,328.0,471.0,320.0,471.0,318.0,474.0,321.0,476.0,329.0,479.0,337.0" stroke="black" stroke-width="1" fill="none" />
<polyline points="427.0,284.0,419.0,286.0,411.0,288.0,403.0,290.0,395.0,292.0,387.0,294.0,379.0,296.0,371.0,298.0,363.0,299.0,355.0,301.0,347.0,303.0,339.0,305.0,331.0,307.0,323.0,309.0,315.0,310.0" stroke="black" stroke-width="1" fill="none" />
<polyline points="302.0,314.0,294.0,316.0,286.0,318.0,278.0,319.0,270.0,321.0,262.0,323.0,254.0,325.0,246.0,327.0,238.0,329.0,230.0,331.0,222.0,333.0,214.0,334.0,206.0,336.0" stroke="black" stroke-width="1" fill="none" />
<polyline points="158.0,354.0,160.0,362.0,162.0,370.0,164.0,378.0,166.0,386.0,164.0,394.0,168.0,396.0,166.0,404.0,167.0,411.0,164.0,410.0,170.0,404.0,170.0,412.0,170.0,420.0,172.0,428.0,173.0,436.0,176.0,444.0,182.0,452.0,184.0,460.0,186.0,468.0,189.0,476.0,192.0,484.0,194.0,492.0,194.0,492.0,199.0,496.0,200.0,493.0,208.0,494.0,216.0,492.0,224.0,490.0,232.0,488.0,240.0,486.0,248.0,485.0,256.0,483.0,264.0,481.0,272.0,479.0,280.0,477.0,288.0,475.0,296.0,473.0,304.0,471.0,312.0,470.0,320.0,468.0,328.0,466.0,336.0,464.0,344.0,462.0,352.0,460.0,360.0,458.0,368.0,456.0,376.0,455.0,384.0,453.0,392.0,451.0,400.0,449.0,408.0,447.0,416.0,445.0,424.0,443.0,432.0,441.0,440.0,439.0,448.0,437.0,456.0,436.0,464.0,434.0,472.0,432.0,480.0,430.0,488.0,428.0" stroke="black" stroke-width="1" fill="none" />
<polyline points="190.0,443.0,182.0,445.0,174.0,439.0" stroke="black" stroke-width="1" fill="none" />
<polyline points="172.0,408.0,180.0,406.0" stroke="black" stroke-width="1" fill="none" />
<polyline points="25.0,449.0,24.0,441.0,13.0,427.0,17.0,427.0,19.0,435.0,21.0,443.0" stroke="black" stroke-width="1" fill="none" />
<polyline points="16.0,447.0,8.0,448.0,0.0,450.0" stroke="black" stroke-width="1" fill="none" />
<polyline points="11.0,450.0,10.0,458.0,11.0,466.0,12.0,474.0,16.0,482.0,20.0,486.0,29.0,476.0,31.0,471.0,35.0,479.0" stroke="black" stroke-width="1" fill="none" />
<polyline points="26.0,471.0,28.0,472.0,27.0,474.0,26.0,482.0,29.0,486.0,31.0,494.0,33.0,502.0,36.0,510.0" stroke="black" stroke-width="1" fill="none" />
<polyline points="37.0,499.0,34.0,491.0,32.0,483.0,33.0,474.0,25.0,468.0" stroke="black" stroke-width="1" fill="none" />
<polyline points="9.0,488.0,1.0,490.0" stroke="black" stroke-width="1" fill="none" />
<polyline points="20.0,452.0,17.0,448.0,17.0,442.0,15.0,434.0,12.0,426.0,10.0,418.0,8.0,410.0,6.0,402.0,3.0,394.0,0.0,390.0" stroke="black" stroke-width="1" fill="none" />
<polyline points="0.0,0.0,511.5,0.0,511.5,0.5,337.0,175.0,336.0,176.0,334.0,178.0" stroke="black" stroke-width="1" fill="none" />
<polyline points="340.5,179.5,511.5,8.5" stroke="black" stroke-width="1" fill="none" />
<polyline points="511.5,16.5,344.0,184.0" stroke="black" stroke-width="1" fill="none" />
<polyline points="348.5,187.5,511.5,24.5" stroke="black" stroke-width="1" fill="none" />
<polyline points="511.5,48.5,352.0,208.0,350.5,209.5,349.5,210.5" stroke="black" stroke-width="1" fill="none" />
<polyline points="353.0,215.0,355.0,213.0,357.0,211.0,360.5,207.5,361.0,207.0,363.5,204.5,365.0,203.0,511.5,56.5" stroke="black" stroke-width="1" fill="none" />
<polyline points="511.5,112.5,398.0,226.0" stroke="black" stroke-width="1" fill="none" />
<polyline points="403.0,229.0,511.5,120.5" stroke="black" stroke-width="1" fill="none" />
<polyline points="511.5,240.5,463.0,289.0,461.0,285.0,511.5,335.5" stroke="black" stroke-width="1" fill="none" />
<polyline points="511.5,352.5,497.5,366.5" stroke="black" stroke-width="1" fill="none" />
<polyline points="493.0,363.0,511.5,344.5" stroke="black" stroke-width="1" fill="none" />
<polyline points="511.5,360.5,501.0,371.0" stroke="black" stroke-width="1" fill="none" />
<polyline points="503.5,376.5,511.5,368.5" stroke="black" stroke-width="1" fill="none" />
<polyline points="511.5,376.5,505.5,382.5,503.0,385.0,502.5,385.5" stroke="black" stroke-width="1" fill="none" />
<polyline points="506.0,390.0,511.5,384.5" stroke="black" stroke-width="1" fill="none" />
<polyline points="511.5,400.5,498.0,414.0" stroke="black" stroke-width="1" fill="none" />
<polyline points="493.5,418.5,490.5,421.5,488.0,420.0,488.0,388.0,486.0,390.0,483.5,387.5,481.5,384.0,511.5,384.0" stroke="black" stroke-width="1" fill="none" />
<polyline points="511.5,392.5,502.0,402.0,499.0,405.0,498.5,405.5" stroke="black" stroke-width="1" fill="none" />
<polyline points="491.5,412.5,489.0,415.0,488.5,416.5,511.5,439.5" stroke="black" stroke-width="1" fill="none" />
<polyline points="511.5,456.5,456.5,511.5" stroke="black" stroke-width="1" fill="none" />
<polyline points="448.5,511.5,511.5,448.5" stroke="black" stroke-width="1" fill="none" />
<polyline points="511.5,472.5,472.5,511.5" stroke="black" stroke-width="1" fill="none" />
<polyline points="464.5,511.5,511.5,464.5" stroke="black" stroke-width="1" fill="none" />
<polyline points="511.5,496.5,496.5,511.5" stroke="black" stroke-width="1" fill="none" />
<polyline points="488.5,511.5,511.5,488.5" stroke="black" stroke-width="1" fill="none" />
<polyline points="511.5,504.5,504.5,511.5" stroke="black" stroke-width="1" fill="none" />
<polyline points="480.5,511.5,511.5,480.5" stroke="black" stroke-width="1" fill="none" />
<polyline points="511.5,440.5,440.5,511.5" stroke="black" stroke-width="1" fill="none" />
<polyline points="432.5,511.5,511.5,432.5" stroke="black" stroke-width="1" fill="none" />
<polyline points="511.5,424.5,424.5,511.5" stroke="black" stroke-width="1" fill="none" />
<polyline points="416.5,511.5,454.5,473.5,455.0,473.0,466.0,462.0,466.5,461.5,473.5,454.5,474.0,454.0,487.5,440.5,488.5,439.5,511.5,416.5" stroke="black" stroke-width="1" fill="none" />
<polyline points="511.5,408.5,486.5,433.5,485.5,429.5,511.5,455.5" stroke="black" stroke-width="1" fill="none" />
<polyline points="511.5,423.5,484.5,396.5,484.5,395.5,486.5,393.5,482.5,392.0,511.5,392.0" stroke="black" stroke-width="1" fill="none" />
<polyline points="511.5,375.5,480.0,344.0,480.5,343.5,481.5,342.5,478.5,344.0,511.5,344.0" stroke="black" stroke-width="1" fill="none" />
<polyline points="511.5,336.5,486.5,361.5,484.0,360.0,511.5,360.0" stroke="black" stroke-width="1" fill="none" />
<polyline points="511.5,343.5,483.5,315.5" stroke="black" stroke-width="1" fill="none" />
<polyline points="488.5,311.5,511.5,288.5" stroke="black" stroke-width="1" fill="none" />
<polyline points="511.5,312.5,492.5,331.5,492.0,332.0,491.0,333.0,486.0,334.0,511.5,359.5" stroke="black" stroke-width="1" fill="none" />
<polyline points="511.5,351.5,486.0,326.0" stroke="black" stroke-width="1" fill="none" />
<polyline points="491.5,324.5,492.0,324.0,492.5,323.5,511.5,304.5" stroke="black" stroke-width="1" fill="none" />
<polyline points="511.5,320.5,482.5,349.5,481.5,352.0,511.5,352.0" stroke="black" stroke-width="1" fill="none" />
<polyline points="511.5,328.5,484.5,355.5,484.5,356.5,511.5,383.5" stroke="black" stroke-width="1" fill="none" />
<polyline points="511.5,367.5,484.5,340.5,480.0,339.5,480.0,346.5" stroke="black" stroke-width="1" fill="none" />
<polyline points="478.0,336.0,511.5,336.0" stroke="black" stroke-width="1" fill="none" />
<polyline points="491.5,316.5,511.5,296.5" stroke="black" stroke-width="1" fill="none" />
<polyline points="511.5,280.5,486.0,306.0,482.0,302.0,483.5,300.5,485.0,299.0,511.5,272.5" stroke="black" stroke-width="1" fill="none" />
<polyline points="511.5,264.5,481.5,294.5,479.5,296.5,478.0,298.0" stroke="black" stroke-width="1" fill="none" />
<polyline points="477.0,291.0,511.5,256.5" stroke="black" stroke-width="1" fill="none" />
<polyline points="511.5,248.5,472.5,287.5,470.0,290.0,469.5,290.5,467.0,293.0,464.0,296.0,463.0,295.0,482.5,314.5" stroke="black" stroke-width="1" fill="none" />
<polyline points="470.5,313.5,468.5,315.5,468.0,316.0,471.5,319.5,468.0,320.0,511.5,320.0" stroke="black" stroke-width="1" fill="none" />
<polyline points="511.5,279.5,249.0,17.0,248.0,16.0,248.0,330.5,246.0,330.0,249.0,327.0,247.0,327.0,250.0,330.0,254.0,326.0,256.0,328.0,256.5,327.5,258.5,325.5,260.5,324.5,262.5,326.5,266.5,325.5,268.5,323.5,269.0,325.0,266.0,322.0" stroke="black" stroke-width="1" fill="none" />
<polyline points="261.5,317.5,260.0,316.0,258.0,314.0,257.5,313.5" stroke="black" stroke-width="1" fill="none" />
<polyline points="252.5,316.5,252.0,316.0,250.0,314.0,248.5,312.5" stroke="black" stroke-width="1" fill="none" />
<polyline points="243.0,315.0,242.5,314.5" stroke="black" stroke-width="1" fill="none" />
<polyline points="237.5,317.5,235.5,315.5,235.0,315.0,233.0,313.0" stroke="black" stroke-width="1" fill="none" />
<polyline points="230.0,318.0,232.5,320.5" stroke="black" stroke-width="1" fill="none" />
<polyline points="227.0,323.0,223.5,319.5,223.0,319.0,221.5,317.5,221.0,317.0,0.0,96.0,0.0,96.0,511.5,96.0" stroke="black" stroke-width="1" fill="none" />
<polyline points="511.5,184.5,450.5,245.5" stroke="black" stroke-width="1" fill="none" />
<polyline points="444.5,259.5,511.5,192.5" stroke="black" stroke-width="1" fill="none" />
<polyline points="511.5,232.5,461.0,283.0,457.5,281.5,213.5,37.5,216.5,39.5,204.0,52.0,202.5,53.5,196.5,59.5,196.0,60.0,192.0,64.0,190.0,66.0,171.5,84.5,170.5,85.5,168.0,88.0,167.0,89.0,156.5,99.5" stroke="black" stroke-width="1" fill="none" />
<polyline points="161.0,103.0,162.5,101.5,164.0,100.0,181.5,82.5,182.5,81.5,184.0,80.0,185.0,79.0,190.5,73.5,192.0,72.0,206.0,58.0,207.0,57.0,209.0,55.0,210.5,53.5,215.5,48.5,217.5,46.5,220.0,44.0,220.5,43.5,223.0,41.0,223.5,40.5,227.0,37.0" stroke="black" stroke-width="1" fill="none" />
<polyline points="232.5,39.5,237.0,35.0" stroke="black" stroke-width="1" fill="none" />
<polyline points="236.5,43.5,247.5,32.5" stroke="black" stroke-width="1" fill="none" />
<polyline points="254.0,42.0,269.0,27.0" stroke="black" stroke-width="1" fill="none" />
<polyline points="279.5,24.5,264.5,39.5" stroke="black" stroke-width="1" fill="none" />
<polyline points="270.5,49.5,278.5,41.5,279.0,41.0,301.0,19.0" stroke="black" stroke-width="1" fill="none" />
<polyline points="311.5,16.5,262.5,65.5" stroke="black" stroke-width="1" fill="none" />
<polyline points="267.0,69.0,284.0,52.0,285.0,51.0,323.0,13.0" stroke="black" stroke-width="1" fill="none" />
<polyline points="333.5,10.5,293.0,51.0" stroke="black" stroke-width="1" fill="none" />
<polyline points="304.5,47.5,343.5,8.5" stroke="black" stroke-width="1" fill="none" />
<polyline points="344.0,0.0,344.0,307.5,341.5,306.5,339.5,308.5,341.0,309.0,337.0,305.0,332.5,307.5,329.5,310.5,331.5,307.5,333.5,309.5" stroke="black" stroke-width="1" fill="none" />
<polyline points="327.0,311.0,325.0,309.0,322.0,310.0,319.5,312.5,321.5,313.5,317.5,309.5" stroke="black" stroke-width="1" fill="none" />
<polyline points="312.0,312.0,309.0,315.0,308.0,316.0,306.0,314.0,302.0,314.0,299.0,317.0,299.0,315.0,301.5,317.5" stroke="black" stroke-width="1" fill="none" />
<polyline points="292.0,316.0,289.5,318.5,288.0,320.0,286.0,318.0,282.0,322.0,280.0,320.0,280.0,320.0,279.5,320.5,277.5,322.5,276.5,323.5,276.0,324.0,273.0,321.0" stroke="black" stroke-width="1" fill="none" />
<polyline points="270.0,310.0,269.0,309.0,273.0,305.0,270.5,302.5,269.0,301.0,264.0,296.0" stroke="black" stroke-width="1" fill="none" />
<polyline points="263.5,303.5,0.0,40.0,0.0,40.0,511.5,40.0" stroke="black" stroke-width="1" fill="none" />
<polyline points="511.5,80.5,382.0,210.0" stroke="black" stroke-width="1" fill="none" />
<polyline points="385.0,215.0,511.5,88.5" stroke="black" stroke-width="1" fill="none" />
<polyline points="511.5,176.5,433.0,255.0,431.0,257.0,430.0,258.0,429.5,258.5,428.0,260.0" stroke="black" stroke-width="1" fill="none" />
<polyline points="433.0,263.0,436.0,260.0,437.5,258.5,438.0,258.0,439.5,256.5,450.0,246.0" stroke="black" stroke-width="1" fill="none" />
<polyline points="450.5,261.5,511.5,200.5" stroke="black" stroke-width="1" fill="none" />
<polyline points="511.5,224.5,466.5,269.5,466.0,270.0,455.0,281.0" stroke="black" stroke-width="1" fill="none" />
<polyline points="451.5,276.5,452.5,275.5,454.5,273.5,511.5,216.5" stroke="black" stroke-width="1" fill="none" />
<polyline points="511.5,208.5,454.0,266.0,452.0,268.0,449.5,270.5" stroke="black" stroke-width="1" fill="none" />
<polyline points="446.0,266.0,450.0,262.0" stroke="black" stroke-width="1" fill="none" />
<polyline points="445.5,266.5,444.0,268.0,440.5,271.5,440.0,272.0" stroke="black" stroke-width="1" fill="none" />
<polyline points="444.5,275.5,445.0,275.0,449.0,279.0,444.5,283.5,443.5,284.5,443.0,285.0,439.0,281.0,433.0,287.0,435.0,283.0,438.0,286.0" stroke="black" stroke-width="1" fill="none" />
<polyline points="427.0,285.0,422.5,289.5,425.5,289.5,421.5,285.5,420.0,284.0,181.0,45.0,185.0,47.0,176.0,56.0" stroke="black" stroke-width="1" fill="none" />
<polyline points="183.5,56.5,190.0,50.0,191.0,49.0,195.5,44.5" stroke="black" stroke-width="1" fill="none" />
<polyline points="199.0,49.0,206.0,42.0,207.5,39.5,451.5,283.5" stroke="black" stroke-width="1" fill="none" />
<polyline points="444.5,284.5,201.5,41.5" stroke="black" stroke-width="1" fill="none" />
<polyline points="204.5,36.5,202.5,34.5,203.0,29.0,203.5,28.5,204.0,28.0,213.0,37.0" stroke="black" stroke-width="1" fill="none" />
<polyline points="220.0,36.0,511.5,327.5" stroke="black" stroke-width="1" fill="none" />
<polyline points="511.5,295.5,235.5,19.5,236.5,19.5,235.0,21.0,232.0,19.5,232.0,334.5,228.5,331.5,226.0,334.0,224.0,336.0,220.5,332.5,217.5,334.5,216.0,336.0,215.0,335.0,217.0,337.0,215.0,337.0,214.0,338.0,211.0,339.0,208.5,336.5,207.5,336.5,203.5,340.5,205.0,341.0,201.0,337.0,196.5,339.5,193.5,342.5,191.5,343.5,188.0,340.0,186.5,341.5,183.0,345.0,179.5,347.5,0.0,168.0,0.0,168.0,511.5,168.0,511.5,168.5,431.0,249.0,428.5,251.5,422.5,257.5,420.0,260.0,418.5,261.5,415.0,265.0,414.5,265.5" stroke="black" stroke-width="1" fill="none" />
<polyline points="410.0,254.0,411.5,252.5,413.5,250.5,419.5,244.5,420.0,244.0,423.0,241.0,423.5,240.5,424.5,239.5,425.5,238.5,511.5,152.5" stroke="black" stroke-width="1" fill="none" />
<polyline points="511.5,160.5,426.5,245.5,425.0,247.0,420.5,251.5" stroke="black" stroke-width="1" fill="none" />
<polyline points="412.0,244.0,410.0,246.0,408.5,247.5,405.5,250.5,404.5,251.5,401.5,254.5" stroke="black" stroke-width="1" fill="none" />
<polyline points="393.0,247.0,394.0,246.0,394.5,245.5,395.0,245.0,391.0,241.0,390.0,242.0,392.5,239.5,396.0,236.0,396.5,235.5,401.5,230.5" stroke="black" stroke-width="1" fill="none" />
<polyline points="404.0,236.0,511.5,128.5" stroke="black" stroke-width="1" fill="none" />
<polyline points="511.5,144.5,415.0,241.0" stroke="black" stroke-width="1" fill="none" />
<polyline points="407.5,240.5,511.5,136.5" stroke="black" stroke-width="1" fill="none" />
<polyline points="511.5,104.5,386.0,230.0,383.0,233.0,382.0,234.0,381.0,235.0,378.0,238.0,376.0,240.0,375.0,241.0" stroke="black" stroke-width="1" fill="none" />
<polyline points="373.5,234.5,379.0,229.0,379.5,228.5,387.0,221.0,387.5,220.5,511.5,96.5" stroke="black" stroke-width="1" fill="none" />
<polyline points="511.5,72.5,376.5,207.5" stroke="black" stroke-width="1" fill="none" />
<polyline points="381.0,211.0,375.0,217.0" stroke="black" stroke-width="1" fill="none" />
<polyline points="379.5,220.5,384.0,216.0" stroke="black" stroke-width="1" fill="none" />
<polyline points="379.0,221.0,376.5,223.5,376.0,224.0,375.0,225.0,374.0,226.0,371.5,228.5" stroke="black" stroke-width="1" fill="none" />
<polyline points="369.0,223.0,373.5,218.5" stroke="black" stroke-width="1" fill="none" />
<polyline points="367.0,217.0,376.0,208.0" stroke="black" stroke-width="1" fill="none" />
<polyline points="373.5,202.5,511.5,64.5" stroke="black" stroke-width="1" fill="none" />
<polyline points="511.5,40.5,357.5,194.5" stroke="black" stroke-width="1" fill="none" />
<polyline points="372.0,204.0,365.5,210.5,364.5,211.5,360.5,215.5,359.0,217.0,357.5,218.5,361.5,222.5,362.5,221.5,363.0,221.0,364.0,220.0,365.0,219.0,366.5,217.5" stroke="black" stroke-width="1" fill="none" />
<polyline points="364.5,227.5,361.0,231.0,359.5,232.5,358.5,233.5" stroke="black" stroke-width="1" fill="none" />
<polyline points="353.5,230.5,352.0,232.0,348.0,228.0,349.0,227.0,351.0,225.0,351.5,224.5,347.5,220.5,348.0,220.0,348.5,219.5,352.0,216.0" stroke="black" stroke-width="1" fill="none" />
<polyline points="347.5,212.5,344.0,216.0" stroke="black" stroke-width="1" fill="none" />
<polyline points="339.5,212.5,340.5,211.5,343.0,209.0,357.0,195.0" stroke="black" stroke-width="1" fill="none" />
<polyline points="348.0,188.0,340.0,196.0,339.0,197.0,336.0,200.0,332.0,204.0,330.0,206.0" stroke="black" stroke-width="1" fill="none" />
<polyline points="326.5,201.5,330.5,197.5,331.5,196.5,332.0,196.0,333.5,194.5,343.5,184.5" stroke="black" stroke-width="1" fill="none" />
<polyline points="340.0,180.0,327.0,193.0,325.5,194.5,319.5,200.5,317.5,202.5,315.5,204.5" stroke="black" stroke-width="1" fill="none" />
<polyline points="318.0,210.0,322.5,205.5" stroke="black" stroke-width="1" fill="none" />
<polyline points="325.5,210.5,323.0,213.0,322.0,214.0,320.0,216.0" stroke="black" stroke-width="1" fill="none" />
<polyline points="325.5,218.5,327.5,216.5,331.0,213.0,333.5,210.5,334.5,209.5,335.5,208.5,337.5,206.5,511.5,32.5" stroke="black" stroke-width="1" fill="none" />
<polyline points="511.5,7.5,504.0,0.0,504.0,0.0,504.0,511.5" stroke="black" stroke-width="1" fill="none" />
<polyline points="456.0,464.0,456.5,463.5,460.5,459.5,465.0,455.0,468.5,451.5,470.0,450.0" stroke="black" stroke-width="1" fill="none" />
<polyline points="467.0,437.0,471.0,433.0,472.0,433.0,472.0,511.5" stroke="black" stroke-width="1" fill="none" />
<polyline points="443.5,476.5,445.5,474.5,448.0,472.0,455.5,464.5" stroke="black" stroke-width="1" fill="none" />
<polyline points="449.0,463.0,448.5,463.5" stroke="black" stroke-width="1" fill="none" />
<polyline points="439.5,472.5,437.0,475.0,435.5,476.5,434.5,477.5,432.0,480.0,430.0,482.0,428.0,484.0,425.5,486.5,425.0,487.0,421.5,490.5" stroke="black" stroke-width="1" fill="none" />
<polyline points="426.0,494.0,408.5,511.5" stroke="black" stroke-width="1" fill="none" />
<polyline points="400.5,511.5,420.0,492.0,416.0,488.0,420.0,484.0,421.0,483.0,422.0,482.0,423.5,480.5,424.5,479.5,427.0,477.0,428.0,476.0" stroke="black" stroke-width="1" fill="none" />
<polyline points="433.0,471.0,434.5,469.5" stroke="black" stroke-width="1" fill="none" />
<polyline points="441.5,478.5,429.5,490.5" stroke="black" stroke-width="1" fill="none" />
<polyline points="415.5,488.5,413.5,490.5,411.5,492.5,402.5,501.5,401.5,502.5,392.5,511.5" stroke="black" stroke-width="1" fill="none" />
<polyline points="384.5,511.5,400.0,496.0,400.5,495.5,402.0,494.0,403.5,492.5,405.5,490.5,407.5,488.5,411.0,485.0,412.5,483.5,413.5,482.5" stroke="black" stroke-width="1" fill="none" />
<polyline points="408.0,480.0,406.5,481.5,404.0,484.0,403.5,484.5" stroke="black" stroke-width="1" fill="none" />
<polyline points="392.5,487.5,391.5,488.5,388.5,491.5,388.0,492.0,387.5,492.5,386.5,493.5" stroke="black" stroke-width="1" fill="none" />
<polyline points="391.5,496.5,393.5,494.5,389.5,498.5,384.5,503.5,383.5,504.5,376.5,511.5" stroke="black" stroke-width="1" fill="none" />
<polyline points="376.0,504.0,368.5,511.5" stroke="black" stroke-width="1" fill="none" />
<polyline points="360.5,511.5,371.5,500.5" stroke="black" stroke-width="1" fill="none" />
<polyline points="367.0,497.0,368.5,495.5" stroke="black" stroke-width="1" fill="none" />
<polyline points="378.5,501.5,382.5,497.5" stroke="black" stroke-width="1" fill="none" />
<polyline points="360.0,504.0,357.0,507.0,355.0,509.0,352.5,511.5" stroke="black" stroke-width="1" fill="none" />
<polyline points="348.0,508.0,354.0,502.0,356.5,499.5,357.5,498.5" stroke="black" stroke-width="1" fill="none" />
<polyline points="352.5,495.5,346.5,501.5,345.5,502.5,345.0,503.0" stroke="black" stroke-width="1" fill="none" />
<polyline points="347.5,508.5,347.0,509.0,346.0,510.0,344.5,511.5,340.5,507.5,343.0,505.0,339.0,509.0,336.5,511.5" stroke="black" stroke-width="1" fill="none" />
<polyline points="333.5,506.5,334.5,505.5,336.0,504.0,336.5,503.5" stroke="black" stroke-width="1" fill="none" />
<polyline points="329.5,502.5,328.5,503.5" stroke="black" stroke-width="1" fill="none" />
<polyline points="316.5,507.5,316.0,508.0" stroke="black" stroke-width="1" fill="none" />
<polyline points="307.0,509.0,306.5,509.5" stroke="black" stroke-width="1" fill="none" />
<polyline points="300.5,507.5,300.0,508.0,298.5,509.5,296.5,511.5" stroke="black" stroke-width="1" fill="none" />
<polyline points="293.5,506.5,294.0,506.0" stroke="black" stroke-width="1" fill="none" />
<polyline points="284.0,508.0,282.0,510.0" stroke="black" stroke-width="1" fill="none" />
<polyline points="259.5,508.5,259.0,509.0" stroke="black" stroke-width="1" fill="none" />
<polyline points="250.5,509.5,248.5,511.5" stroke="black" stroke-width="1" fill="none" />
<polyline points="236.0,508.0,235.5,508.5,235.0,509.0,234.5,509.5" stroke="black" stroke-width="1" fill="none" />
<polyline points="219.5,508.5,218.5,509.5,217.5,510.5,216.5,511.5,212.5,507.5,208.5,511.5" stroke="black" stroke-width="1" fill="none" />
<polyline points="208.0,504.0,210.5,501.5,206.5,505.5,200.5,511.5" stroke="black" stroke-width="1" fill="none" />
<polyline points="200.0,504.0,192.5,511.5" stroke="black" stroke-width="1" fill="none" />
<polyline points="184.5,511.5,199.0,497.0,200.0,497.0,200.0,511.5" stroke="black" stroke-width="1" fill="none" />
<polyline points="204.5,499.5,209.0,495.0,208.0,495.0,208.0,511.5" stroke="black" stroke-width="1" fill="none" />
<polyline points="199.5,511.5,0.0,312.0,0.0,312.0,328.0,312.0" stroke="black" stroke-width="1" fill="none" />
<polyline points="314.5,314.5,311.5,311.5" stroke="black" stroke-width="1" fill="none" />
<polyline points="307.5,299.5,297.0,289.0,300.5,291.5,303.5,288.5,306.5,290.5,312.5,296.5" stroke="black" stroke-width="1" fill="none" />
<polyline points="303.5,296.5,303.0,297.0,301.0,301.0,309.0,309.0" stroke="black" stroke-width="1" fill="none" />
<polyline points="295.5,319.5,291.5,315.5" stroke="black" stroke-width="1" fill="none" />
<polyline points="293.0,301.0,292.5,300.5,291.0,299.0,285.5,293.5" stroke="black" stroke-width="1" fill="none" />
<polyline points="281.0,297.0,284.0,300.0" stroke="black" stroke-width="1" fill="none" />
<polyline points="277.5,301.5,275.0,299.0,274.5,298.5,272.5,296.5" stroke="black" stroke-width="1" fill="none" />
<polyline points="261.5,309.5,258.0,306.0" stroke="black" stroke-width="1" fill="none" />
<polyline points="252.0,308.0,0.0,56.0,0.0,56.0,511.5,56.0" stroke="black" stroke-width="1" fill="none" />
<polyline points="504.0,0.0,316.5,187.5,315.0,189.0,312.5,191.5" stroke="black" stroke-width="1" fill="none" />
<polyline points="315.5,196.5,333.0,179.0" stroke="black" stroke-width="1" fill="none" />
<polyline points="317.0,171.0,488.0,0.0,488.0,0.0,488.0,378.0,488.0,376.0,487.0,375.0,482.0,376.0,511.5,376.0" stroke="black" stroke-width="1" fill="none" />
<polyline points="511.5,391.5,494.0,374.0" stroke="black" stroke-width="1" fill="none" />
<polyline points="488.5,367.5,487.0,369.0,485.5,368.0,511.5,368.0" stroke="black" stroke-width="1" fill="none" />
<polyline points="495.0,383.0,511.5,399.5" stroke="black" stroke-width="1" fill="none" />
<polyline points="511.5,407.5,494.5,390.5" stroke="black" stroke-width="1" fill="none" />
<polyline points="492.0,396.0,511.5,415.5" stroke="black" stroke-width="1" fill="none" />
<polyline points="511.5,431.5,486.5,406.5,487.5,408.5,490.0,406.0" stroke="black" stroke-width="1" fill="none" />
<polyline points="486.5,401.5,488.5,399.5,483.0,400.0,511.5,400.0" stroke="black" stroke-width="1" fill="none" />
<polyline points="511.5,424.0,488.5,424.0,491.0,427.0,511.5,447.5" stroke="black" stroke-width="1" fill="none" />
<polyline points="511.5,463.5,479.0,431.0,480.0,431.0,480.0,511.5" stroke="black" stroke-width="1" fill="none" />
<polyline points="457.0,439.0,461.0,435.0,459.5,435.5,511.5,487.5" stroke="black" stroke-width="1" fill="none" />
<polyline points="477.0,435.0,481.0,431.0" stroke="black" stroke-width="1" fill="none" />
<polyline points="488.0,428.5,488.0,511.5" stroke="black" stroke-width="1" fill="none" />
<polyline points="511.5,471.5,473.5,433.5,472.5,432.0,511.5,432.0" stroke="black" stroke-width="1" fill="none" />
<polyline points="511.5,456.0,370.5,456.0,369.0,457.0,372.5,460.5,374.0,462.0,377.5,465.5,379.0,467.0,423.5,511.5" stroke="black" stroke-width="1" fill="none" />
<polyline points="375.5,511.5,341.0,477.0,342.0,474.0,345.5,470.5,350.0,470.0,351.0,471.0,353.0,473.0,391.5,511.5" stroke="black" stroke-width="1" fill="none" />
<polyline points="350.0,490.0,345.5,494.5" stroke="black" stroke-width="1" fill="none" />
<polyline points="345.0,487.0,349.5,482.5" stroke="black" stroke-width="1" fill="none" />
<polyline points="347.0,477.0,343.5,480.5" stroke="black" stroke-width="1" fill="none" />
<polyline points="334.0,478.0,367.5,511.5" stroke="black" stroke-width="1" fill="none" />
<polyline points="327.5,511.5,297.0,481.0,294.0,478.0,292.0,476.0,292.0,476.0,291.0,477.0,290.5,477.5,289.5,478.5,288.5,480.5,286.0,478.0,288.0,476.0,288.0,511.5" stroke="black" stroke-width="1" fill="none" />
<polyline points="263.5,511.5,240.5,488.5,239.5,488.5,237.5,490.5,240.0,487.0,240.0,511.5" stroke="black" stroke-width="1" fill="none" />
<polyline points="226.0,494.0,229.5,490.5,229.5,488.0,511.5,488.0" stroke="black" stroke-width="1" fill="none" />
<polyline points="511.5,479.5,466.5,434.5,464.0,435.0,464.0,511.5" stroke="black" stroke-width="1" fill="none" />
<polyline points="511.5,495.5,453.5,437.5,456.0,437.0,456.0,511.5" stroke="black" stroke-width="1" fill="none" />
<polyline points="511.5,503.5,447.5,439.5,448.5,439.5,447.0,441.0,448.0,438.0,448.0,511.5" stroke="black" stroke-width="1" fill="none" />
<polyline points="399.5,511.5,350.0,462.0,352.0,461.0,352.0,511.5" stroke="black" stroke-width="1" fill="none" />
<polyline points="311.5,511.5,283.5,483.5,278.5,481.5,282.0,478.0,280.0,478.0,280.0,511.5" stroke="black" stroke-width="1" fill="none" />
<polyline points="255.5,511.5,233.0,489.0,232.0,489.0,232.0,511.5" stroke="black" stroke-width="1" fill="none" />
<polyline points="215.5,511.5,201.0,497.0" stroke="black" stroke-width="1" fill="none" />
<polyline points="207.0,495.0,223.5,511.5" stroke="black" stroke-width="1" fill="none" />
<polyline points="215.5,496.5,219.5,492.5,221.0,493.0,239.5,511.5" stroke="black" stroke-width="1" fill="none" />
<polyline points="231.5,511.5,214.0,494.0,216.0,493.0,216.0,511.5" stroke="black" stroke-width="1" fill="none" />
<polyline points="207.5,511.5,194.5,498.5,192.0,496.0,176.5,511.5" stroke="black" stroke-width="1" fill="none" />
<polyline points="168.5,511.5,191.0,489.0,192.0,487.0,192.0,511.5" stroke="black" stroke-width="1" fill="none" />
<polyline points="177.5,494.5,180.0,492.0,182.5,489.5,184.0,488.0,186.5,485.5,189.5,482.5,185.5,478.5,187.5,476.5" stroke="black" stroke-width="1" fill="none" />
<polyline points="184.0,472.0,185.5,470.5,182.5,470.5,187.5,475.5" stroke="black" stroke-width="1" fill="none" />
<polyline points="182.0,466.0,184.0,464.0,185.0,465.0,181.5,461.5,184.0,462.0,184.0,511.5" stroke="black" stroke-width="1" fill="none" />
<polyline points="177.0,495.0,160.5,511.5" stroke="black" stroke-width="1" fill="none" />
<polyline points="152.5,511.5,178.0,486.0,179.5,484.5,180.0,484.0" stroke="black" stroke-width="1" fill="none" />
<polyline points="173.5,482.5,144.5,511.5" stroke="black" stroke-width="1" fill="none" />
<polyline points="136.5,511.5,167.0,481.0,168.5,479.5,171.0,477.0" stroke="black" stroke-width="1" fill="none" />
<polyline points="166.5,473.5,165.0,475.0,163.5,476.5,128.5,511.5" stroke="black" stroke-width="1" fill="none" />
<polyline points="120.5,511.5,159.0,473.0,160.5,471.5,163.5,468.5,164.0,468.0,165.5,466.5" stroke="black" stroke-width="1" fill="none" />
<polyline points="160.0,464.0,112.5,511.5" stroke="black" stroke-width="1" fill="none" />
<polyline points="104.5,511.5,157.5,458.5" stroke="black" stroke-width="1" fill="none" />
<polyline points="155.0,453.0,159.5,448.5" stroke="black" stroke-width="1" fill="none" />
<polyline points="154.5,453.5,96.5,511.5" stroke="black" stroke-width="1" fill="none" />
<polyline points="88.5,511.5,163.0,437.0,164.5,435.5,165.0,435.0,169.0,431.0,171.0,429.0,167.0,425.0,170.0,422.0,166.0,426.0,165.5,426.5,163.0,429.0,80.5,511.5" stroke="black" stroke-width="1" fill="none" />
<polyline points="72.5,511.5,160.0,424.0,160.5,423.5,161.0,423.0" stroke="black" stroke-width="1" fill="none" />
<polyline points="156.0,420.0,64.5,511.5" stroke="black" stroke-width="1" fill="none" />
<polyline points="56.5,511.5,150.5,417.5" stroke="black" stroke-width="1" fill="none" />
<polyline points="147.0,413.0,53.5,506.5,51.5,508.5,48.5,511.5" stroke="black" stroke-width="1" fill="none" />
<polyline points="41.0,511.0,40.5,511.5,39.5,511.5,36.5,508.5,36.5,507.5,39.0,505.0,33.5,504.0,511.5,504.0" stroke="black" stroke-width="1" fill="none" />
<polyline points="431.5,511.5,384.5,464.5,383.0,463.0,381.0,461.0,379.0,459.0,376.5,456.5,376.0,455.5,376.0,511.5" stroke="black" stroke-width="1" fill="none" />
<polyline points="335.5,511.5,303.0,479.0,301.0,475.0,301.5,474.5,300.5,476.5,298.0,474.0,296.0,474.0,296.0,511.5" stroke="black" stroke-width="1" fill="none" />
<polyline points="271.5,511.5,250.5,490.5,248.0,488.0,249.0,487.0,248.0,486.0,248.0,511.5,247.5,511.5,227.0,491.0,224.0,491.0,224.0,511.5" stroke="black" stroke-width="1" fill="none" />
<polyline points="191.5,511.5,0.0,320.0,0.0,320.0,295.0,320.0" stroke="black" stroke-width="1" fill="none" />
<polyline points="298.5,298.5,296.5,296.5" stroke="black" stroke-width="1" fill="none" />
<polyline points="299.5,284.5,301.0,283.0,306.5,282.5,316.0,292.0" stroke="black" stroke-width="1" fill="none" />
<polyline points="329.0,289.0,332.0,292.0,334.5,294.5,335.0,295.0" stroke="black" stroke-width="1" fill="none" />
<polyline points="338.0,290.0,341.0,293.0,342.5,294.5,343.5,295.5" stroke="black" stroke-width="1" fill="none" />
<polyline points="348.0,292.0,350.0,294.0" stroke="black" stroke-width="1" fill="none" />
<polyline points="354.5,290.5,353.0,289.0,352.5,288.5,352.0,288.0,356.0,292.0,357.5,293.5,358.5,294.5,360.0,296.0,360.0,299.5,360.0,305.0,362.0,302.0,364.5,299.5,363.5,299.5,366.5,302.5,370.5,298.5,372.5,300.5,372.0,300.0,375.0,297.0,376.5,296.5,379.5,299.5,382.0,298.0,385.5,294.5,383.0,295.0,386.5,298.5" stroke="black" stroke-width="1" fill="none" />
<polyline points="390.0,294.0,392.5,296.5,392.5,295.5,395.5,292.5,396.5,292.5,398.5,294.5,402.5,293.5,405.5,290.5,402.0,290.0,406.0,294.0" stroke="black" stroke-width="1" fill="none" />
<polyline points="409.0,289.0,412.0,292.0,412.5,291.5,416.0,288.0,416.0,288.0,418.0,290.0" stroke="black" stroke-width="1" fill="none" />
<polyline points="413.5,285.5,174.5,46.5,174.5,49.5,157.0,67.0,161.0,71.0,166.5,65.5,168.5,63.5,174.0,58.0" stroke="black" stroke-width="1" fill="none" />
<polyline points="174.5,65.5,182.5,57.5" stroke="black" stroke-width="1" fill="none" />
<polyline points="188.5,59.5,189.5,58.5,190.5,57.5,192.5,55.5,193.0,55.0,198.0,50.0" stroke="black" stroke-width="1" fill="none" />
<polyline points="199.5,39.5,196.0,36.0,195.0,35.0,194.5,34.5,192.5,31.5,193.5,30.5,192.0,29.5,192.0,343.5,194.5,338.5,198.0,342.0" stroke="black" stroke-width="1" fill="none" />
<polyline points="185.5,345.5,181.0,341.0,177.0,343.0,173.0,347.0,171.5,348.5,171.0,349.0" stroke="black" stroke-width="1" fill="none" />
<polyline points="166.5,345.5,161.0,351.0,157.5,354.5,155.5,356.5,159.5,360.5,156.5,363.5,160.0,364.0,160.0,401.0" stroke="black" stroke-width="1" fill="none" />
<polyline points="160.0,408.0,160.0,511.5" stroke="black" stroke-width="1" fill="none" />
<polyline points="111.5,511.5,8.5,408.5,8.5,407.5,11.0,405.0,8.0,408.5,8.0,0.0,8.0,0.0,284.0,276.0,285.0,277.0,296.5,288.5" stroke="black" stroke-width="1" fill="none" />
<polyline points="298.5,277.5,299.5,276.5,295.5,272.5,299.0,269.0" stroke="black" stroke-width="1" fill="none" />
<polyline points="294.0,266.0,298.5,261.5" stroke="black" stroke-width="1" fill="none" />
<polyline points="293.0,259.0,296.5,255.5" stroke="black" stroke-width="1" fill="none" />
<polyline points="290.5,253.5,295.0,249.0" stroke="black" stroke-width="1" fill="none" />
<polyline points="289.5,246.5,294.0,242.0,296.0,240.0,297.0,239.0" stroke="black" stroke-width="1" fill="none" />
<polyline points="300.0,244.0,299.5,244.5" stroke="black" stroke-width="1" fill="none" />
<polyline points="308.0,236.0,308.5,235.5" stroke="black" stroke-width="1" fill="none" />
<polyline points="311.5,224.5,312.0,224.0,313.5,222.5,314.5,221.5" stroke="black" stroke-width="1" fill="none" />
<polyline points="311.5,216.5,309.0,219.0" stroke="black" stroke-width="1" fill="none" />
<polyline points="300.5,219.5,299.5,220.5,297.5,222.5,297.0,223.0" stroke="black" stroke-width="1" fill="none" />
<polyline points="294.5,217.5,295.5,216.5,299.5,212.5,301.0,211.0" stroke="black" stroke-width="1" fill="none" />
<polyline points="297.5,206.5,296.0,208.0" stroke="black" stroke-width="1" fill="none" />
<polyline points="292.5,203.5,291.0,205.0,290.5,205.5,289.0,207.0,286.0,210.0,281.0,215.0" stroke="black" stroke-width="1" fill="none" />
<polyline points="278.5,209.5,285.5,202.5,286.0,202.0,286.5,201.5,288.0,200.0,290.5,197.5,292.0,196.0,292.5,195.5,295.5,192.5,296.0,192.0,296.5,191.5,303.0,185.0,304.5,183.5,311.0,177.0,313.0,175.0,314.5,173.5,315.0,173.0,316.5,171.5" stroke="black" stroke-width="1" fill="none" />
<polyline points="308.5,171.5,319.5,160.5,320.5,159.5,324.5,155.5,325.0,155.0,480.0,0.0,480.0,0.0,480.0,329.0" stroke="black" stroke-width="1" fill="none" />
<polyline points="472.0,332.5,472.0,0.0,472.0,0.0,511.5,39.5" stroke="black" stroke-width="1" fill="none" />
<polyline points="511.5,15.5,496.0,0.0,496.0,0.0,496.0,511.5" stroke="black" stroke-width="1" fill="none" />
<polyline points="415.5,511.5,369.0,465.0" stroke="black" stroke-width="1" fill="none" />
<polyline points="364.0,460.0,364.5,459.5,363.0,459.0,365.0,461.0,368.0,457.0,368.0,511.5" stroke="black" stroke-width="1" fill="none" />
<polyline points="343.5,511.5,311.5,479.5,309.5,477.5,308.5,476.5,308.0,476.0,305.0,473.0,304.0,472.0,304.0,511.5" stroke="black" stroke-width="1" fill="none" />
<polyline points="279.5,511.5,256.5,488.5,258.5,485.5,262.0,482.0,264.0,482.0,264.0,511.5" stroke="black" stroke-width="1" fill="none" />
<polyline points="255.5,487.5,252.5,484.5,256.0,484.0,256.0,511.5" stroke="black" stroke-width="1" fill="none" />
<polyline points="249.0,489.0,246.5,486.5" stroke="black" stroke-width="1" fill="none" />
<polyline points="259.5,483.5,287.5,511.5" stroke="black" stroke-width="1" fill="none" />
<polyline points="295.5,511.5,270.0,486.0,268.5,483.5,272.0,480.0,272.0,480.0,272.0,511.5" stroke="black" stroke-width="1" fill="none" />
<polyline points="277.0,485.0,303.5,511.5" stroke="black" stroke-width="1" fill="none" />
<polyline points="319.5,511.5,290.0,482.0" stroke="black" stroke-width="1" fill="none" />
<polyline points="281.5,481.5,278.5,478.5,274.5,482.5,272.5,480.5,268.5,484.5,266.5,482.5,265.5,480.0,511.5,480.0" stroke="black" stroke-width="1" fill="none" />
<polyline points="455.5,511.5,404.5,460.5,404.0,460.0,403.5,459.5" stroke="black" stroke-width="1" fill="none" />
<polyline points="406.5,454.5,463.5,511.5" stroke="black" stroke-width="1" fill="none" />
<polyline points="407.5,511.5,361.5,465.5,360.0,464.0,357.0,461.0,355.0,461.0,353.0,463.0" stroke="black" stroke-width="1" fill="none" />
<polyline points="346.0,466.0,343.5,463.5,344.0,463.0,344.0,511.5" stroke="black" stroke-width="1" fill="none" />
<polyline points="351.5,511.5,318.0,478.0,322.0,474.0,359.5,511.5" stroke="black" stroke-width="1" fill="none" />
<polyline points="341.0,467.0,344.0,464.0" stroke="black" stroke-width="1" fill="none" />
<polyline points="337.5,464.0,511.5,464.0" stroke="black" stroke-width="1" fill="none" />
<polyline points="487.5,511.5,422.0,446.0,424.0,444.0,424.0,511.5" stroke="black" stroke-width="1" fill="none" />
<polyline points="383.5,511.5,337.5,465.5,336.0,465.0,336.0,511.5" stroke="black" stroke-width="1" fill="none" />
<polyline points="333.5,477.5,328.5,472.5,331.0,469.0,335.0,465.0,331.0,467.0,337.0,473.0" stroke="black" stroke-width="1" fill="none" />
<polyline points="327.0,471.0,323.5,467.5,323.5,468.5,321.5,470.5,320.0,469.0,320.0,511.5" stroke="black" stroke-width="1" fill="none" />
<polyline points="314.0,474.0,312.0,472.0,312.0,470.5,312.0,511.5" stroke="black" stroke-width="1" fill="none" />
<polyline points="319.5,471.5,318.0,470.0" stroke="black" stroke-width="1" fill="none" />
<polyline points="328.0,467.5,328.0,511.5" stroke="black" stroke-width="1" fill="none" />
<polyline points="360.0,511.5,360.0,459.0" stroke="black" stroke-width="1" fill="none" />
<polyline points="366.0,456.0,369.5,456.0,374.0,458.0,375.0,457.0" stroke="black" stroke-width="1" fill="none" />
<polyline points="383.0,455.0,385.0,457.0,384.5,455.5,385.0,455.0,384.0,454.0,384.0,511.5" stroke="black" stroke-width="1" fill="none" />
<polyline points="387.0,459.0,439.5,511.5" stroke="black" stroke-width="1" fill="none" />
<polyline points="447.5,511.5,396.0,460.0" stroke="black" stroke-width="1" fill="none" />
<polyline points="394.5,453.5,398.0,450.0,400.0,450.5,400.0,511.5" stroke="black" stroke-width="1" fill="none" />
<polyline points="391.0,455.0,388.5,452.5,392.0,452.5,392.0,511.5" stroke="black" stroke-width="1" fill="none" />
<polyline points="398.5,454.5,395.5,451.5" stroke="black" stroke-width="1" fill="none" />
<polyline points="401.5,448.0,511.5,448.0" stroke="black" stroke-width="1" fill="none" />
<polyline points="511.5,472.0,301.5,472.0" stroke="black" stroke-width="1" fill="none" />
<polyline points="402.5,450.5,405.0,453.0,404.5,451.5,408.0,448.0,408.0,448.0,408.0,511.5" stroke="black" stroke-width="1" fill="none" />
<polyline points="414.0,454.0,471.5,511.5" stroke="black" stroke-width="1" fill="none" />
<polyline points="479.5,511.5,418.5,450.5,414.5,449.5,418.0,446.0,416.0,446.0,416.0,511.5" stroke="black" stroke-width="1" fill="none" />
<polyline points="410.5,450.5,408.5,448.5" stroke="black" stroke-width="1" fill="none" />
<polyline points="414.5,446.5,417.5,449.5" stroke="black" stroke-width="1" fill="none" />
<polyline points="425.0,447.0,428.5,443.5,428.0,444.0,430.0,446.0,433.0,449.0,495.5,511.5" stroke="black" stroke-width="1" fill="none" />
<polyline points="503.5,511.5,434.0,442.0,432.0,441.5,432.0,511.5" stroke="black" stroke-width="1" fill="none" />
<polyline points="436.5,443.5,438.5,441.5,437.0,440.0,511.5,440.0" stroke="black" stroke-width="1" fill="none" />
<polyline points="511.5,416.0,486.5,416.0" stroke="black" stroke-width="1" fill="none" />
<polyline points="484.5,408.0,511.5,408.0" stroke="black" stroke-width="1" fill="none" />
<polyline points="489.0,369.0,486.5,366.5" stroke="black" stroke-width="1" fill="none" />
<polyline points="475.5,336.0,472.5,336.0" stroke="black" stroke-width="1" fill="none" />
<polyline points="470.0,328.0,511.5,328.0" stroke="black" stroke-width="1" fill="none" />
<polyline points="469.5,306.5,467.5,308.5,465.5,305.5,471.0,311.0,465.5,312.0,511.5,312.0" stroke="black" stroke-width="1" fill="none" />
<polyline points="468.0,300.0,465.5,302.5,463.0,304.0,511.5,304.0" stroke="black" stroke-width="1" fill="none" />
<polyline points="511.5,255.5,268.0,12.0,268.0,12.0,268.5,11.5,272.0,10.5,272.0,324.5" stroke="black" stroke-width="1" fill="none" />
<polyline points="243.0,331.0,240.5,328.5,239.0,329.0,236.0,332.0,236.5,332.5,234.5,330.5,230.5,334.5,227.0,331.0" stroke="black" stroke-width="1" fill="none" />
<polyline points="216.0,328.0,215.0,327.0" stroke="black" stroke-width="1" fill="none" />
<polyline points="208.5,328.5,0.0,120.0,0.0,120.0,511.5,120.0" stroke="black" stroke-width="1" fill="none" />
<polyline points="496.0,0.0,307.0,189.0" stroke="black" stroke-width="1" fill="none" />
<polyline points="310.5,193.5,306.0,198.0,302.0,194.0,303.5,192.5" stroke="black" stroke-width="1" fill="none" />
<polyline points="298.5,197.5,296.5,199.5" stroke="black" stroke-width="1" fill="none" />
<polyline points="288.5,191.5,290.0,190.0,292.0,188.0,303.0,177.0,304.5,175.5,307.5,172.5" stroke="black" stroke-width="1" fill="none" />
<polyline points="302.5,169.5,315.0,157.0,317.0,155.0,472.0,0.0" stroke="black" stroke-width="1" fill="none" />
<polyline points="464.0,0.0,464.0,300.0,460.5,296.0,511.5,296.0" stroke="black" stroke-width="1" fill="none" />
<polyline points="511.5,247.5,275.0,11.0,278.0,10.0,279.0,9.0,280.0,8.5,280.0,322.5" stroke="black" stroke-width="1" fill="none" />
<polyline points="247.5,311.5,0.0,64.0,0.0,64.0,511.5,64.0" stroke="black" stroke-width="1" fill="none" />
<polyline points="511.5,23.5,488.0,0.0" stroke="black" stroke-width="1" fill="none" />
<polyline points="480.0,0.0,511.5,31.5" stroke="black" stroke-width="1" fill="none" />
<polyline points="511.5,47.5,464.0,0.0,464.0,0.0,306.0,158.0,305.5,158.5,304.5,159.5,304.0,160.0,282.0,182.0" stroke="black" stroke-width="1" fill="none" />
<polyline points="287.5,184.5,288.0,184.0,288.5,183.5,295.0,177.0,296.0,176.0,300.5,171.5" stroke="black" stroke-width="1" fill="none" />
<polyline points="294.5,161.5,299.0,157.0,299.5,156.5,307.5,148.5,308.0,148.0,456.0,0.0,456.0,0.0,456.0,283.5,458.5,288.0,511.5,288.0" stroke="black" stroke-width="1" fill="none" />
<polyline points="443.5,260.5,442.5,261.5,439.0,265.0,437.0,267.0" stroke="black" stroke-width="1" fill="none" />
<polyline points="433.5,281.5,184.5,32.5,184.0,32.0,184.0,345.5" stroke="black" stroke-width="1" fill="none" />
<polyline points="160.5,367.5,158.0,370.0,162.0,374.0,160.5,375.5" stroke="black" stroke-width="1" fill="none" />
<polyline points="164.0,380.0,162.5,381.5,162.0,386.0,166.0,390.0,163.5,388.5,165.0,387.0" stroke="black" stroke-width="1" fill="none" />
<polyline points="151.5,399.5,0.0,248.0,0.0,248.0,511.5,248.0" stroke="black" stroke-width="1" fill="none" />
<polyline points="403.0,237.0,400.5,239.5" stroke="black" stroke-width="1" fill="none" />
<polyline points="393.5,230.5,397.0,227.0" stroke="black" stroke-width="1" fill="none" />
<polyline points="391.5,232.5,390.0,234.0,389.5,234.5,386.0,238.0,384.0,240.0,383.5,240.5" stroke="black" stroke-width="1" fill="none" />
<polyline points="385.5,246.5,383.0,249.0,380.5,251.5,380.0,252.0" stroke="black" stroke-width="1" fill="none" />
<polyline points="372.5,251.5,371.5,252.5" stroke="black" stroke-width="1" fill="none" />
<polyline points="363.0,245.0,364.0,244.0" stroke="black" stroke-width="1" fill="none" />
<polyline points="347.5,244.5,346.5,245.5" stroke="black" stroke-width="1" fill="none" />
<polyline points="332.5,235.5,332.0,236.0,329.0,239.0,328.5,239.5,324.5,235.5,325.5,234.5,327.0,233.0,327.5,232.5,323.5,236.5,322.0,238.0" stroke="black" stroke-width="1" fill="none" />
<polyline points="323.0,229.0,323.5,228.5" stroke="black" stroke-width="1" fill="none" />
<polyline points="321.5,222.5,322.0,222.0" stroke="black" stroke-width="1" fill="none" />
<polyline points="338.5,229.5,340.0,228.0,343.5,224.5,344.5,223.5" stroke="black" stroke-width="1" fill="none" />
<polyline points="314.5,197.5,313.5,198.5,311.5,200.5,309.0,203.0,307.0,205.0,305.5,206.5" stroke="black" stroke-width="1" fill="none" />
<polyline points="289.5,222.5,284.5,227.5,282.0,230.0,278.5,233.5" stroke="black" stroke-width="1" fill="none" />
<polyline points="273.0,231.0,272.0,232.0" stroke="black" stroke-width="1" fill="none" />
<polyline points="277.5,242.5,277.0,243.0" stroke="black" stroke-width="1" fill="none" />
<polyline points="282.0,246.0,283.0,245.0,284.5,243.5,285.0,243.0,288.0,240.0,292.0,236.0" stroke="black" stroke-width="1" fill="none" />
<polyline points="285.5,234.5,290.5,229.5" stroke="black" stroke-width="1" fill="none" />
<polyline points="282.5,221.5,288.5,215.5" stroke="black" stroke-width="1" fill="none" />
<polyline points="275.0,213.0,273.5,214.5,272.0,216.0,271.5,216.5" stroke="black" stroke-width="1" fill="none" />
<polyline points="269.0,211.0,271.0,209.0,271.5,208.5,273.5,206.5" stroke="black" stroke-width="1" fill="none" />
<polyline points="270.0,202.0,272.0,200.0,272.5,199.5,274.0,198.0,277.0,195.0,282.5,189.5,284.0,188.0,285.5,186.5" stroke="black" stroke-width="1" fill="none" />
<polyline points="284.0,196.0,278.0,202.0" stroke="black" stroke-width="1" fill="none" />
<polyline points="267.5,204.5,267.0,205.0,265.5,206.5,264.5,207.5,262.0,210.0,260.5,211.5,256.5,215.5,256.0,216.0,255.0,217.0,254.0,218.0,252.5,219.5,251.5,220.5,248.0,224.0,247.0,225.0,243.0,221.0,242.5,221.5,241.5,222.5,241.0,223.0" stroke="black" stroke-width="1" fill="none" />
<polyline points="237.5,218.5,238.5,217.5,240.0,216.0,240.5,215.5,241.0,215.0,245.0,211.0,247.0,209.0,248.5,207.5,252.0,204.0,255.5,200.5,258.5,197.5,260.0,196.0,262.0,194.0,265.5,190.5,267.0,189.0,279.5,176.5,281.5,174.5,287.0,169.0,288.0,168.0,291.5,164.5" stroke="black" stroke-width="1" fill="none" />
<polyline points="283.5,164.5,300.5,147.5,302.0,146.0,309.5,138.5,310.5,137.5,448.0,0.0,448.0,0.0,448.0,284.0" stroke="black" stroke-width="1" fill="none" />
<polyline points="432.0,288.0,188.5,44.5" stroke="black" stroke-width="1" fill="none" />
<polyline points="182.5,33.5,183.5,32.5,179.0,35.0,186.5,42.5" stroke="black" stroke-width="1" fill="none" />
<polyline points="180.5,44.5,175.5,39.5,172.5,35.5,173.5,34.5,171.5,35.5,174.0,38.0,176.0,34.0,176.0,347.5" stroke="black" stroke-width="1" fill="none" />
<polyline points="156.5,347.5,147.5,356.5" stroke="black" stroke-width="1" fill="none" />
<polyline points="144.5,351.5,136.0,360.0,135.0,361.0,132.5,363.5" stroke="black" stroke-width="1" fill="none" />
<polyline points="133.5,370.5,37.0,467.0" stroke="black" stroke-width="1" fill="none" />
<polyline points="41.5,470.5,131.0,381.0,131.5,380.5,135.5,376.5" stroke="black" stroke-width="1" fill="none" />
<polyline points="139.0,389.0,138.0,390.0,134.0,394.0,48.5,479.5" stroke="black" stroke-width="1" fill="none" />
<polyline points="53.0,483.0,137.5,398.5" stroke="black" stroke-width="1" fill="none" />
<polyline points="137.5,406.5,55.0,489.0,51.0,485.0,52.5,483.5" stroke="black" stroke-width="1" fill="none" />
<polyline points="43.0,483.0,71.5,511.5" stroke="black" stroke-width="1" fill="none" />
<polyline points="53.0,499.0,143.0,409.0" stroke="black" stroke-width="1" fill="none" />
<polyline points="129.5,390.5,135.5,384.5" stroke="black" stroke-width="1" fill="none" />
<polyline points="128.5,391.5,46.5,473.5" stroke="black" stroke-width="1" fill="none" />
<polyline points="32.0,483.5,32.0,495.5,31.5,496.0,511.5,496.0" stroke="black" stroke-width="1" fill="none" />
<polyline points="511.5,511.5,440.5,440.5,440.0,440.0,440.0,511.5" stroke="black" stroke-width="1" fill="none" />
<polyline points="464.5,432.0,469.5,432.0" stroke="black" stroke-width="1" fill="none" />
<polyline points="511.5,287.5,242.0,18.0,240.0,17.5,240.0,332.5" stroke="black" stroke-width="1" fill="none" />
<polyline points="228.0,316.0,227.0,315.0" stroke="black" stroke-width="1" fill="none" />
<polyline points="219.0,323.0,215.5,319.5" stroke="black" stroke-width="1" fill="none" />
<polyline points="200.5,328.5,0.0,128.0,0.0,128.0,511.5,128.0" stroke="black" stroke-width="1" fill="none" />
<polyline points="511.5,55.5,456.0,0.0" stroke="black" stroke-width="1" fill="none" />
<polyline points="448.0,0.0,511.5,63.5" stroke="black" stroke-width="1" fill="none" />
<polyline points="511.5,71.5,440.0,0.0,440.0,0.0,440.0,286.0" stroke="black" stroke-width="1" fill="none" />
<polyline points="408.0,288.0,407.0,287.0,405.0,285.0,167.5,47.5,167.0,47.0,165.5,45.5,165.0,45.0,164.0,44.0" stroke="black" stroke-width="1" fill="none" />
<polyline points="168.5,40.5,169.5,41.5,170.5,42.5,173.0,45.0" stroke="black" stroke-width="1" fill="none" />
<polyline points="167.0,39.0,164.5,36.5,168.0,36.0,168.0,350.0" stroke="black" stroke-width="1" fill="none" />
<polyline points="155.5,340.5,151.5,344.5" stroke="black" stroke-width="1" fill="none" />
<polyline points="150.0,338.0,154.5,333.5" stroke="black" stroke-width="1" fill="none" />
<polyline points="149.0,331.0,154.0,326.0" stroke="black" stroke-width="1" fill="none" />
<polyline points="151.5,320.5,147.0,325.0" stroke="black" stroke-width="1" fill="none" />
<polyline points="142.5,321.5,141.5,322.5,145.0,319.0,149.5,314.5,151.5,312.5,153.0,311.0" stroke="black" stroke-width="1" fill="none" />
<polyline points="155.0,317.0,154.5,317.5" stroke="black" stroke-width="1" fill="none" />
<polyline points="164.0,316.0,165.5,314.5" stroke="black" stroke-width="1" fill="none" />
<polyline points="153.0,303.0,152.0,304.0,155.5,300.5,156.0,300.0,158.5,297.5,159.0,297.0" stroke="black" stroke-width="1" fill="none" />
<polyline points="155.5,292.5,156.5,291.5,157.5,290.5,160.0,288.0,161.5,286.5,163.0,285.0,165.0,283.0,165.5,282.5,169.0,279.0,170.0,278.0,171.0,277.0,172.0,276.0,175.0,273.0,176.5,271.5,179.0,269.0,180.5,267.5,184.0,264.0,185.5,262.5,187.5,260.5,188.5,259.5,184.5,255.5,188.0,252.0" stroke="black" stroke-width="1" fill="none" />
<polyline points="194.0,254.0,194.5,253.5" stroke="black" stroke-width="1" fill="none" />
<polyline points="196.0,244.0,199.0,241.0" stroke="black" stroke-width="1" fill="none" />
<polyline points="194.5,237.5,195.5,236.5,191.5,240.5,190.0,242.0,188.0,244.0,187.5,244.5,183.5,240.5,184.0,240.0,184.5,239.5,185.0,239.0,185.5,238.5,190.0,234.0,186.0,230.0,188.5,227.5,192.0,224.0,193.5,222.5,196.5,219.5,201.5,214.5,204.0,212.0,204.5,211.5,206.5,209.5,213.5,202.5,214.5,201.5,218.5,197.5,220.0,196.0,220.5,195.5,222.5,193.5,224.0,192.0,224.5,191.5,227.0,189.0,227.5,188.5,229.5,186.5,230.0,186.0,237.5,178.5,238.5,177.5,253.0,163.0,256.0,160.0,258.5,157.5,260.0,156.0,280.0,136.0,281.0,135.0,416.0,0.0,416.0,0.0,416.0,292.0" stroke="black" stroke-width="1" fill="none" />
<polyline points="401.0,289.0,158.5,46.5,157.0,45.0,156.0,44.0,155.5,43.5,153.0,41.0,152.0,40.0,152.0,511.5" stroke="black" stroke-width="1" fill="none" />
<polyline points="103.5,511.5,31.0,439.0" stroke="black" stroke-width="1" fill="none" />
<polyline points="37.0,435.0,122.5,349.5,123.5,348.5,126.5,345.5,127.5,344.5,132.5,339.5,135.0,337.0,139.0,333.0,140.5,331.5,141.5,330.5,137.5,326.5,140.0,324.0,137.0,327.0,40.0,424.0,36.5,427.5,35.5,428.5" stroke="black" stroke-width="1" fill="none" />
<polyline points="34.0,422.0,35.0,421.0,36.0,420.0,116.0,340.0,117.0,339.0,127.0,329.0,128.0,328.0,132.0,324.0,132.5,323.5,135.0,321.0,136.0,320.0,138.5,317.5,141.0,315.0,142.0,314.0,144.0,312.0,149.0,307.0" stroke="black" stroke-width="1" fill="none" />
<polyline points="142.5,305.5,147.5,300.5,149.5,298.5,151.0,297.0,152.5,295.5,153.5,294.5" stroke="black" stroke-width="1" fill="none" />
<polyline points="152.5,287.5,154.0,286.0,154.5,285.5,156.0,284.0,158.0,282.0,159.0,281.0,162.0,278.0,163.0,277.0,167.0,273.0,170.0,270.0,171.0,269.0,174.0,266.0,176.0,264.0,179.0,261.0,180.0,260.0,180.5,259.5,182.5,257.5,183.5,256.5,179.5,252.5,181.0,251.0,178.5,253.5,170.0,262.0,168.5,263.5,167.0,265.0,164.5,267.5,159.5,272.5,158.5,273.5,153.5,278.5,151.5,280.5,148.5,283.5" stroke="black" stroke-width="1" fill="none" />
<polyline points="151.5,288.5,139.0,301.0,138.5,301.5,132.5,307.5" stroke="black" stroke-width="1" fill="none" />
<polyline points="138.5,309.5,140.5,307.5,137.0,311.0,34.5,413.5" stroke="black" stroke-width="1" fill="none" />
<polyline points="32.0,408.0,131.5,308.5" stroke="black" stroke-width="1" fill="none" />
<polyline points="133.5,298.5,144.0,288.0" stroke="black" stroke-width="1" fill="none" />
<polyline points="142.0,282.0,137.0,287.0,136.0,288.0,132.0,292.0,130.5,293.5,20.5,403.5" stroke="black" stroke-width="1" fill="none" />
<polyline points="15.5,400.5,124.5,291.5,125.5,290.5,134.5,281.5,135.5,280.5,149.5,266.5,150.5,265.5,154.5,261.5,155.0,261.0,156.5,259.5,159.5,256.5,163.0,253.0,164.5,251.5,165.5,250.5,168.5,247.5,171.0,245.0,172.0,244.0,172.5,243.5,175.5,240.5,176.5,239.5,177.5,238.5,178.5,237.5,179.0,237.0,179.5,236.5,181.0,235.0,185.0,231.0" stroke="black" stroke-width="1" fill="none" />
<polyline points="178.5,229.5,184.5,223.5,185.0,223.0,189.0,219.0,192.0,216.0,193.0,215.0,194.5,213.5,196.0,212.0,196.5,211.5,197.0,211.0,200.0,208.0,202.5,205.5,204.5,203.5,212.0,196.0" stroke="black" stroke-width="1" fill="none" />
<polyline points="209.0,191.0,214.5,185.5,216.5,183.5,219.0,181.0,220.0,180.0,221.0,179.0,222.0,178.0,236.0,164.0,238.5,161.5,240.5,159.5,241.5,158.5,242.0,158.0,243.5,156.5,253.5,146.5,255.0,145.0,268.5,131.5,270.0,130.0,274.5,125.5,275.5,124.5,400.0,0.0,400.0,0.0,400.0,295.0" stroke="black" stroke-width="1" fill="none" />
<polyline points="392.5,288.5,155.5,51.5,154.0,54.0,149.5,58.5,149.0,59.0,142.0,66.0,141.0,67.0,112.0,96.0" stroke="black" stroke-width="1" fill="none" />
<polyline points="116.5,99.5,133.5,82.5,134.5,81.5,164.0,52.0" stroke="black" stroke-width="1" fill="none" />
<polyline points="161.5,41.5,159.0,39.0,160.0,38.0,160.0,352.0" stroke="black" stroke-width="1" fill="none" />
<polyline points="140.0,348.0,138.5,349.5,134.5,353.5,25.0,463.0" stroke="black" stroke-width="1" fill="none" />
<polyline points="30.0,466.0,132.0,364.0" stroke="black" stroke-width="1" fill="none" />
<polyline points="129.0,351.0,130.0,350.0,131.0,349.0,131.5,348.5,132.0,348.0,132.5,347.5,135.0,345.0,138.0,342.0,139.5,340.5,140.0,340.0" stroke="black" stroke-width="1" fill="none" />
<polyline points="125.5,354.5,37.0,443.0" stroke="black" stroke-width="1" fill="none" />
<polyline points="30.5,446.5,95.5,511.5" stroke="black" stroke-width="1" fill="none" />
<polyline points="51.5,500.5,50.5,501.5" stroke="black" stroke-width="1" fill="none" />
<polyline points="47.5,511.5,33.5,497.5,33.0,495.0,35.0,493.0" stroke="black" stroke-width="1" fill="none" />
<polyline points="37.0,499.0,34.5,501.5" stroke="black" stroke-width="1" fill="none" />
<polyline points="41.0,497.0,55.5,511.5" stroke="black" stroke-width="1" fill="none" />
<polyline points="63.5,511.5,44.5,492.5" stroke="black" stroke-width="1" fill="none" />
<polyline points="34.0,490.0,31.0,487.0,29.5,488.0,194.0,488.0" stroke="black" stroke-width="1" fill="none" />
<polyline points="175.5,511.5,0.0,336.0,0.0,336.0,227.5,336.0" stroke="black" stroke-width="1" fill="none" />
<polyline points="193.5,337.5,0.0,144.0,0.0,144.0,511.5,144.0" stroke="black" stroke-width="1" fill="none" />
<polyline points="440.0,0.0,317.5,122.5,317.0,123.0,308.0,132.0,307.0,133.0,293.5,146.5,291.0,149.0,269.5,170.5,267.5,172.5,263.0,177.0,262.5,177.5,260.0,180.0,259.5,180.5,258.5,181.5" stroke="black" stroke-width="1" fill="none" />
<polyline points="263.0,185.0,261.0,187.0,264.0,184.0,267.5,180.5,270.0,178.0,271.0,177.0,271.5,176.5,281.0,167.0" stroke="black" stroke-width="1" fill="none" />
<polyline points="281.0,151.0,264.5,167.5,262.0,170.0,260.5,171.5" stroke="black" stroke-width="1" fill="none" />
<polyline points="258.0,182.0,253.0,187.0,251.0,189.0,249.0,191.0,248.0,192.0,238.5,201.5,237.0,203.0,236.5,203.5" stroke="black" stroke-width="1" fill="none" />
<polyline points="241.0,207.0,243.0,205.0,243.5,204.5,245.5,202.5,248.0,200.0,248.5,199.5,249.5,198.5,256.5,191.5,257.5,190.5,259.5,188.5" stroke="black" stroke-width="1" fill="none" />
<polyline points="251.0,181.0,259.0,173.0" stroke="black" stroke-width="1" fill="none" />
<polyline points="250.5,181.5,249.0,183.0,248.0,184.0,245.5,186.5,245.0,187.0,239.5,192.5,238.0,194.0,235.0,197.0" stroke="black" stroke-width="1" fill="none" />
<polyline points="230.0,194.0,237.0,187.0" stroke="black" stroke-width="1" fill="none" />
<polyline points="243.0,181.0,244.0,180.0,244.5,179.5,290.0,134.0,291.5,132.5,424.0,0.0,424.0,0.0,424.0,290.0" stroke="black" stroke-width="1" fill="none" />
<polyline points="380.0,284.0,370.5,274.5,370.0,274.0,143.5,47.5,139.5,44.5,140.5,43.5,139.0,43.0,143.0,47.0,144.0,42.0,144.0,511.5" stroke="black" stroke-width="1" fill="none" />
<polyline points="87.5,511.5,28.0,452.0,24.0,453.5,24.0,485.5,20.0,484.0,17.5,481.5,17.0,479.0,18.0,478.0,16.0,481.0,16.0,447.5,16.5,448.5,17.0,449.0,15.0,449.0,14.0,450.0,11.5,451.5,27.5,467.5" stroke="black" stroke-width="1" fill="none" />
<polyline points="24.0,456.0,24.5,455.5,23.5,455.5,79.5,511.5" stroke="black" stroke-width="1" fill="none" />
<polyline points="25.5,481.5,12.5,468.5,13.0,467.0,15.0,465.0,10.0,464.0,187.0,464.0" stroke="black" stroke-width="1" fill="none" />
<polyline points="181.5,458.5,182.0,458.0" stroke="black" stroke-width="1" fill="none" />
<polyline points="176.0,456.5,176.0,511.5" stroke="black" stroke-width="1" fill="none" />
<polyline points="127.5,511.5,0.0,384.0,0.0,384.0,166.5,384.0" stroke="black" stroke-width="1" fill="none" />
<polyline points="151.0,391.0,0.0,240.0,0.0,240.0,511.5,240.0" stroke="black" stroke-width="1" fill="none" />
<polyline points="511.5,103.5,408.0,0.0,408.0,0.0,408.0,294.0" stroke="black" stroke-width="1" fill="none" />
<polyline points="379.0,291.0,376.5,288.5,376.0,288.0,373.5,285.5,370.0,282.0,142.5,54.5,142.0,54.0,141.5,53.5,144.0,56.0,142.0,58.0,140.5,59.5,104.5,95.5,104.0,96.0,100.0,100.0,99.0,101.0,76.0,124.0" stroke="black" stroke-width="1" fill="none" />
<polyline points="92.5,115.5,111.0,97.0" stroke="black" stroke-width="1" fill="none" />
<polyline points="115.5,100.5,101.5,114.5" stroke="black" stroke-width="1" fill="none" />
<polyline points="119.0,113.0,121.0,111.0,121.5,110.5,130.0,102.0,131.0,101.0,138.5,93.5,139.0,93.0,146.0,86.0,147.0,85.0,157.5,74.5" stroke="black" stroke-width="1" fill="none" />
<polyline points="163.0,77.0,164.0,76.0,165.5,74.5,170.0,70.0,172.0,68.0,173.0,67.0" stroke="black" stroke-width="1" fill="none" />
<polyline points="174.0,74.0,180.5,67.5,182.0,66.0,187.0,61.0" stroke="black" stroke-width="1" fill="none" />
<polyline points="199.0,73.0,200.0,72.0,201.0,71.0,201.5,70.5,202.5,69.5,203.5,68.5,204.0,68.0,209.5,62.5,210.5,61.5,219.0,53.0,220.5,51.5,221.0,51.0,222.5,49.5,225.0,47.0,225.5,46.5,230.5,41.5" stroke="black" stroke-width="1" fill="none" />
<polyline points="236.0,44.0,230.5,49.5" stroke="black" stroke-width="1" fill="none" />
<polyline points="237.5,50.5,238.5,49.5,241.5,46.5,258.5,29.5" stroke="black" stroke-width="1" fill="none" />
<polyline points="264.0,40.0,253.0,51.0,252.5,51.5,252.0,52.0" stroke="black" stroke-width="1" fill="none" />
<polyline points="255.0,65.0,269.5,50.5" stroke="black" stroke-width="1" fill="none" />
<polyline points="284.5,67.5,303.5,48.5" stroke="black" stroke-width="1" fill="none" />
<polyline points="308.0,68.0,374.5,1.5,376.0,0.0,376.0,300.5" stroke="black" stroke-width="1" fill="none" />
<polyline points="374.0,294.0,373.5,293.5,369.5,289.5,364.5,284.5,364.0,284.0,362.5,282.5,362.0,282.0,127.5,47.5,128.0,45.0,128.0,511.5" stroke="black" stroke-width="1" fill="none" />
<polyline points="119.5,511.5,5.5,397.5,5.0,400.0,169.0,400.0" stroke="black" stroke-width="1" fill="none" />
<polyline points="169.0,408.0,170.0,408.0,168.0,411.5,168.0,511.5" stroke="black" stroke-width="1" fill="none" />
<polyline points="135.5,511.5,0.0,376.0,0.0,376.0,165.5,376.0" stroke="black" stroke-width="1" fill="none" />
<polyline points="168.0,416.0,169.0,417.0" stroke="black" stroke-width="1" fill="none" />
<polyline points="172.5,435.5,171.0,437.0" stroke="black" stroke-width="1" fill="none" />
<polyline points="166.5,446.5,0.0,280.0,0.0,280.0,511.5,280.0" stroke="black" stroke-width="1" fill="none" />
<polyline points="511.5,135.5,376.0,0.0" stroke="black" stroke-width="1" fill="none" />
<polyline points="368.0,0.0,368.0,303.0" stroke="black" stroke-width="1" fill="none" />
<polyline points="360.5,304.5,356.5,300.5,353.5,302.5,352.5,303.5,351.5,304.5,350.0,306.0,351.0,303.0,353.0,305.0" stroke="black" stroke-width="1" fill="none" />
<polyline points="347.0,307.0,344.5,304.5" stroke="black" stroke-width="1" fill="none" />
<polyline points="344.0,288.0,108.0,52.0,104.0,50.5,104.0,511.5" stroke="black" stroke-width="1" fill="none" />
<polyline points="143.5,511.5,0.0,368.0,0.0,368.0,164.0,368.0" stroke="black" stroke-width="1" fill="none" />
<polyline points="180.0,300.0,181.0,299.0" stroke="black" stroke-width="1" fill="none" />
<polyline points="183.0,289.0,184.0,288.0,186.0,286.0,188.0,284.0" stroke="black" stroke-width="1" fill="none" />
<polyline points="180.0,284.0,179.5,284.5" stroke="black" stroke-width="1" fill="none" />
<polyline points="177.5,278.5,178.5,277.5" stroke="black" stroke-width="1" fill="none" />
<polyline points="186.5,269.5,189.0,267.0" stroke="black" stroke-width="1" fill="none" />
<polyline points="192.0,272.0,196.0,268.0,198.0,266.0,199.0,265.0" stroke="black" stroke-width="1" fill="none" />
<polyline points="202.5,269.5,200.5,271.5" stroke="black" stroke-width="1" fill="none" />
<polyline points="210.5,253.5,211.5,252.5,213.5,250.5,214.5,249.5" stroke="black" stroke-width="1" fill="none" />
<polyline points="211.5,244.5,214.0,242.0" stroke="black" stroke-width="1" fill="none" />
<polyline points="206.5,241.5,205.0,243.0" stroke="black" stroke-width="1" fill="none" />
<polyline points="203.5,236.5,205.5,234.5,207.0,233.0,209.0,231.0,211.5,228.5,216.5,223.5,220.0,220.0,220.5,219.5" stroke="black" stroke-width="1" fill="none" />
<polyline points="224.0,224.0,226.5,221.5,230.0,218.0,232.0,216.0,235.5,212.5,237.5,210.5,238.5,209.5,239.0,209.0" stroke="black" stroke-width="1" fill="none" />
<polyline points="234.5,205.5,231.5,208.5,229.0,211.0,228.5,211.5,224.5,207.5,226.0,206.0" stroke="black" stroke-width="1" fill="none" />
<polyline points="224.0,200.0,229.0,195.0" stroke="black" stroke-width="1" fill="none" />
<polyline points="221.0,187.0,222.0,186.0,223.0,185.0,226.0,182.0,226.5,181.5,231.0,177.0,232.5,175.5,243.0,165.0,244.5,163.5,246.5,161.5,248.5,159.5,249.5,158.5,251.0,157.0,254.5,153.5,256.0,152.0,259.5,148.5,260.5,147.5,262.5,145.5,263.5,144.5,270.0,138.0,271.0,137.0,408.0,0.0" stroke="black" stroke-width="1" fill="none" />
<polyline points="400.0,0.0,511.5,111.5" stroke="black" stroke-width="1" fill="none" />
<polyline points="511.5,79.5,432.0,0.0,432.0,0.0,432.0,288.0" stroke="black" stroke-width="1" fill="none" />
<polyline points="363.5,291.5,362.5,290.5,360.0,288.0,357.5,285.5,354.0,282.0,126.5,54.5" stroke="black" stroke-width="1" fill="none" />
<polyline points="133.0,59.0,97.5,94.5,96.0,96.0,0.0,192.0,0.0,192.0,511.5,192.0" stroke="black" stroke-width="1" fill="none" />
<polyline points="511.5,87.5,424.0,0.0" stroke="black" stroke-width="1" fill="none" />
<polyline points="416.0,0.0,511.5,95.5" stroke="black" stroke-width="1" fill="none" />
<polyline points="432.0,0.0,329.5,102.5,329.0,103.0,299.0,133.0,298.5,133.5,293.5,138.5,292.5,139.5,284.5,147.5,284.0,148.0,281.5,150.5" stroke="black" stroke-width="1" fill="none" />
<polyline points="257.5,134.5,392.0,0.0,392.0,0.0,392.0,296.5" stroke="black" stroke-width="1" fill="none" />
<polyline points="350.0,286.0,341.0,277.0,340.0,276.0,113.5,49.5,112.0,48.5,112.0,511.5" stroke="black" stroke-width="1" fill="none" />
<polyline points="151.5,511.5,0.0,360.0,0.0,360.0,162.0,360.0" stroke="black" stroke-width="1" fill="none" />
<polyline points="170.5,293.5,172.0,292.0,173.0,291.0,173.5,290.5" stroke="black" stroke-width="1" fill="none" />
<polyline points="170.0,286.0,171.0,285.0" stroke="black" stroke-width="1" fill="none" />
<polyline points="165.5,290.5,164.0,292.0" stroke="black" stroke-width="1" fill="none" />
<polyline points="146.5,277.5,150.0,274.0,151.5,272.5,154.5,269.5,155.0,269.0,157.0,267.0,158.5,265.5,159.5,264.5" stroke="black" stroke-width="1" fill="none" />
<polyline points="164.5,259.5,172.5,251.5,176.0,248.0,177.5,246.5,179.0,245.0,182.0,242.0" stroke="black" stroke-width="1" fill="none" />
<polyline points="173.5,234.5,172.0,236.0,170.5,237.5,169.0,239.0,167.0,241.0,151.5,256.5,150.5,257.5,17.5,390.5,15.5,392.5,12.0,396.0,10.5,397.5,7.0,401.0" stroke="black" stroke-width="1" fill="none" />
<polyline points="5.0,395.0,9.0,391.0,9.5,390.5,143.5,256.5,144.0,256.0,146.5,253.5,148.0,252.0,150.0,250.0,150.5,249.5,167.0,233.0,169.0,231.0,173.0,227.0,173.5,226.5,182.0,218.0" stroke="black" stroke-width="1" fill="none" />
<polyline points="178.5,213.5,181.0,211.0,183.5,208.5,184.0,208.0,185.0,207.0,189.0,203.0,189.5,202.5,192.0,200.0,193.5,198.5,196.5,195.5,197.0,195.0,199.0,193.0,202.0,190.0,208.5,183.5,209.0,183.0,222.5,169.5,224.5,167.5,228.5,163.5,231.5,160.5,233.0,159.0,236.5,155.5,237.0,155.0,238.0,154.0,238.5,153.5,239.0,153.0,243.5,148.5,244.0,148.0,247.5,144.5,248.5,143.5,249.0,143.0" stroke="black" stroke-width="1" fill="none" />
<polyline points="247.0,137.0,249.0,135.0,250.5,133.5,265.0,119.0,266.0,118.0,384.0,0.0,384.0,0.0,384.0,298.5" stroke="black" stroke-width="1" fill="none" />
<polyline points="337.0,289.0,336.0,288.0" stroke="black" stroke-width="1" fill="none" />
<polyline points="286.5,257.5,286.0,258.0" stroke="black" stroke-width="1" fill="none" />
<polyline points="261.0,235.0,259.5,236.5" stroke="black" stroke-width="1" fill="none" />
<polyline points="248.5,231.5,247.5,232.5,244.5,235.5,244.0,236.0,243.0,237.0,242.0,238.0" stroke="black" stroke-width="1" fill="none" />
<polyline points="234.0,230.0,235.0,229.0,232.0,232.0,231.0,233.0" stroke="black" stroke-width="1" fill="none" />
<polyline points="228.0,228.0,225.5,230.5" stroke="black" stroke-width="1" fill="none" />
<polyline points="220.0,228.0,218.5,229.5" stroke="black" stroke-width="1" fill="none" />
<polyline points="210.0,222.0,211.5,220.5,212.5,219.5,219.0,213.0" stroke="black" stroke-width="1" fill="none" />
<polyline points="213.0,211.0,212.5,211.5" stroke="black" stroke-width="1" fill="none" />
<polyline points="217.5,206.5,220.0,204.0" stroke="black" stroke-width="1" fill="none" />
<polyline points="212.0,212.0,201.0,223.0" stroke="black" stroke-width="1" fill="none" />
<polyline points="204.5,227.5,204.0,228.0,206.5,225.5,207.5,224.5,208.0,224.0,208.5,223.5" stroke="black" stroke-width="1" fill="none" />
<polyline points="199.0,225.0,194.0,230.0" stroke="black" stroke-width="1" fill="none" />
<polyline points="188.5,211.5,191.5,208.5,192.0,208.0,192.5,207.5,194.5,205.5,196.0,204.0,196.5,203.5,207.0,193.0" stroke="black" stroke-width="1" fill="none" />
<polyline points="216.5,191.5,219.0,189.0" stroke="black" stroke-width="1" fill="none" />
<polyline points="213.5,170.5,215.5,168.5,216.5,167.5,220.0,164.0,222.0,162.0,233.0,151.0,233.5,150.5,236.5,147.5,238.5,145.5,246.5,137.5" stroke="black" stroke-width="1" fill="none" />
<polyline points="243.0,133.0,244.5,131.5,245.5,130.5,254.0,122.0,255.0,121.0,280.5,95.5,281.5,94.5,307.5,68.5" stroke="black" stroke-width="1" fill="none" />
<polyline points="281.5,86.5,364.5,3.5,368.0,0.0,511.5,143.5" stroke="black" stroke-width="1" fill="none" />
<polyline points="511.5,119.5,392.0,0.0" stroke="black" stroke-width="1" fill="none" />
<polyline points="384.0,0.0,511.5,127.5" stroke="black" stroke-width="1" fill="none" />
<polyline points="511.5,151.5,360.0,0.0,360.0,0.0,360.0,299.0" stroke="black" stroke-width="1" fill="none" />
<polyline points="334.5,286.5,108.5,60.5,111.5,64.5,108.0,68.0,107.5,68.5,94.5,81.5" stroke="black" stroke-width="1" fill="none" />
<polyline points="95.5,88.5,107.5,76.5,109.0,75.0,122.5,61.5" stroke="black" stroke-width="1" fill="none" />
<polyline points="125.5,53.5,120.5,48.5,120.0,47.0,120.0,511.5" stroke="black" stroke-width="1" fill="none" />
<polyline points="159.5,511.5,0.0,352.0,0.0,352.0,165.5,352.0" stroke="black" stroke-width="1" fill="none" />
<polyline points="133.0,299.0,28.5,403.5,28.0,404.0,25.5,406.5,23.5,408.5,22.0,410.0" stroke="black" stroke-width="1" fill="none" />
<polyline points="25.5,414.5,28.0,412.0,28.5,411.5,30.5,409.5" stroke="black" stroke-width="1" fill="none" />
<polyline points="14.5,417.5,12.5,419.5,12.0,420.0,17.0,425.0,16.0,424.0,14.5,425.5,12.0,424.0,171.0,424.0" stroke="black" stroke-width="1" fill="none" />
<polyline points="167.0,439.0,0.0,272.0,0.0,272.0,511.5,272.0" stroke="black" stroke-width="1" fill="none" />
<polyline points="280.5,183.5,272.0,192.0,271.0,193.0,267.0,197.0,265.5,198.5,257.0,207.0,255.0,209.0,251.5,212.5,249.5,214.5,249.0,215.0" stroke="black" stroke-width="1" fill="none" />
<polyline points="262.0,218.0,264.0,216.0" stroke="black" stroke-width="1" fill="none" />
<polyline points="235.5,220.5,234.5,221.5" stroke="black" stroke-width="1" fill="none" />
<polyline points="227.0,245.0,226.0,246.0" stroke="black" stroke-width="1" fill="none" />
<polyline points="222.0,302.0,232.0,312.0" stroke="black" stroke-width="1" fill="none" />
<polyline points="212.0,324.0,0.0,112.0,0.0,112.0,511.5,112.0" stroke="black" stroke-width="1" fill="none" />
<polyline points="354.0,6.0,263.0,97.0" stroke="black" stroke-width="1" fill="none" />
<polyline points="264.5,103.5,281.0,87.0" stroke="black" stroke-width="1" fill="none" />
<polyline points="268.5,83.5,284.0,68.0" stroke="black" stroke-width="1" fill="none" />
<polyline points="268.0,84.0,251.0,101.0,250.0,102.0,238.0,114.0,237.5,114.5,230.5,121.5" stroke="black" stroke-width="1" fill="none" />
<polyline points="235.0,125.0,233.0,127.0,236.5,123.5,244.5,115.5,245.0,115.0,260.5,99.5" stroke="black" stroke-width="1" fill="none" />
<polyline points="264.0,104.0,256.0,112.0,255.5,112.5,239.0,129.0,238.0,130.0,236.5,131.5,236.0,132.0,235.5,132.5,233.5,134.5,230.5,137.5" stroke="black" stroke-width="1" fill="none" />
<polyline points="235.0,141.0,233.5,142.5,235.5,140.5,242.5,133.5" stroke="black" stroke-width="1" fill="none" />
<polyline points="253.5,138.5,257.0,135.0" stroke="black" stroke-width="1" fill="none" />
<polyline points="232.0,144.0,229.5,146.5,228.0,148.0,224.0,152.0,222.5,153.5,217.5,158.5,216.5,159.5,212.0,164.0" stroke="black" stroke-width="1" fill="none" />
<polyline points="213.0,171.0,198.5,185.5,196.0,188.0,193.5,190.5,193.0,191.0,187.0,197.0,186.0,198.0,179.0,205.0,175.5,208.5,175.0,209.0,172.5,211.5,170.5,213.5" stroke="black" stroke-width="1" fill="none" />
<polyline points="174.0,218.0,150.0,242.0,148.5,243.5,146.5,245.5,145.0,247.0,10.5,381.5,9.5,382.5,3.0,389.0,2.0,392.0,168.0,392.0" stroke="black" stroke-width="1" fill="none" />
<polyline points="172.5,436.5,0.0,264.0,0.0,264.0,511.5,264.0" stroke="black" stroke-width="1" fill="none" />
<polyline points="511.5,159.5,352.0,0.0,352.0,0.0,352.0,306.5" stroke="black" stroke-width="1" fill="none" />
<polyline points="327.0,287.0,103.0,63.0,102.0,66.0,71.0,97.0,70.5,97.5,0.0,168.0" stroke="black" stroke-width="1" fill="none" />
<polyline points="0.0,160.0,511.5,160.0" stroke="black" stroke-width="1" fill="none" />
<polyline points="511.5,167.5,344.0,0.0" stroke="black" stroke-width="1" fill="none" />
<polyline points="336.0,0.0,336.0,309.5" stroke="black" stroke-width="1" fill="none" />
<polyline points="324.5,292.5,88.0,56.0,88.0,54.5,88.0,511.5" stroke="black" stroke-width="1" fill="none" />
<polyline points="24.5,472.5,11.0,459.0,11.5,460.5,14.0,458.0,10.0,456.0,184.0,456.0" stroke="black" stroke-width="1" fill="none" />
<polyline points="175.0,463.0,179.0,467.0" stroke="black" stroke-width="1" fill="none" />
<polyline points="168.0,456.0,0.0,288.0,0.0,288.0,436.0,288.0" stroke="black" stroke-width="1" fill="none" />
<polyline points="511.5,175.5,336.0,0.0" stroke="black" stroke-width="1" fill="none" />
<polyline points="328.0,0.0,328.0,311.5" stroke="black" stroke-width="1" fill="none" />
<polyline points="305.5,281.5,82.0,58.0,79.5,56.5,76.5,59.5" stroke="black" stroke-width="1" fill="none" />
<polyline points="77.5,50.5,66.0,62.0" stroke="black" stroke-width="1" fill="none" />
<polyline points="54.5,65.5,76.0,44.0" stroke="black" stroke-width="1" fill="none" />
<polyline points="74.0,38.0,44.0,68.0" stroke="black" stroke-width="1" fill="none" />
<polyline points="52.0,68.0,280.0,296.0" stroke="black" stroke-width="1" fill="none" />
<polyline points="305.5,289.5,16.0,0.0,16.0,0.0,16.0,435.5,19.0,435.0,15.5,431.5,16.5,431.5,17.5,430.5,14.5,432.0,173.0,432.0" stroke="black" stroke-width="1" fill="none" />
<polyline points="170.5,426.5,0.0,256.0,0.0,256.0,511.5,256.0" stroke="black" stroke-width="1" fill="none" />
<polyline points="511.5,183.5,328.0,0.0" stroke="black" stroke-width="1" fill="none" />
<polyline points="320.0,0.0,320.0,313.5" stroke="black" stroke-width="1" fill="none" />
<polyline points="255.5,303.5,253.0,301.0" stroke="black" stroke-width="1" fill="none" />
<polyline points="175.5,216.5,177.5,214.5" stroke="black" stroke-width="1" fill="none" />
<polyline points="168.5,215.5,165.5,218.5,164.5,219.5,148.5,235.5,147.0,237.0,8.5,375.5,7.5,376.5,0.0,384.0" stroke="black" stroke-width="1" fill="none" />
<polyline points="0.0,376.0,116.5,259.5,118.0,258.0,139.0,237.0,141.0,235.0,166.0,210.0,167.5,208.5,168.5,207.5,169.5,206.5,171.0,205.0,172.5,203.5,173.5,202.5,174.0,202.0,180.5,195.5,182.0,194.0,185.5,190.5,189.5,186.5,200.5,175.5,202.0,174.0,205.5,170.5,206.0,170.0,208.0,168.0" stroke="black" stroke-width="1" fill="none" />
<polyline points="201.5,166.5,215.0,153.0,216.0,152.0,218.5,149.5,220.0,148.0,228.5,139.5" stroke="black" stroke-width="1" fill="none" />
<polyline points="221.5,138.5,232.5,127.5" stroke="black" stroke-width="1" fill="none" />
<polyline points="229.5,122.5,218.5,133.5,216.5,135.5,215.0,137.0,214.0,138.0,205.0,147.0,209.0,151.0,210.5,149.5,211.0,149.0,218.5,141.5,220.0,140.0,220.5,139.5" stroke="black" stroke-width="1" fill="none" />
<polyline points="212.5,131.5,210.5,133.5,209.0,135.0,207.5,136.5,207.0,137.0,203.0,141.0" stroke="black" stroke-width="1" fill="none" />
<polyline points="197.0,139.0,202.0,134.0,202.5,133.5,204.5,131.5,205.0,131.0,205.5,130.5,206.0,130.0,212.5,123.5,213.5,122.5,217.0,119.0,218.0,118.0,220.0,116.0,221.0,115.0,225.5,110.5,226.5,109.5,227.0,109.0,228.0,108.0,228.5,107.5,230.0,106.0,233.5,102.5,235.0,101.0,266.0,70.0" stroke="black" stroke-width="1" fill="none" />
<polyline points="263.0,81.0,291.5,52.5" stroke="black" stroke-width="1" fill="none" />
<polyline points="262.5,81.5,242.5,101.5,241.0,103.0,233.5,110.5,233.0,111.0,220.5,123.5,216.5,127.5,214.5,129.5" stroke="black" stroke-width="1" fill="none" />
<polyline points="205.5,122.5,211.0,117.0,212.0,116.0,213.0,115.0,214.0,114.0,215.5,112.5,217.0,111.0,218.0,110.0,219.0,109.0,224.5,103.5,225.0,103.0,248.5,79.5,249.0,79.0,262.0,66.0" stroke="black" stroke-width="1" fill="none" />
<polyline points="254.5,65.5,236.0,84.0,235.0,85.0,231.5,88.5,231.0,89.0,230.0,90.0,227.5,92.5,213.5,106.5,211.5,108.5,209.0,111.0,208.0,112.0,205.5,114.5,205.0,115.0,174.5,145.5,174.0,146.0,170.5,149.5,169.5,150.5,168.5,151.5" stroke="black" stroke-width="1" fill="none" />
<polyline points="174.0,154.0,177.5,150.5,179.5,148.5,186.5,141.5,187.0,141.0,189.5,138.5,191.5,136.5,197.5,130.5,198.0,130.0,204.0,124.0,204.5,123.5,205.0,123.0" stroke="black" stroke-width="1" fill="none" />
<polyline points="196.5,115.5,200.5,111.5,201.0,111.0,214.0,98.0,214.5,97.5,218.5,93.5,219.0,93.0,221.5,90.5,223.0,89.0,231.5,80.5,232.0,80.0,290.5,21.5" stroke="black" stroke-width="1" fill="none" />
<polyline points="288.0,8.0,288.5,7.5,288.0,6.5,288.0,321.5" stroke="black" stroke-width="1" fill="none" />
<polyline points="154.0,386.0,0.0,232.0,0.0,232.0,511.5,232.0" stroke="black" stroke-width="1" fill="none" />
<polyline points="511.5,191.5,320.0,0.0" stroke="black" stroke-width="1" fill="none" />
<polyline points="312.0,0.0,312.0,315.5" stroke="black" stroke-width="1" fill="none" />
<polyline points="177.0,191.0,191.0,177.0,193.5,174.5,194.0,174.0,197.0,171.0,201.0,167.0" stroke="black" stroke-width="1" fill="none" />
<polyline points="198.0,162.0,195.5,164.5,193.5,166.5,191.5,168.5,189.5,170.5,187.0,173.0,184.0,176.0,183.0,177.0,182.0,178.0,180.5,179.5,179.5,180.5,169.0,191.0" stroke="black" stroke-width="1" fill="none" />
<polyline points="176.5,191.5,163.5,204.5,161.5,206.5,159.0,209.0,158.5,209.5,155.0,213.0,152.0,216.0,144.0,224.0,143.0,225.0,138.0,230.0,137.0,231.0,119.5,248.5,118.0,250.0,0.0,368.0" stroke="black" stroke-width="1" fill="none" />
<polyline points="0.0,360.0,96.0,264.0,96.5,263.5,104.0,256.0,104.5,255.5,138.0,222.0,139.5,220.5,140.0,220.0,141.5,218.5,154.5,205.5,155.0,205.0,159.0,201.0,160.0,200.0,168.5,191.5" stroke="black" stroke-width="1" fill="none" />
<polyline points="171.0,181.0,157.0,195.0,156.5,195.5,153.5,198.5,153.0,199.0,151.0,201.0,150.0,202.0,146.5,205.5,146.0,206.0,144.0,208.0,141.0,211.0,131.5,220.5,131.0,221.0,128.5,223.5,128.0,224.0,117.5,234.5,116.0,236.0,108.0,244.0,107.5,244.5,104.5,247.5,103.5,248.5,101.0,251.0,100.0,252.0,0.0,352.0" stroke="black" stroke-width="1" fill="none" />
<polyline points="0.0,344.0,192.0,344.0" stroke="black" stroke-width="1" fill="none" />
<polyline points="158.0,382.0,0.0,224.0,0.0,224.0,511.5,224.0" stroke="black" stroke-width="1" fill="none" />
<polyline points="308.5,3.5,309.0,3.0,306.5,2.5,511.5,207.5" stroke="black" stroke-width="1" fill="none" />
<polyline points="511.5,199.5,312.0,0.0" stroke="black" stroke-width="1" fill="none" />
<polyline points="304.0,2.0,304.0,317.5" stroke="black" stroke-width="1" fill="none" />
<polyline points="164.0,380.0,0.0,216.0,0.0,216.0,511.5,216.0,511.5,215.5,301.0,5.0,296.0,4.0,296.0,319.5" stroke="black" stroke-width="1" fill="none" />
<polyline points="161.5,369.5,0.0,208.0,0.0,208.0,511.5,208.0" stroke="black" stroke-width="1" fill="none" />
<polyline points="511.5,223.5,293.5,5.5" stroke="black" stroke-width="1" fill="none" />
<polyline points="287.0,7.0,511.5,231.5" stroke="black" stroke-width="1" fill="none" />
<polyline points="208.5,151.5,202.0,158.0,201.5,158.5,199.5,160.5" stroke="black" stroke-width="1" fill="none" />
<polyline points="196.0,156.0,197.0,155.0,198.0,154.0,199.5,152.5,200.0,152.0,204.5,147.5" stroke="black" stroke-width="1" fill="none" />
<polyline points="198.0,146.0,197.0,147.0,195.0,149.0,194.0,150.0,192.0,152.0,187.5,156.5,191.5,160.5,188.5,163.5,187.5,164.5,184.5,167.5,183.5,168.5,182.0,170.0,180.5,171.5,172.0,180.0" stroke="black" stroke-width="1" fill="none" />
<polyline points="169.5,174.5,166.0,178.0,165.0,179.0,161.0,183.0,159.5,184.5,148.5,195.5,146.5,197.5,140.0,204.0,138.0,206.0,127.0,217.0,126.5,217.5,113.0,231.0,112.0,232.0,111.0,233.0,110.0,234.0,108.0,236.0,107.0,237.0,0.5,343.5,0.0,344.0,167.5,511.5" stroke="black" stroke-width="1" fill="none" />
<polyline points="183.5,511.5,0.0,328.0,0.0,328.0,263.5,328.0" stroke="black" stroke-width="1" fill="none" />
<polyline points="159.5,359.5,0.0,200.0,0.0,200.0,511.5,200.0" stroke="black" stroke-width="1" fill="none" />
<polyline points="251.0,53.0,242.0,62.0,239.0,65.0,237.5,66.5,236.5,67.5,230.0,74.0,228.5,75.5,215.5,88.5,212.5,91.5,210.0,94.0,209.5,94.5,200.5,103.5,199.5,104.5,197.0,107.0,196.5,107.5,194.0,110.0,192.5,111.5,181.5,122.5,181.0,123.0,178.0,126.0,177.5,126.5,156.5,147.5,160.5,151.5,159.0,153.0,161.0,151.0,174.0,138.0,175.0,137.0,192.0,120.0,192.5,119.5,195.0,117.0" stroke="black" stroke-width="1" fill="none" />
<polyline points="188.5,107.5,190.5,105.5,191.5,104.5,194.5,101.5,195.0,101.0,197.5,98.5,198.5,97.5,201.5,94.5,202.0,94.0,207.0,89.0,208.0,88.0,211.0,85.0,211.5,84.5,222.0,74.0,223.0,73.0,225.0,71.0,225.5,70.5,227.0,69.0,228.5,67.5,232.5,63.5,234.5,61.5,253.5,42.5" stroke="black" stroke-width="1" fill="none" />
<polyline points="236.5,51.5,220.5,67.5,219.0,69.0,218.5,69.5,216.5,71.5,207.0,81.0,205.5,82.5,191.0,97.0,189.5,98.5,187.0,101.0" stroke="black" stroke-width="1" fill="none" />
<polyline points="188.0,108.0,177.5,118.5,177.0,119.0,163.5,132.5,163.0,133.0,152.0,144.0,156.0,148.0,150.0,154.0" stroke="black" stroke-width="1" fill="none" />
<polyline points="152.5,159.5,155.5,156.5" stroke="black" stroke-width="1" fill="none" />
<polyline points="152.5,167.5,166.5,153.5" stroke="black" stroke-width="1" fill="none" />
<polyline points="173.0,155.0,167.0,161.0" stroke="black" stroke-width="1" fill="none" />
<polyline points="170.5,165.5,173.0,163.0,175.0,161.0,176.5,159.5,178.0,158.0,181.0,155.0,182.0,154.0,196.0,140.0" stroke="black" stroke-width="1" fill="none" />
<polyline points="187.0,157.0,181.0,163.0,180.5,163.5,177.0,167.0,176.0,168.0,173.5,170.5,172.0,172.0,171.5,172.5" stroke="black" stroke-width="1" fill="none" />
<polyline points="166.5,169.5,163.5,172.5,160.5,175.5,158.5,177.5,157.0,179.0,153.0,183.0,152.5,183.5,139.5,196.5,137.5,198.5,131.0,205.0,130.0,206.0,115.0,221.0,114.5,221.5,0.0,336.0" stroke="black" stroke-width="1" fill="none" />
<polyline points="0.0,328.0,113.0,215.0,113.5,214.5,122.5,205.5,125.5,202.5,149.5,178.5,151.0,177.0,154.5,173.5,155.0,173.0,158.5,169.5,159.0,169.0,166.5,161.5" stroke="black" stroke-width="1" fill="none" />
<polyline points="152.0,168.0,113.5,206.5,113.0,207.0,100.5,219.5,100.0,220.0,0.0,320.0" stroke="black" stroke-width="1" fill="none" />
<polyline points="0.0,312.0,99.5,212.5,100.0,212.0,103.5,208.5,105.5,206.5,128.5,183.5,129.5,182.5,131.0,181.0,131.5,180.5,135.5,176.5,136.5,175.5,151.5,160.5" stroke="black" stroke-width="1" fill="none" />
<polyline points="149.0,155.0,108.0,196.0,107.5,196.5,90.5,213.5,90.0,214.0,0.0,304.0,0.0,304.0,364.5,304.0" stroke="black" stroke-width="1" fill="none" />
<polyline points="511.5,239.5,281.0,9.0" stroke="black" stroke-width="1" fill="none" />
<polyline points="264.0,12.5,264.0,326.5" stroke="black" stroke-width="1" fill="none" />
<polyline points="160.0,352.0,0.0,192.0" stroke="black" stroke-width="1" fill="none" />
<polyline points="0.0,184.0,511.5,184.0" stroke="black" stroke-width="1" fill="none" />
<polyline points="511.5,263.5,261.5,13.5,256.0,14.5,256.0,328.5" stroke="black" stroke-width="1" fill="none" />
<polyline points="166.0,350.0,0.0,184.0,0.0,184.0,86.5,97.5,87.5,96.5,95.0,89.0" stroke="black" stroke-width="1" fill="none" />
<polyline points="93.5,82.5,0.0,176.0,0.0,176.0,511.5,176.0" stroke="black" stroke-width="1" fill="none" />
<polyline points="511.5,271.5,255.5,15.5" stroke="black" stroke-width="1" fill="none" />
<polyline points="246.5,17.5,245.5,18.5" stroke="black" stroke-width="1" fill="none" />
<polyline points="230.0,22.0,511.5,303.5" stroke="black" stroke-width="1" fill="none" />
<polyline points="511.5,311.5,228.0,28.0,227.5,27.5,226.0,26.0,225.0,23.0,226.5,21.5,224.0,21.5,224.0,337.0" stroke="black" stroke-width="1" fill="none" />
<polyline points="172.5,348.5,0.0,176.0" stroke="black" stroke-width="1" fill="none" />
<polyline points="0.0,160.0,179.5,339.5" stroke="black" stroke-width="1" fill="none" />
<polyline points="186.5,338.5,0.0,152.0,0.0,152.0,511.5,152.0" stroke="black" stroke-width="1" fill="none" />
<polyline points="229.5,50.5,220.5,59.5,220.0,60.0,216.0,64.0,215.0,65.0,213.5,66.5,212.5,67.5,207.5,72.5,205.5,74.5,200.5,79.5,199.5,80.5,196.0,84.0,192.5,87.5,172.5,107.5" stroke="black" stroke-width="1" fill="none" />
<polyline points="172.0,116.0,186.0,102.0" stroke="black" stroke-width="1" fill="none" />
<polyline points="178.0,94.0,182.5,89.5,183.5,88.5,196.0,76.0,196.5,75.5,198.0,74.0" stroke="black" stroke-width="1" fill="none" />
<polyline points="177.5,94.5,158.5,113.5" stroke="black" stroke-width="1" fill="none" />
<polyline points="158.5,121.5,172.0,108.0" stroke="black" stroke-width="1" fill="none" />
<polyline points="170.5,117.5,163.0,125.0,162.5,125.5,157.5,130.5,156.5,131.5,132.0,156.0,131.0,157.0,0.0,288.0" stroke="black" stroke-width="1" fill="none" />
<polyline points="0.0,296.0,401.0,296.0" stroke="black" stroke-width="1" fill="none" />
<polyline points="511.5,319.5,219.5,27.5,219.0,27.0,216.0,24.0,216.0,23.5,216.0,338.5" stroke="black" stroke-width="1" fill="none" />
<polyline points="198.5,334.5,0.0,136.0,0.0,136.0,511.5,136.0" stroke="black" stroke-width="1" fill="none" />
<polyline points="225.5,25.5,223.5,23.5" stroke="black" stroke-width="1" fill="none" />
<polyline points="219.5,35.5,210.0,26.0,208.0,25.5,208.0,340.0" stroke="black" stroke-width="1" fill="none" />
<polyline points="214.0,318.0,0.0,104.0,0.0,104.0,511.5,104.0" stroke="black" stroke-width="1" fill="none" />
<polyline points="200.5,32.5,197.5,29.5,200.0,27.5,200.0,341.5" stroke="black" stroke-width="1" fill="none" />
<polyline points="226.0,314.0,0.0,88.0,0.0,88.0,511.5,88.0" stroke="black" stroke-width="1" fill="none" />
<polyline points="193.0,33.0,190.5,30.5" stroke="black" stroke-width="1" fill="none" />
<polyline points="151.0,41.0,150.0,42.0,149.0,45.0,146.0,42.0" stroke="black" stroke-width="1" fill="none" />
<polyline points="151.5,47.5,155.0,51.0" stroke="black" stroke-width="1" fill="none" />
<polyline points="156.5,67.5,142.0,82.0,140.0,84.0,138.0,86.0" stroke="black" stroke-width="1" fill="none" />
<polyline points="146.0,94.0,154.5,85.5,155.5,84.5,156.0,84.0,157.0,83.0,162.5,77.5" stroke="black" stroke-width="1" fill="none" />
<polyline points="167.5,80.5,173.5,74.5" stroke="black" stroke-width="1" fill="none" />
<polyline points="167.0,81.0,156.5,91.5" stroke="black" stroke-width="1" fill="none" />
<polyline points="159.5,104.5,126.0,138.0,125.5,138.5,111.5,152.5" stroke="black" stroke-width="1" fill="none" />
<polyline points="122.5,149.5,144.5,127.5,146.0,126.0,151.5,120.5,152.0,120.0,157.5,114.5" stroke="black" stroke-width="1" fill="none" />
<polyline points="157.5,122.5,153.5,126.5,152.5,127.5,136.5,143.5,136.0,144.0,132.5,147.5,131.0,149.0,127.0,153.0" stroke="black" stroke-width="1" fill="none" />
<polyline points="142.5,153.5,151.0,145.0" stroke="black" stroke-width="1" fill="none" />
<polyline points="142.0,154.0,81.5,214.5,80.5,215.5,0.0,296.0,0.0,296.0,190.0,486.0" stroke="black" stroke-width="1" fill="none" />
<polyline points="192.0,496.0,0.0,304.0" stroke="black" stroke-width="1" fill="none" />
<polyline points="0.0,280.0,126.0,154.0,122.0,150.0,0.0,272.0" stroke="black" stroke-width="1" fill="none" />
<polyline points="0.0,264.0,110.5,153.5" stroke="black" stroke-width="1" fill="none" />
<polyline points="118.5,129.5,136.0,112.0,137.5,110.5,145.5,102.5,146.0,102.0,156.0,92.0" stroke="black" stroke-width="1" fill="none" />
<polyline points="156.0,100.0,150.5,105.5,149.0,107.0,143.5,112.5,142.0,114.0,141.5,114.5,140.5,115.5,0.0,256.0" stroke="black" stroke-width="1" fill="none" />
<polyline points="0.0,248.0,118.0,130.0" stroke="black" stroke-width="1" fill="none" />
<polyline points="145.5,94.5,0.0,240.0" stroke="black" stroke-width="1" fill="none" />
<polyline points="0.0,232.0,118.0,114.0" stroke="black" stroke-width="1" fill="none" />
<polyline points="137.0,87.0,0.0,224.0" stroke="black" stroke-width="1" fill="none" />
<polyline points="0.0,216.0,60.0,156.0,60.5,155.5,100.5,115.5" stroke="black" stroke-width="1" fill="none" />
<polyline points="92.0,116.0,0.0,208.0" stroke="black" stroke-width="1" fill="none" />
<polyline points="0.0,200.0,75.5,124.5" stroke="black" stroke-width="1" fill="none" />
<polyline points="66.0,94.0,71.5,88.5,72.5,87.5,80.0,80.0,81.0,79.0,91.5,68.5" stroke="black" stroke-width="1" fill="none" />
<polyline points="81.0,71.0,66.0,86.0,65.5,86.5,56.5,95.5,56.0,96.0,42.0,110.0,41.5,110.5,0.0,152.0" stroke="black" stroke-width="1" fill="none" />
<polyline points="0.0,144.0,51.0,93.0,52.0,92.0,64.0,80.0,65.5,78.5,69.5,74.5" stroke="black" stroke-width="1" fill="none" />
<polyline points="64.0,96.0,0.0,160.0" stroke="black" stroke-width="1" fill="none" />
<polyline points="0.0,136.0,59.0,77.0" stroke="black" stroke-width="1" fill="none" />
<polyline points="49.0,79.0,0.0,128.0" stroke="black" stroke-width="1" fill="none" />
<polyline points="0.0,120.0,38.5,81.5" stroke="black" stroke-width="1" fill="none" />
<polyline points="28.0,84.0,0.0,112.0" stroke="black" stroke-width="1" fill="none" />
<polyline points="0.0,104.0,18.0,86.0" stroke="black" stroke-width="1" fill="none" />
<polyline points="7.0,89.0,0.0,96.0" stroke="black" stroke-width="1" fill="none" />
<polyline points="0.0,80.0,511.5,80.0" stroke="black" stroke-width="1" fill="none" />
<polyline points="140.0,52.0,137.0,49.0,135.5,47.5,133.5,45.5,130.5,45.5,130.0,46.0" stroke="black" stroke-width="1" fill="none" />
<polyline points="136.0,43.5,136.0,511.5" stroke="black" stroke-width="1" fill="none" />
<polyline points="176.0,448.0,176.0,446.5" stroke="black" stroke-width="1" fill="none" />
<polyline points="221.5,301.5,0.0,80.0,1.0,79.0,62.0,18.0,64.5,15.5,66.0,14.0,68.5,12.5,66.5,10.5,63.5,8.5,0.0,72.0,0.0,72.0,511.5,72.0" stroke="black" stroke-width="1" fill="none" />
<polyline points="107.5,59.5,101.5,53.5,104.0,48.5,104.0,46.5" stroke="black" stroke-width="1" fill="none" />
<polyline points="96.0,43.0,96.0,51.0,96.0,52.0,96.0,511.5" stroke="black" stroke-width="1" fill="none" />
<polyline points="80.0,511.5,80.0,50.0,78.0,46.0,32.0,0.0,32.0,0.0,32.0,471.0" stroke="black" stroke-width="1" fill="none" />
<polyline points="16.0,472.0,14.0,474.0,11.5,472.0,189.5,472.0" stroke="black" stroke-width="1" fill="none" />
<polyline points="239.5,311.5,0.0,72.0" stroke="black" stroke-width="1" fill="none" />
<polyline points="0.0,64.0,61.0,3.0,64.0,0.0,64.0,511.5" stroke="black" stroke-width="1" fill="none" />
<polyline points="72.0,511.5,72.0,25.0" stroke="black" stroke-width="1" fill="none" />
<polyline points="72.5,31.5,33.5,70.5" stroke="black" stroke-width="1" fill="none" />
<polyline points="22.0,74.0,70.0,26.0" stroke="black" stroke-width="1" fill="none" />
<polyline points="65.5,22.5,68.0,20.0,64.5,23.5,11.5,76.5" stroke="black" stroke-width="1" fill="none" />
<polyline points="0.0,56.0,56.0,0.0,56.0,0.0,56.0,511.5" stroke="black" stroke-width="1" fill="none" />
<polyline points="48.0,511.5,48.0,0.0,48.0,0.0,68.5,20.5" stroke="black" stroke-width="1" fill="none" />
<polyline points="80.0,22.5,80.0,34.0" stroke="black" stroke-width="1" fill="none" />
<polyline points="73.0,33.0,40.0,0.0,40.0,0.0,40.0,511.5" stroke="black" stroke-width="1" fill="none" />
<polyline points="12.5,488.0,11.5,488.0" stroke="black" stroke-width="1" fill="none" />
<polyline points="13.5,480.0,192.0,480.0" stroke="black" stroke-width="1" fill="none" />
<polyline points="24.0,439.5,24.0,0.0,24.0,0.0,80.5,56.5" stroke="black" stroke-width="1" fill="none" />
<polyline points="88.0,53.0,88.0,50.0" stroke="black" stroke-width="1" fill="none" />
<polyline points="94.5,54.5,101.5,61.5" stroke="black" stroke-width="1" fill="none" />
<polyline points="96.0,42.5,96.0,25.0" stroke="black" stroke-width="1" fill="none" />
<polyline points="88.0,21.5,88.0,48.0" stroke="black" stroke-width="1" fill="none" />
<polyline points="88.0,8.5,88.0,6.5" stroke="black" stroke-width="1" fill="none" />
<polyline points="96.0,6.5,96.0,4.5" stroke="black" stroke-width="1" fill="none" />
<polyline points="104.0,4.0,104.0,3.0" stroke="black" stroke-width="1" fill="none" />
<polyline points="112.0,1.0,112.0,0.0" stroke="black" stroke-width="1" fill="none" />
<polyline points="80.0,8.0,80.0,11.5" stroke="black" stroke-width="1" fill="none" />
<polyline points="72.0,14.0,72.0,3.0" stroke="black" stroke-width="1" fill="none" />
<polyline points="64.5,8.5,56.0,0.0" stroke="black" stroke-width="1" fill="none" />
<polyline points="48.0,0.0,0.0,48.0,0.0,48.0,511.5,48.0" stroke="black" stroke-width="1" fill="none" />
<polyline points="40.0,0.0,0.0,40.0" stroke="black" stroke-width="1" fill="none" />
<polyline points="0.0,32.0,511.5,32.0" stroke="black" stroke-width="1" fill="none" />
<polyline points="32.0,0.0,0.0,32.0,0.0,32.0,262.5,294.5" stroke="black" stroke-width="1" fill="none" />
<polyline points="13.0,411.0,11.0,413.0,9.5,416.0,171.0,416.0" stroke="black" stroke-width="1" fill="none" />
<polyline points="252.0,300.0,0.0,48.0" stroke="black" stroke-width="1" fill="none" />
<polyline points="0.0,24.0,511.5,24.0" stroke="black" stroke-width="1" fill="none" />
<polyline points="24.0,0.0,0.0,24.0,0.0,24.0,271.0,295.0" stroke="black" stroke-width="1" fill="none" />
<polyline points="285.0,293.0,0.0,8.0,0.0,8.0,511.5,8.0" stroke="black" stroke-width="1" fill="none" />
<polyline points="16.0,0.0,0.0,16.0,0.0,16.0,511.5,16.0" stroke="black" stroke-width="1" fill="none" />
<polyline points="8.0,0.0,0.0,8.0" stroke="black" stroke-width="1" fill="none" />
<polyline points="0.0,0.0,0.0,390.5" stroke="black" stroke-width="1" fill="none" />
<polyline points="7.0,408.0,166.0,408.0" stroke="black" stroke-width="1" fill="none" />
<polyline points="181.5,448.0,20.0,448.0,18.5,448.0,10.5,448.0" stroke="black" stroke-width="1" fill="none" />
<polyline points="17.0,440.0,175.0,440.0" stroke="black" stroke-width="1" fill="none" />
<polyline points="51.5,67.5,0.0,16.0" stroke="black" stroke-width="1" fill="none" />
<polyline points="0.0,0.0,294.5,294.5" stroke="black" stroke-width="1" fill="none" />
<polyline points="0.0,0.0,0.0,0.0" stroke="black" stroke-width="1" fill="none" />
</svg>