<svg xmlns="http://www.w3.org/2000/svg" height="252px" width="252px" version="1.1"><polyline points="22.0,18.0,12.0,34.0,6.0,50.0,4.0,66.0,2.0,82.0,4.0,98.0,14.0,104.0,30.0,94.0,46.0,80.0,72.0,68.0,76.0,62.0,92.0,48.0,100.0,34.0,116.0,10.0,134.0,8.0,150.0,10.0,158.0,18.0,166.0,34.0,170.0,32.0,170.0,48.0,172.0,58.0" stroke="black" stroke-width="1" fill="none" />
<polyline points="158.0,60.0,142.0,62.0,126.0,60.0" stroke="black" stroke-width="1" fill="none" />
<polyline points="118.0,56.0,110.0,50.0,102.0,66.0,82.0,82.0,66.0,90.0,66.0,106.0,66.0,122.0,54.0,138.0,58.0,154.0,70.0,166.0,80.0,172.0,68.0,176.0,60.0,178.0" stroke="black" stroke-width="1" fill="none" />
<polyline points="54.0,142.0,70.0,156.0,86.0,156.0,102.0,148.0,122.0,158.0,126.0,174.0,134.0,182.0,126.0,198.0,128.0,214.0,126.0,230.0,108.0,240.0,104.0,242.0,120.0,236.0" stroke="black" stroke-width="1" fill="none" />
<polyline points="132.0,238.0,136.0,222.0,140.0,206.0,140.0,190.0,142.0,168.0,134.0,168.0,128.0,152.0,132.0,136.0,134.0,120.0,128.0,110.0" stroke="black" stroke-width="1" fill="none" />
<polyline points="140.0,118.0,156.0,112.0,172.0,112.0,188.0,112.0,204.0,114.0" stroke="black" stroke-width="1" fill="none" />
<polyline points="186.0,118.0,202.0,118.0,218.0,120.0,232.0,134.0" stroke="black" stroke-width="1" fill="none" />
<polyline points="236.0,174.0,236.0,184.0,242.0,200.0,246.0,212.0,252.0,228.0" stroke="black" stroke-width="1" fill="none" />
<polyline points="214.0,244.0,222.0,228.0,216.0,218.0,214.0,202.0,216.0,186.0,246.0,168.0,246.0,154.0,246.0,138.0,246.0,122.0,240.0,118.0,250.0,102.0,252.0,86.0,252.0,70.0,248.0,66.0,232.0,62.0,232.0,62.0,240.0,78.0,242.0,94.0,236.0,110.0,224.0,126.0,238.0,142.0,230.0,158.0,214.0,174.0,202.0,198.0,204.0,214.0,200.0,230.0,202.0,246.0,208.0,248.0,234.0,238.0" stroke="black" stroke-width="1" fill="none" />
<polyline points="240.0,196.0,228.0,184.0,208.0,178.0,194.0,190.0,178.0,194.0,162.0,198.0" stroke="black" stroke-width="1" fill="none" />
<polyline points="144.0,188.0,170.0,196.0,164.0,196.0,164.0,212.0,164.0,228.0,170.0,232.0,170.0,242.0" stroke="black" stroke-width="1" fill="none" />
<polyline points="166.0,248.0,150.0,248.0" stroke="black" stroke-width="1" fill="none" />
<polyline points="150.0,232.0,148.0,236.0,156.0,218.0,154.0,202.0,138.0,194.0" stroke="black" stroke-width="1" fill="none" />
<polyline points="132.0,156.0,140.0,130.0,142.0,114.0,126.0,92.0,126.0,76.0,126.0,60.0,108.0,62.0" stroke="black" stroke-width="1" fill="none" />
<polyline points="104.0,56.0,120.0,44.0,136.0,52.0,152.0,52.0" stroke="black" stroke-width="1" fill="none" />
<polyline points="158.0,32.0,142.0,26.0,148.0,22.0,128.0,16.0,112.0,16.0" stroke="black" stroke-width="1" fill="none" />
<polyline points="108.0,2.0,124.0,4.0,140.0,2.0,162.0,24.0,156.0,36.0,150.0,52.0,154.0,68.0" stroke="black" stroke-width="1" fill="none" />
<polyline points="108.0,90.0,92.0,94.0" stroke="black" stroke-width="1" fill="none" />
<polyline points="90.0,86.0,106.0,78.0,110.0,88.0,90.0,102.0,106.0,102.0" stroke="black" stroke-width="1" fill="none" />
<polyline points="90.0,112.0,74.0,112.0" stroke="black" stroke-width="1" fill="none" />
<polyline points="64.0,112.0,80.0,104.0,74.0,120.0,74.0,136.0" stroke="black" stroke-width="1" fill="none" />
<polyline points="82.0,130.0,90.0,128.0,100.0,120.0,88.0,102.0,98.0,94.0,90.0,94.0,94.0,78.0,84.0,80.0,68.0,88.0,66.0,96.0" stroke="black" stroke-width="1" fill="none" />
<polyline points="48.0,108.0,26.0,86.0,44.0,64.0,58.0,48.0,64.0,46.0,48.0,34.0,32.0,36.0" stroke="black" stroke-width="1" fill="none" />
<polyline points="22.0,34.0,16.0,50.0,12.0,66.0,12.0,82.0,8.0,88.0,24.0,92.0,26.0,86.0,42.0,74.0,50.0,56.0,64.0,52.0" stroke="black" stroke-width="1" fill="none" />
<polyline points="56.0,54.0,66.0,70.0,58.0,76.0,52.0,92.0,58.0,108.0,50.0,118.0,46.0,134.0,48.0,148.0,52.0,164.0,58.0,180.0" stroke="black" stroke-width="1" fill="none" />
<polyline points="106.0,248.0,122.0,252.0" stroke="black" stroke-width="1" fill="none" />
<polyline points="232.0,238.0,236.0,222.0,232.0,204.0,222.0,188.0" stroke="black" stroke-width="1" fill="none" />
<polyline points="222.0,168.0,206.0,172.0,190.0,182.0,174.0,182.0,158.0,182.0,142.0,166.0,120.0,156.0,104.0,164.0,92.0,164.0,86.0,174.0,70.0,188.0,86.0,176.0,98.0,152.0,118.0,136.0,124.0,120.0,126.0,120.0,106.0,116.0,96.0,122.0,80.0,128.0,108.0,124.0,104.0,108.0,118.0,94.0,120.0,78.0,108.0,62.0,88.0,56.0,94.0,40.0,102.0,24.0,96.0,16.0,96.0,0.0,98.0,10.0" stroke="black" stroke-width="1" fill="none" />
<polyline points="88.0,18.0,88.0,26.0,86.0,42.0" stroke="black" stroke-width="1" fill="none" />
<polyline points="88.0,70.0,104.0,66.0,108.0,72.0,114.0,88.0,134.0,104.0,150.0,102.0,166.0,102.0,182.0,102.0,198.0,104.0,214.0,104.0,218.0,110.0,232.0,104.0" stroke="black" stroke-width="1" fill="none" />
<polyline points="70.0,36.0,54.0,24.0,38.0,20.0,22.0,18.0,6.0,36.0" stroke="black" stroke-width="1" fill="none" />
<polyline points="14.0,52.0,30.0,28.0,46.0,28.0" stroke="black" stroke-width="1" fill="none" />
<polyline points="50.0,78.0,46.0,90.0,46.0,106.0,46.0,122.0,76.0,138.0,92.0,138.0,108.0,124.0" stroke="black" stroke-width="1" fill="none" />
</svg>