<svg xmlns="http://www.w3.org/2000/svg" height="254px" width="254px" version="1.1"><polyline points="164.0,4.0,154.0,20.0,146.0,36.0,146.0,52.0,146.0,68.0,138.0,84.0,124.0,92.0,146.0,96.0,148.0,112.0,152.0,128.0,152.0,144.0,146.0,158.0,128.0,174.0,124.0,190.0,128.0,206.0,134.0,222.0,134.0,228.0,138.0,244.0" stroke="black" stroke-width="1" fill="none" />
<polyline points="158.0,222.0,154.0,206.0,138.0,212.0,136.0,196.0,138.0,180.0,116.0,178.0" stroke="black" stroke-width="1" fill="none" />
<polyline points="138.0,200.0,154.0,200.0" stroke="black" stroke-width="1" fill="none" />
<polyline points="142.0,212.0,128.0,222.0,112.0,226.0" stroke="black" stroke-width="1" fill="none" />
<polyline points="104.0,240.0,104.0,224.0,106.0,208.0,110.0,192.0,86.0,180.0,70.0,176.0" stroke="black" stroke-width="1" fill="none" />
<polyline points="54.0,178.0,58.0,168.0,62.0,190.0,62.0,206.0,58.0,222.0,52.0,238.0" stroke="black" stroke-width="1" fill="none" />
<polyline points="64.0,224.0,80.0,222.0" stroke="black" stroke-width="1" fill="none" />
<polyline points="86.0,234.0,70.0,212.0,70.0,196.0,70.0,180.0,70.0,154.0,46.0,140.0,40.0,124.0,44.0,108.0,22.0,96.0,12.0,80.0,10.0,64.0,10.0,48.0,14.0,32.0,20.0,20.0,4.0,16.0,4.0,16.0,4.0,32.0,4.0,48.0,2.0,64.0,4.0,80.0,10.0,96.0,28.0,114.0,34.0,130.0,28.0,140.0,38.0,152.0,42.0,166.0,46.0,182.0,40.0,198.0,38.0,214.0,24.0,244.0,40.0,240.0,42.0,218.0,58.0,230.0,66.0,244.0,82.0,244.0" stroke="black" stroke-width="1" fill="none" />
<polyline points="40.0,240.0,48.0,224.0,52.0,208.0,54.0,192.0,56.0,176.0,40.0,164.0" stroke="black" stroke-width="1" fill="none" />
<polyline points="52.0,146.0,68.0,152.0,78.0,164.0,94.0,168.0,110.0,164.0,126.0,154.0,128.0,160.0,138.0,164.0" stroke="black" stroke-width="1" fill="none" />
<polyline points="164.0,122.0,180.0,130.0" stroke="black" stroke-width="1" fill="none" />
<polyline points="208.0,102.0,224.0,104.0" stroke="black" stroke-width="1" fill="none" />
<polyline points="224.0,94.0,208.0,96.0" stroke="black" stroke-width="1" fill="none" />
<polyline points="224.0,72.0,208.0,54.0" stroke="black" stroke-width="1" fill="none" />
<polyline points="202.0,40.0,202.0,56.0,206.0,74.0,206.0,90.0,206.0,116.0,206.0,132.0,196.0,148.0,200.0,152.0" stroke="black" stroke-width="1" fill="none" />
<polyline points="188.0,138.0,188.0,130.0,170.0,136.0,164.0,122.0,164.0,106.0,166.0,90.0,170.0,74.0,162.0,52.0,154.0,48.0,158.0,32.0,172.0,16.0,188.0,22.0,178.0,18.0,162.0,26.0,162.0,36.0" stroke="black" stroke-width="1" fill="none" />
<polyline points="158.0,50.0,170.0,52.0,164.0,68.0,146.0,90.0,154.0,98.0,156.0,116.0,156.0,132.0,162.0,148.0,158.0,152.0,178.0,154.0,194.0,152.0" stroke="black" stroke-width="1" fill="none" />
<polyline points="134.0,114.0,138.0,130.0,146.0,136.0,138.0,138.0,122.0,154.0,116.0,182.0,118.0,198.0,118.0,214.0,102.0,234.0,118.0,254.0,132.0,248.0,146.0,232.0,162.0,220.0" stroke="black" stroke-width="1" fill="none" />
<polyline points="44.0,216.0,44.0,200.0" stroke="black" stroke-width="1" fill="none" />
<polyline points="36.0,216.0,20.0,222.0,20.0,222.0,20.0,238.0" stroke="black" stroke-width="1" fill="none" />
<polyline points="30.0,106.0,14.0,104.0" stroke="black" stroke-width="1" fill="none" />
<polyline points="14.0,82.0,30.0,98.0,44.0,88.0,40.0,84.0,52.0,82.0,60.0,72.0,76.0,70.0,92.0,74.0,108.0,72.0,114.0,82.0,130.0,84.0,130.0,96.0" stroke="black" stroke-width="1" fill="none" />
<polyline points="160.0,84.0,152.0,80.0,130.0,110.0,114.0,106.0,98.0,86.0,82.0,84.0,66.0,88.0,52.0,106.0,54.0,100.0,76.0,84.0" stroke="black" stroke-width="1" fill="none" />
<polyline points="146.0,30.0,162.0,8.0,178.0,4.0,194.0,4.0,202.0,12.0,216.0,26.0,220.0,28.0,230.0,44.0,228.0,54.0,240.0,70.0,254.0,74.0,250.0,90.0,246.0,106.0,232.0,112.0,240.0,116.0" stroke="black" stroke-width="1" fill="none" />
<polyline points="242.0,82.0,234.0,102.0,232.0,94.0,230.0,78.0,220.0,62.0,208.0,66.0,218.0,54.0,208.0,38.0,196.0,38.0,196.0,38.0,196.0,54.0,194.0,70.0,196.0,86.0,196.0,102.0,196.0,118.0,212.0,118.0,228.0,118.0" stroke="black" stroke-width="1" fill="none" />
<polyline points="250.0,62.0,234.0,58.0,230.0,48.0,222.0,44.0,206.0,32.0,190.0,26.0" stroke="black" stroke-width="1" fill="none" />
<polyline points="190.0,38.0,188.0,54.0" stroke="black" stroke-width="1" fill="none" />
</svg>