<svg xmlns="http://www.w3.org/2000/svg" height="252px" width="250px" version="1.1"><polyline points="18.0,32.0,20.0,48.0" stroke="black" stroke-width="1" fill="none" />
<polyline points="34.0,54.0,50.0,38.0,66.0,30.0,82.0,26.0,98.0,30.0,114.0,36.0,130.0,50.0,146.0,64.0" stroke="black" stroke-width="1" fill="none" />
<polyline points="172.0,54.0,172.0,64.0,188.0,68.0,204.0,86.0,220.0,104.0,226.0,106.0" stroke="black" stroke-width="1" fill="none" />
<polyline points="212.0,88.0,228.0,84.0,222.0,76.0,236.0,84.0,240.0,100.0,234.0,114.0,222.0,122.0,220.0,138.0,230.0,140.0,230.0,156.0,238.0,156.0,240.0,174.0,212.0,178.0,196.0,184.0,188.0,200.0,166.0,216.0,150.0,224.0" stroke="black" stroke-width="1" fill="none" />
<polyline points="162.0,196.0,178.0,198.0,188.0,184.0,214.0,186.0,230.0,176.0" stroke="black" stroke-width="1" fill="none" />
<polyline points="234.0,166.0,218.0,160.0,202.0,174.0,186.0,178.0,170.0,176.0,152.0,176.0,152.0,162.0,136.0,140.0,120.0,140.0,112.0,142.0,106.0,126.0,106.0,110.0,116.0,90.0,130.0,82.0,128.0,64.0,140.0,48.0,124.0,32.0,114.0,16.0,98.0,14.0,82.0,16.0,66.0,18.0,50.0,26.0,34.0,30.0,18.0,32.0" stroke="black" stroke-width="1" fill="none" />
<polyline points="42.0,20.0,58.0,14.0,54.0,22.0,36.0,38.0,24.0,54.0,8.0,70.0,8.0,86.0,6.0,102.0,4.0,118.0,4.0,134.0,6.0,150.0,8.0,166.0,8.0,182.0,14.0,182.0,20.0,204.0,30.0,216.0,34.0,232.0,50.0,234.0,52.0,250.0,66.0,246.0,68.0,242.0,84.0,248.0,104.0,252.0,120.0,252.0,136.0,250.0,162.0,238.0,186.0,228.0" stroke="black" stroke-width="1" fill="none" />
<polyline points="182.0,164.0,196.0,148.0,202.0,134.0,206.0,132.0,218.0,118.0,212.0,102.0,208.0,90.0,212.0,80.0,204.0,64.0,200.0,66.0,178.0,50.0,176.0,34.0,152.0,34.0" stroke="black" stroke-width="1" fill="none" />
<polyline points="162.0,32.0,170.0,48.0,170.0,50.0,172.0,66.0,184.0,74.0,198.0,76.0,194.0,78.0" stroke="black" stroke-width="1" fill="none" />
<polyline points="194.0,60.0,178.0,50.0" stroke="black" stroke-width="1" fill="none" />
<polyline points="170.0,86.0,174.0,102.0,182.0,104.0,162.0,118.0,152.0,134.0,138.0,142.0,140.0,158.0,142.0,174.0,144.0,174.0" stroke="black" stroke-width="1" fill="none" />
<polyline points="158.0,172.0,146.0,156.0" stroke="black" stroke-width="1" fill="none" />
<polyline points="150.0,140.0,124.0,134.0,108.0,128.0,112.0,126.0,128.0,124.0" stroke="black" stroke-width="1" fill="none" />
<polyline points="112.0,114.0,112.0,118.0,120.0,102.0,146.0,82.0" stroke="black" stroke-width="1" fill="none" />
<polyline points="164.0,78.0,158.0,88.0,146.0,100.0,126.0,104.0,108.0,98.0,108.0,102.0,110.0,86.0" stroke="black" stroke-width="1" fill="none" />
<polyline points="112.0,108.0,128.0,114.0" stroke="black" stroke-width="1" fill="none" />
<polyline points="170.0,118.0,170.0,134.0,158.0,146.0,164.0,162.0" stroke="black" stroke-width="1" fill="none" />
<polyline points="172.0,158.0,172.0,142.0" stroke="black" stroke-width="1" fill="none" />
<polyline points="174.0,120.0,184.0,136.0,184.0,152.0,198.0,146.0,214.0,138.0,234.0,136.0,250.0,114.0" stroke="black" stroke-width="1" fill="none" />
<polyline points="202.0,120.0,188.0,126.0,172.0,118.0" stroke="black" stroke-width="1" fill="none" />
<polyline points="222.0,122.0,242.0,116.0,250.0,100.0,250.0,84.0,244.0,76.0,228.0,74.0,218.0,96.0,210.0,110.0,198.0,116.0,182.0,102.0,172.0,114.0,156.0,122.0,154.0,112.0,148.0,116.0,150.0,110.0,142.0,94.0,154.0,78.0,152.0,64.0,152.0,48.0,154.0,32.0,140.0,24.0" stroke="black" stroke-width="1" fill="none" />
<polyline points="112.0,24.0,128.0,24.0,154.0,8.0,158.0,22.0,174.0,28.0,176.0,42.0,192.0,52.0,208.0,52.0,218.0,70.0,234.0,68.0,250.0,68.0" stroke="black" stroke-width="1" fill="none" />
<polyline points="228.0,152.0,208.0,150.0,200.0,166.0,194.0,160.0,194.0,168.0,178.0,168.0,162.0,174.0,156.0,156.0,148.0,140.0,142.0,118.0,132.0,102.0,136.0,80.0,144.0,64.0,144.0,44.0,124.0,26.0,116.0,18.0,100.0,20.0" stroke="black" stroke-width="1" fill="none" />
<polyline points="102.0,32.0,110.0,48.0,104.0,48.0,106.0,50.0,122.0,48.0" stroke="black" stroke-width="1" fill="none" />
<polyline points="134.0,40.0,132.0,34.0,140.0,30.0,140.0,14.0,112.0,12.0" stroke="black" stroke-width="1" fill="none" />
<polyline points="88.0,34.0,68.0,48.0,60.0,40.0,64.0,50.0,74.0,34.0" stroke="black" stroke-width="1" fill="none" />
<polyline points="56.0,32.0,60.0,40.0,34.0,60.0,22.0,76.0,18.0,92.0,16.0,108.0,12.0,124.0,16.0,140.0,18.0,150.0,18.0,166.0,34.0,176.0,38.0,192.0,56.0,214.0,78.0,230.0,88.0,232.0,104.0,228.0,120.0,228.0,142.0,214.0,150.0,224.0,166.0,210.0,174.0,210.0,190.0,198.0,206.0,182.0,222.0,190.0" stroke="black" stroke-width="1" fill="none" />
<polyline points="220.0,158.0,224.0,174.0,218.0,180.0,206.0,196.0,194.0,212.0,170.0,228.0,138.0,248.0" stroke="black" stroke-width="1" fill="none" />
<polyline points="142.0,228.0,142.0,222.0,128.0,230.0,114.0,234.0,98.0,234.0,80.0,224.0,64.0,222.0" stroke="black" stroke-width="1" fill="none" />
<polyline points="70.0,220.0,54.0,216.0,44.0,202.0,44.0,196.0,28.0,188.0" stroke="black" stroke-width="1" fill="none" />
<polyline points="8.0,190.0,24.0,200.0,30.0,212.0,46.0,222.0,50.0,232.0,64.0,244.0" stroke="black" stroke-width="1" fill="none" />
<polyline points="16.0,156.0,26.0,158.0,30.0,174.0,28.0,190.0,40.0,206.0,50.0,228.0,54.0,230.0,70.0,238.0,86.0,244.0,102.0,246.0,118.0,246.0,134.0,244.0,150.0,238.0,166.0,232.0,182.0,218.0,198.0,204.0,208.0,202.0,196.0,220.0,188.0,224.0" stroke="black" stroke-width="1" fill="none" />
<polyline points="50.0,48.0,30.0,44.0,14.0,68.0,8.0,86.0" stroke="black" stroke-width="1" fill="none" />
</svg>