<svg xmlns="http://www.w3.org/2000/svg" height="252px" width="250px" version="1.1"><polyline points="198.0,14.0,186.0,30.0,182.0,46.0,180.0,62.0,180.0,76.0,178.0,92.0,178.0,108.0,176.0,124.0,174.0,140.0,168.0,156.0,154.0,172.0,154.0,188.0,156.0,204.0,172.0,218.0,168.0,234.0,150.0,242.0,172.0,238.0" stroke="black" stroke-width="1" fill="none" />
<polyline points="162.0,238.0,142.0,226.0,144.0,210.0,134.0,194.0,136.0,178.0,148.0,150.0,162.0,146.0,166.0,130.0,166.0,114.0,156.0,98.0,146.0,88.0,128.0,88.0" stroke="black" stroke-width="1" fill="none" />
<polyline points="116.0,84.0,68.0,100.0" stroke="black" stroke-width="1" fill="none" />
<polyline points="34.0,98.0,18.0,102.0" stroke="black" stroke-width="1" fill="none" />
<polyline points="26.0,128.0,20.0,116.0,14.0,132.0,14.0,148.0,18.0,164.0,22.0,170.0,46.0,164.0,62.0,164.0,78.0,152.0,88.0,152.0,104.0,150.0,122.0,164.0,136.0,166.0,152.0,144.0,166.0,134.0" stroke="black" stroke-width="1" fill="none" />
<polyline points="158.0,98.0,142.0,84.0,126.0,82.0,110.0,86.0,94.0,92.0,78.0,98.0,62.0,102.0,46.0,106.0,30.0,110.0,14.0,130.0" stroke="black" stroke-width="1" fill="none" />
<polyline points="22.0,132.0,22.0,148.0,46.0,166.0,48.0,154.0" stroke="black" stroke-width="1" fill="none" />
<polyline points="30.0,148.0,46.0,148.0,38.0,160.0,32.0,176.0,28.0,202.0,42.0,218.0,40.0,234.0,46.0,242.0,62.0,242.0" stroke="black" stroke-width="1" fill="none" />
<polyline points="52.0,252.0,66.0,234.0,58.0,218.0,48.0,202.0,48.0,186.0,66.0,184.0,78.0,178.0" stroke="black" stroke-width="1" fill="none" />
<polyline points="96.0,184.0,112.0,182.0,126.0,190.0,126.0,206.0,132.0,222.0" stroke="black" stroke-width="1" fill="none" />
<polyline points="148.0,228.0,150.0,212.0,148.0,196.0,146.0,180.0" stroke="black" stroke-width="1" fill="none" />
<polyline points="104.0,160.0,88.0,158.0" stroke="black" stroke-width="1" fill="none" />
<polyline points="36.0,190.0,40.0,206.0,38.0,222.0,32.0,230.0" stroke="black" stroke-width="1" fill="none" />
<polyline points="50.0,214.0,66.0,204.0,66.0,226.0" stroke="black" stroke-width="1" fill="none" />
<polyline points="6.0,186.0,2.0,170.0,6.0,154.0,6.0,138.0,8.0,122.0,10.0,106.0,4.0,90.0,4.0,74.0,6.0,58.0,8.0,42.0,20.0,26.0,8.0,40.0" stroke="black" stroke-width="1" fill="none" />
<polyline points="12.0,22.0,20.0,38.0,14.0,54.0,12.0,70.0,12.0,86.0,16.0,102.0,20.0,90.0,36.0,90.0,56.0,90.0,72.0,86.0,88.0,80.0,90.0,80.0,104.0,76.0,120.0,70.0,136.0,70.0,152.0,76.0,156.0,80.0,172.0,90.0,184.0,86.0,198.0,118.0" stroke="black" stroke-width="1" fill="none" />
<polyline points="198.0,102.0,214.0,126.0,230.0,130.0" stroke="black" stroke-width="1" fill="none" />
<polyline points="238.0,132.0,240.0,116.0,238.0,100.0,238.0,96.0,234.0,80.0,228.0,64.0,222.0,48.0,222.0,34.0,236.0,24.0,220.0,24.0" stroke="black" stroke-width="1" fill="none" />
<polyline points="210.0,30.0,212.0,46.0,212.0,64.0,216.0,72.0,200.0,88.0,186.0,108.0,188.0,124.0,190.0,140.0,192.0,156.0,198.0,170.0" stroke="black" stroke-width="1" fill="none" />
<polyline points="212.0,158.0,200.0,150.0,200.0,134.0,196.0,118.0,190.0,102.0,190.0,82.0" stroke="black" stroke-width="1" fill="none" />
<polyline points="188.0,46.0,204.0,24.0,220.0,40.0" stroke="black" stroke-width="1" fill="none" />
<polyline points="234.0,38.0,232.0,38.0,230.0,22.0,230.0,8.0" stroke="black" stroke-width="1" fill="none" />
<polyline points="200.0,32.0,198.0,24.0,190.0,40.0,186.0,56.0,186.0,72.0,192.0,88.0,198.0,104.0,208.0,120.0,220.0,136.0,228.0,144.0" stroke="black" stroke-width="1" fill="none" />
<polyline points="238.0,158.0,222.0,152.0,206.0,136.0,206.0,136.0,206.0,152.0,200.0,168.0" stroke="black" stroke-width="1" fill="none" />
<polyline points="222.0,154.0,210.0,138.0" stroke="black" stroke-width="1" fill="none" />
<polyline points="248.0,164.0,238.0,160.0,250.0,160.0,248.0,144.0,248.0,128.0,248.0,112.0,246.0,96.0,242.0,80.0,236.0,64.0,238.0,48.0,244.0,32.0,240.0,16.0,232.0,2.0,216.0,14.0,200.0,14.0,184.0,14.0" stroke="black" stroke-width="1" fill="none" />
<polyline points="142.0,72.0,162.0,88.0,170.0,104.0,182.0,122.0,182.0,138.0,186.0,154.0,194.0,170.0,200.0,182.0" stroke="black" stroke-width="1" fill="none" />
<polyline points="160.0,168.0,138.0,178.0,116.0,176.0,100.0,172.0,84.0,172.0,68.0,176.0,52.0,184.0,30.0,190.0,8.0,162.0" stroke="black" stroke-width="1" fill="none" />
<polyline points="8.0,168.0,18.0,184.0,20.0,200.0,22.0,216.0,32.0,236.0,32.0,236.0" stroke="black" stroke-width="1" fill="none" />
</svg>