<svg xmlns="http://www.w3.org/2000/svg" height="484px" width="484px" version="1.1"><polyline points="28.0,26.0,26.0,42.0,26.0,58.0,26.0,74.0,26.0,90.0,26.0,106.0,26.0,122.0,26.0,138.0,26.0,154.0,26.0,170.0,26.0,186.0,26.0,202.0,26.0,218.0,32.0,222.0,48.0,224.0,64.0,224.0,80.0,224.0,96.0,224.0,112.0,224.0,128.0,224.0,144.0,224.0,160.0,224.0,176.0,224.0,192.0,224.0,208.0,224.0" stroke="black" stroke-width="1" fill="none" />
<polyline points="282.0,284.0,298.0,282.0,314.0,282.0,330.0,282.0,346.0,282.0,362.0,282.0,378.0,282.0,394.0,282.0,410.0,282.0,426.0,282.0,442.0,282.0,458.0,282.0,474.0,282.0,478.0,288.0,480.0,304.0,480.0,320.0,480.0,336.0,480.0,352.0,480.0,368.0,480.0,384.0,480.0,400.0,480.0,416.0,480.0,432.0,480.0,448.0,480.0,464.0" stroke="black" stroke-width="1" fill="none" />
<polyline points="484.0,476.0,484.0,460.0,484.0,444.0,484.0,428.0,484.0,412.0,484.0,396.0,484.0,380.0,484.0,364.0,484.0,348.0,484.0,332.0,484.0,316.0,484.0,300.0,478.0,286.0,462.0,286.0,446.0,286.0,430.0,286.0,414.0,286.0,398.0,286.0,382.0,286.0,366.0,286.0,350.0,286.0,334.0,286.0,318.0,286.0,302.0,286.0,286.0,288.0,288.0,286.0,286.0,302.0,286.0,318.0,286.0,334.0,286.0,350.0,286.0,366.0,286.0,382.0,286.0,398.0,286.0,414.0,286.0,430.0,286.0,446.0,286.0,462.0,286.0,478.0,300.0,484.0,316.0,484.0,332.0,484.0,348.0,484.0,364.0,484.0,380.0,484.0,396.0,484.0,412.0,484.0,428.0,484.0,444.0,484.0,460.0,484.0,476.0,484.0" stroke="black" stroke-width="1" fill="none" />
<polyline points="484.0,220.0,484.0,204.0,484.0,188.0,484.0,172.0,484.0,156.0,484.0,140.0,484.0,124.0,484.0,108.0,484.0,92.0,484.0,76.0,484.0,60.0,484.0,44.0,478.0,30.0,462.0,30.0,446.0,30.0,430.0,30.0,414.0,30.0,398.0,30.0,382.0,30.0,366.0,30.0,350.0,30.0,334.0,30.0,318.0,30.0,302.0,30.0,286.0,32.0,288.0,30.0,286.0,46.0,286.0,62.0,286.0,78.0,286.0,94.0,286.0,110.0,286.0,126.0,286.0,142.0,286.0,158.0,286.0,174.0,286.0,190.0,286.0,206.0,286.0,222.0,300.0,228.0,316.0,228.0,332.0,228.0,348.0,228.0,364.0,228.0,380.0,228.0,396.0,228.0,412.0,228.0,428.0,228.0,444.0,228.0,460.0,228.0,476.0,228.0" stroke="black" stroke-width="1" fill="none" />
<polyline points="480.0,208.0,480.0,192.0,480.0,176.0,480.0,160.0,480.0,144.0,480.0,128.0,480.0,112.0,480.0,96.0,480.0,80.0,480.0,64.0,480.0,48.0,478.0,32.0,474.0,26.0,458.0,26.0,442.0,26.0,426.0,26.0,410.0,26.0,394.0,26.0,378.0,26.0,362.0,26.0,346.0,26.0,330.0,26.0,314.0,26.0,298.0,26.0,282.0,28.0,284.0,26.0,282.0,42.0,282.0,58.0,282.0,74.0,282.0,90.0,282.0,106.0,282.0,122.0,282.0,138.0,282.0,154.0,282.0,170.0,282.0,186.0,282.0,202.0,282.0,218.0,288.0,222.0,304.0,224.0,320.0,224.0,336.0,224.0,352.0,224.0,368.0,224.0,384.0,224.0,400.0,224.0,416.0,224.0,432.0,224.0,448.0,224.0,464.0,224.0" stroke="black" stroke-width="1" fill="none" />
<polyline points="284.0,282.0,282.0,298.0,282.0,314.0,282.0,330.0,282.0,346.0,282.0,362.0,282.0,378.0,282.0,394.0,282.0,410.0,282.0,426.0,282.0,442.0,282.0,458.0,282.0,474.0,288.0,478.0,304.0,480.0,320.0,480.0,336.0,480.0,352.0,480.0,368.0,480.0,384.0,480.0,400.0,480.0,416.0,480.0,432.0,480.0,448.0,480.0,464.0,480.0" stroke="black" stroke-width="1" fill="none" />
<polyline points="170.0,118.0,184.0,122.0,174.0,108.0,154.0,92.0,166.0,70.0,178.0,54.0,206.0,54.0,190.0,54.0,174.0,68.0" stroke="black" stroke-width="1" fill="none" />
<polyline points="172.0,90.0,188.0,110.0,204.0,86.0" stroke="black" stroke-width="1" fill="none" />
<polyline points="200.0,98.0,206.0,82.0,208.0,66.0,202.0,50.0,200.0,48.0,178.0,64.0,170.0,80.0,180.0,96.0,188.0,112.0,206.0,100.0" stroke="black" stroke-width="1" fill="none" />
<polyline points="200.0,140.0,196.0,156.0,194.0,152.0,210.0,136.0,194.0,128.0,174.0,154.0,158.0,154.0,156.0,154.0,134.0,138.0,128.0,122.0,134.0,106.0,136.0,90.0,124.0,74.0,102.0,64.0,86.0,64.0,82.0,64.0,84.0,80.0,90.0,96.0,106.0,112.0,122.0,128.0,122.0,144.0,122.0,152.0,116.0,168.0,118.0,184.0,138.0,200.0" stroke="black" stroke-width="1" fill="none" />
<polyline points="116.0,158.0,134.0,148.0" stroke="black" stroke-width="1" fill="none" />
<polyline points="138.0,142.0,116.0,116.0,100.0,106.0,84.0,80.0" stroke="black" stroke-width="1" fill="none" />
<polyline points="90.0,78.0,106.0,102.0" stroke="black" stroke-width="1" fill="none" />
<polyline points="120.0,78.0,104.0,72.0,88.0,72.0,92.0,70.0,92.0,86.0,104.0,102.0,124.0,108.0,144.0,88.0,160.0,86.0,176.0,56.0,192.0,44.0,208.0,44.0,204.0,42.0,214.0,58.0,214.0,74.0,210.0,90.0,204.0,106.0,192.0,122.0,186.0,128.0,188.0,144.0" stroke="black" stroke-width="1" fill="none" />
<polyline points="140.0,84.0,124.0,72.0,108.0,66.0" stroke="black" stroke-width="1" fill="none" />
<polyline points="108.0,74.0,128.0,90.0,126.0,106.0,138.0,100.0,154.0,92.0,170.0,98.0,186.0,122.0" stroke="black" stroke-width="1" fill="none" />
<polyline points="212.0,152.0,208.0,160.0,192.0,160.0,176.0,162.0,160.0,162.0,144.0,156.0,128.0,142.0,112.0,148.0,96.0,142.0,80.0,144.0,64.0,148.0,48.0,148.0" stroke="black" stroke-width="1" fill="none" />
<polyline points="40.0,132.0,42.0,130.0,40.0,146.0,46.0,162.0,56.0,178.0,56.0,194.0,52.0,210.0,62.0,204.0,80.0,212.0,96.0,210.0,112.0,208.0" stroke="black" stroke-width="1" fill="none" />
<polyline points="120.0,202.0,112.0,186.0,90.0,188.0,74.0,188.0" stroke="black" stroke-width="1" fill="none" />
<polyline points="68.0,188.0,68.0,204.0" stroke="black" stroke-width="1" fill="none" />
<polyline points="60.0,204.0,64.0,188.0" stroke="black" stroke-width="1" fill="none" />
<polyline points="92.0,186.0,100.0,202.0" stroke="black" stroke-width="1" fill="none" />
<polyline points="112.0,202.0,106.0,186.0,110.0,166.0,102.0,150.0" stroke="black" stroke-width="1" fill="none" />
<polyline points="84.0,148.0,58.0,164.0,72.0,180.0,78.0,200.0" stroke="black" stroke-width="1" fill="none" />
<polyline points="130.0,196.0,114.0,172.0,96.0,148.0,80.0,150.0,64.0,158.0,66.0,162.0,82.0,142.0" stroke="black" stroke-width="1" fill="none" />
<polyline points="48.0,128.0,46.0,144.0,42.0,152.0,58.0,178.0,72.0,180.0,88.0,180.0,102.0,176.0,114.0,188.0,130.0,208.0" stroke="black" stroke-width="1" fill="none" />
<polyline points="228.0,220.0,228.0,204.0,228.0,188.0,228.0,172.0,228.0,156.0,228.0,140.0,228.0,124.0,228.0,108.0,228.0,92.0,228.0,76.0,228.0,60.0,228.0,44.0,222.0,30.0,206.0,30.0,190.0,30.0,174.0,30.0,158.0,30.0,142.0,30.0,126.0,30.0,110.0,30.0,94.0,30.0,78.0,30.0,62.0,30.0,46.0,30.0,30.0,32.0,32.0,30.0,30.0,46.0,30.0,62.0,30.0,78.0,30.0,94.0,30.0,110.0,30.0,126.0,30.0,142.0,30.0,158.0,30.0,174.0,30.0,190.0,30.0,206.0,30.0,222.0,44.0,228.0,60.0,228.0,76.0,228.0,92.0,228.0,108.0,228.0,124.0,228.0,140.0,228.0,156.0,228.0,172.0,228.0,188.0,228.0,204.0,228.0,220.0,228.0" stroke="black" stroke-width="1" fill="none" />
<polyline points="224.0,208.0,224.0,192.0,224.0,176.0,224.0,160.0,224.0,144.0,224.0,128.0,224.0,112.0,224.0,96.0,224.0,80.0,224.0,64.0,224.0,48.0,222.0,32.0,218.0,26.0,202.0,26.0,186.0,26.0,170.0,26.0,154.0,26.0,138.0,26.0,122.0,26.0,106.0,26.0,90.0,26.0,74.0,26.0,58.0,26.0,42.0,26.0,26.0,28.0" stroke="black" stroke-width="1" fill="none" />
<polyline points="28.0,282.0,26.0,298.0,26.0,314.0,26.0,330.0,26.0,346.0,26.0,362.0,26.0,378.0,26.0,394.0,26.0,410.0,26.0,426.0,26.0,442.0,26.0,458.0,26.0,474.0,32.0,478.0,48.0,480.0,64.0,480.0,80.0,480.0,96.0,480.0,112.0,480.0,128.0,480.0,144.0,480.0,160.0,480.0,176.0,480.0,192.0,480.0,208.0,480.0" stroke="black" stroke-width="1" fill="none" />
<polyline points="228.0,476.0,228.0,460.0,228.0,444.0,228.0,428.0,228.0,412.0,228.0,396.0,228.0,380.0,228.0,364.0,228.0,348.0,228.0,332.0,228.0,316.0,228.0,300.0,222.0,286.0,206.0,286.0,190.0,286.0,174.0,286.0,158.0,286.0,142.0,286.0,126.0,286.0,110.0,286.0,94.0,286.0,78.0,286.0,62.0,286.0,46.0,286.0,30.0,288.0,32.0,286.0,30.0,302.0,30.0,318.0,30.0,334.0,30.0,350.0,30.0,366.0,30.0,382.0,30.0,398.0,30.0,414.0,30.0,430.0,30.0,446.0,30.0,462.0,30.0,478.0,44.0,484.0,60.0,484.0,76.0,484.0,92.0,484.0,108.0,484.0,124.0,484.0,140.0,484.0,156.0,484.0,172.0,484.0,188.0,484.0,204.0,484.0,220.0,484.0" stroke="black" stroke-width="1" fill="none" />
<polyline points="224.0,464.0,224.0,448.0,224.0,432.0,224.0,416.0,224.0,400.0,224.0,384.0,224.0,368.0,224.0,352.0,224.0,336.0,224.0,320.0,224.0,304.0,222.0,288.0,218.0,282.0,202.0,282.0,186.0,282.0,170.0,282.0,154.0,282.0,138.0,282.0,122.0,282.0,106.0,282.0,90.0,282.0,74.0,282.0,58.0,282.0,42.0,282.0,26.0,284.0" stroke="black" stroke-width="1" fill="none" />
</svg>