<svg xmlns="http://www.w3.org/2000/svg" height="248px" width="246px" version="1.1"><polyline points="24.0,8.0,20.0,24.0,28.0,40.0,30.0,56.0,32.0,70.0,8.0,86.0,20.0,76.0,46.0,68.0,62.0,66.0,70.0,52.0" stroke="black" stroke-width="1" fill="none" />
<polyline points="92.0,62.0,108.0,52.0,118.0,68.0,134.0,62.0,148.0,48.0" stroke="black" stroke-width="1" fill="none" />
<polyline points="152.0,54.0,146.0,70.0,126.0,76.0,148.0,70.0,164.0,66.0,192.0,68.0" stroke="black" stroke-width="1" fill="none" />
<polyline points="194.0,54.0,178.0,48.0" stroke="black" stroke-width="1" fill="none" />
<polyline points="184.0,74.0,168.0,74.0,152.0,82.0,136.0,90.0,136.0,94.0,152.0,106.0" stroke="black" stroke-width="1" fill="none" />
<polyline points="106.0,100.0,134.0,102.0,146.0,118.0,150.0,134.0,152.0,150.0,150.0,166.0,148.0,182.0,144.0,198.0,136.0,204.0" stroke="black" stroke-width="1" fill="none" />
<polyline points="158.0,186.0,174.0,186.0,190.0,182.0,206.0,174.0,222.0,164.0" stroke="black" stroke-width="1" fill="none" />
<polyline points="230.0,126.0,214.0,98.0,212.0,94.0,228.0,100.0,234.0,106.0" stroke="black" stroke-width="1" fill="none" />
<polyline points="218.0,94.0,236.0,110.0,244.0,126.0,246.0,142.0,240.0,158.0,224.0,174.0,192.0,190.0" stroke="black" stroke-width="1" fill="none" />
<polyline points="188.0,182.0,218.0,166.0,232.0,150.0,232.0,134.0,226.0,118.0,212.0,110.0,212.0,94.0,214.0,86.0" stroke="black" stroke-width="1" fill="none" />
<polyline points="138.0,106.0,122.0,114.0,106.0,114.0,90.0,104.0,74.0,126.0" stroke="black" stroke-width="1" fill="none" />
<polyline points="62.0,124.0,78.0,100.0,80.0,116.0,74.0,132.0,72.0,148.0,74.0,164.0,80.0,180.0,90.0,196.0,92.0,198.0,76.0,166.0" stroke="black" stroke-width="1" fill="none" />
<polyline points="64.0,176.0,80.0,200.0,96.0,214.0" stroke="black" stroke-width="1" fill="none" />
<polyline points="114.0,222.0,98.0,230.0,82.0,236.0,66.0,230.0" stroke="black" stroke-width="1" fill="none" />
<polyline points="70.0,220.0,70.0,236.0,78.0,220.0,94.0,218.0" stroke="black" stroke-width="1" fill="none" />
<polyline points="122.0,204.0,122.0,188.0,120.0,172.0,122.0,156.0,122.0,150.0" stroke="black" stroke-width="1" fill="none" />
<polyline points="128.0,152.0,132.0,168.0,132.0,184.0,134.0,200.0" stroke="black" stroke-width="1" fill="none" />
<polyline points="150.0,230.0,156.0,246.0" stroke="black" stroke-width="1" fill="none" />
<polyline points="110.0,164.0,94.0,146.0,96.0,144.0,96.0,160.0,98.0,176.0,100.0,192.0,114.0,214.0,142.0,216.0,158.0,198.0,174.0,196.0,190.0,192.0,206.0,184.0,222.0,176.0,238.0,160.0" stroke="black" stroke-width="1" fill="none" />
<polyline points="154.0,248.0,138.0,248.0,122.0,242.0,134.0,222.0,148.0,206.0,160.0,182.0,162.0,166.0,162.0,150.0,162.0,134.0,158.0,118.0,146.0,102.0,148.0,84.0,176.0,64.0,176.0,42.0,192.0,26.0,186.0,10.0,180.0,4.0,164.0,8.0,148.0,12.0,132.0,20.0,116.0,20.0,100.0,20.0,84.0,20.0,68.0,18.0,52.0,12.0,36.0,8.0,20.0,14.0" stroke="black" stroke-width="1" fill="none" />
<polyline points="32.0,16.0,34.0,32.0,46.0,48.0,42.0,64.0,42.0,82.0,22.0,94.0,38.0,84.0,54.0,78.0,70.0,74.0,70.0,86.0,84.0,88.0,100.0,90.0,116.0,88.0,132.0,84.0,148.0,78.0,152.0,60.0,168.0,54.0,186.0,36.0" stroke="black" stroke-width="1" fill="none" />
<polyline points="176.0,14.0,176.0,30.0,168.0,48.0,166.0,62.0,190.0,60.0" stroke="black" stroke-width="1" fill="none" />
<polyline points="174.0,32.0,154.0,40.0,156.0,24.0,168.0,12.0" stroke="black" stroke-width="1" fill="none" />
<polyline points="176.0,12.0,160.0,16.0,144.0,24.0,158.0,8.0" stroke="black" stroke-width="1" fill="none" />
<polyline points="128.0,28.0,112.0,26.0,96.0,26.0,80.0,28.0,64.0,26.0,48.0,18.0,32.0,16.0" stroke="black" stroke-width="1" fill="none" />
<polyline points="34.0,30.0,22.0,30.0" stroke="black" stroke-width="1" fill="none" />
<polyline points="42.0,78.0,26.0,80.0,10.0,84.0" stroke="black" stroke-width="1" fill="none" />
<polyline points="24.0,96.0,40.0,90.0,56.0,88.0,72.0,94.0,78.0,100.0,66.0,116.0,62.0,132.0,60.0,148.0,62.0,164.0,66.0,180.0,74.0,196.0,90.0,212.0,96.0,232.0,84.0,230.0" stroke="black" stroke-width="1" fill="none" />
<polyline points="154.0,230.0,138.0,226.0,130.0,238.0,128.0,234.0,118.0,234.0,110.0,210.0,112.0,194.0,112.0,178.0,108.0,162.0,100.0,146.0" stroke="black" stroke-width="1" fill="none" />
<polyline points="110.0,108.0,96.0,104.0" stroke="black" stroke-width="1" fill="none" />
<polyline points="98.0,60.0,106.0,76.0,108.0,76.0,108.0,60.0" stroke="black" stroke-width="1" fill="none" />
</svg>