<svg xmlns="http://www.w3.org/2000/svg" height="256px" width="254px" version="1.1"><polyline points="184.0,16.0,186.0,32.0,186.0,48.0,198.0,64.0,186.0,80.0,196.0,86.0" stroke="black" stroke-width="1" fill="none" />
<polyline points="220.0,72.0,236.0,64.0" stroke="black" stroke-width="1" fill="none" />
<polyline points="214.0,48.0,198.0,44.0,196.0,48.0,204.0,38.0,220.0,40.0,236.0,38.0" stroke="black" stroke-width="1" fill="none" />
<polyline points="236.0,44.0,216.0,68.0,208.0,88.0,192.0,104.0,194.0,100.0,210.0,84.0,218.0,66.0,212.0,62.0,202.0,62.0,202.0,46.0,202.0,26.0,194.0,10.0,182.0,6.0,166.0,6.0" stroke="black" stroke-width="1" fill="none" />
<polyline points="142.0,14.0,126.0,24.0" stroke="black" stroke-width="1" fill="none" />
<polyline points="118.0,30.0,124.0,18.0,142.0,20.0,152.0,36.0,156.0,38.0" stroke="black" stroke-width="1" fill="none" />
<polyline points="110.0,42.0,118.0,38.0,112.0,54.0,126.0,60.0,112.0,60.0,112.0,78.0,118.0,88.0,142.0,98.0,142.0,114.0,142.0,138.0,110.0,154.0,118.0,178.0,124.0,194.0,132.0,202.0,142.0,202.0,152.0,212.0,154.0,228.0" stroke="black" stroke-width="1" fill="none" />
<polyline points="160.0,232.0,160.0,216.0,160.0,200.0,152.0,192.0,136.0,192.0" stroke="black" stroke-width="1" fill="none" />
<polyline points="120.0,208.0,130.0,216.0,144.0,220.0,150.0,214.0" stroke="black" stroke-width="1" fill="none" />
<polyline points="126.0,220.0,118.0,214.0,118.0,214.0" stroke="black" stroke-width="1" fill="none" />
<polyline points="110.0,200.0,112.0,216.0,108.0,224.0,110.0,232.0,126.0,248.0" stroke="black" stroke-width="1" fill="none" />
<polyline points="86.0,240.0,82.0,246.0" stroke="black" stroke-width="1" fill="none" />
<polyline points="50.0,232.0,58.0,206.0,74.0,200.0" stroke="black" stroke-width="1" fill="none" />
<polyline points="88.0,170.0,86.0,186.0,100.0,202.0,86.0,212.0,96.0,220.0,100.0,246.0,82.0,246.0,84.0,256.0,100.0,246.0" stroke="black" stroke-width="1" fill="none" />
<polyline points="118.0,184.0,102.0,196.0,94.0,200.0,92.0,188.0,92.0,172.0,92.0,172.0,108.0,170.0,114.0,160.0,140.0,160.0,156.0,144.0" stroke="black" stroke-width="1" fill="none" />
<polyline points="140.0,132.0,124.0,128.0,108.0,128.0,92.0,136.0" stroke="black" stroke-width="1" fill="none" />
<polyline points="52.0,118.0,38.0,134.0" stroke="black" stroke-width="1" fill="none" />
<polyline points="30.0,114.0,14.0,118.0" stroke="black" stroke-width="1" fill="none" />
<polyline points="0.0,112.0,8.0,118.0,8.0,134.0,22.0,136.0,38.0,144.0,54.0,144.0,78.0,148.0,88.0,154.0,104.0,158.0,120.0,152.0,136.0,144.0" stroke="black" stroke-width="1" fill="none" />
<polyline points="154.0,112.0,154.0,128.0,154.0,144.0,140.0,160.0,134.0,176.0,134.0,192.0,140.0,204.0" stroke="black" stroke-width="1" fill="none" />
<polyline points="106.0,86.0,122.0,98.0,132.0,80.0,148.0,72.0" stroke="black" stroke-width="1" fill="none" />
<polyline points="196.0,92.0,220.0,76.0,242.0,62.0,252.0,46.0,254.0,34.0,238.0,30.0,222.0,30.0,206.0,30.0,188.0,24.0,174.0,14.0,160.0,36.0,168.0,20.0,150.0,6.0,134.0,6.0,118.0,6.0" stroke="black" stroke-width="1" fill="none" />
<polyline points="100.0,26.0,116.0,14.0,108.0,20.0,100.0,36.0,102.0,52.0,102.0,68.0,102.0,84.0,106.0,88.0,118.0,102.0,134.0,98.0,156.0,104.0,172.0,102.0,174.0,96.0,190.0,80.0" stroke="black" stroke-width="1" fill="none" />
<polyline points="178.0,112.0,162.0,112.0,140.0,116.0,124.0,118.0,108.0,118.0,92.0,120.0,76.0,122.0,60.0,128.0,50.0,122.0,58.0,126.0,56.0,104.0,38.0,112.0,34.0,110.0,12.0,100.0" stroke="black" stroke-width="1" fill="none" />
<polyline points="8.0,88.0,2.0,92.0,6.0,108.0,26.0,106.0,18.0,122.0,24.0,126.0,34.0,132.0,50.0,142.0,68.0,154.0,76.0,170.0,76.0,186.0,60.0,202.0,50.0,218.0,52.0,234.0,52.0,240.0,62.0,236.0,68.0,222.0,84.0,220.0,78.0,232.0,94.0,224.0,108.0,224.0,124.0,236.0,138.0,232.0,142.0,228.0,146.0,238.0,158.0,240.0,134.0,250.0,150.0,250.0" stroke="black" stroke-width="1" fill="none" />
<polyline points="48.0,96.0,32.0,94.0,16.0,88.0,0.0,86.0" stroke="black" stroke-width="1" fill="none" />
<polyline points="0.0,16.0,16.0,14.0" stroke="black" stroke-width="1" fill="none" />
</svg>