<svg xmlns="http://www.w3.org/2000/svg" height="484px" width="484px" version="1.1"><polyline points="28.0,26.0,26.0,42.0,26.0,58.0,26.0,74.0,26.0,90.0,26.0,106.0,26.0,122.0,26.0,138.0,26.0,154.0,26.0,170.0,26.0,186.0,26.0,202.0,26.0,218.0,32.0,222.0,48.0,224.0,64.0,224.0,80.0,224.0,96.0,224.0,112.0,224.0,128.0,224.0,144.0,224.0,160.0,224.0,176.0,224.0,192.0,224.0,208.0,224.0" stroke="black" stroke-width="1" fill="none" />
<polyline points="206.0,192.0,212.0,196.0,208.0,180.0,202.0,164.0,210.0,148.0,210.0,132.0,208.0,116.0,214.0,100.0,210.0,84.0,202.0,82.0,202.0,86.0,208.0,92.0,206.0,108.0" stroke="black" stroke-width="1" fill="none" />
<polyline points="184.0,120.0,204.0,136.0,198.0,152.0,180.0,172.0,182.0,188.0,178.0,204.0,176.0,206.0,192.0,200.0" stroke="black" stroke-width="1" fill="none" />
<polyline points="224.0,208.0,224.0,192.0,224.0,176.0,224.0,160.0,224.0,144.0,224.0,128.0,224.0,112.0,224.0,96.0,224.0,80.0,224.0,64.0,224.0,48.0,222.0,32.0,218.0,26.0,202.0,26.0,186.0,26.0,170.0,26.0,154.0,26.0,138.0,26.0,122.0,26.0,106.0,26.0,90.0,26.0,74.0,26.0,58.0,26.0,42.0,26.0,26.0,28.0,30.0,32.0,46.0,30.0,62.0,30.0,78.0,30.0,94.0,30.0,110.0,30.0,126.0,30.0,142.0,30.0,158.0,30.0,174.0,30.0,190.0,30.0,206.0,30.0,222.0,30.0,228.0,44.0,228.0,60.0,228.0,76.0,228.0,92.0,228.0,108.0,228.0,124.0,228.0,140.0,228.0,156.0,228.0,172.0,228.0,188.0,228.0,204.0,228.0,220.0" stroke="black" stroke-width="1" fill="none" />
<polyline points="200.0,198.0,202.0,182.0,196.0,166.0,192.0,164.0,188.0,180.0,190.0,196.0" stroke="black" stroke-width="1" fill="none" />
<polyline points="194.0,156.0,178.0,164.0,162.0,168.0,146.0,164.0,130.0,146.0" stroke="black" stroke-width="1" fill="none" />
<polyline points="122.0,146.0,130.0,162.0,128.0,178.0,128.0,194.0" stroke="black" stroke-width="1" fill="none" />
<polyline points="142.0,204.0,146.0,188.0,144.0,172.0" stroke="black" stroke-width="1" fill="none" />
<polyline points="154.0,174.0,154.0,190.0,154.0,206.0" stroke="black" stroke-width="1" fill="none" />
<polyline points="150.0,212.0,122.0,216.0,118.0,204.0,116.0,206.0,132.0,202.0,134.0,186.0,136.0,170.0,130.0,152.0,128.0,136.0,136.0,120.0,126.0,102.0,126.0,86.0,112.0,88.0" stroke="black" stroke-width="1" fill="none" />
<polyline points="114.0,82.0,130.0,78.0,146.0,80.0" stroke="black" stroke-width="1" fill="none" />
<polyline points="144.0,74.0,128.0,70.0,112.0,78.0,96.0,98.0,98.0,102.0,112.0,94.0,116.0,110.0,108.0,132.0,104.0,122.0" stroke="black" stroke-width="1" fill="none" />
<polyline points="112.0,126.0,96.0,136.0,120.0,134.0,122.0,118.0" stroke="black" stroke-width="1" fill="none" />
<polyline points="120.0,144.0,98.0,160.0" stroke="black" stroke-width="1" fill="none" />
<polyline points="70.0,100.0,70.0,116.0,70.0,132.0,74.0,148.0,82.0,164.0,92.0,168.0,108.0,152.0,124.0,148.0,142.0,170.0,160.0,174.0,176.0,170.0,196.0,164.0" stroke="black" stroke-width="1" fill="none" />
<polyline points="144.0,56.0,128.0,48.0,112.0,48.0,92.0,74.0,76.0,56.0,60.0,52.0,44.0,64.0" stroke="black" stroke-width="1" fill="none" />
<polyline points="48.0,72.0,64.0,58.0,80.0,68.0" stroke="black" stroke-width="1" fill="none" />
<polyline points="68.0,60.0,74.0,78.0,60.0,94.0" stroke="black" stroke-width="1" fill="none" />
<polyline points="58.0,58.0,48.0,74.0,46.0,90.0,46.0,102.0,62.0,94.0,76.0,80.0,92.0,82.0,104.0,50.0,120.0,40.0,136.0,44.0,152.0,54.0" stroke="black" stroke-width="1" fill="none" />
<polyline points="148.0,64.0,126.0,48.0" stroke="black" stroke-width="1" fill="none" />
<polyline points="130.0,42.0,152.0,58.0,156.0,74.0" stroke="black" stroke-width="1" fill="none" />
<polyline points="122.0,68.0,110.0,84.0,96.0,100.0,102.0,100.0,98.0,116.0,90.0,132.0,106.0,126.0,100.0,116.0,116.0,118.0,118.0,106.0,128.0,112.0,144.0,110.0,160.0,110.0,176.0,112.0,192.0,114.0" stroke="black" stroke-width="1" fill="none" />
<polyline points="100.0,78.0,106.0,62.0,114.0,46.0" stroke="black" stroke-width="1" fill="none" />
<polyline points="112.0,40.0,102.0,56.0,96.0,72.0,78.0,90.0,76.0,106.0,82.0,122.0,76.0,138.0,76.0,150.0,86.0,148.0,102.0,148.0,118.0,136.0,136.0,118.0,152.0,116.0,168.0,116.0,184.0,120.0,200.0,128.0" stroke="black" stroke-width="1" fill="none" />
<polyline points="286.0,32.0,302.0,30.0,318.0,30.0,334.0,30.0,350.0,30.0,366.0,30.0,382.0,30.0,398.0,30.0,414.0,30.0,430.0,30.0,446.0,30.0,462.0,30.0,478.0,30.0,484.0,44.0,484.0,60.0,484.0,76.0,484.0,92.0,484.0,108.0,484.0,124.0,484.0,140.0,484.0,156.0,484.0,172.0,484.0,188.0,484.0,204.0,484.0,220.0" stroke="black" stroke-width="1" fill="none" />
<polyline points="480.0,208.0,480.0,192.0,480.0,176.0,480.0,160.0,480.0,144.0,480.0,128.0,480.0,112.0,480.0,96.0,480.0,80.0,480.0,64.0,480.0,48.0,478.0,32.0,474.0,26.0,458.0,26.0,442.0,26.0,426.0,26.0,410.0,26.0,394.0,26.0,378.0,26.0,362.0,26.0,346.0,26.0,330.0,26.0,314.0,26.0,298.0,26.0,282.0,28.0,284.0,26.0,282.0,42.0,282.0,58.0,282.0,74.0,282.0,90.0,282.0,106.0,282.0,122.0,282.0,138.0,282.0,154.0,282.0,170.0,282.0,186.0,282.0,202.0,282.0,218.0,288.0,222.0,304.0,224.0,320.0,224.0,336.0,224.0,352.0,224.0,368.0,224.0,384.0,224.0,400.0,224.0,416.0,224.0,432.0,224.0,448.0,224.0,464.0,224.0" stroke="black" stroke-width="1" fill="none" />
<polyline points="288.0,286.0,286.0,302.0,286.0,318.0,286.0,334.0,286.0,350.0,286.0,366.0,286.0,382.0,286.0,398.0,286.0,414.0,286.0,430.0,286.0,446.0,286.0,462.0,286.0,478.0,300.0,484.0,316.0,484.0,332.0,484.0,348.0,484.0,364.0,484.0,380.0,484.0,396.0,484.0,412.0,484.0,428.0,484.0,444.0,484.0,460.0,484.0,476.0,484.0" stroke="black" stroke-width="1" fill="none" />
<polyline points="484.0,476.0,484.0,460.0,484.0,444.0,484.0,428.0,484.0,412.0,484.0,396.0,484.0,380.0,484.0,364.0,484.0,348.0,484.0,332.0,484.0,316.0,484.0,300.0,478.0,286.0,462.0,286.0,446.0,286.0,430.0,286.0,414.0,286.0,398.0,286.0,382.0,286.0,366.0,286.0,350.0,286.0,334.0,286.0,318.0,286.0,302.0,286.0,286.0,288.0,282.0,284.0,298.0,282.0,314.0,282.0,330.0,282.0,346.0,282.0,362.0,282.0,378.0,282.0,394.0,282.0,410.0,282.0,426.0,282.0,442.0,282.0,458.0,282.0,474.0,282.0,478.0,288.0,480.0,304.0,480.0,320.0,480.0,336.0,480.0,352.0,480.0,368.0,480.0,384.0,480.0,400.0,480.0,416.0,480.0,432.0,480.0,448.0,480.0,464.0" stroke="black" stroke-width="1" fill="none" />
<polyline points="228.0,476.0,228.0,460.0,228.0,444.0,228.0,428.0,228.0,412.0,228.0,396.0,228.0,380.0,228.0,364.0,228.0,348.0,228.0,332.0,228.0,316.0,228.0,300.0,222.0,286.0,206.0,286.0,190.0,286.0,174.0,286.0,158.0,286.0,142.0,286.0,126.0,286.0,110.0,286.0,94.0,286.0,78.0,286.0,62.0,286.0,46.0,286.0,30.0,288.0,32.0,286.0,30.0,302.0,30.0,318.0,30.0,334.0,30.0,350.0,30.0,366.0,30.0,382.0,30.0,398.0,30.0,414.0,30.0,430.0,30.0,446.0,30.0,462.0,30.0,478.0,44.0,484.0,60.0,484.0,76.0,484.0,92.0,484.0,108.0,484.0,124.0,484.0,140.0,484.0,156.0,484.0,172.0,484.0,188.0,484.0,204.0,484.0,220.0,484.0" stroke="black" stroke-width="1" fill="none" />
<polyline points="224.0,464.0,224.0,448.0,224.0,432.0,224.0,416.0,224.0,400.0,224.0,384.0,224.0,368.0,224.0,352.0,224.0,336.0,224.0,320.0,224.0,304.0,222.0,288.0,218.0,282.0,202.0,282.0,186.0,282.0,170.0,282.0,154.0,282.0,138.0,282.0,122.0,282.0,106.0,282.0,90.0,282.0,74.0,282.0,58.0,282.0,42.0,282.0,26.0,284.0,28.0,282.0,26.0,298.0,26.0,314.0,26.0,330.0,26.0,346.0,26.0,362.0,26.0,378.0,26.0,394.0,26.0,410.0,26.0,426.0,26.0,442.0,26.0,458.0,26.0,474.0,32.0,478.0,48.0,480.0,64.0,480.0,80.0,480.0,96.0,480.0,112.0,480.0,128.0,480.0,144.0,480.0,160.0,480.0,176.0,480.0,192.0,480.0,208.0,480.0" stroke="black" stroke-width="1" fill="none" />
<polyline points="284.0,282.0,282.0,298.0,282.0,314.0,282.0,330.0,282.0,346.0,282.0,362.0,282.0,378.0,282.0,394.0,282.0,410.0,282.0,426.0,282.0,442.0,282.0,458.0,282.0,474.0,288.0,478.0,304.0,480.0,320.0,480.0,336.0,480.0,352.0,480.0,368.0,480.0,384.0,480.0,400.0,480.0,416.0,480.0,432.0,480.0,448.0,480.0,464.0,480.0" stroke="black" stroke-width="1" fill="none" />
<polyline points="476.0,228.0,460.0,228.0,444.0,228.0,428.0,228.0,412.0,228.0,396.0,228.0,380.0,228.0,364.0,228.0,348.0,228.0,332.0,228.0,316.0,228.0,300.0,228.0,286.0,222.0,286.0,206.0,286.0,190.0,286.0,174.0,286.0,158.0,286.0,142.0,286.0,126.0,286.0,110.0,286.0,94.0,286.0,78.0,286.0,62.0,286.0,46.0,288.0,30.0" stroke="black" stroke-width="1" fill="none" />
<polyline points="88.0,70.0,72.0,54.0" stroke="black" stroke-width="1" fill="none" />
<polyline points="54.0,52.0,44.0,68.0,40.0,84.0,38.0,100.0,44.0,110.0,60.0,104.0" stroke="black" stroke-width="1" fill="none" />
<polyline points="32.0,30.0,30.0,46.0,30.0,62.0,30.0,78.0,30.0,94.0,30.0,110.0,30.0,126.0,30.0,142.0,30.0,158.0,30.0,174.0,30.0,190.0,30.0,206.0,30.0,222.0,44.0,228.0,60.0,228.0,76.0,228.0,92.0,228.0,108.0,228.0,124.0,228.0,140.0,228.0,156.0,228.0,172.0,228.0,188.0,228.0,204.0,228.0,220.0,228.0" stroke="black" stroke-width="1" fill="none" />
</svg>