<svg xmlns="http://www.w3.org/2000/svg" height="250px" width="250px" version="1.1"><polyline points="22.0,44.0,24.0,60.0,30.0,76.0,40.0,88.0,18.0,112.0,16.0,126.0" stroke="black" stroke-width="1" fill="none" />
<polyline points="8.0,112.0,24.0,110.0" stroke="black" stroke-width="1" fill="none" />
<polyline points="4.0,108.0,20.0,104.0,36.0,110.0,48.0,86.0,70.0,84.0,78.0,76.0,98.0,86.0,118.0,70.0,122.0,76.0,140.0,74.0" stroke="black" stroke-width="1" fill="none" />
<polyline points="106.0,50.0,120.0,44.0,116.0,60.0,106.0,76.0,100.0,114.0,94.0,130.0,88.0,138.0" stroke="black" stroke-width="1" fill="none" />
<polyline points="116.0,126.0,132.0,106.0,148.0,102.0,164.0,102.0,180.0,102.0,196.0,106.0,212.0,106.0,228.0,112.0,218.0,128.0" stroke="black" stroke-width="1" fill="none" />
<polyline points="220.0,136.0,216.0,136.0,210.0,154.0,212.0,170.0,214.0,186.0,216.0,202.0,216.0,218.0,192.0,238.0,190.0,244.0,196.0,236.0,212.0,236.0" stroke="black" stroke-width="1" fill="none" />
<polyline points="246.0,236.0,242.0,226.0,236.0,222.0,220.0,226.0,226.0,230.0,222.0,210.0,230.0,206.0,228.0,190.0,228.0,174.0,226.0,158.0,228.0,142.0,240.0,126.0,238.0,110.0,228.0,88.0,234.0,76.0,240.0,60.0,238.0,44.0,240.0,32.0,222.0,16.0,202.0,6.0,186.0,2.0" stroke="black" stroke-width="1" fill="none" />
<polyline points="180.0,2.0,196.0,14.0,212.0,20.0,228.0,30.0" stroke="black" stroke-width="1" fill="none" />
<polyline points="238.0,26.0,222.0,14.0" stroke="black" stroke-width="1" fill="none" />
<polyline points="214.0,8.0,230.0,10.0,248.0,26.0,248.0,42.0,250.0,58.0,248.0,74.0,244.0,90.0,230.0,106.0,246.0,120.0,242.0,138.0" stroke="black" stroke-width="1" fill="none" />
<polyline points="250.0,112.0,238.0,130.0,218.0,152.0,208.0,140.0,192.0,146.0,188.0,160.0,172.0,160.0,150.0,160.0,128.0,152.0,112.0,142.0,94.0,126.0,86.0,130.0,68.0,128.0,48.0,118.0,44.0,108.0,40.0,104.0,48.0,88.0,42.0,80.0,42.0,62.0,46.0,46.0,38.0,32.0,22.0,34.0,6.0,32.0" stroke="black" stroke-width="1" fill="none" />
<polyline points="10.0,38.0,12.0,46.0,14.0,54.0,18.0,72.0,18.0,88.0,4.0,98.0,8.0,114.0,10.0,128.0,24.0,116.0,40.0,116.0,56.0,120.0,72.0,120.0,88.0,114.0,104.0,112.0,120.0,92.0,134.0,86.0,136.0,96.0,152.0,92.0,164.0,92.0,180.0,90.0,192.0,94.0,208.0,96.0,224.0,96.0,228.0,74.0" stroke="black" stroke-width="1" fill="none" />
<polyline points="232.0,42.0,226.0,34.0,214.0,28.0" stroke="black" stroke-width="1" fill="none" />
<polyline points="132.0,32.0,116.0,32.0,100.0,32.0" stroke="black" stroke-width="1" fill="none" />
<polyline points="100.0,38.0,90.0,44.0,74.0,46.0,58.0,46.0,42.0,40.0" stroke="black" stroke-width="1" fill="none" />
<polyline points="22.0,44.0,38.0,48.0,54.0,56.0,70.0,54.0,86.0,54.0,102.0,46.0,118.0,42.0,132.0,46.0,128.0,62.0,122.0,78.0,106.0,88.0,96.0,104.0,88.0,124.0,88.0,140.0,78.0,144.0,94.0,152.0,104.0,148.0,114.0,160.0,132.0,160.0,150.0,150.0,166.0,150.0,182.0,146.0,198.0,140.0" stroke="black" stroke-width="1" fill="none" />
<polyline points="216.0,150.0,218.0,166.0,220.0,182.0,230.0,204.0,244.0,204.0,250.0,218.0" stroke="black" stroke-width="1" fill="none" />
<polyline points="238.0,194.0,232.0,178.0" stroke="black" stroke-width="1" fill="none" />
<polyline points="198.0,162.0,202.0,178.0,204.0,194.0,202.0,210.0,182.0,226.0,206.0,228.0" stroke="black" stroke-width="1" fill="none" />
<polyline points="184.0,236.0,168.0,224.0" stroke="black" stroke-width="1" fill="none" />
<polyline points="134.0,210.0,140.0,218.0,140.0,216.0,124.0,222.0" stroke="black" stroke-width="1" fill="none" />
<polyline points="156.0,242.0,158.0,226.0,158.0,210.0,158.0,194.0,158.0,178.0,156.0,162.0" stroke="black" stroke-width="1" fill="none" />
<polyline points="148.0,158.0,150.0,174.0,150.0,190.0,150.0,206.0,150.0,222.0,134.0,226.0,120.0,236.0,134.0,244.0,154.0,238.0,170.0,250.0" stroke="black" stroke-width="1" fill="none" />
<polyline points="166.0,242.0,144.0,246.0,128.0,246.0,128.0,238.0,114.0,226.0,122.0,222.0,134.0,210.0,142.0,194.0,140.0,178.0,138.0,162.0" stroke="black" stroke-width="1" fill="none" />
<polyline points="136.0,146.0,120.0,136.0" stroke="black" stroke-width="1" fill="none" />
<polyline points="112.0,116.0,132.0,110.0,116.0,126.0,110.0,142.0,110.0,158.0" stroke="black" stroke-width="1" fill="none" />
<polyline points="98.0,156.0,76.0,146.0,78.0,130.0,64.0,104.0,66.0,94.0,54.0,98.0,54.0,110.0" stroke="black" stroke-width="1" fill="none" />
<polyline points="64.0,110.0,80.0,112.0,96.0,104.0,120.0,102.0" stroke="black" stroke-width="1" fill="none" />
<polyline points="80.0,94.0,64.0,92.0" stroke="black" stroke-width="1" fill="none" />
<polyline points="42.0,56.0,26.0,60.0,8.0,56.0" stroke="black" stroke-width="1" fill="none" />
<polyline points="0.0,100.0,16.0,94.0,38.0,92.0,44.0,78.0,64.0,62.0,88.0,62.0,100.0,64.0,110.0,64.0" stroke="black" stroke-width="1" fill="none" />
<polyline points="98.0,60.0,102.0,76.0,88.0,86.0,82.0,88.0,84.0,104.0,100.0,94.0,126.0,100.0" stroke="black" stroke-width="1" fill="none" />
<polyline points="166.0,160.0,166.0,176.0,166.0,192.0,166.0,208.0,168.0,224.0,184.0,240.0,194.0,214.0" stroke="black" stroke-width="1" fill="none" />
</svg>