<svg xmlns="http://www.w3.org/2000/svg" height="254px" width="254px" version="1.1"><polyline points="30.0,0.0,16.0,16.0,2.0,32.0,4.0,44.0,2.0,60.0,4.0,76.0,10.0,76.0,12.0,68.0,32.0,64.0,42.0,62.0,50.0,42.0,68.0,24.0,84.0,20.0,100.0,26.0,118.0,14.0,134.0,12.0,150.0,22.0" stroke="black" stroke-width="1" fill="none" />
<polyline points="150.0,8.0,160.0,24.0,166.0,40.0,166.0,56.0,150.0,78.0,156.0,72.0,172.0,68.0,188.0,66.0,204.0,72.0,214.0,78.0,230.0,80.0,234.0,82.0" stroke="black" stroke-width="1" fill="none" />
<polyline points="246.0,88.0,228.0,90.0,234.0,74.0,244.0,58.0,246.0,42.0,242.0,26.0,242.0,24.0" stroke="black" stroke-width="1" fill="none" />
<polyline points="254.0,26.0,254.0,42.0,252.0,58.0,248.0,74.0,240.0,90.0,234.0,104.0,234.0,120.0,234.0,136.0,228.0,152.0,218.0,168.0,206.0,184.0,206.0,200.0,206.0,216.0,196.0,240.0,202.0,228.0,208.0,234.0" stroke="black" stroke-width="1" fill="none" />
<polyline points="212.0,242.0,196.0,254.0,190.0,226.0,174.0,218.0,170.0,214.0,166.0,226.0,158.0,216.0,178.0,208.0,172.0,200.0,168.0,220.0,188.0,216.0,188.0,200.0,188.0,184.0,204.0,158.0,204.0,142.0,204.0,136.0" stroke="black" stroke-width="1" fill="none" />
<polyline points="188.0,182.0,212.0,184.0,212.0,200.0,214.0,216.0,218.0,232.0,212.0,246.0" stroke="black" stroke-width="1" fill="none" />
<polyline points="188.0,240.0,188.0,224.0" stroke="black" stroke-width="1" fill="none" />
<polyline points="200.0,168.0,184.0,172.0,168.0,174.0,152.0,176.0,136.0,172.0" stroke="black" stroke-width="1" fill="none" />
<polyline points="110.0,186.0,126.0,186.0,146.0,184.0,162.0,186.0,178.0,184.0,178.0,178.0,198.0,164.0" stroke="black" stroke-width="1" fill="none" />
<polyline points="224.0,104.0,210.0,88.0,194.0,78.0,178.0,76.0,162.0,80.0,144.0,90.0,134.0,82.0,128.0,66.0,118.0,50.0,112.0,34.0,112.0,22.0" stroke="black" stroke-width="1" fill="none" />
<polyline points="112.0,28.0,128.0,36.0,124.0,42.0,120.0,44.0,120.0,52.0,136.0,74.0" stroke="black" stroke-width="1" fill="none" />
<polyline points="148.0,52.0,132.0,32.0" stroke="black" stroke-width="1" fill="none" />
<polyline points="122.0,20.0,140.0,14.0,142.0,30.0,154.0,34.0,154.0,50.0" stroke="black" stroke-width="1" fill="none" />
<polyline points="164.0,26.0,148.0,6.0,132.0,2.0,114.0,6.0,98.0,14.0,96.0,4.0,80.0,10.0,64.0,16.0,48.0,6.0,32.0,2.0,16.0,16.0,0.0,32.0" stroke="black" stroke-width="1" fill="none" />
<polyline points="12.0,42.0,28.0,14.0,44.0,12.0,58.0,16.0,48.0,32.0,44.0,48.0,32.0,64.0,38.0,72.0,36.0,88.0,32.0,100.0,32.0,116.0,30.0,132.0,40.0,136.0,38.0,142.0" stroke="black" stroke-width="1" fill="none" />
<polyline points="46.0,126.0,62.0,126.0,74.0,112.0,72.0,112.0,76.0,128.0" stroke="black" stroke-width="1" fill="none" />
<polyline points="76.0,98.0,92.0,92.0,90.0,94.0,96.0,110.0,102.0,106.0" stroke="black" stroke-width="1" fill="none" />
<polyline points="110.0,88.0,100.0,78.0,84.0,86.0,68.0,90.0" stroke="black" stroke-width="1" fill="none" />
<polyline points="82.0,96.0,88.0,112.0,92.0,108.0" stroke="black" stroke-width="1" fill="none" />
<polyline points="120.0,116.0,122.0,124.0,130.0,142.0,132.0,156.0,134.0,172.0,132.0,190.0,134.0,206.0,134.0,222.0,136.0,238.0" stroke="black" stroke-width="1" fill="none" />
<polyline points="84.0,216.0,68.0,220.0" stroke="black" stroke-width="1" fill="none" />
<polyline points="76.0,214.0,68.0,230.0,74.0,230.0,90.0,236.0" stroke="black" stroke-width="1" fill="none" />
<polyline points="116.0,164.0,100.0,154.0" stroke="black" stroke-width="1" fill="none" />
<polyline points="108.0,158.0,110.0,174.0,110.0,190.0,108.0,206.0,106.0,222.0,78.0,224.0,78.0,224.0,94.0,224.0,98.0,214.0" stroke="black" stroke-width="1" fill="none" />
<polyline points="136.0,124.0,122.0,128.0,106.0,138.0,90.0,142.0,82.0,126.0,98.0,122.0,122.0,112.0,112.0,96.0,96.0,76.0,90.0,76.0,86.0,60.0,84.0,62.0,68.0,62.0,72.0,60.0,70.0,76.0,68.0,102.0,60.0,118.0,66.0,128.0,68.0,140.0,74.0,134.0,84.0,134.0,100.0,132.0,116.0,124.0" stroke="black" stroke-width="1" fill="none" />
<polyline points="86.0,72.0,70.0,74.0" stroke="black" stroke-width="1" fill="none" />
<polyline points="46.0,60.0,54.0,44.0" stroke="black" stroke-width="1" fill="none" />
<polyline points="40.0,32.0,32.0,48.0,28.0,76.0,32.0,78.0,48.0,78.0" stroke="black" stroke-width="1" fill="none" />
<polyline points="34.0,122.0,50.0,144.0,68.0,150.0,84.0,152.0,98.0,148.0,114.0,144.0" stroke="black" stroke-width="1" fill="none" />
<polyline points="126.0,226.0,110.0,226.0,126.0,236.0,126.0,214.0,126.0,198.0,124.0,182.0,122.0,154.0,122.0,140.0,136.0,124.0,142.0,108.0,142.0,92.0,168.0,76.0" stroke="black" stroke-width="1" fill="none" />
<polyline points="194.0,78.0,212.0,94.0,220.0,110.0" stroke="black" stroke-width="1" fill="none" />
<polyline points="208.0,70.0,220.0,86.0,226.0,112.0,226.0,128.0,216.0,144.0,210.0,140.0,220.0,144.0,214.0,160.0,226.0,154.0" stroke="black" stroke-width="1" fill="none" />
<polyline points="118.0,106.0,110.0,116.0,106.0,124.0,130.0,120.0,132.0,104.0,122.0,88.0,116.0,80.0,114.0,64.0,106.0,48.0,104.0,32.0" stroke="black" stroke-width="1" fill="none" />
<polyline points="78.0,20.0,68.0,36.0,62.0,36.0,60.0,52.0,52.0,68.0,44.0,86.0,38.0,102.0,42.0,118.0,52.0,134.0,90.0,158.0,98.0,174.0,104.0,178.0,100.0,188.0,102.0,198.0,102.0,210.0,114.0,230.0,110.0,246.0,118.0,248.0,120.0,242.0,132.0,244.0" stroke="black" stroke-width="1" fill="none" />
<polyline points="154.0,60.0,152.0,66.0,140.0,82.0,144.0,66.0,144.0,50.0,134.0,34.0,112.0,18.0,134.0,12.0" stroke="black" stroke-width="1" fill="none" />
<polyline points="54.0,20.0,38.0,34.0,22.0,60.0,10.0,68.0,10.0,52.0,14.0,36.0,30.0,18.0,46.0,18.0,38.0,24.0" stroke="black" stroke-width="1" fill="none" />
</svg>