<svg xmlns="http://www.w3.org/2000/svg" height="250px" width="254px" version="1.1"><polyline points="236.0,20.0,240.0,36.0,240.0,52.0,238.0,68.0,226.0,84.0,214.0,94.0,224.0,122.0,230.0,106.0" stroke="black" stroke-width="1" fill="none" />
<polyline points="212.0,106.0,210.0,90.0" stroke="black" stroke-width="1" fill="none" />
<polyline points="180.0,68.0,180.0,58.0,184.0,42.0,192.0,34.0,200.0,28.0,196.0,20.0" stroke="black" stroke-width="1" fill="none" />
<polyline points="204.0,12.0,220.0,8.0,246.0,16.0,254.0,24.0,254.0,40.0,250.0,56.0,248.0,72.0,240.0,88.0,246.0,94.0,228.0,110.0,212.0,126.0,216.0,142.0,210.0,158.0,200.0,160.0,202.0,178.0,218.0,180.0,234.0,182.0,250.0,158.0" stroke="black" stroke-width="1" fill="none" />
<polyline points="234.0,168.0,238.0,152.0,226.0,168.0,226.0,160.0,226.0,150.0,210.0,120.0,196.0,116.0,184.0,108.0,194.0,100.0,204.0,86.0,186.0,70.0,190.0,54.0,200.0,38.0,216.0,22.0,212.0,30.0" stroke="black" stroke-width="1" fill="none" />
<polyline points="230.0,6.0,246.0,2.0" stroke="black" stroke-width="1" fill="none" />
<polyline points="230.0,78.0,226.0,84.0,212.0,90.0,196.0,76.0,194.0,62.0,186.0,60.0" stroke="black" stroke-width="1" fill="none" />
<polyline points="160.0,78.0,138.0,94.0,130.0,110.0,132.0,126.0,136.0,142.0,152.0,158.0,156.0,178.0,172.0,178.0,188.0,178.0,204.0,172.0,220.0,174.0" stroke="black" stroke-width="1" fill="none" />
<polyline points="198.0,124.0,190.0,102.0,170.0,124.0,174.0,124.0,188.0,116.0,180.0,122.0,164.0,114.0,166.0,112.0,164.0,128.0,170.0,130.0" stroke="black" stroke-width="1" fill="none" />
<polyline points="142.0,142.0,142.0,162.0" stroke="black" stroke-width="1" fill="none" />
<polyline points="132.0,160.0,138.0,158.0,112.0,148.0" stroke="black" stroke-width="1" fill="none" />
<polyline points="120.0,122.0,124.0,138.0,118.0,154.0,122.0,164.0,112.0,180.0,110.0,196.0,120.0,212.0,134.0,220.0,120.0,232.0,110.0,238.0,98.0,244.0,126.0,250.0,142.0,250.0" stroke="black" stroke-width="1" fill="none" />
<polyline points="134.0,240.0,142.0,224.0,122.0,214.0" stroke="black" stroke-width="1" fill="none" />
<polyline points="142.0,220.0,136.0,240.0,118.0,240.0,102.0,230.0,110.0,214.0,94.0,210.0,110.0,220.0,102.0,204.0" stroke="black" stroke-width="1" fill="none" />
<polyline points="94.0,182.0,78.0,194.0,62.0,196.0" stroke="black" stroke-width="1" fill="none" />
<polyline points="50.0,220.0,66.0,216.0,82.0,210.0,88.0,218.0,82.0,224.0,82.0,240.0" stroke="black" stroke-width="1" fill="none" />
<polyline points="70.0,238.0,56.0,228.0" stroke="black" stroke-width="1" fill="none" />
<polyline points="30.0,236.0,34.0,220.0,40.0,196.0,40.0,180.0,46.0,164.0,42.0,156.0" stroke="black" stroke-width="1" fill="none" />
<polyline points="40.0,146.0,56.0,148.0,72.0,148.0,88.0,146.0,104.0,156.0,102.0,172.0,100.0,188.0,98.0,202.0,96.0,218.0,90.0,232.0" stroke="black" stroke-width="1" fill="none" />
<polyline points="38.0,232.0,42.0,216.0,20.0,226.0" stroke="black" stroke-width="1" fill="none" />
<polyline points="22.0,156.0,38.0,158.0,32.0,160.0,22.0,176.0,46.0,164.0,62.0,158.0,78.0,158.0,94.0,160.0,118.0,170.0,134.0,150.0,150.0,170.0,166.0,174.0" stroke="black" stroke-width="1" fill="none" />
<polyline points="238.0,180.0,246.0,164.0,248.0,148.0,242.0,136.0,226.0,136.0,214.0,134.0,206.0,146.0,194.0,158.0,180.0,162.0,164.0,160.0,148.0,156.0,142.0,138.0,116.0,112.0,100.0,110.0,84.0,94.0,72.0,86.0,68.0,70.0,70.0,52.0,70.0,48.0,86.0,46.0,96.0,52.0,112.0,54.0,126.0,78.0,152.0,74.0" stroke="black" stroke-width="1" fill="none" />
<polyline points="122.0,84.0,124.0,68.0,118.0,58.0" stroke="black" stroke-width="1" fill="none" />
<polyline points="94.0,88.0,110.0,90.0,110.0,98.0,126.0,94.0,154.0,88.0" stroke="black" stroke-width="1" fill="none" />
<polyline points="118.0,114.0,114.0,130.0,112.0,156.0,92.0,164.0,82.0,170.0" stroke="black" stroke-width="1" fill="none" />
<polyline points="96.0,192.0,76.0,202.0,60.0,204.0,58.0,194.0,42.0,198.0,16.0,180.0,14.0,156.0" stroke="black" stroke-width="1" fill="none" />
<polyline points="0.0,130.0,4.0,136.0,4.0,152.0,2.0,168.0,12.0,180.0,20.0,196.0,20.0,212.0,24.0,220.0,22.0,236.0" stroke="black" stroke-width="1" fill="none" />
<polyline points="112.0,246.0,96.0,250.0,80.0,248.0,60.0,234.0,50.0,250.0,40.0,238.0,30.0,250.0,36.0,246.0,44.0,230.0,52.0,216.0,50.0,194.0,28.0,182.0,20.0,170.0,12.0,154.0,12.0,138.0,16.0,124.0,0.0,122.0" stroke="black" stroke-width="1" fill="none" />
<polyline points="64.0,34.0,80.0,38.0,96.0,30.0,118.0,50.0,136.0,66.0,130.0,74.0,124.0,90.0,136.0,96.0,152.0,82.0,168.0,78.0,184.0,88.0,194.0,106.0,204.0,104.0" stroke="black" stroke-width="1" fill="none" />
<polyline points="230.0,30.0,230.0,18.0,214.0,24.0,198.0,42.0,184.0,32.0,174.0,62.0,158.0,66.0,142.0,66.0,126.0,54.0,116.0,44.0,100.0,40.0,76.0,34.0,60.0,30.0,60.0,30.0,62.0,46.0,62.0,62.0,76.0,64.0,92.0,82.0,82.0,96.0" stroke="black" stroke-width="1" fill="none" />
</svg>