<svg xmlns="http://www.w3.org/2000/svg" height="254px" width="210px" version="1.1"><polyline points="210.0,14.0,210.0,30.0,210.0,46.0,190.0,62.0,186.0,78.0,174.0,94.0,172.0,112.0" stroke="black" stroke-width="1" fill="none" />
<polyline points="160.0,120.0,144.0,120.0" stroke="black" stroke-width="1" fill="none" />
<polyline points="144.0,112.0,140.0,118.0,138.0,134.0,138.0,150.0,152.0,162.0,148.0,182.0,144.0,194.0,152.0,192.0,162.0,214.0,170.0,208.0,176.0,220.0,190.0,226.0,202.0,236.0" stroke="black" stroke-width="1" fill="none" />
<polyline points="190.0,246.0,190.0,242.0,178.0,236.0,182.0,234.0,184.0,218.0,174.0,202.0,180.0,202.0,174.0,202.0" stroke="black" stroke-width="1" fill="none" />
<polyline points="188.0,206.0,202.0,222.0,210.0,238.0" stroke="black" stroke-width="1" fill="none" />
<polyline points="154.0,204.0,154.0,188.0,152.0,182.0,136.0,178.0,120.0,180.0" stroke="black" stroke-width="1" fill="none" />
<polyline points="112.0,190.0,112.0,186.0,116.0,176.0,106.0,192.0,98.0,208.0,94.0,224.0,100.0,240.0" stroke="black" stroke-width="1" fill="none" />
<polyline points="80.0,246.0,64.0,254.0,48.0,250.0,58.0,242.0,74.0,222.0,76.0,206.0,76.0,190.0,78.0,168.0,92.0,166.0,106.0,150.0,114.0,134.0,122.0,120.0,118.0,102.0,110.0,106.0,116.0,82.0,120.0,66.0,132.0,60.0,144.0,44.0,150.0,44.0,134.0,44.0,118.0,54.0" stroke="black" stroke-width="1" fill="none" />
<polyline points="124.0,64.0,124.0,60.0,136.0,42.0,116.0,42.0,110.0,58.0,108.0,74.0,112.0,86.0,128.0,90.0,144.0,80.0" stroke="black" stroke-width="1" fill="none" />
<polyline points="140.0,100.0,156.0,100.0,172.0,84.0" stroke="black" stroke-width="1" fill="none" />
<polyline points="166.0,74.0,172.0,58.0,188.0,56.0,186.0,40.0,188.0,24.0,194.0,8.0,184.0,2.0" stroke="black" stroke-width="1" fill="none" />
<polyline points="202.0,16.0,192.0,32.0,164.0,28.0,148.0,30.0,132.0,30.0,116.0,32.0,108.0,62.0" stroke="black" stroke-width="1" fill="none" />
<polyline points="102.0,48.0,112.0,36.0,102.0,52.0,100.0,68.0,102.0,84.0,108.0,100.0,100.0,116.0,84.0,124.0,76.0,132.0,88.0,132.0,104.0,134.0,120.0,124.0,142.0,106.0,158.0,106.0,174.0,92.0,196.0,60.0" stroke="black" stroke-width="1" fill="none" />
<polyline points="192.0,78.0,174.0,72.0,162.0,72.0,164.0,56.0,166.0,40.0,156.0,30.0,150.0,36.0,170.0,18.0,166.0,8.0,174.0,0.0,150.0,20.0" stroke="black" stroke-width="1" fill="none" />
<polyline points="170.0,26.0,180.0,42.0,166.0,44.0,172.0,54.0,178.0,68.0,180.0,74.0,168.0,90.0,142.0,94.0,110.0,114.0,124.0,132.0,124.0,148.0,114.0,164.0,92.0,176.0,82.0,192.0,82.0,208.0,82.0,228.0,68.0,242.0,84.0,242.0,88.0,254.0,102.0,240.0" stroke="black" stroke-width="1" fill="none" />
<polyline points="96.0,206.0,98.0,200.0,102.0,182.0,118.0,168.0,134.0,158.0,136.0,166.0,140.0,186.0,160.0,164.0,176.0,180.0,176.0,198.0,192.0,212.0,208.0,224.0" stroke="black" stroke-width="1" fill="none" />
<polyline points="106.0,248.0,92.0,244.0,88.0,226.0,90.0,210.0,94.0,194.0,108.0,178.0,122.0,158.0,106.0,168.0,90.0,180.0" stroke="black" stroke-width="1" fill="none" />
<polyline points="76.0,234.0,60.0,232.0" stroke="black" stroke-width="1" fill="none" />
<polyline points="54.0,234.0,46.0,238.0,52.0,254.0" stroke="black" stroke-width="1" fill="none" />
<polyline points="52.0,226.0,68.0,228.0" stroke="black" stroke-width="1" fill="none" />
<polyline points="84.0,112.0,68.0,100.0,52.0,98.0" stroke="black" stroke-width="1" fill="none" />
<polyline points="46.0,102.0,70.0,110.0,76.0,126.0" stroke="black" stroke-width="1" fill="none" />
<polyline points="88.0,90.0,76.0,76.0,60.0,68.0" stroke="black" stroke-width="1" fill="none" />
<polyline points="48.0,82.0,64.0,80.0,82.0,88.0,78.0,104.0,84.0,120.0,100.0,126.0,120.0,108.0,138.0,122.0,152.0,114.0,168.0,108.0,180.0,100.0" stroke="black" stroke-width="1" fill="none" />
<polyline points="156.0,88.0,140.0,96.0,154.0,76.0,152.0,78.0,136.0,76.0,120.0,72.0" stroke="black" stroke-width="1" fill="none" />
<polyline points="132.0,84.0,108.0,94.0,92.0,76.0" stroke="black" stroke-width="1" fill="none" />
<polyline points="68.0,90.0,52.0,88.0" stroke="black" stroke-width="1" fill="none" />
<polyline points="42.0,60.0,42.0,60.0,44.0,76.0,42.0,92.0,42.0,108.0,46.0,114.0,56.0,110.0,70.0,108.0,88.0,108.0,92.0,102.0,108.0,100.0" stroke="black" stroke-width="1" fill="none" />
<polyline points="138.0,106.0,132.0,122.0,132.0,138.0,132.0,154.0,156.0,162.0,164.0,176.0,166.0,192.0,154.0,198.0,154.0,208.0,166.0,224.0,172.0,230.0,166.0,242.0,166.0,252.0,182.0,254.0,198.0,254.0" stroke="black" stroke-width="1" fill="none" />
<polyline points="150.0,62.0,134.0,36.0,118.0,36.0" stroke="black" stroke-width="1" fill="none" />
<polyline points="198.0,32.0,194.0,48.0,198.0,70.0,194.0,76.0,186.0,92.0,166.0,108.0" stroke="black" stroke-width="1" fill="none" />
</svg>