<svg xmlns="http://www.w3.org/2000/svg" height="256px" width="178px" version="1.1"><polyline points="92.0,8.0,84.0,24.0,94.0,30.0,88.0,44.0,90.0,48.0,106.0,50.0,122.0,54.0,130.0,40.0,140.0,34.0,152.0,48.0,168.0,54.0,178.0,54.0" stroke="black" stroke-width="1" fill="none" />
<polyline points="172.0,40.0,170.0,56.0,178.0,64.0,178.0,78.0,178.0,94.0,156.0,102.0,158.0,118.0,154.0,122.0,146.0,132.0,150.0,140.0,144.0,156.0,138.0,172.0,120.0,176.0,130.0,180.0,118.0,198.0,136.0,194.0,144.0,212.0" stroke="black" stroke-width="1" fill="none" />
<polyline points="128.0,210.0,144.0,194.0,138.0,172.0,122.0,182.0" stroke="black" stroke-width="1" fill="none" />
<polyline points="102.0,178.0,112.0,180.0,108.0,196.0,110.0,198.0,126.0,208.0" stroke="black" stroke-width="1" fill="none" />
<polyline points="138.0,218.0,122.0,218.0,106.0,204.0" stroke="black" stroke-width="1" fill="none" />
<polyline points="82.0,228.0,90.0,226.0,88.0,210.0,98.0,206.0,100.0,190.0,106.0,174.0,112.0,158.0,126.0,154.0,134.0,126.0,146.0,120.0,134.0,104.0,118.0,106.0,102.0,104.0" stroke="black" stroke-width="1" fill="none" />
<polyline points="100.0,112.0,116.0,112.0,132.0,110.0,148.0,122.0" stroke="black" stroke-width="1" fill="none" />
<polyline points="148.0,132.0,132.0,134.0,116.0,132.0" stroke="black" stroke-width="1" fill="none" />
<polyline points="102.0,120.0,118.0,116.0,134.0,116.0,120.0,132.0,126.0,122.0,144.0,124.0" stroke="black" stroke-width="1" fill="none" />
<polyline points="172.0,96.0,156.0,102.0,132.0,92.0,116.0,88.0,106.0,92.0,108.0,84.0,86.0,98.0,86.0,86.0" stroke="black" stroke-width="1" fill="none" />
<polyline points="74.0,68.0,82.0,62.0,100.0,58.0" stroke="black" stroke-width="1" fill="none" />
<polyline points="102.0,66.0,118.0,66.0,118.0,72.0,122.0,80.0,138.0,86.0,154.0,80.0" stroke="black" stroke-width="1" fill="none" />
<polyline points="172.0,78.0,164.0,94.0,160.0,90.0,148.0,78.0,146.0,62.0" stroke="black" stroke-width="1" fill="none" />
<polyline points="152.0,54.0,140.0,70.0,130.0,72.0,122.0,54.0,120.0,46.0,122.0,36.0,114.0,36.0,122.0,26.0,106.0,22.0,90.0,24.0" stroke="black" stroke-width="1" fill="none" />
<polyline points="86.0,14.0,102.0,6.0,118.0,6.0,138.0,14.0,142.0,30.0,134.0,40.0,134.0,56.0,106.0,68.0,128.0,84.0,120.0,94.0,132.0,100.0,150.0,110.0,156.0,122.0,166.0,126.0" stroke="black" stroke-width="1" fill="none" />
<polyline points="148.0,152.0,132.0,146.0,120.0,162.0,104.0,164.0,92.0,158.0,76.0,156.0" stroke="black" stroke-width="1" fill="none" />
<polyline points="80.0,140.0,96.0,146.0,106.0,146.0,122.0,142.0,122.0,148.0" stroke="black" stroke-width="1" fill="none" />
<polyline points="166.0,136.0,152.0,136.0,174.0,140.0,164.0,128.0,174.0,112.0,178.0,96.0" stroke="black" stroke-width="1" fill="none" />
<polyline points="138.0,68.0,142.0,52.0" stroke="black" stroke-width="1" fill="none" />
<polyline points="136.0,8.0,120.0,8.0" stroke="black" stroke-width="1" fill="none" />
<polyline points="102.0,10.0,102.0,14.0,90.0,32.0,88.0,48.0,80.0,64.0,84.0,86.0,100.0,102.0,92.0,112.0,100.0,118.0,102.0,134.0,106.0,146.0,98.0,150.0,98.0,166.0,94.0,180.0,90.0,196.0,102.0,202.0,116.0,218.0,112.0,230.0,114.0,242.0,110.0,256.0,106.0,254.0,90.0,254.0,84.0,240.0,98.0,242.0,94.0,232.0,84.0,256.0,82.0,248.0,74.0,244.0,74.0,228.0,80.0,212.0,78.0,196.0,80.0,180.0,88.0,164.0,76.0,148.0,74.0,132.0,82.0,116.0,86.0,100.0,74.0,102.0,76.0,86.0,74.0,70.0,74.0,54.0,74.0,38.0,76.0,22.0,76.0,6.0,86.0,0.0,78.0,10.0" stroke="black" stroke-width="1" fill="none" />
</svg>