<svg xmlns="http://www.w3.org/2000/svg" height="484px" width="484px" version="1.1"><polyline points="28.0,26.0,26.0,42.0,26.0,58.0,26.0,74.0,26.0,90.0,26.0,106.0,26.0,122.0,26.0,138.0,26.0,154.0,26.0,170.0,26.0,186.0,26.0,202.0,26.0,218.0,32.0,222.0,48.0,224.0,64.0,224.0,80.0,224.0,96.0,224.0,112.0,224.0,128.0,224.0,144.0,224.0,160.0,224.0,176.0,224.0,192.0,224.0,208.0,224.0" stroke="black" stroke-width="1" fill="none" />
<polyline points="164.0,188.0,148.0,184.0,142.0,164.0,126.0,162.0,110.0,174.0,92.0,202.0,78.0,212.0,70.0,208.0,84.0,198.0,94.0,182.0,92.0,166.0,110.0,150.0,114.0,134.0,124.0,126.0,136.0,104.0,156.0,100.0,166.0,84.0,166.0,78.0,162.0,62.0,154.0,52.0,170.0,38.0,154.0,38.0" stroke="black" stroke-width="1" fill="none" />
<polyline points="174.0,38.0,170.0,54.0,170.0,70.0,172.0,86.0,168.0,102.0,148.0,122.0" stroke="black" stroke-width="1" fill="none" />
<polyline points="134.0,106.0,150.0,96.0,164.0,88.0" stroke="black" stroke-width="1" fill="none" />
<polyline points="178.0,50.0,158.0,58.0,142.0,60.0,126.0,64.0" stroke="black" stroke-width="1" fill="none" />
<polyline points="124.0,72.0,120.0,88.0,126.0,100.0,142.0,96.0" stroke="black" stroke-width="1" fill="none" />
<polyline points="138.0,90.0,140.0,74.0,146.0,72.0,122.0,76.0" stroke="black" stroke-width="1" fill="none" />
<polyline points="116.0,74.0,132.0,70.0,152.0,74.0,146.0,90.0,132.0,122.0,130.0,138.0,124.0,144.0,108.0,160.0,96.0,176.0,106.0,184.0,104.0,200.0,110.0,206.0" stroke="black" stroke-width="1" fill="none" />
<polyline points="92.0,190.0,76.0,196.0" stroke="black" stroke-width="1" fill="none" />
<polyline points="72.0,214.0,88.0,216.0,100.0,216.0" stroke="black" stroke-width="1" fill="none" />
<polyline points="90.0,172.0,106.0,162.0,122.0,150.0,146.0,158.0,152.0,166.0,166.0,182.0,176.0,200.0,184.0,204.0,168.0,208.0,172.0,212.0" stroke="black" stroke-width="1" fill="none" />
<polyline points="158.0,164.0,144.0,146.0,128.0,154.0,112.0,164.0" stroke="black" stroke-width="1" fill="none" />
<polyline points="124.0,162.0,112.0,178.0" stroke="black" stroke-width="1" fill="none" />
<polyline points="92.0,164.0,108.0,152.0" stroke="black" stroke-width="1" fill="none" />
<polyline points="94.0,132.0,90.0,114.0,86.0,108.0,70.0,108.0,68.0,96.0,68.0,90.0" stroke="black" stroke-width="1" fill="none" />
<polyline points="74.0,94.0,90.0,90.0,86.0,90.0,96.0,106.0,104.0,110.0,120.0,104.0,142.0,114.0,158.0,116.0" stroke="black" stroke-width="1" fill="none" />
<polyline points="174.0,74.0,156.0,88.0,130.0,92.0,120.0,110.0,114.0,122.0,110.0,130.0,112.0,104.0,112.0,88.0,118.0,72.0,134.0,68.0,112.0,68.0" stroke="black" stroke-width="1" fill="none" />
<polyline points="86.0,114.0,90.0,130.0" stroke="black" stroke-width="1" fill="none" />
<polyline points="142.0,166.0,152.0,182.0,168.0,182.0" stroke="black" stroke-width="1" fill="none" />
<polyline points="138.0,174.0,154.0,190.0,156.0,206.0,162.0,216.0,178.0,218.0" stroke="black" stroke-width="1" fill="none" />
<polyline points="282.0,284.0,298.0,282.0,314.0,282.0,330.0,282.0,346.0,282.0,362.0,282.0,378.0,282.0,394.0,282.0,410.0,282.0,426.0,282.0,442.0,282.0,458.0,282.0,474.0,282.0,478.0,288.0,480.0,304.0,480.0,320.0,480.0,336.0,480.0,352.0,480.0,368.0,480.0,384.0,480.0,400.0,480.0,416.0,480.0,432.0,480.0,448.0,480.0,464.0" stroke="black" stroke-width="1" fill="none" />
<polyline points="484.0,476.0,484.0,460.0,484.0,444.0,484.0,428.0,484.0,412.0,484.0,396.0,484.0,380.0,484.0,364.0,484.0,348.0,484.0,332.0,484.0,316.0,484.0,300.0,478.0,286.0,462.0,286.0,446.0,286.0,430.0,286.0,414.0,286.0,398.0,286.0,382.0,286.0,366.0,286.0,350.0,286.0,334.0,286.0,318.0,286.0,302.0,286.0,286.0,288.0,288.0,286.0,286.0,302.0,286.0,318.0,286.0,334.0,286.0,350.0,286.0,366.0,286.0,382.0,286.0,398.0,286.0,414.0,286.0,430.0,286.0,446.0,286.0,462.0,286.0,478.0,300.0,484.0,316.0,484.0,332.0,484.0,348.0,484.0,364.0,484.0,380.0,484.0,396.0,484.0,412.0,484.0,428.0,484.0,444.0,484.0,460.0,484.0,476.0,484.0" stroke="black" stroke-width="1" fill="none" />
<polyline points="484.0,220.0,484.0,204.0,484.0,188.0,484.0,172.0,484.0,156.0,484.0,140.0,484.0,124.0,484.0,108.0,484.0,92.0,484.0,76.0,484.0,60.0,484.0,44.0,478.0,30.0,462.0,30.0,446.0,30.0,430.0,30.0,414.0,30.0,398.0,30.0,382.0,30.0,366.0,30.0,350.0,30.0,334.0,30.0,318.0,30.0,302.0,30.0,286.0,32.0,288.0,30.0,286.0,46.0,286.0,62.0,286.0,78.0,286.0,94.0,286.0,110.0,286.0,126.0,286.0,142.0,286.0,158.0,286.0,174.0,286.0,190.0,286.0,206.0,286.0,222.0,300.0,228.0,316.0,228.0,332.0,228.0,348.0,228.0,364.0,228.0,380.0,228.0,396.0,228.0,412.0,228.0,428.0,228.0,444.0,228.0,460.0,228.0,476.0,228.0" stroke="black" stroke-width="1" fill="none" />
<polyline points="480.0,208.0,480.0,192.0,480.0,176.0,480.0,160.0,480.0,144.0,480.0,128.0,480.0,112.0,480.0,96.0,480.0,80.0,480.0,64.0,480.0,48.0,478.0,32.0,474.0,26.0,458.0,26.0,442.0,26.0,426.0,26.0,410.0,26.0,394.0,26.0,378.0,26.0,362.0,26.0,346.0,26.0,330.0,26.0,314.0,26.0,298.0,26.0,282.0,28.0,284.0,26.0,282.0,42.0,282.0,58.0,282.0,74.0,282.0,90.0,282.0,106.0,282.0,122.0,282.0,138.0,282.0,154.0,282.0,170.0,282.0,186.0,282.0,202.0,282.0,218.0,288.0,222.0,304.0,224.0,320.0,224.0,336.0,224.0,352.0,224.0,368.0,224.0,384.0,224.0,400.0,224.0,416.0,224.0,432.0,224.0,448.0,224.0,464.0,224.0" stroke="black" stroke-width="1" fill="none" />
<polyline points="284.0,282.0,282.0,298.0,282.0,314.0,282.0,330.0,282.0,346.0,282.0,362.0,282.0,378.0,282.0,394.0,282.0,410.0,282.0,426.0,282.0,442.0,282.0,458.0,282.0,474.0,288.0,478.0,304.0,480.0,320.0,480.0,336.0,480.0,352.0,480.0,368.0,480.0,384.0,480.0,400.0,480.0,416.0,480.0,432.0,480.0,448.0,480.0,464.0,480.0" stroke="black" stroke-width="1" fill="none" />
<polyline points="228.0,476.0,228.0,460.0,228.0,444.0,228.0,428.0,228.0,412.0,228.0,396.0,228.0,380.0,228.0,364.0,228.0,348.0,228.0,332.0,228.0,316.0,228.0,300.0,222.0,286.0,206.0,286.0,190.0,286.0,174.0,286.0,158.0,286.0,142.0,286.0,126.0,286.0,110.0,286.0,94.0,286.0,78.0,286.0,62.0,286.0,46.0,286.0,30.0,288.0,32.0,286.0,30.0,302.0,30.0,318.0,30.0,334.0,30.0,350.0,30.0,366.0,30.0,382.0,30.0,398.0,30.0,414.0,30.0,430.0,30.0,446.0,30.0,462.0,30.0,478.0,44.0,484.0,60.0,484.0,76.0,484.0,92.0,484.0,108.0,484.0,124.0,484.0,140.0,484.0,156.0,484.0,172.0,484.0,188.0,484.0,204.0,484.0,220.0,484.0" stroke="black" stroke-width="1" fill="none" />
<polyline points="228.0,220.0,228.0,204.0,228.0,188.0,228.0,172.0,228.0,156.0,228.0,140.0,228.0,124.0,228.0,108.0,228.0,92.0,228.0,76.0,228.0,60.0,228.0,44.0,222.0,30.0,206.0,30.0,190.0,30.0,174.0,30.0,158.0,30.0,142.0,30.0,126.0,30.0,110.0,30.0,94.0,30.0,78.0,30.0,62.0,30.0,46.0,30.0,30.0,32.0,32.0,30.0,30.0,46.0,30.0,62.0,30.0,78.0,30.0,94.0,30.0,110.0,30.0,126.0,30.0,142.0,30.0,158.0,30.0,174.0,30.0,190.0,30.0,206.0,30.0,222.0,44.0,228.0,60.0,228.0,76.0,228.0,92.0,228.0,108.0,228.0,124.0,228.0,140.0,228.0,156.0,228.0,172.0,228.0,188.0,228.0,204.0,228.0,220.0,228.0" stroke="black" stroke-width="1" fill="none" />
<polyline points="224.0,208.0,224.0,192.0,224.0,176.0,224.0,160.0,224.0,144.0,224.0,128.0,224.0,112.0,224.0,96.0,224.0,80.0,224.0,64.0,224.0,48.0,222.0,32.0,218.0,26.0,202.0,26.0,186.0,26.0,170.0,26.0,154.0,26.0,138.0,26.0,122.0,26.0,106.0,26.0,90.0,26.0,74.0,26.0,58.0,26.0,42.0,26.0,26.0,28.0" stroke="black" stroke-width="1" fill="none" />
<polyline points="28.0,282.0,26.0,298.0,26.0,314.0,26.0,330.0,26.0,346.0,26.0,362.0,26.0,378.0,26.0,394.0,26.0,410.0,26.0,426.0,26.0,442.0,26.0,458.0,26.0,474.0,32.0,478.0,48.0,480.0,64.0,480.0,80.0,480.0,96.0,480.0,112.0,480.0,128.0,480.0,144.0,480.0,160.0,480.0,176.0,480.0,192.0,480.0,208.0,480.0" stroke="black" stroke-width="1" fill="none" />
<polyline points="224.0,464.0,224.0,448.0,224.0,432.0,224.0,416.0,224.0,400.0,224.0,384.0,224.0,368.0,224.0,352.0,224.0,336.0,224.0,320.0,224.0,304.0,222.0,288.0,218.0,282.0,202.0,282.0,186.0,282.0,170.0,282.0,154.0,282.0,138.0,282.0,122.0,282.0,106.0,282.0,90.0,282.0,74.0,282.0,58.0,282.0,42.0,282.0,26.0,284.0" stroke="black" stroke-width="1" fill="none" />
</svg>