<svg xmlns="http://www.w3.org/2000/svg" height="256px" width="220px" version="1.1"><polyline points="202.0,0.0,186.0,16.0,188.0,24.0,192.0,32.0,188.0,48.0,178.0,56.0,182.0,62.0,176.0,78.0,170.0,84.0,164.0,100.0,152.0,116.0,156.0,128.0,164.0,144.0,164.0,156.0,148.0,172.0,140.0,176.0,134.0,192.0,130.0,194.0,108.0,202.0,92.0,222.0,82.0,238.0,78.0,230.0,94.0,210.0,110.0,190.0,120.0,162.0,136.0,148.0,144.0,160.0" stroke="black" stroke-width="1" fill="none" />
<polyline points="138.0,178.0,164.0,174.0,164.0,190.0,166.0,204.0,164.0,220.0,174.0,236.0,168.0,238.0,176.0,226.0,180.0,232.0,186.0,248.0,198.0,252.0,210.0,256.0,210.0,250.0" stroke="black" stroke-width="1" fill="none" />
<polyline points="148.0,240.0,132.0,238.0" stroke="black" stroke-width="1" fill="none" />
<polyline points="140.0,222.0,138.0,206.0,118.0,200.0,102.0,208.0" stroke="black" stroke-width="1" fill="none" />
<polyline points="80.0,212.0,66.0,224.0,50.0,224.0,34.0,232.0" stroke="black" stroke-width="1" fill="none" />
<polyline points="36.0,226.0,34.0,242.0,40.0,252.0,50.0,252.0,66.0,242.0" stroke="black" stroke-width="1" fill="none" />
<polyline points="52.0,230.0,48.0,246.0" stroke="black" stroke-width="1" fill="none" />
<polyline points="46.0,230.0,42.0,246.0,68.0,252.0,84.0,250.0" stroke="black" stroke-width="1" fill="none" />
<polyline points="90.0,236.0,76.0,220.0,86.0,204.0,98.0,188.0,114.0,172.0,126.0,158.0,134.0,156.0,142.0,140.0,130.0,138.0,136.0,120.0,134.0,104.0,144.0,88.0,158.0,72.0,166.0,56.0,164.0,40.0,166.0,24.0,172.0,22.0,178.0,16.0,184.0,0.0,172.0,10.0" stroke="black" stroke-width="1" fill="none" />
<polyline points="186.0,26.0,202.0,16.0" stroke="black" stroke-width="1" fill="none" />
<polyline points="214.0,30.0,206.0,22.0,190.0,36.0,182.0,42.0,156.0,74.0,134.0,88.0,118.0,82.0,102.0,88.0,86.0,88.0,70.0,88.0,54.0,94.0" stroke="black" stroke-width="1" fill="none" />
<polyline points="40.0,70.0,56.0,68.0,72.0,68.0,88.0,70.0,104.0,74.0" stroke="black" stroke-width="1" fill="none" />
<polyline points="132.0,68.0,148.0,60.0" stroke="black" stroke-width="1" fill="none" />
<polyline points="158.0,62.0,158.0,46.0,142.0,40.0" stroke="black" stroke-width="1" fill="none" />
<polyline points="134.0,46.0,146.0,42.0,152.0,58.0,138.0,62.0,136.0,78.0,138.0,78.0,148.0,66.0" stroke="black" stroke-width="1" fill="none" />
<polyline points="144.0,94.0,160.0,84.0,184.0,60.0" stroke="black" stroke-width="1" fill="none" />
<polyline points="184.0,32.0,176.0,40.0,170.0,56.0,166.0,72.0,158.0,88.0,150.0,100.0,168.0,98.0" stroke="black" stroke-width="1" fill="none" />
<polyline points="166.0,112.0,182.0,106.0,198.0,90.0,214.0,72.0,218.0,84.0" stroke="black" stroke-width="1" fill="none" />
<polyline points="218.0,32.0,220.0,48.0,220.0,64.0,208.0,80.0,202.0,84.0,186.0,100.0,182.0,116.0,180.0,122.0" stroke="black" stroke-width="1" fill="none" />
<polyline points="162.0,134.0,150.0,142.0,132.0,128.0" stroke="black" stroke-width="1" fill="none" />
<polyline points="126.0,134.0,126.0,118.0,126.0,102.0,110.0,80.0,104.0,70.0,114.0,68.0,114.0,52.0,114.0,36.0,132.0,28.0,146.0,16.0,130.0,22.0,114.0,30.0" stroke="black" stroke-width="1" fill="none" />
<polyline points="118.0,40.0,124.0,56.0,126.0,68.0,136.0,38.0,152.0,36.0,166.0,44.0,176.0,24.0,192.0,10.0,204.0,6.0,210.0,10.0" stroke="black" stroke-width="1" fill="none" />
<polyline points="220.0,0.0,220.0,16.0,212.0,38.0,208.0,54.0,196.0,58.0,198.0,66.0,184.0,78.0,178.0,84.0,194.0,68.0" stroke="black" stroke-width="1" fill="none" />
<polyline points="162.0,32.0,160.0,22.0,144.0,30.0" stroke="black" stroke-width="1" fill="none" />
<polyline points="118.0,40.0,138.0,30.0,132.0,40.0,134.0,56.0,120.0,72.0,134.0,88.0,140.0,114.0,144.0,130.0,150.0,142.0,158.0,152.0,154.0,168.0,154.0,184.0,154.0,200.0,158.0,216.0,154.0,232.0,146.0,248.0,148.0,254.0,164.0,254.0,180.0,250.0,194.0,254.0,192.0,248.0,208.0,244.0" stroke="black" stroke-width="1" fill="none" />
<polyline points="144.0,198.0,130.0,190.0,122.0,182.0,118.0,210.0,102.0,222.0,102.0,234.0,106.0,218.0,124.0,202.0" stroke="black" stroke-width="1" fill="none" />
<polyline points="148.0,190.0,150.0,206.0,144.0,216.0,146.0,232.0,136.0,240.0,152.0,244.0,154.0,248.0" stroke="black" stroke-width="1" fill="none" />
<polyline points="88.0,238.0,68.0,236.0,52.0,230.0" stroke="black" stroke-width="1" fill="none" />
<polyline points="112.0,96.0,96.0,98.0,82.0,98.0,74.0,94.0,80.0,86.0,68.0,62.0,52.0,60.0,36.0,60.0" stroke="black" stroke-width="1" fill="none" />
<polyline points="38.0,54.0,36.0,60.0,34.0,76.0,34.0,92.0,46.0,98.0,50.0,84.0,50.0,74.0,64.0,78.0,68.0,74.0,84.0,78.0,104.0,82.0,122.0,90.0" stroke="black" stroke-width="1" fill="none" />
<polyline points="126.0,4.0,112.0,2.0,96.0,2.0" stroke="black" stroke-width="1" fill="none" />
</svg>