<svg xmlns="http://www.w3.org/2000/svg" height="256px" width="230px" version="1.1"><polyline points="92.0,0.0,112.0,2.0,112.0,14.0,114.0,30.0,118.0,46.0,120.0,50.0,108.0,62.0,106.0,84.0,106.0,100.0,108.0,116.0,112.0,132.0,112.0,148.0,116.0,164.0,116.0,180.0,118.0,196.0,118.0,212.0,120.0,228.0,114.0,234.0,126.0,250.0,126.0,240.0,142.0,238.0,158.0,236.0,174.0,230.0,178.0,254.0,192.0,254.0,202.0,254.0,208.0,254.0" stroke="black" stroke-width="1" fill="none" />
<polyline points="200.0,248.0,204.0,232.0,198.0,216.0,190.0,216.0,174.0,222.0,158.0,226.0,142.0,228.0,126.0,230.0,110.0,222.0,102.0,206.0,102.0,190.0,102.0,174.0,108.0,158.0,90.0,136.0,88.0,124.0,92.0,108.0,88.0,100.0,90.0,96.0,76.0,110.0,76.0,112.0,84.0,84.0,88.0,62.0,98.0,58.0,106.0,42.0,106.0,34.0,98.0,22.0,90.0,18.0,74.0,20.0" stroke="black" stroke-width="1" fill="none" />
<polyline points="74.0,12.0,76.0,28.0,66.0,32.0,68.0,42.0,74.0,58.0,82.0,54.0,94.0,62.0,98.0,48.0" stroke="black" stroke-width="1" fill="none" />
<polyline points="112.0,50.0,110.0,68.0" stroke="black" stroke-width="1" fill="none" />
<polyline points="112.0,82.0,130.0,84.0,164.0,94.0,170.0,108.0,168.0,112.0,174.0,98.0,190.0,106.0,206.0,124.0,222.0,134.0,228.0,136.0" stroke="black" stroke-width="1" fill="none" />
<polyline points="220.0,134.0,230.0,118.0,230.0,102.0,214.0,90.0" stroke="black" stroke-width="1" fill="none" />
<polyline points="212.0,76.0,218.0,92.0,206.0,92.0,198.0,88.0,190.0,96.0,206.0,106.0,222.0,104.0" stroke="black" stroke-width="1" fill="none" />
<polyline points="198.0,74.0,180.0,76.0,182.0,92.0,190.0,108.0,178.0,114.0,176.0,122.0,172.0,138.0" stroke="black" stroke-width="1" fill="none" />
<polyline points="166.0,122.0,158.0,106.0,136.0,92.0,136.0,100.0" stroke="black" stroke-width="1" fill="none" />
<polyline points="96.0,94.0,100.0,110.0,100.0,126.0,92.0,130.0" stroke="black" stroke-width="1" fill="none" />
<polyline points="86.0,160.0,66.0,164.0,64.0,170.0" stroke="black" stroke-width="1" fill="none" />
<polyline points="52.0,170.0,56.0,172.0,36.0,176.0,46.0,192.0,56.0,208.0,68.0,224.0,84.0,240.0,90.0,244.0,74.0,248.0" stroke="black" stroke-width="1" fill="none" />
<polyline points="78.0,222.0,80.0,228.0,70.0,216.0,66.0,210.0,58.0,202.0,50.0,186.0,38.0,178.0" stroke="black" stroke-width="1" fill="none" />
<polyline points="44.0,178.0,46.0,190.0,52.0,196.0,60.0,204.0" stroke="black" stroke-width="1" fill="none" />
<polyline points="78.0,236.0,54.0,228.0,38.0,236.0,26.0,256.0,26.0,240.0,40.0,222.0,24.0,228.0" stroke="black" stroke-width="1" fill="none" />
<polyline points="32.0,246.0,48.0,254.0,64.0,254.0" stroke="black" stroke-width="1" fill="none" />
<polyline points="120.0,220.0,136.0,224.0,152.0,220.0,168.0,206.0,184.0,206.0,200.0,204.0" stroke="black" stroke-width="1" fill="none" />
<polyline points="188.0,206.0,176.0,206.0,170.0,222.0,178.0,244.0,166.0,248.0" stroke="black" stroke-width="1" fill="none" />
<polyline points="156.0,240.0,140.0,246.0,116.0,240.0,100.0,240.0,104.0,224.0,108.0,208.0,108.0,192.0,108.0,176.0,98.0,154.0,82.0,158.0,66.0,158.0,50.0,162.0,34.0,166.0" stroke="black" stroke-width="1" fill="none" />
<polyline points="24.0,160.0,40.0,154.0,56.0,152.0,72.0,148.0,88.0,148.0" stroke="black" stroke-width="1" fill="none" />
<polyline points="120.0,146.0,116.0,140.0,96.0,138.0,80.0,140.0,64.0,144.0,48.0,140.0,40.0,146.0,24.0,156.0" stroke="black" stroke-width="1" fill="none" />
<polyline points="30.0,150.0,24.0,166.0,24.0,182.0,24.0,198.0,42.0,202.0,44.0,216.0,26.0,224.0,34.0,244.0,44.0,252.0,54.0,244.0,74.0,256.0,88.0,256.0" stroke="black" stroke-width="1" fill="none" />
<polyline points="86.0,240.0,80.0,236.0,54.0,238.0,36.0,248.0,42.0,232.0,48.0,214.0,34.0,196.0,30.0,184.0,22.0,192.0" stroke="black" stroke-width="1" fill="none" />
<polyline points="22.0,180.0,38.0,194.0,38.0,206.0,46.0,208.0,62.0,214.0" stroke="black" stroke-width="1" fill="none" />
<polyline points="120.0,210.0,124.0,194.0,124.0,178.0,124.0,162.0,126.0,146.0" stroke="black" stroke-width="1" fill="none" />
<polyline points="66.0,114.0,80.0,98.0,86.0,74.0,70.0,70.0,54.0,46.0,52.0,62.0,50.0,70.0" stroke="black" stroke-width="1" fill="none" />
<polyline points="28.0,58.0,34.0,70.0,28.0,68.0,30.0,76.0,46.0,98.0" stroke="black" stroke-width="1" fill="none" />
<polyline points="56.0,120.0,44.0,104.0,54.0,98.0,48.0,82.0,44.0,66.0,50.0,50.0,38.0,42.0,36.0,46.0" stroke="black" stroke-width="1" fill="none" />
<polyline points="30.0,22.0,30.0,38.0,26.0,54.0,22.0,70.0,28.0,86.0,38.0,84.0,40.0,102.0,40.0,118.0,48.0,120.0,64.0,110.0,80.0,98.0,96.0,86.0,120.0,86.0,136.0,88.0,144.0,78.0,160.0,82.0,176.0,78.0,192.0,72.0,208.0,68.0,224.0,72.0" stroke="black" stroke-width="1" fill="none" />
<polyline points="176.0,68.0,160.0,74.0,146.0,70.0,130.0,68.0,124.0,66.0,126.0,50.0,124.0,34.0,122.0,22.0,118.0,18.0" stroke="black" stroke-width="1" fill="none" />
<polyline points="112.0,2.0,96.0,2.0,88.0,8.0,72.0,10.0,52.0,24.0,40.0,18.0,24.0,20.0,26.0,18.0,24.0,34.0,32.0,36.0,40.0,26.0,50.0,2.0,66.0,4.0,68.0,2.0,64.0,18.0,60.0,34.0,64.0,50.0,70.0,72.0,56.0,90.0,68.0,96.0,60.0,102.0,62.0,90.0,68.0,92.0,84.0,80.0,112.0,76.0,128.0,82.0,144.0,86.0,160.0,92.0,170.0,86.0,186.0,88.0,190.0,80.0,204.0,78.0,202.0,82.0,214.0,84.0,224.0,78.0,226.0,84.0" stroke="black" stroke-width="1" fill="none" />
<polyline points="162.0,206.0,158.0,218.0" stroke="black" stroke-width="1" fill="none" />
<polyline points="190.0,226.0,188.0,242.0" stroke="black" stroke-width="1" fill="none" />
<polyline points="82.0,64.0,92.0,48.0,92.0,32.0,82.0,16.0" stroke="black" stroke-width="1" fill="none" />
</svg>