<svg xmlns="http://www.w3.org/2000/svg" height="254px" width="248px" version="1.1"><polyline points="6.0,0.0,6.0,16.0,10.0,16.0" stroke="black" stroke-width="1" fill="none" />
<polyline points="40.0,12.0,46.0,28.0,48.0,44.0,60.0,66.0,68.0,82.0,78.0,94.0,68.0,108.0,88.0,114.0,110.0,116.0,138.0,108.0,154.0,112.0,170.0,104.0" stroke="black" stroke-width="1" fill="none" />
<polyline points="150.0,76.0,120.0,70.0,116.0,54.0,118.0,38.0,138.0,38.0,148.0,38.0,132.0,30.0" stroke="black" stroke-width="1" fill="none" />
<polyline points="118.0,38.0,134.0,26.0,150.0,30.0,152.0,50.0,154.0,66.0" stroke="black" stroke-width="1" fill="none" />
<polyline points="176.0,46.0,160.0,26.0" stroke="black" stroke-width="1" fill="none" />
<polyline points="148.0,20.0,166.0,36.0,174.0,52.0,174.0,68.0,164.0,84.0" stroke="black" stroke-width="1" fill="none" />
<polyline points="138.0,82.0,130.0,74.0,122.0,58.0,136.0,54.0,126.0,38.0,124.0,48.0,122.0,46.0,124.0,62.0" stroke="black" stroke-width="1" fill="none" />
<polyline points="120.0,44.0,136.0,42.0,146.0,30.0,162.0,46.0,166.0,62.0,158.0,78.0" stroke="black" stroke-width="1" fill="none" />
<polyline points="162.0,70.0,148.0,74.0,132.0,80.0,116.0,76.0,102.0,62.0,98.0,82.0,96.0,98.0,90.0,86.0,100.0,66.0,100.0,50.0,110.0,34.0,108.0,18.0,100.0,16.0" stroke="black" stroke-width="1" fill="none" />
<polyline points="108.0,24.0,124.0,20.0,138.0,16.0,152.0,22.0,168.0,24.0,184.0,32.0" stroke="black" stroke-width="1" fill="none" />
<polyline points="176.0,22.0,192.0,30.0,208.0,10.0,222.0,8.0" stroke="black" stroke-width="1" fill="none" />
<polyline points="212.0,0.0,206.0,16.0,192.0,22.0,198.0,28.0,194.0,34.0,188.0,50.0,180.0,66.0,204.0,48.0,220.0,24.0,236.0,18.0" stroke="black" stroke-width="1" fill="none" />
<polyline points="238.0,30.0,222.0,28.0" stroke="black" stroke-width="1" fill="none" />
<polyline points="214.0,36.0,230.0,36.0,246.0,38.0" stroke="black" stroke-width="1" fill="none" />
<polyline points="238.0,46.0,222.0,50.0,218.0,46.0,220.0,54.0,210.0,68.0,232.0,68.0,236.0,52.0,240.0,56.0,248.0,60.0" stroke="black" stroke-width="1" fill="none" />
<polyline points="244.0,70.0,228.0,78.0" stroke="black" stroke-width="1" fill="none" />
<polyline points="246.0,82.0,246.0,68.0,236.0,84.0,220.0,80.0,204.0,72.0" stroke="black" stroke-width="1" fill="none" />
<polyline points="196.0,76.0,206.0,92.0,228.0,94.0,244.0,90.0,240.0,86.0,224.0,88.0,208.0,86.0,208.0,80.0,210.0,72.0,214.0,64.0,216.0,48.0,202.0,62.0" stroke="black" stroke-width="1" fill="none" />
<polyline points="176.0,40.0,182.0,26.0,160.0,12.0" stroke="black" stroke-width="1" fill="none" />
<polyline points="112.0,16.0,128.0,12.0,144.0,8.0,156.0,18.0,174.0,34.0,184.0,50.0,196.0,46.0,188.0,62.0,180.0,78.0,168.0,94.0,172.0,114.0,180.0,102.0,188.0,112.0" stroke="black" stroke-width="1" fill="none" />
<polyline points="162.0,100.0,146.0,100.0,120.0,90.0,104.0,100.0,88.0,94.0" stroke="black" stroke-width="1" fill="none" />
<polyline points="100.0,88.0,84.0,88.0,80.0,72.0,76.0,56.0,72.0,40.0,74.0,24.0,70.0,8.0,82.0,2.0,60.0,2.0" stroke="black" stroke-width="1" fill="none" />
<polyline points="48.0,2.0,48.0,6.0,50.0,22.0,60.0,36.0,64.0,52.0,66.0,68.0,66.0,82.0,78.0,98.0,80.0,114.0,80.0,110.0,96.0,112.0,112.0,108.0,122.0,98.0,148.0,94.0,164.0,84.0,180.0,76.0,186.0,60.0,196.0,44.0" stroke="black" stroke-width="1" fill="none" />
<polyline points="248.0,14.0,244.0,30.0,246.0,40.0,246.0,56.0,228.0,60.0,222.0,66.0,222.0,90.0,212.0,100.0,230.0,100.0" stroke="black" stroke-width="1" fill="none" />
<polyline points="246.0,0.0,238.0,16.0,222.0,22.0,208.0,38.0,202.0,54.0,194.0,70.0,190.0,86.0,174.0,100.0,150.0,116.0,136.0,122.0,134.0,140.0,136.0,156.0,142.0,172.0,150.0,180.0,160.0,196.0,170.0,212.0,188.0,230.0,198.0,250.0" stroke="black" stroke-width="1" fill="none" />
<polyline points="182.0,252.0,166.0,250.0,154.0,254.0,138.0,254.0,134.0,244.0,146.0,236.0,156.0,220.0,136.0,212.0,138.0,198.0,140.0,192.0,124.0,182.0,108.0,194.0,92.0,208.0,76.0,222.0,60.0,222.0,44.0,210.0,28.0,210.0,24.0,220.0,8.0,214.0,28.0,214.0,6.0,210.0,6.0,194.0,12.0,178.0,6.0,190.0" stroke="black" stroke-width="1" fill="none" />
<polyline points="14.0,184.0,30.0,178.0,46.0,180.0,62.0,200.0,60.0,198.0,80.0,202.0,76.0,208.0,66.0,214.0,82.0,206.0" stroke="black" stroke-width="1" fill="none" />
<polyline points="52.0,198.0,36.0,198.0,20.0,206.0,14.0,208.0,32.0,188.0,16.0,194.0,18.0,198.0,42.0,198.0,40.0,214.0,30.0,222.0,48.0,220.0,54.0,234.0" stroke="black" stroke-width="1" fill="none" />
<polyline points="46.0,218.0,46.0,234.0,56.0,228.0,72.0,228.0,88.0,226.0,100.0,210.0,116.0,196.0,114.0,196.0,98.0,212.0,106.0,214.0,120.0,206.0,146.0,212.0,160.0,230.0,164.0,230.0,168.0,246.0" stroke="black" stroke-width="1" fill="none" />
<polyline points="174.0,242.0,158.0,242.0,156.0,226.0" stroke="black" stroke-width="1" fill="none" />
<polyline points="132.0,230.0,136.0,222.0,152.0,224.0,168.0,236.0,184.0,244.0,200.0,242.0,216.0,238.0,232.0,254.0" stroke="black" stroke-width="1" fill="none" />
<polyline points="248.0,250.0,248.0,234.0,240.0,228.0,238.0,224.0,222.0,224.0,206.0,230.0,190.0,234.0,176.0,226.0,168.0,222.0,160.0,206.0,148.0,190.0,134.0,174.0,128.0,158.0,126.0,142.0,128.0,126.0,130.0,110.0,128.0,88.0,118.0,80.0,104.0,78.0,110.0,68.0,106.0,52.0,102.0,34.0,100.0,20.0,102.0,26.0,102.0,34.0" stroke="black" stroke-width="1" fill="none" />
<polyline points="82.0,30.0,80.0,46.0,80.0,56.0" stroke="black" stroke-width="1" fill="none" />
<polyline points="118.0,124.0,118.0,140.0,118.0,156.0,110.0,172.0,102.0,178.0,90.0,198.0,80.0,194.0,96.0,186.0,106.0,178.0,132.0,166.0,148.0,172.0,148.0,188.0,164.0,214.0,180.0,220.0,196.0,224.0,212.0,222.0,232.0,210.0,236.0,214.0" stroke="black" stroke-width="1" fill="none" />
<polyline points="220.0,238.0,222.0,254.0" stroke="black" stroke-width="1" fill="none" />
<polyline points="142.0,240.0,146.0,224.0,116.0,232.0" stroke="black" stroke-width="1" fill="none" />
<polyline points="78.0,236.0,58.0,222.0,60.0,212.0,50.0,196.0,38.0,180.0,48.0,176.0,60.0,186.0,44.0,172.0,28.0,170.0,12.0,172.0" stroke="black" stroke-width="1" fill="none" />
<polyline points="82.0,230.0,84.0,214.0,104.0,198.0,124.0,182.0" stroke="black" stroke-width="1" fill="none" />
<polyline points="122.0,166.0,110.0,182.0,100.0,186.0,116.0,178.0,136.0,194.0,152.0,208.0" stroke="black" stroke-width="1" fill="none" />
</svg>