<svg xmlns="http://www.w3.org/2000/svg" height="256px" width="200px" version="1.1"><polyline points="162.0,0.0,186.0,16.0,188.0,34.0,198.0,50.0,192.0,62.0" stroke="black" stroke-width="1" fill="none" />
<polyline points="188.0,24.0,172.0,10.0,156.0,8.0" stroke="black" stroke-width="1" fill="none" />
<polyline points="148.0,12.0,158.0,14.0,164.0,30.0,164.0,46.0,148.0,62.0,154.0,78.0,158.0,94.0,160.0,110.0,162.0,126.0,160.0,142.0,164.0,158.0,166.0,174.0,162.0,190.0,162.0,206.0,154.0,230.0,170.0,236.0,186.0,228.0" stroke="black" stroke-width="1" fill="none" />
<polyline points="192.0,246.0,186.0,236.0,198.0,220.0,198.0,206.0,178.0,194.0,170.0,170.0,176.0,150.0,168.0,152.0" stroke="black" stroke-width="1" fill="none" />
<polyline points="158.0,172.0,160.0,188.0,152.0,206.0,158.0,222.0,150.0,238.0,162.0,244.0,162.0,250.0,170.0,254.0,186.0,256.0" stroke="black" stroke-width="1" fill="none" />
<polyline points="184.0,238.0,172.0,242.0,148.0,236.0,146.0,228.0,134.0,206.0,134.0,190.0,144.0,178.0,140.0,162.0,130.0,152.0" stroke="black" stroke-width="1" fill="none" />
<polyline points="102.0,134.0,114.0,118.0,122.0,100.0,106.0,104.0,96.0,118.0,104.0,116.0,128.0,116.0,144.0,100.0,140.0,120.0,140.0,120.0,146.0,136.0,150.0,154.0,146.0,170.0,152.0,184.0,148.0,200.0,138.0,216.0,134.0,232.0,140.0,242.0,144.0,224.0,160.0,224.0,176.0,222.0,180.0,216.0" stroke="black" stroke-width="1" fill="none" />
<polyline points="194.0,200.0,178.0,198.0,154.0,196.0,138.0,216.0,118.0,236.0" stroke="black" stroke-width="1" fill="none" />
<polyline points="112.0,224.0,128.0,200.0,134.0,180.0,140.0,160.0" stroke="black" stroke-width="1" fill="none" />
<polyline points="102.0,144.0,86.0,154.0,70.0,154.0,54.0,146.0" stroke="black" stroke-width="1" fill="none" />
<polyline points="54.0,120.0,70.0,112.0,70.0,120.0,84.0,118.0,100.0,112.0,120.0,114.0" stroke="black" stroke-width="1" fill="none" />
<polyline points="138.0,112.0,130.0,128.0,114.0,138.0,114.0,136.0" stroke="black" stroke-width="1" fill="none" />
<polyline points="98.0,126.0,82.0,126.0" stroke="black" stroke-width="1" fill="none" />
<polyline points="88.0,88.0,84.0,76.0,68.0,76.0,68.0,76.0,72.0,92.0,68.0,104.0,82.0,100.0,98.0,100.0,114.0,96.0,130.0,94.0" stroke="black" stroke-width="1" fill="none" />
<polyline points="150.0,102.0,152.0,118.0,152.0,134.0,150.0,150.0,130.0,158.0,130.0,174.0,128.0,188.0,126.0,204.0,132.0,212.0,126.0,228.0,116.0,244.0,116.0,244.0,126.0,254.0,142.0,254.0,156.0,254.0,172.0,248.0,188.0,250.0" stroke="black" stroke-width="1" fill="none" />
<polyline points="200.0,208.0,184.0,208.0,170.0,206.0,172.0,190.0,184.0,174.0,172.0,158.0,170.0,148.0,166.0,136.0,166.0,116.0,168.0,100.0,168.0,88.0,162.0,94.0,142.0,102.0,140.0,114.0,126.0,136.0,110.0,150.0,94.0,152.0,90.0,152.0,98.0,128.0,88.0,124.0,102.0,88.0,96.0,78.0,114.0,64.0,90.0,60.0,92.0,44.0,86.0,28.0,94.0,12.0,104.0,4.0,100.0,8.0" stroke="black" stroke-width="1" fill="none" />
<polyline points="112.0,8.0,102.0,24.0,106.0,40.0,116.0,56.0,106.0,76.0,108.0,68.0,112.0,82.0" stroke="black" stroke-width="1" fill="none" />
<polyline points="94.0,68.0,78.0,70.0,62.0,78.0" stroke="black" stroke-width="1" fill="none" />
<polyline points="66.0,70.0,64.0,86.0,62.0,102.0,54.0,120.0,56.0,136.0,54.0,152.0,64.0,142.0,80.0,146.0,96.0,140.0,112.0,128.0" stroke="black" stroke-width="1" fill="none" />
<polyline points="116.0,202.0,114.0,218.0,110.0,234.0,106.0,250.0" stroke="black" stroke-width="1" fill="none" />
<polyline points="162.0,72.0,162.0,58.0,168.0,46.0,168.0,30.0,160.0,28.0,148.0,12.0,150.0,6.0,136.0,2.0" stroke="black" stroke-width="1" fill="none" />
<polyline points="142.0,8.0,158.0,4.0,174.0,6.0,190.0,10.0" stroke="black" stroke-width="1" fill="none" />
<polyline points="184.0,12.0,160.0,16.0,148.0,38.0,148.0,48.0,132.0,52.0,126.0,60.0,126.0,40.0,124.0,48.0,110.0,26.0,116.0,10.0" stroke="black" stroke-width="1" fill="none" />
<polyline points="122.0,12.0,136.0,12.0,130.0,28.0,134.0,44.0,128.0,48.0,128.0,72.0,140.0,76.0,130.0,84.0,108.0,76.0,134.0,80.0,158.0,60.0" stroke="black" stroke-width="1" fill="none" />
<polyline points="186.0,56.0,170.0,62.0,154.0,78.0,128.0,68.0,112.0,60.0,120.0,42.0,126.0,26.0,134.0,22.0,118.0,18.0,118.0,18.0,118.0,34.0" stroke="black" stroke-width="1" fill="none" />
<polyline points="136.0,30.0,140.0,46.0,144.0,50.0,140.0,34.0,144.0,18.0,140.0,14.0,124.0,8.0,108.0,10.0,82.0,26.0,78.0,36.0,82.0,20.0" stroke="black" stroke-width="1" fill="none" />
<polyline points="94.0,22.0,96.0,38.0,96.0,60.0,86.0,80.0,100.0,84.0,116.0,88.0,132.0,84.0" stroke="black" stroke-width="1" fill="none" />
<polyline points="174.0,42.0,174.0,26.0" stroke="black" stroke-width="1" fill="none" />
<polyline points="170.0,10.0,178.0,26.0,178.0,42.0" stroke="black" stroke-width="1" fill="none" />
<polyline points="182.0,64.0,192.0,48.0,192.0,32.0,198.0,32.0,192.0,16.0,178.0,0.0" stroke="black" stroke-width="1" fill="none" />
</svg>