<svg xmlns="http://www.w3.org/2000/svg" height="254px" width="202px" version="1.1"><polyline points="98.0,0.0,94.0,16.0,90.0,32.0,90.0,48.0,92.0,60.0,104.0,60.0,96.0,76.0,92.0,88.0,96.0,98.0,100.0,110.0,98.0,122.0,102.0,130.0,94.0,146.0,104.0,160.0,106.0,176.0,124.0,184.0,120.0,200.0,122.0,216.0,120.0,232.0,122.0,248.0,128.0,254.0,144.0,254.0,160.0,254.0,176.0,254.0" stroke="black" stroke-width="1" fill="none" />
<polyline points="168.0,224.0,164.0,226.0,152.0,220.0,150.0,192.0,142.0,176.0,160.0,160.0,168.0,162.0,152.0,170.0" stroke="black" stroke-width="1" fill="none" />
<polyline points="158.0,166.0,152.0,182.0,160.0,196.0,176.0,192.0" stroke="black" stroke-width="1" fill="none" />
<polyline points="184.0,188.0,174.0,174.0,180.0,158.0,166.0,148.0" stroke="black" stroke-width="1" fill="none" />
<polyline points="142.0,174.0,158.0,162.0,174.0,156.0,190.0,164.0,190.0,176.0,186.0,178.0,182.0,182.0,166.0,186.0,160.0,192.0,144.0,184.0" stroke="black" stroke-width="1" fill="none" />
<polyline points="132.0,184.0,148.0,198.0,148.0,216.0,152.0,232.0,180.0,248.0" stroke="black" stroke-width="1" fill="none" />
<polyline points="188.0,206.0,174.0,204.0,158.0,208.0,142.0,206.0" stroke="black" stroke-width="1" fill="none" />
<polyline points="142.0,212.0,138.0,192.0,134.0,196.0" stroke="black" stroke-width="1" fill="none" />
<polyline points="124.0,190.0,128.0,206.0,130.0,222.0,132.0,230.0" stroke="black" stroke-width="1" fill="none" />
<polyline points="188.0,198.0,178.0,196.0,188.0,198.0,200.0,194.0,202.0,178.0,202.0,162.0,198.0,146.0,182.0,138.0,166.0,144.0,160.0,148.0,154.0,146.0,142.0,152.0,166.0,144.0,170.0,140.0,166.0,126.0,170.0,110.0,180.0,90.0,190.0,74.0,188.0,72.0,172.0,74.0,152.0,66.0,156.0,50.0,162.0,70.0,170.0,54.0,168.0,38.0,184.0,36.0,168.0,32.0,152.0,32.0,136.0,40.0" stroke="black" stroke-width="1" fill="none" />
<polyline points="148.0,38.0,164.0,38.0" stroke="black" stroke-width="1" fill="none" />
<polyline points="150.0,30.0,138.0,46.0,134.0,60.0,144.0,60.0,148.0,48.0,164.0,42.0,174.0,44.0,180.0,44.0" stroke="black" stroke-width="1" fill="none" />
<polyline points="192.0,98.0,176.0,100.0" stroke="black" stroke-width="1" fill="none" />
<polyline points="170.0,88.0,160.0,84.0,144.0,90.0,130.0,82.0,128.0,72.0,112.0,72.0" stroke="black" stroke-width="1" fill="none" />
<polyline points="110.0,66.0,126.0,68.0,142.0,72.0,158.0,74.0,174.0,62.0,162.0,82.0,152.0,98.0,144.0,98.0,138.0,114.0,134.0,130.0,118.0,146.0,116.0,136.0,132.0,134.0,142.0,100.0" stroke="black" stroke-width="1" fill="none" />
<polyline points="120.0,58.0,104.0,52.0" stroke="black" stroke-width="1" fill="none" />
<polyline points="98.0,60.0,110.0,68.0,108.0,84.0,110.0,100.0,110.0,116.0,114.0,132.0,128.0,148.0,114.0,162.0,114.0,176.0" stroke="black" stroke-width="1" fill="none" />
<polyline points="122.0,150.0,120.0,124.0,118.0,108.0,118.0,92.0,96.0,70.0" stroke="black" stroke-width="1" fill="none" />
<polyline points="96.0,38.0,112.0,48.0,128.0,52.0" stroke="black" stroke-width="1" fill="none" />
<polyline points="100.0,20.0,102.0,4.0" stroke="black" stroke-width="1" fill="none" />
<polyline points="88.0,8.0,76.0,10.0,60.0,8.0" stroke="black" stroke-width="1" fill="none" />
<polyline points="52.0,2.0,52.0,4.0,52.0,20.0,52.0,36.0,68.0,26.0,68.0,30.0,74.0,34.0,76.0,50.0,76.0,66.0,76.0,82.0,84.0,98.0,86.0,114.0,102.0,138.0,108.0,140.0,124.0,158.0,124.0,170.0,132.0,194.0,134.0,210.0,138.0,226.0,132.0,242.0,140.0,234.0,156.0,236.0,168.0,230.0,170.0,232.0,166.0,248.0" stroke="black" stroke-width="1" fill="none" />
<polyline points="106.0,150.0,90.0,156.0" stroke="black" stroke-width="1" fill="none" />
<polyline points="92.0,136.0,90.0,114.0" stroke="black" stroke-width="1" fill="none" />
<polyline points="158.0,130.0,154.0,114.0,156.0,124.0,130.0,160.0,140.0,144.0,142.0,128.0,154.0,128.0,162.0,112.0,182.0,102.0,198.0,92.0,202.0,76.0,192.0,84.0,174.0,100.0,154.0,112.0,142.0,138.0,126.0,154.0,110.0,142.0,98.0,104.0,84.0,86.0,88.0,76.0,80.0,64.0,82.0,48.0,80.0,32.0,70.0,22.0,54.0,18.0" stroke="black" stroke-width="1" fill="none" />
</svg>