<svg xmlns="http://www.w3.org/2000/svg" height="256px" width="230px" version="1.1"><polyline points="230.0,0.0,228.0,16.0" stroke="black" stroke-width="1" fill="none" />
<polyline points="228.0,28.0,220.0,24.0,214.0,8.0,210.0,2.0" stroke="black" stroke-width="1" fill="none" />
<polyline points="174.0,20.0,158.0,2.0" stroke="black" stroke-width="1" fill="none" />
<polyline points="142.0,2.0,142.0,2.0,158.0,18.0,164.0,34.0,160.0,50.0,146.0,66.0,136.0,70.0,144.0,86.0,140.0,102.0,150.0,110.0,148.0,126.0,158.0,132.0,172.0,148.0,182.0,162.0,190.0,168.0,184.0,176.0,184.0,192.0,186.0,208.0,184.0,224.0,204.0,228.0,198.0,244.0,206.0,250.0,200.0,238.0" stroke="black" stroke-width="1" fill="none" />
<polyline points="198.0,222.0,192.0,218.0,186.0,204.0" stroke="black" stroke-width="1" fill="none" />
<polyline points="206.0,236.0,190.0,254.0,174.0,254.0,158.0,238.0" stroke="black" stroke-width="1" fill="none" />
<polyline points="134.0,252.0,146.0,240.0,156.0,232.0,164.0,216.0,166.0,200.0,150.0,184.0,150.0,168.0,160.0,158.0,148.0,150.0,136.0,122.0,134.0,112.0" stroke="black" stroke-width="1" fill="none" />
<polyline points="140.0,98.0,156.0,114.0,172.0,118.0" stroke="black" stroke-width="1" fill="none" />
<polyline points="164.0,126.0,180.0,120.0,196.0,106.0,212.0,110.0,228.0,108.0" stroke="black" stroke-width="1" fill="none" />
<polyline points="202.0,100.0,200.0,112.0,182.0,116.0,182.0,128.0" stroke="black" stroke-width="1" fill="none" />
<polyline points="152.0,142.0,136.0,136.0" stroke="black" stroke-width="1" fill="none" />
<polyline points="162.0,148.0,142.0,158.0,124.0,156.0,108.0,154.0,108.0,158.0" stroke="black" stroke-width="1" fill="none" />
<polyline points="108.0,132.0,92.0,126.0,92.0,126.0,90.0,142.0,90.0,142.0" stroke="black" stroke-width="1" fill="none" />
<polyline points="62.0,168.0,78.0,162.0,94.0,146.0,110.0,136.0,108.0,146.0,90.0,162.0,82.0,178.0,78.0,194.0,76.0,210.0,78.0,234.0,88.0,250.0,100.0,252.0,116.0,248.0" stroke="black" stroke-width="1" fill="none" />
<polyline points="100.0,240.0,84.0,246.0,68.0,242.0" stroke="black" stroke-width="1" fill="none" />
<polyline points="94.0,224.0,110.0,216.0,126.0,218.0,140.0,220.0,144.0,236.0" stroke="black" stroke-width="1" fill="none" />
<polyline points="142.0,222.0,134.0,198.0,118.0,198.0,102.0,204.0,86.0,210.0,72.0,222.0,62.0,226.0,46.0,226.0,30.0,214.0" stroke="black" stroke-width="1" fill="none" />
<polyline points="32.0,206.0,48.0,202.0,64.0,200.0,88.0,202.0,100.0,198.0" stroke="black" stroke-width="1" fill="none" />
<polyline points="98.0,208.0,78.0,224.0,74.0,240.0,84.0,256.0" stroke="black" stroke-width="1" fill="none" />
<polyline points="70.0,218.0,54.0,220.0,38.0,212.0" stroke="black" stroke-width="1" fill="none" />
<polyline points="50.0,212.0,50.0,208.0,66.0,212.0" stroke="black" stroke-width="1" fill="none" />
<polyline points="40.0,228.0,42.0,226.0,28.0,210.0,28.0,194.0,36.0,194.0" stroke="black" stroke-width="1" fill="none" />
<polyline points="28.0,192.0,44.0,190.0,60.0,184.0,60.0,194.0,66.0,186.0,76.0,174.0,86.0,172.0,102.0,150.0,118.0,144.0,134.0,144.0,150.0,150.0,166.0,164.0,180.0,166.0" stroke="black" stroke-width="1" fill="none" />
<polyline points="178.0,174.0,156.0,190.0,162.0,182.0,166.0,172.0,150.0,178.0" stroke="black" stroke-width="1" fill="none" />
<polyline points="182.0,156.0,166.0,142.0,156.0,126.0,148.0,130.0,142.0,124.0,136.0,132.0,120.0,122.0,122.0,106.0,120.0,90.0,110.0,84.0,100.0,62.0,84.0,68.0,76.0,64.0,66.0,48.0,72.0,46.0,56.0,34.0,70.0,20.0,74.0,4.0,64.0,6.0,48.0,2.0" stroke="black" stroke-width="1" fill="none" />
<polyline points="38.0,2.0,50.0,8.0,54.0,12.0,54.0,28.0,42.0,28.0,54.0,44.0,76.0,54.0,84.0,54.0,88.0,70.0,104.0,74.0,120.0,68.0,122.0,78.0,146.0,66.0,162.0,38.0,164.0,20.0" stroke="black" stroke-width="1" fill="none" />
<polyline points="144.0,24.0,138.0,14.0,122.0,16.0" stroke="black" stroke-width="1" fill="none" />
<polyline points="118.0,30.0,118.0,14.0,120.0,28.0,118.0,44.0,122.0,48.0" stroke="black" stroke-width="1" fill="none" />
<polyline points="102.0,28.0,124.0,12.0,110.0,28.0,112.0,44.0,122.0,60.0,146.0,86.0,162.0,88.0,178.0,86.0,194.0,80.0,210.0,78.0,226.0,78.0" stroke="black" stroke-width="1" fill="none" />
<polyline points="220.0,114.0,230.0,98.0,230.0,82.0,212.0,86.0,208.0,94.0,202.0,86.0,188.0,94.0,180.0,96.0,178.0,106.0,164.0,108.0,164.0,92.0,152.0,76.0,166.0,50.0,172.0,54.0,164.0,62.0,158.0,62.0,140.0,54.0,130.0,48.0,142.0,38.0,152.0,36.0,146.0,20.0,136.0,14.0,112.0,4.0" stroke="black" stroke-width="1" fill="none" />
<polyline points="92.0,32.0,110.0,12.0,102.0,28.0,102.0,44.0,110.0,60.0" stroke="black" stroke-width="1" fill="none" />
<polyline points="130.0,94.0,146.0,96.0" stroke="black" stroke-width="1" fill="none" />
<polyline points="186.0,94.0,186.0,118.0,194.0,124.0,200.0,112.0,216.0,116.0" stroke="black" stroke-width="1" fill="none" />
<polyline points="152.0,42.0,138.0,62.0,122.0,60.0,98.0,56.0,94.0,50.0,92.0,34.0,100.0,18.0,106.0,2.0,84.0,10.0,68.0,24.0,52.0,30.0" stroke="black" stroke-width="1" fill="none" />
<polyline points="54.0,42.0,70.0,36.0" stroke="black" stroke-width="1" fill="none" />
<polyline points="74.0,56.0,58.0,56.0,42.0,38.0" stroke="black" stroke-width="1" fill="none" />
<polyline points="24.0,34.0,40.0,48.0,56.0,64.0,72.0,72.0,88.0,78.0,104.0,82.0,120.0,84.0,132.0,90.0,130.0,106.0,128.0,122.0,138.0,138.0,166.0,154.0,176.0,170.0,168.0,180.0,176.0,196.0,176.0,214.0,176.0,228.0,164.0,230.0,166.0,246.0,156.0,252.0,172.0,240.0,188.0,238.0,176.0,246.0" stroke="black" stroke-width="1" fill="none" />
<polyline points="134.0,234.0,130.0,218.0" stroke="black" stroke-width="1" fill="none" />
<polyline points="120.0,226.0,120.0,242.0" stroke="black" stroke-width="1" fill="none" />
<polyline points="114.0,240.0,126.0,236.0,116.0,226.0,112.0,226.0,98.0,228.0,96.0,250.0,88.0,244.0,84.0,228.0,90.0,206.0,86.0,194.0,88.0,178.0,64.0,176.0,76.0,158.0,76.0,148.0,92.0,148.0,106.0,132.0,116.0,116.0,108.0,100.0,104.0,88.0,100.0,94.0,94.0,86.0,82.0,92.0,76.0,80.0,60.0,74.0,52.0,78.0,52.0,62.0,28.0,58.0,32.0,42.0,24.0,40.0,24.0,24.0,24.0,8.0,24.0,8.0" stroke="black" stroke-width="1" fill="none" />
<polyline points="32.0,10.0,32.0,26.0,50.0,24.0,50.0,40.0,56.0,56.0,94.0,72.0" stroke="black" stroke-width="1" fill="none" />
<polyline points="74.0,80.0,84.0,96.0" stroke="black" stroke-width="1" fill="none" />
<polyline points="42.0,62.0,26.0,50.0" stroke="black" stroke-width="1" fill="none" />
<polyline points="102.0,212.0,94.0,228.0,94.0,210.0,110.0,208.0,126.0,206.0,126.0,214.0" stroke="black" stroke-width="1" fill="none" />
<polyline points="118.0,210.0,116.0,226.0,104.0,242.0,118.0,256.0,134.0,244.0,150.0,238.0,170.0,224.0,176.0,228.0" stroke="black" stroke-width="1" fill="none" />
</svg>