<svg xmlns="http://www.w3.org/2000/svg" height="254px" width="210px" version="1.1"><polyline points="136.0,2.0,130.0,8.0,118.0,16.0,120.0,32.0,120.0,42.0,120.0,58.0,150.0,70.0,146.0,82.0,160.0,90.0,176.0,94.0,154.0,104.0,148.0,106.0,156.0,124.0,140.0,128.0,164.0,144.0,178.0,142.0,194.0,160.0,206.0,160.0,210.0,176.0,198.0,182.0,192.0,196.0,178.0,212.0,190.0,218.0,194.0,230.0" stroke="black" stroke-width="1" fill="none" />
<polyline points="180.0,242.0,168.0,234.0,160.0,220.0,168.0,212.0,180.0,198.0,182.0,176.0,172.0,162.0,170.0,168.0" stroke="black" stroke-width="1" fill="none" />
<polyline points="180.0,170.0,168.0,196.0,150.0,208.0,146.0,226.0" stroke="black" stroke-width="1" fill="none" />
<polyline points="152.0,232.0,168.0,232.0,184.0,236.0" stroke="black" stroke-width="1" fill="none" />
<polyline points="198.0,230.0,200.0,228.0,200.0,218.0,184.0,222.0,168.0,220.0" stroke="black" stroke-width="1" fill="none" />
<polyline points="168.0,208.0,188.0,202.0,192.0,202.0,204.0,196.0" stroke="black" stroke-width="1" fill="none" />
<polyline points="204.0,182.0,186.0,184.0,186.0,184.0,196.0,168.0" stroke="black" stroke-width="1" fill="none" />
<polyline points="200.0,136.0,190.0,156.0,166.0,144.0,170.0,130.0,154.0,140.0,150.0,132.0" stroke="black" stroke-width="1" fill="none" />
<polyline points="146.0,150.0,178.0,158.0,170.0,168.0,176.0,184.0,172.0,198.0,162.0,210.0,146.0,226.0,162.0,240.0,164.0,244.0,176.0,228.0,192.0,232.0,198.0,246.0" stroke="black" stroke-width="1" fill="none" />
<polyline points="122.0,200.0,116.0,218.0,118.0,216.0,134.0,198.0,132.0,178.0,136.0,162.0,136.0,160.0" stroke="black" stroke-width="1" fill="none" />
<polyline points="130.0,138.0,114.0,132.0" stroke="black" stroke-width="1" fill="none" />
<polyline points="114.0,122.0,130.0,112.0,148.0,122.0,164.0,118.0,180.0,116.0,196.0,108.0,196.0,104.0,180.0,102.0" stroke="black" stroke-width="1" fill="none" />
<polyline points="148.0,102.0,146.0,98.0,150.0,108.0,166.0,102.0,168.0,110.0,184.0,120.0,184.0,116.0,200.0,114.0,208.0,118.0,198.0,130.0,184.0,134.0,190.0,136.0,196.0,148.0" stroke="black" stroke-width="1" fill="none" />
<polyline points="194.0,96.0,204.0,116.0,210.0,100.0,208.0,74.0,198.0,88.0,182.0,92.0,184.0,90.0,178.0,64.0,192.0,48.0,178.0,36.0,162.0,46.0,160.0,54.0,144.0,54.0,138.0,70.0,122.0,74.0,106.0,78.0,90.0,84.0,74.0,102.0,60.0,124.0,56.0,144.0,70.0,136.0,78.0,120.0,90.0,112.0,100.0,100.0,110.0,84.0,126.0,62.0,132.0,46.0,132.0,30.0,136.0,14.0,148.0,2.0,132.0,10.0" stroke="black" stroke-width="1" fill="none" />
<polyline points="132.0,22.0,148.0,10.0,164.0,6.0,180.0,4.0,192.0,14.0,188.0,30.0,186.0,46.0,168.0,54.0,160.0,70.0,164.0,68.0,164.0,60.0" stroke="black" stroke-width="1" fill="none" />
<polyline points="184.0,70.0,172.0,74.0,156.0,74.0,138.0,78.0,122.0,80.0,106.0,90.0,96.0,106.0,80.0,110.0,74.0,132.0,64.0,130.0,46.0,146.0,44.0,130.0,44.0,114.0,64.0,98.0,74.0,82.0,80.0,82.0" stroke="black" stroke-width="1" fill="none" />
<polyline points="84.0,66.0,100.0,66.0" stroke="black" stroke-width="1" fill="none" />
<polyline points="98.0,78.0,72.0,90.0,76.0,100.0,52.0,116.0,50.0,112.0,66.0,104.0,70.0,92.0,86.0,74.0,102.0,72.0,118.0,66.0,142.0,38.0,150.0,18.0,162.0,14.0,176.0,14.0" stroke="black" stroke-width="1" fill="none" />
<polyline points="170.0,10.0,180.0,26.0,178.0,42.0,178.0,64.0" stroke="black" stroke-width="1" fill="none" />
<polyline points="138.0,84.0,132.0,100.0,130.0,102.0,118.0,118.0,128.0,128.0,128.0,144.0,134.0,146.0,130.0,162.0,126.0,178.0,126.0,194.0,116.0,196.0,88.0,212.0,64.0,228.0,68.0,244.0" stroke="black" stroke-width="1" fill="none" />
<polyline points="72.0,234.0,70.0,214.0,92.0,204.0,110.0,194.0,116.0,180.0,104.0,174.0,122.0,162.0,118.0,154.0,124.0,138.0,108.0,118.0,104.0,118.0,114.0,110.0,130.0,94.0,124.0,98.0,108.0,118.0" stroke="black" stroke-width="1" fill="none" />
<polyline points="130.0,78.0,94.0,88.0,80.0,104.0,88.0,94.0,104.0,84.0,132.0,90.0,156.0,86.0" stroke="black" stroke-width="1" fill="none" />
<polyline points="166.0,38.0,174.0,34.0,170.0,18.0" stroke="black" stroke-width="1" fill="none" />
<polyline points="146.0,10.0,138.0,26.0,138.0,42.0,142.0,54.0,150.0,52.0" stroke="black" stroke-width="1" fill="none" />
<polyline points="64.0,136.0,68.0,116.0,52.0,124.0" stroke="black" stroke-width="1" fill="none" />
<polyline points="92.0,188.0,76.0,204.0,94.0,204.0,100.0,190.0,112.0,176.0,122.0,160.0,140.0,142.0,152.0,146.0,168.0,152.0,184.0,160.0,192.0,158.0,208.0,160.0" stroke="black" stroke-width="1" fill="none" />
<polyline points="114.0,186.0,96.0,196.0,78.0,204.0,62.0,202.0,60.0,212.0,44.0,218.0" stroke="black" stroke-width="1" fill="none" />
<polyline points="52.0,220.0,68.0,216.0,84.0,208.0" stroke="black" stroke-width="1" fill="none" />
<polyline points="114.0,200.0,98.0,208.0,82.0,216.0,66.0,224.0,58.0,244.0,56.0,228.0,52.0,226.0,52.0,242.0" stroke="black" stroke-width="1" fill="none" />
<polyline points="74.0,254.0,58.0,254.0,46.0,252.0,44.0,236.0,44.0,220.0,50.0,204.0" stroke="black" stroke-width="1" fill="none" />
<polyline points="98.0,218.0,82.0,230.0,84.0,226.0,90.0,220.0,116.0,202.0" stroke="black" stroke-width="1" fill="none" />
</svg>