<svg xmlns="http://www.w3.org/2000/svg" height="254px" width="248px" version="1.1"><polyline points="212.0,18.0,216.0,34.0,218.0,50.0,242.0,56.0,242.0,64.0" stroke="black" stroke-width="1" fill="none" />
<polyline points="248.0,46.0,248.0,30.0,234.0,20.0" stroke="black" stroke-width="1" fill="none" />
<polyline points="228.0,18.0,226.0,34.0" stroke="black" stroke-width="1" fill="none" />
<polyline points="226.0,20.0,234.0,20.0,232.0,36.0,228.0,52.0,232.0,68.0,236.0,70.0" stroke="black" stroke-width="1" fill="none" />
<polyline points="234.0,50.0,240.0,30.0,244.0,8.0,228.0,4.0" stroke="black" stroke-width="1" fill="none" />
<polyline points="186.0,14.0,190.0,6.0,184.0,6.0,178.0,2.0" stroke="black" stroke-width="1" fill="none" />
<polyline points="158.0,4.0,142.0,2.0" stroke="black" stroke-width="1" fill="none" />
<polyline points="136.0,20.0,120.0,16.0" stroke="black" stroke-width="1" fill="none" />
<polyline points="112.0,26.0,126.0,16.0,128.0,32.0,110.0,34.0,112.0,50.0,92.0,70.0,98.0,68.0" stroke="black" stroke-width="1" fill="none" />
<polyline points="106.0,48.0,122.0,52.0,138.0,50.0" stroke="black" stroke-width="1" fill="none" />
<polyline points="118.0,30.0,138.0,22.0,136.0,38.0,150.0,26.0,142.0,42.0,136.0,58.0,144.0,78.0,158.0,72.0,156.0,82.0,152.0,98.0,140.0,114.0,144.0,118.0,142.0,132.0,158.0,132.0,174.0,140.0,190.0,142.0,194.0,146.0,208.0,138.0" stroke="black" stroke-width="1" fill="none" />
<polyline points="188.0,156.0,172.0,154.0" stroke="black" stroke-width="1" fill="none" />
<polyline points="180.0,150.0,164.0,148.0" stroke="black" stroke-width="1" fill="none" />
<polyline points="146.0,150.0,162.0,148.0,184.0,154.0,188.0,164.0,200.0,174.0" stroke="black" stroke-width="1" fill="none" />
<polyline points="216.0,194.0,216.0,212.0,220.0,228.0,230.0,240.0,234.0,244.0" stroke="black" stroke-width="1" fill="none" />
<polyline points="240.0,220.0,224.0,218.0" stroke="black" stroke-width="1" fill="none" />
<polyline points="218.0,224.0,224.0,232.0,240.0,232.0" stroke="black" stroke-width="1" fill="none" />
<polyline points="244.0,204.0,228.0,206.0" stroke="black" stroke-width="1" fill="none" />
<polyline points="184.0,190.0,168.0,190.0,164.0,184.0" stroke="black" stroke-width="1" fill="none" />
<polyline points="130.0,174.0,130.0,168.0,126.0,168.0,120.0,188.0" stroke="black" stroke-width="1" fill="none" />
<polyline points="130.0,162.0,146.0,174.0,164.0,168.0,160.0,182.0,178.0,184.0,178.0,198.0,178.0,206.0,186.0,198.0,204.0,226.0,202.0,242.0" stroke="black" stroke-width="1" fill="none" />
<polyline points="242.0,208.0,226.0,212.0,210.0,216.0,200.0,190.0,184.0,168.0,168.0,158.0,160.0,140.0,144.0,140.0" stroke="black" stroke-width="1" fill="none" />
<polyline points="124.0,146.0,140.0,148.0,180.0,158.0,182.0,182.0,192.0,198.0,192.0,214.0,202.0,220.0,194.0,236.0,196.0,252.0" stroke="black" stroke-width="1" fill="none" />
<polyline points="182.0,132.0,180.0,128.0,160.0,124.0,144.0,118.0" stroke="black" stroke-width="1" fill="none" />
<polyline points="138.0,120.0,154.0,106.0,170.0,106.0,186.0,106.0,202.0,106.0,204.0,134.0,198.0,156.0,194.0,170.0,200.0,186.0,208.0,198.0,224.0,208.0,228.0,216.0,246.0,228.0,246.0,244.0" stroke="black" stroke-width="1" fill="none" />
<polyline points="232.0,254.0,216.0,254.0,194.0,248.0,208.0,242.0,212.0,222.0,206.0,206.0,198.0,190.0,186.0,174.0,164.0,158.0,144.0,142.0,130.0,126.0,134.0,110.0,128.0,100.0,148.0,74.0,136.0,80.0,120.0,78.0" stroke="black" stroke-width="1" fill="none" />
<polyline points="118.0,88.0,120.0,104.0,120.0,120.0,120.0,136.0,120.0,158.0,118.0,174.0,118.0,190.0,110.0,206.0,100.0,222.0" stroke="black" stroke-width="1" fill="none" />
<polyline points="116.0,204.0,86.0,206.0,102.0,204.0,106.0,188.0,110.0,170.0,112.0,154.0,112.0,138.0,112.0,122.0,110.0,106.0,110.0,90.0,106.0,70.0,100.0,60.0,96.0,44.0,96.0,28.0,102.0,12.0,92.0,10.0,98.0,8.0" stroke="black" stroke-width="1" fill="none" />
<polyline points="92.0,8.0,108.0,2.0,120.0,10.0,108.0,26.0,104.0,42.0,108.0,58.0,118.0,58.0,128.0,64.0,146.0,52.0" stroke="black" stroke-width="1" fill="none" />
<polyline points="158.0,58.0,146.0,64.0,130.0,74.0,138.0,70.0,154.0,54.0,160.0,38.0,160.0,22.0,160.0,6.0,136.0,8.0,120.0,10.0,104.0,34.0" stroke="black" stroke-width="1" fill="none" />
<polyline points="90.0,26.0,88.0,42.0,90.0,58.0" stroke="black" stroke-width="1" fill="none" />
<polyline points="94.0,64.0,78.0,74.0,62.0,78.0" stroke="black" stroke-width="1" fill="none" />
<polyline points="46.0,72.0,40.0,76.0,42.0,100.0,46.0,116.0,48.0,132.0,42.0,148.0,50.0,148.0,56.0,160.0,44.0,168.0,54.0,196.0,70.0,196.0,74.0,204.0,78.0,208.0,94.0,216.0,110.0,220.0,116.0,206.0,108.0,222.0" stroke="black" stroke-width="1" fill="none" />
<polyline points="92.0,194.0,92.0,178.0,90.0,176.0" stroke="black" stroke-width="1" fill="none" />
<polyline points="78.0,148.0,64.0,132.0,64.0,124.0,60.0,116.0" stroke="black" stroke-width="1" fill="none" />
<polyline points="58.0,110.0,78.0,94.0,54.0,96.0,54.0,112.0,56.0,128.0,76.0,144.0,74.0,160.0,66.0,170.0,28.0,190.0,12.0,190.0,22.0,182.0,38.0,180.0,56.0,196.0,64.0,192.0,76.0,198.0,92.0,210.0" stroke="black" stroke-width="1" fill="none" />
<polyline points="98.0,188.0,102.0,172.0,90.0,154.0,86.0,150.0,92.0,142.0,86.0,140.0,74.0,158.0,58.0,156.0,54.0,150.0,40.0,128.0,36.0,112.0,38.0,96.0,46.0,92.0,56.0,76.0,62.0,68.0,46.0,70.0,30.0,86.0" stroke="black" stroke-width="1" fill="none" />
<polyline points="38.0,88.0,54.0,74.0,70.0,70.0,86.0,66.0" stroke="black" stroke-width="1" fill="none" />
<polyline points="60.0,96.0,76.0,96.0,92.0,90.0,100.0,100.0,100.0,116.0,104.0,132.0,94.0,148.0" stroke="black" stroke-width="1" fill="none" />
<polyline points="104.0,136.0,106.0,152.0,130.0,156.0,146.0,160.0,162.0,166.0,178.0,176.0,194.0,200.0,220.0,204.0,236.0,198.0" stroke="black" stroke-width="1" fill="none" />
<polyline points="126.0,190.0,110.0,204.0,94.0,224.0,78.0,218.0,62.0,210.0,46.0,198.0,30.0,206.0,14.0,208.0,6.0,200.0,6.0,184.0,6.0,172.0,8.0,156.0" stroke="black" stroke-width="1" fill="none" />
<polyline points="6.0,184.0,22.0,174.0,38.0,174.0,54.0,176.0,60.0,164.0,76.0,166.0" stroke="black" stroke-width="1" fill="none" />
<polyline points="72.0,206.0,46.0,204.0,32.0,220.0,24.0,214.0,8.0,214.0" stroke="black" stroke-width="1" fill="none" />
<polyline points="8.0,220.0,24.0,226.0" stroke="black" stroke-width="1" fill="none" />
<polyline points="20.0,198.0,48.0,202.0,18.0,196.0,34.0,188.0" stroke="black" stroke-width="1" fill="none" />
<polyline points="50.0,204.0,58.0,220.0,70.0,222.0,72.0,224.0,88.0,228.0" stroke="black" stroke-width="1" fill="none" />
<polyline points="132.0,114.0,132.0,94.0,126.0,114.0,134.0,98.0" stroke="black" stroke-width="1" fill="none" />
<polyline points="140.0,90.0,124.0,88.0,102.0,84.0,86.0,82.0,70.0,88.0,54.0,96.0,62.0,106.0,60.0,82.0,44.0,94.0" stroke="black" stroke-width="1" fill="none" />
<polyline points="162.0,78.0,160.0,94.0,164.0,104.0,168.0,118.0,184.0,118.0,200.0,124.0" stroke="black" stroke-width="1" fill="none" />
</svg>