<svg xmlns="http://www.w3.org/2000/svg" height="256px" width="192px" version="1.1"><polyline points="144.0,0.0,146.0,16.0,140.0,32.0,144.0,46.0,154.0,48.0,160.0,30.0,172.0,38.0,188.0,36.0" stroke="black" stroke-width="1" fill="none" />
<polyline points="164.0,2.0,180.0,6.0,192.0,6.0,192.0,22.0,186.0,38.0,180.0,54.0,180.0,70.0,182.0,86.0,180.0,102.0" stroke="black" stroke-width="1" fill="none" />
<polyline points="168.0,108.0,152.0,106.0,150.0,104.0,154.0,120.0,156.0,136.0,158.0,152.0,156.0,170.0,144.0,186.0,146.0,202.0,142.0,218.0,140.0,234.0,142.0,230.0,162.0,204.0,186.0,214.0" stroke="black" stroke-width="1" fill="none" />
<polyline points="170.0,228.0,170.0,242.0,174.0,222.0,168.0,204.0,164.0,188.0,144.0,182.0" stroke="black" stroke-width="1" fill="none" />
<polyline points="118.0,186.0,134.0,208.0,132.0,224.0,140.0,240.0" stroke="black" stroke-width="1" fill="none" />
<polyline points="108.0,232.0,106.0,248.0,114.0,256.0,130.0,254.0,146.0,250.0,162.0,234.0,180.0,240.0" stroke="black" stroke-width="1" fill="none" />
<polyline points="192.0,246.0,190.0,230.0,180.0,228.0,180.0,210.0,192.0,198.0,192.0,182.0,170.0,168.0" stroke="black" stroke-width="1" fill="none" />
<polyline points="182.0,190.0,178.0,206.0" stroke="black" stroke-width="1" fill="none" />
<polyline points="156.0,218.0,156.0,202.0,156.0,186.0,152.0,168.0,150.0,152.0" stroke="black" stroke-width="1" fill="none" />
<polyline points="144.0,152.0,140.0,168.0,138.0,184.0,130.0,194.0,128.0,210.0" stroke="black" stroke-width="1" fill="none" />
<polyline points="186.0,176.0,176.0,176.0,148.0,160.0,144.0,152.0,136.0,142.0,134.0,148.0,130.0,134.0,126.0,118.0" stroke="black" stroke-width="1" fill="none" />
<polyline points="156.0,90.0,170.0,84.0,170.0,68.0,168.0,52.0,156.0,42.0,148.0,34.0,152.0,18.0,154.0,2.0,150.0,2.0" stroke="black" stroke-width="1" fill="none" />
<polyline points="164.0,0.0,172.0,16.0,166.0,18.0,168.0,34.0,158.0,52.0,162.0,64.0,148.0,70.0,144.0,86.0,144.0,104.0,148.0,120.0,138.0,136.0,132.0,150.0,130.0,166.0,126.0,182.0,122.0,198.0,120.0,214.0,118.0,230.0,118.0,238.0,110.0,232.0,124.0,242.0,124.0,248.0,152.0,254.0,168.0,256.0,184.0,254.0" stroke="black" stroke-width="1" fill="none" />
<polyline points="142.0,66.0,126.0,56.0,128.0,58.0,128.0,74.0" stroke="black" stroke-width="1" fill="none" />
<polyline points="118.0,58.0,134.0,52.0,142.0,54.0,142.0,70.0,154.0,76.0,154.0,70.0" stroke="black" stroke-width="1" fill="none" />
<polyline points="138.0,78.0,120.0,82.0,118.0,64.0,108.0,58.0" stroke="black" stroke-width="1" fill="none" />
<polyline points="102.0,34.0,118.0,34.0,134.0,34.0" stroke="black" stroke-width="1" fill="none" />
<polyline points="136.0,86.0,120.0,88.0,104.0,74.0,94.0,68.0,90.0,56.0,74.0,36.0,82.0,26.0,66.0,14.0,66.0,14.0,68.0,22.0,76.0,28.0,74.0,38.0,84.0,42.0,90.0,58.0,88.0,74.0,104.0,76.0,116.0,92.0,138.0,110.0,142.0,126.0,166.0,142.0,168.0,158.0,166.0,174.0,174.0,180.0,172.0,196.0,172.0,214.0,166.0,230.0,152.0,246.0" stroke="black" stroke-width="1" fill="none" />
<polyline points="164.0,94.0,148.0,98.0,140.0,90.0,120.0,94.0,116.0,104.0,112.0,94.0,100.0,102.0,102.0,86.0,94.0,70.0,82.0,64.0,66.0,46.0,66.0,30.0" stroke="black" stroke-width="1" fill="none" />
<polyline points="60.0,12.0,76.0,8.0,92.0,24.0,100.0,42.0,116.0,44.0,114.0,38.0,130.0,44.0,146.0,58.0" stroke="black" stroke-width="1" fill="none" />
<polyline points="132.0,124.0,116.0,120.0,102.0,106.0,106.0,94.0,108.0,72.0,104.0,56.0,102.0,40.0,94.0,36.0,92.0,26.0,80.0,10.0" stroke="black" stroke-width="1" fill="none" />
<polyline points="62.0,8.0,62.0,24.0,62.0,40.0,78.0,58.0,82.0,74.0,90.0,90.0,90.0,106.0,98.0,110.0,114.0,110.0,130.0,108.0,148.0,102.0,164.0,100.0" stroke="black" stroke-width="1" fill="none" />
<polyline points="82.0,112.0,74.0,112.0,76.0,96.0,60.0,98.0,62.0,94.0,62.0,110.0,62.0,126.0,74.0,124.0,66.0,118.0" stroke="black" stroke-width="1" fill="none" />
</svg>