<svg xmlns="http://www.w3.org/2000/svg" height="254px" width="206px" version="1.1"><polyline points="48.0,0.0,48.0,16.0,50.0,32.0,50.0,18.0,64.0,10.0,64.0,22.0,90.0,40.0,100.0,36.0,116.0,28.0,132.0,28.0,148.0,28.0,166.0,30.0,198.0,24.0" stroke="black" stroke-width="1" fill="none" />
<polyline points="192.0,22.0,176.0,32.0,164.0,66.0,156.0,86.0,156.0,100.0,140.0,114.0,136.0,122.0,134.0,132.0,132.0,116.0,130.0,106.0,146.0,102.0,154.0,86.0,162.0,70.0,176.0,62.0,168.0,56.0,174.0,40.0,180.0,24.0,206.0,14.0,198.0,8.0,182.0,10.0,182.0,14.0" stroke="black" stroke-width="1" fill="none" />
<polyline points="162.0,4.0,162.0,20.0,168.0,32.0,162.0,48.0,156.0,64.0,148.0,80.0,132.0,96.0,114.0,112.0,102.0,128.0,100.0,144.0,102.0,160.0,112.0,164.0,118.0,170.0,122.0,168.0,120.0,184.0,128.0,200.0,138.0,216.0,144.0,232.0,142.0,250.0,154.0,244.0,170.0,218.0,174.0,228.0" stroke="black" stroke-width="1" fill="none" />
<polyline points="164.0,214.0,180.0,216.0,196.0,210.0" stroke="black" stroke-width="1" fill="none" />
<polyline points="184.0,186.0,170.0,188.0,170.0,188.0,176.0,190.0,176.0,200.0" stroke="black" stroke-width="1" fill="none" />
<polyline points="178.0,210.0,162.0,214.0,146.0,204.0,140.0,206.0,140.0,194.0,130.0,176.0,114.0,172.0,114.0,176.0,130.0,192.0" stroke="black" stroke-width="1" fill="none" />
<polyline points="152.0,182.0,162.0,174.0,146.0,182.0,154.0,186.0,152.0,202.0,154.0,218.0,150.0,234.0,158.0,250.0" stroke="black" stroke-width="1" fill="none" />
<polyline points="172.0,234.0,194.0,214.0,190.0,208.0,198.0,192.0,188.0,190.0,172.0,170.0,156.0,164.0" stroke="black" stroke-width="1" fill="none" />
<polyline points="150.0,178.0,166.0,180.0,182.0,176.0,198.0,184.0,206.0,180.0" stroke="black" stroke-width="1" fill="none" />
<polyline points="166.0,204.0,162.0,220.0,160.0,236.0,154.0,252.0" stroke="black" stroke-width="1" fill="none" />
<polyline points="132.0,238.0,126.0,222.0,124.0,212.0,108.0,206.0" stroke="black" stroke-width="1" fill="none" />
<polyline points="104.0,214.0,108.0,224.0,112.0,236.0" stroke="black" stroke-width="1" fill="none" />
<polyline points="126.0,234.0,110.0,232.0,94.0,228.0" stroke="black" stroke-width="1" fill="none" />
<polyline points="104.0,214.0,120.0,224.0,134.0,228.0" stroke="black" stroke-width="1" fill="none" />
<polyline points="126.0,218.0,122.0,202.0,112.0,186.0,96.0,182.0,92.0,216.0,82.0,230.0,88.0,214.0,96.0,204.0,110.0,194.0,94.0,208.0" stroke="black" stroke-width="1" fill="none" />
<polyline points="62.0,210.0,60.0,230.0" stroke="black" stroke-width="1" fill="none" />
<polyline points="64.0,252.0,68.0,236.0,72.0,220.0,78.0,204.0,84.0,188.0,80.0,184.0,66.0,188.0,50.0,202.0" stroke="black" stroke-width="1" fill="none" />
<polyline points="48.0,184.0,64.0,174.0,48.0,186.0,48.0,202.0,46.0,218.0,50.0,218.0,64.0,224.0,60.0,240.0" stroke="black" stroke-width="1" fill="none" />
<polyline points="66.0,162.0,82.0,162.0" stroke="black" stroke-width="1" fill="none" />
<polyline points="86.0,154.0,82.0,150.0,66.0,152.0" stroke="black" stroke-width="1" fill="none" />
<polyline points="92.0,114.0,92.0,130.0,92.0,146.0,88.0,172.0,94.0,186.0,88.0,202.0,82.0,218.0,80.0,234.0,94.0,242.0,86.0,238.0,102.0,232.0" stroke="black" stroke-width="1" fill="none" />
<polyline points="124.0,114.0,108.0,108.0" stroke="black" stroke-width="1" fill="none" />
<polyline points="138.0,78.0,142.0,62.0,140.0,42.0" stroke="black" stroke-width="1" fill="none" />
<polyline points="146.0,36.0,130.0,36.0" stroke="black" stroke-width="1" fill="none" />
<polyline points="120.0,26.0,112.0,36.0,96.0,44.0,90.0,58.0" stroke="black" stroke-width="1" fill="none" />
<polyline points="96.0,64.0,112.0,46.0,128.0,44.0,134.0,48.0,148.0,52.0,148.0,68.0,144.0,88.0,140.0,114.0,144.0,130.0" stroke="black" stroke-width="1" fill="none" />
<polyline points="116.0,96.0,114.0,96.0,128.0,80.0,128.0,64.0,136.0,62.0,138.0,62.0,122.0,50.0,106.0,54.0" stroke="black" stroke-width="1" fill="none" />
<polyline points="118.0,50.0,110.0,66.0,96.0,68.0,98.0,84.0,94.0,94.0,108.0,84.0,124.0,74.0,126.0,84.0,136.0,80.0" stroke="black" stroke-width="1" fill="none" />
<polyline points="176.0,50.0,182.0,34.0,170.0,18.0,178.0,2.0,162.0,4.0" stroke="black" stroke-width="1" fill="none" />
<polyline points="126.0,18.0,110.0,18.0" stroke="black" stroke-width="1" fill="none" />
<polyline points="92.0,10.0,88.0,26.0,114.0,44.0,94.0,52.0,82.0,68.0,84.0,84.0,88.0,100.0,82.0,104.0,82.0,120.0,82.0,136.0,82.0,152.0,96.0,170.0,74.0,166.0,74.0,182.0,66.0,200.0,54.0,216.0,52.0,232.0,56.0,252.0,72.0,254.0,86.0,248.0,102.0,244.0,118.0,244.0,134.0,242.0" stroke="black" stroke-width="1" fill="none" />
<polyline points="136.0,92.0,120.0,102.0,92.0,98.0,88.0,82.0,88.0,66.0,82.0,68.0" stroke="black" stroke-width="1" fill="none" />
<polyline points="54.0,36.0,56.0,30.0,72.0,32.0,66.0,48.0,68.0,64.0,76.0,90.0,74.0,110.0,84.0,118.0,84.0,130.0,110.0,124.0,118.0,130.0,108.0,140.0,110.0,158.0,112.0,154.0,124.0,164.0,126.0,184.0,136.0,194.0,140.0,206.0,148.0,212.0,136.0,232.0" stroke="black" stroke-width="1" fill="none" />
<polyline points="176.0,46.0,156.0,60.0,140.0,94.0,130.0,122.0,114.0,120.0,92.0,114.0,76.0,94.0,70.0,112.0,66.0,104.0,68.0,88.0,74.0,72.0,72.0,62.0,82.0,54.0,86.0,38.0,82.0,22.0,90.0,6.0,84.0,6.0,68.0,2.0" stroke="black" stroke-width="1" fill="none" />
</svg>