<svg xmlns="http://www.w3.org/2000/svg" height="254px" width="228px" version="1.1"><polyline points="24.0,0.0,24.0,16.0,24.0,36.0,26.0,52.0,26.0,68.0,24.0,84.0,40.0,86.0,36.0,96.0,50.0,104.0,54.0,114.0" stroke="black" stroke-width="1" fill="none" />
<polyline points="50.0,100.0,66.0,114.0,82.0,116.0" stroke="black" stroke-width="1" fill="none" />
<polyline points="74.0,96.0,90.0,96.0" stroke="black" stroke-width="1" fill="none" />
<polyline points="128.0,88.0,126.0,74.0,118.0,64.0,116.0,50.0,98.0,34.0,98.0,28.0" stroke="black" stroke-width="1" fill="none" />
<polyline points="98.0,14.0,90.0,8.0,104.0,4.0,90.0,10.0,96.0,26.0,108.0,36.0,106.0,52.0,118.0,66.0,130.0,78.0,118.0,90.0,126.0,102.0,114.0,118.0,104.0,124.0,106.0,136.0,116.0,146.0,118.0,162.0,116.0,178.0,128.0,186.0,128.0,200.0,128.0,216.0,130.0,232.0,130.0,248.0,132.0,254.0,148.0,254.0" stroke="black" stroke-width="1" fill="none" />
<polyline points="160.0,248.0,160.0,232.0,160.0,212.0,144.0,214.0" stroke="black" stroke-width="1" fill="none" />
<polyline points="126.0,230.0,128.0,222.0,118.0,242.0" stroke="black" stroke-width="1" fill="none" />
<polyline points="148.0,166.0,140.0,164.0,144.0,156.0,130.0,150.0,128.0,124.0,108.0,144.0,120.0,128.0,136.0,110.0,140.0,94.0,146.0,66.0,146.0,50.0,128.0,54.0" stroke="black" stroke-width="1" fill="none" />
<polyline points="144.0,48.0,160.0,42.0,176.0,36.0,192.0,50.0,192.0,78.0,174.0,104.0" stroke="black" stroke-width="1" fill="none" />
<polyline points="156.0,74.0,172.0,82.0,188.0,68.0" stroke="black" stroke-width="1" fill="none" />
<polyline points="188.0,56.0,178.0,60.0,178.0,78.0,196.0,62.0,196.0,46.0,202.0,38.0,180.0,30.0,164.0,32.0" stroke="black" stroke-width="1" fill="none" />
<polyline points="160.0,22.0,176.0,20.0,192.0,28.0,208.0,42.0" stroke="black" stroke-width="1" fill="none" />
<polyline points="186.0,48.0,170.0,46.0,154.0,52.0" stroke="black" stroke-width="1" fill="none" />
<polyline points="146.0,34.0,168.0,38.0,154.0,54.0,154.0,70.0,152.0,86.0,164.0,102.0,184.0,116.0,184.0,132.0,168.0,132.0,178.0,140.0,186.0,150.0,196.0,150.0,206.0,148.0" stroke="black" stroke-width="1" fill="none" />
<polyline points="202.0,136.0,224.0,128.0,228.0,144.0,228.0,158.0" stroke="black" stroke-width="1" fill="none" />
<polyline points="220.0,160.0,204.0,162.0" stroke="black" stroke-width="1" fill="none" />
<polyline points="202.0,130.0,218.0,130.0" stroke="black" stroke-width="1" fill="none" />
<polyline points="214.0,46.0,202.0,66.0,190.0,80.0,174.0,88.0,158.0,84.0,140.0,72.0,128.0,68.0,132.0,52.0,126.0,36.0,134.0,22.0,124.0,14.0,126.0,12.0,126.0,26.0,124.0,28.0" stroke="black" stroke-width="1" fill="none" />
<polyline points="94.0,14.0,118.0,2.0,110.0,12.0,122.0,20.0,120.0,36.0,140.0,52.0,138.0,70.0,134.0,86.0,128.0,100.0,154.0,106.0,162.0,116.0,162.0,128.0,174.0,128.0,192.0,146.0,184.0,150.0,190.0,160.0,190.0,172.0,206.0,170.0,222.0,172.0" stroke="black" stroke-width="1" fill="none" />
<polyline points="220.0,142.0,204.0,144.0,192.0,138.0,192.0,124.0,182.0,128.0,174.0,116.0,160.0,120.0,144.0,116.0,132.0,116.0,116.0,132.0,102.0,122.0,98.0,108.0,74.0,92.0,64.0,76.0,54.0,70.0,56.0,54.0,46.0,44.0,30.0,32.0,26.0,44.0" stroke="black" stroke-width="1" fill="none" />
<polyline points="26.0,38.0,38.0,42.0,50.0,50.0,44.0,66.0,42.0,76.0,64.0,92.0,88.0,108.0,112.0,112.0,132.0,94.0,142.0,92.0,148.0,108.0,172.0,96.0,188.0,90.0" stroke="black" stroke-width="1" fill="none" />
<polyline points="176.0,36.0,174.0,52.0,162.0,60.0,166.0,76.0,150.0,100.0,132.0,118.0,130.0,134.0,128.0,144.0,128.0,160.0,132.0,176.0,146.0,184.0,144.0,200.0,144.0,216.0,154.0,232.0,150.0,248.0,140.0,234.0,144.0,240.0" stroke="black" stroke-width="1" fill="none" />
<polyline points="142.0,232.0,138.0,212.0,136.0,196.0,140.0,174.0,132.0,158.0,122.0,146.0" stroke="black" stroke-width="1" fill="none" />
<polyline points="64.0,198.0,48.0,194.0" stroke="black" stroke-width="1" fill="none" />
<polyline points="54.0,214.0,38.0,214.0,54.0,220.0,62.0,196.0,58.0,190.0,42.0,184.0,26.0,188.0,26.0,188.0,24.0,204.0,26.0,220.0,26.0,236.0,26.0,252.0,38.0,238.0,40.0,230.0" stroke="black" stroke-width="1" fill="none" />
<polyline points="50.0,240.0,34.0,246.0,30.0,246.0,56.0,238.0,64.0,222.0,60.0,206.0,46.0,190.0,26.0,180.0" stroke="black" stroke-width="1" fill="none" />
<polyline points="24.0,204.0,40.0,216.0,46.0,220.0" stroke="black" stroke-width="1" fill="none" />
<polyline points="98.0,130.0,80.0,126.0,96.0,120.0,70.0,104.0,46.0,96.0,38.0,100.0" stroke="black" stroke-width="1" fill="none" />
<polyline points="30.0,76.0,46.0,88.0,62.0,96.0,78.0,108.0,90.0,108.0,106.0,118.0,122.0,108.0" stroke="black" stroke-width="1" fill="none" />
<polyline points="110.0,102.0,94.0,100.0,78.0,88.0,74.0,92.0,58.0,86.0,56.0,84.0,40.0,68.0" stroke="black" stroke-width="1" fill="none" />
<polyline points="56.0,6.0,46.0,2.0,30.0,12.0,38.0,6.0,60.0,0.0" stroke="black" stroke-width="1" fill="none" />
<polyline points="212.0,0.0,210.0,16.0,224.0,28.0" stroke="black" stroke-width="1" fill="none" />
<polyline points="228.0,16.0,226.0,0.0" stroke="black" stroke-width="1" fill="none" />
<polyline points="220.0,0.0,216.0,16.0,218.0,32.0,208.0,58.0,212.0,68.0,202.0,76.0,188.0,90.0" stroke="black" stroke-width="1" fill="none" />
<polyline points="212.0,226.0,212.0,242.0,228.0,234.0,226.0,250.0" stroke="black" stroke-width="1" fill="none" />
<polyline points="220.0,254.0,204.0,254.0" stroke="black" stroke-width="1" fill="none" />
<polyline points="202.0,232.0,202.0,248.0,210.0,244.0,228.0,228.0" stroke="black" stroke-width="1" fill="none" />
</svg>