<svg xmlns="http://www.w3.org/2000/svg" height="512px" width="512px" version="1.1"><polyline points="248.0,262.0,251.0,270.0,253.0,278.0,254.0,286.0,251.0,294.0,253.0,302.0,253.0,310.0,253.0,318.0,255.0,323.0" stroke="black" stroke-width="1" fill="none" />
<polyline points="258.0,315.0,266.0,313.0,274.0,314.0" stroke="black" stroke-width="1" fill="none" />
<polyline points="254.0,292.0,256.0,300.0,258.0,308.0,258.0,316.0,258.0,324.0,260.0,332.0,261.0,340.0,263.0,348.0,269.0,356.0,271.0,364.0,274.0,372.0,277.0,380.0,279.0,388.0,281.0,396.0,282.0,399.0,287.0,398.0,295.0,396.0,303.0,396.0,311.0,394.0,319.0,393.0,327.0,392.0,335.0,390.0,343.0,390.0,351.0,388.0,359.0,387.0,367.0,385.0,375.0,384.0,383.0,383.0,391.0,382.0,399.0,381.0,407.0,379.0,415.0,378.0,423.0,377.0,431.0,375.0,439.0,374.0,447.0,373.0,455.0,371.0,463.0,370.0,471.0,369.0,479.0,368.0,485.0,366.0,493.0,363.0,499.0,364.0,507.0,363.0" stroke="black" stroke-width="1" fill="none" />
<polyline points="277.0,351.0,269.0,354.0" stroke="black" stroke-width="1" fill="none" />
<polyline points="263.0,346.0,271.0,349.0,279.0,348.0,287.0,347.0,295.0,346.0" stroke="black" stroke-width="1" fill="none" />
<polyline points="248.0,260.0,256.0,258.0,264.0,257.0,272.0,255.0,280.0,253.0,288.0,251.0,296.0,250.0,304.0,248.0,312.0,247.0,320.0,245.0,328.0,243.0,336.0,242.0,344.0,240.0,352.0,239.0,360.0,237.0,368.0,235.0,376.0,234.0,384.0,232.0,392.0,230.0,400.0,229.0,408.0,227.0,416.0,226.0,424.0,224.0,432.0,222.0,440.0,221.0,448.0,219.0,456.0,217.0,464.0,215.0,472.0,214.0,480.0,213.0,488.0,211.0,496.0,209.0,504.0,208.0" stroke="black" stroke-width="1" fill="none" />
<polyline points="126.0,369.0,131.0,370.0,127.0,376.0,129.0,384.0,131.0,392.0,133.0,400.0,135.0,408.0,137.0,416.0" stroke="black" stroke-width="1" fill="none" />
<polyline points="134.0,389.0,131.0,381.0,129.0,373.0,125.0,372.0,133.0,371.0,125.0,368.0" stroke="black" stroke-width="1" fill="none" />
<polyline points="121.0,379.0,113.0,369.0" stroke="black" stroke-width="1" fill="none" />
<polyline points="123.0,347.0,123.0,347.0,123.0,339.0,116.0,342.0,108.0,343.0,100.0,345.0,92.0,347.0,84.0,348.0" stroke="black" stroke-width="1" fill="none" />
<polyline points="79.0,384.0,87.0,383.0,95.0,381.0,103.0,379.0,111.0,378.0" stroke="black" stroke-width="1" fill="none" />
<polyline points="23.0,442.0,10.0,444.0,2.0,445.0,0.0,445.0,8.0,441.0,16.0,440.0,24.0,439.0,32.0,437.0,40.0,439.0,48.0,438.0,50.0,435.0,58.0,436.0,66.0,434.0,74.0,431.0,78.0,432.0,86.0,432.0,94.0,430.0,102.0,428.0,110.0,427.0,118.0,426.0,126.0,424.0,134.0,424.0" stroke="black" stroke-width="1" fill="none" />
<polyline points="112.0,381.0,104.0,382.0,115.0,375.0,112.0,367.0,110.0,359.0,110.0,351.0,117.0,346.0,117.0,339.0,114.0,331.0,112.0,323.0,109.0,315.0,107.0,307.0,105.0,299.0,104.0,295.0,96.0,292.0,88.0,293.0,80.0,295.0,72.0,296.0,64.0,298.0,56.0,300.0,48.0,301.0,40.0,303.0,32.0,304.0,24.0,306.0,16.0,308.0,8.0,309.0,0.0,311.0" stroke="black" stroke-width="1" fill="none" />
<polyline points="0.0,0.0,511.5,0.0,511.5,0.5,319.5,192.5" stroke="black" stroke-width="1" fill="none" />
<polyline points="330.5,189.5,511.5,8.5" stroke="black" stroke-width="1" fill="none" />
<polyline points="511.5,16.5,344.5,183.5" stroke="black" stroke-width="1" fill="none" />
<polyline points="343.0,193.0,511.5,24.5" stroke="black" stroke-width="1" fill="none" />
<polyline points="511.5,48.5,368.0,192.0,365.0,195.0,364.0,196.0" stroke="black" stroke-width="1" fill="none" />
<polyline points="369.0,199.0,371.0,197.0,372.5,195.5,373.0,195.0,374.0,194.0,380.0,188.0,380.5,187.5,386.0,182.0,387.0,181.0,511.5,56.5" stroke="black" stroke-width="1" fill="none" />
<polyline points="511.5,112.5,432.0,192.0,431.5,192.5,430.0,194.0,427.5,196.5,426.0,198.0" stroke="black" stroke-width="1" fill="none" />
<polyline points="422.5,193.5,427.5,188.5,429.5,186.5,432.0,184.0,432.5,183.5,511.5,104.5" stroke="black" stroke-width="1" fill="none" />
<polyline points="511.5,184.5,507.5,188.5,511.5,192.5,506.0,198.0,510.0,202.0,506.0,206.0,502.0,202.0,501.5,202.5,499.5,204.5,495.5,208.5" stroke="black" stroke-width="1" fill="none" />
<polyline points="490.0,206.0,485.5,210.5,486.5,206.5,490.5,210.5" stroke="black" stroke-width="1" fill="none" />
<polyline points="484.5,203.5,485.5,202.5,481.5,198.5,484.5,195.5,486.5,193.5,491.0,189.0,492.5,187.5,511.5,168.5" stroke="black" stroke-width="1" fill="none" />
<polyline points="506.0,190.0,501.0,195.0,500.0,196.0,499.5,196.5,498.0,198.0,497.5,198.5" stroke="black" stroke-width="1" fill="none" />
<polyline points="492.5,195.5,511.5,176.5" stroke="black" stroke-width="1" fill="none" />
<polyline points="511.5,160.5,480.0,192.0,478.0,194.0,474.0,198.0" stroke="black" stroke-width="1" fill="none" />
<polyline points="471.0,193.0,476.0,188.0,477.0,187.0,483.5,180.5,484.0,180.0,511.5,152.5" stroke="black" stroke-width="1" fill="none" />
<polyline points="470.5,193.5,468.5,195.5,465.0,199.0,464.0,200.0,460.0,196.0,461.0,195.0,462.0,194.0,463.0,193.0,464.5,191.5,511.5,144.5" stroke="black" stroke-width="1" fill="none" />
<polyline points="511.5,136.5,458.5,189.5,457.5,190.5,456.0,192.0,452.0,196.0,450.5,197.5,449.0,199.0,448.5,199.5" stroke="black" stroke-width="1" fill="none" />
<polyline points="442.5,197.5,447.0,193.0,447.5,192.5,511.5,128.5" stroke="black" stroke-width="1" fill="none" />
<polyline points="479.5,208.5,475.5,212.5,477.0,213.0,472.5,208.5,470.5,209.5,465.5,214.5,467.0,211.0,470.0,214.0" stroke="black" stroke-width="1" fill="none" />
<polyline points="461.5,210.5,461.0,211.0,459.5,212.5,455.0,217.0,451.0,213.0,445.0,219.0,447.0,215.0,450.0,218.0" stroke="black" stroke-width="1" fill="none" />
<polyline points="441.0,215.0,435.0,221.0,431.0,217.0,425.0,223.0,427.0,219.0,430.0,222.0" stroke="black" stroke-width="1" fill="none" />
<polyline points="420.5,219.5,415.0,225.0" stroke="black" stroke-width="1" fill="none" />
<polyline points="410.5,221.5,404.5,227.5" stroke="black" stroke-width="1" fill="none" />
<polyline points="402.5,221.5,394.5,229.5,390.5,225.5,386.0,230.0,385.0,231.0,384.5,231.5" stroke="black" stroke-width="1" fill="none" />
<polyline points="380.0,228.0,376.0,232.0,376.5,232.5,374.0,230.0,370.0,230.0,366.0,234.0" stroke="black" stroke-width="1" fill="none" />
<polyline points="359.5,232.5,356.0,236.0,357.0,237.0,353.0,233.0,349.5,234.5,346.0,238.0" stroke="black" stroke-width="1" fill="none" />
<polyline points="339.5,236.5,335.5,240.5" stroke="black" stroke-width="1" fill="none" />
<polyline points="329.0,239.0,325.5,242.5,331.0,243.0,88.0,0.0,88.0,0.0,88.0,294.0,92.5,291.5,384.0,0.0,384.0,0.0,384.0,232.5,384.0,232.0,379.5,227.5" stroke="black" stroke-width="1" fill="none" />
<polyline points="397.0,219.0,401.0,215.0" stroke="black" stroke-width="1" fill="none" />
<polyline points="395.0,213.0,399.0,209.0" stroke="black" stroke-width="1" fill="none" />
<polyline points="393.0,207.0,399.0,201.0,400.5,199.5,402.0,198.0,404.5,195.5,406.5,193.5,407.0,193.0,414.0,186.0,415.0,185.0,416.5,183.5,417.5,182.5,421.5,178.5,422.0,178.0,511.5,88.5" stroke="black" stroke-width="1" fill="none" />
<polyline points="511.5,120.5,446.5,185.5,445.0,187.0,440.5,191.5,437.5,194.5,436.5,195.5,440.5,199.5,441.5,198.5" stroke="black" stroke-width="1" fill="none" />
<polyline points="443.5,204.5,443.0,205.0" stroke="black" stroke-width="1" fill="none" />
<polyline points="422.0,194.0,420.5,195.5,416.5,191.5,420.5,187.5,424.0,184.0,511.5,96.5" stroke="black" stroke-width="1" fill="none" />
<polyline points="511.5,80.5,402.5,189.5" stroke="black" stroke-width="1" fill="none" />
<polyline points="411.0,197.0,412.5,195.5,414.0,194.0,416.0,192.0" stroke="black" stroke-width="1" fill="none" />
<polyline points="408.5,199.5,408.0,200.0,405.5,202.5,405.0,203.0" stroke="black" stroke-width="1" fill="none" />
<polyline points="398.0,194.0,391.5,200.5,389.5,202.5,386.5,205.5" stroke="black" stroke-width="1" fill="none" />
<polyline points="383.5,200.5,384.0,200.0,386.0,198.0,387.0,197.0,388.0,196.0,511.5,72.5" stroke="black" stroke-width="1" fill="none" />
<polyline points="511.5,64.5,386.0,190.0,384.5,191.5,380.0,196.0,378.0,198.0,376.5,199.5" stroke="black" stroke-width="1" fill="none" />
<polyline points="379.5,204.5,378.5,205.5" stroke="black" stroke-width="1" fill="none" />
<polyline points="373.0,203.0,371.5,204.5" stroke="black" stroke-width="1" fill="none" />
<polyline points="368.0,200.0,366.0,202.0" stroke="black" stroke-width="1" fill="none" />
<polyline points="363.5,196.5,359.5,200.5,357.0,203.0,356.0,204.0" stroke="black" stroke-width="1" fill="none" />
<polyline points="359.0,209.0,357.5,210.5" stroke="black" stroke-width="1" fill="none" />
<polyline points="358.0,194.0,362.5,189.5,363.0,189.0,511.5,40.5" stroke="black" stroke-width="1" fill="none" />
<polyline points="511.5,32.5,351.5,192.5,350.5,193.5,342.0,202.0,339.5,204.5,339.0,205.0" stroke="black" stroke-width="1" fill="none" />
<polyline points="336.0,200.0,339.0,197.0,340.5,195.5,342.5,193.5" stroke="black" stroke-width="1" fill="none" />
<polyline points="344.0,184.0,330.5,197.5,329.5,198.5,326.5,201.5" stroke="black" stroke-width="1" fill="none" />
<polyline points="329.5,206.5,333.0,203.0" stroke="black" stroke-width="1" fill="none" />
<polyline points="325.5,210.5,322.5,213.5" stroke="black" stroke-width="1" fill="none" />
<polyline points="320.0,208.0,324.0,204.0" stroke="black" stroke-width="1" fill="none" />
<polyline points="312.0,208.0,329.5,190.5" stroke="black" stroke-width="1" fill="none" />
<polyline points="319.0,193.0,311.0,201.0,309.0,203.0,307.0,205.0" stroke="black" stroke-width="1" fill="none" />
<polyline points="310.5,209.5,309.5,210.5" stroke="black" stroke-width="1" fill="none" />
<polyline points="314.0,214.0,314.5,213.5" stroke="black" stroke-width="1" fill="none" />
<polyline points="318.0,218.0,317.5,218.5" stroke="black" stroke-width="1" fill="none" />
<polyline points="306.0,222.0,305.5,222.5,304.0,224.0,303.0,225.0" stroke="black" stroke-width="1" fill="none" />
<polyline points="292.5,227.5,292.0,228.0" stroke="black" stroke-width="1" fill="none" />
<polyline points="286.0,226.0,285.0,227.0" stroke="black" stroke-width="1" fill="none" />
<polyline points="281.5,222.5,282.5,221.5,284.0,220.0,284.5,219.5,286.5,217.5,287.0,217.0,287.5,216.5,288.0,216.0,288.5,215.5,289.5,214.5,291.5,212.5,292.5,211.5,294.0,210.0,301.0,203.0,302.0,202.0,504.0,0.0,504.0,0.0,504.0,207.5" stroke="black" stroke-width="1" fill="none" />
<polyline points="511.5,55.5,456.0,0.0,456.0,0.0,456.0,217.5" stroke="black" stroke-width="1" fill="none" />
<polyline points="511.5,95.5,416.0,0.0,416.0,0.0,416.0,226.0" stroke="black" stroke-width="1" fill="none" />
<polyline points="510.5,206.5,304.0,0.0,304.0,0.0,304.0,248.5,305.5,246.5,309.0,243.0,314.0,242.0,317.0,245.0,315.5,244.5,319.0,241.0,320.0,240.0,324.0,244.0" stroke="black" stroke-width="1" fill="none" />
<polyline points="299.0,245.0,295.0,249.0" stroke="black" stroke-width="1" fill="none" />
<polyline points="289.0,247.0,285.0,251.0" stroke="black" stroke-width="1" fill="none" />
<polyline points="278.5,249.5,275.0,253.0" stroke="black" stroke-width="1" fill="none" />
<polyline points="269.0,251.0,264.5,255.5" stroke="black" stroke-width="1" fill="none" />
<polyline points="266.0,246.0,267.0,245.0" stroke="black" stroke-width="1" fill="none" />
<polyline points="268.0,236.0,268.5,235.5,271.0,233.0,273.0,231.0,274.0,230.0,276.5,227.5,277.0,227.0,279.0,225.0,275.0,221.0,274.5,221.5,277.0,219.0,280.0,216.0,280.5,215.5,284.0,212.0,286.0,210.0,289.5,206.5,290.0,206.0,496.0,0.0,496.0,0.0,496.0,209.0" stroke="black" stroke-width="1" fill="none" />
<polyline points="511.5,63.5,448.0,0.0,448.0,0.0,448.0,219.5" stroke="black" stroke-width="1" fill="none" />
<polyline points="301.5,210.5,297.5,214.5,295.5,216.5,292.0,220.0" stroke="black" stroke-width="1" fill="none" />
<polyline points="291.0,237.0,290.5,237.5" stroke="black" stroke-width="1" fill="none" />
<polyline points="274.0,222.0,271.0,225.0,268.0,228.0,259.5,236.5,258.5,237.5,258.0,238.0,256.0,240.0,253.0,243.0,257.0,247.0,258.0,246.0,255.0,249.0,253.0,251.0" stroke="black" stroke-width="1" fill="none" />
<polyline points="259.0,253.0,254.5,257.5" stroke="black" stroke-width="1" fill="none" />
<polyline points="249.0,255.0,240.0,264.0,239.5,264.5,238.5,265.5" stroke="black" stroke-width="1" fill="none" />
<polyline points="243.0,269.0,241.0,271.0,244.5,267.5,247.5,264.5,247.5,263.5,0.0,16.0,0.0,16.0,511.5,16.0" stroke="black" stroke-width="1" fill="none" />
<polyline points="511.5,7.5,504.0,0.0" stroke="black" stroke-width="1" fill="none" />
<polyline points="496.0,0.0,511.5,15.5" stroke="black" stroke-width="1" fill="none" />
<polyline points="511.5,23.5,488.0,0.0,488.0,0.0,488.0,211.0" stroke="black" stroke-width="1" fill="none" />
<polyline points="499.5,364.5,495.5,368.5,494.5,366.5,511.5,383.5,511.5,384.5,384.5,511.5" stroke="black" stroke-width="1" fill="none" />
<polyline points="376.5,511.5,493.0,395.0,493.5,394.5,500.5,387.5,503.5,384.5,506.0,382.0,506.5,381.5,509.5,378.5" stroke="black" stroke-width="1" fill="none" />
<polyline points="505.0,375.0,503.5,376.5" stroke="black" stroke-width="1" fill="none" />
<polyline points="499.0,381.0,490.5,389.5,489.0,391.0,368.5,511.5" stroke="black" stroke-width="1" fill="none" />
<polyline points="360.5,511.5,467.5,404.5,468.0,404.0,480.5,391.5" stroke="black" stroke-width="1" fill="none" />
<polyline points="475.5,388.5,475.0,389.0,471.5,392.5,469.0,395.0,468.0,396.0,352.5,511.5" stroke="black" stroke-width="1" fill="none" />
<polyline points="344.5,511.5,444.0,412.0,444.5,411.5,459.0,397.0,460.0,396.0,463.0,393.0,466.5,389.5,468.0,388.0" stroke="black" stroke-width="1" fill="none" />
<polyline points="460.5,387.5,459.5,388.5,457.5,390.5,457.0,391.0,455.5,392.5,454.5,393.5,451.0,397.0,450.5,397.5,448.0,400.0,447.0,401.0,445.5,402.5,336.5,511.5" stroke="black" stroke-width="1" fill="none" />
<polyline points="328.5,511.5,437.0,403.0,439.5,400.5,440.0,400.0,443.0,397.0,444.5,395.5,446.0,394.0,447.5,392.5" stroke="black" stroke-width="1" fill="none" />
<polyline points="435.5,396.5,430.5,401.5,428.5,403.5,424.5,407.5,423.0,409.0,320.5,511.5" stroke="black" stroke-width="1" fill="none" />
<polyline points="312.5,511.5,417.0,407.0,418.5,405.5,422.0,402.0,425.0,399.0,427.0,397.0,427.5,396.5,433.5,390.5" stroke="black" stroke-width="1" fill="none" />
<polyline points="428.5,387.5,432.5,383.5" stroke="black" stroke-width="1" fill="none" />
<polyline points="430.0,378.0,431.5,376.5,432.0,376.0,511.5,455.5" stroke="black" stroke-width="1" fill="none" />
<polyline points="511.5,504.5,504.5,511.5" stroke="black" stroke-width="1" fill="none" />
<polyline points="496.5,511.5,511.5,496.5" stroke="black" stroke-width="1" fill="none" />
<polyline points="511.5,488.5,488.5,511.5" stroke="black" stroke-width="1" fill="none" />
<polyline points="480.5,511.5,511.5,480.5" stroke="black" stroke-width="1" fill="none" />
<polyline points="511.5,472.5,472.5,511.5" stroke="black" stroke-width="1" fill="none" />
<polyline points="464.5,511.5,511.5,464.5" stroke="black" stroke-width="1" fill="none" />
<polyline points="511.5,456.5,456.5,511.5" stroke="black" stroke-width="1" fill="none" />
<polyline points="448.5,511.5,511.5,448.5" stroke="black" stroke-width="1" fill="none" />
<polyline points="511.5,440.5,440.5,511.5" stroke="black" stroke-width="1" fill="none" />
<polyline points="432.5,511.5,511.5,432.5" stroke="black" stroke-width="1" fill="none" />
<polyline points="511.5,424.5,424.5,511.5" stroke="black" stroke-width="1" fill="none" />
<polyline points="416.5,511.5,511.5,416.5" stroke="black" stroke-width="1" fill="none" />
<polyline points="511.5,408.5,408.5,511.5" stroke="black" stroke-width="1" fill="none" />
<polyline points="400.5,511.5,511.5,400.5" stroke="black" stroke-width="1" fill="none" />
<polyline points="511.5,392.5,392.5,511.5" stroke="black" stroke-width="1" fill="none" />
<polyline points="304.5,511.5,406.0,410.0,406.5,409.5,410.5,405.5,411.5,404.5,415.0,401.0,416.5,399.5,417.5,398.5" stroke="black" stroke-width="1" fill="none" />
<polyline points="407.0,401.0,406.0,402.0,402.0,398.0,405.0,395.0" stroke="black" stroke-width="1" fill="none" />
<polyline points="396.5,395.5,396.0,396.0" stroke="black" stroke-width="1" fill="none" />
<polyline points="387.0,397.0,385.5,398.5" stroke="black" stroke-width="1" fill="none" />
<polyline points="386.0,406.0,381.5,410.5,379.0,413.0,374.5,417.5,374.0,418.0,280.5,511.5" stroke="black" stroke-width="1" fill="none" />
<polyline points="272.5,511.5,364.5,419.5,366.5,417.5,368.5,415.5,372.5,411.5,377.5,406.5" stroke="black" stroke-width="1" fill="none" />
<polyline points="369.0,407.0,367.0,409.0,364.0,412.0,363.5,412.5,361.0,415.0,264.5,511.5" stroke="black" stroke-width="1" fill="none" />
<polyline points="256.5,511.5,352.5,415.5,354.0,414.0,355.5,412.5,359.0,409.0,360.0,408.0,361.5,406.5,362.0,406.0" stroke="black" stroke-width="1" fill="none" />
<polyline points="352.5,407.5,352.0,408.0,349.5,410.5,342.5,417.5,342.0,418.0,248.5,511.5" stroke="black" stroke-width="1" fill="none" />
<polyline points="240.5,511.5,337.5,414.5,338.5,413.5,341.0,411.0" stroke="black" stroke-width="1" fill="none" />
<polyline points="333.0,411.0,332.5,411.5,330.5,413.5,232.5,511.5" stroke="black" stroke-width="1" fill="none" />
<polyline points="224.5,511.5,321.0,415.0,322.0,414.0,324.5,411.5,325.5,410.5,327.0,409.0,329.5,406.5,331.0,405.0" stroke="black" stroke-width="1" fill="none" />
<polyline points="323.5,396.5,327.5,392.5,328.0,392.5,328.0,511.5" stroke="black" stroke-width="1" fill="none" />
<polyline points="296.5,511.5,401.0,407.0" stroke="black" stroke-width="1" fill="none" />
<polyline points="390.5,409.5,288.5,511.5" stroke="black" stroke-width="1" fill="none" />
<polyline points="216.5,511.5,319.0,409.0" stroke="black" stroke-width="1" fill="none" />
<polyline points="311.0,409.0,208.5,511.5" stroke="black" stroke-width="1" fill="none" />
<polyline points="200.5,511.5,305.0,407.0" stroke="black" stroke-width="1" fill="none" />
<polyline points="300.5,403.5,299.0,405.0,298.5,405.5,192.5,511.5" stroke="black" stroke-width="1" fill="none" />
<polyline points="184.5,511.5,291.5,404.5,292.5,403.5,293.0,403.0,295.0,401.0,299.5,396.5,301.0,397.0,415.5,511.5" stroke="black" stroke-width="1" fill="none" />
<polyline points="511.5,431.5,453.5,373.5,451.0,373.0,447.0,377.0,448.0,373.5,448.0,511.5" stroke="black" stroke-width="1" fill="none" />
<polyline points="426.5,381.5,429.0,379.0,426.0,378.0,511.5,463.5" stroke="black" stroke-width="1" fill="none" />
<polyline points="491.0,381.0,492.0,380.0" stroke="black" stroke-width="1" fill="none" />
<polyline points="485.0,371.0,489.0,367.0,488.0,367.0,488.0,511.5" stroke="black" stroke-width="1" fill="none" />
<polyline points="457.0,375.0,461.0,371.0,459.5,371.5,511.5,423.5" stroke="black" stroke-width="1" fill="none" />
<polyline points="505.5,366.5,507.0,365.0,508.0,364.0,511.5,367.5" stroke="black" stroke-width="1" fill="none" />
<polyline points="511.5,375.5,501.0,365.0,504.0,364.5,504.0,511.5" stroke="black" stroke-width="1" fill="none" />
<polyline points="476.5,371.5,479.0,369.0,480.0,368.5,480.0,511.5" stroke="black" stroke-width="1" fill="none" />
<polyline points="467.0,373.0,469.0,371.0,467.5,371.5,511.5,415.5" stroke="black" stroke-width="1" fill="none" />
<polyline points="511.5,391.5,487.0,367.0" stroke="black" stroke-width="1" fill="none" />
<polyline points="481.0,369.0,511.5,399.5" stroke="black" stroke-width="1" fill="none" />
<polyline points="511.5,407.5,473.5,369.5,472.0,369.0,472.0,511.5" stroke="black" stroke-width="1" fill="none" />
<polyline points="438.5,377.5,440.5,375.5,440.0,375.0,440.0,511.5" stroke="black" stroke-width="1" fill="none" />
<polyline points="511.5,439.5,445.5,373.5" stroke="black" stroke-width="1" fill="none" />
<polyline points="439.5,375.5,511.5,447.5" stroke="black" stroke-width="1" fill="none" />
<polyline points="511.5,471.5,418.0,378.0,416.0,378.0,416.0,511.5" stroke="black" stroke-width="1" fill="none" />
<polyline points="511.5,479.5,412.0,380.0,412.5,379.5,410.5,381.5,408.0,380.0,408.0,511.5" stroke="black" stroke-width="1" fill="none" />
<polyline points="348.0,404.0,349.0,403.0" stroke="black" stroke-width="1" fill="none" />
<polyline points="346.0,394.0,463.5,511.5" stroke="black" stroke-width="1" fill="none" />
<polyline points="418.5,381.5,422.5,377.5,424.0,377.5,424.0,511.5" stroke="black" stroke-width="1" fill="none" />
<polyline points="511.5,487.5,404.5,380.5,402.0,382.0,400.5,383.5,401.0,385.0,398.0,382.0,400.0,381.5,400.0,511.5" stroke="black" stroke-width="1" fill="none" />
<polyline points="511.5,495.5,401.5,385.5" stroke="black" stroke-width="1" fill="none" />
<polyline points="394.0,382.0,390.5,385.5,391.0,383.0,511.5,503.5" stroke="black" stroke-width="1" fill="none" />
<polyline points="375.5,511.5,0.0,136.0,0.0,136.0,511.5,136.0" stroke="black" stroke-width="1" fill="none" />
<polyline points="488.0,0.0,294.0,194.0,293.5,194.5,274.0,214.0,273.5,214.5,270.5,217.5,269.0,219.0,268.0,220.0,266.5,221.5,264.0,224.0,262.5,225.5,260.0,228.0,258.0,230.0,248.5,239.5" stroke="black" stroke-width="1" fill="none" />
<polyline points="247.5,248.5,239.5,256.5" stroke="black" stroke-width="1" fill="none" />
<polyline points="238.0,266.0,227.0,277.0" stroke="black" stroke-width="1" fill="none" />
<polyline points="236.0,276.0,239.0,273.0,243.0,277.0,244.0,276.0,246.5,273.5,249.5,270.5" stroke="black" stroke-width="1" fill="none" />
<polyline points="251.0,277.0,247.5,280.5" stroke="black" stroke-width="1" fill="none" />
<polyline points="252.0,284.0,249.5,286.5,253.5,290.5,252.0,292.0,248.0,296.0,248.5,296.5,253.5,298.5,255.0,297.0,254.5,294.5,0.0,40.0,0.0,40.0,511.5,40.0" stroke="black" stroke-width="1" fill="none" />
<polyline points="511.5,31.5,480.0,0.0,480.0,0.0,480.0,213.0" stroke="black" stroke-width="1" fill="none" />
<polyline points="511.5,71.5,440.0,0.0,440.0,0.0,440.0,220.5" stroke="black" stroke-width="1" fill="none" />
<polyline points="511.5,103.5,408.0,0.0,408.0,0.0,408.0,228.0" stroke="black" stroke-width="1" fill="none" />
<polyline points="278.5,201.5,480.0,0.0" stroke="black" stroke-width="1" fill="none" />
<polyline points="472.0,0.0,472.0,214.0" stroke="black" stroke-width="1" fill="none" />
<polyline points="511.5,79.5,432.0,0.0,432.0,0.0,432.0,222.0" stroke="black" stroke-width="1" fill="none" />
<polyline points="511.5,111.5,400.0,0.0,400.0,0.0,400.0,229.0" stroke="black" stroke-width="1" fill="none" />
<polyline points="278.0,202.0,253.5,226.5" stroke="black" stroke-width="1" fill="none" />
<polyline points="239.0,257.0,133.0,363.0" stroke="black" stroke-width="1" fill="none" />
<polyline points="137.5,366.5,226.5,277.5" stroke="black" stroke-width="1" fill="none" />
<polyline points="234.5,285.5,236.5,283.5,240.0,280.0,242.0,278.0" stroke="black" stroke-width="1" fill="none" />
<polyline points="236.5,291.5,235.0,293.0" stroke="black" stroke-width="1" fill="none" />
<polyline points="236.5,299.5,236.0,300.0" stroke="black" stroke-width="1" fill="none" />
<polyline points="235.5,308.5,234.0,310.0" stroke="black" stroke-width="1" fill="none" />
<polyline points="251.0,325.0,64.5,511.5" stroke="black" stroke-width="1" fill="none" />
<polyline points="56.5,511.5,246.0,322.0" stroke="black" stroke-width="1" fill="none" />
<polyline points="242.5,317.5,139.0,421.0,139.0,419.0,231.5,511.5" stroke="black" stroke-width="1" fill="none" />
<polyline points="176.5,511.5,289.5,398.5,288.0,398.5,288.0,511.5" stroke="black" stroke-width="1" fill="none" />
<polyline points="183.5,511.5,101.5,429.5,104.0,428.5,104.0,511.5,104.5,511.5,249.5,366.5" stroke="black" stroke-width="1" fill="none" />
<polyline points="256.0,376.0,120.5,511.5" stroke="black" stroke-width="1" fill="none" />
<polyline points="112.5,511.5,253.0,371.0" stroke="black" stroke-width="1" fill="none" />
<polyline points="260.5,379.5,128.5,511.5" stroke="black" stroke-width="1" fill="none" />
<polyline points="136.5,511.5,264.5,383.5" stroke="black" stroke-width="1" fill="none" />
<polyline points="267.5,388.5,270.0,386.0,272.5,383.5,275.0,381.0,271.0,377.0,273.0,375.0" stroke="black" stroke-width="1" fill="none" />
<polyline points="269.5,370.5,272.0,368.0,272.0,367.5,272.0,511.5" stroke="black" stroke-width="1" fill="none" />
<polyline points="168.5,511.5,279.5,400.5,280.5,400.5,391.5,511.5" stroke="black" stroke-width="1" fill="none" />
<polyline points="271.5,511.5,138.5,378.5" stroke="black" stroke-width="1" fill="none" />
<polyline points="144.5,375.5,232.5,287.5" stroke="black" stroke-width="1" fill="none" />
<polyline points="238.0,314.0,142.0,410.0,141.0,411.0,138.0,414.0,136.5,416.0,511.5,416.0" stroke="black" stroke-width="1" fill="none" />
<polyline points="496.0,365.0,496.0,511.5" stroke="black" stroke-width="1" fill="none" />
<polyline points="359.5,511.5,0.0,152.0,0.0,152.0,511.5,152.0" stroke="black" stroke-width="1" fill="none" />
<polyline points="511.5,39.5,472.0,0.0,472.0,0.0,133.0,339.0" stroke="black" stroke-width="1" fill="none" />
<polyline points="130.5,333.5,131.0,333.0,133.0,331.0,464.0,0.0,464.0,0.0,464.0,215.5" stroke="black" stroke-width="1" fill="none" />
<polyline points="511.5,87.5,424.0,0.0,424.0,0.0,424.0,224.0" stroke="black" stroke-width="1" fill="none" />
<polyline points="511.5,119.5,392.0,0.0,392.0,0.0,392.0,230.5" stroke="black" stroke-width="1" fill="none" />
<polyline points="248.0,240.0,126.5,361.5" stroke="black" stroke-width="1" fill="none" />
<polyline points="123.0,357.0,252.0,228.0" stroke="black" stroke-width="1" fill="none" />
<polyline points="271.5,255.5,16.0,0.0,16.0,0.0,16.0,308.0,13.5,306.5,16.5,303.5" stroke="black" stroke-width="1" fill="none" />
<polyline points="23.5,304.5,26.0,302.0" stroke="black" stroke-width="1" fill="none" />
<polyline points="34.0,302.0,37.5,298.5" stroke="black" stroke-width="1" fill="none" />
<polyline points="44.0,300.0,47.5,296.5" stroke="black" stroke-width="1" fill="none" />
<polyline points="54.0,298.0,56.5,295.5" stroke="black" stroke-width="1" fill="none" />
<polyline points="63.5,296.5,67.0,293.0" stroke="black" stroke-width="1" fill="none" />
<polyline points="72.5,295.5,78.0,290.0,80.0,288.0,80.5,287.5,81.0,287.0,368.0,0.0,368.0,0.0,368.0,235.0" stroke="black" stroke-width="1" fill="none" />
<polyline points="486.0,206.0,280.0,0.0,280.0,0.0,280.0,254.0" stroke="black" stroke-width="1" fill="none" />
<polyline points="311.0,247.0,64.0,0.0,64.0,0.0,64.0,298.5" stroke="black" stroke-width="1" fill="none" />
<polyline points="67.0,285.0,73.0,279.0,74.0,278.0,352.0,0.0,352.0,0.0,352.0,239.0" stroke="black" stroke-width="1" fill="none" />
<polyline points="445.5,213.5,232.0,0.0,232.0,0.0,232.0,511.5" stroke="black" stroke-width="1" fill="none" />
<polyline points="160.5,511.5,277.5,394.5,280.0,394.5,280.0,398.0,280.0,398.5,280.0,511.5" stroke="black" stroke-width="1" fill="none" />
<polyline points="167.5,511.5,88.5,432.5,88.0,431.0,88.0,511.5,88.5,511.5,246.5,353.5,247.5,352.5,249.5,350.5" stroke="black" stroke-width="1" fill="none" />
<polyline points="249.0,359.0,96.5,511.5" stroke="black" stroke-width="1" fill="none" />
<polyline points="80.5,511.5,256.0,336.0,256.5,335.5,259.5,332.5" stroke="black" stroke-width="1" fill="none" />
<polyline points="260.0,340.0,259.0,341.0,256.5,344.5,0.0,88.0,0.0,88.0,511.5,88.0" stroke="black" stroke-width="1" fill="none" />
<polyline points="511.5,47.5,464.0,0.0" stroke="black" stroke-width="1" fill="none" />
<polyline points="456.0,0.0,132.5,323.5,131.5,324.5,130.5,325.5" stroke="black" stroke-width="1" fill="none" />
<polyline points="128.0,320.0,448.0,0.0" stroke="black" stroke-width="1" fill="none" />
<polyline points="440.0,0.0,124.5,315.5" stroke="black" stroke-width="1" fill="none" />
<polyline points="121.0,311.0,124.0,308.0,125.0,307.0,432.0,0.0" stroke="black" stroke-width="1" fill="none" />
<polyline points="424.0,0.0,116.5,307.5,113.0,311.0,110.5,313.5,108.5,312.0,258.5,312.0,256.0,315.5,256.0,511.5" stroke="black" stroke-width="1" fill="none" />
<polyline points="152.5,511.5,269.5,394.5,271.0,393.0,276.5,387.5" stroke="black" stroke-width="1" fill="none" />
<polyline points="266.5,389.5,144.5,511.5" stroke="black" stroke-width="1" fill="none" />
<polyline points="72.5,511.5,257.5,326.5" stroke="black" stroke-width="1" fill="none" />
<polyline points="260.0,332.0,0.0,72.0,0.0,72.0,511.5,72.0" stroke="black" stroke-width="1" fill="none" />
<polyline points="416.0,0.0,113.5,302.5,111.5,304.5,109.0,307.0,109.0,309.0,311.5,511.5" stroke="black" stroke-width="1" fill="none" />
<polyline points="305.0,399.0,307.5,396.5,308.0,396.0,423.5,511.5" stroke="black" stroke-width="1" fill="none" />
<polyline points="295.5,511.5,127.0,343.0" stroke="black" stroke-width="1" fill="none" />
<polyline points="125.5,349.5,287.5,511.5" stroke="black" stroke-width="1" fill="none" />
<polyline points="175.5,511.5,95.0,431.0,96.0,431.0,96.0,511.5" stroke="black" stroke-width="1" fill="none" />
<polyline points="48.5,511.5,135.5,424.5,136.5,424.5,223.5,511.5" stroke="black" stroke-width="1" fill="none" />
<polyline points="103.5,511.5,33.5,441.5,32.0,441.5,32.0,511.5,32.5,511.5,95.0,449.0,97.5,446.5,103.0,441.0,105.0,439.0,109.0,435.0,113.0,431.0,117.5,426.5,120.0,426.5,120.0,511.5" stroke="black" stroke-width="1" fill="none" />
<polyline points="89.0,447.0,90.5,445.5,91.5,444.5,92.5,443.5,96.0,440.0,97.5,438.5" stroke="black" stroke-width="1" fill="none" />
<polyline points="95.0,433.0,97.5,430.5" stroke="black" stroke-width="1" fill="none" />
<polyline points="103.5,432.5,107.5,428.5,109.0,429.0,191.5,511.5" stroke="black" stroke-width="1" fill="none" />
<polyline points="87.5,511.5,20.0,444.0,20.5,443.5,18.5,445.5,17.5,446.5,14.0,450.0,10.0,454.0,8.0,456.0" stroke="black" stroke-width="1" fill="none" />
<polyline points="14.0,458.0,20.0,452.0,24.0,456.0,23.5,456.5,25.0,455.0,27.5,452.5" stroke="black" stroke-width="1" fill="none" />
<polyline points="33.5,454.5,34.5,453.5" stroke="black" stroke-width="1" fill="none" />
<polyline points="39.0,457.0,40.5,455.5,41.5,454.5,44.5,451.5" stroke="black" stroke-width="1" fill="none" />
<polyline points="52.0,452.0,53.0,451.0" stroke="black" stroke-width="1" fill="none" />
<polyline points="60.5,451.5,64.0,448.0" stroke="black" stroke-width="1" fill="none" />
<polyline points="72.0,448.0,72.5,447.5,74.5,445.5,76.5,443.5" stroke="black" stroke-width="1" fill="none" />
<polyline points="82.0,446.0,84.5,443.5" stroke="black" stroke-width="1" fill="none" />
<polyline points="86.5,449.5,24.5,511.5" stroke="black" stroke-width="1" fill="none" />
<polyline points="16.5,511.5,76.5,451.5,78.0,450.0,81.5,446.5" stroke="black" stroke-width="1" fill="none" />
<polyline points="71.0,449.0,8.5,511.5" stroke="black" stroke-width="1" fill="none" />
<polyline points="0.5,511.5,58.0,454.0" stroke="black" stroke-width="1" fill="none" />
<polyline points="51.5,452.5,0.0,504.0,0.0,504.0,511.5,504.0" stroke="black" stroke-width="1" fill="none" />
<polyline points="383.5,511.5,0.0,128.0,0.0,128.0,511.5,128.0" stroke="black" stroke-width="1" fill="none" />
<polyline points="408.0,0.0,107.0,301.0,106.0,304.0,258.0,304.0,256.0,303.0,256.0,309.0" stroke="black" stroke-width="1" fill="none" />
<polyline points="257.0,319.0,256.5,319.5,256.0,320.0,257.5,321.5" stroke="black" stroke-width="1" fill="none" />
<polyline points="233.5,310.5,146.0,398.0,143.5,400.5,142.0,402.0,139.0,405.0,136.5,407.5,136.0,408.0,239.5,511.5" stroke="black" stroke-width="1" fill="none" />
<polyline points="119.5,511.5,47.5,439.5,48.0,438.0,48.0,511.5" stroke="black" stroke-width="1" fill="none" />
<polyline points="40.5,511.5,121.5,430.5,123.0,429.0,126.0,426.0,128.0,424.0,128.0,511.5" stroke="black" stroke-width="1" fill="none" />
<polyline points="47.5,511.5,0.0,464.0,0.0,464.0,511.5,464.0" stroke="black" stroke-width="1" fill="none" />
<polyline points="431.5,511.5,315.0,395.0,314.5,397.5,317.5,394.5,318.5,392.0,511.5,392.0" stroke="black" stroke-width="1" fill="none" />
<polyline points="511.5,432.0,70.5,432.0,72.0,435.0,72.0,511.5" stroke="black" stroke-width="1" fill="none" />
<polyline points="35.0,461.0,37.5,458.5,33.5,462.5,0.0,496.0,0.0,496.0,511.5,496.0" stroke="black" stroke-width="1" fill="none" />
<polyline points="399.5,511.5,287.0,399.0" stroke="black" stroke-width="1" fill="none" />
<polyline points="294.5,398.5,407.5,511.5" stroke="black" stroke-width="1" fill="none" />
<polyline points="303.5,511.5,126.0,334.0" stroke="black" stroke-width="1" fill="none" />
<polyline points="119.0,335.0,115.5,331.5,116.0,332.0,117.5,330.5,117.5,325.5,111.5,319.5,112.5,319.5,114.5,317.5,110.5,320.0,258.5,320.0" stroke="black" stroke-width="1" fill="none" />
<polyline points="260.5,340.5,0.0,80.0,0.0,80.0,511.5,80.0" stroke="black" stroke-width="1" fill="none" />
<polyline points="400.0,0.0,105.0,295.0,104.0,294.5,104.0,0.0,104.0,0.0,344.0,240.0" stroke="black" stroke-width="1" fill="none" />
<polyline points="437.5,221.5,216.0,0.0,216.0,0.0,216.0,511.5" stroke="black" stroke-width="1" fill="none" />
<polyline points="111.5,511.5,39.5,439.5,40.0,439.5,40.0,511.5" stroke="black" stroke-width="1" fill="none" />
<polyline points="7.5,511.5,0.0,504.0" stroke="black" stroke-width="1" fill="none" />
<polyline points="0.0,496.0,15.5,511.5" stroke="black" stroke-width="1" fill="none" />
<polyline points="23.5,511.5,0.0,488.0,0.0,488.0,511.5,488.0" stroke="black" stroke-width="1" fill="none" />
<polyline points="439.5,511.5,322.0,394.0,320.0,393.5,320.0,511.5" stroke="black" stroke-width="1" fill="none" />
<polyline points="207.5,511.5,123.0,427.0,120.5,424.0,511.5,424.0" stroke="black" stroke-width="1" fill="none" />
<polyline points="511.5,480.0,0.0,480.0,0.0,480.0,31.5,511.5" stroke="black" stroke-width="1" fill="none" />
<polyline points="0.0,488.0,33.0,455.0" stroke="black" stroke-width="1" fill="none" />
<polyline points="36.5,443.5,40.5,439.5" stroke="black" stroke-width="1" fill="none" />
<polyline points="46.5,441.5,49.0,439.0,53.5,437.5,127.5,511.5" stroke="black" stroke-width="1" fill="none" />
<polyline points="55.5,511.5,0.0,456.0,0.0,456.0,511.5,456.0" stroke="black" stroke-width="1" fill="none" />
<polyline points="447.5,511.5,329.0,393.0,334.0,394.0,336.5,391.5,335.5,391.5,455.5,511.5" stroke="black" stroke-width="1" fill="none" />
<polyline points="319.5,511.5,105.0,297.0,104.0,296.0,257.0,296.0" stroke="black" stroke-width="1" fill="none" />
<polyline points="232.5,303.5,150.0,386.0,147.0,389.0,146.0,390.0" stroke="black" stroke-width="1" fill="none" />
<polyline points="138.5,386.5,263.5,511.5" stroke="black" stroke-width="1" fill="none" />
<polyline points="151.5,511.5,75.0,435.0,74.5,437.5,79.0,433.0,80.0,433.0,80.0,511.5" stroke="black" stroke-width="1" fill="none" />
<polyline points="66.0,438.0,69.0,435.0,67.5,435.5,143.5,511.5" stroke="black" stroke-width="1" fill="none" />
<polyline points="63.5,511.5,0.0,448.0,0.0,448.0,511.5,448.0" stroke="black" stroke-width="1" fill="none" />
<polyline points="471.5,511.5,349.5,389.5,352.0,388.5,352.0,511.5" stroke="black" stroke-width="1" fill="none" />
<polyline points="352.0,392.0,356.0,388.0,356.5,388.5,359.0,391.0,360.0,392.0,479.5,511.5" stroke="black" stroke-width="1" fill="none" />
<polyline points="343.5,511.5,0.0,168.0,0.0,168.0,511.5,168.0" stroke="black" stroke-width="1" fill="none" />
<polyline points="511.5,127.5,384.0,0.0" stroke="black" stroke-width="1" fill="none" />
<polyline points="376.0,0.0,376.0,234.0" stroke="black" stroke-width="1" fill="none" />
<polyline points="503.0,207.0,296.0,0.0,296.0,0.0,296.0,249.5" stroke="black" stroke-width="1" fill="none" />
<polyline points="337.0,241.0,96.0,0.0,96.0,0.0,96.0,292.0" stroke="black" stroke-width="1" fill="none" />
<polyline points="102.5,289.5,392.0,0.0" stroke="black" stroke-width="1" fill="none" />
<polyline points="376.0,0.0,511.5,135.5" stroke="black" stroke-width="1" fill="none" />
<polyline points="376.0,0.0,90.5,285.5,90.0,286.0,82.5,293.5" stroke="black" stroke-width="1" fill="none" />
<polyline points="73.5,286.5,360.0,0.0,360.0,0.0,360.0,237.0" stroke="black" stroke-width="1" fill="none" />
<polyline points="466.0,210.0,256.0,0.0,256.0,0.0,256.0,258.5" stroke="black" stroke-width="1" fill="none" />
<polyline points="264.0,256.0,8.0,0.0,8.0,0.0,8.0,309.5,3.5,308.5,7.0,305.0,5.5,309.5,0.0,304.0,0.0,304.0,40.5,304.0" stroke="black" stroke-width="1" fill="none" />
<polyline points="39.0,289.0,40.0,288.0" stroke="black" stroke-width="1" fill="none" />
<polyline points="35.0,285.0,39.0,281.0,40.5,279.5,320.0,0.0,320.0,0.0,320.0,245.5" stroke="black" stroke-width="1" fill="none" />
<polyline points="390.5,230.5,160.0,0.0,160.0,0.0,160.0,511.5" stroke="black" stroke-width="1" fill="none" />
<polyline points="71.5,511.5,6.0,446.0,8.0,445.0,8.0,511.5" stroke="black" stroke-width="1" fill="none" />
<polyline points="0.0,480.0,22.5,457.5" stroke="black" stroke-width="1" fill="none" />
<polyline points="28.0,444.0,30.5,441.5,26.0,442.0,95.5,511.5" stroke="black" stroke-width="1" fill="none" />
<polyline points="85.0,435.0,87.0,433.0,81.5,433.5,159.5,511.5" stroke="black" stroke-width="1" fill="none" />
<polyline points="79.5,511.5,12.0,444.0,11.5,444.5,8.0,448.0" stroke="black" stroke-width="1" fill="none" />
<polyline points="2.5,445.5,0.0,448.0,0.0,445.5,0.0,511.5" stroke="black" stroke-width="1" fill="none" />
<polyline points="24.0,511.5,24.0,441.5" stroke="black" stroke-width="1" fill="none" />
<polyline points="17.5,440.0,511.5,440.0" stroke="black" stroke-width="1" fill="none" />
<polyline points="487.5,511.5,363.5,387.5,362.0,390.0,366.0,386.0,368.0,386.0,368.0,511.5" stroke="black" stroke-width="1" fill="none" />
<polyline points="247.5,511.5,132.5,396.5,132.5,395.5,135.0,393.0,136.5,392.5,255.5,511.5" stroke="black" stroke-width="1" fill="none" />
<polyline points="135.5,511.5,61.0,437.0,59.0,437.0,56.5,439.5,56.0,437.5,56.0,511.5" stroke="black" stroke-width="1" fill="none" />
<polyline points="12.0,460.0,0.0,472.0,0.0,472.0,511.5,472.0" stroke="black" stroke-width="1" fill="none" />
<polyline points="495.5,511.5,374.0,390.0,372.5,387.5,373.5,386.5,373.0,389.0,370.5,386.5,371.5,384.0,511.5,384.0" stroke="black" stroke-width="1" fill="none" />
<polyline points="511.5,408.0,134.5,408.0" stroke="black" stroke-width="1" fill="none" />
<polyline points="134.5,401.5,137.0,399.0,132.0,400.0,511.5,400.0" stroke="black" stroke-width="1" fill="none" />
<polyline points="511.5,376.0,425.5,376.0" stroke="black" stroke-width="1" fill="none" />
<polyline points="432.0,375.5,432.0,511.5" stroke="black" stroke-width="1" fill="none" />
<polyline points="327.5,511.5,0.0,184.0,0.0,184.0,511.5,184.0" stroke="black" stroke-width="1" fill="none" />
<polyline points="511.5,143.5,368.0,0.0" stroke="black" stroke-width="1" fill="none" />
<polyline points="360.0,0.0,511.5,151.5" stroke="black" stroke-width="1" fill="none" />
<polyline points="511.5,159.5,352.0,0.0" stroke="black" stroke-width="1" fill="none" />
<polyline points="344.0,0.0,344.0,240.5" stroke="black" stroke-width="1" fill="none" />
<polyline points="426.0,218.0,208.0,0.0,208.0,0.0,208.0,511.5" stroke="black" stroke-width="1" fill="none" />
<polyline points="199.5,511.5,115.0,427.0,112.0,427.5,112.0,511.5" stroke="black" stroke-width="1" fill="none" />
<polyline points="39.5,511.5,0.0,472.0" stroke="black" stroke-width="1" fill="none" />
<polyline points="0.0,464.0,6.5,457.5" stroke="black" stroke-width="1" fill="none" />
<polyline points="16.0,443.5,16.0,511.5" stroke="black" stroke-width="1" fill="none" />
<polyline points="64.0,511.5,64.0,435.0" stroke="black" stroke-width="1" fill="none" />
<polyline points="129.0,425.0,215.5,511.5" stroke="black" stroke-width="1" fill="none" />
<polyline points="279.5,511.5,113.0,345.0,112.0,344.0,112.0,365.0,113.5,366.5,116.0,364.0,112.0,360.0,116.0,356.0" stroke="black" stroke-width="1" fill="none" />
<polyline points="111.5,359.5,124.5,372.5,128.0,372.5,128.0,374.0,128.0,377.0,128.0,380.5,128.5,384.0,278.5,384.0" stroke="black" stroke-width="1" fill="none" />
<polyline points="279.5,399.5,0.0,120.0,0.0,120.0,511.5,120.0" stroke="black" stroke-width="1" fill="none" />
<polyline points="511.5,167.5,344.0,0.0,344.0,0.0,61.5,282.5" stroke="black" stroke-width="1" fill="none" />
<polyline points="54.5,281.5,336.0,0.0,336.0,0.0,336.0,241.5" stroke="black" stroke-width="1" fill="none" />
<polyline points="424.0,224.0,200.0,0.0,200.0,0.0,200.0,511.5" stroke="black" stroke-width="1" fill="none" />
<polyline points="304.0,511.5,304.0,396.5" stroke="black" stroke-width="1" fill="none" />
<polyline points="296.0,396.5,296.0,511.5" stroke="black" stroke-width="1" fill="none" />
<polyline points="335.5,511.5,0.0,176.0,0.0,176.0,511.5,176.0,511.5,175.5,336.0,0.0" stroke="black" stroke-width="1" fill="none" />
<polyline points="328.0,0.0,328.0,243.5" stroke="black" stroke-width="1" fill="none" />
<polyline points="404.0,228.0,176.0,0.0,176.0,0.0,176.0,511.5" stroke="black" stroke-width="1" fill="none" />
<polyline points="264.0,511.5,264.0,358.0,268.0,356.0,268.5,356.5" stroke="black" stroke-width="1" fill="none" />
<polyline points="270.0,362.0,269.0,363.0,268.5,364.5,271.5,367.5" stroke="black" stroke-width="1" fill="none" />
<polyline points="266.5,370.5,275.0,379.0" stroke="black" stroke-width="1" fill="none" />
<polyline points="277.5,389.5,0.0,112.0,0.0,112.0,511.5,112.0" stroke="black" stroke-width="1" fill="none" />
<polyline points="511.5,183.5,328.0,0.0,328.0,0.0,47.0,281.0" stroke="black" stroke-width="1" fill="none" />
<polyline points="53.0,283.0,54.0,282.0" stroke="black" stroke-width="1" fill="none" />
<polyline points="49.5,286.5,47.0,289.0" stroke="black" stroke-width="1" fill="none" />
<polyline points="27.0,285.0,312.0,0.0,312.0,0.0,312.0,247.5" stroke="black" stroke-width="1" fill="none" />
<polyline points="373.0,229.0,144.0,0.0,144.0,0.0,144.0,511.5" stroke="black" stroke-width="1" fill="none" />
<polyline points="224.0,511.5,224.0,0.0,224.0,0.0,443.5,219.5" stroke="black" stroke-width="1" fill="none" />
<polyline points="511.5,191.5,320.0,0.0" stroke="black" stroke-width="1" fill="none" />
<polyline points="312.0,0.0,511.5,199.5" stroke="black" stroke-width="1" fill="none" />
<polyline points="497.0,209.0,288.0,0.0,288.0,0.0,288.0,251.5" stroke="black" stroke-width="1" fill="none" />
<polyline points="319.5,239.5,80.0,0.0,80.0,0.0,80.0,294.5" stroke="black" stroke-width="1" fill="none" />
<polyline points="114.0,326.0,116.5,323.5,112.0,322.5,112.0,0.0,112.0,0.0,350.5,238.5" stroke="black" stroke-width="1" fill="none" />
<polyline points="417.0,225.0,192.0,0.0,192.0,0.0,192.0,511.5" stroke="black" stroke-width="1" fill="none" />
<polyline points="248.0,511.5,248.0,263.5" stroke="black" stroke-width="1" fill="none" />
<polyline points="231.0,297.0,146.5,381.5" stroke="black" stroke-width="1" fill="none" />
<polyline points="142.5,369.5,234.5,277.5" stroke="black" stroke-width="1" fill="none" />
<polyline points="303.5,247.5,56.0,0.0,56.0,0.0,56.0,300.5" stroke="black" stroke-width="1" fill="none" />
<polyline points="26.0,286.0,23.5,288.5" stroke="black" stroke-width="1" fill="none" />
<polyline points="15.0,289.0,304.0,0.0" stroke="black" stroke-width="1" fill="none" />
<polyline points="296.0,0.0,11.5,284.5,10.5,285.5,7.5,288.5,7.0,289.0,5.5,290.5,5.0,291.0,2.5,293.5,0.0,296.0,81.0,296.0" stroke="black" stroke-width="1" fill="none" />
<polyline points="39.0,303.0,0.0,264.0,0.0,264.0,250.0,264.0" stroke="black" stroke-width="1" fill="none" />
<polyline points="313.0,241.0,72.0,0.0,72.0,0.0,72.0,296.5" stroke="black" stroke-width="1" fill="none" />
<polyline points="25.0,305.0,0.0,280.0,0.0,280.0,254.0,280.0" stroke="black" stroke-width="1" fill="none" />
<polyline points="297.5,249.5,48.0,0.0,48.0,0.0,48.0,301.5" stroke="black" stroke-width="1" fill="none" />
<polyline points="14.5,289.5,13.0,291.0" stroke="black" stroke-width="1" fill="none" />
<polyline points="0.0,288.0,256.0,288.0" stroke="black" stroke-width="1" fill="none" />
<polyline points="291.5,251.5,40.0,0.0,40.0,0.0,40.0,303.0" stroke="black" stroke-width="1" fill="none" />
<polyline points="11.5,307.5,0.0,296.0" stroke="black" stroke-width="1" fill="none" />
<polyline points="0.0,288.0,19.0,307.0" stroke="black" stroke-width="1" fill="none" />
<polyline points="0.0,288.0,288.0,0.0" stroke="black" stroke-width="1" fill="none" />
<polyline points="280.0,0.0,0.0,280.0" stroke="black" stroke-width="1" fill="none" />
<polyline points="0.0,272.0,252.0,272.0" stroke="black" stroke-width="1" fill="none" />
<polyline points="284.0,252.0,32.0,0.0,32.0,0.0,32.0,305.0,32.0,304.0,0.0,272.0,0.0,272.0,272.0,0.0,272.0,0.0,272.0,255.5" stroke="black" stroke-width="1" fill="none" />
<polyline points="364.5,236.5,128.0,0.0,128.0,0.0,128.0,365.5" stroke="black" stroke-width="1" fill="none" />
<polyline points="117.5,370.5,115.5,372.5,114.0,370.0,123.0,379.0,120.0,379.5,120.0,348.0,117.0,347.0,116.0,348.0,114.0,350.0,111.5,352.5,111.0,351.0,124.0,364.0" stroke="black" stroke-width="1" fill="none" />
<polyline points="111.5,368.0,275.0,368.0" stroke="black" stroke-width="1" fill="none" />
<polyline points="264.0,368.0,0.0,104.0,0.0,104.0,511.5,104.0" stroke="black" stroke-width="1" fill="none" />
<polyline points="483.0,211.0,272.0,0.0" stroke="black" stroke-width="1" fill="none" />
<polyline points="264.0,0.0,264.0,257.0" stroke="black" stroke-width="1" fill="none" />
<polyline points="352.0,232.0,120.0,0.0,120.0,0.0,120.0,335.5,120.0,340.0,120.0,343.5,119.5,344.0,263.0,344.0" stroke="black" stroke-width="1" fill="none" />
<polyline points="264.0,350.0,264.0,352.5" stroke="black" stroke-width="1" fill="none" />
<polyline points="256.0,352.0,0.0,96.0,0.0,96.0,511.5,96.0" stroke="black" stroke-width="1" fill="none" />
<polyline points="471.5,207.5,264.0,0.0,264.0,0.0,0.0,264.0" stroke="black" stroke-width="1" fill="none" />
<polyline points="0.0,256.0,273.5,256.0" stroke="black" stroke-width="1" fill="none" />
<polyline points="410.0,226.0,184.0,0.0,184.0,0.0,184.0,511.5" stroke="black" stroke-width="1" fill="none" />
<polyline points="240.0,511.5,240.0,0.0,240.0,0.0,457.0,217.0" stroke="black" stroke-width="1" fill="none" />
<polyline points="463.5,215.5,248.0,0.0,248.0,0.0,248.0,260.5" stroke="black" stroke-width="1" fill="none" />
<polyline points="378.5,226.5,152.0,0.0,152.0,0.0,152.0,511.5" stroke="black" stroke-width="1" fill="none" />
<polyline points="168.0,511.5,168.0,0.0,168.0,0.0,397.0,229.0" stroke="black" stroke-width="1" fill="none" />
<polyline points="370.5,234.5,136.0,0.0,136.0,0.0,136.0,409.5" stroke="black" stroke-width="1" fill="none" />
<polyline points="136.0,423.5,136.0,511.5" stroke="black" stroke-width="1" fill="none" />
<polyline points="130.0,392.0,280.5,392.0" stroke="black" stroke-width="1" fill="none" />
<polyline points="312.0,394.5,312.0,511.5" stroke="black" stroke-width="1" fill="none" />
<polyline points="351.5,511.5,0.0,160.0,0.0,160.0,511.5,160.0" stroke="black" stroke-width="1" fill="none" />
<polyline points="511.5,368.0,477.5,368.0,473.0,368.0,465.5,368.0,464.0,371.0,464.0,511.5" stroke="black" stroke-width="1" fill="none" />
<polyline points="367.5,511.5,0.0,144.0,0.0,144.0,511.5,144.0" stroke="black" stroke-width="1" fill="none" />
<polyline points="456.0,371.5,456.0,511.5" stroke="black" stroke-width="1" fill="none" />
<polyline points="503.5,511.5,377.0,385.0,376.0,384.5,376.0,511.5" stroke="black" stroke-width="1" fill="none" />
<polyline points="344.0,392.0,345.5,390.5,344.0,390.5,344.0,511.5" stroke="black" stroke-width="1" fill="none" />
<polyline points="345.5,393.5,342.5,390.5" stroke="black" stroke-width="1" fill="none" />
<polyline points="336.0,390.5,336.0,511.5" stroke="black" stroke-width="1" fill="none" />
<polyline points="392.0,511.5,392.0,382.0" stroke="black" stroke-width="1" fill="none" />
<polyline points="388.0,388.0,511.5,511.5" stroke="black" stroke-width="1" fill="none" />
<polyline points="384.0,511.5,384.0,384.0,384.0,384.0,381.0,387.0,384.5,384.5,386.5,386.5" stroke="black" stroke-width="1" fill="none" />
<polyline points="365.0,384.0,362.5,384.0,360.0,387.5,360.0,511.5" stroke="black" stroke-width="1" fill="none" />
<polyline points="413.5,376.0,420.0,376.0" stroke="black" stroke-width="1" fill="none" />
<polyline points="133.0,387.0,131.0,389.0,130.5,386.5,135.0,391.0" stroke="black" stroke-width="1" fill="none" />
<polyline points="113.0,376.0,277.0,376.0" stroke="black" stroke-width="1" fill="none" />
<polyline points="277.5,253.5,24.0,0.0,24.0,0.0,24.0,306.5" stroke="black" stroke-width="1" fill="none" />
<polyline points="45.0,301.0,0.0,256.0,0.0,256.0,256.0,0.0" stroke="black" stroke-width="1" fill="none" />
<polyline points="248.0,0.0,0.0,248.0,0.0,248.0,307.0,248.0" stroke="black" stroke-width="1" fill="none" />
<polyline points="246.0,310.0,0.0,64.0,0.0,64.0,511.5,64.0" stroke="black" stroke-width="1" fill="none" />
<polyline points="240.0,0.0,0.0,240.0,0.0,240.0,349.0,240.0" stroke="black" stroke-width="1" fill="none" />
<polyline points="246.5,302.5,0.0,56.0,0.0,56.0,511.5,56.0" stroke="black" stroke-width="1" fill="none" />
<polyline points="232.0,0.0,0.0,232.0,0.0,232.0,390.0,232.0" stroke="black" stroke-width="1" fill="none" />
<polyline points="224.0,0.0,0.0,224.0,0.0,224.0,428.0,224.0" stroke="black" stroke-width="1" fill="none" />
<polyline points="216.0,0.0,0.0,216.0,0.0,216.0,465.0,216.0" stroke="black" stroke-width="1" fill="none" />
<polyline points="208.0,0.0,0.0,208.0,0.0,208.0,507.0,208.0" stroke="black" stroke-width="1" fill="none" />
<polyline points="200.0,0.0,0.0,200.0,0.0,200.0,511.5,200.0" stroke="black" stroke-width="1" fill="none" />
<polyline points="192.0,0.0,0.0,192.0,0.0,192.0,511.5,192.0" stroke="black" stroke-width="1" fill="none" />
<polyline points="184.0,0.0,0.0,184.0" stroke="black" stroke-width="1" fill="none" />
<polyline points="0.0,192.0,98.5,290.5" stroke="black" stroke-width="1" fill="none" />
<polyline points="65.0,297.0,0.0,232.0" stroke="black" stroke-width="1" fill="none" />
<polyline points="0.0,224.0,72.0,296.0" stroke="black" stroke-width="1" fill="none" />
<polyline points="52.5,300.5,0.0,248.0" stroke="black" stroke-width="1" fill="none" />
<polyline points="0.0,240.0,58.5,298.5" stroke="black" stroke-width="1" fill="none" />
<polyline points="78.5,294.5,0.0,216.0" stroke="black" stroke-width="1" fill="none" />
<polyline points="0.0,208.0,85.5,293.5" stroke="black" stroke-width="1" fill="none" />
<polyline points="92.0,292.0,0.0,200.0" stroke="black" stroke-width="1" fill="none" />
<polyline points="0.0,176.0,176.0,0.0" stroke="black" stroke-width="1" fill="none" />
<polyline points="168.0,0.0,0.0,168.0" stroke="black" stroke-width="1" fill="none" />
<polyline points="0.0,160.0,160.0,0.0" stroke="black" stroke-width="1" fill="none" />
<polyline points="152.0,0.0,0.0,152.0" stroke="black" stroke-width="1" fill="none" />
<polyline points="0.0,144.0,144.0,0.0" stroke="black" stroke-width="1" fill="none" />
<polyline points="136.0,0.0,0.0,136.0" stroke="black" stroke-width="1" fill="none" />
<polyline points="0.0,128.0,128.0,0.0" stroke="black" stroke-width="1" fill="none" />
<polyline points="120.0,0.0,0.0,120.0" stroke="black" stroke-width="1" fill="none" />
<polyline points="0.0,112.0,112.0,0.0" stroke="black" stroke-width="1" fill="none" />
<polyline points="104.0,0.0,0.0,104.0" stroke="black" stroke-width="1" fill="none" />
<polyline points="0.0,96.0,96.0,0.0" stroke="black" stroke-width="1" fill="none" />
<polyline points="88.0,0.0,0.0,88.0" stroke="black" stroke-width="1" fill="none" />
<polyline points="0.0,80.0,80.0,0.0" stroke="black" stroke-width="1" fill="none" />
<polyline points="72.0,0.0,0.0,72.0" stroke="black" stroke-width="1" fill="none" />
<polyline points="0.0,64.0,64.0,0.0" stroke="black" stroke-width="1" fill="none" />
<polyline points="52.5,3.5,0.0,56.0" stroke="black" stroke-width="1" fill="none" />
<polyline points="0.0,48.0,511.5,48.0" stroke="black" stroke-width="1" fill="none" />
<polyline points="42.5,5.5,0.0,48.0,0.0,48.0,246.5,294.5" stroke="black" stroke-width="1" fill="none" />
<polyline points="251.5,283.5,0.0,32.0,0.0,32.0,511.5,32.0" stroke="black" stroke-width="1" fill="none" />
<polyline points="31.0,9.0,0.0,40.0" stroke="black" stroke-width="1" fill="none" />
<polyline points="0.0,32.0,18.0,14.0,20.5,11.5,22.0,10.0" stroke="black" stroke-width="1" fill="none" />
<polyline points="15.0,9.0,13.5,10.5" stroke="black" stroke-width="1" fill="none" />
<polyline points="8.5,7.5,8.0,8.0" stroke="black" stroke-width="1" fill="none" />
<polyline points="6.0,2.0,8.0,0.0" stroke="black" stroke-width="1" fill="none" />
<polyline points="0.0,0.0,0.0,311.0" stroke="black" stroke-width="1" fill="none" />
<polyline points="108.5,344.0,117.0,344.0" stroke="black" stroke-width="1" fill="none" />
<polyline points="115.5,336.0,260.5,336.0" stroke="black" stroke-width="1" fill="none" />
<polyline points="249.5,273.5,0.0,24.0,0.0,24.0,511.5,24.0" stroke="black" stroke-width="1" fill="none" />
<polyline points="252.0,260.0,0.0,8.0,0.0,8.0,511.5,8.0" stroke="black" stroke-width="1" fill="none" />
<polyline points="8.0,16.0,7.0,17.0,5.5,18.5,0.0,24.0" stroke="black" stroke-width="1" fill="none" />
<polyline points="2.5,13.5,3.5,12.5" stroke="black" stroke-width="1" fill="none" />
<polyline points="0.0,8.0,2.0,6.0" stroke="black" stroke-width="1" fill="none" />
<polyline points="0.0,0.0,258.0,258.0" stroke="black" stroke-width="1" fill="none" />
<polyline points="272.0,360.0,110.0,360.0" stroke="black" stroke-width="1" fill="none" />
<polyline points="109.0,352.0,269.0,352.0" stroke="black" stroke-width="1" fill="none" />
<polyline points="260.0,328.0,113.0,328.0" stroke="black" stroke-width="1" fill="none" />
<polyline points="0.0,0.0,0.0,0.0" stroke="black" stroke-width="1" fill="none" />
</svg>