<svg xmlns="http://www.w3.org/2000/svg" height="512px" width="512px" version="1.1"><polyline points="236.0,258.0,238.0,266.0,238.0,274.0,240.0,282.0,241.0,290.0,243.0,298.0,244.0,306.0,241.0,314.0,240.0,322.0" stroke="black" stroke-width="1" fill="none" />
<polyline points="245.0,310.0,253.0,311.0" stroke="black" stroke-width="1" fill="none" />
<polyline points="238.0,297.0,240.0,305.0,244.0,318.0,244.0,326.0,245.0,334.0,247.0,342.0,250.0,350.0,254.0,358.0,256.0,366.0,259.0,374.0,261.0,382.0,262.0,390.0,262.0,398.0,269.0,395.0,277.0,395.0,285.0,396.0,293.0,394.0,301.0,394.0,309.0,392.0,317.0,392.0,325.0,390.0,333.0,390.0,341.0,388.0,349.0,388.0,357.0,386.0,365.0,385.0,373.0,385.0,381.0,383.0,389.0,380.0,395.0,381.0,403.0,381.0,408.0,380.0,416.0,379.0,424.0,378.0,432.0,377.0,440.0,376.0,448.0,375.0,456.0,371.0,463.0,373.0,471.0,372.0,477.0,370.0,485.0,370.0,493.0,368.0,501.0,368.0,509.0,366.0" stroke="black" stroke-width="1" fill="none" />
<polyline points="256.0,350.0,248.0,346.0" stroke="black" stroke-width="1" fill="none" />
<polyline points="235.0,260.0,243.0,257.0,251.0,256.0,259.0,254.0,267.0,253.0,275.0,251.0,283.0,250.0,291.0,249.0,299.0,247.0,307.0,246.0,315.0,245.0,323.0,243.0,331.0,242.0,339.0,241.0,347.0,239.0,355.0,238.0,363.0,236.0,371.0,235.0,379.0,234.0,387.0,232.0,395.0,231.0,403.0,230.0,411.0,228.0,419.0,227.0,427.0,226.0,435.0,224.0,443.0,223.0,451.0,222.0,459.0,220.0,467.0,219.0,475.0,218.0,483.0,217.0,491.0,215.0,499.0,214.0,507.0,213.0" stroke="black" stroke-width="1" fill="none" />
<polyline points="106.0,328.0,107.0,336.0,107.0,344.0" stroke="black" stroke-width="1" fill="none" />
<polyline points="100.0,338.0,92.0,338.0,84.0,339.0,76.0,340.0" stroke="black" stroke-width="1" fill="none" />
<polyline points="94.0,340.0,93.0,348.0,94.0,356.0,96.0,364.0,100.0,372.0" stroke="black" stroke-width="1" fill="none" />
<polyline points="108.0,361.0,116.0,367.0,116.0,368.0,110.0,372.0,111.0,380.0,113.0,388.0,115.0,396.0,117.0,404.0,119.0,412.0" stroke="black" stroke-width="1" fill="none" />
<polyline points="113.0,369.0,105.0,373.0,97.0,375.0,89.0,375.0,81.0,377.0" stroke="black" stroke-width="1" fill="none" />
<polyline points="92.0,372.0,84.0,374.0,76.0,375.0,68.0,377.0,60.0,377.0" stroke="black" stroke-width="1" fill="none" />
<polyline points="109.0,360.0,108.0,368.0,113.0,369.0,114.0,377.0,116.0,385.0" stroke="black" stroke-width="1" fill="none" />
<polyline points="23.0,431.0,15.0,432.0" stroke="black" stroke-width="1" fill="none" />
<polyline points="0.0,435.0,2.0,431.0,10.0,432.0,18.0,429.0,26.0,430.0,34.0,427.0,42.0,428.0,50.0,428.0,58.0,426.0,66.0,426.0,74.0,424.0,82.0,423.0,90.0,422.0,98.0,421.0,106.0,419.0,114.0,418.0" stroke="black" stroke-width="1" fill="none" />
<polyline points="100.0,339.0,100.0,331.0,98.0,323.0,96.0,315.0,93.0,307.0,91.0,299.0,89.0,291.0,88.0,284.0,80.0,285.0,72.0,286.0,64.0,287.0,56.0,289.0,48.0,290.0,40.0,292.0,32.0,293.0,24.0,294.0,16.0,296.0,8.0,297.0,0.0,298.0" stroke="black" stroke-width="1" fill="none" />
<polyline points="0.0,0.0,511.5,0.0,511.5,0.5,308.5,203.5,306.0,206.0,303.0,209.0" stroke="black" stroke-width="1" fill="none" />
<polyline points="306.5,213.5,305.0,215.0" stroke="black" stroke-width="1" fill="none" />
<polyline points="300.5,219.5,299.0,221.0" stroke="black" stroke-width="1" fill="none" />
<polyline points="292.0,212.0,292.5,211.5,294.0,210.0,295.5,208.5,297.0,207.0,299.5,204.5,303.0,201.0,319.5,184.5,320.0,184.0,504.0,0.0,504.0,0.0,504.0,213.5,499.5,212.5,503.5,208.5,506.0,206.0,507.5,204.5,509.0,203.0,511.5,200.5" stroke="black" stroke-width="1" fill="none" />
<polyline points="511.5,208.5,509.5,210.5" stroke="black" stroke-width="1" fill="none" />
<polyline points="502.0,202.0,511.5,192.5" stroke="black" stroke-width="1" fill="none" />
<polyline points="500.5,203.5,499.5,204.5,495.5,208.5,494.5,209.5,494.0,210.0,489.5,214.5" stroke="black" stroke-width="1" fill="none" />
<polyline points="488.5,207.5,491.0,205.0,493.0,203.0,511.5,184.5" stroke="black" stroke-width="1" fill="none" />
<polyline points="511.5,176.5,490.0,198.0,489.0,199.0,487.0,201.0,486.5,201.5,482.5,205.5" stroke="black" stroke-width="1" fill="none" />
<polyline points="477.5,202.5,491.0,189.0,491.5,188.5,511.5,168.5" stroke="black" stroke-width="1" fill="none" />
<polyline points="511.5,160.5,480.5,191.5,478.5,193.5,473.5,198.5" stroke="black" stroke-width="1" fill="none" />
<polyline points="475.5,204.5,475.0,205.0,471.0,209.0,470.0,210.0" stroke="black" stroke-width="1" fill="none" />
<polyline points="475.0,213.0,471.0,217.0" stroke="black" stroke-width="1" fill="none" />
<polyline points="464.5,215.5,461.0,219.0" stroke="black" stroke-width="1" fill="none" />
<polyline points="454.5,217.5,451.0,221.0" stroke="black" stroke-width="1" fill="none" />
<polyline points="446.5,217.5,441.0,223.0,443.0,219.0,446.0,222.0" stroke="black" stroke-width="1" fill="none" />
<polyline points="436.5,219.5,432.5,223.5,432.0,224.0,429.5,221.5,426.0,222.0,422.5,225.5" stroke="black" stroke-width="1" fill="none" />
<polyline points="416.0,224.0,412.5,227.5,415.5,223.5,418.5,226.5" stroke="black" stroke-width="1" fill="none" />
<polyline points="408.0,224.0,402.5,229.5" stroke="black" stroke-width="1" fill="none" />
<polyline points="398.0,226.0,394.5,229.5" stroke="black" stroke-width="1" fill="none" />
<polyline points="389.5,226.5,388.5,227.5,387.0,229.0,384.0,232.0" stroke="black" stroke-width="1" fill="none" />
<polyline points="385.5,222.5,389.0,219.0" stroke="black" stroke-width="1" fill="none" />
<polyline points="383.5,216.5,388.0,212.0,392.0,208.0,392.5,207.5" stroke="black" stroke-width="1" fill="none" />
<polyline points="389.5,202.5,390.0,202.0,392.0,200.0,393.5,198.5,395.5,196.5,401.0,191.0,401.5,190.5,511.5,80.5" stroke="black" stroke-width="1" fill="none" />
<polyline points="511.5,152.5,464.0,200.0,462.5,201.5,461.5,202.5" stroke="black" stroke-width="1" fill="none" />
<polyline points="458.5,197.5,455.5,200.5,455.0,201.0,452.0,204.0,448.0,200.0,447.0,201.0,444.5,203.5,443.0,205.0" stroke="black" stroke-width="1" fill="none" />
<polyline points="442.0,198.0,451.0,189.0,452.0,188.0,511.5,128.5" stroke="black" stroke-width="1" fill="none" />
<polyline points="511.5,144.5,460.0,196.0" stroke="black" stroke-width="1" fill="none" />
<polyline points="454.0,194.0,511.5,136.5" stroke="black" stroke-width="1" fill="none" />
<polyline points="485.5,210.5,480.5,215.5,480.0,216.0,479.5,216.5,481.0,217.0,477.0,213.0" stroke="black" stroke-width="1" fill="none" />
<polyline points="467.5,204.5,469.0,203.0" stroke="black" stroke-width="1" fill="none" />
<polyline points="443.5,188.5,511.5,120.5" stroke="black" stroke-width="1" fill="none" />
<polyline points="443.0,189.0,440.0,192.0" stroke="black" stroke-width="1" fill="none" />
<polyline points="436.5,187.5,437.5,186.5,439.0,185.0,511.5,112.5" stroke="black" stroke-width="1" fill="none" />
<polyline points="435.0,189.0,434.0,190.0,433.0,191.0,426.5,197.5" stroke="black" stroke-width="1" fill="none" />
<polyline points="424.5,191.5,426.0,190.0,427.5,188.5,511.5,104.5" stroke="black" stroke-width="1" fill="none" />
<polyline points="511.5,96.5,426.5,181.5,425.0,183.0,416.5,191.5,416.0,192.0,412.5,195.5,412.0,196.0,410.0,198.0,406.0,194.0,407.0,193.0,408.0,192.0,511.5,88.5" stroke="black" stroke-width="1" fill="none" />
<polyline points="511.5,72.5,400.0,184.0,399.5,184.5,396.5,187.5,395.5,188.5,392.0,192.0,389.5,194.5,388.5,195.5,386.5,197.5,380.0,204.0,379.0,205.0,378.0,206.0" stroke="black" stroke-width="1" fill="none" />
<polyline points="381.0,211.0,387.5,204.5" stroke="black" stroke-width="1" fill="none" />
<polyline points="397.5,202.5,400.5,199.5,402.5,197.5,403.5,196.5" stroke="black" stroke-width="1" fill="none" />
<polyline points="402.5,205.5,402.0,206.0" stroke="black" stroke-width="1" fill="none" />
<polyline points="418.5,197.5,420.0,196.0" stroke="black" stroke-width="1" fill="none" />
<polyline points="434.5,197.5,435.0,197.0" stroke="black" stroke-width="1" fill="none" />
<polyline points="441.5,217.5,224.0,0.0,224.0,0.0,224.0,511.5,224.5,511.5,317.0,419.0,318.0,418.0,321.0,415.0,322.0,414.0,323.0,413.0,324.5,411.5,326.0,410.0" stroke="black" stroke-width="1" fill="none" />
<polyline points="327.0,417.0,323.0,421.0" stroke="black" stroke-width="1" fill="none" />
<polyline points="333.5,418.5,334.0,418.0,334.5,417.5,338.0,414.0,340.5,411.5,341.5,410.5,345.5,414.5,348.0,412.0,348.5,411.5,351.5,408.5" stroke="black" stroke-width="1" fill="none" />
<polyline points="356.0,412.0,353.5,414.5,351.5,416.5,351.0,417.0,349.0,419.0,346.0,422.0" stroke="black" stroke-width="1" fill="none" />
<polyline points="348.5,427.5,362.5,413.5" stroke="black" stroke-width="1" fill="none" />
<polyline points="358.0,410.0,357.5,410.5" stroke="black" stroke-width="1" fill="none" />
<polyline points="367.5,408.5,368.0,408.0,372.0,412.0,372.5,411.5,373.5,410.5,374.0,410.0" stroke="black" stroke-width="1" fill="none" />
<polyline points="377.5,414.5,379.5,412.5,381.5,410.5,382.0,410.0" stroke="black" stroke-width="1" fill="none" />
<polyline points="388.0,412.0,389.5,410.5,391.0,409.0,394.5,405.5,398.5,409.5,402.0,406.0" stroke="black" stroke-width="1" fill="none" />
<polyline points="407.5,408.5,402.5,413.5" stroke="black" stroke-width="1" fill="none" />
<polyline points="403.0,421.0,411.5,412.5,412.5,411.5,421.5,402.5" stroke="black" stroke-width="1" fill="none" />
<polyline points="429.5,402.5,431.0,401.0,435.0,405.0,431.5,408.5" stroke="black" stroke-width="1" fill="none" />
<polyline points="439.0,409.0,444.0,404.0" stroke="black" stroke-width="1" fill="none" />
<polyline points="451.0,405.0,454.5,401.5,455.0,401.0,456.5,399.5,460.5,403.5,465.5,398.5,467.0,397.0,470.0,394.0" stroke="black" stroke-width="1" fill="none" />
<polyline points="475.5,396.5,472.0,400.0,471.0,401.0,469.0,403.0" stroke="black" stroke-width="1" fill="none" />
<polyline points="479.0,401.0,492.5,387.5,495.5,384.5,498.5,381.5" stroke="black" stroke-width="1" fill="none" />
<polyline points="505.0,383.0,505.5,382.5,508.0,380.0,509.5,378.5" stroke="black" stroke-width="1" fill="none" />
<polyline points="511.5,384.5,504.0,392.0" stroke="black" stroke-width="1" fill="none" />
<polyline points="511.5,400.5,400.5,511.5" stroke="black" stroke-width="1" fill="none" />
<polyline points="392.5,511.5,511.5,392.5" stroke="black" stroke-width="1" fill="none" />
<polyline points="511.5,408.5,408.5,511.5" stroke="black" stroke-width="1" fill="none" />
<polyline points="416.5,511.5,511.5,416.5" stroke="black" stroke-width="1" fill="none" />
<polyline points="511.5,440.5,440.5,511.5" stroke="black" stroke-width="1" fill="none" />
<polyline points="432.5,511.5,511.5,432.5" stroke="black" stroke-width="1" fill="none" />
<polyline points="511.5,472.5,472.5,511.5" stroke="black" stroke-width="1" fill="none" />
<polyline points="464.5,511.5,511.5,464.5" stroke="black" stroke-width="1" fill="none" />
<polyline points="511.5,504.5,504.5,511.5" stroke="black" stroke-width="1" fill="none" />
<polyline points="496.5,511.5,511.5,496.5" stroke="black" stroke-width="1" fill="none" />
<polyline points="511.5,488.5,488.5,511.5" stroke="black" stroke-width="1" fill="none" />
<polyline points="480.5,511.5,511.5,480.5" stroke="black" stroke-width="1" fill="none" />
<polyline points="511.5,456.5,456.5,511.5" stroke="black" stroke-width="1" fill="none" />
<polyline points="448.5,511.5,511.5,448.5" stroke="black" stroke-width="1" fill="none" />
<polyline points="511.5,424.5,424.5,511.5" stroke="black" stroke-width="1" fill="none" />
<polyline points="384.5,511.5,503.5,392.5" stroke="black" stroke-width="1" fill="none" />
<polyline points="502.5,385.5,490.5,397.5,489.5,398.5,376.5,511.5" stroke="black" stroke-width="1" fill="none" />
<polyline points="368.5,511.5,478.0,402.0" stroke="black" stroke-width="1" fill="none" />
<polyline points="476.5,395.5,479.0,393.0" stroke="black" stroke-width="1" fill="none" />
<polyline points="476.5,387.5,477.0,387.0" stroke="black" stroke-width="1" fill="none" />
<polyline points="471.0,385.0,470.5,385.5,469.0,387.0,468.5,387.5,466.0,390.0,461.0,395.0" stroke="black" stroke-width="1" fill="none" />
<polyline points="467.5,404.5,360.5,511.5" stroke="black" stroke-width="1" fill="none" />
<polyline points="352.5,511.5,450.0,414.0,451.0,413.0,460.0,404.0" stroke="black" stroke-width="1" fill="none" />
<polyline points="450.0,406.0,444.5,411.5,444.0,412.0,344.5,511.5" stroke="black" stroke-width="1" fill="none" />
<polyline points="336.5,511.5,437.5,410.5" stroke="black" stroke-width="1" fill="none" />
<polyline points="444.0,396.0,445.0,395.0" stroke="black" stroke-width="1" fill="none" />
<polyline points="445.0,379.0,448.5,375.5,448.0,375.5,448.0,511.5" stroke="black" stroke-width="1" fill="none" />
<polyline points="420.5,411.5,423.5,408.5" stroke="black" stroke-width="1" fill="none" />
<polyline points="431.0,409.0,328.5,511.5" stroke="black" stroke-width="1" fill="none" />
<polyline points="320.5,511.5,419.5,412.5" stroke="black" stroke-width="1" fill="none" />
<polyline points="411.0,405.0,417.0,399.0" stroke="black" stroke-width="1" fill="none" />
<polyline points="411.5,396.5,416.0,392.0" stroke="black" stroke-width="1" fill="none" />
<polyline points="409.5,390.5,414.5,385.5,418.5,381.5,420.5,379.5,420.0,380.0,511.5,471.5" stroke="black" stroke-width="1" fill="none" />
<polyline points="485.0,387.0,485.5,386.5" stroke="black" stroke-width="1" fill="none" />
<polyline points="487.0,375.0,511.5,399.5" stroke="black" stroke-width="1" fill="none" />
<polyline points="509.0,371.0,511.5,368.5,511.5,367.5,511.0,367.0" stroke="black" stroke-width="1" fill="none" />
<polyline points="505.0,369.0,511.5,375.5" stroke="black" stroke-width="1" fill="none" />
<polyline points="511.5,383.5,497.5,369.5,496.0,369.0,496.0,511.5" stroke="black" stroke-width="1" fill="none" />
<polyline points="402.5,421.5,312.5,511.5" stroke="black" stroke-width="1" fill="none" />
<polyline points="304.5,511.5,401.0,415.0,397.0,411.0,394.5,413.5,393.0,415.0,383.5,424.5,382.5,425.5,296.5,511.5" stroke="black" stroke-width="1" fill="none" />
<polyline points="288.5,511.5,383.0,417.0" stroke="black" stroke-width="1" fill="none" />
<polyline points="375.5,416.5,280.5,511.5" stroke="black" stroke-width="1" fill="none" />
<polyline points="272.5,511.5,363.0,421.0,364.0,420.0,368.0,416.0,369.0,415.0,370.0,414.0" stroke="black" stroke-width="1" fill="none" />
<polyline points="374.5,390.5,495.5,511.5" stroke="black" stroke-width="1" fill="none" />
<polyline points="409.5,406.5,410.5,405.5" stroke="black" stroke-width="1" fill="none" />
<polyline points="408.5,383.5,409.5,382.5,410.0,382.0,412.5,379.5,412.0,380.0,511.5,479.5" stroke="black" stroke-width="1" fill="none" />
<polyline points="491.0,373.0,495.0,369.0,499.5,368.0,511.5,368.0" stroke="black" stroke-width="1" fill="none" />
<polyline points="504.0,368.0,504.0,511.5" stroke="black" stroke-width="1" fill="none" />
<polyline points="482.0,374.0,485.0,371.0,483.5,371.5,486.5,374.5,488.0,370.5,488.0,511.5" stroke="black" stroke-width="1" fill="none" />
<polyline points="463.5,376.5,467.0,373.0,469.5,373.5,511.5,415.5" stroke="black" stroke-width="1" fill="none" />
<polyline points="501.0,371.0,503.0,369.0" stroke="black" stroke-width="1" fill="none" />
<polyline points="490.5,370.5,511.5,391.5" stroke="black" stroke-width="1" fill="none" />
<polyline points="511.5,407.5,476.0,372.0,475.5,372.5,473.0,375.0,472.0,372.5,472.0,511.5" stroke="black" stroke-width="1" fill="none" />
<polyline points="455.0,377.0,456.5,375.5,455.5,375.5,511.5,431.5" stroke="black" stroke-width="1" fill="none" />
<polyline points="511.5,423.5,461.5,373.5,464.0,373.5,464.0,511.5" stroke="black" stroke-width="1" fill="none" />
<polyline points="437.0,379.0,438.5,377.5,440.0,376.5,440.0,511.5" stroke="black" stroke-width="1" fill="none" />
<polyline points="426.5,381.5,430.5,377.5,432.0,377.5,432.0,511.5" stroke="black" stroke-width="1" fill="none" />
<polyline points="399.0,385.0,402.0,382.0,400.0,382.0,400.0,511.5" stroke="black" stroke-width="1" fill="none" />
<polyline points="348.0,428.0,264.5,511.5" stroke="black" stroke-width="1" fill="none" />
<polyline points="256.5,511.5,345.5,422.5" stroke="black" stroke-width="1" fill="none" />
<polyline points="340.5,419.5,248.5,511.5" stroke="black" stroke-width="1" fill="none" />
<polyline points="240.5,511.5,332.0,420.0" stroke="black" stroke-width="1" fill="none" />
<polyline points="322.0,422.0,232.5,511.5" stroke="black" stroke-width="1" fill="none" />
<polyline points="216.5,511.5,310.0,418.0,311.5,416.5,315.5,412.5,318.0,410.0,318.5,409.5" stroke="black" stroke-width="1" fill="none" />
<polyline points="307.0,413.0,208.5,511.5" stroke="black" stroke-width="1" fill="none" />
<polyline points="200.5,511.5,296.5,415.5,292.5,411.5,295.5,408.5,296.0,408.0,297.0,407.0,301.0,411.0,300.5,411.5" stroke="black" stroke-width="1" fill="none" />
<polyline points="291.0,413.0,192.5,511.5" stroke="black" stroke-width="1" fill="none" />
<polyline points="184.5,511.5,286.0,410.0" stroke="black" stroke-width="1" fill="none" />
<polyline points="283.0,405.0,284.0,404.0,282.0,406.0,278.5,409.5,277.5,410.5,176.5,511.5" stroke="black" stroke-width="1" fill="none" />
<polyline points="168.5,511.5,276.5,403.5,279.0,401.0,283.5,396.5,285.0,397.0,399.5,511.5" stroke="black" stroke-width="1" fill="none" />
<polyline points="511.5,463.5,426.5,378.5,424.0,378.5,424.0,511.5" stroke="black" stroke-width="1" fill="none" />
<polyline points="511.5,439.5,447.5,375.5" stroke="black" stroke-width="1" fill="none" />
<polyline points="441.0,377.0,511.5,447.5" stroke="black" stroke-width="1" fill="none" />
<polyline points="511.5,455.5,434.0,378.0,436.5,376.0,511.5,376.0" stroke="black" stroke-width="1" fill="none" />
<polyline points="511.5,400.0,116.0,400.0,117.5,402.5,121.0,399.0" stroke="black" stroke-width="1" fill="none" />
<polyline points="116.0,396.0,119.0,393.0,115.5,395.5,231.5,511.5" stroke="black" stroke-width="1" fill="none" />
<polyline points="160.5,511.5,268.5,403.5,270.0,402.0,273.5,398.5,272.0,398.0,272.0,511.5" stroke="black" stroke-width="1" fill="none" />
<polyline points="159.5,511.5,73.0,425.0,72.0,424.5,72.0,511.5,72.5,511.5,230.0,354.0,230.5,353.5,232.0,352.0" stroke="black" stroke-width="1" fill="none" />
<polyline points="233.0,367.0,88.5,511.5" stroke="black" stroke-width="1" fill="none" />
<polyline points="80.5,511.5,231.5,360.5" stroke="black" stroke-width="1" fill="none" />
<polyline points="236.5,371.5,96.5,511.5" stroke="black" stroke-width="1" fill="none" />
<polyline points="104.5,511.5,239.0,377.0,240.5,375.5,241.0,375.0" stroke="black" stroke-width="1" fill="none" />
<polyline points="245.5,378.5,246.0,378.0" stroke="black" stroke-width="1" fill="none" />
<polyline points="252.0,380.0,252.5,379.5,255.0,377.0,257.5,374.5" stroke="black" stroke-width="1" fill="none" />
<polyline points="254.0,370.0,255.5,368.5,256.0,368.5,256.0,511.5" stroke="black" stroke-width="1" fill="none" />
<polyline points="152.5,511.5,265.0,399.0,264.0,398.5,264.0,511.5" stroke="black" stroke-width="1" fill="none" />
<polyline points="151.5,511.5,67.0,427.0,67.5,428.5,70.0,426.0,65.0,424.0,511.5,424.0" stroke="black" stroke-width="1" fill="none" />
<polyline points="511.5,480.0,0.0,480.0,0.0,480.0,31.5,511.5,32.5,511.5,228.0,316.0" stroke="black" stroke-width="1" fill="none" />
<polyline points="236.0,324.0,48.5,511.5" stroke="black" stroke-width="1" fill="none" />
<polyline points="40.5,511.5,232.0,320.0" stroke="black" stroke-width="1" fill="none" />
<polyline points="232.0,312.0,0.0,80.0,0.0,80.0,511.5,80.0" stroke="black" stroke-width="1" fill="none" />
<polyline points="511.5,64.5,389.5,186.5,388.0,188.0,378.5,197.5,377.5,198.5,376.0,200.0,374.0,202.0,372.5,203.5,369.5,206.5,369.0,207.0" stroke="black" stroke-width="1" fill="none" />
<polyline points="364.5,203.5,365.5,202.5,362.0,206.0,361.5,206.5" stroke="black" stroke-width="1" fill="none" />
<polyline points="355.0,205.0,354.5,205.5,351.5,208.5,350.5,209.5,349.0,211.0,348.5,211.5" stroke="black" stroke-width="1" fill="none" />
<polyline points="339.5,212.5,339.0,213.0" stroke="black" stroke-width="1" fill="none" />
<polyline points="341.0,203.0,342.0,202.0" stroke="black" stroke-width="1" fill="none" />
<polyline points="336.0,200.0,340.5,195.5,341.0,195.0,511.5,24.5" stroke="black" stroke-width="1" fill="none" />
<polyline points="511.5,48.5,375.0,185.0,374.5,185.5,371.5,188.5,371.0,189.0,368.0,192.0,366.5,193.5,365.5,194.5,364.0,196.0,362.5,197.5" stroke="black" stroke-width="1" fill="none" />
<polyline points="357.5,194.5,361.0,191.0,362.5,189.5,364.0,188.0,365.5,186.5,511.5,40.5" stroke="black" stroke-width="1" fill="none" />
<polyline points="511.5,56.5,386.0,182.0,385.5,182.5,379.0,189.0,378.0,190.0,376.5,191.5,375.0,193.0,374.0,194.0,372.5,195.5,372.0,196.0,371.5,196.5,371.0,197.0" stroke="black" stroke-width="1" fill="none" />
<polyline points="355.0,197.0,353.5,198.5" stroke="black" stroke-width="1" fill="none" />
<polyline points="347.0,197.0,361.5,182.5,362.0,182.0,511.5,32.5" stroke="black" stroke-width="1" fill="none" />
<polyline points="511.5,16.5,340.5,187.5,339.0,189.0,338.5,189.5,337.5,190.5,328.5,199.5" stroke="black" stroke-width="1" fill="none" />
<polyline points="333.0,203.0,335.0,201.0,331.5,204.5,330.5,205.5,329.5,206.5,327.5,208.5,325.0,211.0,324.5,211.5" stroke="black" stroke-width="1" fill="none" />
<polyline points="328.0,216.0,327.0,217.0" stroke="black" stroke-width="1" fill="none" />
<polyline points="319.0,209.0,318.5,209.5,322.0,206.0,323.5,204.5,324.0,204.0,325.0,203.0" stroke="black" stroke-width="1" fill="none" />
<polyline points="318.0,202.0,327.0,193.0,327.5,192.5,341.5,178.5,342.5,177.5,511.5,8.5,511.5,7.5,504.0,0.0" stroke="black" stroke-width="1" fill="none" />
<polyline points="496.0,0.0,496.0,215.0" stroke="black" stroke-width="1" fill="none" />
<polyline points="511.5,159.5,352.0,0.0,352.0,0.0,352.0,239.0,356.0,236.0,359.5,232.5,357.0,237.0,354.0,234.0,353.0,233.0,351.5,231.5,349.5,234.5,346.0,238.0,350.5,238.5,112.0,0.0,112.0,0.0,112.0,360.5,114.5,357.5,216.0,256.0,216.5,255.5,221.0,251.0,222.0,250.0,246.0,226.0,247.5,224.5,260.5,211.5,261.0,211.0,262.5,209.5,263.0,209.0,472.0,0.0,472.0,0.0,472.0,218.0" stroke="black" stroke-width="1" fill="none" />
<polyline points="507.5,211.5,296.0,0.0,296.0,0.0,296.0,247.5,297.5,246.5,300.5,243.5" stroke="black" stroke-width="1" fill="none" />
<polyline points="307.5,244.5,311.0,241.0" stroke="black" stroke-width="1" fill="none" />
<polyline points="317.5,242.5,319.5,240.5" stroke="black" stroke-width="1" fill="none" />
<polyline points="325.5,242.5,329.5,238.5" stroke="black" stroke-width="1" fill="none" />
<polyline points="336.0,240.0,339.0,237.0,340.0,236.0,343.0,239.0" stroke="black" stroke-width="1" fill="none" />
<polyline points="364.0,236.0,368.5,231.5,367.0,231.0,370.5,234.5,374.0,234.0,377.5,230.5,378.5,234.5,372.0,228.0" stroke="black" stroke-width="1" fill="none" />
<polyline points="373.5,218.5,374.5,217.5" stroke="black" stroke-width="1" fill="none" />
<polyline points="316.0,204.0,315.5,204.5" stroke="black" stroke-width="1" fill="none" />
<polyline points="302.5,193.5,496.0,0.0,496.0,0.0,511.5,15.5" stroke="black" stroke-width="1" fill="none" />
<polyline points="511.5,23.5,488.0,0.0,488.0,0.0,488.0,215.5" stroke="black" stroke-width="1" fill="none" />
<polyline points="511.5,175.5,336.0,0.0,336.0,0.0,336.0,241.0" stroke="black" stroke-width="1" fill="none" />
<polyline points="370.5,226.5,144.0,0.0,144.0,0.0,144.0,511.5,144.5,511.5,261.0,395.0,263.0,399.0,375.5,511.5" stroke="black" stroke-width="1" fill="none" />
<polyline points="362.0,390.0,366.0,386.0,368.0,386.0,368.0,511.5" stroke="black" stroke-width="1" fill="none" />
<polyline points="247.5,511.5,119.5,383.5,117.0,387.0,115.0,389.0,114.0,392.0,264.0,392.0,260.0,388.0,257.0,391.0,256.0,392.0,136.5,511.5" stroke="black" stroke-width="1" fill="none" />
<polyline points="128.5,511.5,253.0,387.0,256.0,384.0,258.0,382.0" stroke="black" stroke-width="1" fill="none" />
<polyline points="247.5,384.5,120.5,511.5" stroke="black" stroke-width="1" fill="none" />
<polyline points="112.5,511.5,243.5,380.5" stroke="black" stroke-width="1" fill="none" />
<polyline points="258.0,378.0,244.0,364.0,243.5,363.5,0.0,120.0,0.0,120.0,511.5,120.0" stroke="black" stroke-width="1" fill="none" />
<polyline points="488.0,0.0,288.5,199.5" stroke="black" stroke-width="1" fill="none" />
<polyline points="294.5,201.5,299.0,197.0,300.0,196.0,301.0,195.0" stroke="black" stroke-width="1" fill="none" />
<polyline points="290.0,206.0,289.5,206.5,288.0,208.0,286.5,209.5,284.5,211.5,282.0,214.0,279.0,217.0,274.5,221.5,272.5,223.5,269.5,226.5,269.0,227.0,268.0,228.0,264.5,231.5,262.5,233.5" stroke="black" stroke-width="1" fill="none" />
<polyline points="260.5,227.5,261.5,226.5" stroke="black" stroke-width="1" fill="none" />
<polyline points="266.0,222.0,268.0,220.0,268.5,219.5,270.0,218.0,271.0,217.0,271.5,216.5,273.0,215.0,274.5,213.5,276.5,211.5,279.5,208.5,283.5,204.5,286.5,201.5" stroke="black" stroke-width="1" fill="none" />
<polyline points="281.0,199.0,301.5,178.5,302.0,178.0,480.0,0.0,480.0,0.0,480.0,217.5" stroke="black" stroke-width="1" fill="none" />
<polyline points="511.5,191.5,320.0,0.0,320.0,0.0,320.0,243.5" stroke="black" stroke-width="1" fill="none" />
<polyline points="339.5,235.5,104.0,0.0,104.0,0.0,104.0,330.5,104.0,331.0,104.0,335.0,102.5,336.0,246.5,336.0,245.0,339.0,244.0,340.0" stroke="black" stroke-width="1" fill="none" />
<polyline points="245.0,331.0,64.5,511.5" stroke="black" stroke-width="1" fill="none" />
<polyline points="56.5,511.5,243.5,324.5,243.5,323.5,241.0,321.0,241.5,318.5,242.5,317.5,240.0,318.5,240.0,511.5" stroke="black" stroke-width="1" fill="none" />
<polyline points="127.5,511.5,45.0,429.0,43.5,428.5,39.5,432.5,38.5,430.5,119.5,511.5" stroke="black" stroke-width="1" fill="none" />
<polyline points="100.0,436.0,116.5,419.5,115.5,419.5,207.5,511.5" stroke="black" stroke-width="1" fill="none" />
<polyline points="79.5,511.5,3.5,435.5,5.0,435.0,2.5,437.5,0.0,440.0,511.5,440.0" stroke="black" stroke-width="1" fill="none" />
<polyline points="511.5,487.5,406.0,382.0,408.0,381.0,408.0,511.5" stroke="black" stroke-width="1" fill="none" />
<polyline points="511.5,495.5,398.0,382.0" stroke="black" stroke-width="1" fill="none" />
<polyline points="392.5,383.5,390.5,385.5,392.0,384.0,511.5,503.5" stroke="black" stroke-width="1" fill="none" />
<polyline points="383.5,511.5,271.0,399.0" stroke="black" stroke-width="1" fill="none" />
<polyline points="277.5,397.5,391.5,511.5" stroke="black" stroke-width="1" fill="none" />
<polyline points="271.5,511.5,106.0,346.0,104.0,343.5,104.0,373.0,107.0,371.0,96.0,360.0,96.5,359.5,98.5,357.5,93.5,360.0,256.0,360.0,254.0,362.0,253.0,363.0,251.5,363.5,256.0,368.0" stroke="black" stroke-width="1" fill="none" />
<polyline points="253.5,357.5,251.5,355.5,248.0,354.5,248.0,511.5" stroke="black" stroke-width="1" fill="none" />
<polyline points="135.5,511.5,52.5,428.5,51.5,428.5,49.0,431.0,48.0,428.5,48.0,511.5" stroke="black" stroke-width="1" fill="none" />
<polyline points="24.5,511.5,99.5,436.5" stroke="black" stroke-width="1" fill="none" />
<polyline points="100.5,427.5,89.5,438.5,89.0,439.0,16.5,511.5" stroke="black" stroke-width="1" fill="none" />
<polyline points="8.5,511.5,82.5,437.5,85.5,434.5,87.0,433.0,91.0,429.0,92.5,427.5,95.5,424.5,98.0,422.0,96.0,422.0,96.0,511.5" stroke="black" stroke-width="1" fill="none" />
<polyline points="57.0,455.0,74.5,437.5,78.0,434.0,78.5,433.5" stroke="black" stroke-width="1" fill="none" />
<polyline points="77.5,426.5,79.5,424.5,80.0,424.5,80.0,511.5" stroke="black" stroke-width="1" fill="none" />
<polyline points="56.0,456.0,0.5,511.5" stroke="black" stroke-width="1" fill="none" />
<polyline points="7.5,511.5,0.0,504.0,0.0,504.0,511.5,504.0" stroke="black" stroke-width="1" fill="none" />
<polyline points="407.5,511.5,292.0,396.0,291.5,396.5,289.5,398.5,288.0,396.5,288.0,511.5" stroke="black" stroke-width="1" fill="none" />
<polyline points="298.5,397.5,301.5,394.5,304.0,394.5,304.0,511.5" stroke="black" stroke-width="1" fill="none" />
<polyline points="307.5,396.5,311.0,393.0,312.0,392.5,312.0,511.5" stroke="black" stroke-width="1" fill="none" />
<polyline points="199.5,511.5,108.5,420.5,108.0,420.0,101.5,426.5,101.5,421.5,191.5,511.5" stroke="black" stroke-width="1" fill="none" />
<polyline points="87.5,511.5,9.5,433.5,8.0,433.0,8.0,511.5" stroke="black" stroke-width="1" fill="none" />
<polyline points="0.0,504.0,58.0,446.0,59.0,445.0,60.0,444.0,60.5,443.5,63.0,441.0" stroke="black" stroke-width="1" fill="none" />
<polyline points="67.5,436.5,68.5,435.5" stroke="black" stroke-width="1" fill="none" />
<polyline points="64.0,426.5,64.0,511.5" stroke="black" stroke-width="1" fill="none" />
<polyline points="15.5,511.5,0.0,496.0,0.0,496.0,511.5,496.0" stroke="black" stroke-width="1" fill="none" />
<polyline points="415.5,511.5,299.0,395.0,296.0,394.5,296.0,511.5" stroke="black" stroke-width="1" fill="none" />
<polyline points="183.5,511.5,94.5,422.5,89.5,422.5,85.5,426.5,87.0,423.0,175.5,511.5" stroke="black" stroke-width="1" fill="none" />
<polyline points="71.5,511.5,0.0,440.0,0.0,435.0,0.0,511.5" stroke="black" stroke-width="1" fill="none" />
<polyline points="0.0,496.0,51.0,445.0,52.0,444.0,57.0,439.0" stroke="black" stroke-width="1" fill="none" />
<polyline points="57.0,431.0,61.5,426.5,59.0,427.0,143.5,511.5" stroke="black" stroke-width="1" fill="none" />
<polyline points="47.5,511.5,0.0,464.0,0.0,464.0,511.5,464.0" stroke="black" stroke-width="1" fill="none" />
<polyline points="431.5,511.5,313.0,393.0,317.5,394.5,319.5,392.5,320.0,392.5,320.0,511.5" stroke="black" stroke-width="1" fill="none" />
<polyline points="326.0,394.0,329.5,390.5,328.0,390.5,328.0,511.5" stroke="black" stroke-width="1" fill="none" />
<polyline points="215.5,511.5,120.5,416.5,121.0,415.0,222.0,314.0" stroke="black" stroke-width="1" fill="none" />
<polyline points="222.0,306.0,223.0,305.0,224.0,304.0,224.5,303.5,220.5,307.5,123.5,404.5,123.0,405.0,119.5,408.5,117.0,408.0,511.5,408.0" stroke="black" stroke-width="1" fill="none" />
<polyline points="511.5,448.0,0.0,448.0,0.0,448.0,63.5,511.5" stroke="black" stroke-width="1" fill="none" />
<polyline points="23.5,511.5,0.0,488.0,0.0,488.0,511.5,488.0" stroke="black" stroke-width="1" fill="none" />
<polyline points="423.5,511.5,306.5,394.5,305.0,392.0,511.5,392.0" stroke="black" stroke-width="1" fill="none" />
<polyline points="511.5,416.0,112.0,416.0,112.0,420.0,112.0,511.5" stroke="black" stroke-width="1" fill="none" />
<polyline points="39.5,511.5,0.0,472.0,0.0,472.0,511.5,472.0" stroke="black" stroke-width="1" fill="none" />
<polyline points="439.5,511.5,321.0,393.0" stroke="black" stroke-width="1" fill="none" />
<polyline points="327.0,391.0,447.5,511.5" stroke="black" stroke-width="1" fill="none" />
<polyline points="319.5,511.5,0.0,192.0,0.0,192.0,511.5,192.0" stroke="black" stroke-width="1" fill="none" />
<polyline points="511.5,111.5,400.0,0.0,400.0,0.0,400.0,230.5" stroke="black" stroke-width="1" fill="none" />
<polyline points="435.0,219.0,439.5,223.5" stroke="black" stroke-width="1" fill="none" />
<polyline points="511.5,95.5,416.0,0.0,416.0,0.0,416.0,228.0" stroke="black" stroke-width="1" fill="none" />
<polyline points="511.5,151.5,360.0,0.0,360.0,0.0,360.0,237.0" stroke="black" stroke-width="1" fill="none" />
<polyline points="426.0,226.0,200.0,0.0,200.0,0.0,200.0,511.5" stroke="black" stroke-width="1" fill="none" />
<polyline points="95.5,511.5,17.0,433.0,16.0,433.0,16.0,511.5" stroke="black" stroke-width="1" fill="none" />
<polyline points="0.0,488.0,44.0,444.0,45.0,443.0,46.5,441.5" stroke="black" stroke-width="1" fill="none" />
<polyline points="36.0,444.0,0.0,480.0" stroke="black" stroke-width="1" fill="none" />
<polyline points="0.0,472.0,20.5,451.5,21.0,451.0,22.5,449.5,25.0,447.0,29.0,443.0,31.5,440.5,32.5,439.5" stroke="black" stroke-width="1" fill="none" />
<polyline points="31.0,433.0,33.5,430.5,32.0,431.0,32.0,511.5" stroke="black" stroke-width="1" fill="none" />
<polyline points="0.0,464.0,14.5,449.5,15.0,449.0,16.0,448.0,16.5,447.5,18.0,446.0,14.0,442.0,13.5,442.5" stroke="black" stroke-width="1" fill="none" />
<polyline points="12.0,436.0,15.0,433.0" stroke="black" stroke-width="1" fill="none" />
<polyline points="21.0,435.0,24.5,431.5,24.0,431.0,24.0,511.5" stroke="black" stroke-width="1" fill="none" />
<polyline points="55.5,511.5,0.0,456.0,0.0,456.0,511.5,456.0" stroke="black" stroke-width="1" fill="none" />
<polyline points="455.5,511.5,338.0,394.0,336.0,392.0,337.5,390.5,336.0,390.5,336.0,511.5" stroke="black" stroke-width="1" fill="none" />
<polyline points="344.0,392.0,348.0,388.0,348.5,388.5,471.5,511.5" stroke="black" stroke-width="1" fill="none" />
<polyline points="335.5,511.5,0.0,176.0,0.0,176.0,511.5,176.0" stroke="black" stroke-width="1" fill="none" />
<polyline points="511.5,31.5,480.0,0.0" stroke="black" stroke-width="1" fill="none" />
<polyline points="472.0,0.0,511.5,39.5" stroke="black" stroke-width="1" fill="none" />
<polyline points="511.5,47.5,464.0,0.0,464.0,0.0,464.0,219.5" stroke="black" stroke-width="1" fill="none" />
<polyline points="511.5,79.5,432.0,0.0,432.0,0.0,432.0,225.0" stroke="black" stroke-width="1" fill="none" />
<polyline points="511.5,119.5,392.0,0.0,392.0,0.0,392.0,232.0" stroke="black" stroke-width="1" fill="none" />
<polyline points="487.5,215.5,272.0,0.0,272.0,0.0,272.0,252.0,269.0,251.0,273.0,247.0" stroke="black" stroke-width="1" fill="none" />
<polyline points="277.5,250.5,281.5,246.5" stroke="black" stroke-width="1" fill="none" />
<polyline points="287.5,248.5,290.5,245.5,292.0,244.0,295.5,247.5" stroke="black" stroke-width="1" fill="none" />
<polyline points="282.5,229.5,283.5,228.5" stroke="black" stroke-width="1" fill="none" />
<polyline points="277.0,235.0,276.0,236.0" stroke="black" stroke-width="1" fill="none" />
<polyline points="263.0,249.0,259.0,253.0" stroke="black" stroke-width="1" fill="none" />
<polyline points="252.5,251.5,249.0,255.0" stroke="black" stroke-width="1" fill="none" />
<polyline points="244.5,251.5,238.5,257.5,234.5,261.5,231.5,264.5,230.0,266.0,228.0,268.0,225.5,270.5,224.0,272.0" stroke="black" stroke-width="1" fill="none" />
<polyline points="229.5,274.5,231.0,273.0,233.5,270.5,236.5,267.5" stroke="black" stroke-width="1" fill="none" />
<polyline points="237.5,274.5,234.5,277.5,238.5,281.5,236.5,283.5,240.0,285.0,240.0,303.0" stroke="black" stroke-width="1" fill="none" />
<polyline points="240.0,296.0,240.5,295.5,238.5,294.5,242.0,298.0" stroke="black" stroke-width="1" fill="none" />
<polyline points="238.0,290.0,240.0,288.0" stroke="black" stroke-width="1" fill="none" />
<polyline points="233.0,297.0,234.0,298.0" stroke="black" stroke-width="1" fill="none" />
<polyline points="217.5,302.5,132.5,387.5,132.0,388.0,125.5,394.5" stroke="black" stroke-width="1" fill="none" />
<polyline points="118.0,406.0,223.5,511.5" stroke="black" stroke-width="1" fill="none" />
<polyline points="103.5,511.5,23.5,431.5" stroke="black" stroke-width="1" fill="none" />
<polyline points="31.0,431.0,111.5,511.5" stroke="black" stroke-width="1" fill="none" />
<polyline points="167.5,511.5,80.5,424.5" stroke="black" stroke-width="1" fill="none" />
<polyline points="88.0,422.0,88.0,511.5" stroke="black" stroke-width="1" fill="none" />
<polyline points="176.0,511.5,176.0,0.0,176.0,0.0,405.0,229.0" stroke="black" stroke-width="1" fill="none" />
<polyline points="289.5,214.5,288.0,216.0" stroke="black" stroke-width="1" fill="none" />
<polyline points="277.0,203.0,280.0,200.0,276.0,204.0,248.5,231.5" stroke="black" stroke-width="1" fill="none" />
<polyline points="253.5,234.5,254.5,233.5,255.0,233.0,256.0,232.0" stroke="black" stroke-width="1" fill="none" />
<polyline points="251.5,236.5,250.0,238.0,249.0,239.0,248.5,239.5,246.0,242.0,245.0,243.0" stroke="black" stroke-width="1" fill="none" />
<polyline points="243.0,237.0,246.5,233.5" stroke="black" stroke-width="1" fill="none" />
<polyline points="239.5,240.5,228.5,251.5" stroke="black" stroke-width="1" fill="none" />
<polyline points="225.5,278.5,225.0,279.0,223.0,281.0,221.5,282.5,220.0,284.0,129.0,375.0" stroke="black" stroke-width="1" fill="none" />
<polyline points="132.0,380.0,217.0,295.0" stroke="black" stroke-width="1" fill="none" />
<polyline points="215.5,280.5,220.5,275.5" stroke="black" stroke-width="1" fill="none" />
<polyline points="214.0,282.0,127.0,369.0,123.0,365.0,235.5,252.5" stroke="black" stroke-width="1" fill="none" />
<polyline points="227.0,253.0,119.5,360.5" stroke="black" stroke-width="1" fill="none" />
<polyline points="119.5,367.5,263.5,511.5" stroke="black" stroke-width="1" fill="none" />
<polyline points="239.5,511.5,113.5,385.5,112.5,384.0,262.5,384.0" stroke="black" stroke-width="1" fill="none" />
<polyline points="262.0,398.0,0.0,136.0,0.0,136.0,511.5,136.0" stroke="black" stroke-width="1" fill="none" />
<polyline points="464.0,0.0,278.0,186.0,277.5,186.5,259.0,205.0,258.5,205.5,246.5,217.5,245.0,219.0,108.5,355.5" stroke="black" stroke-width="1" fill="none" />
<polyline points="106.0,350.0,110.5,345.5,110.0,342.0,279.5,511.5" stroke="black" stroke-width="1" fill="none" />
<polyline points="255.5,511.5,122.5,378.5" stroke="black" stroke-width="1" fill="none" />
<polyline points="115.0,381.0,113.5,382.5,115.5,379.5,111.5,375.5,110.5,376.0,260.5,376.0" stroke="black" stroke-width="1" fill="none" />
<polyline points="260.5,388.5,0.0,128.0,0.0,128.0,511.5,128.0" stroke="black" stroke-width="1" fill="none" />
<polyline points="511.5,55.5,456.0,0.0,456.0,0.0,456.0,221.5" stroke="black" stroke-width="1" fill="none" />
<polyline points="511.5,87.5,424.0,0.0,424.0,0.0,424.0,226.0" stroke="black" stroke-width="1" fill="none" />
<polyline points="511.5,127.5,384.0,0.0,384.0,0.0,384.0,233.0" stroke="black" stroke-width="1" fill="none" />
<polyline points="511.5,167.5,344.0,0.0,344.0,0.0,344.0,239.5" stroke="black" stroke-width="1" fill="none" />
<polyline points="476.5,212.5,264.0,0.0,264.0,0.0,264.0,254.0" stroke="black" stroke-width="1" fill="none" />
<polyline points="351.0,231.0,120.0,0.0,120.0,0.0,120.0,511.5" stroke="black" stroke-width="1" fill="none" />
<polyline points="208.0,511.5,208.0,0.0,208.0,0.0,428.0,220.0" stroke="black" stroke-width="1" fill="none" />
<polyline points="511.5,103.5,408.0,0.0,408.0,0.0,408.0,228.5" stroke="black" stroke-width="1" fill="none" />
<polyline points="511.5,135.5,376.0,0.0,376.0,0.0,376.0,234.5" stroke="black" stroke-width="1" fill="none" />
<polyline points="511.5,183.5,328.0,0.0,328.0,0.0,328.0,243.0" stroke="black" stroke-width="1" fill="none" />
<polyline points="453.5,221.5,232.0,0.0,232.0,0.0,232.0,511.5" stroke="black" stroke-width="1" fill="none" />
<polyline points="287.5,511.5,112.0,336.0" stroke="black" stroke-width="1" fill="none" />
<polyline points="114.5,341.5,456.0,0.0" stroke="black" stroke-width="1" fill="none" />
<polyline points="448.0,0.0,448.0,222.0" stroke="black" stroke-width="1" fill="none" />
<polyline points="511.5,143.5,368.0,0.0,368.0,0.0,368.0,236.5" stroke="black" stroke-width="1" fill="none" />
<polyline points="511.5,207.5,304.0,0.0,304.0,0.0,304.0,247.0" stroke="black" stroke-width="1" fill="none" />
<polyline points="414.5,222.5,192.0,0.0,192.0,0.0,192.0,511.5" stroke="black" stroke-width="1" fill="none" />
<polyline points="295.5,511.5,111.0,327.0" stroke="black" stroke-width="1" fill="none" />
<polyline points="116.0,324.0,440.0,0.0,440.0,0.0,440.0,224.0" stroke="black" stroke-width="1" fill="none" />
<polyline points="511.5,199.5,312.0,0.0,312.0,0.0,312.0,245.5" stroke="black" stroke-width="1" fill="none" />
<polyline points="412.0,228.0,184.0,0.0,184.0,0.0,184.0,511.5" stroke="black" stroke-width="1" fill="none" />
<polyline points="303.5,511.5,93.0,301.0,93.0,299.0,96.5,295.5,97.5,294.5,392.0,0.0" stroke="black" stroke-width="1" fill="none" />
<polyline points="432.0,0.0,117.0,315.0,115.5,316.5,115.0,317.0" stroke="black" stroke-width="1" fill="none" />
<polyline points="110.5,313.5,424.0,0.0" stroke="black" stroke-width="1" fill="none" />
<polyline points="416.0,0.0,106.5,309.5" stroke="black" stroke-width="1" fill="none" />
<polyline points="105.0,303.0,408.0,0.0" stroke="black" stroke-width="1" fill="none" />
<polyline points="400.0,0.0,99.5,300.5,97.5,302.5,94.5,305.5,92.5,304.0,243.5,304.0" stroke="black" stroke-width="1" fill="none" />
<polyline points="241.0,345.0,0.0,104.0,0.0,104.0,511.5,104.0" stroke="black" stroke-width="1" fill="none" />
<polyline points="511.5,63.5,448.0,0.0,448.0,0.0,117.5,330.5,117.0,331.0,116.5,331.5" stroke="black" stroke-width="1" fill="none" />
<polyline points="108.0,324.0,105.5,321.5,101.5,322.5,100.0,324.0,98.5,322.5,102.5,326.5,99.0,328.0,245.5,328.0" stroke="black" stroke-width="1" fill="none" />
<polyline points="245.5,341.5,0.0,96.0,0.0,96.0,511.5,96.0" stroke="black" stroke-width="1" fill="none" />
<polyline points="511.5,71.5,440.0,0.0" stroke="black" stroke-width="1" fill="none" />
<polyline points="384.0,0.0,91.5,292.5,90.0,290.0,311.5,511.5" stroke="black" stroke-width="1" fill="none" />
<polyline points="327.5,511.5,0.0,184.0,0.0,184.0,511.5,184.0" stroke="black" stroke-width="1" fill="none" />
<polyline points="501.0,213.0,288.0,0.0,288.0,0.0,288.0,249.5" stroke="black" stroke-width="1" fill="none" />
<polyline points="392.0,232.0,160.0,0.0,160.0,0.0,160.0,511.5" stroke="black" stroke-width="1" fill="none" />
<polyline points="216.0,511.5,216.0,0.0,216.0,0.0,434.5,218.5" stroke="black" stroke-width="1" fill="none" />
<polyline points="494.5,214.5,280.0,0.0,280.0,0.0,280.0,251.0" stroke="black" stroke-width="1" fill="none" />
<polyline points="365.5,229.5,136.0,0.0,136.0,0.0,136.0,511.5" stroke="black" stroke-width="1" fill="none" />
<polyline points="168.0,511.5,168.0,0.0,168.0,0.0,398.0,230.0" stroke="black" stroke-width="1" fill="none" />
<polyline points="473.5,217.5,256.0,0.0,256.0,0.0,256.0,255.5" stroke="black" stroke-width="1" fill="none" />
<polyline points="337.0,241.0,96.0,0.0,96.0,0.0,96.0,315.5,98.0,318.0,100.0,316.0,101.5,317.5,96.0,312.0,96.5,311.5,98.5,309.5,94.5,312.0,245.0,312.0" stroke="black" stroke-width="1" fill="none" />
<polyline points="245.0,333.0,0.0,88.0,0.0,88.0,511.5,88.0" stroke="black" stroke-width="1" fill="none" />
<polyline points="376.0,0.0,90.0,286.0,89.0,288.0,243.0,288.0" stroke="black" stroke-width="1" fill="none" />
<polyline points="289.0,249.0,40.0,0.0,40.0,0.0,40.0,292.0,36.5,291.5,41.0,287.0" stroke="black" stroke-width="1" fill="none" />
<polyline points="46.5,289.5,50.5,285.5" stroke="black" stroke-width="1" fill="none" />
<polyline points="47.0,281.0,49.0,279.0,51.5,276.5,328.0,0.0" stroke="black" stroke-width="1" fill="none" />
<polyline points="368.0,0.0,85.0,283.0" stroke="black" stroke-width="1" fill="none" />
<polyline points="75.0,285.0,360.0,0.0" stroke="black" stroke-width="1" fill="none" />
<polyline points="352.0,0.0,80.5,271.5,80.0,272.0,72.0,280.0,71.5,280.5,66.5,285.5" stroke="black" stroke-width="1" fill="none" />
<polyline points="63.0,281.0,344.0,0.0" stroke="black" stroke-width="1" fill="none" />
<polyline points="336.0,0.0,61.5,274.5,57.5,278.5,57.0,279.0,56.0,280.0,55.0,281.0" stroke="black" stroke-width="1" fill="none" />
<polyline points="61.0,283.0,56.5,287.5" stroke="black" stroke-width="1" fill="none" />
<polyline points="46.0,274.0,320.0,0.0" stroke="black" stroke-width="1" fill="none" />
<polyline points="312.0,0.0,44.5,267.5,44.0,268.0,37.5,274.5,36.0,276.0,33.0,279.0" stroke="black" stroke-width="1" fill="none" />
<polyline points="32.5,271.5,33.0,271.0,33.5,270.5,38.0,266.0,38.5,265.5,304.0,0.0" stroke="black" stroke-width="1" fill="none" />
<polyline points="296.0,0.0,34.0,262.0,33.0,263.0,25.0,271.0,23.0,273.0,18.0,278.0,17.5,278.5,16.5,279.5,15.0,281.0,14.0,282.0" stroke="black" stroke-width="1" fill="none" />
<polyline points="11.0,277.0,13.0,275.0,13.5,274.5,16.5,271.5,17.0,271.0,288.0,0.0" stroke="black" stroke-width="1" fill="none" />
<polyline points="280.0,0.0,4.5,275.5,3.0,277.0,0.0,280.0,0.0,280.0,241.0,280.0" stroke="black" stroke-width="1" fill="none" />
<polyline points="291.5,243.5,48.0,0.0,48.0,0.0,48.0,290.5" stroke="black" stroke-width="1" fill="none" />
<polyline points="40.5,279.5,41.0,279.0" stroke="black" stroke-width="1" fill="none" />
<polyline points="31.5,288.5,28.5,291.5" stroke="black" stroke-width="1" fill="none" />
<polyline points="22.5,289.5,18.5,293.5" stroke="black" stroke-width="1" fill="none" />
<polyline points="12.0,292.0,8.0,296.0" stroke="black" stroke-width="1" fill="none" />
<polyline points="2.5,293.5,0.0,296.0,0.0,296.0,23.0,296.0" stroke="black" stroke-width="1" fill="none" />
<polyline points="6.5,281.5,9.0,279.0" stroke="black" stroke-width="1" fill="none" />
<polyline points="0.0,280.0,15.0,295.0" stroke="black" stroke-width="1" fill="none" />
<polyline points="1.0,297.0,0.0,296.0,0.0,298.5,0.0,0.0,0.0,0.0,255.0,255.0" stroke="black" stroke-width="1" fill="none" />
<polyline points="330.0,242.0,88.0,0.0,88.0,0.0,88.0,284.5" stroke="black" stroke-width="1" fill="none" />
<polyline points="77.5,285.5,0.0,208.0,0.0,208.0,511.5,208.0" stroke="black" stroke-width="1" fill="none" />
<polyline points="467.5,219.5,248.0,0.0,248.0,0.0,248.0,256.0" stroke="black" stroke-width="1" fill="none" />
<polyline points="323.0,243.0,80.0,0.0,80.0,0.0,80.0,285.5" stroke="black" stroke-width="1" fill="none" />
<polyline points="70.0,286.0,0.0,216.0,0.0,216.0,488.5,216.0" stroke="black" stroke-width="1" fill="none" />
<polyline points="459.5,219.5,240.0,0.0,240.0,0.0,240.0,258.0" stroke="black" stroke-width="1" fill="none" />
<polyline points="316.5,244.5,72.0,0.0,72.0,0.0,72.0,286.5" stroke="black" stroke-width="1" fill="none" />
<polyline points="56.0,288.0,0.0,232.0,0.0,232.0,397.0,232.0" stroke="black" stroke-width="1" fill="none" />
<polyline points="384.5,232.5,152.0,0.0,152.0,0.0,152.0,511.5" stroke="black" stroke-width="1" fill="none" />
<polyline points="128.0,511.5,128.0,0.0,128.0,0.0,364.5,236.5" stroke="black" stroke-width="1" fill="none" />
<polyline points="309.0,245.0,64.0,0.0,64.0,0.0,64.0,288.0" stroke="black" stroke-width="1" fill="none" />
<polyline points="42.5,290.5,0.0,248.0,0.0,248.0,297.0,248.0" stroke="black" stroke-width="1" fill="none" />
<polyline points="303.0,247.0,56.0,0.0,56.0,0.0,56.0,289.5" stroke="black" stroke-width="1" fill="none" />
<polyline points="22.5,294.5,0.0,272.0,0.0,272.0,239.0,272.0" stroke="black" stroke-width="1" fill="none" />
<polyline points="281.5,249.5,32.0,0.0,32.0,0.0,32.0,293.5" stroke="black" stroke-width="1" fill="none" />
<polyline points="8.5,296.5,0.0,288.0,0.0,288.0,71.0,288.0" stroke="black" stroke-width="1" fill="none" />
<polyline points="50.0,290.0,0.0,240.0,0.0,240.0,347.5,240.0" stroke="black" stroke-width="1" fill="none" />
<polyline points="275.5,251.5,24.0,0.0,24.0,0.0,24.0,294.5" stroke="black" stroke-width="1" fill="none" />
<polyline points="0.0,272.0,272.0,0.0" stroke="black" stroke-width="1" fill="none" />
<polyline points="264.0,0.0,0.0,264.0,0.0,264.0,238.5,264.0" stroke="black" stroke-width="1" fill="none" />
<polyline points="268.0,252.0,16.0,0.0,16.0,0.0,16.0,296.0" stroke="black" stroke-width="1" fill="none" />
<polyline points="28.5,292.5,0.0,264.0" stroke="black" stroke-width="1" fill="none" />
<polyline points="0.0,256.0,257.0,256.0,261.5,253.5,8.0,0.0,8.0,0.0,8.0,297.0" stroke="black" stroke-width="1" fill="none" />
<polyline points="36.0,292.0,0.0,256.0,0.0,256.0,256.0,0.0" stroke="black" stroke-width="1" fill="none" />
<polyline points="248.0,0.0,0.0,248.0" stroke="black" stroke-width="1" fill="none" />
<polyline points="0.0,240.0,240.0,0.0" stroke="black" stroke-width="1" fill="none" />
<polyline points="232.0,0.0,0.0,232.0" stroke="black" stroke-width="1" fill="none" />
<polyline points="0.0,224.0,443.0,224.0" stroke="black" stroke-width="1" fill="none" />
<polyline points="486.0,368.0,495.5,368.0" stroke="black" stroke-width="1" fill="none" />
<polyline points="480.0,371.0,480.0,511.5" stroke="black" stroke-width="1" fill="none" />
<polyline points="343.5,511.5,0.0,168.0,0.0,168.0,511.5,168.0" stroke="black" stroke-width="1" fill="none" />
<polyline points="456.0,374.5,456.0,511.5" stroke="black" stroke-width="1" fill="none" />
<polyline points="351.5,511.5,0.0,160.0,0.0,160.0,511.5,160.0" stroke="black" stroke-width="1" fill="none" />
<polyline points="511.5,384.0,370.5,384.0,370.5,386.5,372.5,388.5,372.5,387.5,374.0,386.0,376.0,384.5,376.0,511.5" stroke="black" stroke-width="1" fill="none" />
<polyline points="354.5,389.5,355.5,388.5,356.5,388.5,479.5,511.5" stroke="black" stroke-width="1" fill="none" />
<polyline points="359.5,511.5,0.0,152.0,0.0,152.0,511.5,152.0" stroke="black" stroke-width="1" fill="none" />
<polyline points="429.5,376.0,423.0,376.0" stroke="black" stroke-width="1" fill="none" />
<polyline points="416.0,380.0,416.0,511.5" stroke="black" stroke-width="1" fill="none" />
<polyline points="367.5,511.5,0.0,144.0,0.0,144.0,511.5,144.0" stroke="black" stroke-width="1" fill="none" />
<polyline points="392.0,382.0,392.0,511.5" stroke="black" stroke-width="1" fill="none" />
<polyline points="463.5,511.5,342.0,390.0,344.0,388.5,344.0,511.5" stroke="black" stroke-width="1" fill="none" />
<polyline points="337.0,393.0,334.5,390.5" stroke="black" stroke-width="1" fill="none" />
<polyline points="352.0,388.5,352.0,511.5" stroke="black" stroke-width="1" fill="none" />
<polyline points="384.0,511.5,384.0,384.0,384.0,384.0,380.5,387.5,377.0,385.0,503.5,511.5" stroke="black" stroke-width="1" fill="none" />
<polyline points="487.5,511.5,362.5,386.5,360.0,386.5,360.0,511.5" stroke="black" stroke-width="1" fill="none" />
<polyline points="388.0,388.0,511.5,511.5" stroke="black" stroke-width="1" fill="none" />
<polyline points="386.5,386.5,384.5,384.5" stroke="black" stroke-width="1" fill="none" />
<polyline points="362.0,384.0,361.5,384.0,360.5,384.0,359.5,384.0" stroke="black" stroke-width="1" fill="none" />
<polyline points="280.0,396.5,280.0,511.5" stroke="black" stroke-width="1" fill="none" />
<polyline points="241.0,353.0,0.0,112.0,0.0,112.0,511.5,112.0" stroke="black" stroke-width="1" fill="none" />
<polyline points="224.0,0.0,0.0,224.0,0.0,224.0,63.5,287.5" stroke="black" stroke-width="1" fill="none" />
<polyline points="84.0,284.0,0.0,200.0,0.0,200.0,511.5,200.0" stroke="black" stroke-width="1" fill="none" />
<polyline points="231.0,303.0,0.0,72.0,0.0,72.0,511.5,72.0" stroke="black" stroke-width="1" fill="none" />
<polyline points="216.0,0.0,0.0,216.0" stroke="black" stroke-width="1" fill="none" />
<polyline points="0.0,208.0,208.0,0.0" stroke="black" stroke-width="1" fill="none" />
<polyline points="200.0,0.0,0.0,200.0" stroke="black" stroke-width="1" fill="none" />
<polyline points="0.0,192.0,192.0,0.0" stroke="black" stroke-width="1" fill="none" />
<polyline points="184.0,0.0,0.0,184.0" stroke="black" stroke-width="1" fill="none" />
<polyline points="0.0,176.0,176.0,0.0" stroke="black" stroke-width="1" fill="none" />
<polyline points="168.0,0.0,0.0,168.0" stroke="black" stroke-width="1" fill="none" />
<polyline points="0.0,160.0,160.0,0.0" stroke="black" stroke-width="1" fill="none" />
<polyline points="152.0,0.0,0.0,152.0" stroke="black" stroke-width="1" fill="none" />
<polyline points="0.0,144.0,144.0,0.0" stroke="black" stroke-width="1" fill="none" />
<polyline points="136.0,0.0,0.0,136.0" stroke="black" stroke-width="1" fill="none" />
<polyline points="0.0,128.0,128.0,0.0" stroke="black" stroke-width="1" fill="none" />
<polyline points="120.0,0.0,0.0,120.0" stroke="black" stroke-width="1" fill="none" />
<polyline points="0.0,112.0,112.0,0.0" stroke="black" stroke-width="1" fill="none" />
<polyline points="104.0,0.0,0.0,104.0" stroke="black" stroke-width="1" fill="none" />
<polyline points="0.0,96.0,96.0,0.0" stroke="black" stroke-width="1" fill="none" />
<polyline points="88.0,0.0,0.0,88.0" stroke="black" stroke-width="1" fill="none" />
<polyline points="0.0,80.0,80.0,0.0" stroke="black" stroke-width="1" fill="none" />
<polyline points="72.0,0.0,0.0,72.0" stroke="black" stroke-width="1" fill="none" />
<polyline points="0.0,64.0,511.5,64.0" stroke="black" stroke-width="1" fill="none" />
<polyline points="232.0,296.0,0.0,64.0,0.0,64.0,64.0,0.0" stroke="black" stroke-width="1" fill="none" />
<polyline points="56.0,0.0,0.0,56.0,0.0,56.0,511.5,56.0" stroke="black" stroke-width="1" fill="none" />
<polyline points="235.5,291.5,0.0,56.0" stroke="black" stroke-width="1" fill="none" />
<polyline points="0.0,48.0,511.5,48.0" stroke="black" stroke-width="1" fill="none" />
<polyline points="240.5,288.5,0.0,48.0,0.0,48.0,48.0,0.0" stroke="black" stroke-width="1" fill="none" />
<polyline points="40.0,0.0,0.0,40.0,0.0,40.0,511.5,40.0" stroke="black" stroke-width="1" fill="none" />
<polyline points="238.5,278.5,0.0,40.0" stroke="black" stroke-width="1" fill="none" />
<polyline points="0.0,32.0,511.5,32.0" stroke="black" stroke-width="1" fill="none" />
<polyline points="236.5,268.5,0.0,32.0,0.0,32.0,32.0,0.0" stroke="black" stroke-width="1" fill="none" />
<polyline points="24.0,0.0,0.0,24.0,0.0,24.0,511.5,24.0" stroke="black" stroke-width="1" fill="none" />
<polyline points="235.0,259.0,0.0,24.0" stroke="black" stroke-width="1" fill="none" />
<polyline points="0.0,16.0,511.5,16.0" stroke="black" stroke-width="1" fill="none" />
<polyline points="242.0,258.0,0.0,16.0,0.0,16.0,15.0,1.0" stroke="black" stroke-width="1" fill="none" />
<polyline points="4.5,3.5,0.0,8.0,0.0,8.0,511.5,8.0" stroke="black" stroke-width="1" fill="none" />
<polyline points="248.0,256.0,0.0,8.0" stroke="black" stroke-width="1" fill="none" />
<polyline points="91.0,296.0,243.5,296.0" stroke="black" stroke-width="1" fill="none" />
<polyline points="248.0,348.5,248.0,352.0" stroke="black" stroke-width="1" fill="none" />
<polyline points="112.0,369.0,112.0,380.5" stroke="black" stroke-width="1" fill="none" />
<polyline points="98.5,365.5,100.0,364.0,96.0,364.5,96.0,338.5,98.5,338.5,101.5,341.5,100.0,340.0,99.0,341.0,98.0,342.0,95.0,345.0,94.5,342.5,110.5,358.5" stroke="black" stroke-width="1" fill="none" />
<polyline points="97.5,350.5,95.0,353.0,92.5,352.0,254.0,352.0" stroke="black" stroke-width="1" fill="none" />
<polyline points="107.5,363.5,94.0,350.0" stroke="black" stroke-width="1" fill="none" />
<polyline points="92.5,344.0,248.0,344.0" stroke="black" stroke-width="1" fill="none" />
<polyline points="258.0,368.0,95.5,368.0" stroke="black" stroke-width="1" fill="none" />
<polyline points="97.0,320.0,245.0,320.0" stroke="black" stroke-width="1" fill="none" />
<polyline points="104.0,420.0,104.0,511.5" stroke="black" stroke-width="1" fill="none" />
<polyline points="56.0,511.5,56.0,426.5" stroke="black" stroke-width="1" fill="none" />
<polyline points="40.0,428.5,40.0,511.5" stroke="black" stroke-width="1" fill="none" />
<polyline points="0.0,456.0,6.5,449.5" stroke="black" stroke-width="1" fill="none" />
<polyline points="0.5,447.5,0.0,448.0" stroke="black" stroke-width="1" fill="none" />
<polyline points="0.0,432.0,511.5,432.0" stroke="black" stroke-width="1" fill="none" />
</svg>