<svg xmlns="http://www.w3.org/2000/svg" height="512px" width="512px" version="1.1"><polyline points="193.0,0.0,198.0,8.0,203.0,16.0,208.0,24.0,214.0,32.0,220.0,40.0,225.0,48.0,230.0,56.0,236.0,64.0,241.0,72.0,247.0,80.0,252.0,88.0,257.0,96.0,263.0,104.0,268.0,112.0,274.0,120.0,279.0,128.0,284.0,136.0,279.0,144.0,279.0,144.0" stroke="black" stroke-width="1" fill="none" />
<polyline points="287.0,140.0,292.0,148.0,297.0,156.0,303.0,164.0,308.0,172.0,314.0,180.0,319.0,188.0,324.0,196.0,330.0,204.0,335.0,212.0,340.0,220.0,346.0,228.0,351.0,236.0,357.0,244.0,362.0,252.0,367.0,260.0,370.0,268.0,359.0,276.0,346.0,284.0,335.0,292.0,324.0,300.0,312.0,308.0,301.0,316.0,290.0,324.0,279.0,332.0,277.0,333.0,285.0,328.0,293.0,322.0,301.0,316.0,309.0,311.0,317.0,305.0,325.0,299.0,333.0,293.0,341.0,288.0,349.0,283.0,357.0,277.0,365.0,272.0" stroke="black" stroke-width="1" fill="none" />
<polyline points="373.0,268.0,378.0,276.0,384.0,284.0,389.0,292.0,394.0,300.0,400.0,308.0,405.0,316.0,411.0,324.0,416.0,332.0,422.0,340.0,427.0,348.0,433.0,356.0,438.0,364.0,443.0,372.0,449.0,380.0,454.0,388.0,460.0,396.0,465.0,404.0,470.0,412.0,476.0,420.0,481.0,428.0,486.0,436.0,492.0,444.0,497.0,452.0,503.0,460.0,508.0,468.0" stroke="black" stroke-width="1" fill="none" />
<polyline points="502.0,410.0,496.0,401.0,490.0,398.0,487.0,388.0,483.0,382.0,478.0,379.0,474.0,376.0,470.0,364.0,464.0,361.0,462.0,350.0,456.0,343.0,452.0,335.0,446.0,328.0,444.0,323.0,436.0,318.0,436.0,312.0,428.0,308.0,423.0,295.0,420.0,296.0,422.0,291.0,414.0,287.0,408.0,278.0,406.0,275.0,401.0,268.0,401.0,262.0,397.0,255.0,390.0,252.0,386.0,245.0,386.0,239.0,380.0,231.0,372.0,226.0,370.0,221.0,366.0,216.0,367.0,210.0,364.0,210.0,361.0,203.0,356.0,196.0,348.0,190.0,343.0,182.0,337.0,174.0,332.0,166.0,326.0,158.0,321.0,150.0,315.0,142.0,311.0,134.0,305.0,126.0,304.0,118.0,294.0,107.0,291.0,99.0,286.0,92.0,281.0,85.0,273.0,74.0,268.0,67.0,265.0,61.0,256.0,55.0,253.0,47.0,250.0,39.0,245.0,38.0" stroke="black" stroke-width="1" fill="none" />
<polyline points="225.0,3.0,226.0,8.0,234.0,14.0,236.0,24.0,239.0,28.0,247.0,32.0,250.0,37.0,256.0,47.0,264.0,58.0,270.0,68.0,276.0,81.0,284.0,88.0,292.0,100.0,296.0,110.0,304.0,117.0,304.0,125.0,312.0,129.0,320.0,141.0,324.0,153.0,330.0,162.0,337.0,170.0,343.0,175.0,343.0,178.0" stroke="black" stroke-width="1" fill="none" />
<polyline points="346.0,187.0,354.0,191.0,358.0,197.0" stroke="black" stroke-width="1" fill="none" />
<polyline points="377.0,181.0,369.0,168.0,369.0,168.0,373.0,176.0" stroke="black" stroke-width="1" fill="none" />
<polyline points="390.0,193.0,391.0,197.0,395.0,205.0,402.0,213.0,407.0,221.0,410.0,222.0,402.0,212.0,394.0,204.0" stroke="black" stroke-width="1" fill="none" />
<polyline points="416.0,238.0,420.0,246.0,427.0,257.0,428.0,256.0,420.0,251.0,416.0,238.0" stroke="black" stroke-width="1" fill="none" />
<polyline points="411.0,276.0,414.0,284.0" stroke="black" stroke-width="1" fill="none" />
<polyline points="439.0,269.0,445.0,277.0,447.0,278.0,439.0,269.0" stroke="black" stroke-width="1" fill="none" />
<polyline points="434.0,310.0,436.0,318.0" stroke="black" stroke-width="1" fill="none" />
<polyline points="446.0,329.0,452.0,337.0,457.0,344.0,463.0,354.0,467.0,363.0" stroke="black" stroke-width="1" fill="none" />
<polyline points="490.0,393.0,496.0,401.0,501.0,409.0,501.0,417.0" stroke="black" stroke-width="1" fill="none" />
<polyline points="467.0,314.0,459.0,307.0" stroke="black" stroke-width="1" fill="none" />
<polyline points="502.0,224.0,494.0,214.0" stroke="black" stroke-width="1" fill="none" />
<polyline points="474.0,179.0,466.0,168.0,458.0,156.0,450.0,146.0,442.0,138.0,434.0,128.0" stroke="black" stroke-width="1" fill="none" />
<polyline points="393.0,71.0,398.0,72.0,403.0,80.0,409.0,88.0,415.0,96.0,420.0,104.0,426.0,112.0,432.0,120.0,435.0,125.0,437.0,128.0,439.0,136.0,445.0,139.0,450.0,147.0,453.0,150.0,455.0,158.0,460.0,161.0,462.0,163.0,464.0,171.0,469.0,174.0,473.0,178.0,475.0,186.0,480.0,194.0,485.0,196.0,489.0,201.0,491.0,209.0,497.0,213.0,500.0,217.0,502.0,224.0,507.0,227.0,510.0,231.0" stroke="black" stroke-width="1" fill="none" />
<polyline points="362.0,152.0,354.0,142.0,346.0,129.0" stroke="black" stroke-width="1" fill="none" />
<polyline points="330.0,111.0,322.0,98.0" stroke="black" stroke-width="1" fill="none" />
<polyline points="291.0,105.0,284.0,94.0,277.0,84.0,269.0,72.0" stroke="black" stroke-width="1" fill="none" />
<polyline points="305.0,64.0,307.0,72.0,312.0,80.0,315.0,82.0,321.0,95.0,325.0,103.0,329.0,110.0,334.0,118.0,343.0,121.0,346.0,129.0,349.0,137.0,355.0,145.0,362.0,153.0" stroke="black" stroke-width="1" fill="none" />
<polyline points="330.0,155.0,322.0,147.0,314.0,139.0" stroke="black" stroke-width="1" fill="none" />
<polyline points="335.0,51.0,340.0,59.0,346.0,67.0,352.0,75.0,358.0,83.0,362.0,91.0,369.0,95.0,377.0,107.0,385.0,119.0,393.0,131.0,401.0,143.0,409.0,154.0,417.0,166.0,425.0,179.0,433.0,190.0,441.0,201.0,449.0,213.0,457.0,225.0,465.0,236.0,473.0,248.0,481.0,260.0,489.0,272.0,497.0,282.0,505.0,294.0,506.0,303.0" stroke="black" stroke-width="1" fill="none" />
<polyline points="507.0,226.0,499.0,214.0,491.0,204.0,483.0,191.0,475.0,185.0,466.0,173.0,457.0,160.0,448.0,149.0,441.0,132.0,433.0,120.0,425.0,110.0,417.0,98.0,409.0,87.0,401.0,75.0,393.0,71.0,385.0,75.0,377.0,80.0,369.0,85.0,359.0,85.0,351.0,73.0,343.0,61.0,335.0,51.0" stroke="black" stroke-width="1" fill="none" />
<polyline points="316.0,22.0,308.0,11.0,300.0,1.0,300.0,0.0,305.0,8.0,311.0,16.0,316.0,24.0" stroke="black" stroke-width="1" fill="none" />
<polyline points="391.0,70.0,380.0,78.0,367.0,86.0,368.0,94.0,373.0,102.0,378.0,110.0,383.0,118.0,389.0,126.0,391.0,129.0,396.0,137.0,401.0,144.0,407.0,152.0,412.0,160.0,416.0,166.0,417.0,167.0,423.0,175.0,427.0,183.0,433.0,191.0,438.0,199.0,444.0,207.0,450.0,215.0,455.0,223.0,461.0,231.0,466.0,239.0,469.0,247.0,473.0,249.0,478.0,257.0,484.0,265.0,489.0,273.0,495.0,281.0,501.0,289.0,506.0,297.0" stroke="black" stroke-width="1" fill="none" />
<polyline points="509.0,422.0,506.0,420.0,503.0,412.0,493.0,405.0,490.0,398.0,487.0,389.0,483.0,387.0,476.0,380.0,472.0,371.0,468.0,366.0,461.0,358.0,457.0,350.0,454.0,346.0,448.0,338.0,443.0,330.0,442.0,322.0,436.0,321.0,433.0,313.0,428.0,305.0,425.0,305.0,425.0,297.0,419.0,296.0,418.0,289.0,413.0,287.0,408.0,279.0,402.0,271.0,397.0,263.0,393.0,255.0,386.0,247.0,380.0,239.0,375.0,231.0,372.0,223.0,368.0,219.0,365.0,216.0,359.0,208.0,354.0,200.0,350.0,192.0,346.0,184.0,343.0,178.0,338.0,169.0,333.0,162.0,329.0,155.0,323.0,146.0,317.0,138.0,312.0,130.0,301.0,121.0,297.0,113.0,292.0,107.0,287.0,99.0,282.0,91.0,275.0,83.0,272.0,77.0,267.0,69.0,262.0,61.0,260.0,55.0,250.0,46.0,245.0,38.0,243.0,36.0,243.0,28.0,235.0,24.0,230.0,16.0,230.0,8.0,222.0,4.0,224.0,2.0,220.0,1.0" stroke="black" stroke-width="1" fill="none" />
<polyline points="214.0,1.0,222.0,12.0,230.0,24.0,238.0,36.0,246.0,48.0,254.0,59.0,262.0,71.0,270.0,83.0,278.0,95.0,286.0,107.0,294.0,119.0,302.0,131.0,310.0,143.0,318.0,155.0,326.0,167.0,334.0,179.0,342.0,191.0,350.0,203.0,358.0,215.0,366.0,226.0,374.0,238.0,382.0,250.0,390.0,262.0,398.0,274.0,406.0,285.0,414.0,297.0,422.0,309.0,430.0,321.0,438.0,333.0,446.0,345.0,454.0,357.0,462.0,369.0,470.0,381.0,478.0,392.0,486.0,404.0,494.0,416.0,502.0,428.0,510.0,440.0" stroke="black" stroke-width="1" fill="none" />
<polyline points="246.0,299.0,238.0,287.0,230.0,275.0,222.0,262.0,214.0,252.0,214.0,252.0,219.0,260.0,224.0,268.0,231.0,276.0,236.0,284.0,241.0,292.0,246.0,300.0,252.0,308.0" stroke="black" stroke-width="1" fill="none" />
<polyline points="160.0,415.0,150.0,423.0,143.0,431.0,146.0,439.0,151.0,447.0,156.0,455.0,162.0,463.0,167.0,471.0,172.0,479.0,178.0,487.0,183.0,495.0,189.0,503.0,191.0,506.0,183.0,494.0,175.0,481.0,167.0,469.0,159.0,458.0,151.0,446.0,143.0,434.0" stroke="black" stroke-width="1" fill="none" />
<polyline points="187.0,507.0,181.0,499.0,176.0,491.0,171.0,483.0,165.0,475.0,160.0,467.0,154.0,459.0,149.0,451.0,144.0,443.0,138.0,435.0,133.0,427.0,127.0,419.0,122.0,411.0,117.0,403.0,111.0,395.0,106.0,387.0,100.0,379.0,95.0,371.0,90.0,363.0,84.0,355.0,79.0,347.0,73.0,339.0,68.0,331.0,63.0,323.0,57.0,315.0,51.0,307.0,46.0,299.0,43.0,298.0,30.0,306.0,17.0,314.0,4.0,322.0,5.0,322.0,13.0,317.0,21.0,311.0,29.0,307.0,37.0,302.0,45.0,298.0,53.0,308.0,61.0,320.0,69.0,331.0,77.0,343.0,85.0,355.0,93.0,367.0,101.0,379.0,109.0,390.0,117.0,402.0,125.0,414.0,133.0,426.0,141.0,438.0,149.0,450.0,157.0,461.0,165.0,473.0,173.0,485.0,181.0,497.0,189.0,509.0" stroke="black" stroke-width="1" fill="none" />
<polyline points="159.0,417.0,151.0,422.0,143.0,429.0,135.0,423.0,129.0,415.0,124.0,407.0,119.0,399.0,114.0,391.0,108.0,383.0,102.0,375.0,97.0,367.0,92.0,359.0,86.0,351.0,81.0,343.0,75.0,335.0,70.0,327.0,65.0,319.0,59.0,311.0,54.0,303.0,48.0,295.0" stroke="black" stroke-width="1" fill="none" />
<polyline points="40.0,295.0,27.0,303.0,15.0,311.0,3.0,319.0,5.0,317.0,13.0,312.0,21.0,307.0,29.0,302.0,37.0,297.0,51.0,297.0,59.0,310.0,67.0,322.0,75.0,333.0,83.0,345.0,91.0,357.0,99.0,369.0,107.0,381.0,115.0,393.0,123.0,404.0,131.0,416.0" stroke="black" stroke-width="1" fill="none" />
<polyline points="505.0,462.0,497.0,451.0,489.0,439.0,481.0,426.0,473.0,415.0,465.0,403.0,457.0,391.0,449.0,379.0,441.0,367.0,433.0,355.0,425.0,343.0,417.0,332.0,409.0,320.0,401.0,308.0,393.0,297.0,385.0,285.0,377.0,273.0,369.0,261.0,361.0,249.0,353.0,237.0,345.0,225.0,337.0,214.0,329.0,202.0,321.0,190.0,313.0,177.0,305.0,166.0,297.0,154.0,289.0,142.0,281.0,130.0,273.0,118.0,265.0,106.0,257.0,94.0,249.0,82.0,241.0,71.0,233.0,59.0,225.0,47.0,217.0,35.0,209.0,24.0,201.0,12.0,193.0,1.0" stroke="black" stroke-width="1" fill="none" />
<polyline points="213.0,0.0,218.0,8.0,224.0,16.0,229.0,24.0,235.0,32.0,240.0,40.0,245.0,48.0,251.0,56.0,256.0,64.0,262.0,72.0,267.0,80.0,272.0,88.0,278.0,96.0,283.0,104.0,288.0,112.0,294.0,120.0,299.0,128.0,305.0,136.0,310.0,144.0,315.0,152.0,321.0,160.0,326.0,168.0,331.0,176.0,336.0,184.0,342.0,192.0,347.0,200.0,353.0,208.0,358.0,216.0,363.0,224.0,369.0,232.0,374.0,240.0,380.0,248.0,385.0,256.0,390.0,264.0,396.0,272.0,401.0,280.0,407.0,288.0,412.0,296.0,418.0,304.0,423.0,312.0,429.0,320.0,434.0,328.0,439.0,336.0,445.0,344.0,450.0,352.0,456.0,360.0,461.0,368.0,466.0,376.0,472.0,384.0,477.0,392.0,482.0,400.0,488.0,408.0,493.0,416.0,499.0,424.0,504.0,432.0,509.0,440.0" stroke="black" stroke-width="1" fill="none" />
<polyline points="0.0,0.0,511.5,0.0,511.5,0.5,416.0,96.0,414.0,94.0,511.5,191.5" stroke="black" stroke-width="1" fill="none" />
<polyline points="511.5,208.5,502.0,218.0" stroke="black" stroke-width="1" fill="none" />
<polyline points="505.5,222.5,511.5,216.5" stroke="black" stroke-width="1" fill="none" />
<polyline points="511.5,224.5,508.5,227.5,510.0,230.0,511.5,231.5" stroke="black" stroke-width="1" fill="none" />
<polyline points="499.0,213.0,511.5,200.5" stroke="black" stroke-width="1" fill="none" />
<polyline points="511.5,192.5,495.5,208.5" stroke="black" stroke-width="1" fill="none" />
<polyline points="492.0,204.0,511.5,184.5" stroke="black" stroke-width="1" fill="none" />
<polyline points="511.5,176.5,489.0,199.0,490.5,202.5,511.5,223.5" stroke="black" stroke-width="1" fill="none" />
<polyline points="511.5,199.5,433.0,121.0,433.0,119.0,511.5,40.5" stroke="black" stroke-width="1" fill="none" />
<polyline points="511.5,80.5,449.5,142.5,450.5,146.5,451.0,147.0,452.0,148.0,511.5,207.5" stroke="black" stroke-width="1" fill="none" />
<polyline points="485.5,194.5,511.5,168.5" stroke="black" stroke-width="1" fill="none" />
<polyline points="511.5,160.5,482.5,189.5,480.0,192.0,480.0,193.0" stroke="black" stroke-width="1" fill="none" />
<polyline points="479.0,185.0,511.5,152.5" stroke="black" stroke-width="1" fill="none" />
<polyline points="511.5,144.5,476.0,180.0,472.0,179.0,472.0,181.0,471.5,175.5,511.5,215.5" stroke="black" stroke-width="1" fill="none" />
<polyline points="511.5,175.5,336.0,0.0,336.0,0.0,336.0,164.5,338.0,166.0,344.0,160.0,345.5,158.5,357.0,147.0" stroke="black" stroke-width="1" fill="none" />
<polyline points="359.0,161.0,351.5,168.5" stroke="black" stroke-width="1" fill="none" />
<polyline points="355.0,173.0,364.5,163.5" stroke="black" stroke-width="1" fill="none" />
<polyline points="367.5,168.5,357.5,178.5,356.5,179.5,351.0,185.0,347.0,189.0,344.0,192.0,341.5,189.5,358.0,206.0,359.0,207.0,360.0,208.0,360.0,208.0,356.5,211.5,357.5,213.5,375.0,231.0,375.5,232.5,372.5,235.5,373.5,237.5,392.5,256.5,392.5,255.5,389.0,259.0,390.5,262.5,410.0,282.0,411.5,284.5,408.0,288.0,407.5,287.5,424.5,304.5,425.0,305.0,426.5,306.5,427.5,307.5,428.5,308.5,430.0,306.0,430.5,305.5,431.5,304.5,438.0,298.0,439.0,297.0,450.0,286.0" stroke="black" stroke-width="1" fill="none" />
<polyline points="450.5,293.5,450.0,294.0" stroke="black" stroke-width="1" fill="none" />
<polyline points="458.0,302.0,448.5,311.5,447.0,313.0,441.5,318.5,441.5,321.5,442.0,322.0,440.0,322.5,440.0,324.0,440.0,326.5,440.0,337.0,440.0,336.0,441.0,337.0,441.5,337.5,460.5,356.5,460.5,355.5,456.5,359.5,456.5,360.5,475.5,379.5,476.0,380.0,479.0,383.0,479.5,384.5,476.0,388.0,473.5,385.5,492.5,404.5,492.5,403.5,489.0,407.0,488.5,408.5,489.5,409.5,490.5,410.5,511.5,431.5,511.5,432.5,508.0,436.0,505.5,433.5,511.5,439.5,511.5,440.5,511.0,441.0" stroke="black" stroke-width="1" fill="none" />
<polyline points="505.0,431.0,509.0,427.0,511.5,424.5,511.5,424.5,511.5,423.5,509.5,421.5,508.5,419.5,511.5,416.5" stroke="black" stroke-width="1" fill="none" />
<polyline points="505.5,414.5,511.5,408.5" stroke="black" stroke-width="1" fill="none" />
<polyline points="511.5,400.5,502.5,409.5,500.0,412.0,501.0,413.0,500.0,412.0,495.0,417.0" stroke="black" stroke-width="1" fill="none" />
<polyline points="498.5,421.5,502.0,418.0,504.0,416.0,504.0,433.5" stroke="black" stroke-width="1" fill="none" />
<polyline points="501.5,426.5,505.5,422.5,506.0,418.0,505.0,417.0" stroke="black" stroke-width="1" fill="none" />
<polyline points="498.5,405.5,511.5,392.5" stroke="black" stroke-width="1" fill="none" />
<polyline points="511.5,384.5,495.5,400.5,494.5,401.5,493.5,402.5,493.5,405.5,494.5,406.5,495.5,407.5,497.0,409.0,496.5,407.5,492.0,412.0" stroke="black" stroke-width="1" fill="none" />
<polyline points="496.0,407.0,496.0,421.0" stroke="black" stroke-width="1" fill="none" />
<polyline points="511.5,415.5,491.0,395.0,492.0,396.0,511.5,376.5,511.5,375.5,509.0,373.0,507.0,373.0,489.5,390.5,488.0,392.0,487.0,391.0,486.0,394.0,482.5,397.5,488.0,396.5,488.0,409.5" stroke="black" stroke-width="1" fill="none" />
<polyline points="485.5,402.5,489.5,398.5" stroke="black" stroke-width="1" fill="none" />
<polyline points="482.5,389.5,479.0,393.0" stroke="black" stroke-width="1" fill="none" />
<polyline points="483.5,387.5,482.5,386.5,480.0,385.5,480.0,397.0" stroke="black" stroke-width="1" fill="none" />
<polyline points="486.5,385.5,502.5,369.5" stroke="black" stroke-width="1" fill="none" />
<polyline points="501.5,362.5,483.0,381.0" stroke="black" stroke-width="1" fill="none" />
<polyline points="480.0,376.0,496.0,360.0" stroke="black" stroke-width="1" fill="none" />
<polyline points="497.5,350.5,477.0,371.0,476.5,372.5,511.5,407.5" stroke="black" stroke-width="1" fill="none" />
<polyline points="511.5,383.5,427.0,299.0,428.0,300.0,434.5,293.5,435.0,293.0,447.5,280.5,446.5,278.5,451.0,283.0" stroke="black" stroke-width="1" fill="none" />
<polyline points="455.0,297.0,445.0,307.0,444.0,308.0,437.5,314.5,436.5,316.5,437.0,317.0,437.5,322.5,434.0,326.0" stroke="black" stroke-width="1" fill="none" />
<polyline points="437.5,330.5,441.0,327.0,445.5,325.5,511.5,391.5" stroke="black" stroke-width="1" fill="none" />
<polyline points="476.0,380.0,472.5,383.5" stroke="black" stroke-width="1" fill="none" />
<polyline points="469.5,378.5,473.0,375.0,472.0,374.0,472.0,384.5" stroke="black" stroke-width="1" fill="none" />
<polyline points="466.0,374.0,469.5,370.5,472.0,371.0,472.0,369.0,473.0,369.0,473.5,369.5,473.5,366.5,492.5,347.5,488.5,343.5,469.5,362.5,467.5,364.5,463.0,369.0" stroke="black" stroke-width="1" fill="none" />
<polyline points="460.0,364.0,463.5,360.5,464.0,360.0,464.5,360.5,464.0,359.0,464.0,372.5" stroke="black" stroke-width="1" fill="none" />
<polyline points="467.0,357.0,485.5,338.5,488.0,336.0,490.0,338.0" stroke="black" stroke-width="1" fill="none" />
<polyline points="482.0,334.0,463.0,353.0,463.0,351.0,511.5,399.5" stroke="black" stroke-width="1" fill="none" />
<polyline points="504.5,368.5,412.0,276.0,412.0,276.0,417.5,270.5,419.5,268.5,427.0,261.0" stroke="black" stroke-width="1" fill="none" />
<polyline points="432.0,264.0,423.0,273.0" stroke="black" stroke-width="1" fill="none" />
<polyline points="426.0,278.0,437.0,267.0,440.0,265.5,440.0,318.5" stroke="black" stroke-width="1" fill="none" />
<polyline points="444.5,323.5,450.5,317.5,451.5,316.5,460.5,307.5" stroke="black" stroke-width="1" fill="none" />
<polyline points="465.0,311.0,448.0,328.0" stroke="black" stroke-width="1" fill="none" />
<polyline points="445.0,333.0,446.5,334.5,447.0,337.0,444.0,340.0,448.0,338.0,448.0,349.5,450.5,349.5,453.5,346.5,456.0,348.0,456.0,361.5" stroke="black" stroke-width="1" fill="none" />
<polyline points="453.5,354.5,456.5,351.5,459.0,347.0,462.0,350.0,460.5,347.5,479.5,328.5" stroke="black" stroke-width="1" fill="none" />
<polyline points="478.5,321.5,457.0,343.0" stroke="black" stroke-width="1" fill="none" />
<polyline points="454.5,337.5,478.0,314.0,482.0,314.0,476.0,308.0" stroke="black" stroke-width="1" fill="none" />
<polyline points="470.0,314.0,450.5,333.5,450.5,338.5,451.0,339.0,450.0,342.0,447.0,345.0" stroke="black" stroke-width="1" fill="none" />
<polyline points="440.5,335.5,443.5,332.5" stroke="black" stroke-width="1" fill="none" />
<polyline points="431.0,321.0,434.5,317.5,432.5,312.5,432.0,312.0,432.0,312.0,427.5,316.5,424.5,312.5,443.0,331.0" stroke="black" stroke-width="1" fill="none" />
<polyline points="456.0,344.0,456.0,231.5,456.0,229.5,456.0,225.5,460.5,224.0,463.0,224.0,468.0,224.0,511.5,224.0" stroke="black" stroke-width="1" fill="none" />
<polyline points="504.0,226.0,504.0,0.0,504.0,0.0,511.5,7.5" stroke="black" stroke-width="1" fill="none" />
<polyline points="511.5,24.5,426.0,110.0" stroke="black" stroke-width="1" fill="none" />
<polyline points="429.5,114.5,511.5,32.5" stroke="black" stroke-width="1" fill="none" />
<polyline points="511.5,64.5,442.5,133.5" stroke="black" stroke-width="1" fill="none" />
<polyline points="446.0,138.0,511.5,72.5" stroke="black" stroke-width="1" fill="none" />
<polyline points="511.5,136.5,472.5,175.5" stroke="black" stroke-width="1" fill="none" />
<polyline points="469.5,170.5,511.5,128.5" stroke="black" stroke-width="1" fill="none" />
<polyline points="511.5,120.5,465.5,166.5" stroke="black" stroke-width="1" fill="none" />
<polyline points="462.5,161.5,511.5,112.5" stroke="black" stroke-width="1" fill="none" />
<polyline points="511.5,104.5,462.0,154.0,461.5,154.5,459.0,157.0" stroke="black" stroke-width="1" fill="none" />
<polyline points="456.0,152.0,511.5,96.5" stroke="black" stroke-width="1" fill="none" />
<polyline points="511.5,88.5,452.5,147.5" stroke="black" stroke-width="1" fill="none" />
<polyline points="439.5,128.5,511.5,56.5" stroke="black" stroke-width="1" fill="none" />
<polyline points="511.5,48.5,436.0,124.0" stroke="black" stroke-width="1" fill="none" />
<polyline points="423.0,105.0,511.5,16.5" stroke="black" stroke-width="1" fill="none" />
<polyline points="511.5,8.5,419.5,100.5" stroke="black" stroke-width="1" fill="none" />
<polyline points="413.0,91.0,504.0,0.0" stroke="black" stroke-width="1" fill="none" />
<polyline points="496.0,0.0,496.0,215.0" stroke="black" stroke-width="1" fill="none" />
<polyline points="488.0,202.5,488.0,0.0,488.0,0.0,511.5,23.5" stroke="black" stroke-width="1" fill="none" />
<polyline points="511.5,15.5,496.0,0.0,496.0,0.0,409.5,86.5" stroke="black" stroke-width="1" fill="none" />
<polyline points="406.0,82.0,488.0,0.0" stroke="black" stroke-width="1" fill="none" />
<polyline points="480.0,0.0,480.0,190.0" stroke="black" stroke-width="1" fill="none" />
<polyline points="472.0,178.0,472.0,0.0,472.0,0.0,511.5,39.5" stroke="black" stroke-width="1" fill="none" />
<polyline points="511.5,31.5,480.0,0.0,480.0,0.0,403.0,77.0,399.0,73.0,472.0,0.0" stroke="black" stroke-width="1" fill="none" />
<polyline points="464.0,0.0,464.0,168.5" stroke="black" stroke-width="1" fill="none" />
<polyline points="456.0,157.5,456.0,0.0,456.0,0.0,511.5,55.5" stroke="black" stroke-width="1" fill="none" />
<polyline points="511.5,47.5,464.0,0.0,464.0,0.0,396.0,68.0" stroke="black" stroke-width="1" fill="none" />
<polyline points="387.5,68.5,456.0,0.0" stroke="black" stroke-width="1" fill="none" />
<polyline points="448.0,0.0,448.0,146.5" stroke="black" stroke-width="1" fill="none" />
<polyline points="440.0,136.0,440.0,0.0,440.0,0.0,511.5,71.5" stroke="black" stroke-width="1" fill="none" />
<polyline points="511.5,63.5,448.0,0.0,448.0,0.0,371.0,77.0" stroke="black" stroke-width="1" fill="none" />
<polyline points="379.5,76.5,380.5,75.5,382.0,74.0,386.5,69.5" stroke="black" stroke-width="1" fill="none" />
<polyline points="367.0,81.0,361.0,87.0,363.5,91.5,368.5,96.5,370.0,98.0,371.0,99.0" stroke="black" stroke-width="1" fill="none" />
<polyline points="366.5,102.5,380.0,116.0,381.5,117.5,385.5,121.5,383.5,120.5,384.5,119.5,384.0,119.0,384.0,157.0,384.0,158.0,384.0,238.5,385.5,240.0,467.5,240.0,472.0,240.0,473.5,240.0,479.0,240.0,511.5,240.0" stroke="black" stroke-width="1" fill="none" />
<polyline points="511.5,264.0,487.5,264.0,484.5,267.5,483.0,269.0,487.0,271.0,471.5,255.5" stroke="black" stroke-width="1" fill="none" />
<polyline points="470.5,249.5,472.0,248.0,472.0,247.5,472.0,367.0" stroke="black" stroke-width="1" fill="none" />
<polyline points="480.0,382.0,480.0,260.5,481.0,263.0,478.5,265.5" stroke="black" stroke-width="1" fill="none" />
<polyline points="476.5,259.5,477.5,258.5,482.5,256.0,484.5,256.0,487.5,256.0,511.5,256.0" stroke="black" stroke-width="1" fill="none" />
<polyline points="511.5,280.0,498.5,280.0,496.0,282.0,496.0,402.5" stroke="black" stroke-width="1" fill="none" />
<polyline points="504.0,414.0,504.0,294.5,503.5,295.5,505.0,297.0,504.0,296.0,505.0,295.0,507.5,296.0,511.5,296.0" stroke="black" stroke-width="1" fill="none" />
<polyline points="507.5,300.5,507.0,301.0" stroke="black" stroke-width="1" fill="none" />
<polyline points="500.0,292.0,495.5,287.5" stroke="black" stroke-width="1" fill="none" />
<polyline points="491.0,283.0,471.5,263.5,470.0,262.0,469.5,261.5,468.5,260.5,465.5,257.5" stroke="black" stroke-width="1" fill="none" />
<polyline points="458.5,258.5,479.5,279.5" stroke="black" stroke-width="1" fill="none" />
<polyline points="485.5,285.5,486.5,286.5" stroke="black" stroke-width="1" fill="none" />
<polyline points="491.0,277.0,492.0,276.0,492.0,276.0,491.5,275.5,493.0,272.0,511.5,272.0" stroke="black" stroke-width="1" fill="none" />
<polyline points="511.5,288.0,503.0,288.0" stroke="black" stroke-width="1" fill="none" />
<polyline points="487.0,273.0,486.5,273.5,488.0,270.5,488.0,392.5" stroke="black" stroke-width="1" fill="none" />
<polyline points="464.0,402.0,464.0,511.5" stroke="black" stroke-width="1" fill="none" />
<polyline points="447.5,511.5,432.0,496.0" stroke="black" stroke-width="1" fill="none" />
<polyline points="429.5,501.5,439.5,511.5" stroke="black" stroke-width="1" fill="none" />
<polyline points="423.5,511.5,417.0,505.0,416.0,504.0,406.5,494.5" stroke="black" stroke-width="1" fill="none" />
<polyline points="403.5,499.5,401.0,497.0,399.0,495.0,398.0,494.0" stroke="black" stroke-width="1" fill="none" />
<polyline points="395.5,499.5,396.0,500.0,398.0,502.0,399.5,503.5,400.5,504.5,407.5,511.5" stroke="black" stroke-width="1" fill="none" />
<polyline points="399.5,511.5,388.0,500.0,384.5,503.5,382.0,506.0,380.5,508.5,383.5,511.5,384.5,511.5,387.5,508.5" stroke="black" stroke-width="1" fill="none" />
<polyline points="379.5,500.5,381.5,498.5,384.0,496.0,385.0,497.0" stroke="black" stroke-width="1" fill="none" />
<polyline points="392.0,496.0,395.0,499.0,391.0,495.0,385.5,489.5" stroke="black" stroke-width="1" fill="none" />
<polyline points="378.0,494.0,376.5,495.5" stroke="black" stroke-width="1" fill="none" />
<polyline points="372.0,492.0,374.0,490.0,369.0,489.0,391.5,511.5" stroke="black" stroke-width="1" fill="none" />
<polyline points="375.5,511.5,368.0,504.0,367.5,503.5,366.5,502.5,363.0,499.0,359.0,495.0" stroke="black" stroke-width="1" fill="none" />
<polyline points="367.0,495.0,368.5,496.5,370.5,498.5,371.0,499.0,373.0,501.0,379.0,507.0" stroke="black" stroke-width="1" fill="none" />
<polyline points="367.5,511.5,363.0,507.0,361.5,505.5,359.0,503.0" stroke="black" stroke-width="1" fill="none" />
<polyline points="351.0,511.0,351.5,511.5,348.0,508.0,347.0,507.0" stroke="black" stroke-width="1" fill="none" />
<polyline points="343.5,511.5,341.5,509.5,338.5,506.5,337.5,505.5" stroke="black" stroke-width="1" fill="none" />
<polyline points="334.5,510.5,335.0,511.0,333.5,509.5,331.0,507.0" stroke="black" stroke-width="1" fill="none" />
<polyline points="326.5,510.5,327.5,511.5" stroke="black" stroke-width="1" fill="none" />
<polyline points="320.0,496.0,320.5,495.5,321.0,495.0,326.0,490.0,326.5,489.5,327.5,488.5,327.0,487.0,330.5,490.5,329.0,487.0,330.0,486.0,331.5,483.5,335.0,487.0" stroke="black" stroke-width="1" fill="none" />
<polyline points="339.5,483.5,336.0,480.0" stroke="black" stroke-width="1" fill="none" />
<polyline points="340.5,476.5,344.0,480.0" stroke="black" stroke-width="1" fill="none" />
<polyline points="348.5,476.5,345.0,473.0" stroke="black" stroke-width="1" fill="none" />
<polyline points="349.5,469.5,353.5,473.5,355.0,469.0,356.0,468.0,357.5,466.5,358.5,465.5,359.0,465.0,361.5,462.5,362.5,461.5,363.5,460.5,363.5,459.5,367.0,463.0" stroke="black" stroke-width="1" fill="none" />
<polyline points="362.0,466.0,357.0,461.0,356.5,460.5,354.5,458.5,351.5,456.5,351.0,457.0" stroke="black" stroke-width="1" fill="none" />
<polyline points="347.5,452.5,348.5,451.5,344.5,447.5,345.5,446.5" stroke="black" stroke-width="1" fill="none" />
<polyline points="340.0,444.0,353.0,457.0" stroke="black" stroke-width="1" fill="none" />
<polyline points="354.0,466.0,378.5,490.5" stroke="black" stroke-width="1" fill="none" />
<polyline points="371.0,485.0,370.0,486.0" stroke="black" stroke-width="1" fill="none" />
<polyline points="367.0,481.0,368.5,479.5" stroke="black" stroke-width="1" fill="none" />
<polyline points="360.0,472.0,361.0,471.0" stroke="black" stroke-width="1" fill="none" />
<polyline points="371.0,459.0,367.0,455.0" stroke="black" stroke-width="1" fill="none" />
<polyline points="372.0,452.0,375.5,455.5" stroke="black" stroke-width="1" fill="none" />
<polyline points="380.0,452.0,376.0,448.0" stroke="black" stroke-width="1" fill="none" />
<polyline points="381.0,445.0,384.5,448.5" stroke="black" stroke-width="1" fill="none" />
<polyline points="389.0,445.0,385.5,441.5" stroke="black" stroke-width="1" fill="none" />
<polyline points="390.5,438.5,393.5,441.5,393.5,438.5,394.5,437.5,394.5,434.5,397.5,437.5" stroke="black" stroke-width="1" fill="none" />
<polyline points="402.5,434.5,399.5,431.5,403.5,427.5,407.0,431.0" stroke="black" stroke-width="1" fill="none" />
<polyline points="411.5,427.5,408.5,424.5,412.5,420.5,416.0,424.0" stroke="black" stroke-width="1" fill="none" />
<polyline points="420.5,420.5,417.5,417.5" stroke="black" stroke-width="1" fill="none" />
<polyline points="422.0,414.0,424.5,416.5" stroke="black" stroke-width="1" fill="none" />
<polyline points="429.5,413.5,426.5,410.5,429.5,410.5,430.0,410.0,431.0,407.0,433.5,409.5" stroke="black" stroke-width="1" fill="none" />
<polyline points="438.0,406.0,436.0,404.0,440.0,400.0,442.5,402.5" stroke="black" stroke-width="1" fill="none" />
<polyline points="447.0,399.0,445.0,397.0" stroke="black" stroke-width="1" fill="none" />
<polyline points="449.5,393.5,451.5,395.5" stroke="black" stroke-width="1" fill="none" />
<polyline points="456.0,392.0,453.5,389.5,456.0,389.5,456.0,511.5,455.5,511.5,433.0,489.0" stroke="black" stroke-width="1" fill="none" />
<polyline points="435.5,483.5,463.5,511.5" stroke="black" stroke-width="1" fill="none" />
<polyline points="471.5,511.5,446.0,486.0,444.5,484.5,441.0,481.0" stroke="black" stroke-width="1" fill="none" />
<polyline points="444.0,476.0,448.0,480.0,450.5,482.5,451.0,483.0,452.5,484.5,479.5,511.5" stroke="black" stroke-width="1" fill="none" />
<polyline points="487.5,511.5,477.0,501.0,476.0,500.0,459.5,483.5,459.0,483.0,457.5,481.5" stroke="black" stroke-width="1" fill="none" />
<polyline points="462.5,478.5,465.0,481.0,466.5,482.5,495.5,511.5" stroke="black" stroke-width="1" fill="none" />
<polyline points="511.5,495.5,500.5,484.5,504.5,480.5,510.0,486.0,511.0,487.0,511.5,487.5" stroke="black" stroke-width="1" fill="none" />
<polyline points="511.5,479.5,505.0,473.0" stroke="black" stroke-width="1" fill="none" />
<polyline points="500.5,468.5,500.0,468.0,499.5,467.5,498.0,466.0,496.5,464.5,495.5,463.5,494.0,462.0,493.0,461.0" stroke="black" stroke-width="1" fill="none" />
<polyline points="490.0,466.0,491.5,467.5" stroke="black" stroke-width="1" fill="none" />
<polyline points="488.0,472.0,485.5,469.5,484.0,468.0,483.5,467.5,479.5,471.5,480.0,472.0,480.5,472.5,481.0,473.0,483.5,475.5,485.5,477.5,488.0,480.0,493.0,485.0,493.5,485.5,511.5,503.5" stroke="black" stroke-width="1" fill="none" />
<polyline points="499.0,475.0,498.5,474.5" stroke="black" stroke-width="1" fill="none" />
<polyline points="492.5,476.5,497.0,481.0" stroke="black" stroke-width="1" fill="none" />
<polyline points="481.0,481.0,511.5,511.5" stroke="black" stroke-width="1" fill="none" />
<polyline points="503.5,511.5,475.0,483.0,479.0,479.0,480.5,480.5" stroke="black" stroke-width="1" fill="none" />
<polyline points="473.5,473.5,472.5,472.5" stroke="black" stroke-width="1" fill="none" />
<polyline points="466.5,474.5,463.5,471.5,459.5,475.5,460.5,476.5" stroke="black" stroke-width="1" fill="none" />
<polyline points="453.5,469.5,453.0,469.0" stroke="black" stroke-width="1" fill="none" />
<polyline points="442.5,474.5,442.0,474.0" stroke="black" stroke-width="1" fill="none" />
<polyline points="434.5,474.5,434.0,474.0" stroke="black" stroke-width="1" fill="none" />
<polyline points="432.5,480.5,433.0,481.0" stroke="black" stroke-width="1" fill="none" />
<polyline points="427.5,491.5,431.5,495.5" stroke="black" stroke-width="1" fill="none" />
<polyline points="428.5,500.5,422.5,494.5,421.0,493.0,419.0,491.0,418.5,490.5,415.0,487.0,412.5,484.5,411.0,483.0,410.0,482.0,408.0,480.0" stroke="black" stroke-width="1" fill="none" />
<polyline points="409.0,489.0,413.0,493.0,414.5,494.5,417.0,497.0,419.0,499.0,431.5,511.5" stroke="black" stroke-width="1" fill="none" />
<polyline points="415.5,511.5,405.5,501.5" stroke="black" stroke-width="1" fill="none" />
<polyline points="421.0,485.0,424.0,488.0" stroke="black" stroke-width="1" fill="none" />
<polyline points="419.0,483.0,418.5,482.5" stroke="black" stroke-width="1" fill="none" />
<polyline points="471.0,455.0,472.0,456.0" stroke="black" stroke-width="1" fill="none" />
<polyline points="484.0,460.0,486.0,462.0" stroke="black" stroke-width="1" fill="none" />
<polyline points="498.0,458.0,499.0,459.0,502.5,462.5,505.0,465.0,504.0,460.0,504.0,511.5" stroke="black" stroke-width="1" fill="none" />
<polyline points="504.0,456.5,504.0,455.5" stroke="black" stroke-width="1" fill="none" />
<polyline points="496.0,448.0,496.0,511.5" stroke="black" stroke-width="1" fill="none" />
<polyline points="488.0,511.5,488.0,437.0,483.0,435.0,482.5,434.5" stroke="black" stroke-width="1" fill="none" />
<polyline points="480.0,425.0,480.0,511.5" stroke="black" stroke-width="1" fill="none" />
<polyline points="472.0,511.5,472.0,414.0" stroke="black" stroke-width="1" fill="none" />
<polyline points="448.0,379.5,448.0,511.5" stroke="black" stroke-width="1" fill="none" />
<polyline points="349.5,501.5,347.5,499.5" stroke="black" stroke-width="1" fill="none" />
<polyline points="336.0,496.0,335.5,495.5" stroke="black" stroke-width="1" fill="none" />
<polyline points="326.0,494.0,322.5,490.5" stroke="black" stroke-width="1" fill="none" />
<polyline points="317.5,493.5,321.0,497.0,317.0,501.0,313.0,497.0" stroke="black" stroke-width="1" fill="none" />
<polyline points="308.5,500.5,312.0,504.0,308.0,508.0,304.0,504.0" stroke="black" stroke-width="1" fill="none" />
<polyline points="299.5,507.5,303.0,511.0" stroke="black" stroke-width="1" fill="none" />
<polyline points="295.5,511.5,295.0,511.0" stroke="black" stroke-width="1" fill="none" />
<polyline points="360.0,511.5,360.0,287.5,360.0,285.5,360.0,284.5,360.0,284.0,360.0,282.0,360.0,278.0,360.0,270.0,365.0,269.0,366.5,270.5,368.0,272.0,368.0,264.5" stroke="black" stroke-width="1" fill="none" />
<polyline points="376.0,274.0,376.0,277.5,376.0,280.0,376.0,284.0,376.0,284.5,376.0,511.5" stroke="black" stroke-width="1" fill="none" />
<polyline points="337.5,438.5,338.5,437.5,334.5,433.5,335.5,432.5" stroke="black" stroke-width="1" fill="none" />
<polyline points="332.0,428.0,332.5,427.5,335.0,431.0,326.0,422.0,325.0,419.0,326.0,418.0,324.5,420.5,322.5,418.5,322.0,414.0,322.5,413.5" stroke="black" stroke-width="1" fill="none" />
<polyline points="319.0,409.0,319.5,408.5,319.0,407.0,321.0,409.0,318.0,406.0,317.5,405.5" stroke="black" stroke-width="1" fill="none" />
<polyline points="312.0,400.0,313.0,399.0,310.0,398.0,316.0,404.0" stroke="black" stroke-width="1" fill="none" />
<polyline points="306.5,394.5,305.5,393.5" stroke="black" stroke-width="1" fill="none" />
<polyline points="299.0,381.0,300.0,380.0,300.0,380.0,303.5,383.5" stroke="black" stroke-width="1" fill="none" />
<polyline points="298.5,378.5,296.5,376.5,296.0,376.0,294.0,374.0,293.5,373.5,292.5,372.5" stroke="black" stroke-width="1" fill="none" />
<polyline points="286.5,361.5,287.5,360.5,284.5,356.5,282.0,354.0,281.5,353.5,280.0,352.0" stroke="black" stroke-width="1" fill="none" />
<polyline points="273.5,342.5,274.5,341.5,272.0,343.5,272.0,511.5" stroke="black" stroke-width="1" fill="none" />
<polyline points="320.0,511.5,320.0,265.5" stroke="black" stroke-width="1" fill="none" />
<polyline points="328.0,261.0,328.0,260.0" stroke="black" stroke-width="1" fill="none" />
<polyline points="320.0,265.0,320.0,253.5,320.0,249.5,320.0,247.5" stroke="black" stroke-width="1" fill="none" />
<polyline points="312.0,243.5,312.0,511.5" stroke="black" stroke-width="1" fill="none" />
<polyline points="392.0,511.5,392.0,299.0" stroke="black" stroke-width="1" fill="none" />
<polyline points="400.0,309.0,400.0,511.5" stroke="black" stroke-width="1" fill="none" />
<polyline points="440.0,511.5,440.0,367.0" stroke="black" stroke-width="1" fill="none" />
<polyline points="432.0,355.5,432.0,511.5" stroke="black" stroke-width="1" fill="none" />
<polyline points="464.0,354.5,464.0,235.5,466.5,232.0,469.0,232.0,474.5,232.0,511.5,232.0" stroke="black" stroke-width="1" fill="none" />
<polyline points="511.5,248.0,485.0,248.0" stroke="black" stroke-width="1" fill="none" />
<polyline points="478.5,248.0,477.5,248.0" stroke="black" stroke-width="1" fill="none" />
<polyline points="490.5,272.0,407.0,272.0,409.0,273.0,411.0,275.0,408.0,275.0,408.0,274.5,409.5,270.5,414.5,265.5,416.5,263.5,426.0,254.0" stroke="black" stroke-width="1" fill="none" />
<polyline points="420.5,251.5,413.0,259.0,411.5,260.5,405.5,266.5,401.5,270.5,398.5,273.5" stroke="black" stroke-width="1" fill="none" />
<polyline points="395.0,269.0,399.5,264.5,400.0,265.0,400.0,277.5,402.0,278.0,405.5,274.5,408.0,279.5,408.0,290.0,411.5,292.5,414.5,289.5,416.0,290.5,416.0,302.0,418.0,302.0,421.5,298.5,424.0,301.0,424.0,313.0,424.5,311.5,428.0,308.0,432.0,311.5,432.0,324.5" stroke="black" stroke-width="1" fill="none" />
<polyline points="434.5,309.5,440.0,304.0,441.0,303.0,449.0,295.0" stroke="black" stroke-width="1" fill="none" />
<polyline points="466.5,298.5,469.0,301.0" stroke="black" stroke-width="1" fill="none" />
<polyline points="473.5,297.5,474.5,298.5" stroke="black" stroke-width="1" fill="none" />
<polyline points="467.0,307.0,479.0,319.0" stroke="black" stroke-width="1" fill="none" />
<polyline points="424.0,304.0,421.0,307.0" stroke="black" stroke-width="1" fill="none" />
<polyline points="414.5,297.5,418.0,294.0,419.0,291.0,418.5,290.5,418.0,288.0,501.5,288.0" stroke="black" stroke-width="1" fill="none" />
<polyline points="444.0,276.0,424.5,295.5,424.0,296.0,423.0,295.0,422.0,290.0,428.0,284.0,429.0,283.0,441.0,271.0" stroke="black" stroke-width="1" fill="none" />
<polyline points="436.0,260.0,434.0,258.0" stroke="black" stroke-width="1" fill="none" />
<polyline points="437.5,253.5,436.0,252.0,435.0,251.0,434.0,250.0,430.5,246.5,429.5,245.5" stroke="black" stroke-width="1" fill="none" />
<polyline points="420.0,244.0,410.0,254.0,408.0,256.0,402.0,262.0" stroke="black" stroke-width="1" fill="none" />
<polyline points="399.0,257.0,405.0,251.0,407.0,249.0,415.5,240.5" stroke="black" stroke-width="1" fill="none" />
<polyline points="412.0,236.0,402.5,245.5,401.5,246.5,395.0,253.0,395.0,251.0,499.0,355.0" stroke="black" stroke-width="1" fill="none" />
<polyline points="458.0,298.0,359.0,199.0,360.0,200.0,362.5,197.5,363.5,196.5,366.5,193.5,368.0,192.0,375.5,184.5" stroke="black" stroke-width="1" fill="none" />
<polyline points="381.0,187.0,371.5,196.5" stroke="black" stroke-width="1" fill="none" />
<polyline points="374.5,201.5,382.0,194.0" stroke="black" stroke-width="1" fill="none" />
<polyline points="391.5,200.5,381.0,211.0" stroke="black" stroke-width="1" fill="none" />
<polyline points="384.5,215.5,395.0,205.0,395.5,203.5,394.0,202.0" stroke="black" stroke-width="1" fill="none" />
<polyline points="398.5,209.5,387.5,220.5" stroke="black" stroke-width="1" fill="none" />
<polyline points="390.0,226.0,402.0,214.0" stroke="black" stroke-width="1" fill="none" />
<polyline points="400.0,208.5,400.0,259.5,396.0,260.0,392.0,264.0,392.0,265.5,392.0,254.0,388.5,251.5,385.5,254.5" stroke="black" stroke-width="1" fill="none" />
<polyline points="382.5,249.5,386.0,246.0,384.0,243.0,384.0,254.5" stroke="black" stroke-width="1" fill="none" />
<polyline points="391.5,247.5,393.5,249.5,392.0,248.0,399.5,240.5,400.5,239.5,409.5,230.5" stroke="black" stroke-width="1" fill="none" />
<polyline points="403.5,228.5,396.5,235.5,395.5,236.5,389.5,242.5" stroke="black" stroke-width="1" fill="none" />
<polyline points="386.5,237.5,404.5,219.5,408.0,220.0,408.0,271.5" stroke="black" stroke-width="1" fill="none" />
<polyline points="415.5,280.5,421.0,275.0" stroke="black" stroke-width="1" fill="none" />
<polyline points="424.5,279.5,418.5,285.5" stroke="black" stroke-width="1" fill="none" />
<polyline points="408.5,279.5,405.0,283.0" stroke="black" stroke-width="1" fill="none" />
<polyline points="416.0,285.5,416.0,166.5,416.0,168.0,417.0,169.0,422.0,168.0,511.5,168.0" stroke="black" stroke-width="1" fill="none" />
<polyline points="511.5,103.5,408.0,0.0,408.0,0.0,408.0,92.0" stroke="black" stroke-width="1" fill="none" />
<polyline points="391.0,71.0,320.0,0.0,320.0,0.0,320.0,143.0,321.0,144.0,403.5,144.0,404.5,144.0,511.5,144.0" stroke="black" stroke-width="1" fill="none" />
<polyline points="511.5,79.5,432.0,0.0,432.0,0.0,432.0,124.0" stroke="black" stroke-width="1" fill="none" />
<polyline points="424.0,112.5,424.0,0.0,424.0,0.0,511.5,87.5" stroke="black" stroke-width="1" fill="none" />
<polyline points="440.0,0.0,358.0,82.0" stroke="black" stroke-width="1" fill="none" />
<polyline points="354.5,77.5,432.0,0.0" stroke="black" stroke-width="1" fill="none" />
<polyline points="424.0,0.0,351.5,72.5,352.0,77.5,352.0,78.0,352.0,80.5,352.0,108.5,352.0,111.0,352.0,189.5,354.0,190.0,370.0,174.0" stroke="black" stroke-width="1" fill="none" />
<polyline points="375.0,177.0,364.0,188.0,363.0,189.0,360.0,192.0,359.0,193.0,356.5,195.5,356.0,196.0,355.0,195.0,352.0,196.0,352.0,207.0,353.5,206.5,356.0,204.0,360.0,207.5,360.0,218.5,359.5,216.5,364.0,212.0,364.0,208.0,446.5,208.0,443.0,211.0,447.0,215.0,448.0,213.5,448.0,218.5,448.0,219.5,448.0,220.0,448.0,221.0,448.0,333.0" stroke="black" stroke-width="1" fill="none" />
<polyline points="424.0,344.0,424.0,511.5" stroke="black" stroke-width="1" fill="none" />
<polyline points="416.0,511.5,416.0,333.0" stroke="black" stroke-width="1" fill="none" />
<polyline points="408.0,321.0,408.0,511.5" stroke="black" stroke-width="1" fill="none" />
<polyline points="384.0,511.5,384.0,286.0" stroke="black" stroke-width="1" fill="none" />
<polyline points="368.0,285.5,368.0,284.5,368.0,284.0,368.0,283.5,368.0,288.0,368.0,290.0,368.0,293.5,368.0,511.5" stroke="black" stroke-width="1" fill="none" />
<polyline points="352.0,511.5,352.0,283.5,347.0,283.0,346.5,282.5,344.0,280.0,344.0,289.0,344.0,290.0,344.0,511.5" stroke="black" stroke-width="1" fill="none" />
<polyline points="336.0,511.5,336.0,278.0,336.0,276.5,336.0,274.0,336.0,271.0,336.0,270.5,336.0,268.5,336.0,267.5" stroke="black" stroke-width="1" fill="none" />
<polyline points="328.0,271.0,328.0,290.5,328.0,291.0,328.0,511.5" stroke="black" stroke-width="1" fill="none" />
<polyline points="304.0,511.5,304.0,264.0,304.0,263.0,304.0,249.0,304.0,248.5,304.0,238.5" stroke="black" stroke-width="1" fill="none" />
<polyline points="312.0,239.0,312.0,242.0,312.0,238.0,312.0,236.5,312.0,236.0,312.0,235.0" stroke="black" stroke-width="1" fill="none" />
<polyline points="304.0,237.5,304.0,230.0,304.0,227.5,304.0,225.5,304.0,224.5,304.0,223.5" stroke="black" stroke-width="1" fill="none" />
<polyline points="304.0,206.5,304.0,205.0,304.0,202.5,304.0,201.0" stroke="black" stroke-width="1" fill="none" />
<polyline points="312.0,201.0,312.0,202.5" stroke="black" stroke-width="1" fill="none" />
<polyline points="320.0,194.5,320.0,191.5" stroke="black" stroke-width="1" fill="none" />
<polyline points="312.0,185.5,312.0,179.0" stroke="black" stroke-width="1" fill="none" />
<polyline points="304.0,190.5,304.0,167.0" stroke="black" stroke-width="1" fill="none" />
<polyline points="296.0,155.5,296.0,246.0,296.0,246.5,296.0,511.5" stroke="black" stroke-width="1" fill="none" />
<polyline points="288.0,511.5,288.0,193.5" stroke="black" stroke-width="1" fill="none" />
<polyline points="304.0,192.0,304.0,196.5" stroke="black" stroke-width="1" fill="none" />
<polyline points="334.0,178.0,337.5,174.5,336.0,173.0,336.0,183.0,337.5,182.5,340.5,179.5,344.0,179.5,344.0,181.0,343.5,184.5,340.5,187.5,344.0,185.0,344.0,194.5,347.0,197.0,350.0,194.0,353.5,192.0,435.5,192.0,438.0,192.0,439.0,192.0,439.5,192.0,440.0,192.0,441.5,192.0,443.0,192.0,447.5,192.0,448.0,192.0,448.5,192.0,511.5,192.0" stroke="black" stroke-width="1" fill="none" />
<polyline points="511.5,143.5,368.0,0.0,368.0,0.0,368.0,87.0,371.0,83.0,312.0,24.0,315.0,21.0,336.0,0.0" stroke="black" stroke-width="1" fill="none" />
<polyline points="328.0,0.0,328.0,154.0,327.5,152.5,330.0,150.0,331.0,149.0,333.5,146.5,336.5,143.5,347.0,133.0" stroke="black" stroke-width="1" fill="none" />
<polyline points="354.0,142.0,342.5,153.5,340.0,156.0,334.5,161.5,331.5,160.0,414.5,160.0,416.0,160.0,511.5,160.0" stroke="black" stroke-width="1" fill="none" />
<polyline points="511.5,95.5,416.0,0.0,416.0,0.0,416.0,102.0" stroke="black" stroke-width="1" fill="none" />
<polyline points="400.0,81.5,400.0,0.0,400.0,0.0,511.5,111.5" stroke="black" stroke-width="1" fill="none" />
<polyline points="511.5,119.5,392.0,0.0,392.0,0.0,392.0,73.0" stroke="black" stroke-width="1" fill="none" />
<polyline points="386.0,74.0,312.0,0.0,312.0,0.0,312.0,129.5,311.5,127.5,412.5,228.5" stroke="black" stroke-width="1" fill="none" />
<polyline points="417.5,233.5,428.5,244.5" stroke="black" stroke-width="1" fill="none" />
<polyline points="433.0,241.0,426.5,234.5" stroke="black" stroke-width="1" fill="none" />
<polyline points="432.0,228.5,432.0,307.5" stroke="black" stroke-width="1" fill="none" />
<polyline points="446.0,278.0,345.5,177.5,344.5,175.5,346.5,173.5,347.0,173.0,350.0,170.0" stroke="black" stroke-width="1" fill="none" />
<polyline points="354.5,173.5,348.0,180.0,345.0,177.0,343.5,175.5,342.5,176.0,425.0,176.0,427.0,176.0,429.5,176.0,433.0,176.0,511.5,176.0" stroke="black" stroke-width="1" fill="none" />
<polyline points="511.5,127.5,384.0,0.0,384.0,0.0,384.0,77.0,381.5,77.5,304.0,0.0,304.0,0.0,304.0,117.5,305.5,118.5,322.5,101.5" stroke="black" stroke-width="1" fill="none" />
<polyline points="325.0,107.0,309.0,123.0,309.5,125.5,310.0,126.0,312.5,127.5,329.5,110.5,331.0,107.0,341.0,117.0" stroke="black" stroke-width="1" fill="none" />
<polyline points="341.5,130.5,332.5,139.5,331.0,141.0,325.0,147.0,324.0,148.0,323.5,147.5,321.5,150.5,318.0,154.0" stroke="black" stroke-width="1" fill="none" />
<polyline points="315.0,149.0,317.5,146.5,320.0,148.5,320.0,159.5,321.0,159.0,325.0,155.0,325.5,152.0,408.0,152.0,408.0,153.5,408.0,177.5,408.0,181.0,408.0,190.5,408.0,191.5,408.0,212.5,408.0,214.0,408.0,216.5" stroke="black" stroke-width="1" fill="none" />
<polyline points="424.0,215.0,424.0,296.5" stroke="black" stroke-width="1" fill="none" />
<polyline points="440.0,264.5,440.0,240.0" stroke="black" stroke-width="1" fill="none" />
<polyline points="420.5,244.5,326.5,150.5" stroke="black" stroke-width="1" fill="none" />
<polyline points="331.0,157.0,337.5,150.5,339.5,148.5,350.5,137.5" stroke="black" stroke-width="1" fill="none" />
<polyline points="360.0,152.0,349.0,163.0,346.5,165.5,341.5,170.5,341.5,173.5,342.5,174.5" stroke="black" stroke-width="1" fill="none" />
<polyline points="342.5,182.5,324.5,164.5,324.5,163.5,328.0,160.0,328.0,159.5,328.0,171.0,328.0,168.0,331.5,164.5" stroke="black" stroke-width="1" fill="none" />
<polyline points="334.0,170.0,331.0,173.0,336.0,170.5,336.0,169.0" stroke="black" stroke-width="1" fill="none" />
<polyline points="321.5,142.5,324.0,140.0,324.5,139.5,328.0,136.0,330.0,134.0,337.5,126.5" stroke="black" stroke-width="1" fill="none" />
<polyline points="336.0,120.0,318.5,137.5,315.0,141.0,311.5,144.5,309.5,141.5,326.0,158.0" stroke="black" stroke-width="1" fill="none" />
<polyline points="308.5,139.5,311.5,136.5,312.0,136.5,312.0,147.5" stroke="black" stroke-width="1" fill="none" />
<polyline points="309.0,141.0,307.5,139.5,305.5,134.5,308.5,131.5" stroke="black" stroke-width="1" fill="none" />
<polyline points="305.0,127.0,302.0,130.0" stroke="black" stroke-width="1" fill="none" />
<polyline points="299.0,125.0,302.5,121.5,304.0,120.0,304.0,135.0" stroke="black" stroke-width="1" fill="none" />
<polyline points="316.0,132.0,330.5,117.5" stroke="black" stroke-width="1" fill="none" />
<polyline points="330.5,98.5,328.0,96.0,327.5,95.5,324.5,92.5" stroke="black" stroke-width="1" fill="none" />
<polyline points="329.0,89.0,332.5,92.5" stroke="black" stroke-width="1" fill="none" />
<polyline points="322.0,90.0,319.0,87.0,319.0,89.0,317.5,90.5" stroke="black" stroke-width="1" fill="none" />
<polyline points="319.5,96.5,302.0,114.0,299.0,117.0,295.5,120.5,292.5,116.5,311.0,135.0" stroke="black" stroke-width="1" fill="none" />
<polyline points="305.5,121.5,305.0,121.0" stroke="black" stroke-width="1" fill="none" />
<polyline points="299.0,109.0,314.5,93.5" stroke="black" stroke-width="1" fill="none" />
<polyline points="315.5,84.5,295.0,105.0,292.5,107.5,289.5,110.5" stroke="black" stroke-width="1" fill="none" />
<polyline points="286.0,106.0,289.5,102.5,288.0,100.5,288.0,111.5" stroke="black" stroke-width="1" fill="none" />
<polyline points="292.5,115.5,296.0,112.0,295.5,111.5,296.5,112.5,296.0,111.0,296.0,123.0" stroke="black" stroke-width="1" fill="none" />
<polyline points="294.0,110.0,276.0,92.0,276.5,91.5,279.0,89.0,280.0,89.5,280.0,99.5,282.5,101.5,286.0,98.0,289.0,95.0,309.5,74.5" stroke="black" stroke-width="1" fill="none" />
<polyline points="312.5,79.5,292.0,100.0,291.0,99.0,393.0,201.0" stroke="black" stroke-width="1" fill="none" />
<polyline points="385.5,198.5,378.0,206.0" stroke="black" stroke-width="1" fill="none" />
<polyline points="379.0,213.0,373.5,218.5,369.5,217.5,368.5,216.5,368.0,216.5,368.0,218.5,368.0,219.5,368.0,230.5,369.5,230.5,373.0,227.0,376.0,226.5,376.0,228.0,377.5,225.5,480.0,328.0" stroke="black" stroke-width="1" fill="none" />
<polyline points="440.0,239.5,440.0,201.0,444.0,200.0,447.0,200.0,452.5,200.0,511.5,200.0" stroke="black" stroke-width="1" fill="none" />
<polyline points="511.5,159.5,352.0,0.0,352.0,0.0,352.0,77.0" stroke="black" stroke-width="1" fill="none" />
<polyline points="348.0,68.0,416.0,0.0" stroke="black" stroke-width="1" fill="none" />
<polyline points="408.0,0.0,345.0,63.0,345.5,65.5,366.5,86.5" stroke="black" stroke-width="1" fill="none" />
<polyline points="368.0,94.0,368.0,131.5,368.0,132.0,368.0,212.0,369.5,214.5,375.5,208.5" stroke="black" stroke-width="1" fill="none" />
<polyline points="372.0,204.0,367.0,209.0" stroke="black" stroke-width="1" fill="none" />
<polyline points="363.5,204.5,369.5,198.5" stroke="black" stroke-width="1" fill="none" />
<polyline points="366.5,217.5,363.0,221.0" stroke="black" stroke-width="1" fill="none" />
<polyline points="366.5,225.5,369.0,223.0" stroke="black" stroke-width="1" fill="none" />
<polyline points="375.0,224.0,457.5,224.0" stroke="black" stroke-width="1" fill="none" />
<polyline points="458.0,216.0,455.0,216.0,452.5,216.0,0.0,216.0" stroke="black" stroke-width="1" fill="none" />
<polyline points="0.0,208.0,361.5,208.0" stroke="black" stroke-width="1" fill="none" />
<polyline points="353.5,198.5,350.0,202.0" stroke="black" stroke-width="1" fill="none" />
<polyline points="360.0,201.5,360.0,0.0,360.0,0.0,511.5,151.5" stroke="black" stroke-width="1" fill="none" />
<polyline points="511.5,135.5,376.0,0.0,376.0,0.0,376.0,81.0" stroke="black" stroke-width="1" fill="none" />
<polyline points="375.0,105.0,373.5,106.5,376.0,106.5,376.0,143.0,376.0,147.5,376.0,224.0,376.5,223.5,382.0,218.0" stroke="black" stroke-width="1" fill="none" />
<polyline points="385.5,222.5,380.0,228.0" stroke="black" stroke-width="1" fill="none" />
<polyline points="377.0,233.0,378.5,234.5,379.0,237.0,376.0,240.0" stroke="black" stroke-width="1" fill="none" />
<polyline points="379.5,244.5,382.5,241.5" stroke="black" stroke-width="1" fill="none" />
<polyline points="383.0,233.0,388.5,227.5" stroke="black" stroke-width="1" fill="none" />
<polyline points="376.0,232.5,376.0,243.0" stroke="black" stroke-width="1" fill="none" />
<polyline points="392.0,249.5,392.0,171.0" stroke="black" stroke-width="1" fill="none" />
<polyline points="381.5,165.5,379.0,163.0" stroke="black" stroke-width="1" fill="none" />
<polyline points="377.5,169.5,378.0,170.0,377.0,169.0,371.5,163.5" stroke="black" stroke-width="1" fill="none" />
<polyline points="367.0,159.0,260.5,52.5,260.5,51.5,278.5,33.5,280.0,32.0,279.5,31.5,281.5,33.5,297.5,49.5,297.5,54.5,294.5,57.5" stroke="black" stroke-width="1" fill="none" />
<polyline points="299.5,60.5,279.5,80.5,277.5,77.5,371.0,171.0" stroke="black" stroke-width="1" fill="none" />
<polyline points="382.0,182.0,383.0,183.0" stroke="black" stroke-width="1" fill="none" />
<polyline points="400.0,183.5,400.0,206.0" stroke="black" stroke-width="1" fill="none" />
<polyline points="409.5,185.5,426.0,202.0,427.5,203.5,428.5,204.5" stroke="black" stroke-width="1" fill="none" />
<polyline points="431.0,193.0,432.0,192.0,432.0,189.0,432.0,213.5,432.0,216.5,432.0,226.5" stroke="black" stroke-width="1" fill="none" />
<polyline points="436.0,196.0,418.5,178.5,424.0,179.0,424.0,213.5" stroke="black" stroke-width="1" fill="none" />
<polyline points="438.5,206.5,423.0,191.0,421.5,189.5,420.5,188.5" stroke="black" stroke-width="1" fill="none" />
<polyline points="425.0,183.0,425.5,182.5" stroke="black" stroke-width="1" fill="none" />
<polyline points="428.5,187.5,428.0,188.0" stroke="black" stroke-width="1" fill="none" />
<polyline points="433.0,184.0,435.5,184.0" stroke="black" stroke-width="1" fill="none" />
<polyline points="443.5,184.0,511.5,184.0" stroke="black" stroke-width="1" fill="none" />
<polyline points="511.5,167.5,344.0,0.0,344.0,0.0,344.0,99.0,344.0,99.5,344.0,177.0" stroke="black" stroke-width="1" fill="none" />
<polyline points="345.5,129.5,243.5,27.5,244.0,28.0,264.0,8.0,268.0,12.0,248.0,32.0,244.0,36.0,241.0,39.0,241.5,41.5,242.5,42.5,243.0,43.0,258.0,58.0,260.0,60.0,261.5,61.5,261.0,59.0,257.0,63.0,259.0,67.0,279.0,87.0,283.0,85.0,302.0,66.0,304.5,64.5,307.0,67.0,306.0,70.0,286.0,90.0,283.0,93.0,280.0,96.0" stroke="black" stroke-width="1" fill="none" />
<polyline points="273.5,86.5,276.5,83.5" stroke="black" stroke-width="1" fill="none" />
<polyline points="273.0,79.0,270.0,82.0" stroke="black" stroke-width="1" fill="none" />
<polyline points="267.0,77.0,270.0,74.0,272.0,75.0,272.0,87.5" stroke="black" stroke-width="1" fill="none" />
<polyline points="276.5,76.5,276.0,76.0,276.5,75.5,293.5,58.5" stroke="black" stroke-width="1" fill="none" />
<polyline points="291.5,52.5,273.5,70.5,273.5,73.5,274.5,74.5" stroke="black" stroke-width="1" fill="none" />
<polyline points="270.0,66.0,286.5,49.5,291.5,51.5,300.5,60.5" stroke="black" stroke-width="1" fill="none" />
<polyline points="285.0,43.0,267.0,61.0,264.0,64.0,264.0,76.0,263.5,72.5,267.0,69.0" stroke="black" stroke-width="1" fill="none" />
<polyline points="264.0,64.0,260.5,67.5" stroke="black" stroke-width="1" fill="none" />
<polyline points="263.5,56.5,280.5,39.5" stroke="black" stroke-width="1" fill="none" />
<polyline points="288.0,32.0,298.0,42.0" stroke="black" stroke-width="1" fill="none" />
<polyline points="307.0,35.0,327.0,55.0,328.0,56.0,328.5,56.5,330.5,58.5,332.0,60.0" stroke="black" stroke-width="1" fill="none" />
<polyline points="330.5,53.5,333.5,50.5,334.0,50.0,384.0,0.0" stroke="black" stroke-width="1" fill="none" />
<polyline points="400.0,0.0,341.0,59.0" stroke="black" stroke-width="1" fill="none" />
<polyline points="338.0,54.0,392.0,0.0" stroke="black" stroke-width="1" fill="none" />
<polyline points="376.0,0.0,327.5,48.5" stroke="black" stroke-width="1" fill="none" />
<polyline points="325.0,43.0,368.0,0.0" stroke="black" stroke-width="1" fill="none" />
<polyline points="360.0,0.0,321.5,38.5,320.5,40.5,335.0,55.0" stroke="black" stroke-width="1" fill="none" />
<polyline points="328.0,64.0,324.5,60.5" stroke="black" stroke-width="1" fill="none" />
<polyline points="318.0,34.0,352.0,0.0" stroke="black" stroke-width="1" fill="none" />
<polyline points="344.0,0.0,318.5,25.5,317.5,26.5,317.0,27.0" stroke="black" stroke-width="1" fill="none" />
<polyline points="311.5,16.5,328.0,0.0,328.0,0.0,511.5,183.5" stroke="black" stroke-width="1" fill="none" />
<polyline points="511.5,216.0,466.0,216.0" stroke="black" stroke-width="1" fill="none" />
<polyline points="458.0,208.0,511.5,208.0" stroke="black" stroke-width="1" fill="none" />
<polyline points="400.0,179.5,400.0,142.5,401.5,145.5,403.0,147.0,403.5,147.5,404.0,148.0" stroke="black" stroke-width="1" fill="none" />
<polyline points="410.0,152.0,511.5,152.0" stroke="black" stroke-width="1" fill="none" />
<polyline points="397.5,138.5,397.0,139.0" stroke="black" stroke-width="1" fill="none" />
<polyline points="392.0,130.5,392.0,168.5" stroke="black" stroke-width="1" fill="none" />
<polyline points="376.5,136.5,376.0,136.0" stroke="black" stroke-width="1" fill="none" />
<polyline points="386.5,130.5,371.5,115.5" stroke="black" stroke-width="1" fill="none" />
<polyline points="376.5,111.5,377.0,111.0" stroke="black" stroke-width="1" fill="none" />
<polyline points="377.0,129.0,358.0,110.0" stroke="black" stroke-width="1" fill="none" />
<polyline points="376.0,80.0,309.0,13.0,309.0,11.0,320.0,0.0" stroke="black" stroke-width="1" fill="none" />
<polyline points="312.0,0.0,305.0,7.0" stroke="black" stroke-width="1" fill="none" />
<polyline points="302.0,2.0,304.0,0.0" stroke="black" stroke-width="1" fill="none" />
<polyline points="296.0,0.0,296.0,107.0" stroke="black" stroke-width="1" fill="none" />
<polyline points="288.0,96.0,288.0,0.0" stroke="black" stroke-width="1" fill="none" />
<polyline points="280.0,0.0,280.0,85.0" stroke="black" stroke-width="1" fill="none" />
<polyline points="272.0,70.5,272.0,0.0" stroke="black" stroke-width="1" fill="none" />
<polyline points="264.0,0.0,264.0,59.5" stroke="black" stroke-width="1" fill="none" />
<polyline points="256.5,55.5,254.0,58.0,256.0,55.0,256.0,64.0" stroke="black" stroke-width="1" fill="none" />
<polyline points="250.5,53.5,253.5,50.5,256.0,51.5,256.0,53.5,259.0,51.0,258.0,50.0,257.5,46.5,276.5,27.5,279.0,23.0,284.0,28.0" stroke="black" stroke-width="1" fill="none" />
<polyline points="286.0,22.0,281.5,17.5" stroke="black" stroke-width="1" fill="none" />
<polyline points="277.0,21.0,275.0,19.0,275.5,20.5,254.0,42.0,253.5,45.5,254.0,46.0,249.5,46.5,247.5,48.5" stroke="black" stroke-width="1" fill="none" />
<polyline points="244.0,44.0,247.5,40.5,248.0,40.5,248.0,52.0" stroke="black" stroke-width="1" fill="none" />
<polyline points="250.5,37.5,270.5,17.5" stroke="black" stroke-width="1" fill="none" />
<polyline points="260.5,3.5,240.0,24.0,239.5,23.5,241.5,25.5,237.5,26.5,234.5,29.5,240.0,30.0,240.0,40.5" stroke="black" stroke-width="1" fill="none" />
<polyline points="244.5,36.5,245.0,37.0" stroke="black" stroke-width="1" fill="none" />
<polyline points="241.5,30.5,237.5,34.5" stroke="black" stroke-width="1" fill="none" />
<polyline points="231.5,24.5,234.0,22.0,236.0,20.0,235.5,19.5,237.5,18.5,256.0,0.0,256.0,0.0,256.0,47.5" stroke="black" stroke-width="1" fill="none" />
<polyline points="241.0,33.0,226.0,18.0,228.0,20.0,231.0,17.0,232.0,18.5,232.0,29.0" stroke="black" stroke-width="1" fill="none" />
<polyline points="234.0,14.0,248.0,0.0,248.0,0.0,248.0,36.5" stroke="black" stroke-width="1" fill="none" />
<polyline points="240.0,25.5,240.0,0.0,240.0,0.0,290.5,50.5" stroke="black" stroke-width="1" fill="none" />
<polyline points="269.5,13.5,256.0,0.0" stroke="black" stroke-width="1" fill="none" />
<polyline points="248.0,0.0,277.5,29.5" stroke="black" stroke-width="1" fill="none" />
<polyline points="240.0,0.0,237.0,3.0,236.5,3.5,231.0,9.0,232.0,13.0,232.0,15.0,227.5,12.5,225.0,15.0" stroke="black" stroke-width="1" fill="none" />
<polyline points="222.0,10.0,224.0,8.0,224.0,8.0,216.0,0.0,216.0,0.0,216.0,5.5,218.5,5.5,221.0,3.0,224.0,3.5,224.0,6.5,224.0,7.0,224.0,17.5" stroke="black" stroke-width="1" fill="none" />
<polyline points="227.5,11.5,225.0,9.0" stroke="black" stroke-width="1" fill="none" />
<polyline points="228.0,4.0,232.0,0.0,232.0,0.0,232.0,11.5" stroke="black" stroke-width="1" fill="none" />
<polyline points="226.0,2.0,324.0,100.0" stroke="black" stroke-width="1" fill="none" />
<polyline points="315.5,83.5,232.0,0.0" stroke="black" stroke-width="1" fill="none" />
<polyline points="216.0,0.0,215.5,0.5" stroke="black" stroke-width="1" fill="none" />
<polyline points="200.0,10.5,200.0,371.5,200.0,373.0,200.0,398.5" stroke="black" stroke-width="1" fill="none" />
<polyline points="200.0,405.5,200.0,419.5" stroke="black" stroke-width="1" fill="none" />
<polyline points="200.0,427.5,200.0,430.5,200.0,435.0,200.0,435.5" stroke="black" stroke-width="1" fill="none" />
<polyline points="208.0,437.5,208.0,443.5,208.0,447.5,208.0,450.5,208.0,452.5,208.0,454.5,208.0,456.5,208.0,463.0" stroke="black" stroke-width="1" fill="none" />
<polyline points="200.0,464.5,200.0,461.0" stroke="black" stroke-width="1" fill="none" />
<polyline points="208.0,473.0,208.0,473.5" stroke="black" stroke-width="1" fill="none" />
<polyline points="216.0,476.5,216.0,469.5,216.0,467.5,216.0,460.5,216.0,456.5,216.0,452.5,216.0,451.5,216.0,451.0,216.0,450.5,216.0,443.5,216.0,439.0,216.0,428.5,216.0,426.5,216.0,424.5,216.0,420.5,216.0,416.0,216.0,413.5,216.0,349.5" stroke="black" stroke-width="1" fill="none" />
<polyline points="224.0,368.0,225.5,369.5" stroke="black" stroke-width="1" fill="none" />
<polyline points="229.0,365.0,230.0,366.0" stroke="black" stroke-width="1" fill="none" />
<polyline points="233.0,361.0,235.0,363.0,239.0,359.0,238.5,358.5,242.5,354.5,244.5,356.5" stroke="black" stroke-width="1" fill="none" />
<polyline points="248.0,352.0,247.5,351.5" stroke="black" stroke-width="1" fill="none" />
<polyline points="252.0,348.0,254.0,350.0,258.0,346.0,257.5,345.5" stroke="black" stroke-width="1" fill="none" />
<polyline points="260.5,340.5,262.5,342.5,266.5,338.5,268.0,340.0" stroke="black" stroke-width="1" fill="none" />
<polyline points="271.5,335.5,272.5,336.5" stroke="black" stroke-width="1" fill="none" />
<polyline points="277.0,333.0,275.5,331.5" stroke="black" stroke-width="1" fill="none" />
<polyline points="280.5,328.5,282.0,330.0" stroke="black" stroke-width="1" fill="none" />
<polyline points="286.5,326.5,285.0,325.0" stroke="black" stroke-width="1" fill="none" />
<polyline points="294.5,318.5,296.0,320.0" stroke="black" stroke-width="1" fill="none" />
<polyline points="299.5,315.5,300.5,316.5" stroke="black" stroke-width="1" fill="none" />
<polyline points="305.0,313.0,303.5,311.5" stroke="black" stroke-width="1" fill="none" />
<polyline points="309.0,309.0,309.5,309.5,313.5,305.5,314.5,306.5" stroke="black" stroke-width="1" fill="none" />
<polyline points="318.0,302.0,319.0,303.0,323.0,299.0,324.0,300.0" stroke="black" stroke-width="1" fill="none" />
<polyline points="332.5,292.5,333.0,293.0,337.0,289.0,338.0,290.0" stroke="black" stroke-width="1" fill="none" />
<polyline points="344.0,279.5,344.0,277.0" stroke="black" stroke-width="1" fill="none" />
<polyline points="352.0,275.0,352.0,282.5" stroke="black" stroke-width="1" fill="none" />
<polyline points="368.0,277.5,368.0,277.0" stroke="black" stroke-width="1" fill="none" />
<polyline points="396.5,256.0,479.5,256.0" stroke="black" stroke-width="1" fill="none" />
<polyline points="344.0,228.0,344.0,227.5" stroke="black" stroke-width="1" fill="none" />
<polyline points="280.0,230.0,280.0,511.5" stroke="black" stroke-width="1" fill="none" />
<polyline points="264.0,511.5,264.0,106.0" stroke="black" stroke-width="1" fill="none" />
<polyline points="256.0,94.5,256.0,511.5" stroke="black" stroke-width="1" fill="none" />
<polyline points="248.0,511.5,248.0,82.0" stroke="black" stroke-width="1" fill="none" />
<polyline points="240.0,70.5,240.0,464.5,240.0,465.0,240.0,511.5" stroke="black" stroke-width="1" fill="none" />
<polyline points="232.0,511.5,232.0,58.5" stroke="black" stroke-width="1" fill="none" />
<polyline points="224.0,47.0,224.0,481.0,224.0,482.0,224.0,491.0,224.0,492.5,224.0,511.5" stroke="black" stroke-width="1" fill="none" />
<polyline points="216.0,511.5,216.0,505.0" stroke="black" stroke-width="1" fill="none" />
<polyline points="216.0,492.0,216.0,488.5,216.0,486.5,216.0,482.0,216.0,480.0,216.0,479.0" stroke="black" stroke-width="1" fill="none" />
<polyline points="208.0,484.0,208.0,487.0" stroke="black" stroke-width="1" fill="none" />
<polyline points="184.0,495.0,184.0,501.5,186.0,502.0,186.5,501.5,185.5,504.0,511.5,504.0" stroke="black" stroke-width="1" fill="none" />
<polyline points="267.5,332.5,266.5,333.5,266.5,330.5,261.0,325.0,259.5,323.5,259.0,323.0,258.5,322.5,256.5,320.5" stroke="black" stroke-width="1" fill="none" />
<polyline points="253.5,314.5,254.5,313.5" stroke="black" stroke-width="1" fill="none" />
<polyline points="251.0,309.0,251.5,308.5,252.0,308.0,251.5,307.5,249.5,305.5,243.0,299.0,241.0,295.0,241.5,294.5,240.0,296.0,239.5,295.5" stroke="black" stroke-width="1" fill="none" />
<polyline points="235.0,283.0,233.5,281.5,232.5,280.5,230.5,278.5,228.5,275.5,229.0,275.0,230.0,278.0,225.5,273.5" stroke="black" stroke-width="1" fill="none" />
<polyline points="218.5,261.5,219.0,261.0,218.0,258.0,216.0,256.0,215.5,255.5,212.5,252.5,212.0,252.0,211.0,251.0,210.5,250.5,207.5,247.5,205.5,242.5,206.5,241.5" stroke="black" stroke-width="1" fill="none" />
<polyline points="200.5,232.5,194.0,226.0,193.0,223.0,193.5,222.5,192.0,224.0,188.5,220.5" stroke="black" stroke-width="1" fill="none" />
<polyline points="184.0,208.0,184.5,207.5,183.0,207.0,186.5,210.5" stroke="black" stroke-width="1" fill="none" />
<polyline points="189.5,205.5,189.0,205.0" stroke="black" stroke-width="1" fill="none" />
<polyline points="192.5,200.5,195.0,203.0" stroke="black" stroke-width="1" fill="none" />
<polyline points="198.5,198.5,198.0,198.0" stroke="black" stroke-width="1" fill="none" />
<polyline points="202.5,194.5,204.5,196.5" stroke="black" stroke-width="1" fill="none" />
<polyline points="208.0,192.0,209.0,193.0,213.0,189.0,214.0,190.0" stroke="black" stroke-width="1" fill="none" />
<polyline points="217.5,185.5,219.0,187.0" stroke="black" stroke-width="1" fill="none" />
<polyline points="222.5,182.5,224.0,184.0" stroke="black" stroke-width="1" fill="none" />
<polyline points="228.5,180.5,227.0,179.0" stroke="black" stroke-width="1" fill="none" />
<polyline points="237.0,173.0,238.5,174.5" stroke="black" stroke-width="1" fill="none" />
<polyline points="247.0,167.0,248.0,168.0" stroke="black" stroke-width="1" fill="none" />
<polyline points="256.5,160.5,258.0,162.0" stroke="black" stroke-width="1" fill="none" />
<polyline points="266.5,154.5,268.0,156.0" stroke="black" stroke-width="1" fill="none" />
<polyline points="271.5,151.5,272.5,152.5" stroke="black" stroke-width="1" fill="none" />
<polyline points="285.5,141.5,287.0,143.0,288.0,141.5,288.0,193.0" stroke="black" stroke-width="1" fill="none" />
<polyline points="280.0,229.0,280.0,130.5" stroke="black" stroke-width="1" fill="none" />
<polyline points="272.0,118.0,272.0,342.5" stroke="black" stroke-width="1" fill="none" />
<polyline points="216.0,376.0,215.5,375.5" stroke="black" stroke-width="1" fill="none" />
<polyline points="211.0,379.0,210.0,378.0" stroke="black" stroke-width="1" fill="none" />
<polyline points="208.0,387.0,208.0,403.0,208.0,406.0,208.0,408.0,208.0,409.5,208.0,414.0,208.0,416.0,208.0,421.0,208.0,424.0,208.0,424.5,208.0,426.5,208.0,433.5" stroke="black" stroke-width="1" fill="none" />
<polyline points="192.0,424.5,192.0,422.0" stroke="black" stroke-width="1" fill="none" />
<polyline points="184.0,415.5,184.0,411.0" stroke="black" stroke-width="1" fill="none" />
<polyline points="182.5,398.5,182.0,398.0,184.0,401.5,184.0,394.0,187.0,395.0,187.5,395.5,191.5,391.5,192.5,392.5,192.0,395.0,192.0,387.5,192.0,383.0,192.0,382.5,192.0,382.0,192.0,380.5,192.0,378.0,192.0,375.0,192.0,374.5,192.0,373.5,192.0,371.0,192.0,364.5,192.0,362.5,192.0,0.0" stroke="black" stroke-width="1" fill="none" />
<polyline points="188.5,4.5,189.0,5.0" stroke="black" stroke-width="1" fill="none" />
<polyline points="182.5,6.5,176.0,0.0,176.0,0.0,176.0,344.0,176.0,345.0,176.0,348.5,176.0,349.5,176.0,355.0,176.0,359.0,176.0,366.5,176.0,367.5,176.0,373.5,176.0,375.5,176.0,381.5,176.0,387.0,176.0,388.0,176.0,391.0,176.0,392.5" stroke="black" stroke-width="1" fill="none" />
<polyline points="176.0,398.5,176.0,407.5" stroke="black" stroke-width="1" fill="none" />
<polyline points="168.0,404.5,168.0,412.0" stroke="black" stroke-width="1" fill="none" />
<polyline points="160.0,410.5,160.0,418.0" stroke="black" stroke-width="1" fill="none" />
<polyline points="152.0,417.5,152.0,421.0" stroke="black" stroke-width="1" fill="none" />
<polyline points="144.0,424.5,144.0,427.0" stroke="black" stroke-width="1" fill="none" />
<polyline points="144.0,435.5,144.0,442.0,145.5,441.5,143.5,439.5,142.5,440.0,511.5,440.0" stroke="black" stroke-width="1" fill="none" />
<polyline points="202.0,386.0,200.5,384.5" stroke="black" stroke-width="1" fill="none" />
<polyline points="208.0,385.0,208.0,22.5,203.5,19.5,200.5,16.5" stroke="black" stroke-width="1" fill="none" />
<polyline points="195.0,19.0,198.0,22.0,194.0,22.0,193.5,22.5,193.5,25.5,189.5,21.5" stroke="black" stroke-width="1" fill="none" />
<polyline points="184.0,24.0,188.5,28.5" stroke="black" stroke-width="1" fill="none" />
<polyline points="183.5,31.5,179.5,27.5" stroke="black" stroke-width="1" fill="none" />
<polyline points="174.0,30.0,178.0,34.0" stroke="black" stroke-width="1" fill="none" />
<polyline points="173.0,37.0,169.0,33.0" stroke="black" stroke-width="1" fill="none" />
<polyline points="163.5,35.5,168.5,40.5" stroke="black" stroke-width="1" fill="none" />
<polyline points="159.5,40.5,158.0,42.0,157.0,43.0,156.0,44.0,153.5,41.5,158.5,46.5" stroke="black" stroke-width="1" fill="none" />
<polyline points="163.5,43.5,158.5,38.5,155.0,35.0,153.5,33.5" stroke="black" stroke-width="1" fill="none" />
<polyline points="158.5,30.5,128.0,0.0,128.0,0.0,128.0,324.0,128.0,328.0,128.0,330.5" stroke="black" stroke-width="1" fill="none" />
<polyline points="136.0,332.5,136.0,327.0" stroke="black" stroke-width="1" fill="none" />
<polyline points="136.0,337.0,136.0,337.5" stroke="black" stroke-width="1" fill="none" />
<polyline points="144.0,339.0,144.0,335.0" stroke="black" stroke-width="1" fill="none" />
<polyline points="152.0,337.0,152.0,340.0,152.0,340.5,152.0,341.0,152.0,342.0,152.0,342.5,152.0,346.0,152.0,352.5,152.0,355.5,152.0,356.0" stroke="black" stroke-width="1" fill="none" />
<polyline points="144.0,354.5,144.0,358.5" stroke="black" stroke-width="1" fill="none" />
<polyline points="152.0,365.0,152.0,365.5" stroke="black" stroke-width="1" fill="none" />
<polyline points="160.0,365.0,160.0,370.5,160.0,373.5,160.0,374.5" stroke="black" stroke-width="1" fill="none" />
<polyline points="168.0,376.0,168.0,377.5,168.0,373.5,168.0,371.5,168.0,369.5,168.0,367.0,168.0,362.5,168.0,359.5,168.0,354.5,168.0,351.5,168.0,347.5,168.0,340.0,168.0,339.5,168.0,0.0,168.0,0.0,175.0,7.0,176.0,8.0,177.5,9.5" stroke="black" stroke-width="1" fill="none" />
<polyline points="173.0,13.0,174.0,14.0,172.0,12.0,160.0,0.0,160.0,0.0,160.0,339.0,160.0,341.5,160.0,343.0" stroke="black" stroke-width="1" fill="none" />
<polyline points="152.0,335.0,152.0,328.5,152.0,323.5,152.0,319.5,152.0,318.5,152.0,0.0,152.0,0.0,167.5,15.5,168.0,16.0,169.5,17.5" stroke="black" stroke-width="1" fill="none" />
<polyline points="167.0,23.0,144.0,0.0,144.0,0.0,144.0,333.0" stroke="black" stroke-width="1" fill="none" />
<polyline points="136.0,324.5,136.0,314.0,136.0,312.0,136.0,0.0,136.0,0.0,157.5,21.5,159.0,23.0,163.0,27.0" stroke="black" stroke-width="1" fill="none" />
<polyline points="153.0,33.0,120.0,0.0,120.0,0.0,120.0,320.0" stroke="black" stroke-width="1" fill="none" />
<polyline points="112.0,322.5,112.0,315.0,112.0,314.0,112.0,309.5,112.0,307.5,112.0,0.0,112.0,0.0,142.0,30.0,143.0,31.0,148.0,36.0" stroke="black" stroke-width="1" fill="none" />
<polyline points="148.0,44.0,153.5,49.5" stroke="black" stroke-width="1" fill="none" />
<polyline points="148.0,52.0,143.5,47.5,141.5,50.5,139.5,52.5,138.5,53.5,136.5,55.5,133.5,53.5,138.5,58.5" stroke="black" stroke-width="1" fill="none" />
<polyline points="143.5,55.5,138.5,50.5" stroke="black" stroke-width="1" fill="none" />
<polyline points="134.0,46.0,133.0,45.0,131.5,43.5,129.0,41.0,127.0,39.0,88.0,0.0,88.0,0.0,88.0,298.5,88.0,302.0,88.0,312.0,88.0,315.0,88.0,316.5" stroke="black" stroke-width="1" fill="none" />
<polyline points="96.0,320.5,96.0,322.0" stroke="black" stroke-width="1" fill="none" />
<polyline points="104.0,319.0,104.0,316.0,104.0,311.0,104.0,307.5" stroke="black" stroke-width="1" fill="none" />
<polyline points="104.0,301.0,104.0,0.0,104.0,0.0,140.0,36.0" stroke="black" stroke-width="1" fill="none" />
<polyline points="137.0,41.0,96.0,0.0,96.0,0.0,96.0,302.0,96.0,304.5,96.0,307.0" stroke="black" stroke-width="1" fill="none" />
<polyline points="80.0,306.5,80.0,310.0,80.0,305.0,80.0,302.0,80.0,300.0,80.0,0.0,80.0,0.0,119.0,39.0,122.0,42.0,122.5,42.5" stroke="black" stroke-width="1" fill="none" />
<polyline points="120.0,48.0,116.5,44.5" stroke="black" stroke-width="1" fill="none" />
<polyline points="110.0,38.0,72.0,0.0,72.0,0.0,72.0,294.5,72.0,295.5,72.0,300.0,72.0,302.0,72.0,304.0,72.0,307.5,72.0,311.0" stroke="black" stroke-width="1" fill="none" />
<polyline points="64.0,316.5,64.0,324.0,66.5,325.5,67.0,325.0,68.0,324.0,67.5,323.5,64.5,320.5,58.0,314.0,60.0,316.0,60.5,315.5,61.0,320.0,511.5,320.0" stroke="black" stroke-width="1" fill="none" />
<polyline points="216.0,348.0,216.0,34.5" stroke="black" stroke-width="1" fill="none" />
<polyline points="184.0,0.0,184.0,325.0,184.0,326.0,184.0,369.5,184.0,371.0,184.0,378.0,184.0,379.0,184.0,384.0,184.0,386.5,184.0,388.0,184.0,390.5,184.0,392.5" stroke="black" stroke-width="1" fill="none" />
<polyline points="168.0,399.0,168.0,401.0" stroke="black" stroke-width="1" fill="none" />
<polyline points="136.0,423.5,136.0,430.0,136.5,432.0,511.5,432.0" stroke="black" stroke-width="1" fill="none" />
<polyline points="192.0,507.5,192.0,511.5,189.0,507.0,190.0,506.0" stroke="black" stroke-width="1" fill="none" />
<polyline points="182.0,494.0,180.5,492.5,179.0,491.0,175.0,487.0,174.5,488.0,511.5,488.0" stroke="black" stroke-width="1" fill="none" />
<polyline points="511.5,496.0,179.5,496.0" stroke="black" stroke-width="1" fill="none" />
<polyline points="176.0,488.0,177.0,487.0,176.0,484.0,176.0,490.0" stroke="black" stroke-width="1" fill="none" />
<polyline points="169.0,480.0,511.5,480.0" stroke="black" stroke-width="1" fill="none" />
<polyline points="168.0,477.5,168.0,473.0,164.0,472.0,511.5,472.0" stroke="black" stroke-width="1" fill="none" />
<polyline points="164.5,468.5,163.5,467.5,162.5,466.5,161.0,465.0,160.0,464.0,158.5,462.5,158.0,464.0,511.5,464.0" stroke="black" stroke-width="1" fill="none" />
<polyline points="160.0,465.5,160.0,461.0" stroke="black" stroke-width="1" fill="none" />
<polyline points="153.0,456.0,511.5,456.0" stroke="black" stroke-width="1" fill="none" />
<polyline points="152.0,454.0,152.0,448.0,147.5,448.0,511.5,448.0" stroke="black" stroke-width="1" fill="none" />
<polyline points="160.0,362.5,160.0,361.0" stroke="black" stroke-width="1" fill="none" />
<polyline points="112.0,389.0,112.0,394.5,112.0,392.0,111.5,391.5,111.0,391.0,109.5,389.5,109.5,392.0,511.5,392.0" stroke="black" stroke-width="1" fill="none" />
<polyline points="179.5,211.5,178.5,210.5" stroke="black" stroke-width="1" fill="none" />
<polyline points="175.0,215.0,173.0,213.0" stroke="black" stroke-width="1" fill="none" />
<polyline points="168.5,216.5,170.0,218.0" stroke="black" stroke-width="1" fill="none" />
<polyline points="163.5,220.5,163.0,221.0,163.0,219.0,165.0,221.0,161.0,225.0,158.5,222.5" stroke="black" stroke-width="1" fill="none" />
<polyline points="153.5,225.5,155.5,227.5" stroke="black" stroke-width="1" fill="none" />
<polyline points="151.0,231.0,149.0,229.0" stroke="black" stroke-width="1" fill="none" />
<polyline points="145.5,233.5,144.0,232.0" stroke="black" stroke-width="1" fill="none" />
<polyline points="141.0,237.0,138.5,234.5" stroke="black" stroke-width="1" fill="none" />
<polyline points="134.0,238.0,135.5,239.5" stroke="black" stroke-width="1" fill="none" />
<polyline points="131.0,243.0,129.0,241.0" stroke="black" stroke-width="1" fill="none" />
<polyline points="124.5,244.5,126.0,246.0" stroke="black" stroke-width="1" fill="none" />
<polyline points="121.5,249.5,119.5,247.5" stroke="black" stroke-width="1" fill="none" />
<polyline points="114.5,250.5,116.5,252.5" stroke="black" stroke-width="1" fill="none" />
<polyline points="111.5,255.5,109.0,253.0" stroke="black" stroke-width="1" fill="none" />
<polyline points="104.5,256.5,106.5,258.5" stroke="black" stroke-width="1" fill="none" />
<polyline points="101.5,261.5,99.5,259.5" stroke="black" stroke-width="1" fill="none" />
<polyline points="94.5,262.5,97.0,265.0" stroke="black" stroke-width="1" fill="none" />
<polyline points="92.5,268.5,90.0,266.0" stroke="black" stroke-width="1" fill="none" />
<polyline points="85.0,269.0,87.0,271.0" stroke="black" stroke-width="1" fill="none" />
<polyline points="81.5,273.5,79.5,271.5" stroke="black" stroke-width="1" fill="none" />
<polyline points="75.0,275.0,78.0,278.0,76.0,276.0,75.5,276.5,72.0,280.0,70.5,278.5" stroke="black" stroke-width="1" fill="none" />
<polyline points="67.5,283.5,65.0,281.0" stroke="black" stroke-width="1" fill="none" />
<polyline points="61.5,285.5,62.0,286.0" stroke="black" stroke-width="1" fill="none" />
<polyline points="57.5,289.5,55.5,287.5" stroke="black" stroke-width="1" fill="none" />
<polyline points="51.0,291.0,52.0,292.0,56.0,295.5,56.0,299.5,51.5,300.5,50.0,302.0,49.5,304.0,511.5,304.0" stroke="black" stroke-width="1" fill="none" />
<polyline points="181.0,205.0,175.0,199.0,173.0,195.0,173.5,194.5,172.0,196.0,171.0,195.0" stroke="black" stroke-width="1" fill="none" />
<polyline points="168.5,184.5,167.5,183.5,167.0,183.0,165.0,181.0" stroke="black" stroke-width="1" fill="none" />
<polyline points="160.0,176.0,161.0,175.0,157.0,173.0,164.5,180.5" stroke="black" stroke-width="1" fill="none" />
<polyline points="150.0,162.0,151.0,161.0" stroke="black" stroke-width="1" fill="none" />
<polyline points="147.5,156.5,148.0,156.0" stroke="black" stroke-width="1" fill="none" />
<polyline points="140.5,147.5,141.0,147.0,138.5,146.5,149.5,157.5" stroke="black" stroke-width="1" fill="none" />
<polyline points="137.5,142.5,138.5,141.5" stroke="black" stroke-width="1" fill="none" />
<polyline points="127.5,128.5,128.5,127.5,124.5,123.5,125.5,122.5,121.0,121.0,132.5,132.5" stroke="black" stroke-width="1" fill="none" />
<polyline points="120.5,120.5,120.0,120.0" stroke="black" stroke-width="1" fill="none" />
<polyline points="118.0,114.0,119.0,113.0,115.0,109.0,116.0,108.0,112.0,104.0,113.0,103.0" stroke="black" stroke-width="1" fill="none" />
<polyline points="105.0,95.0,106.0,94.0,108.0,92.0,107.5,91.5,106.5,90.5,105.0,89.0,103.0,89.0,102.0,90.0,103.5,87.5,88.0,72.0,89.5,70.5,90.5,69.5,86.5,65.5,88.0,64.0,84.0,68.0,87.5,71.5" stroke="black" stroke-width="1" fill="none" />
<polyline points="92.0,76.0,94.0,74.0,97.5,73.5,103.0,79.0,99.5,76.5,101.0,75.0,102.5,73.5,103.5,72.5,102.5,70.5,107.5,75.5" stroke="black" stroke-width="1" fill="none" />
<polyline points="113.0,73.0,108.0,68.0" stroke="black" stroke-width="1" fill="none" />
<polyline points="113.0,65.0,118.0,70.0,116.0,68.0,115.5,68.5,118.5,65.5,119.5,64.5,121.0,63.0,123.0,61.0,123.0,59.0,128.0,64.0" stroke="black" stroke-width="1" fill="none" />
<polyline points="133.0,61.0,128.0,56.0" stroke="black" stroke-width="1" fill="none" />
<polyline points="131.0,51.0,130.5,50.5" stroke="black" stroke-width="1" fill="none" />
<polyline points="117.5,61.5,122.5,66.5" stroke="black" stroke-width="1" fill="none" />
<polyline points="107.0,51.0,105.0,49.0,102.0,46.0,100.0,44.0,104.0,40.0,64.0,0.0,64.0,0.0,64.0,299.0,64.0,302.0,64.0,304.5" stroke="black" stroke-width="1" fill="none" />
<polyline points="56.0,304.5,56.0,312.5,55.5,312.0,511.5,312.0" stroke="black" stroke-width="1" fill="none" />
<polyline points="511.5,424.0,131.5,424.0" stroke="black" stroke-width="1" fill="none" />
<polyline points="128.5,416.5,126.5,414.5,126.0,416.0,511.5,416.0" stroke="black" stroke-width="1" fill="none" />
<polyline points="128.0,413.5,128.0,418.5" stroke="black" stroke-width="1" fill="none" />
<polyline points="121.0,408.0,511.5,408.0" stroke="black" stroke-width="1" fill="none" />
<polyline points="120.0,406.5,120.0,401.0,115.0,400.0,511.5,400.0" stroke="black" stroke-width="1" fill="none" />
<polyline points="115.5,395.5,115.0,395.0" stroke="black" stroke-width="1" fill="none" />
<polyline points="104.5,384.0,511.5,384.0" stroke="black" stroke-width="1" fill="none" />
<polyline points="106.0,382.0,105.5,382.5,104.0,382.0,104.0,377.0,99.0,376.0,511.5,376.0" stroke="black" stroke-width="1" fill="none" />
<polyline points="511.5,368.0,100.0,368.0,97.0,369.0,99.0,371.0,96.0,368.0,92.0,364.0,92.0,364.0,93.5,362.5,96.0,366.0,96.0,371.0,94.0,368.0,99.0,368.0" stroke="black" stroke-width="1" fill="none" />
<polyline points="88.0,360.0,511.5,360.0" stroke="black" stroke-width="1" fill="none" />
<polyline points="88.0,359.0,88.0,354.5,83.0,352.0,511.5,352.0" stroke="black" stroke-width="1" fill="none" />
<polyline points="80.0,344.0,79.5,344.5,81.0,345.0,75.0,339.0,72.5,336.0,511.5,336.0" stroke="black" stroke-width="1" fill="none" />
<polyline points="80.0,342.0,80.0,347.5,77.5,344.0,511.5,344.0" stroke="black" stroke-width="1" fill="none" />
<polyline points="72.0,335.0,72.0,329.5,70.5,329.5,69.5,330.5,66.5,328.0,511.5,328.0" stroke="black" stroke-width="1" fill="none" />
<polyline points="64.0,320.0,63.5,320.5" stroke="black" stroke-width="1" fill="none" />
<polyline points="56.5,311.5,58.0,310.0" stroke="black" stroke-width="1" fill="none" />
<polyline points="53.5,306.5,54.5,305.5" stroke="black" stroke-width="1" fill="none" />
<polyline points="47.0,297.0,48.0,296.0,48.0,296.0,51.5,299.5,47.5,295.5,46.0,294.0,44.5,291.5,45.0,291.0" stroke="black" stroke-width="1" fill="none" />
<polyline points="40.5,296.5,42.0,298.0" stroke="black" stroke-width="1" fill="none" />
<polyline points="37.0,301.0,35.5,299.5,35.5,300.5,34.5,301.5,32.0,300.5,32.0,305.0,32.5,304.5,31.0,303.0,32.0,299.0,32.0,0.0,32.0,0.0,77.0,45.0,78.0,46.0,80.0,48.0,81.5,49.5,83.0,51.0,81.0,55.0,79.0,57.0,74.0,58.0,73.5,57.5,71.5,55.5,71.0,55.0,68.5,52.5,68.0,52.0,66.0,50.0,16.0,0.0,16.0,0.0,16.0,302.5" stroke="black" stroke-width="1" fill="none" />
<polyline points="24.0,305.0,24.0,309.5,23.0,311.0,21.5,309.5" stroke="black" stroke-width="1" fill="none" />
<polyline points="16.0,311.5,16.0,315.0" stroke="black" stroke-width="1" fill="none" />
<polyline points="8.0,317.5,8.0,319.0,8.0,320.0,1.5,320.0" stroke="black" stroke-width="1" fill="none" />
<polyline points="0.0,312.0,21.5,312.0" stroke="black" stroke-width="1" fill="none" />
<polyline points="40.0,300.5,40.0,0.0,40.0,0.0,81.0,41.0,83.0,43.0,89.0,49.0,91.5,51.5,93.5,53.5,97.5,49.5,95.5,47.5" stroke="black" stroke-width="1" fill="none" />
<polyline points="95.5,39.5,56.0,0.0,56.0,0.0,56.0,294.5" stroke="black" stroke-width="1" fill="none" />
<polyline points="45.5,293.5,38.0,286.0,37.0,283.0,38.0,282.0,33.5,281.5,32.0,280.0" stroke="black" stroke-width="1" fill="none" />
<polyline points="24.0,264.0,25.5,262.5" stroke="black" stroke-width="1" fill="none" />
<polyline points="21.0,259.0,22.0,258.0" stroke="black" stroke-width="1" fill="none" />
<polyline points="17.5,254.5,19.0,253.0,20.0,252.0,21.0,253.0" stroke="black" stroke-width="1" fill="none" />
<polyline points="14.0,254.0,33.5,273.5" stroke="black" stroke-width="1" fill="none" />
<polyline points="13.5,250.5,15.0,249.0,11.0,245.0,13.0,243.0" stroke="black" stroke-width="1" fill="none" />
<polyline points="9.5,238.5,7.5,240.5" stroke="black" stroke-width="1" fill="none" />
<polyline points="4.0,236.0,6.0,234.0" stroke="black" stroke-width="1" fill="none" />
<polyline points="1.5,230.5,2.5,229.5,4.0,228.0,0.0,224.0,0.0,224.0,373.5,224.0" stroke="black" stroke-width="1" fill="none" />
<polyline points="120.0,112.0,101.0,93.0" stroke="black" stroke-width="1" fill="none" />
<polyline points="99.0,85.0,100.0,84.0" stroke="black" stroke-width="1" fill="none" />
<polyline points="95.0,81.0,94.5,81.5,92.0,84.0,87.5,79.5,84.5,83.5,84.0,84.0,83.0,85.0,81.0,87.0,79.0,89.0,78.5,89.5,78.0,86.0,82.0,90.0" stroke="black" stroke-width="1" fill="none" />
<polyline points="77.0,93.0,73.0,89.0" stroke="black" stroke-width="1" fill="none" />
<polyline points="67.0,91.0,72.0,96.0" stroke="black" stroke-width="1" fill="none" />
<polyline points="63.5,96.5,62.5,97.5,62.5,94.5,66.5,98.5" stroke="black" stroke-width="1" fill="none" />
<polyline points="62.0,102.0,57.5,97.5" stroke="black" stroke-width="1" fill="none" />
<polyline points="52.5,100.5,57.0,105.0" stroke="black" stroke-width="1" fill="none" />
<polyline points="52.0,108.0,47.0,103.0,45.5,106.5,44.0,108.0,42.5,106.5,47.0,111.0" stroke="black" stroke-width="1" fill="none" />
<polyline points="42.0,114.0,37.0,109.0" stroke="black" stroke-width="1" fill="none" />
<polyline points="32.0,112.0,36.5,116.5" stroke="black" stroke-width="1" fill="none" />
<polyline points="32.0,120.0,27.0,115.0,26.5,117.5,25.5,118.5,21.5,117.5,26.5,122.5" stroke="black" stroke-width="1" fill="none" />
<polyline points="21.5,125.5,17.5,121.5" stroke="black" stroke-width="1" fill="none" />
<polyline points="12.0,124.0,16.5,128.5" stroke="black" stroke-width="1" fill="none" />
<polyline points="11.0,131.0,7.0,127.0,5.5,130.5,4.5,131.5,2.0,130.0,6.5,134.5" stroke="black" stroke-width="1" fill="none" />
<polyline points="1.0,137.0,0.0,136.0,0.0,136.0,511.5,136.0" stroke="black" stroke-width="1" fill="none" />
<polyline points="103.0,55.0,101.5,53.5" stroke="black" stroke-width="1" fill="none" />
<polyline points="93.5,45.5,88.0,40.0" stroke="black" stroke-width="1" fill="none" />
<polyline points="75.0,45.0,73.5,46.5,69.5,42.5,71.5,40.5,67.0,43.0,92.0,68.0" stroke="black" stroke-width="1" fill="none" />
<polyline points="88.5,56.5,88.0,56.0,87.5,55.5,86.5,54.5" stroke="black" stroke-width="1" fill="none" />
<polyline points="77.5,50.5,76.5,51.5" stroke="black" stroke-width="1" fill="none" />
<polyline points="69.5,61.5,66.0,58.0,64.5,56.5,8.0,0.0,8.0,0.0,8.0,300.0" stroke="black" stroke-width="1" fill="none" />
<polyline points="0.0,302.0,0.0,0.0,0.0,0.0,31.5,31.5,32.0,32.0,47.0,47.0,48.0,48.0,51.0,51.0,53.0,53.0,56.0,56.0,57.0,57.0,60.0,60.0,61.5,61.5,62.0,62.0,64.5,64.5,66.0,66.0,68.0,68.0,69.5,69.5,73.5,65.5,72.5,64.5" stroke="black" stroke-width="1" fill="none" />
<polyline points="74.0,74.0,74.5,74.5" stroke="black" stroke-width="1" fill="none" />
<polyline points="66.5,74.5,64.0,72.0" stroke="black" stroke-width="1" fill="none" />
<polyline points="54.5,70.5,53.5,69.5" stroke="black" stroke-width="1" fill="none" />
<polyline points="51.5,75.5,53.0,77.0" stroke="black" stroke-width="1" fill="none" />
<polyline points="44.0,84.0,43.5,83.5" stroke="black" stroke-width="1" fill="none" />
<polyline points="29.0,85.0,28.0,84.0" stroke="black" stroke-width="1" fill="none" />
<polyline points="28.5,76.5,28.0,76.0,24.0,72.0,22.0,70.0" stroke="black" stroke-width="1" fill="none" />
<polyline points="24.0,64.0,23.0,63.0,20.5,60.5,20.0,60.0" stroke="black" stroke-width="1" fill="none" />
<polyline points="14.0,62.0,11.0,59.0,15.0,55.0,16.5,56.5" stroke="black" stroke-width="1" fill="none" />
<polyline points="10.0,50.0,0.0,40.0,0.0,40.0,511.5,40.0" stroke="black" stroke-width="1" fill="none" />
<polyline points="87.5,39.5,48.0,0.0,48.0,0.0,48.0,301.0" stroke="black" stroke-width="1" fill="none" />
<polyline points="24.0,300.5,24.0,0.0,24.0,0.0,63.5,39.5,65.5,41.5,66.5,42.5,66.0,38.0,68.5,35.5" stroke="black" stroke-width="1" fill="none" />
<polyline points="65.0,31.0,63.5,32.5" stroke="black" stroke-width="1" fill="none" />
<polyline points="60.5,27.5,63.0,25.0" stroke="black" stroke-width="1" fill="none" />
<polyline points="59.5,20.5,57.0,23.0,53.0,19.0,56.0,16.0" stroke="black" stroke-width="1" fill="none" />
<polyline points="53.0,11.0,50.5,13.5" stroke="black" stroke-width="1" fill="none" />
<polyline points="47.5,8.5,50.0,6.0" stroke="black" stroke-width="1" fill="none" />
<polyline points="47.0,1.0,43.5,4.5" stroke="black" stroke-width="1" fill="none" />
<polyline points="35.0,43.0,38.5,46.5,39.5,47.5,43.0,51.0,43.5,51.5,44.0,52.0,44.5,52.5,47.5,55.5,48.0,56.0,48.5,56.5,51.0,59.0,52.5,60.5,53.5,61.5,57.5,65.5" stroke="black" stroke-width="1" fill="none" />
<polyline points="50.0,66.0,47.5,63.5" stroke="black" stroke-width="1" fill="none" />
<polyline points="44.0,68.0,49.5,73.5" stroke="black" stroke-width="1" fill="none" />
<polyline points="43.0,67.0,42.5,66.5" stroke="black" stroke-width="1" fill="none" />
<polyline points="37.5,69.5,36.0,68.0" stroke="black" stroke-width="1" fill="none" />
<polyline points="40.5,64.5,38.0,62.0" stroke="black" stroke-width="1" fill="none" />
<polyline points="41.0,57.0,44.5,60.5" stroke="black" stroke-width="1" fill="none" />
<polyline points="30.5,62.5,29.5,61.5,28.0,60.0,27.5,59.5,24.0,56.0,8.5,40.5" stroke="black" stroke-width="1" fill="none" />
<polyline points="4.0,36.0,0.0,32.0,0.0,32.0,511.5,32.0" stroke="black" stroke-width="1" fill="none" />
<polyline points="87.5,87.5,82.5,82.5" stroke="black" stroke-width="1" fill="none" />
<polyline points="32.0,56.0,23.0,47.0,22.0,46.0,0.0,24.0,0.0,24.0,511.5,24.0" stroke="black" stroke-width="1" fill="none" />
<polyline points="40.0,56.0,33.5,49.5" stroke="black" stroke-width="1" fill="none" />
<polyline points="13.5,69.5,14.5,70.5" stroke="black" stroke-width="1" fill="none" />
<polyline points="7.5,79.5,8.5,80.5" stroke="black" stroke-width="1" fill="none" />
<polyline points="0.0,80.0,511.5,80.0" stroke="black" stroke-width="1" fill="none" />
<polyline points="1.5,73.5,0.0,72.0,0.0,72.0,511.5,72.0" stroke="black" stroke-width="1" fill="none" />
<polyline points="1.5,49.5,0.0,48.0,0.0,48.0,511.5,48.0" stroke="black" stroke-width="1" fill="none" />
<polyline points="32.0,48.0,0.0,16.0,0.0,16.0,511.5,16.0" stroke="black" stroke-width="1" fill="none" />
<polyline points="34.0,42.0,0.0,8.0,0.0,8.0,511.5,8.0" stroke="black" stroke-width="1" fill="none" />
<polyline points="507.0,296.0,0.0,296.0" stroke="black" stroke-width="1" fill="none" />
<polyline points="0.0,288.0,416.5,288.0" stroke="black" stroke-width="1" fill="none" />
<polyline points="19.5,251.5,0.0,232.0,0.0,232.0,463.0,232.0" stroke="black" stroke-width="1" fill="none" />
<polyline points="34.5,304.0,0.0,304.0" stroke="black" stroke-width="1" fill="none" />
<polyline points="0.0,280.0,495.5,280.0" stroke="black" stroke-width="1" fill="none" />
<polyline points="404.5,272.0,0.0,272.0" stroke="black" stroke-width="1" fill="none" />
<polyline points="0.0,264.0,484.5,264.0" stroke="black" stroke-width="1" fill="none" />
<polyline points="394.5,256.0,0.0,256.0" stroke="black" stroke-width="1" fill="none" />
<polyline points="0.0,248.0,474.0,248.0" stroke="black" stroke-width="1" fill="none" />
<polyline points="383.0,240.0,0.0,240.0" stroke="black" stroke-width="1" fill="none" />
<polyline points="0.0,200.0,441.0,200.0" stroke="black" stroke-width="1" fill="none" />
<polyline points="352.0,192.0,0.0,192.0" stroke="black" stroke-width="1" fill="none" />
<polyline points="0.0,184.0,429.5,184.0" stroke="black" stroke-width="1" fill="none" />
<polyline points="341.0,176.0,0.0,176.0" stroke="black" stroke-width="1" fill="none" />
<polyline points="0.0,168.0,419.5,168.0" stroke="black" stroke-width="1" fill="none" />
<polyline points="331.0,160.0,0.0,160.0" stroke="black" stroke-width="1" fill="none" />
<polyline points="0.0,152.0,324.0,152.0" stroke="black" stroke-width="1" fill="none" />
<polyline points="320.5,144.0,0.0,144.0" stroke="black" stroke-width="1" fill="none" />
<polyline points="0.0,128.0,511.5,128.0" stroke="black" stroke-width="1" fill="none" />
<polyline points="511.5,120.0,0.0,120.0" stroke="black" stroke-width="1" fill="none" />
<polyline points="0.0,112.0,511.5,112.0" stroke="black" stroke-width="1" fill="none" />
<polyline points="511.5,104.0,0.0,104.0" stroke="black" stroke-width="1" fill="none" />
<polyline points="0.0,96.0,511.5,96.0" stroke="black" stroke-width="1" fill="none" />
<polyline points="511.5,88.0,0.0,88.0" stroke="black" stroke-width="1" fill="none" />
<polyline points="0.0,64.0,511.5,64.0" stroke="black" stroke-width="1" fill="none" />
<polyline points="511.5,56.0,0.0,56.0" stroke="black" stroke-width="1" fill="none" />
</svg>