<svg xmlns="http://www.w3.org/2000/svg" height="512px" width="512px" version="1.1"><polyline points="153.0,90.0,156.0,98.0,156.0,106.0,155.0,102.0,153.0,90.0" stroke="black" stroke-width="1" fill="none" />
<polyline points="124.0,154.0,130.0,162.0,134.0,170.0,142.0,172.0,146.0,179.0,149.0,187.0,143.0,194.0,146.0,202.0,149.0,206.0,157.0,206.0,160.0,216.0" stroke="black" stroke-width="1" fill="none" />
<polyline points="168.0,204.0,176.0,221.0" stroke="black" stroke-width="1" fill="none" />
<polyline points="170.0,201.0,178.0,200.0,186.0,198.0,194.0,197.0,202.0,196.0,210.0,195.0" stroke="black" stroke-width="1" fill="none" />
<polyline points="222.0,193.0,230.0,192.0" stroke="black" stroke-width="1" fill="none" />
<polyline points="225.0,168.0,226.0,160.0,226.0,152.0,226.0,144.0,230.0,142.0,230.0,139.0" stroke="black" stroke-width="1" fill="none" />
<polyline points="240.0,135.0,248.0,132.0,256.0,131.0,264.0,130.0,272.0,128.0,280.0,127.0,288.0,125.0,296.0,124.0,304.0,123.0,312.0,121.0,320.0,119.0,328.0,119.0,336.0,117.0,344.0,115.0,352.0,115.0,357.0,116.0,358.0,124.0,358.0,132.0" stroke="black" stroke-width="1" fill="none" />
<polyline points="360.0,114.0,368.0,111.0,376.0,109.0,384.0,108.0,392.0,106.0,400.0,105.0,408.0,104.0,416.0,102.0,424.0,101.0,432.0,100.0,440.0,98.0,448.0,97.0,456.0,95.0,464.0,94.0,472.0,93.0,480.0,91.0,485.0,94.0,484.0,102.0,483.0,110.0,482.0,118.0" stroke="black" stroke-width="1" fill="none" />
<polyline points="486.0,131.0,494.0,121.0,491.0,126.0,486.0,134.0,486.0,142.0,485.0,150.0,475.0,158.0,475.0,166.0,471.0,174.0" stroke="black" stroke-width="1" fill="none" />
<polyline points="475.0,158.0,483.0,153.0" stroke="black" stroke-width="1" fill="none" />
<polyline points="487.0,158.0,490.0,152.0,491.0,144.0,486.0,142.0" stroke="black" stroke-width="1" fill="none" />
<polyline points="478.0,159.0,478.0,167.0" stroke="black" stroke-width="1" fill="none" />
<polyline points="436.0,168.0,428.0,161.0" stroke="black" stroke-width="1" fill="none" />
<polyline points="413.0,151.0,405.0,149.0,396.0,143.0,388.0,144.0,384.0,145.0,376.0,147.0,369.0,155.0,365.0,165.0,362.0,173.0,358.0,179.0,356.0,187.0" stroke="black" stroke-width="1" fill="none" />
<polyline points="357.0,172.0,347.0,171.0,343.0,166.0,335.0,161.0,327.0,160.0,319.0,159.0,311.0,161.0,303.0,166.0,295.0,169.0,294.0,176.0,286.0,186.0,278.0,194.0,273.0,196.0,272.0,196.0,267.0,193.0,266.0,185.0,266.0,177.0,264.0,169.0" stroke="black" stroke-width="1" fill="none" />
<polyline points="247.0,169.0,246.0,165.0,246.0,173.0,247.0,181.0,245.0,186.0,253.0,189.0,261.0,187.0,270.0,190.0" stroke="black" stroke-width="1" fill="none" />
<polyline points="286.0,188.0,292.0,180.0,297.0,172.0,305.0,164.0,314.0,163.0" stroke="black" stroke-width="1" fill="none" />
<polyline points="339.0,161.0,329.0,163.0,327.0,165.0,335.0,167.0,337.0,165.0,345.0,169.0,350.0,177.0" stroke="black" stroke-width="1" fill="none" />
<polyline points="360.0,152.0,360.0,153.0,360.0,161.0,358.0,169.0,354.0,184.0,361.0,174.0,364.0,158.0,372.0,151.0,380.0,143.0,388.0,141.0,396.0,140.0" stroke="black" stroke-width="1" fill="none" />
<polyline points="391.0,150.0,388.0,158.0,393.0,162.0,400.0,159.0,408.0,161.0" stroke="black" stroke-width="1" fill="none" />
<polyline points="410.0,150.0,417.0,158.0,424.0,162.0,430.0,170.0,432.0,178.0,437.0,182.0,441.0,190.0" stroke="black" stroke-width="1" fill="none" />
<polyline points="473.0,171.0,465.0,175.0,457.0,177.0,449.0,178.0,441.0,179.0,434.0,176.0,436.0,168.0,423.0,160.0,420.0,153.0,413.0,157.0,405.0,154.0,397.0,155.0,395.0,153.0,387.0,154.0,386.0,160.0,381.0,163.0,380.0,167.0,378.0,164.0,382.0,154.0,380.0,146.0,380.0,146.0,377.0,150.0,385.0,149.0,393.0,147.0,401.0,141.0,396.0,149.0,395.0,154.0,392.0,160.0,395.0,167.0,398.0,170.0,409.0,173.0,407.0,171.0,407.0,175.0" stroke="black" stroke-width="1" fill="none" />
<polyline points="413.0,158.0,408.0,157.0,409.0,149.0" stroke="black" stroke-width="1" fill="none" />
<polyline points="386.0,157.0,378.0,158.0" stroke="black" stroke-width="1" fill="none" />
<polyline points="362.0,135.0,361.0,127.0,360.0,119.0,364.0,111.0" stroke="black" stroke-width="1" fill="none" />
<polyline points="264.0,168.0,256.0,168.0,248.0,162.0,241.0,163.0,240.0,168.0,232.0,176.0,227.0,169.0,225.0,176.0,238.0,171.0,240.0,163.0,244.0,156.0,243.0,148.0,241.0,140.0,247.0,132.0" stroke="black" stroke-width="1" fill="none" />
<polyline points="243.0,157.0,235.0,157.0" stroke="black" stroke-width="1" fill="none" />
<polyline points="226.0,175.0,218.0,178.0,210.0,177.0,206.0,180.0,214.0,174.0" stroke="black" stroke-width="1" fill="none" />
<polyline points="201.0,175.0,205.0,177.0,206.0,185.0,207.0,191.0,215.0,190.0,227.0,189.0,235.0,187.0" stroke="black" stroke-width="1" fill="none" />
<polyline points="219.0,171.0,219.0,163.0,218.0,155.0,217.0,147.0,215.0,139.0" stroke="black" stroke-width="1" fill="none" />
<polyline points="149.0,181.0,141.0,169.0,136.0,172.0,128.0,158.0,120.0,155.0,112.0,155.0,104.0,157.0,96.0,159.0,88.0,160.0,80.0,162.0,72.0,163.0,64.0,164.0,56.0,166.0,48.0,168.0,40.0,168.0,32.0,170.0,24.0,172.0,16.0,172.0,8.0,174.0,0.0,175.0" stroke="black" stroke-width="1" fill="none" />
<polyline points="37.0,207.0,38.0,215.0,42.0,223.0,44.0,223.0,36.0,211.0,39.0,208.0,42.0,216.0" stroke="black" stroke-width="1" fill="none" />
<polyline points="66.0,229.0,74.0,238.0,82.0,236.0,90.0,236.0,98.0,234.0,106.0,233.0,114.0,232.0,122.0,230.0,130.0,230.0,138.0,228.0,146.0,227.0,154.0,226.0" stroke="black" stroke-width="1" fill="none" />
<polyline points="182.0,234.0,178.0,226.0,174.0,218.0,170.0,210.0,168.0,202.0,158.0,196.0,150.0,194.0,154.0,194.0,161.0,202.0" stroke="black" stroke-width="1" fill="none" />
<polyline points="160.0,218.0,156.0,210.0,152.0,202.0,150.0,194.0,143.0,188.0" stroke="black" stroke-width="1" fill="none" />
<polyline points="67.0,232.0,64.0,239.0,56.0,241.0,48.0,242.0,40.0,243.0,32.0,245.0,24.0,245.0,16.0,247.0,8.0,248.0,0.0,249.0" stroke="black" stroke-width="1" fill="none" />
<polyline points="72.0,333.0,75.0,341.0,79.0,349.0,81.0,357.0,83.0,360.0,91.0,362.0,99.0,363.0,107.0,364.0,115.0,364.0,123.0,362.0,131.0,362.0,139.0,360.0,147.0,360.0,155.0,358.0,163.0,358.0,171.0,356.0,179.0,356.0,187.0,354.0,195.0,354.0,203.0,352.0,211.0,351.0,219.0,350.0" stroke="black" stroke-width="1" fill="none" />
<polyline points="227.0,378.0,219.0,379.0,211.0,380.0,203.0,381.0,195.0,382.0,187.0,382.0,179.0,384.0,171.0,384.0,163.0,388.0,164.0,385.0,162.0,393.0,162.0,401.0,162.0,409.0,161.0,417.0,160.0,425.0,160.0,433.0,159.0,441.0,159.0,449.0,158.0,457.0,158.0,465.0,157.0,473.0,157.0,481.0,157.0,489.0,156.0,497.0,155.0,505.0" stroke="black" stroke-width="1" fill="none" />
<polyline points="215.0,458.0,223.0,455.0,231.0,454.0,239.0,454.0,247.0,453.0,255.0,452.0,263.0,452.0,269.0,453.0,272.0,461.0,274.0,469.0,278.0,477.0,284.0,485.0,278.0,493.0,260.0,496.0,261.0,496.0,269.0,492.0,280.0,491.0,280.0,496.0,279.0,504.0" stroke="black" stroke-width="1" fill="none" />
<polyline points="282.0,480.0,274.0,468.0" stroke="black" stroke-width="1" fill="none" />
<polyline points="216.0,456.0,215.0,464.0,215.0,472.0,215.0,480.0,215.0,488.0,215.0,496.0,215.0,504.0" stroke="black" stroke-width="1" fill="none" />
<polyline points="210.0,510.0,210.0,502.0,210.0,494.0,210.0,486.0,210.0,478.0,210.0,470.0,210.0,462.0,210.0,454.0,210.0,446.0,210.0,438.0,210.0,430.0,210.0,422.0,210.0,414.0,202.0,418.0,206.0,416.0,207.0,424.0,206.0,432.0,206.0,440.0,206.0,448.0,205.0,456.0" stroke="black" stroke-width="1" fill="none" />
<polyline points="228.0,374.0,220.0,375.0,212.0,376.0,204.0,377.0,196.0,377.0,188.0,379.0,180.0,379.0,172.0,381.0,164.0,381.0,156.0,383.0,148.0,384.0,140.0,387.0,142.0,385.0,140.0,393.0,139.0,401.0,138.0,409.0,138.0,417.0,137.0,425.0,136.0,433.0,136.0,441.0,135.0,449.0,134.0,457.0,134.0,465.0,133.0,473.0,132.0,483.0,132.0,491.0,131.0,499.0,130.0,507.0" stroke="black" stroke-width="1" fill="none" />
<polyline points="70.0,336.0,78.0,332.0,86.0,332.0,94.0,330.0,102.0,329.0,110.0,328.0,118.0,327.0,126.0,326.0,134.0,324.0,142.0,324.0,150.0,322.0,158.0,322.0,166.0,320.0,174.0,319.0,182.0,318.0,190.0,317.0,198.0,316.0,206.0,315.0,214.0,314.0,222.0,325.0" stroke="black" stroke-width="1" fill="none" />
<polyline points="215.0,316.0,220.0,324.0,223.0,332.0,224.0,340.0,226.0,348.0,228.0,357.0,230.0,365.0,231.0,373.0" stroke="black" stroke-width="1" fill="none" />
<polyline points="472.0,407.0,480.0,420.0,488.0,433.0,496.0,447.0" stroke="black" stroke-width="1" fill="none" />
<polyline points="476.0,442.0,478.0,450.0,478.0,458.0,478.0,466.0,483.0,466.0,491.0,468.0,499.0,469.0,507.0,471.0" stroke="black" stroke-width="1" fill="none" />
<polyline points="497.0,449.0,492.0,441.0,487.0,433.0,483.0,425.0,477.0,417.0,472.0,409.0,472.0,401.0,474.0,393.0,476.0,385.0,477.0,377.0,477.0,369.0,477.0,361.0,477.0,353.0,478.0,345.0" stroke="black" stroke-width="1" fill="none" />
<polyline points="0.0,0.0,511.5,0.0" stroke="black" stroke-width="1" fill="none" />
<polyline points="504.0,0.0,504.0,358.0" stroke="black" stroke-width="1" fill="none" />
<polyline points="475.5,380.5,344.5,511.5" stroke="black" stroke-width="1" fill="none" />
<polyline points="336.5,511.5,476.5,371.5" stroke="black" stroke-width="1" fill="none" />
<polyline points="472.5,399.5,360.5,511.5" stroke="black" stroke-width="1" fill="none" />
<polyline points="352.5,511.5,475.0,389.0" stroke="black" stroke-width="1" fill="none" />
<polyline points="477.0,373.0,290.0,186.0,288.0,185.5,288.0,511.5,288.5,511.5,493.0,307.0,495.5,303.5,494.0,302.0,493.5,301.5,492.5,300.5" stroke="black" stroke-width="1" fill="none" />
<polyline points="491.0,317.0,296.5,511.5" stroke="black" stroke-width="1" fill="none" />
<polyline points="304.5,511.5,488.5,327.5" stroke="black" stroke-width="1" fill="none" />
<polyline points="500.0,316.0,500.5,316.5" stroke="black" stroke-width="1" fill="none" />
<polyline points="511.0,303.0,509.5,301.5" stroke="black" stroke-width="1" fill="none" />
<polyline points="510.5,294.5,508.5,292.5,505.5,289.5,505.0,289.0,504.5,288.5,504.0,288.0" stroke="black" stroke-width="1" fill="none" />
<polyline points="498.5,285.5,280.0,504.0,279.5,503.5,287.5,511.5" stroke="black" stroke-width="1" fill="none" />
<polyline points="280.5,511.5,491.0,301.0" stroke="black" stroke-width="1" fill="none" />
<polyline points="497.5,278.5,282.0,494.0,280.5,496.5,295.5,511.5" stroke="black" stroke-width="1" fill="none" />
<polyline points="312.5,511.5,477.5,346.5" stroke="black" stroke-width="1" fill="none" />
<polyline points="477.0,363.0,328.5,511.5" stroke="black" stroke-width="1" fill="none" />
<polyline points="320.5,511.5,477.0,355.0" stroke="black" stroke-width="1" fill="none" />
<polyline points="495.0,311.0,361.5,177.5,360.0,177.5,360.0,511.5" stroke="black" stroke-width="1" fill="none" />
<polyline points="368.5,511.5,471.0,409.0,472.0,407.5,472.0,511.5,472.5,511.5,487.0,497.0" stroke="black" stroke-width="1" fill="none" />
<polyline points="495.5,504.5,493.0,507.0,497.0,511.0,496.5,511.5" stroke="black" stroke-width="1" fill="none" />
<polyline points="490.5,509.5,488.5,511.5" stroke="black" stroke-width="1" fill="none" />
<polyline points="485.0,507.0,480.5,511.5" stroke="black" stroke-width="1" fill="none" />
<polyline points="464.5,511.5,485.5,490.5" stroke="black" stroke-width="1" fill="none" />
<polyline points="484.0,484.0,456.5,511.5" stroke="black" stroke-width="1" fill="none" />
<polyline points="448.5,511.5,481.5,478.5" stroke="black" stroke-width="1" fill="none" />
<polyline points="478.5,473.5,440.5,511.5" stroke="black" stroke-width="1" fill="none" />
<polyline points="432.5,511.5,477.5,466.5,480.0,466.0,480.0,511.5" stroke="black" stroke-width="1" fill="none" />
<polyline points="505.0,481.0,511.5,487.5" stroke="black" stroke-width="1" fill="none" />
<polyline points="499.0,475.0,498.5,474.5" stroke="black" stroke-width="1" fill="none" />
<polyline points="496.0,468.5,496.0,511.5" stroke="black" stroke-width="1" fill="none" />
<polyline points="511.5,495.5,486.0,470.0,488.0,467.5,488.0,511.5" stroke="black" stroke-width="1" fill="none" />
<polyline points="511.5,503.5,205.5,197.5,208.0,195.5,208.0,315.0" stroke="black" stroke-width="1" fill="none" />
<polyline points="216.0,315.0,216.0,178.5,219.5,179.5,228.0,188.0,229.0,187.0,234.0,182.0,237.5,181.5,240.5,184.5" stroke="black" stroke-width="1" fill="none" />
<polyline points="245.0,179.0,246.5,177.5,248.0,174.5,248.0,187.0,248.0,188.5,248.0,454.0,244.5,451.5,315.0,381.0,315.5,380.5,316.0,380.0,316.5,379.5,318.0,378.0,318.5,377.5,320.5,375.5,321.5,374.5,466.5,229.5" stroke="black" stroke-width="1" fill="none" />
<polyline points="469.0,235.0,256.0,448.0,255.5,448.5,252.5,451.5" stroke="black" stroke-width="1" fill="none" />
<polyline points="261.5,450.5,473.5,238.5,476.5,236.5,474.0,234.0" stroke="black" stroke-width="1" fill="none" />
<polyline points="480.5,232.5,482.5,234.5" stroke="black" stroke-width="1" fill="none" />
<polyline points="479.0,239.0,480.5,240.5,481.5,241.5,484.5,244.5" stroke="black" stroke-width="1" fill="none" />
<polyline points="489.5,249.5,491.0,251.0,493.5,253.5,494.0,254.0,498.0,250.0,497.5,249.5,499.5,251.5,503.0,255.0,503.5,255.5,504.0,256.0,506.0,258.0,506.5,258.5,508.0,260.0,511.5,263.5" stroke="black" stroke-width="1" fill="none" />
<polyline points="511.5,255.5,501.5,245.5,500.0,244.0,499.0,243.0" stroke="black" stroke-width="1" fill="none" />
<polyline points="504.5,240.5,507.5,243.5,508.5,244.5,511.5,247.5" stroke="black" stroke-width="1" fill="none" />
<polyline points="511.5,239.5,507.0,235.0" stroke="black" stroke-width="1" fill="none" />
<polyline points="511.5,231.5,508.0,228.0,507.5,227.5,506.5,226.5" stroke="black" stroke-width="1" fill="none" />
<polyline points="511.5,223.5,511.5,223.5,509.5,221.5,507.0,219.0" stroke="black" stroke-width="1" fill="none" />
<polyline points="501.0,229.0,503.5,231.5" stroke="black" stroke-width="1" fill="none" />
<polyline points="496.5,232.5,494.5,230.5" stroke="black" stroke-width="1" fill="none" />
<polyline points="490.0,234.0,489.0,233.0" stroke="black" stroke-width="1" fill="none" />
<polyline points="487.5,256.5,487.0,257.0" stroke="black" stroke-width="1" fill="none" />
<polyline points="490.5,261.5,278.0,474.0" stroke="black" stroke-width="1" fill="none" />
<polyline points="281.5,478.5,496.5,263.5,499.5,259.5,499.0,259.0,503.0,263.0,511.5,271.5" stroke="black" stroke-width="1" fill="none" />
<polyline points="508.0,276.0,511.5,279.5" stroke="black" stroke-width="1" fill="none" />
<polyline points="507.0,283.0,505.5,281.5,503.5,279.5,501.0,277.0" stroke="black" stroke-width="1" fill="none" />
<polyline points="499.5,268.5,501.5,266.5" stroke="black" stroke-width="1" fill="none" />
<polyline points="495.5,272.5,285.5,482.5,284.5,484.5,311.5,511.5" stroke="black" stroke-width="1" fill="none" />
<polyline points="279.5,511.5,278.5,510.5" stroke="black" stroke-width="1" fill="none" />
<polyline points="263.5,511.5,262.0,510.0" stroke="black" stroke-width="1" fill="none" />
<polyline points="263.5,503.5,268.5,508.5,272.0,511.5,272.0,492.5" stroke="black" stroke-width="1" fill="none" />
<polyline points="280.0,489.5,280.0,511.5" stroke="black" stroke-width="1" fill="none" />
<polyline points="296.0,511.5,296.0,175.5,297.0,177.0,477.5,357.5" stroke="black" stroke-width="1" fill="none" />
<polyline points="478.0,418.0,384.5,511.5" stroke="black" stroke-width="1" fill="none" />
<polyline points="376.5,511.5,474.5,413.5" stroke="black" stroke-width="1" fill="none" />
<polyline points="471.0,407.0,272.5,208.5" stroke="black" stroke-width="1" fill="none" />
<polyline points="276.0,204.0,279.5,200.5,282.0,198.0,282.5,197.5,284.5,196.5,475.5,387.5" stroke="black" stroke-width="1" fill="none" />
<polyline points="477.0,365.0,294.0,182.0,297.5,182.5,299.5,180.5" stroke="black" stroke-width="1" fill="none" />
<polyline points="294.0,176.0,351.5,176.0,349.0,179.0,228.0,300.0,224.0,296.0,439.5,511.5" stroke="black" stroke-width="1" fill="none" />
<polyline points="424.5,511.5,478.0,458.0" stroke="black" stroke-width="1" fill="none" />
<polyline points="478.0,450.0,464.5,463.5,461.0,467.0,416.5,511.5" stroke="black" stroke-width="1" fill="none" />
<polyline points="408.5,511.5,477.0,443.0,479.0,441.0,484.5,435.5,487.0,439.0,253.0,205.0,256.5,207.5,247.5,216.5" stroke="black" stroke-width="1" fill="none" />
<polyline points="243.0,221.0,239.0,225.0" stroke="black" stroke-width="1" fill="none" />
<polyline points="237.0,235.0,263.5,208.5,261.5,205.5,483.5,427.5,482.5,429.5,400.5,511.5" stroke="black" stroke-width="1" fill="none" />
<polyline points="392.5,511.5,480.0,424.0,480.0,419.5,480.0,462.5" stroke="black" stroke-width="1" fill="none" />
<polyline points="484.5,451.5,488.5,447.5,491.5,444.5,492.5,443.5" stroke="black" stroke-width="1" fill="none" />
<polyline points="489.0,439.0,489.5,438.5,487.5,439.5,495.0,447.0" stroke="black" stroke-width="1" fill="none" />
<polyline points="489.5,449.5,249.0,209.0" stroke="black" stroke-width="1" fill="none" />
<polyline points="257.0,201.0,256.5,200.5" stroke="black" stroke-width="1" fill="none" />
<polyline points="265.5,201.5,266.0,202.0,266.5,202.5,267.5,203.5" stroke="black" stroke-width="1" fill="none" />
<polyline points="272.0,200.0,473.0,401.0" stroke="black" stroke-width="1" fill="none" />
<polyline points="476.0,380.0,289.0,193.0,289.5,190.5,290.0,190.0,286.0,192.0,511.5,192.0" stroke="black" stroke-width="1" fill="none" />
<polyline points="506.0,170.0,505.5,169.5" stroke="black" stroke-width="1" fill="none" />
<polyline points="510.5,166.5,511.5,167.5" stroke="black" stroke-width="1" fill="none" />
<polyline points="496.0,157.0,496.0,356.5" stroke="black" stroke-width="1" fill="none" />
<polyline points="511.5,287.5,511.5,287.5" stroke="black" stroke-width="1" fill="none" />
<polyline points="504.0,272.0,492.0,260.0" stroke="black" stroke-width="1" fill="none" />
<polyline points="486.0,258.0,275.5,468.5,274.0,466.0,319.5,511.5" stroke="black" stroke-width="1" fill="none" />
<polyline points="303.5,511.5,282.0,490.0" stroke="black" stroke-width="1" fill="none" />
<polyline points="280.0,481.5,280.0,195.0,277.0,197.0,474.0,394.0" stroke="black" stroke-width="1" fill="none" />
<polyline points="488.0,432.5,488.0,456.0,486.0,454.0,481.5,449.5,482.0,446.0,486.5,441.5" stroke="black" stroke-width="1" fill="none" />
<polyline points="478.5,446.5,227.0,195.0,224.0,193.0,224.0,328.5,223.5,328.0,511.5,328.0" stroke="black" stroke-width="1" fill="none" />
<polyline points="482.5,253.5,273.5,462.5" stroke="black" stroke-width="1" fill="none" />
<polyline points="271.5,456.5,478.5,249.5" stroke="black" stroke-width="1" fill="none" />
<polyline points="477.0,243.0,269.0,451.0,270.5,454.5,327.5,511.5" stroke="black" stroke-width="1" fill="none" />
<polyline points="335.5,511.5,223.5,399.5" stroke="black" stroke-width="1" fill="none" />
<polyline points="227.0,405.0,211.5,420.5,211.0,419.0,245.0,453.0" stroke="black" stroke-width="1" fill="none" />
<polyline points="239.5,448.5,290.0,398.0,294.0,394.0,297.0,391.0,300.5,387.5,303.0,385.0,303.5,384.5,310.0,378.0,311.0,377.0,328.0,360.0,328.5,359.5,463.0,225.0" stroke="black" stroke-width="1" fill="none" />
<polyline points="459.5,220.5,394.0,286.0" stroke="black" stroke-width="1" fill="none" />
<polyline points="392.0,280.0,456.0,216.0" stroke="black" stroke-width="1" fill="none" />
<polyline points="453.0,211.0,387.0,277.0,383.0,273.0,448.5,207.5,450.5,205.5,452.0,204.0,450.0,202.0,456.5,208.5" stroke="black" stroke-width="1" fill="none" />
<polyline points="468.0,212.0,469.5,213.5" stroke="black" stroke-width="1" fill="none" />
<polyline points="467.0,219.0,469.5,221.5" stroke="black" stroke-width="1" fill="none" />
<polyline points="471.0,207.0,469.0,205.0" stroke="black" stroke-width="1" fill="none" />
<polyline points="471.0,199.0,470.5,198.5" stroke="black" stroke-width="1" fill="none" />
<polyline points="472.5,192.5,471.5,191.5" stroke="black" stroke-width="1" fill="none" />
<polyline points="464.0,186.5,464.0,511.5" stroke="black" stroke-width="1" fill="none" />
<polyline points="478.0,462.0,213.0,197.0" stroke="black" stroke-width="1" fill="none" />
<polyline points="216.5,192.5,218.0,194.0,220.0,196.0,478.5,454.5" stroke="black" stroke-width="1" fill="none" />
<polyline points="496.0,455.0,496.0,437.0" stroke="black" stroke-width="1" fill="none" />
<polyline points="504.0,471.0,504.0,511.5" stroke="black" stroke-width="1" fill="none" />
<polyline points="337.0,343.0,364.0,316.0,365.5,314.5,378.0,302.0,379.5,300.5,389.0,291.0" stroke="black" stroke-width="1" fill="none" />
<polyline points="377.5,294.5,369.5,302.5,369.0,303.0,366.0,306.0,364.0,308.0,334.5,337.5,333.0,339.0,332.0,340.0,336.0,344.0,329.5,350.5,328.5,351.5,324.5,355.5,324.0,356.0,321.0,359.0,317.5,362.5,313.0,367.0,311.5,368.5,305.5,374.5" stroke="black" stroke-width="1" fill="none" />
<polyline points="302.5,369.5,303.5,368.5,305.0,367.0,312.5,359.5,308.5,355.5,309.0,355.0,311.5,352.5,312.0,352.0,312.5,351.5,313.5,350.5" stroke="black" stroke-width="1" fill="none" />
<polyline points="320.5,351.5,322.5,349.5" stroke="black" stroke-width="1" fill="none" />
<polyline points="327.0,345.0,329.5,342.5" stroke="black" stroke-width="1" fill="none" />
<polyline points="326.5,337.5,324.0,340.0" stroke="black" stroke-width="1" fill="none" />
<polyline points="332.0,332.0,381.0,283.0" stroke="black" stroke-width="1" fill="none" />
<polyline points="381.5,274.5,334.0,322.0,333.5,322.5,331.5,324.5,330.5,325.5,329.0,327.0,328.5,327.5,328.0,328.0" stroke="black" stroke-width="1" fill="none" />
<polyline points="326.5,321.5,329.0,319.0,331.0,317.0,444.5,203.5" stroke="black" stroke-width="1" fill="none" />
<polyline points="441.0,199.0,327.0,313.0,323.5,316.5,321.0,319.0,317.0,315.0,318.0,314.0,318.5,313.5,319.5,312.5,320.0,312.0,438.0,194.0,440.0,192.0,413.0,165.0,414.5,169.5,420.0,164.0,422.5,166.5,426.0,170.0,427.0,171.0,429.5,173.5,429.5,178.5,384.0,224.0,382.5,225.5,322.5,285.5,322.0,286.0,320.0,288.0,318.5,289.5,317.5,290.5,313.5,286.5,374.0,226.0,377.5,222.5,378.5,221.5,380.0,220.0,428.5,171.5" stroke="black" stroke-width="1" fill="none" />
<polyline points="422.5,169.5,418.0,174.0,417.0,175.0,416.5,175.5,415.5,175.5,467.0,227.0" stroke="black" stroke-width="1" fill="none" />
<polyline points="452.0,196.0,450.0,194.0" stroke="black" stroke-width="1" fill="none" />
<polyline points="456.0,191.0,456.0,511.5" stroke="black" stroke-width="1" fill="none" />
<polyline points="490.5,322.5,366.5,198.5,362.5,202.5,489.5,329.5" stroke="black" stroke-width="1" fill="none" />
<polyline points="491.5,259.5,407.0,175.0,408.0,174.5,408.0,511.5" stroke="black" stroke-width="1" fill="none" />
<polyline points="343.5,511.5,231.0,399.0" stroke="black" stroke-width="1" fill="none" />
<polyline points="236.0,404.0,211.0,429.0,210.0,426.0,237.5,453.5,235.0,453.0,237.0,451.0" stroke="black" stroke-width="1" fill="none" />
<polyline points="226.5,453.5,284.5,395.5" stroke="black" stroke-width="1" fill="none" />
<polyline points="299.0,381.0,300.5,379.5" stroke="black" stroke-width="1" fill="none" />
<polyline points="295.0,377.0,294.5,377.5" stroke="black" stroke-width="1" fill="none" />
<polyline points="300.0,372.0,301.0,371.0" stroke="black" stroke-width="1" fill="none" />
<polyline points="299.5,364.5,300.5,363.5" stroke="black" stroke-width="1" fill="none" />
<polyline points="305.5,358.5,306.5,357.5" stroke="black" stroke-width="1" fill="none" />
<polyline points="275.5,372.5,271.0,377.0,267.0,381.0,266.5,381.5" stroke="black" stroke-width="1" fill="none" />
<polyline points="282.0,390.0,218.0,454.0,215.0,457.0,211.5,460.5,210.5,458.5,215.5,463.5,215.0,465.0,211.5,468.5,210.5,466.5,215.5,471.5,215.0,473.0,211.5,476.5,211.0,475.0,215.5,479.5,215.0,481.0,211.5,484.5,211.0,483.0,215.0,487.0,215.0,489.0,211.5,492.5,211.0,491.0,215.0,495.0,215.0,497.0,211.5,500.5,211.0,499.0,215.0,503.0,215.0,505.0,211.5,508.5,211.0,507.0,215.0,511.0" stroke="black" stroke-width="1" fill="none" />
<polyline points="240.0,510.5,240.0,511.5" stroke="black" stroke-width="1" fill="none" />
<polyline points="256.0,511.5,256.0,506.0" stroke="black" stroke-width="1" fill="none" />
<polyline points="264.0,511.5,264.0,497.5" stroke="black" stroke-width="1" fill="none" />
<polyline points="211.0,453.0,279.5,384.5" stroke="black" stroke-width="1" fill="none" />
<polyline points="277.5,378.5,211.5,444.5,210.0,442.0,223.0,455.0" stroke="black" stroke-width="1" fill="none" />
<polyline points="216.5,456.5,210.0,450.0,206.5,449.5,193.0,463.0" stroke="black" stroke-width="1" fill="none" />
<polyline points="196.0,468.0,200.5,463.5" stroke="black" stroke-width="1" fill="none" />
<polyline points="190.5,457.5,206.5,441.5" stroke="black" stroke-width="1" fill="none" />
<polyline points="211.0,437.0,265.5,382.5" stroke="black" stroke-width="1" fill="none" />
<polyline points="274.0,366.0,243.0,397.0,239.0,399.0,351.5,511.5" stroke="black" stroke-width="1" fill="none" />
<polyline points="198.0,470.0,177.0,449.0,180.5,451.5,191.5,440.5,193.0,439.0,196.5,435.5,200.0,432.0,207.0,425.0,207.0,423.0,202.0,418.0,202.0,422.0,206.5,417.5,208.0,422.0,208.0,474.0" stroke="black" stroke-width="1" fill="none" />
<polyline points="186.0,466.0,182.0,462.0,181.0,461.0,180.5,460.5" stroke="black" stroke-width="1" fill="none" />
<polyline points="184.0,456.0,206.5,433.5,209.5,433.5,230.5,454.5" stroke="black" stroke-width="1" fill="none" />
<polyline points="197.0,427.0,192.5,431.5,191.5,432.5,180.5,443.5,177.0,441.0,201.5,465.5" stroke="black" stroke-width="1" fill="none" />
<polyline points="204.0,460.0,176.0,432.0" stroke="black" stroke-width="1" fill="none" />
<polyline points="180.5,435.5,195.5,420.5" stroke="black" stroke-width="1" fill="none" />
<polyline points="191.5,415.5,207.5,431.5" stroke="black" stroke-width="1" fill="none" />
<polyline points="211.5,412.5,218.5,405.5" stroke="black" stroke-width="1" fill="none" />
<polyline points="213.0,397.0,267.5,451.5" stroke="black" stroke-width="1" fill="none" />
<polyline points="241.5,390.5,271.5,360.5" stroke="black" stroke-width="1" fill="none" />
<polyline points="271.0,353.0,272.0,352.0,269.5,354.5,239.5,384.5" stroke="black" stroke-width="1" fill="none" />
<polyline points="237.0,379.0,269.0,347.0" stroke="black" stroke-width="1" fill="none" />
<polyline points="269.0,339.0,235.0,373.0" stroke="black" stroke-width="1" fill="none" />
<polyline points="232.0,378.0,232.0,455.5" stroke="black" stroke-width="1" fill="none" />
<polyline points="199.5,408.5,200.0,408.0" stroke="black" stroke-width="1" fill="none" />
<polyline points="195.5,411.5,182.5,398.5" stroke="black" stroke-width="1" fill="none" />
<polyline points="178.0,402.0,185.5,409.5,186.5,410.5,187.0,411.0" stroke="black" stroke-width="1" fill="none" />
<polyline points="183.5,415.5,207.5,439.5" stroke="black" stroke-width="1" fill="none" />
<polyline points="183.5,424.5,182.0,426.0,177.0,425.0,207.0,455.0" stroke="black" stroke-width="1" fill="none" />
<polyline points="207.5,447.5,179.5,419.5" stroke="black" stroke-width="1" fill="none" />
<polyline points="168.0,414.0,168.0,411.0,168.0,409.5,168.0,409.0,168.0,405.0,168.0,385.5" stroke="black" stroke-width="1" fill="none" />
<polyline points="176.0,384.5,176.0,477.0,176.0,478.0,176.0,482.5,176.0,484.0,176.0,485.5" stroke="black" stroke-width="1" fill="none" />
<polyline points="184.0,488.0,184.0,489.0,184.0,487.5,184.0,384.0" stroke="black" stroke-width="1" fill="none" />
<polyline points="192.0,383.0,192.0,478.5" stroke="black" stroke-width="1" fill="none" />
<polyline points="200.0,478.0,200.0,382.0" stroke="black" stroke-width="1" fill="none" />
<polyline points="208.0,381.0,208.0,420.5" stroke="black" stroke-width="1" fill="none" />
<polyline points="204.0,412.0,188.5,396.5" stroke="black" stroke-width="1" fill="none" />
<polyline points="195.5,395.5,252.5,452.5" stroke="black" stroke-width="1" fill="none" />
<polyline points="260.0,452.0,206.0,398.0,205.5,397.5,204.5,396.5" stroke="black" stroke-width="1" fill="none" />
<polyline points="216.0,380.0,216.0,457.5" stroke="black" stroke-width="1" fill="none" />
<polyline points="272.0,463.0,272.0,197.0,274.0,198.0,275.0,197.0" stroke="black" stroke-width="1" fill="none" />
<polyline points="267.5,195.5,266.0,194.0,265.0,193.0,264.5,192.5" stroke="black" stroke-width="1" fill="none" />
<polyline points="264.0,186.0,264.0,452.5" stroke="black" stroke-width="1" fill="none" />
<polyline points="239.0,391.0,359.5,511.5" stroke="black" stroke-width="1" fill="none" />
<polyline points="367.5,511.5,235.0,379.0" stroke="black" stroke-width="1" fill="none" />
<polyline points="232.0,373.5,232.0,176.0,233.0,177.0,235.5,179.5" stroke="black" stroke-width="1" fill="none" />
<polyline points="237.0,173.0,247.5,183.5" stroke="black" stroke-width="1" fill="none" />
<polyline points="247.5,191.5,256.0,200.0" stroke="black" stroke-width="1" fill="none" />
<polyline points="264.0,200.0,254.5,190.5,256.0,188.5,256.0,453.0" stroke="black" stroke-width="1" fill="none" />
<polyline points="304.0,511.5,304.0,166.5,303.5,167.5,315.5,179.5,316.5,180.5,356.5,220.5,357.0,221.0,479.0,343.0" stroke="black" stroke-width="1" fill="none" />
<polyline points="499.5,275.5,395.5,171.5,396.0,172.0,374.0,194.0" stroke="black" stroke-width="1" fill="none" />
<polyline points="377.0,199.0,400.0,176.0,400.5,175.5,401.0,175.0" stroke="black" stroke-width="1" fill="none" />
<polyline points="406.0,170.0,407.5,168.5,408.0,168.0,410.0,166.0,408.0,162.5,408.0,173.0" stroke="black" stroke-width="1" fill="none" />
<polyline points="413.5,178.5,372.5,219.5" stroke="black" stroke-width="1" fill="none" />
<polyline points="368.0,216.0,408.0,176.0" stroke="black" stroke-width="1" fill="none" />
<polyline points="400.5,167.5,401.0,167.0,399.5,167.5,402.5,170.5" stroke="black" stroke-width="1" fill="none" />
<polyline points="404.5,163.5,405.0,163.0,403.0,163.0,414.0,174.0" stroke="black" stroke-width="1" fill="none" />
<polyline points="416.0,160.0,417.5,158.5,416.0,158.0,416.0,511.5" stroke="black" stroke-width="1" fill="none" />
<polyline points="316.5,307.5,320.0,304.0,320.5,303.5,438.0,186.0,440.0,186.5,440.0,511.5" stroke="black" stroke-width="1" fill="none" />
<polyline points="314.5,301.5,435.5,180.5,436.0,180.0,434.5,178.5,432.0,178.5,432.0,511.5" stroke="black" stroke-width="1" fill="none" />
<polyline points="309.5,298.5,310.0,298.0" stroke="black" stroke-width="1" fill="none" />
<polyline points="308.5,291.5,309.0,291.0" stroke="black" stroke-width="1" fill="none" />
<polyline points="297.0,295.0,365.0,227.0" stroke="black" stroke-width="1" fill="none" />
<polyline points="365.5,218.5,367.0,217.0" stroke="black" stroke-width="1" fill="none" />
<polyline points="361.5,214.5,365.0,211.0,365.5,210.5,370.5,205.5" stroke="black" stroke-width="1" fill="none" />
<polyline points="375.0,201.0,376.5,199.5" stroke="black" stroke-width="1" fill="none" />
<polyline points="368.5,191.5,389.0,171.0,392.5,168.5,395.0,171.0" stroke="black" stroke-width="1" fill="none" />
<polyline points="395.0,165.0,400.0,160.0,400.0,160.0,400.0,511.5" stroke="black" stroke-width="1" fill="none" />
<polyline points="494.0,318.0,358.5,182.5,356.5,187.5,377.0,167.0,382.5,166.5,500.0,284.0" stroke="black" stroke-width="1" fill="none" />
<polyline points="499.5,291.5,369.5,161.5,368.0,162.0,368.0,511.5" stroke="black" stroke-width="1" fill="none" />
<polyline points="375.5,511.5,230.5,366.5,232.5,367.5,270.5,329.5" stroke="black" stroke-width="1" fill="none" />
<polyline points="275.0,317.0,230.0,362.0" stroke="black" stroke-width="1" fill="none" />
<polyline points="228.5,356.5,383.5,511.5" stroke="black" stroke-width="1" fill="none" />
<polyline points="487.5,335.5,351.0,199.0,352.0,200.0,353.5,198.5" stroke="black" stroke-width="1" fill="none" />
<polyline points="348.5,203.5,225.0,327.0,225.0,329.0,407.5,511.5" stroke="black" stroke-width="1" fill="none" />
<polyline points="484.0,340.0,317.5,173.5,315.5,172.5,314.0,174.0,313.0,175.0,293.0,195.0" stroke="black" stroke-width="1" fill="none" />
<polyline points="288.0,200.0,236.0,252.0,235.0,253.0,233.0,255.0,231.5,256.5,230.5,257.5,226.0,258.0,479.5,511.5" stroke="black" stroke-width="1" fill="none" />
<polyline points="494.5,294.5,366.5,166.5,369.0,167.0,371.5,164.5,373.5,162.5,374.0,162.0,374.5,158.5,380.0,164.0,382.5,161.5,383.5,160.5,384.0,160.0,384.0,511.5" stroke="black" stroke-width="1" fill="none" />
<polyline points="477.5,349.5,299.0,171.0,300.0,172.0,301.0,171.0,301.5,170.5,303.0,169.0,300.0,168.0,345.5,168.0,344.0,169.0,344.0,170.5,344.0,173.0,344.0,511.5" stroke="black" stroke-width="1" fill="none" />
<polyline points="391.5,511.5,228.5,348.5,228.5,347.5,291.0,285.0,292.0,284.0,292.5,283.5,294.5,281.5,350.0,226.0" stroke="black" stroke-width="1" fill="none" />
<polyline points="358.5,225.5,291.0,293.0,290.0,294.0,286.0,298.0,285.0,299.0,282.5,301.5,278.5,305.5,229.0,355.0,224.0,355.5,224.0,374.0,224.0,379.0,224.0,456.5" stroke="black" stroke-width="1" fill="none" />
<polyline points="240.0,454.5,240.0,168.0,241.5,169.5,244.5,172.5,248.0,172.0,248.0,171.5" stroke="black" stroke-width="1" fill="none" />
<polyline points="251.0,165.0,252.0,164.0,252.5,164.5,253.0,165.0,248.0,164.5,248.0,163.0,245.0,165.0,244.0,164.0,243.0,165.0,242.5,165.5,240.0,164.5,240.0,167.0" stroke="black" stroke-width="1" fill="none" />
<polyline points="232.0,167.5,232.0,172.5" stroke="black" stroke-width="1" fill="none" />
<polyline points="226.0,170.0,218.5,162.5,220.0,164.0,225.5,158.5" stroke="black" stroke-width="1" fill="none" />
<polyline points="220.0,156.0,225.5,150.5" stroke="black" stroke-width="1" fill="none" />
<polyline points="219.0,149.0,226.0,142.0,228.5,139.5,229.0,139.0" stroke="black" stroke-width="1" fill="none" />
<polyline points="226.0,134.0,218.0,142.0,217.5,145.5,226.0,154.0" stroke="black" stroke-width="1" fill="none" />
<polyline points="219.0,155.0,226.0,162.0" stroke="black" stroke-width="1" fill="none" />
<polyline points="224.5,167.5,222.0,170.0,220.5,172.5,218.5,170.5" stroke="black" stroke-width="1" fill="none" />
<polyline points="224.0,177.0,224.0,190.0,220.0,188.0,222.5,185.5" stroke="black" stroke-width="1" fill="none" />
<polyline points="219.0,181.0,211.5,188.5,215.0,191.0,206.5,182.5,207.0,185.0,212.0,180.0,211.5,179.5,221.5,189.5" stroke="black" stroke-width="1" fill="none" />
<polyline points="226.0,178.0,236.0,188.0" stroke="black" stroke-width="1" fill="none" />
<polyline points="233.5,193.5,245.5,205.5" stroke="black" stroke-width="1" fill="none" />
<polyline points="250.5,202.5,240.5,192.5" stroke="black" stroke-width="1" fill="none" />
<polyline points="256.0,170.5,256.0,170.0,260.5,168.0,262.0,168.0,264.0,170.0,264.0,174.0" stroke="black" stroke-width="1" fill="none" />
<polyline points="271.0,192.0,143.5,192.0" stroke="black" stroke-width="1" fill="none" />
<polyline points="145.5,200.0,151.0,200.0" stroke="black" stroke-width="1" fill="none" />
<polyline points="152.0,191.5,152.0,188.5,150.5,184.0,267.0,184.0" stroke="black" stroke-width="1" fill="none" />
<polyline points="288.0,184.0,511.5,184.0" stroke="black" stroke-width="1" fill="none" />
<polyline points="488.0,165.0,488.0,351.0" stroke="black" stroke-width="1" fill="none" />
<polyline points="491.5,299.5,363.5,171.5,364.0,172.0,364.5,171.5" stroke="black" stroke-width="1" fill="none" />
<polyline points="359.0,168.0,430.0,168.0" stroke="black" stroke-width="1" fill="none" />
<polyline points="424.0,162.5,424.0,511.5" stroke="black" stroke-width="1" fill="none" />
<polyline points="399.5,511.5,225.5,337.5,224.0,337.0,224.0,334.5,223.0,336.0,511.5,336.0" stroke="black" stroke-width="1" fill="none" />
<polyline points="480.0,349.5,480.0,178.0,474.5,178.5,474.0,178.0,472.0,176.0,472.0,403.5" stroke="black" stroke-width="1" fill="none" />
<polyline points="415.5,511.5,224.0,320.0,224.5,319.5,345.0,199.0" stroke="black" stroke-width="1" fill="none" />
<polyline points="353.0,191.0,355.0,189.0,356.0,188.0,360.0,192.0,361.5,190.5,383.5,168.5" stroke="black" stroke-width="1" fill="none" />
<polyline points="390.0,166.0,392.0,168.0" stroke="black" stroke-width="1" fill="none" />
<polyline points="395.5,163.5,397.5,165.5" stroke="black" stroke-width="1" fill="none" />
<polyline points="402.0,162.0,400.5,160.5" stroke="black" stroke-width="1" fill="none" />
<polyline points="406.5,161.5,407.0,161.0,409.5,160.0,420.5,160.0,422.5,160.0,423.5,160.0" stroke="black" stroke-width="1" fill="none" />
<polyline points="421.5,165.5,415.0,159.0" stroke="black" stroke-width="1" fill="none" />
<polyline points="400.0,152.0,400.0,150.5,396.5,152.0,416.5,152.0" stroke="black" stroke-width="1" fill="none" />
<polyline points="392.0,156.0,392.0,511.5" stroke="black" stroke-width="1" fill="none" />
<polyline points="423.5,511.5,225.0,313.0,226.5,309.5,352.0,184.0,351.5,183.5,354.0,186.0,352.0,182.0,352.0,511.5" stroke="black" stroke-width="1" fill="none" />
<polyline points="431.5,511.5,226.0,306.0" stroke="black" stroke-width="1" fill="none" />
<polyline points="225.5,294.5,346.0,174.0" stroke="black" stroke-width="1" fill="none" />
<polyline points="339.0,173.0,337.0,175.0,334.5,177.5,225.0,287.0" stroke="black" stroke-width="1" fill="none" />
<polyline points="221.5,282.5,334.0,170.0,337.0,169.0,350.5,182.5" stroke="black" stroke-width="1" fill="none" />
<polyline points="358.5,176.0,431.5,176.0,435.0,176.0,437.5,176.0" stroke="black" stroke-width="1" fill="none" />
<polyline points="448.0,186.0,448.0,511.5,447.5,511.5,217.5,281.5" stroke="black" stroke-width="1" fill="none" />
<polyline points="220.0,276.0,455.5,511.5" stroke="black" stroke-width="1" fill="none" />
<polyline points="463.5,511.5,223.0,271.0,225.0,271.0,225.5,270.5,226.5,269.5,314.0,182.0,318.0,178.0,321.5,174.5,322.0,174.0,324.0,172.0" stroke="black" stroke-width="1" fill="none" />
<polyline points="327.0,167.0,326.5,166.5,326.0,166.0,325.0,165.0,328.0,166.0,328.0,511.5" stroke="black" stroke-width="1" fill="none" />
<polyline points="471.5,511.5,225.0,265.0" stroke="black" stroke-width="1" fill="none" />
<polyline points="222.0,274.0,221.0,275.0" stroke="black" stroke-width="1" fill="none" />
<polyline points="228.0,252.0,487.5,511.5" stroke="black" stroke-width="1" fill="none" />
<polyline points="495.5,511.5,230.0,246.0,232.5,247.5,271.0,209.0" stroke="black" stroke-width="1" fill="none" />
<polyline points="312.0,174.5,312.0,511.5" stroke="black" stroke-width="1" fill="none" />
<polyline points="376.0,511.5,376.0,155.5,376.0,154.0,376.0,152.5,379.0,155.0,381.5,157.5,384.0,156.5,384.0,156.0,387.0,155.0,387.5,155.5,388.0,152.0,390.5,152.0,387.5,152.0,372.0,152.0" stroke="black" stroke-width="1" fill="none" />
<polyline points="368.0,159.0,368.0,160.5" stroke="black" stroke-width="1" fill="none" />
<polyline points="360.5,160.0,407.5,160.0" stroke="black" stroke-width="1" fill="none" />
<polyline points="386.5,162.5,384.5,160.5" stroke="black" stroke-width="1" fill="none" />
<polyline points="386.5,144.0,387.5,144.0,383.5,144.0,382.0,144.0" stroke="black" stroke-width="1" fill="none" />
<polyline points="360.5,128.0,359.0,128.0" stroke="black" stroke-width="1" fill="none" />
<polyline points="358.0,120.0,360.5,120.0" stroke="black" stroke-width="1" fill="none" />
<polyline points="360.0,113.5,360.0,0.0,360.0,0.0,369.5,9.5,371.5,11.5,373.0,13.0,374.0,14.0,376.0,16.0,377.5,17.5,379.0,19.0,382.5,22.5,387.5,27.5,390.0,30.0,391.0,31.0" stroke="black" stroke-width="1" fill="none" />
<polyline points="393.5,25.5,393.0,25.0,391.5,23.5,390.5,22.5,394.5,18.5,396.0,20.0,397.0,21.0,401.0,25.0,402.5,26.5,403.0,27.0,406.0,30.0,407.0,31.0" stroke="black" stroke-width="1" fill="none" />
<polyline points="403.5,35.5,404.5,36.5" stroke="black" stroke-width="1" fill="none" />
<polyline points="409.0,41.0,409.5,41.5" stroke="black" stroke-width="1" fill="none" />
<polyline points="414.0,38.0,412.0,36.0" stroke="black" stroke-width="1" fill="none" />
<polyline points="415.0,31.0,413.0,29.0" stroke="black" stroke-width="1" fill="none" />
<polyline points="418.0,26.0,419.0,27.0,420.0,28.0,426.5,34.5,427.5,35.5,430.5,38.5,433.5,41.5,434.0,42.0" stroke="black" stroke-width="1" fill="none" />
<polyline points="439.0,39.0,441.0,41.0,445.0,37.0,444.5,36.5,443.5,35.5,442.5,34.5,442.0,34.0,440.5,32.5,439.0,31.0,431.0,23.0,430.0,22.0,426.0,18.0,425.5,17.5,408.0,0.0,408.0,0.0,408.0,91.5,408.0,94.5,408.0,95.0" stroke="black" stroke-width="1" fill="none" />
<polyline points="408.0,102.5,408.0,104.0" stroke="black" stroke-width="1" fill="none" />
<polyline points="400.0,103.5,400.0,102.5" stroke="black" stroke-width="1" fill="none" />
<polyline points="400.0,94.5,400.0,0.0,400.0,0.0,404.0,4.0,404.5,4.5,409.5,9.5,410.0,10.0,414.0,14.0,415.5,15.5,436.0,36.0,436.5,36.5,438.0,38.0" stroke="black" stroke-width="1" fill="none" />
<polyline points="446.5,38.5,448.0,40.0,448.5,40.5,449.5,41.5,453.0,45.0,456.0,48.0" stroke="black" stroke-width="1" fill="none" />
<polyline points="459.0,43.0,458.5,42.5" stroke="black" stroke-width="1" fill="none" />
<polyline points="464.0,40.0,464.5,40.5,465.0,41.0,466.5,42.5" stroke="black" stroke-width="1" fill="none" />
<polyline points="473.0,41.0,475.5,43.5,477.0,45.0,478.5,46.5,480.5,48.5,481.0,49.0,484.0,52.0,485.5,53.5,486.0,54.0,493.5,61.5" stroke="black" stroke-width="1" fill="none" />
<polyline points="488.5,64.5,492.0,68.0" stroke="black" stroke-width="1" fill="none" />
<polyline points="487.5,71.5,491.0,75.0" stroke="black" stroke-width="1" fill="none" />
<polyline points="488.5,88.5,489.0,89.0,490.0,90.0,490.5,90.5" stroke="black" stroke-width="1" fill="none" />
<polyline points="487.5,95.5,488.5,96.5,485.0,96.0,511.5,96.0" stroke="black" stroke-width="1" fill="none" />
<polyline points="511.5,87.5,509.0,85.0" stroke="black" stroke-width="1" fill="none" />
<polyline points="505.5,89.5,502.5,86.5" stroke="black" stroke-width="1" fill="none" />
<polyline points="497.5,89.5,496.0,88.0" stroke="black" stroke-width="1" fill="none" />
<polyline points="482.5,90.5,481.5,89.5" stroke="black" stroke-width="1" fill="none" />
<polyline points="488.0,101.0,488.0,0.0,488.0,0.0,511.5,23.5" stroke="black" stroke-width="1" fill="none" />
<polyline points="496.5,23.5,494.5,25.5" stroke="black" stroke-width="1" fill="none" />
<polyline points="496.0,8.0,499.0,5.0" stroke="black" stroke-width="1" fill="none" />
<polyline points="496.0,0.0,496.0,109.5" stroke="black" stroke-width="1" fill="none" />
<polyline points="491.5,120.0,511.5,120.0,507.5,123.5,509.0,125.0,509.5,125.5,511.5,127.5" stroke="black" stroke-width="1" fill="none" />
<polyline points="505.0,129.0,511.5,135.5,507.5,139.5,507.0,139.0,508.0,140.0,509.0,141.0,509.5,141.5,510.5,142.5" stroke="black" stroke-width="1" fill="none" />
<polyline points="506.0,138.0,505.0,137.0" stroke="black" stroke-width="1" fill="none" />
<polyline points="503.5,127.5,503.0,127.0" stroke="black" stroke-width="1" fill="none" />
<polyline points="496.0,125.5,496.0,146.5" stroke="black" stroke-width="1" fill="none" />
<polyline points="488.0,147.0,488.0,148.5,485.5,152.0,511.5,152.0" stroke="black" stroke-width="1" fill="none" />
<polyline points="511.5,176.0,465.0,176.0" stroke="black" stroke-width="1" fill="none" />
<polyline points="475.0,168.0,511.5,168.0" stroke="black" stroke-width="1" fill="none" />
<polyline points="480.0,171.0,480.0,176.5" stroke="black" stroke-width="1" fill="none" />
<polyline points="480.0,160.0,511.5,160.0" stroke="black" stroke-width="1" fill="none" />
<polyline points="511.5,144.0,487.0,144.0" stroke="black" stroke-width="1" fill="none" />
<polyline points="488.0,137.5,488.0,132.5,486.5,136.0,511.5,136.0" stroke="black" stroke-width="1" fill="none" />
<polyline points="511.5,128.0,489.5,128.0" stroke="black" stroke-width="1" fill="none" />
<polyline points="483.5,112.0,511.5,112.0" stroke="black" stroke-width="1" fill="none" />
<polyline points="511.5,104.0,484.0,104.0" stroke="black" stroke-width="1" fill="none" />
<polyline points="480.0,91.5,480.0,0.0,480.0,0.0,511.5,31.5" stroke="black" stroke-width="1" fill="none" />
<polyline points="511.5,15.5,496.0,0.0" stroke="black" stroke-width="1" fill="none" />
<polyline points="504.0,0.0,511.5,7.5" stroke="black" stroke-width="1" fill="none" />
<polyline points="511.5,39.5,472.0,0.0,472.0,0.0,472.0,91.5" stroke="black" stroke-width="1" fill="none" />
<polyline points="464.0,90.0,464.0,93.5,464.0,89.0,464.0,88.5,464.0,88.0,464.0,0.0,464.0,0.0,511.5,47.5" stroke="black" stroke-width="1" fill="none" />
<polyline points="508.5,52.5,511.5,55.5,508.0,52.0,502.0,46.0,500.0,44.0,456.0,0.0,456.0,0.0,456.0,90.5,456.0,93.0,456.0,95.5" stroke="black" stroke-width="1" fill="none" />
<polyline points="448.0,95.0,448.0,94.0,448.0,90.0,448.0,0.0,448.0,0.0,469.0,21.0,470.0,22.0,475.0,27.0,475.5,27.5,495.5,47.5,498.5,50.5,500.5,52.5" stroke="black" stroke-width="1" fill="none" />
<polyline points="509.5,61.5,511.0,63.0" stroke="black" stroke-width="1" fill="none" />
<polyline points="496.0,56.0,484.5,44.5,483.5,43.5,482.5,42.5,480.5,40.5,478.0,38.0,477.0,37.0,474.5,34.5,472.5,32.5,440.0,0.0,440.0,0.0,440.0,91.0,440.0,95.5,440.0,97.5" stroke="black" stroke-width="1" fill="none" />
<polyline points="432.0,98.0,432.0,99.5" stroke="black" stroke-width="1" fill="none" />
<polyline points="432.0,89.5,432.0,0.0,432.0,0.0,468.0,36.0" stroke="black" stroke-width="1" fill="none" />
<polyline points="473.0,49.0,475.0,51.0" stroke="black" stroke-width="1" fill="none" />
<polyline points="467.0,51.0,466.5,50.5" stroke="black" stroke-width="1" fill="none" />
<polyline points="463.5,39.5,450.0,26.0,449.0,25.0,437.0,13.0,435.0,11.0,424.0,0.0,424.0,0.0,424.0,89.5,424.0,90.0,424.0,90.5" stroke="black" stroke-width="1" fill="none" />
<polyline points="416.0,100.5,416.0,101.5" stroke="black" stroke-width="1" fill="none" />
<polyline points="416.0,93.0,416.0,0.0,416.5,0.5,445.0,29.0,446.0,30.0,448.5,32.5,450.0,34.0,451.5,35.5,452.0,36.0,452.5,36.5,454.0,38.0,456.0,40.0" stroke="black" stroke-width="1" fill="none" />
<polyline points="420.0,36.0,419.5,35.5" stroke="black" stroke-width="1" fill="none" />
<polyline points="416.5,24.5,406.5,14.5,405.0,13.0,404.0,12.0,402.5,10.5,392.5,0.5,392.0,0.0,392.0,97.5" stroke="black" stroke-width="1" fill="none" />
<polyline points="392.0,104.0,392.0,106.0" stroke="black" stroke-width="1" fill="none" />
<polyline points="384.0,106.5,384.0,108.0" stroke="black" stroke-width="1" fill="none" />
<polyline points="376.0,108.0,376.0,106.5,376.0,103.0,376.0,0.0,376.0,0.0,376.5,0.5,377.0,1.0,389.5,13.5,390.0,14.0,392.5,16.5" stroke="black" stroke-width="1" fill="none" />
<polyline points="397.5,13.5,394.5,10.5,398.5,14.5,410.5,26.5" stroke="black" stroke-width="1" fill="none" />
<polyline points="394.0,10.0,384.0,0.0,384.0,0.0,384.0,99.5" stroke="black" stroke-width="1" fill="none" />
<polyline points="368.0,107.5,368.0,110.5" stroke="black" stroke-width="1" fill="none" />
<polyline points="368.0,103.5,368.0,0.0,368.0,0.0,375.0,7.0,376.5,8.5,390.0,22.0" stroke="black" stroke-width="1" fill="none" />
<polyline points="389.0,37.0,389.5,37.5" stroke="black" stroke-width="1" fill="none" />
<polyline points="370.0,34.0,369.5,33.5,367.0,31.0,366.0,30.0,362.0,26.0,361.0,25.0" stroke="black" stroke-width="1" fill="none" />
<polyline points="361.5,17.5,360.0,16.0,359.0,15.0,357.0,13.0" stroke="black" stroke-width="1" fill="none" />
<polyline points="362.5,10.5,364.5,12.5" stroke="black" stroke-width="1" fill="none" />
<polyline points="370.0,18.0,371.0,19.0" stroke="black" stroke-width="1" fill="none" />
<polyline points="361.0,9.0,352.0,0.0,352.0,0.0,352.0,108.0,352.0,111.0,352.0,111.5,352.0,112.0,352.0,114.0" stroke="black" stroke-width="1" fill="none" />
<polyline points="344.0,115.0,344.0,111.5,344.0,111.0,344.0,110.0,344.0,107.5,344.0,0.0,344.0,0.0,355.0,11.0,351.0,9.0,350.0,10.0,347.5,11.5,354.5,18.5" stroke="black" stroke-width="1" fill="none" />
<polyline points="349.0,21.0,354.5,26.5" stroke="black" stroke-width="1" fill="none" />
<polyline points="349.5,29.5,355.0,35.0" stroke="black" stroke-width="1" fill="none" />
<polyline points="349.5,37.5,355.5,43.5,351.5,47.5,356.0,52.0,352.0,56.0,356.5,60.5" stroke="black" stroke-width="1" fill="none" />
<polyline points="354.0,66.0,356.5,68.5" stroke="black" stroke-width="1" fill="none" />
<polyline points="354.5,74.5,357.5,77.5" stroke="black" stroke-width="1" fill="none" />
<polyline points="356.0,84.0,358.0,86.0" stroke="black" stroke-width="1" fill="none" />
<polyline points="357.0,93.0,358.0,94.0" stroke="black" stroke-width="1" fill="none" />
<polyline points="336.0,114.0,336.0,117.0" stroke="black" stroke-width="1" fill="none" />
<polyline points="336.0,109.5,336.0,0.0,338.0,2.0,344.0,8.0,346.0,10.0,346.5,10.5" stroke="black" stroke-width="1" fill="none" />
<polyline points="339.0,11.0,331.0,3.0,330.0,2.0,329.5,1.5,328.0,0.0,328.0,112.0,328.0,115.5,328.0,116.0,328.0,117.0,328.0,117.5" stroke="black" stroke-width="1" fill="none" />
<polyline points="320.0,117.0,320.0,118.5" stroke="black" stroke-width="1" fill="none" />
<polyline points="312.0,119.5,312.0,121.0" stroke="black" stroke-width="1" fill="none" />
<polyline points="320.0,110.0,320.0,0.0,320.0,0.0,322.5,2.5,324.5,4.5,330.5,10.5,333.5,13.5,334.5,14.5" stroke="black" stroke-width="1" fill="none" />
<polyline points="324.0,12.0,318.5,6.5,316.0,4.0,315.5,3.5,315.0,3.0,314.0,2.0,313.0,1.0,312.0,0.0,312.0,0.0,312.0,110.5" stroke="black" stroke-width="1" fill="none" />
<polyline points="304.0,108.5,304.0,0.0" stroke="black" stroke-width="1" fill="none" />
<polyline points="300.5,4.5,301.5,5.5,304.0,8.0,311.5,15.5" stroke="black" stroke-width="1" fill="none" />
<polyline points="307.0,19.0,306.5,18.5" stroke="black" stroke-width="1" fill="none" />
<polyline points="317.0,13.0,311.0,7.0" stroke="black" stroke-width="1" fill="none" />
<polyline points="318.0,14.0,319.5,15.5" stroke="black" stroke-width="1" fill="none" />
<polyline points="303.5,15.5,297.0,9.0" stroke="black" stroke-width="1" fill="none" />
<polyline points="290.0,10.0,296.0,16.0" stroke="black" stroke-width="1" fill="none" />
<polyline points="288.5,8.5,288.0,8.0,287.5,7.5,287.0,7.0,291.0,3.0,292.0,4.0,288.0,0.0,288.0,113.0" stroke="black" stroke-width="1" fill="none" />
<polyline points="296.0,111.5,296.0,0.0" stroke="black" stroke-width="1" fill="none" />
<polyline points="280.5,0.5,280.0,0.0,280.0,0.0,280.0,113.0" stroke="black" stroke-width="1" fill="none" />
<polyline points="288.0,124.0,288.0,124.5" stroke="black" stroke-width="1" fill="none" />
<polyline points="296.0,122.5,296.0,122.0" stroke="black" stroke-width="1" fill="none" />
<polyline points="272.0,126.0,272.0,126.5" stroke="black" stroke-width="1" fill="none" />
<polyline points="264.0,128.0,264.0,129.0" stroke="black" stroke-width="1" fill="none" />
<polyline points="264.0,115.0,264.0,0.0,260.0,4.0,258.5,2.5,257.0,1.0,256.0,0.0,256.0,0.0,256.0,116.5" stroke="black" stroke-width="1" fill="none" />
<polyline points="248.0,130.0,248.0,131.5" stroke="black" stroke-width="1" fill="none" />
<polyline points="248.0,122.0,248.0,0.0,251.0,3.0,253.0,5.0" stroke="black" stroke-width="1" fill="none" />
<polyline points="252.0,12.0,243.0,3.0,240.0,0.0,240.0,135.5,240.0,141.0,240.0,143.5" stroke="black" stroke-width="1" fill="none" />
<polyline points="230.0,142.0,220.0,132.0,218.5,133.5,217.0,135.0,215.0,135.0,226.0,146.0" stroke="black" stroke-width="1" fill="none" />
<polyline points="232.0,139.0,232.0,133.0" stroke="black" stroke-width="1" fill="none" />
<polyline points="218.0,130.0,217.0,129.0" stroke="black" stroke-width="1" fill="none" />
<polyline points="209.5,137.5,211.5,139.5" stroke="black" stroke-width="1" fill="none" />
<polyline points="204.5,140.5,203.0,139.0" stroke="black" stroke-width="1" fill="none" />
<polyline points="194.0,130.0,190.0,126.0" stroke="black" stroke-width="1" fill="none" />
<polyline points="182.0,126.0,175.5,119.5" stroke="black" stroke-width="1" fill="none" />
<polyline points="165.5,117.5,164.0,116.0,163.5,115.5,162.0,114.0,162.5,109.5,163.0,109.0" stroke="black" stroke-width="1" fill="none" />
<polyline points="160.0,104.0,164.5,99.5,166.5,94.5,158.0,86.0,157.5,85.5,155.0,83.0" stroke="black" stroke-width="1" fill="none" />
<polyline points="151.5,87.5,158.0,94.0,160.0,96.0,169.5,105.5" stroke="black" stroke-width="1" fill="none" />
<polyline points="164.5,108.5,158.5,102.5" stroke="black" stroke-width="1" fill="none" />
<polyline points="168.5,88.5,168.0,88.0" stroke="black" stroke-width="1" fill="none" />
<polyline points="162.5,82.5,161.5,81.5" stroke="black" stroke-width="1" fill="none" />
<polyline points="155.0,75.0,153.5,73.5" stroke="black" stroke-width="1" fill="none" />
<polyline points="149.0,69.0,148.5,68.5" stroke="black" stroke-width="1" fill="none" />
<polyline points="152.0,64.0,154.5,66.5" stroke="black" stroke-width="1" fill="none" />
<polyline points="158.0,62.0,157.0,61.0" stroke="black" stroke-width="1" fill="none" />
<polyline points="162.0,58.0,164.0,60.0" stroke="black" stroke-width="1" fill="none" />
<polyline points="168.5,56.5,169.5,57.5" stroke="black" stroke-width="1" fill="none" />
<polyline points="170.0,50.0,169.5,49.5" stroke="black" stroke-width="1" fill="none" />
<polyline points="164.5,52.5,164.0,52.0,161.5,49.5,160.0,48.0" stroke="black" stroke-width="1" fill="none" />
<polyline points="164.5,44.5,158.0,38.0,155.5,35.5,154.0,34.0" stroke="black" stroke-width="1" fill="none" />
<polyline points="159.0,31.0,153.0,25.0" stroke="black" stroke-width="1" fill="none" />
<polyline points="160.5,24.5,136.0,0.0,136.0,0.0,136.0,154.5,136.0,156.0,136.0,159.5" stroke="black" stroke-width="1" fill="none" />
<polyline points="129.5,160.0,241.5,160.0" stroke="black" stroke-width="1" fill="none" />
<polyline points="208.0,176.0,207.5,175.5" stroke="black" stroke-width="1" fill="none" />
<polyline points="197.0,173.0,195.0,171.0" stroke="black" stroke-width="1" fill="none" />
<polyline points="191.5,175.5,192.0,176.0" stroke="black" stroke-width="1" fill="none" />
<polyline points="206.5,190.5,207.5,191.5,208.0,192.5,208.0,0.0,208.0,0.0,213.0,5.0,213.5,5.5,218.0,10.0,220.0,12.0,221.0,13.0,222.0,14.0,224.5,16.5,225.5,17.5,226.0,18.0" stroke="black" stroke-width="1" fill="none" />
<polyline points="228.0,12.0,226.5,10.5,230.5,6.5,231.5,7.5,235.5,11.5,237.0,13.0" stroke="black" stroke-width="1" fill="none" />
<polyline points="240.0,8.0,242.5,10.5" stroke="black" stroke-width="1" fill="none" />
<polyline points="236.5,4.5,232.0,0.0,232.0,0.0,232.0,132.5" stroke="black" stroke-width="1" fill="none" />
<polyline points="226.0,90.0,223.0,87.0" stroke="black" stroke-width="1" fill="none" />
<polyline points="222.0,78.0,218.0,74.0,216.0,72.0,214.0,70.0" stroke="black" stroke-width="1" fill="none" />
<polyline points="220.5,68.5,212.5,60.5" stroke="black" stroke-width="1" fill="none" />
<polyline points="217.5,57.5,208.5,48.5" stroke="black" stroke-width="1" fill="none" />
<polyline points="214.0,46.0,204.0,36.0" stroke="black" stroke-width="1" fill="none" />
<polyline points="211.0,35.0,201.5,25.5,200.5,24.5,193.5,17.5" stroke="black" stroke-width="1" fill="none" />
<polyline points="195.5,11.5,209.0,25.0,212.0,28.0,217.0,33.0" stroke="black" stroke-width="1" fill="none" />
<polyline points="223.0,31.0,217.5,25.5,215.0,23.0,214.5,22.5,213.0,21.0,212.5,20.5,211.0,19.0,210.0,18.0,209.0,17.0,206.5,14.5" stroke="black" stroke-width="1" fill="none" />
<polyline points="211.5,11.5,215.0,15.0" stroke="black" stroke-width="1" fill="none" />
<polyline points="220.5,4.5,220.0,4.0,216.0,0.0,216.0,174.5" stroke="black" stroke-width="1" fill="none" />
<polyline points="224.0,174.5,224.0,0.0,225.0,1.0,228.5,4.5" stroke="black" stroke-width="1" fill="none" />
<polyline points="231.5,23.5,237.0,29.0" stroke="black" stroke-width="1" fill="none" />
<polyline points="238.5,22.5,243.5,27.5" stroke="black" stroke-width="1" fill="none" />
<polyline points="245.0,21.0,250.0,26.0" stroke="black" stroke-width="1" fill="none" />
<polyline points="252.0,20.0,256.5,24.5" stroke="black" stroke-width="1" fill="none" />
<polyline points="259.0,19.0,263.5,23.5" stroke="black" stroke-width="1" fill="none" />
<polyline points="265.5,17.5,270.0,22.0" stroke="black" stroke-width="1" fill="none" />
<polyline points="276.0,20.0,271.5,15.5,269.0,13.0,268.0,12.0" stroke="black" stroke-width="1" fill="none" />
<polyline points="278.5,14.5,283.5,19.5" stroke="black" stroke-width="1" fill="none" />
<polyline points="289.5,17.5,285.0,13.0" stroke="black" stroke-width="1" fill="none" />
<polyline points="275.5,3.5,272.0,0.0,272.0,0.0,272.0,113.0" stroke="black" stroke-width="1" fill="none" />
<polyline points="312.0,162.5,312.0,171.0,310.0,170.0,309.0,171.0,312.0,168.0,315.5,171.5" stroke="black" stroke-width="1" fill="none" />
<polyline points="317.5,165.5,349.5,197.5" stroke="black" stroke-width="1" fill="none" />
<polyline points="361.0,207.0,357.0,211.0" stroke="black" stroke-width="1" fill="none" />
<polyline points="341.5,226.5,226.5,341.5,225.0,344.0,511.5,344.0" stroke="black" stroke-width="1" fill="none" />
<polyline points="503.5,511.5,191.5,199.5,192.0,197.5,192.0,317.0" stroke="black" stroke-width="1" fill="none" />
<polyline points="200.0,315.5,200.0,196.5,199.0,199.0,511.5,511.5" stroke="black" stroke-width="1" fill="none" />
<polyline points="336.0,511.5,336.0,167.5,336.0,164.5,336.0,162.5" stroke="black" stroke-width="1" fill="none" />
<polyline points="328.0,160.5,328.0,164.5" stroke="black" stroke-width="1" fill="none" />
<polyline points="330.5,170.5,354.5,194.5" stroke="black" stroke-width="1" fill="none" />
<polyline points="354.0,206.0,226.0,334.0" stroke="black" stroke-width="1" fill="none" />
<polyline points="218.5,320.0,511.5,320.0" stroke="black" stroke-width="1" fill="none" />
<polyline points="511.5,480.0,0.0,480.0,0.0,480.0,31.5,511.5" stroke="black" stroke-width="1" fill="none" />
<polyline points="40.5,511.5,47.0,505.0" stroke="black" stroke-width="1" fill="none" />
<polyline points="48.5,511.5,55.5,504.5" stroke="black" stroke-width="1" fill="none" />
<polyline points="56.5,511.5,63.0,505.0,63.5,503.5,71.5,511.5,72.5,511.5,79.5,504.5,80.0,504.0,87.5,511.5,88.5,511.5,96.5,503.5,95.0,503.0,103.5,511.5,104.5,511.5,114.5,501.5,117.0,501.0,127.5,511.5,128.5,511.5,130.0,510.0" stroke="black" stroke-width="1" fill="none" />
<polyline points="130.0,502.0,120.5,511.5" stroke="black" stroke-width="1" fill="none" />
<polyline points="112.5,511.5,123.0,501.0,124.5,500.5,130.0,506.0" stroke="black" stroke-width="1" fill="none" />
<polyline points="128.0,511.5,128.0,497.5" stroke="black" stroke-width="1" fill="none" />
<polyline points="120.0,499.0,120.0,511.5" stroke="black" stroke-width="1" fill="none" />
<polyline points="111.5,511.5,102.0,502.0,104.0,500.5,104.0,511.5" stroke="black" stroke-width="1" fill="none" />
<polyline points="96.5,511.5,105.5,502.5,109.5,501.5,119.5,511.5" stroke="black" stroke-width="1" fill="none" />
<polyline points="112.0,511.5,112.0,499.5" stroke="black" stroke-width="1" fill="none" />
<polyline points="104.0,495.5,104.0,488.0" stroke="black" stroke-width="1" fill="none" />
<polyline points="96.0,489.0,96.0,496.5,96.0,500.5,96.0,511.5" stroke="black" stroke-width="1" fill="none" />
<polyline points="88.5,503.5,80.5,511.5,79.5,511.5,72.0,504.0,71.0,505.0,64.5,511.5" stroke="black" stroke-width="1" fill="none" />
<polyline points="47.5,511.5,26.5,490.5" stroke="black" stroke-width="1" fill="none" />
<polyline points="31.0,487.0,55.5,511.5" stroke="black" stroke-width="1" fill="none" />
<polyline points="39.5,511.5,0.0,472.0,0.0,472.0,511.5,472.0" stroke="black" stroke-width="1" fill="none" />
<polyline points="320.0,511.5,320.0,160.5,321.5,161.5,322.5,162.5" stroke="black" stroke-width="1" fill="none" />
<polyline points="316.0,160.0,332.0,160.0" stroke="black" stroke-width="1" fill="none" />
<polyline points="310.5,166.5,309.5,165.5" stroke="black" stroke-width="1" fill="none" />
<polyline points="211.0,243.0,171.5,203.5,171.0,203.0,170.5,202.5,168.0,200.5,168.0,205.5" stroke="black" stroke-width="1" fill="none" />
<polyline points="175.5,208.5,177.5,206.5,177.5,201.5,217.5,241.5" stroke="black" stroke-width="1" fill="none" />
<polyline points="189.5,245.5,186.5,242.5" stroke="black" stroke-width="1" fill="none" />
<polyline points="196.0,244.0,179.5,227.5" stroke="black" stroke-width="1" fill="none" />
<polyline points="168.0,226.0,168.0,319.5" stroke="black" stroke-width="1" fill="none" />
<polyline points="160.0,319.0,160.0,321.5" stroke="black" stroke-width="1" fill="none" />
<polyline points="176.0,319.0,176.0,316.5" stroke="black" stroke-width="1" fill="none" />
<polyline points="184.0,317.5,184.0,198.5,184.5,200.5,225.0,241.0" stroke="black" stroke-width="1" fill="none" />
<polyline points="185.5,206.5,182.0,210.0" stroke="black" stroke-width="1" fill="none" />
<polyline points="173.5,213.5,203.5,243.5" stroke="black" stroke-width="1" fill="none" />
<polyline points="160.0,240.0,160.0,318.5" stroke="black" stroke-width="1" fill="none" />
<polyline points="176.0,316.0,176.0,199.5" stroke="black" stroke-width="1" fill="none" />
<polyline points="168.0,191.5,168.0,0.0,168.0,0.0,173.0,5.0,174.0,6.0,182.0,14.0,182.5,14.5,185.5,17.5,187.0,19.0,194.0,26.0,195.0,27.0,195.5,27.5,197.0,29.0,203.5,35.5" stroke="black" stroke-width="1" fill="none" />
<polyline points="199.0,39.0,192.0,32.0" stroke="black" stroke-width="1" fill="none" />
<polyline points="187.5,27.5,179.0,19.0,178.5,18.5,160.0,0.0,160.0,0.0,160.0,195.5,161.0,200.0,511.5,200.0" stroke="black" stroke-width="1" fill="none" />
<polyline points="511.5,248.0,12.0,248.0" stroke="black" stroke-width="1" fill="none" />
<polyline points="0.0,256.0,511.5,256.0" stroke="black" stroke-width="1" fill="none" />
<polyline points="511.5,352.0,210.0,352.0" stroke="black" stroke-width="1" fill="none" />
<polyline points="208.0,361.0,208.0,375.5" stroke="black" stroke-width="1" fill="none" />
<polyline points="216.0,375.0,216.0,359.5" stroke="black" stroke-width="1" fill="none" />
<polyline points="200.0,364.0,200.0,377.0" stroke="black" stroke-width="1" fill="none" />
<polyline points="192.0,377.5,192.0,364.0" stroke="black" stroke-width="1" fill="none" />
<polyline points="184.0,367.0,184.0,379.0" stroke="black" stroke-width="1" fill="none" />
<polyline points="176.0,379.5,176.0,366.5" stroke="black" stroke-width="1" fill="none" />
<polyline points="168.0,368.0,168.0,380.5" stroke="black" stroke-width="1" fill="none" />
<polyline points="160.0,380.5,160.0,370.0" stroke="black" stroke-width="1" fill="none" />
<polyline points="152.0,369.5,152.0,380.5" stroke="black" stroke-width="1" fill="none" />
<polyline points="144.0,380.5,144.0,383.5" stroke="black" stroke-width="1" fill="none" />
<polyline points="139.5,387.5,138.5,386.5" stroke="black" stroke-width="1" fill="none" />
<polyline points="144.0,380.0,144.0,372.0" stroke="black" stroke-width="1" fill="none" />
<polyline points="136.0,372.0,136.0,413.0" stroke="black" stroke-width="1" fill="none" />
<polyline points="128.0,410.5,128.0,370.5" stroke="black" stroke-width="1" fill="none" />
<polyline points="120.0,370.0,120.0,408.5" stroke="black" stroke-width="1" fill="none" />
<polyline points="112.0,410.5,112.0,369.0,112.0,368.0,112.0,366.0" stroke="black" stroke-width="1" fill="none" />
<polyline points="104.0,366.5,104.0,414.5" stroke="black" stroke-width="1" fill="none" />
<polyline points="69.5,397.5,69.0,397.0" stroke="black" stroke-width="1" fill="none" />
<polyline points="55.0,399.0,53.0,397.0" stroke="black" stroke-width="1" fill="none" />
<polyline points="51.5,403.5,55.5,407.5" stroke="black" stroke-width="1" fill="none" />
<polyline points="48.5,416.5,52.0,420.0" stroke="black" stroke-width="1" fill="none" />
<polyline points="42.0,434.0,44.0,436.0" stroke="black" stroke-width="1" fill="none" />
<polyline points="36.0,436.0,46.0,446.0" stroke="black" stroke-width="1" fill="none" />
<polyline points="41.5,454.5,34.5,461.5" stroke="black" stroke-width="1" fill="none" />
<polyline points="41.5,470.5,47.5,464.5,47.0,463.0,74.5,490.5" stroke="black" stroke-width="1" fill="none" />
<polyline points="68.0,484.0,66.5,485.5" stroke="black" stroke-width="1" fill="none" />
<polyline points="60.5,483.5,69.5,474.5,69.5,469.5,81.0,481.0" stroke="black" stroke-width="1" fill="none" />
<polyline points="66.5,469.5,55.5,480.5" stroke="black" stroke-width="1" fill="none" />
<polyline points="51.0,477.0,61.5,466.5" stroke="black" stroke-width="1" fill="none" />
<polyline points="57.0,463.0,46.0,474.0,45.0,477.0,65.5,497.5" stroke="black" stroke-width="1" fill="none" />
<polyline points="63.5,511.5,36.5,484.5" stroke="black" stroke-width="1" fill="none" />
<polyline points="40.0,480.0,61.0,501.0" stroke="black" stroke-width="1" fill="none" />
<polyline points="70.0,494.0,7.0,431.0" stroke="black" stroke-width="1" fill="none" />
<polyline points="5.5,437.5,40.5,472.5,42.5,474.5,43.5,475.5" stroke="black" stroke-width="1" fill="none" />
<polyline points="45.5,461.5,8.0,424.0" stroke="black" stroke-width="1" fill="none" />
<polyline points="8.5,416.5,27.5,435.5,30.5,438.5,48.0,456.0,51.5,459.5,77.5,485.5" stroke="black" stroke-width="1" fill="none" />
<polyline points="80.0,501.0,80.0,511.5" stroke="black" stroke-width="1" fill="none" />
<polyline points="87.0,503.0,95.5,511.5" stroke="black" stroke-width="1" fill="none" />
<polyline points="88.0,511.5,88.0,501.0" stroke="black" stroke-width="1" fill="none" />
<polyline points="68.0,468.0,59.0,459.0,57.0,457.0,56.0,456.0,56.0,450.5,56.0,511.5" stroke="black" stroke-width="1" fill="none" />
<polyline points="17.0,503.0,11.0,509.0" stroke="black" stroke-width="1" fill="none" />
<polyline points="3.0,509.0,17.0,495.0" stroke="black" stroke-width="1" fill="none" />
<polyline points="16.0,488.0,17.5,486.5,15.0,489.0,0.0,504.0,0.0,504.0,511.5,504.0" stroke="black" stroke-width="1" fill="none" />
<polyline points="176.0,508.5,176.0,511.5" stroke="black" stroke-width="1" fill="none" />
<polyline points="176.0,499.5,176.0,498.0" stroke="black" stroke-width="1" fill="none" />
<polyline points="156.5,464.0,511.5,464.0" stroke="black" stroke-width="1" fill="none" />
<polyline points="511.5,496.0,0.0,496.0,0.0,496.0,15.5,511.5" stroke="black" stroke-width="1" fill="none" />
<polyline points="7.5,511.5,0.0,504.0" stroke="black" stroke-width="1" fill="none" />
<polyline points="0.0,496.0,6.5,489.5" stroke="black" stroke-width="1" fill="none" />
<polyline points="0.0,488.0,511.5,488.0" stroke="black" stroke-width="1" fill="none" />
<polyline points="511.5,456.0,157.5,456.0,152.5,456.0,148.0,456.0" stroke="black" stroke-width="1" fill="none" />
<polyline points="156.0,464.0,0.0,464.0,0.5,464.5,19.5,483.5" stroke="black" stroke-width="1" fill="none" />
<polyline points="9.5,470.5,10.0,470.0" stroke="black" stroke-width="1" fill="none" />
<polyline points="21.5,477.5,2.0,458.0,0.0,456.0,147.5,456.0" stroke="black" stroke-width="1" fill="none" />
<polyline points="140.0,448.0,139.5,448.0" stroke="black" stroke-width="1" fill="none" />
<polyline points="158.5,448.0,511.5,448.0" stroke="black" stroke-width="1" fill="none" />
<polyline points="511.5,440.0,159.5,440.0" stroke="black" stroke-width="1" fill="none" />
<polyline points="159.5,432.0,511.5,432.0" stroke="black" stroke-width="1" fill="none" />
<polyline points="511.5,424.0,160.0,424.0" stroke="black" stroke-width="1" fill="none" />
<polyline points="161.0,416.0,511.5,416.0" stroke="black" stroke-width="1" fill="none" />
<polyline points="511.5,408.0,161.5,408.0" stroke="black" stroke-width="1" fill="none" />
<polyline points="161.5,400.0,511.5,400.0" stroke="black" stroke-width="1" fill="none" />
<polyline points="511.5,392.0,0.0,392.0,0.0,392.0,31.0,423.0" stroke="black" stroke-width="1" fill="none" />
<polyline points="28.0,412.0,31.5,408.5" stroke="black" stroke-width="1" fill="none" />
<polyline points="27.0,405.0,23.5,408.5,19.5,404.5,22.0,402.0" stroke="black" stroke-width="1" fill="none" />
<polyline points="17.0,399.0,12.0,404.0" stroke="black" stroke-width="1" fill="none" />
<polyline points="9.5,409.5,29.5,429.5" stroke="black" stroke-width="1" fill="none" />
<polyline points="17.0,415.0,18.0,414.0" stroke="black" stroke-width="1" fill="none" />
<polyline points="13.5,410.5,12.0,412.0" stroke="black" stroke-width="1" fill="none" />
<polyline points="0.0,408.0,140.0,408.0" stroke="black" stroke-width="1" fill="none" />
<polyline points="96.0,416.0,96.0,364.0" stroke="black" stroke-width="1" fill="none" />
<polyline points="88.0,364.0,88.0,419.5" stroke="black" stroke-width="1" fill="none" />
<polyline points="80.0,437.0,80.0,356.5" stroke="black" stroke-width="1" fill="none" />
<polyline points="72.0,340.0,72.0,434.0,72.0,436.5,72.0,438.5" stroke="black" stroke-width="1" fill="none" />
<polyline points="72.0,445.0,72.0,511.5" stroke="black" stroke-width="1" fill="none" />
<polyline points="23.5,511.5,0.0,488.0" stroke="black" stroke-width="1" fill="none" />
<polyline points="21.5,469.5,2.5,450.5,0.0,448.0,137.0,448.0" stroke="black" stroke-width="1" fill="none" />
<polyline points="80.0,451.5,80.0,493.5" stroke="black" stroke-width="1" fill="none" />
<polyline points="23.0,463.0,4.5,444.5" stroke="black" stroke-width="1" fill="none" />
<polyline points="0.0,440.0,137.5,440.0" stroke="black" stroke-width="1" fill="none" />
<polyline points="137.5,432.0,0.0,432.0" stroke="black" stroke-width="1" fill="none" />
<polyline points="0.0,424.0,139.0,424.0" stroke="black" stroke-width="1" fill="none" />
<polyline points="139.0,416.0,0.0,416.0" stroke="black" stroke-width="1" fill="none" />
<polyline points="0.0,400.0,141.5,400.0" stroke="black" stroke-width="1" fill="none" />
<polyline points="151.5,360.0,511.5,360.0" stroke="black" stroke-width="1" fill="none" />
<polyline points="511.5,384.0,0.0,384.0,0.0,384.0,32.5,416.5" stroke="black" stroke-width="1" fill="none" />
<polyline points="37.5,413.5,14.5,390.5,13.0,389.0,0.0,376.0,0.0,376.0,511.5,376.0" stroke="black" stroke-width="1" fill="none" />
<polyline points="511.5,368.0,0.0,368.0,0.0,368.0,42.5,410.5" stroke="black" stroke-width="1" fill="none" />
<polyline points="49.0,409.0,36.0,396.0,34.0,394.0,0.0,360.0,0.0,360.0,83.5,360.0" stroke="black" stroke-width="1" fill="none" />
<polyline points="51.5,371.5,49.5,369.5" stroke="black" stroke-width="1" fill="none" />
<polyline points="44.0,372.0,42.0,370.0,40.5,368.5,39.5,367.5" stroke="black" stroke-width="1" fill="none" />
<polyline points="32.0,376.0,24.0,368.0,22.5,366.5,4.5,348.5" stroke="black" stroke-width="1" fill="none" />
<polyline points="0.0,352.0,80.5,352.0" stroke="black" stroke-width="1" fill="none" />
<polyline points="112.0,327.5,112.0,325.0" stroke="black" stroke-width="1" fill="none" />
<polyline points="128.0,325.5,128.0,323.0" stroke="black" stroke-width="1" fill="none" />
<polyline points="136.0,323.5,136.0,322.0" stroke="black" stroke-width="1" fill="none" />
<polyline points="152.0,321.5,152.0,243.5" stroke="black" stroke-width="1" fill="none" />
<polyline points="144.0,248.0,144.0,323.5" stroke="black" stroke-width="1" fill="none" />
<polyline points="136.0,319.5,136.0,249.0" stroke="black" stroke-width="1" fill="none" />
<polyline points="128.0,251.0,128.0,322.5" stroke="black" stroke-width="1" fill="none" />
<polyline points="120.0,326.0,120.0,255.0" stroke="black" stroke-width="1" fill="none" />
<polyline points="112.0,255.5,112.0,324.5" stroke="black" stroke-width="1" fill="none" />
<polyline points="104.0,328.0,104.0,255.5" stroke="black" stroke-width="1" fill="none" />
<polyline points="96.0,255.5,96.0,330.0" stroke="black" stroke-width="1" fill="none" />
<polyline points="46.5,382.5,50.0,386.0,53.5,389.5,54.5,390.5" stroke="black" stroke-width="1" fill="none" />
<polyline points="49.0,393.0,47.0,391.0" stroke="black" stroke-width="1" fill="none" />
<polyline points="44.5,396.5,49.0,401.0" stroke="black" stroke-width="1" fill="none" />
<polyline points="39.5,391.5,37.5,389.5,35.5,387.5,34.0,386.0,31.0,383.0,29.0,381.0,28.5,380.5,28.0,380.0,27.0,379.0,12.5,364.5,12.0,364.0,2.5,354.5,1.5,353.5,1.0,353.0" stroke="black" stroke-width="1" fill="none" />
<polyline points="0.0,344.0,77.0,344.0" stroke="black" stroke-width="1" fill="none" />
<polyline points="46.0,382.0,28.5,364.5,28.0,364.0,17.5,353.5" stroke="black" stroke-width="1" fill="none" />
<polyline points="23.0,351.0,27.5,355.5" stroke="black" stroke-width="1" fill="none" />
<polyline points="22.5,350.5,19.0,347.0,18.0,346.0,17.5,345.5,16.0,344.0,13.0,341.0" stroke="black" stroke-width="1" fill="none" />
<polyline points="20.0,340.0,21.5,341.5,22.5,342.5,24.0,344.0,25.5,345.5,26.5,346.5" stroke="black" stroke-width="1" fill="none" />
<polyline points="0.0,336.0,71.0,336.0" stroke="black" stroke-width="1" fill="none" />
<polyline points="26.5,298.5,25.5,297.5" stroke="black" stroke-width="1" fill="none" />
<polyline points="20.0,300.0,19.0,299.0" stroke="black" stroke-width="1" fill="none" />
<polyline points="5.5,301.5,4.0,300.0,0.0,296.0,511.5,296.0" stroke="black" stroke-width="1" fill="none" />
<polyline points="511.5,312.0,0.0,312.0" stroke="black" stroke-width="1" fill="none" />
<polyline points="0.0,304.0,511.5,304.0" stroke="black" stroke-width="1" fill="none" />
<polyline points="511.5,288.0,0.0,288.0" stroke="black" stroke-width="1" fill="none" />
<polyline points="0.0,280.0,511.5,280.0" stroke="black" stroke-width="1" fill="none" />
<polyline points="511.5,272.0,0.0,272.0" stroke="black" stroke-width="1" fill="none" />
<polyline points="0.0,264.0,511.5,264.0" stroke="black" stroke-width="1" fill="none" />
<polyline points="511.5,240.0,64.0,240.0" stroke="black" stroke-width="1" fill="none" />
<polyline points="72.0,240.0,72.0,241.5" stroke="black" stroke-width="1" fill="none" />
<polyline points="80.0,248.0,80.0,332.5" stroke="black" stroke-width="1" fill="none" />
<polyline points="88.0,330.5,88.0,256.0" stroke="black" stroke-width="1" fill="none" />
<polyline points="72.0,256.0,72.0,255.5,72.0,257.5,72.0,332.5" stroke="black" stroke-width="1" fill="none" />
<polyline points="2.5,330.5,2.0,330.0,0.0,328.0,115.0,328.0" stroke="black" stroke-width="1" fill="none" />
<polyline points="64.0,259.5,64.0,511.5" stroke="black" stroke-width="1" fill="none" />
<polyline points="56.0,441.5,56.0,262.0" stroke="black" stroke-width="1" fill="none" />
<polyline points="48.0,262.5,48.0,511.5" stroke="black" stroke-width="1" fill="none" />
<polyline points="40.0,511.5,40.0,262.5" stroke="black" stroke-width="1" fill="none" />
<polyline points="32.0,264.0,32.0,511.5" stroke="black" stroke-width="1" fill="none" />
<polyline points="24.0,511.5,24.0,262.5" stroke="black" stroke-width="1" fill="none" />
<polyline points="16.0,263.0,16.0,511.5" stroke="black" stroke-width="1" fill="none" />
<polyline points="8.0,511.5,8.0,263.0" stroke="black" stroke-width="1" fill="none" />
<polyline points="0.0,262.0,0.0,511.5" stroke="black" stroke-width="1" fill="none" />
<polyline points="0.0,320.0,168.5,320.0" stroke="black" stroke-width="1" fill="none" />
<polyline points="162.0,224.0,511.5,224.0" stroke="black" stroke-width="1" fill="none" />
<polyline points="511.5,232.0,120.0,232.0" stroke="black" stroke-width="1" fill="none" />
<polyline points="160.0,216.0,511.5,216.0" stroke="black" stroke-width="1" fill="none" />
<polyline points="511.5,208.0,160.0,208.0,159.5,208.0,156.0,208.0" stroke="black" stroke-width="1" fill="none" />
<polyline points="147.0,176.0,266.5,176.0" stroke="black" stroke-width="1" fill="none" />
<polyline points="200.0,177.0,200.0,0.0,200.0,0.0,201.5,1.5,203.5,3.5,209.0,9.0,205.0,13.0,192.5,0.5,192.0,0.0,192.0,179.0" stroke="black" stroke-width="1" fill="none" />
<polyline points="184.0,179.5,184.0,0.0,184.0,0.0,186.0,2.0,186.5,2.5,194.5,10.5" stroke="black" stroke-width="1" fill="none" />
<polyline points="193.0,17.0,176.0,0.0,176.0,0.0,176.0,181.0" stroke="black" stroke-width="1" fill="none" />
<polyline points="152.0,167.5,152.0,0.0,152.0,0.0,174.5,22.5,175.0,23.0,178.5,26.5,180.5,28.5,183.5,31.5,185.5,33.5,191.5,39.5,194.5,42.5,195.0,43.0" stroke="black" stroke-width="1" fill="none" />
<polyline points="192.0,48.0,189.0,45.0" stroke="black" stroke-width="1" fill="none" />
<polyline points="186.5,50.5,187.0,51.0" stroke="black" stroke-width="1" fill="none" />
<polyline points="181.0,45.0,180.0,44.0,184.0,40.0,178.5,34.5,175.0,31.0,174.5,30.5,173.0,29.0,170.0,26.0,169.5,25.5,144.0,0.0,144.0,0.0,144.0,163.0" stroke="black" stroke-width="1" fill="none" />
<polyline points="133.5,168.0,254.0,168.0" stroke="black" stroke-width="1" fill="none" />
<polyline points="244.0,36.0,242.5,34.5" stroke="black" stroke-width="1" fill="none" />
<polyline points="230.0,30.0,225.0,25.0" stroke="black" stroke-width="1" fill="none" />
<polyline points="177.5,41.5,170.5,34.5,169.5,33.5,168.0,32.0,166.0,30.0,162.5,26.5" stroke="black" stroke-width="1" fill="none" />
<polyline points="161.0,33.0,163.0,35.0,166.0,38.0,170.5,42.5" stroke="black" stroke-width="1" fill="none" />
<polyline points="175.0,47.0,177.0,49.0,178.5,50.5,182.0,54.0" stroke="black" stroke-width="1" fill="none" />
<polyline points="159.5,55.5,158.0,54.0,157.5,53.5,157.0,53.0,154.5,50.5,153.0,49.0" stroke="black" stroke-width="1" fill="none" />
<polyline points="158.0,46.0,152.0,40.0" stroke="black" stroke-width="1" fill="none" />
<polyline points="146.0,42.0,152.0,48.0" stroke="black" stroke-width="1" fill="none" />
<polyline points="149.5,53.5,137.5,41.5,141.5,37.5,143.5,39.5,141.0,37.0,139.5,35.5,138.5,34.5,137.5,33.5" stroke="black" stroke-width="1" fill="none" />
<polyline points="142.5,30.5,146.0,34.0" stroke="black" stroke-width="1" fill="none" />
<polyline points="151.5,31.5,145.0,25.0" stroke="black" stroke-width="1" fill="none" />
<polyline points="151.5,23.5,128.0,0.0,128.0,0.0,128.0,157.5" stroke="black" stroke-width="1" fill="none" />
<polyline points="120.5,152.5,120.0,152.0,120.0,153.5,120.0,149.5" stroke="black" stroke-width="1" fill="none" />
<polyline points="114.5,154.5,113.5,153.5,112.0,155.5,112.0,0.0,112.0,0.0,142.0,30.0" stroke="black" stroke-width="1" fill="none" />
<polyline points="144.0,24.0,120.0,0.0,120.0,0.0,120.0,145.5" stroke="black" stroke-width="1" fill="none" />
<polyline points="104.0,152.0,104.0,157.5,100.5,156.5,100.0,156.0,96.0,155.5,96.0,157.5" stroke="black" stroke-width="1" fill="none" />
<polyline points="88.0,157.0,88.0,159.5" stroke="black" stroke-width="1" fill="none" />
<polyline points="80.0,159.5,80.0,161.5" stroke="black" stroke-width="1" fill="none" />
<polyline points="80.0,147.0,80.0,0.0,80.0,0.0,112.0,32.0,114.0,34.0,123.0,43.0,126.0,46.0,134.5,54.5,137.0,57.0,138.5,58.5,139.5,59.5,143.0,63.0,144.0,64.0,144.5,64.5" stroke="black" stroke-width="1" fill="none" />
<polyline points="147.5,59.5,145.0,57.0" stroke="black" stroke-width="1" fill="none" />
<polyline points="138.0,50.0,131.0,43.0" stroke="black" stroke-width="1" fill="none" />
<polyline points="137.0,33.0,104.0,0.0,104.0,0.0,104.0,150.0" stroke="black" stroke-width="1" fill="none" />
<polyline points="112.0,128.0,111.5,127.5" stroke="black" stroke-width="1" fill="none" />
<polyline points="104.5,112.5,100.0,108.0" stroke="black" stroke-width="1" fill="none" />
<polyline points="102.5,94.5,101.5,93.5" stroke="black" stroke-width="1" fill="none" />
<polyline points="96.5,96.5,87.0,87.0,85.0,85.0,84.5,84.5" stroke="black" stroke-width="1" fill="none" />
<polyline points="87.5,71.5,87.0,71.0,91.0,67.0,93.0,69.0,93.5,69.5,94.0,70.0" stroke="black" stroke-width="1" fill="none" />
<polyline points="94.0,62.0,91.0,59.0,90.0,58.0,80.5,48.5,80.0,48.0,78.0,46.0,76.5,44.5,64.0,32.0,63.0,31.0,41.0,9.0,40.5,8.5,32.0,0.0,32.0,0.0,32.0,162.5,32.0,168.0,32.0,170.0" stroke="black" stroke-width="1" fill="none" />
<polyline points="24.0,169.5,24.0,168.5" stroke="black" stroke-width="1" fill="none" />
<polyline points="40.0,168.0,40.0,166.5" stroke="black" stroke-width="1" fill="none" />
<polyline points="48.0,157.5,48.0,156.5" stroke="black" stroke-width="1" fill="none" />
<polyline points="56.0,164.0,56.0,166.0" stroke="black" stroke-width="1" fill="none" />
<polyline points="64.0,163.5,64.0,162.0" stroke="black" stroke-width="1" fill="none" />
<polyline points="72.0,150.0,72.0,149.0" stroke="black" stroke-width="1" fill="none" />
<polyline points="70.5,86.5,70.0,86.0" stroke="black" stroke-width="1" fill="none" />
<polyline points="65.5,81.5,64.0,80.0,60.0,84.0,59.0,83.0,57.5,81.5,56.5,80.5,56.0,80.0,55.5,79.5,59.5,75.5,58.5,74.5,56.5,72.5,56.0,72.0,55.5,71.5,46.5,62.5,42.5,58.5,40.0,56.0" stroke="black" stroke-width="1" fill="none" />
<polyline points="39.5,63.5,45.5,69.5,41.5,73.5,45.0,77.0,46.0,78.0,48.0,80.0,50.5,82.5,52.5,84.5" stroke="black" stroke-width="1" fill="none" />
<polyline points="47.5,87.5,45.0,85.0,44.0,84.0,43.5,83.5,42.0,82.0,38.0,78.0,36.5,76.5,34.0,74.0" stroke="black" stroke-width="1" fill="none" />
<polyline points="27.5,75.5,26.5,74.5" stroke="black" stroke-width="1" fill="none" />
<polyline points="22.0,78.0,23.0,79.0,24.5,80.5,25.0,81.0,25.5,81.5,27.5,83.5,28.5,84.5,31.5,87.5,32.0,88.0,32.5,88.5,34.5,90.5,37.5,93.5" stroke="black" stroke-width="1" fill="none" />
<polyline points="29.5,93.5,29.0,93.0" stroke="black" stroke-width="1" fill="none" />
<polyline points="28.0,100.0,28.5,100.5" stroke="black" stroke-width="1" fill="none" />
<polyline points="24.0,88.0,23.5,87.5,21.5,85.5,19.5,83.5" stroke="black" stroke-width="1" fill="none" />
<polyline points="15.0,87.0,13.5,85.5,9.5,89.5,8.0,88.0" stroke="black" stroke-width="1" fill="none" />
<polyline points="3.0,91.0,1.5,89.5,0.0,88.0,511.5,88.0" stroke="black" stroke-width="1" fill="none" />
<polyline points="478.0,160.0,476.0,160.0" stroke="black" stroke-width="1" fill="none" />
<polyline points="139.0,75.0,136.5,72.5" stroke="black" stroke-width="1" fill="none" />
<polyline points="130.0,66.0,129.0,65.0" stroke="black" stroke-width="1" fill="none" />
<polyline points="131.5,59.5,126.5,54.5,125.5,53.5,117.5,45.5,115.0,43.0,113.5,41.5,113.0,41.0,111.5,39.5,108.5,36.5,72.0,0.0,72.0,0.0,72.0,147.5" stroke="black" stroke-width="1" fill="none" />
<polyline points="90.0,82.0,66.0,58.0,64.5,56.5,50.5,42.5,50.0,42.0,40.5,32.5" stroke="black" stroke-width="1" fill="none" />
<polyline points="46.0,30.0,59.5,43.5,60.0,44.0,60.5,44.5,61.0,45.0,62.0,46.0,63.0,47.0,63.5,47.5,64.0,48.0,85.5,69.5" stroke="black" stroke-width="1" fill="none" />
<polyline points="88.5,64.5,88.0,64.0,87.5,63.5,86.0,62.0,83.5,59.5,78.0,54.0" stroke="black" stroke-width="1" fill="none" />
<polyline points="73.5,49.5,73.0,49.0" stroke="black" stroke-width="1" fill="none" />
<polyline points="88.0,48.0,89.5,49.5,91.0,51.0,98.5,58.5" stroke="black" stroke-width="1" fill="none" />
<polyline points="104.5,56.5,99.0,51.0,96.5,48.5,96.0,48.0" stroke="black" stroke-width="1" fill="none" />
<polyline points="102.0,46.0,110.0,54.0,113.0,57.0,118.0,62.0,122.0,58.0,123.5,59.5,120.5,56.5,118.0,54.0,117.5,53.5,112.0,48.0,110.0,46.0,108.0,44.0,106.0,42.0,104.5,40.5,104.0,40.0,101.0,37.0,100.5,36.5,96.5,32.5,95.5,31.5,90.0,26.0,89.0,25.0,64.0,0.0,64.0,0.0,64.0,150.0" stroke="black" stroke-width="1" fill="none" />
<polyline points="96.0,148.0,96.0,0.0,96.0,0.0,137.0,41.0" stroke="black" stroke-width="1" fill="none" />
<polyline points="130.0,42.0,88.0,0.0,88.0,0.0,88.0,148.0" stroke="black" stroke-width="1" fill="none" />
<polyline points="118.0,86.0,117.0,85.0" stroke="black" stroke-width="1" fill="none" />
<polyline points="112.5,80.5,111.5,79.5" stroke="black" stroke-width="1" fill="none" />
<polyline points="116.0,68.0,114.5,66.5" stroke="black" stroke-width="1" fill="none" />
<polyline points="110.0,62.0,108.0,60.0" stroke="black" stroke-width="1" fill="none" />
<polyline points="105.5,65.5,107.0,67.0" stroke="black" stroke-width="1" fill="none" />
<polyline points="100.0,44.0,87.5,31.5,86.5,30.5,56.0,0.0,56.0,0.0,56.0,152.5" stroke="black" stroke-width="1" fill="none" />
<polyline points="48.0,153.5,48.0,0.0,48.0,0.0,68.5,20.5,69.5,21.5,76.5,28.5,78.5,30.5,80.0,32.0,80.5,32.5,83.5,35.5,84.5,36.5,88.0,40.0,89.0,41.0,94.0,46.0" stroke="black" stroke-width="1" fill="none" />
<polyline points="87.5,47.5,73.0,33.0,72.0,32.0,59.0,19.0,58.0,18.0,40.0,0.0,40.0,0.0,40.0,161.0" stroke="black" stroke-width="1" fill="none" />
<polyline points="24.0,165.0,24.0,0.0,24.0,0.0,26.0,2.0,26.5,2.5,43.0,19.0,44.5,20.5,49.0,25.0,49.5,25.5,56.0,32.0,56.5,32.5,71.5,47.5" stroke="black" stroke-width="1" fill="none" />
<polyline points="59.5,59.5,68.5,68.5,70.0,70.0,72.0,72.0" stroke="black" stroke-width="1" fill="none" />
<polyline points="66.5,74.5,65.5,73.5,65.0,73.0,63.0,71.0,62.0,70.0,61.0,69.0,60.0,68.0,53.0,61.0,51.5,59.5,35.5,43.5,34.5,42.5,32.0,40.0,31.5,39.5,2.0,10.0,1.0,9.0,0.0,8.0,0.0,8.0,511.5,8.0" stroke="black" stroke-width="1" fill="none" />
<polyline points="57.0,57.0,52.5,52.5,51.0,51.0,50.5,50.5,50.0,50.0,45.5,45.5,45.0,45.0,43.0,43.0,42.0,42.0,41.0,41.0" stroke="black" stroke-width="1" fill="none" />
<polyline points="45.5,29.5,16.0,0.0,16.0,0.0,16.0,172.5" stroke="black" stroke-width="1" fill="none" />
<polyline points="8.0,172.5,8.0,174.5" stroke="black" stroke-width="1" fill="none" />
<polyline points="0.0,173.5,0.0,173.0,0.0,168.0,48.0,168.0" stroke="black" stroke-width="1" fill="none" />
<polyline points="8.0,165.5,8.0,0.0,8.0,0.0,35.5,27.5,36.0,28.0,39.5,31.5" stroke="black" stroke-width="1" fill="none" />
<polyline points="40.5,40.5,25.0,25.0,23.5,23.5,21.0,21.0" stroke="black" stroke-width="1" fill="none" />
<polyline points="15.5,31.5,16.0,32.0,16.5,32.5,37.5,53.5" stroke="black" stroke-width="1" fill="none" />
<polyline points="29.0,61.0,31.5,63.5,32.0,64.0,39.0,71.0" stroke="black" stroke-width="1" fill="none" />
<polyline points="34.5,82.5,35.0,83.0" stroke="black" stroke-width="1" fill="none" />
<polyline points="20.0,76.0,19.0,75.0" stroke="black" stroke-width="1" fill="none" />
<polyline points="14.0,78.0,5.0,69.0,4.5,68.5,3.0,67.0,2.0,66.0,0.0,64.0,0.0,64.0,511.5,64.0" stroke="black" stroke-width="1" fill="none" />
<polyline points="32.0,72.0,26.5,66.5" stroke="black" stroke-width="1" fill="none" />
<polyline points="20.0,68.0,25.0,73.0" stroke="black" stroke-width="1" fill="none" />
<polyline points="18.0,74.0,10.5,66.5,7.0,63.0,0.0,56.0,0.0,56.0,511.5,56.0" stroke="black" stroke-width="1" fill="none" />
<polyline points="28.5,60.5,26.5,58.5" stroke="black" stroke-width="1" fill="none" />
<polyline points="24.5,64.5,20.0,60.0,18.5,58.5,18.0,58.0" stroke="black" stroke-width="1" fill="none" />
<polyline points="17.0,65.0,17.5,65.5" stroke="black" stroke-width="1" fill="none" />
<polyline points="12.5,60.5,9.5,57.5,9.0,57.0,4.0,52.0,3.5,51.5,0.0,48.0,0.0,48.0,511.5,48.0" stroke="black" stroke-width="1" fill="none" />
<polyline points="25.5,57.5,0.0,32.0,0.0,32.0,511.5,32.0" stroke="black" stroke-width="1" fill="none" />
<polyline points="37.5,61.5,24.5,48.5" stroke="black" stroke-width="1" fill="none" />
<polyline points="15.5,55.5,0.0,40.0,0.0,40.0,511.5,40.0" stroke="black" stroke-width="1" fill="none" />
<polyline points="23.5,47.5,0.0,24.0,0.0,24.0,511.5,24.0" stroke="black" stroke-width="1" fill="none" />
<polyline points="15.0,31.0,0.5,16.5,0.0,16.0,511.5,16.0" stroke="black" stroke-width="1" fill="none" />
<polyline points="20.5,20.5,12.5,12.5,11.0,11.0,0.0,0.0,0.0,0.0,0.0,166.0" stroke="black" stroke-width="1" fill="none" />
<polyline points="0.0,160.0,87.5,160.0" stroke="black" stroke-width="1" fill="none" />
<polyline points="42.5,216.0,38.5,216.0" stroke="black" stroke-width="1" fill="none" />
<polyline points="0.0,152.0,244.5,152.0" stroke="black" stroke-width="1" fill="none" />
<polyline points="8.0,96.0,6.5,94.5" stroke="black" stroke-width="1" fill="none" />
<polyline points="0.0,96.0,450.5,96.0" stroke="black" stroke-width="1" fill="none" />
<polyline points="9.0,81.0,8.0,80.0,6.5,78.5,0.5,72.5,0.0,72.0,511.5,72.0" stroke="black" stroke-width="1" fill="none" />
<polyline points="242.5,144.0,0.0,144.0" stroke="black" stroke-width="1" fill="none" />
<polyline points="0.0,136.0,241.0,136.0" stroke="black" stroke-width="1" fill="none" />
<polyline points="271.0,128.0,0.0,128.0" stroke="black" stroke-width="1" fill="none" />
<polyline points="0.0,120.0,318.5,120.0" stroke="black" stroke-width="1" fill="none" />
<polyline points="364.0,112.0,0.0,112.0" stroke="black" stroke-width="1" fill="none" />
<polyline points="0.0,104.0,410.5,104.0" stroke="black" stroke-width="1" fill="none" />
<polyline points="511.5,80.0,0.0,80.0" stroke="black" stroke-width="1" fill="none" />
</svg>