<svg xmlns="http://www.w3.org/2000/svg" height="512px" width="512px" version="1.1"><polyline points="471.0,311.0,472.0,319.0,474.0,327.0,475.0,335.0,481.0,347.0,484.0,355.0,486.0,363.0,486.0,371.0,484.0,379.0,486.0,387.0,488.0,395.0,490.0,403.0" stroke="black" stroke-width="1" fill="none" />
<polyline points="488.0,379.0,481.0,377.0,473.0,378.0,465.0,381.0,475.0,377.0,479.0,379.0,471.0,382.0" stroke="black" stroke-width="1" fill="none" />
<polyline points="480.0,380.0,483.0,388.0,484.0,396.0,485.0,404.0,487.0,412.0,489.0,420.0,491.0,427.0,488.0,429.0,480.0,431.0,472.0,433.0,464.0,435.0,456.0,437.0,448.0,439.0,440.0,441.0,432.0,442.0,424.0,444.0,416.0,446.0,408.0,448.0,400.0,450.0,392.0,452.0,384.0,454.0,376.0,456.0,368.0,457.0,360.0,459.0,352.0,461.0,344.0,462.0,336.0,465.0,328.0,467.0,320.0,469.0,312.0,471.0,304.0,472.0,296.0,474.0,288.0,476.0,280.0,478.0,272.0,480.0,264.0,482.0,256.0,484.0,248.0,486.0,240.0,487.0,232.0,489.0,224.0,491.0,216.0,493.0,208.0,494.0,196.0,498.0,193.0,495.0,193.0,487.0,191.0,479.0,188.0,471.0,185.0,463.0,183.0,455.0,178.0,447.0,174.0,439.0,173.0,431.0,171.0,423.0,170.0,415.0,165.0,405.0" stroke="black" stroke-width="1" fill="none" />
<polyline points="173.0,409.0,181.0,407.0" stroke="black" stroke-width="1" fill="none" />
<polyline points="165.0,416.0,165.0,408.0,166.0,400.0,164.0,392.0,162.0,384.0" stroke="black" stroke-width="1" fill="none" />
<polyline points="159.0,354.0,167.0,351.0,175.0,349.0,183.0,347.0,191.0,345.0,199.0,343.0,207.0,341.0,215.0,339.0,223.0,337.0,231.0,335.0,239.0,333.0,247.0,331.0,255.0,330.0,263.0,328.0,271.0,326.0,279.0,324.0,287.0,322.0,295.0,320.0,303.0,318.0,311.0,316.0,319.0,315.0,327.0,313.0,335.0,311.0,343.0,309.0,351.0,307.0,359.0,305.0,367.0,303.0,375.0,302.0,383.0,300.0,391.0,298.0,399.0,296.0,407.0,294.0,415.0,292.0,423.0,291.0,431.0,289.0,439.0,287.0,447.0,285.0,455.0,283.0,458.0,284.0,460.0,292.0,463.0,300.0,466.0,308.0,468.0,316.0,469.0,324.0,471.0,332.0,469.0,340.0,473.0,341.0,481.0,341.0,477.0,339.0,478.0,331.0,476.0,323.0" stroke="black" stroke-width="1" fill="none" />
<polyline points="414.0,288.0,406.0,290.0,398.0,292.0,390.0,294.0,382.0,296.0,374.0,298.0,366.0,300.0,358.0,301.0,350.0,303.0,342.0,305.0,334.0,307.0,326.0,309.0,318.0,311.0" stroke="black" stroke-width="1" fill="none" />
<polyline points="273.0,321.0,265.0,323.0,257.0,325.0,249.0,327.0,241.0,329.0,233.0,331.0,225.0,333.0,217.0,334.0,209.0,336.0" stroke="black" stroke-width="1" fill="none" />
<polyline points="160.0,352.0,161.0,360.0,162.0,368.0,164.0,376.0,166.0,384.0,168.0,392.0,170.0,400.0,171.0,408.0,167.0,414.0" stroke="black" stroke-width="1" fill="none" />
<polyline points="175.0,440.0,183.0,448.0,182.0,445.0,190.0,444.0,198.0,443.0" stroke="black" stroke-width="1" fill="none" />
<polyline points="194.0,490.0,202.0,496.0" stroke="black" stroke-width="1" fill="none" />
<polyline points="36.0,508.0,34.0,500.0,31.0,492.0,30.0,484.0,30.0,476.0,29.0,475.0,21.0,486.0,13.0,472.0" stroke="black" stroke-width="1" fill="none" />
<polyline points="27.0,470.0,29.0,469.0,27.0,477.0,24.0,485.0" stroke="black" stroke-width="1" fill="none" />
<polyline points="10.0,488.0,2.0,490.0" stroke="black" stroke-width="1" fill="none" />
<polyline points="30.0,470.0,35.0,478.0,32.0,480.0,34.0,488.0,37.0,496.0,39.0,504.0" stroke="black" stroke-width="1" fill="none" />
<polyline points="24.0,452.0,16.0,447.0,8.0,448.0,0.0,450.0" stroke="black" stroke-width="1" fill="none" />
<polyline points="12.0,450.0,11.0,458.0,12.0,466.0,13.0,474.0,17.0,482.0" stroke="black" stroke-width="1" fill="none" />
<polyline points="21.0,449.0,18.0,441.0,15.0,433.0,13.0,425.0,11.0,417.0,8.0,409.0,6.0,401.0,4.0,393.0,0.0,390.0" stroke="black" stroke-width="1" fill="none" />
<polyline points="17.0,423.0,19.0,431.0,21.0,439.0,23.0,437.0,26.0,445.0" stroke="black" stroke-width="1" fill="none" />
<polyline points="68.0,13.0,76.0,11.0,68.0,14.0,70.0,22.0,73.0,30.0,76.0,38.0,79.0,46.0,81.0,54.0,85.0,56.0,93.0,54.0,101.0,52.0,109.0,50.0,117.0,48.0,125.0,46.0,133.0,44.0,141.0,42.0,149.0,40.0,157.0,38.0,165.0,36.0,173.0,34.0,181.0,32.0,189.0,30.0,197.0,28.0,205.0,27.0,213.0,25.0,221.0,23.0,229.0,21.0,237.0,19.0,245.0,17.0,253.0,14.0,261.0,13.0,269.0,11.0,277.0,9.0,285.0,7.0,293.0,5.0,301.0,3.0,309.0,1.0" stroke="black" stroke-width="1" fill="none" />
<polyline points="0.0,0.0,511.5,0.0,511.5,0.5,316.5,195.5,315.5,196.5,314.0,198.0" stroke="black" stroke-width="1" fill="none" />
<polyline points="319.5,200.5,313.5,206.5" stroke="black" stroke-width="1" fill="none" />
<polyline points="318.0,210.0,323.5,204.5,324.0,204.0,324.5,203.5,325.5,202.5,328.5,199.5,329.5,198.5,511.5,16.5" stroke="black" stroke-width="1" fill="none" />
<polyline points="511.5,32.5,349.0,195.0,348.0,196.0,344.5,199.5,344.0,200.0,340.0,204.0" stroke="black" stroke-width="1" fill="none" />
<polyline points="343.0,209.0,511.5,40.5" stroke="black" stroke-width="1" fill="none" />
<polyline points="511.5,80.5,382.5,209.5" stroke="black" stroke-width="1" fill="none" />
<polyline points="382.5,217.5,511.5,88.5" stroke="black" stroke-width="1" fill="none" />
<polyline points="511.5,176.5,430.5,257.5,427.5,260.5,426.5,261.5,425.0,263.0,424.0,264.0,428.0,268.0,429.0,267.0,431.0,265.0,432.0,264.0,435.5,260.5,436.5,259.5,437.5,258.5,438.0,258.0,440.0,256.0,441.0,255.0,442.0,254.0,511.5,184.5" stroke="black" stroke-width="1" fill="none" />
<polyline points="511.5,280.5,485.5,306.5,483.0,309.0,482.5,309.5,480.0,312.0,480.5,312.5,482.5,314.5,486.5,318.5,487.5,319.5,511.5,343.5" stroke="black" stroke-width="1" fill="none" />
<polyline points="511.5,360.5,501.5,370.5" stroke="black" stroke-width="1" fill="none" />
<polyline points="496.5,367.5,511.5,352.5" stroke="black" stroke-width="1" fill="none" />
<polyline points="511.5,368.5,503.0,377.0" stroke="black" stroke-width="1" fill="none" />
<polyline points="496.5,376.5,511.5,391.5,511.5,392.5,505.0,399.0,504.0,400.0,503.0,401.0,501.0,403.0,499.5,404.5" stroke="black" stroke-width="1" fill="none" />
<polyline points="500.5,411.5,511.5,400.5" stroke="black" stroke-width="1" fill="none" />
<polyline points="511.5,408.5,499.0,421.0,498.0,422.0,492.5,427.5,492.0,428.0,511.5,447.5" stroke="black" stroke-width="1" fill="none" />
<polyline points="511.5,464.5,464.5,511.5" stroke="black" stroke-width="1" fill="none" />
<polyline points="456.5,511.5,511.5,456.5" stroke="black" stroke-width="1" fill="none" />
<polyline points="511.5,480.5,480.5,511.5" stroke="black" stroke-width="1" fill="none" />
<polyline points="472.5,511.5,511.5,472.5" stroke="black" stroke-width="1" fill="none" />
<polyline points="511.5,504.5,504.5,511.5" stroke="black" stroke-width="1" fill="none" />
<polyline points="496.5,511.5,511.5,496.5" stroke="black" stroke-width="1" fill="none" />
<polyline points="511.5,488.5,488.5,511.5" stroke="black" stroke-width="1" fill="none" />
<polyline points="448.5,511.5,511.5,448.5" stroke="black" stroke-width="1" fill="none" />
<polyline points="511.5,440.5,440.5,511.5" stroke="black" stroke-width="1" fill="none" />
<polyline points="432.5,511.5,511.5,432.5" stroke="black" stroke-width="1" fill="none" />
<polyline points="511.5,424.5,424.5,511.5" stroke="black" stroke-width="1" fill="none" />
<polyline points="416.5,511.5,464.0,464.0,464.5,463.5,467.5,460.5,468.0,460.0,471.5,456.5,473.0,455.0,489.0,439.0,489.5,438.5,511.5,416.5" stroke="black" stroke-width="1" fill="none" />
<polyline points="500.0,412.0,498.5,413.5,494.5,417.5,491.0,421.0,490.0,418.0,511.5,439.5" stroke="black" stroke-width="1" fill="none" />
<polyline points="491.0,429.0,485.0,435.0,484.5,435.5,484.0,436.0,481.0,439.0,480.0,440.0,476.5,443.5,476.0,444.0,475.5,444.5,474.5,445.5,471.0,449.0,464.5,455.5,464.0,456.0,461.0,459.0" stroke="black" stroke-width="1" fill="none" />
<polyline points="456.5,455.5,458.0,454.0,459.0,453.0,459.5,452.5,461.0,451.0,462.0,450.0,465.5,446.5,466.0,446.0" stroke="black" stroke-width="1" fill="none" />
<polyline points="465.0,439.0,469.0,435.0,467.5,435.5,511.5,479.5" stroke="black" stroke-width="1" fill="none" />
<polyline points="511.5,431.5,488.0,408.0,488.5,407.5,490.5,405.5,485.5,408.0,511.5,408.0" stroke="black" stroke-width="1" fill="none" />
<polyline points="500.0,396.0,500.5,395.5,503.0,393.0,511.5,384.5" stroke="black" stroke-width="1" fill="none" />
<polyline points="504.5,383.5,511.5,376.5" stroke="black" stroke-width="1" fill="none" />
<polyline points="511.5,367.5,485.5,341.5,487.5,344.5,511.5,320.5" stroke="black" stroke-width="1" fill="none" />
<polyline points="511.5,336.5,486.5,361.5,485.0,360.0,511.5,360.0" stroke="black" stroke-width="1" fill="none" />
<polyline points="511.5,344.5,493.0,363.0,489.5,366.5,488.0,368.0,487.0,367.0,490.5,370.5,486.0,368.0,511.5,368.0" stroke="black" stroke-width="1" fill="none" />
<polyline points="511.5,351.5,486.5,326.5" stroke="black" stroke-width="1" fill="none" />
<polyline points="492.5,323.5,511.5,304.5" stroke="black" stroke-width="1" fill="none" />
<polyline points="511.5,312.5,492.5,331.5" stroke="black" stroke-width="1" fill="none" />
<polyline points="487.0,335.0,511.5,359.5" stroke="black" stroke-width="1" fill="none" />
<polyline points="511.5,335.5,463.0,287.0,463.0,289.0,511.5,240.5" stroke="black" stroke-width="1" fill="none" />
<polyline points="511.5,296.5,493.5,314.5,492.0,316.0,491.5,316.5" stroke="black" stroke-width="1" fill="none" />
<polyline points="489.0,311.0,491.0,309.0,492.0,308.0,511.5,288.5" stroke="black" stroke-width="1" fill="none" />
<polyline points="511.5,272.5,486.0,298.0,485.0,299.0,482.0,302.0" stroke="black" stroke-width="1" fill="none" />
<polyline points="480.0,296.0,511.5,264.5" stroke="black" stroke-width="1" fill="none" />
<polyline points="511.5,256.5,479.0,289.0,478.0,290.0,477.0,291.0,476.0,292.0,474.0,294.0" stroke="black" stroke-width="1" fill="none" />
<polyline points="469.5,298.5,466.0,302.0,463.0,304.0,511.5,304.0" stroke="black" stroke-width="1" fill="none" />
<polyline points="511.5,328.5,485.0,355.0,485.0,357.0,511.5,383.5" stroke="black" stroke-width="1" fill="none" />
<polyline points="511.5,375.5,480.5,344.5,480.5,343.5,481.5,342.5,480.0,340.5,480.0,345.0,479.0,344.0,511.5,344.0" stroke="black" stroke-width="1" fill="none" />
<polyline points="487.0,345.0,483.0,349.0,482.5,352.0,511.5,352.0" stroke="black" stroke-width="1" fill="none" />
<polyline points="511.5,319.5,227.0,35.0,226.5,37.5,222.5,41.5" stroke="black" stroke-width="1" fill="none" />
<polyline points="228.0,44.0,230.5,41.5,231.5,40.5,236.5,35.5,233.0,33.0,511.5,311.5" stroke="black" stroke-width="1" fill="none" />
<polyline points="511.5,279.5,249.5,17.5,248.0,17.0,248.0,330.5,246.5,329.5,248.5,327.5,247.5,327.5,250.5,330.5,254.5,326.5,256.5,328.5,256.5,327.5,259.5,324.5,260.0,324.0,263.0,327.0,266.5,325.5,269.5,322.5,267.0,323.0,270.0,326.0,274.0,322.0,276.0,324.0,276.5,323.5,279.5,320.5,280.0,320.0,282.0,322.0,287.0,321.0,289.5,318.5,289.5,321.5,286.0,318.0" stroke="black" stroke-width="1" fill="none" />
<polyline points="293.0,317.0,295.5,319.5,297.0,319.0,299.0,317.0,300.0,316.0,301.5,317.5,307.0,317.0,309.0,315.0,310.5,313.5,312.5,311.5,311.0,311.0,315.5,315.5,319.5,312.5,322.5,309.5,325.5,309.5,328.0,312.0,329.5,310.5,332.5,307.5,331.0,307.0,335.0,311.0,339.5,308.5,342.5,305.5,345.0,305.0,347.0,307.0,349.5,306.5,352.5,303.5,351.0,303.0,354.5,306.5" stroke="black" stroke-width="1" fill="none" />
<polyline points="358.0,302.0,361.0,305.0,360.0,304.0,362.5,301.5,365.0,301.0,367.0,303.0,370.0,302.0,372.5,299.5,371.0,299.0,373.5,301.5" stroke="black" stroke-width="1" fill="none" />
<polyline points="377.0,297.0,380.5,300.5,380.0,300.0,383.5,296.5,384.5,296.5,386.5,298.5,390.5,297.5,394.0,294.0,396.0,292.0,400.0,296.0,400.5,295.5,401.0,295.0,402.5,293.5,406.0,290.0,403.0,291.0,406.0,294.0,410.0,290.0,412.0,292.0,412.5,291.5,416.0,288.0" stroke="black" stroke-width="1" fill="none" />
<polyline points="422.5,289.5,426.5,285.5,429.5,285.5,432.0,288.0,432.5,287.5,436.5,283.5" stroke="black" stroke-width="1" fill="none" />
<polyline points="443.0,285.0,446.5,281.5" stroke="black" stroke-width="1" fill="none" />
<polyline points="443.5,276.5,445.0,275.0,447.0,273.0,448.0,272.0,449.5,270.5,453.0,267.0,453.5,266.5,511.5,208.5" stroke="black" stroke-width="1" fill="none" />
<polyline points="511.5,248.5,472.5,287.5,469.0,291.0,465.0,295.0,465.0,297.0,479.0,311.0" stroke="black" stroke-width="1" fill="none" />
<polyline points="474.5,314.5,474.0,314.0,471.0,313.0,470.0,314.0,471.5,311.5,467.0,307.0,467.5,308.5,469.5,306.5" stroke="black" stroke-width="1" fill="none" />
<polyline points="465.5,312.0,511.5,312.0" stroke="black" stroke-width="1" fill="none" />
<polyline points="475.0,301.0,474.5,301.5" stroke="black" stroke-width="1" fill="none" />
<polyline points="464.0,296.5,464.0,0.0,464.0,0.0,511.5,47.5" stroke="black" stroke-width="1" fill="none" />
<polyline points="511.5,72.5,373.0,211.0,371.5,212.5,369.0,215.0,367.5,216.5,366.0,218.0,365.5,218.5,364.0,220.0" stroke="black" stroke-width="1" fill="none" />
<polyline points="367.5,224.5,382.0,210.0" stroke="black" stroke-width="1" fill="none" />
<polyline points="381.5,218.5,371.5,228.5,370.0,230.0,368.5,231.5,368.0,232.0,366.5,233.5" stroke="black" stroke-width="1" fill="none" />
<polyline points="370.0,238.0,371.0,237.0,373.5,234.5,374.0,234.0,376.0,232.0,378.0,230.0,381.0,227.0,511.5,96.5" stroke="black" stroke-width="1" fill="none" />
<polyline points="511.5,192.5,444.5,259.5,443.5,260.5,441.5,262.5,440.5,263.5,439.5,264.5,437.5,266.5,436.0,268.0,440.0,272.0,441.0,271.0" stroke="black" stroke-width="1" fill="none" />
<polyline points="446.0,266.0,511.5,200.5" stroke="black" stroke-width="1" fill="none" />
<polyline points="511.5,232.5,462.0,282.0,458.5,282.5,204.5,28.5,203.5,28.5,202.5,29.5,200.0,27.5,200.0,343.0,203.5,340.5,206.5,337.5,209.0,337.0,211.0,339.0,213.5,338.5,216.5,335.5,215.0,335.0,218.0,338.0" stroke="black" stroke-width="1" fill="none" />
<polyline points="221.5,333.5,224.5,336.5,224.0,336.0,226.0,334.0,226.5,333.5,227.5,332.5,228.5,332.5,230.5,334.5,234.0,334.0,235.0,333.0,236.0,332.0,237.5,330.5,237.0,333.0,234.5,330.5" stroke="black" stroke-width="1" fill="none" />
<polyline points="240.5,328.5,244.5,332.5" stroke="black" stroke-width="1" fill="none" />
<polyline points="235.5,323.5,235.0,323.0,232.5,320.5,232.0,320.0,231.0,319.0,230.0,318.0,229.0,317.0,227.0,315.0" stroke="black" stroke-width="1" fill="none" />
<polyline points="222.5,318.5,224.5,320.5" stroke="black" stroke-width="1" fill="none" />
<polyline points="221.5,325.5,219.0,323.0" stroke="black" stroke-width="1" fill="none" />
<polyline points="215.5,327.5,217.0,329.0" stroke="black" stroke-width="1" fill="none" />
<polyline points="203.0,331.0,0.0,128.0,0.0,128.0,511.5,128.0" stroke="black" stroke-width="1" fill="none" />
<polyline points="511.5,224.5,453.0,283.0,452.0,284.0,207.5,39.5,206.5,38.5,205.0,37.0,205.5,42.5,203.0,45.0,202.0,46.0,199.0,49.0,198.5,49.5,196.0,52.0,195.5,52.5,171.5,76.5" stroke="black" stroke-width="1" fill="none" />
<polyline points="173.0,83.0,181.5,74.5,182.5,73.5,204.5,51.5,206.0,50.0,209.5,46.5,210.5,45.5,215.0,41.0" stroke="black" stroke-width="1" fill="none" />
<polyline points="227.0,45.0,218.5,53.5" stroke="black" stroke-width="1" fill="none" />
<polyline points="230.5,49.5,248.0,32.0,247.0,31.0,511.5,295.5" stroke="black" stroke-width="1" fill="none" />
<polyline points="471.5,320.5,471.0,321.0,472.5,320.5,469.5,317.5,468.5,320.0,511.5,320.0" stroke="black" stroke-width="1" fill="none" />
<polyline points="511.5,287.5,252.5,28.5" stroke="black" stroke-width="1" fill="none" />
<polyline points="258.0,30.0,238.5,49.5" stroke="black" stroke-width="1" fill="none" />
<polyline points="238.0,66.0,256.5,47.5,257.0,47.0,278.5,25.5" stroke="black" stroke-width="1" fill="none" />
<polyline points="289.0,23.0,188.5,123.5,188.0,124.0,186.5,125.5" stroke="black" stroke-width="1" fill="none" />
<polyline points="196.5,131.5,197.0,131.0,199.5,128.5,224.0,104.0,224.5,103.5,310.5,17.5" stroke="black" stroke-width="1" fill="none" />
<polyline points="321.5,14.5,239.5,96.5,237.5,98.5,237.0,99.0" stroke="black" stroke-width="1" fill="none" />
<polyline points="242.5,101.5,331.5,12.5" stroke="black" stroke-width="1" fill="none" />
<polyline points="342.0,10.0,223.5,128.5" stroke="black" stroke-width="1" fill="none" />
<polyline points="227.0,133.0,229.0,131.0,232.0,128.0,353.5,6.5" stroke="black" stroke-width="1" fill="none" />
<polyline points="352.0,0.0,352.0,307.0" stroke="black" stroke-width="1" fill="none" />
<polyline points="341.0,309.0,338.5,306.5" stroke="black" stroke-width="1" fill="none" />
<polyline points="343.5,295.5,343.0,295.0,340.0,292.0,339.0,291.0,337.5,289.5,336.5,288.5" stroke="black" stroke-width="1" fill="none" />
<polyline points="342.5,286.5,337.5,281.5" stroke="black" stroke-width="1" fill="none" />
<polyline points="343.5,287.5,347.0,291.0" stroke="black" stroke-width="1" fill="none" />
<polyline points="357.5,285.5,359.5,287.5,362.0,290.0,363.0,291.0" stroke="black" stroke-width="1" fill="none" />
<polyline points="370.5,290.5,371.0,291.0" stroke="black" stroke-width="1" fill="none" />
<polyline points="376.0,288.0,372.0,284.0" stroke="black" stroke-width="1" fill="none" />
<polyline points="380.5,284.5,382.0,286.0,384.0,288.0,386.0,290.0" stroke="black" stroke-width="1" fill="none" />
<polyline points="391.5,287.5,152.0,48.0" stroke="black" stroke-width="1" fill="none" />
<polyline points="150.0,42.0,151.0,41.0,152.0,40.5,152.0,511.5,152.5,511.5,178.0,486.0" stroke="black" stroke-width="1" fill="none" />
<polyline points="184.0,488.0,160.5,511.5" stroke="black" stroke-width="1" fill="none" />
<polyline points="168.5,511.5,191.5,488.5,191.5,487.5,0.0,296.0,0.0,296.0,405.0,296.0" stroke="black" stroke-width="1" fill="none" />
<polyline points="405.5,285.5,402.5,282.5" stroke="black" stroke-width="1" fill="none" />
<polyline points="411.0,283.0,419.5,291.5" stroke="black" stroke-width="1" fill="none" />
<polyline points="445.5,285.5,202.0,42.0" stroke="black" stroke-width="1" fill="none" />
<polyline points="204.5,36.5,200.5,32.5,200.0,32.0,198.0,30.0,194.0,30.0,192.5,31.5,192.0,29.5,192.0,345.0,193.5,342.5,196.5,339.5,199.0,343.0,0.0,144.0,0.0,144.0,511.5,144.0" stroke="black" stroke-width="1" fill="none" />
<polyline points="511.5,216.5,454.5,273.5" stroke="black" stroke-width="1" fill="none" />
<polyline points="456.0,283.5,456.0,0.0,456.0,0.0,511.5,55.5" stroke="black" stroke-width="1" fill="none" />
<polyline points="511.5,104.5,389.5,226.5,393.5,230.5,511.5,112.5" stroke="black" stroke-width="1" fill="none" />
<polyline points="511.5,168.5,429.5,250.5,428.5,251.5,426.5,253.5,425.5,254.5,422.5,257.5,419.5,260.5,419.0,261.0" stroke="black" stroke-width="1" fill="none" />
<polyline points="414.0,258.0,412.5,259.5,408.5,255.5,412.5,251.5,414.5,249.5,511.5,152.5" stroke="black" stroke-width="1" fill="none" />
<polyline points="511.5,160.5,418.5,253.5" stroke="black" stroke-width="1" fill="none" />
<polyline points="412.0,244.0,511.5,144.5" stroke="black" stroke-width="1" fill="none" />
<polyline points="511.5,136.5,407.0,241.0,406.0,242.0,404.5,243.5" stroke="black" stroke-width="1" fill="none" />
<polyline points="407.5,248.5,410.5,245.5" stroke="black" stroke-width="1" fill="none" />
<polyline points="405.0,251.0,404.5,251.5" stroke="black" stroke-width="1" fill="none" />
<polyline points="399.0,249.0,397.0,251.0" stroke="black" stroke-width="1" fill="none" />
<polyline points="395.0,245.0,397.0,243.0,398.5,241.5,403.0,237.0,403.5,236.5,511.5,128.5" stroke="black" stroke-width="1" fill="none" />
<polyline points="511.5,120.5,398.5,233.5,396.5,235.5,394.0,238.0,393.0,239.0,392.5,239.5,392.0,240.0,391.5,240.5,390.5,241.5,387.5,244.5,385.0,247.0,383.0,249.0,379.0,245.0,378.5,245.5,376.5,247.5,375.5,248.5,372.0,252.0,371.5,252.5,368.0,256.0,367.5,256.5" stroke="black" stroke-width="1" fill="none" />
<polyline points="376.5,255.5,378.0,254.0" stroke="black" stroke-width="1" fill="none" />
<polyline points="369.5,246.5,373.0,243.0,376.0,240.0,379.5,236.5,382.5,233.5,388.5,227.5" stroke="black" stroke-width="1" fill="none" />
<polyline points="389.5,234.5,387.5,236.5,385.5,238.5,383.0,241.0" stroke="black" stroke-width="1" fill="none" />
<polyline points="366.0,242.0,364.5,243.5" stroke="black" stroke-width="1" fill="none" />
<polyline points="361.0,239.0,361.5,238.5" stroke="black" stroke-width="1" fill="none" />
<polyline points="360.0,232.0,360.5,231.5,361.5,230.5,364.5,227.5" stroke="black" stroke-width="1" fill="none" />
<polyline points="358.5,225.5,362.5,221.5" stroke="black" stroke-width="1" fill="none" />
<polyline points="357.5,226.5,354.0,230.0" stroke="black" stroke-width="1" fill="none" />
<polyline points="348.5,227.5,372.0,204.0,372.5,203.5,511.5,64.5" stroke="black" stroke-width="1" fill="none" />
<polyline points="511.5,56.5,367.0,201.0,366.5,201.5,357.0,211.0,356.5,211.5,352.0,216.0,351.0,217.0,349.0,219.0,346.5,221.5,344.5,223.5" stroke="black" stroke-width="1" fill="none" />
<polyline points="343.0,217.0,345.5,214.5,348.0,212.0,349.5,210.5,352.0,208.0,365.0,195.0,366.0,194.0,511.5,48.5" stroke="black" stroke-width="1" fill="none" />
<polyline points="511.5,24.5,342.5,193.5,342.0,194.0,338.5,197.5" stroke="black" stroke-width="1" fill="none" />
<polyline points="338.0,206.0,335.5,208.5" stroke="black" stroke-width="1" fill="none" />
<polyline points="340.5,211.5,336.0,216.0" stroke="black" stroke-width="1" fill="none" />
<polyline points="337.5,222.5,335.0,225.0" stroke="black" stroke-width="1" fill="none" />
<polyline points="338.5,229.5,337.0,231.0" stroke="black" stroke-width="1" fill="none" />
<polyline points="339.0,237.0,338.5,237.5,335.5,240.5,335.0,241.0" stroke="black" stroke-width="1" fill="none" />
<polyline points="324.5,235.5,323.5,236.5,322.0,238.0,321.0,239.0" stroke="black" stroke-width="1" fill="none" />
<polyline points="316.5,235.5,318.5,233.5" stroke="black" stroke-width="1" fill="none" />
<polyline points="320.5,223.5,325.0,219.0,325.5,218.5,326.5,217.5,329.0,215.0,334.5,209.5" stroke="black" stroke-width="1" fill="none" />
<polyline points="337.5,198.5,322.0,214.0" stroke="black" stroke-width="1" fill="none" />
<polyline points="316.5,211.5,315.5,212.5,314.5,213.5,313.0,215.0,309.0,211.0,310.5,209.5,308.0,212.0,305.0,215.0,304.0,216.0,303.5,216.5,302.0,218.0,301.0,219.0" stroke="black" stroke-width="1" fill="none" />
<polyline points="303.5,224.5,302.5,225.5" stroke="black" stroke-width="1" fill="none" />
<polyline points="299.5,220.5,296.5,223.5" stroke="black" stroke-width="1" fill="none" />
<polyline points="291.5,228.5,287.0,233.0" stroke="black" stroke-width="1" fill="none" />
<polyline points="285.0,227.0,290.0,222.0" stroke="black" stroke-width="1" fill="none" />
<polyline points="287.5,216.5,283.0,221.0" stroke="black" stroke-width="1" fill="none" />
<polyline points="281.5,214.5,287.0,209.0,289.5,206.5,290.0,206.0,291.5,204.5,292.0,204.0,292.5,203.5,296.0,200.0,297.0,199.0,298.5,197.5,302.5,193.5,303.0,193.0,304.0,192.0,307.5,188.5,308.5,187.5,321.5,174.5,322.5,173.5,496.0,0.0,496.0,0.0,496.0,511.5" stroke="black" stroke-width="1" fill="none" />
<polyline points="452.5,467.5,453.0,467.0,454.0,466.0,456.5,463.5,452.5,459.5,453.5,458.5" stroke="black" stroke-width="1" fill="none" />
<polyline points="450.0,470.0,448.0,472.0,447.5,472.5,444.0,476.0,441.5,478.5,437.5,482.5,434.5,485.5,427.5,492.5,427.0,493.0,425.0,495.0,424.0,496.0,408.5,511.5" stroke="black" stroke-width="1" fill="none" />
<polyline points="407.0,505.0,400.5,511.5" stroke="black" stroke-width="1" fill="none" />
<polyline points="392.5,511.5,408.5,495.5,409.5,494.5,413.0,491.0,413.5,490.5,420.0,484.0,421.0,483.0,426.0,478.0" stroke="black" stroke-width="1" fill="none" />
<polyline points="433.0,479.0,436.5,475.5,438.5,473.5,441.0,471.0,443.5,468.5,444.0,468.0" stroke="black" stroke-width="1" fill="none" />
<polyline points="434.5,469.5,433.0,471.0" stroke="black" stroke-width="1" fill="none" />
<polyline points="430.0,482.0,418.5,493.5,416.5,495.5,413.0,499.0,411.5,500.5,408.5,503.5" stroke="black" stroke-width="1" fill="none" />
<polyline points="402.5,493.5,405.0,491.0,407.5,488.5,411.0,485.0" stroke="black" stroke-width="1" fill="none" />
<polyline points="407.5,480.5,408.0,480.0,409.5,478.5,410.0,478.0" stroke="black" stroke-width="1" fill="none" />
<polyline points="402.0,486.0,400.0,488.0,399.0,489.0,397.0,491.0,394.5,493.5,394.0,494.0,392.5,495.5,376.5,511.5" stroke="black" stroke-width="1" fill="none" />
<polyline points="374.0,506.0,374.5,505.5,375.0,505.0,379.0,501.0,381.5,498.5,384.0,496.0,385.5,494.5,387.0,493.0" stroke="black" stroke-width="1" fill="none" />
<polyline points="392.0,488.0,393.0,487.0" stroke="black" stroke-width="1" fill="none" />
<polyline points="400.0,496.0,384.5,511.5" stroke="black" stroke-width="1" fill="none" />
<polyline points="373.0,507.0,368.5,511.5" stroke="black" stroke-width="1" fill="none" />
<polyline points="360.5,511.5,374.5,497.5,375.0,497.0,377.0,495.0,379.5,492.5,380.0,492.0" stroke="black" stroke-width="1" fill="none" />
<polyline points="378.0,486.0,379.5,484.5" stroke="black" stroke-width="1" fill="none" />
<polyline points="369.0,495.0,367.0,497.0,366.0,498.0,364.0,500.0,363.5,500.5,363.0,501.0" stroke="black" stroke-width="1" fill="none" />
<polyline points="358.0,506.0,352.5,511.5" stroke="black" stroke-width="1" fill="none" />
<polyline points="347.5,508.5,354.5,501.5" stroke="black" stroke-width="1" fill="none" />
<polyline points="347.0,509.0,344.5,511.5" stroke="black" stroke-width="1" fill="none" />
<polyline points="342.5,505.5,337.5,510.5,333.5,506.5,338.0,502.0" stroke="black" stroke-width="1" fill="none" />
<polyline points="343.5,504.5,352.5,495.5" stroke="black" stroke-width="1" fill="none" />
<polyline points="347.0,493.0,351.0,489.0" stroke="black" stroke-width="1" fill="none" />
<polyline points="345.5,486.5,349.0,483.0" stroke="black" stroke-width="1" fill="none" />
<polyline points="343.5,480.5,347.0,477.0,343.0,473.0,346.0,470.0" stroke="black" stroke-width="1" fill="none" />
<polyline points="351.5,471.5,391.5,511.5" stroke="black" stroke-width="1" fill="none" />
<polyline points="351.5,511.5,324.0,484.0,323.5,483.5,316.0,476.0,314.0,474.0,312.0,472.0,312.0,472.0,309.0,475.0,308.0,476.0,306.0,474.0,304.0,473.5,304.0,511.5,304.5,511.5,306.5,509.5,310.0,506.0,311.0,505.0" stroke="black" stroke-width="1" fill="none" />
<polyline points="314.5,509.5,312.5,511.5" stroke="black" stroke-width="1" fill="none" />
<polyline points="320.5,511.5,321.0,511.0,322.5,509.5,324.0,508.0,324.5,507.5,328.0,504.0,332.0,508.0,329.5,510.5" stroke="black" stroke-width="1" fill="none" />
<polyline points="317.5,498.5,318.0,498.0" stroke="black" stroke-width="1" fill="none" />
<polyline points="319.5,511.5,290.5,482.5,288.5,479.5,292.0,476.0,292.0,476.0,294.5,478.5,296.0,475.5,296.0,511.5,296.5,511.5,298.5,509.5,299.5,508.5,300.0,508.0" stroke="black" stroke-width="1" fill="none" />
<polyline points="291.5,508.5,288.5,511.5,284.5,507.5,286.5,505.5,283.5,508.5,280.5,511.5" stroke="black" stroke-width="1" fill="none" />
<polyline points="258.5,509.5,256.5,511.5" stroke="black" stroke-width="1" fill="none" />
<polyline points="236.5,507.5,234.5,509.5" stroke="black" stroke-width="1" fill="none" />
<polyline points="226.5,509.5,224.5,511.5,220.5,507.5,222.0,506.0,219.5,508.5,219.0,509.0,217.5,510.5,216.5,511.5,212.5,507.5,212.0,508.0,211.5,508.5,208.5,511.5" stroke="black" stroke-width="1" fill="none" />
<polyline points="207.0,505.0,200.5,511.5" stroke="black" stroke-width="1" fill="none" />
<polyline points="192.5,511.5,201.5,502.5,202.5,501.5,203.5,500.5,204.0,500.0,204.5,499.5,205.0,499.0,209.0,495.0,208.0,495.0,208.0,511.5" stroke="black" stroke-width="1" fill="none" />
<polyline points="209.0,503.0,211.0,501.0" stroke="black" stroke-width="1" fill="none" />
<polyline points="215.5,496.5,219.5,492.5,221.0,493.0,239.5,511.5" stroke="black" stroke-width="1" fill="none" />
<polyline points="235.5,492.5,239.5,488.5,240.0,488.5,240.0,511.5" stroke="black" stroke-width="1" fill="none" />
<polyline points="223.5,511.5,207.5,495.5" stroke="black" stroke-width="1" fill="none" />
<polyline points="201.0,497.0,215.5,511.5" stroke="black" stroke-width="1" fill="none" />
<polyline points="199.5,511.5,0.0,312.0,0.0,312.0,331.0,312.0" stroke="black" stroke-width="1" fill="none" />
<polyline points="321.5,313.5,319.0,311.0" stroke="black" stroke-width="1" fill="none" />
<polyline points="323.0,299.0,322.5,298.5,322.0,298.0,321.0,297.0,320.0,296.0,24.0,0.0,24.0,0.0,24.0,438.5,19.5,435.5,17.0,433.0,17.0,431.0,18.0,430.0,18.5,426.5,13.0,421.0,13.0,419.0,15.5,416.5,10.5,416.0,171.0,416.0,169.5,414.5,169.0,415.0,168.0,415.0,168.0,511.5" stroke="black" stroke-width="1" fill="none" />
<polyline points="176.5,511.5,193.0,495.0,195.0,499.0,207.5,511.5" stroke="black" stroke-width="1" fill="none" />
<polyline points="191.5,511.5,0.0,320.0,0.0,320.0,298.0,320.0" stroke="black" stroke-width="1" fill="none" />
<polyline points="305.5,313.5,309.5,317.5" stroke="black" stroke-width="1" fill="none" />
<polyline points="309.5,301.5,299.5,291.5,301.5,290.5,303.5,288.5" stroke="black" stroke-width="1" fill="none" />
<polyline points="305.5,294.5,303.0,297.0,301.0,301.0,308.5,308.5" stroke="black" stroke-width="1" fill="none" />
<polyline points="298.5,306.5,298.0,306.0,296.0,304.0,295.5,303.5,294.0,302.0,293.0,301.0,289.0,305.0,287.0,303.0,285.5,301.5,283.5,299.5" stroke="black" stroke-width="1" fill="none" />
<polyline points="279.0,303.0,277.0,301.0" stroke="black" stroke-width="1" fill="none" />
<polyline points="272.0,304.0,274.0,306.0" stroke="black" stroke-width="1" fill="none" />
<polyline points="269.0,309.0,267.0,307.0" stroke="black" stroke-width="1" fill="none" />
<polyline points="261.5,309.5,260.5,308.5" stroke="black" stroke-width="1" fill="none" />
<polyline points="253.5,309.5,252.5,308.5,252.0,308.0,251.5,307.5" stroke="black" stroke-width="1" fill="none" />
<polyline points="247.0,311.0,243.0,307.0,241.5,305.5,238.5,302.5,237.5,301.5,0.0,64.0,0.0,64.0,511.5,64.0" stroke="black" stroke-width="1" fill="none" />
<polyline points="511.5,8.5,321.5,198.5" stroke="black" stroke-width="1" fill="none" />
<polyline points="313.0,199.0,307.0,205.0,304.0,208.0,303.5,208.5,301.0,211.0,300.5,211.5" stroke="black" stroke-width="1" fill="none" />
<polyline points="292.0,212.0,291.5,212.5" stroke="black" stroke-width="1" fill="none" />
<polyline points="281.0,207.0,286.0,202.0,288.0,200.0,294.0,194.0,296.0,192.0,299.0,189.0,301.0,187.0,315.0,173.0,315.5,172.5,488.0,0.0,488.0,0.0,488.0,377.5,484.0,376.0,511.5,376.0" stroke="black" stroke-width="1" fill="none" />
<polyline points="497.0,385.0,511.5,399.5" stroke="black" stroke-width="1" fill="none" />
<polyline points="511.5,407.5,493.0,389.0,488.0,389.5,488.0,413.0,488.0,413.5,488.0,416.5,486.5,416.0,511.5,416.0" stroke="black" stroke-width="1" fill="none" />
<polyline points="492.5,411.5,489.5,414.5" stroke="black" stroke-width="1" fill="none" />
<polyline points="488.5,424.0,511.5,424.0" stroke="black" stroke-width="1" fill="none" />
<polyline points="511.5,415.5,491.5,395.5,489.0,399.0,486.5,401.5,484.5,400.0,511.5,400.0" stroke="black" stroke-width="1" fill="none" />
<polyline points="488.0,392.0,484.5,388.5,483.5,392.0,511.5,392.0" stroke="black" stroke-width="1" fill="none" />
<polyline points="487.5,392.5,485.5,394.5,486.5,398.5,511.5,423.5" stroke="black" stroke-width="1" fill="none" />
<polyline points="488.0,429.5,488.0,511.5" stroke="black" stroke-width="1" fill="none" />
<polyline points="475.5,436.5,479.0,433.0,480.0,432.0,511.5,463.5" stroke="black" stroke-width="1" fill="none" />
<polyline points="511.5,455.5,487.0,431.0" stroke="black" stroke-width="1" fill="none" />
<polyline points="480.0,431.0,480.0,511.5" stroke="black" stroke-width="1" fill="none" />
<polyline points="511.5,471.5,473.5,433.5,472.0,433.0,472.0,511.5" stroke="black" stroke-width="1" fill="none" />
<polyline points="511.5,487.5,461.0,437.0,459.0,437.0,455.0,441.0,454.0,438.0,511.5,495.5" stroke="black" stroke-width="1" fill="none" />
<polyline points="511.5,503.5,452.0,444.0" stroke="black" stroke-width="1" fill="none" />
<polyline points="448.5,439.5,445.0,443.0,442.0,442.0,511.5,511.5" stroke="black" stroke-width="1" fill="none" />
<polyline points="431.5,511.5,383.0,463.0,382.5,457.5,385.5,454.5,384.0,454.5,384.0,511.5" stroke="black" stroke-width="1" fill="none" />
<polyline points="343.5,511.5,310.0,478.0" stroke="black" stroke-width="1" fill="none" />
<polyline points="304.0,480.0,335.5,511.5" stroke="black" stroke-width="1" fill="none" />
<polyline points="303.5,511.5,276.5,484.5,278.5,481.5,280.0,480.0,279.5,479.5,282.5,482.5,284.5,484.5,311.5,511.5" stroke="black" stroke-width="1" fill="none" />
<polyline points="295.5,511.5,270.5,486.5,268.5,483.5,269.0,483.0,268.5,484.5,266.5,482.5,264.0,482.5,264.0,511.5" stroke="black" stroke-width="1" fill="none" />
<polyline points="247.5,511.5,227.0,491.0,229.5,490.5,225.5,494.5,224.0,491.5,224.0,511.5" stroke="black" stroke-width="1" fill="none" />
<polyline points="231.5,511.5,215.0,495.0,216.0,493.0,216.0,511.5" stroke="black" stroke-width="1" fill="none" />
<polyline points="232.0,511.5,232.0,490.5,234.0,490.0,255.5,511.5" stroke="black" stroke-width="1" fill="none" />
<polyline points="263.5,511.5,241.0,489.0,246.5,489.5,249.5,486.5,248.0,486.5,248.0,511.5" stroke="black" stroke-width="1" fill="none" />
<polyline points="251.0,491.0,271.5,511.5" stroke="black" stroke-width="1" fill="none" />
<polyline points="258.0,486.0,259.5,484.5,260.5,484.5,287.5,511.5" stroke="black" stroke-width="1" fill="none" />
<polyline points="279.5,511.5,253.0,485.0,256.0,484.5,256.0,511.5" stroke="black" stroke-width="1" fill="none" />
<polyline points="249.5,489.5,246.5,486.5" stroke="black" stroke-width="1" fill="none" />
<polyline points="232.5,488.0,511.5,488.0" stroke="black" stroke-width="1" fill="none" />
<polyline points="455.5,511.5,406.5,462.5,406.0,462.0,401.0,457.0" stroke="black" stroke-width="1" fill="none" />
<polyline points="396.0,460.0,447.5,511.5" stroke="black" stroke-width="1" fill="none" />
<polyline points="399.5,511.5,360.5,472.5,359.0,471.0,356.5,468.5" stroke="black" stroke-width="1" fill="none" />
<polyline points="352.0,464.0,353.0,463.0,352.0,462.0,352.0,511.5" stroke="black" stroke-width="1" fill="none" />
<polyline points="327.5,511.5,306.0,490.0,305.5,489.5,298.0,482.0,299.0,477.0,302.5,473.5,304.5,472.0,511.5,472.0" stroke="black" stroke-width="1" fill="none" />
<polyline points="479.5,511.5,422.5,454.5,420.5,452.5,420.0,452.0,419.5,451.5,416.0,448.0,415.5,448.5,414.5,449.5,416.0,447.0,416.0,511.5" stroke="black" stroke-width="1" fill="none" />
<polyline points="367.5,511.5,329.5,473.5,331.5,468.5,332.0,468.0,331.5,467.5,333.5,469.5,336.0,465.5,336.0,511.5" stroke="black" stroke-width="1" fill="none" />
<polyline points="359.5,511.5,324.0,476.0" stroke="black" stroke-width="1" fill="none" />
<polyline points="321.0,471.0,322.0,470.0,320.0,469.5,320.0,511.5" stroke="black" stroke-width="1" fill="none" />
<polyline points="302.0,478.0,298.5,474.5" stroke="black" stroke-width="1" fill="none" />
<polyline points="288.0,477.0,288.0,511.5" stroke="black" stroke-width="1" fill="none" />
<polyline points="275.0,483.0,272.5,480.5,272.0,480.0,272.0,511.5" stroke="black" stroke-width="1" fill="none" />
<polyline points="280.0,511.5,280.0,478.0" stroke="black" stroke-width="1" fill="none" />
<polyline points="286.0,478.0,288.5,480.5" stroke="black" stroke-width="1" fill="none" />
<polyline points="268.0,480.0,511.5,480.0" stroke="black" stroke-width="1" fill="none" />
<polyline points="463.5,511.5,414.5,462.5,414.0,462.0,407.0,455.0,404.5,451.5,406.0,450.0,405.5,448.0,511.5,448.0" stroke="black" stroke-width="1" fill="none" />
<polyline points="511.5,464.0,341.0,464.0,343.0,465.0,343.5,464.5,344.0,464.0,349.5,469.5,353.5,465.5,351.5,463.5" stroke="black" stroke-width="1" fill="none" />
<polyline points="357.0,461.0,360.0,464.0,362.0,462.0,365.5,458.5,363.5,459.5,367.5,463.5,368.5,464.5,369.5,465.5,370.0,466.0,371.5,467.5,372.5,468.5,415.5,511.5" stroke="black" stroke-width="1" fill="none" />
<polyline points="375.5,511.5,339.5,475.5,339.0,475.0,337.0,473.0" stroke="black" stroke-width="1" fill="none" />
<polyline points="337.5,465.5,383.5,511.5" stroke="black" stroke-width="1" fill="none" />
<polyline points="407.5,511.5,363.5,467.5" stroke="black" stroke-width="1" fill="none" />
<polyline points="360.0,460.5,360.0,511.5" stroke="black" stroke-width="1" fill="none" />
<polyline points="408.0,511.5,408.0,448.5,409.0,449.0,412.0,452.0,415.5,455.5,471.5,511.5" stroke="black" stroke-width="1" fill="none" />
<polyline points="450.5,442.5,447.5,439.5,448.0,439.5,448.0,511.5" stroke="black" stroke-width="1" fill="none" />
<polyline points="423.5,511.5,375.0,463.0,372.0,460.0,375.5,456.5,376.0,456.5,376.0,511.5" stroke="black" stroke-width="1" fill="none" />
<polyline points="374.0,462.0,371.0,459.0,368.0,458.5,368.0,511.5" stroke="black" stroke-width="1" fill="none" />
<polyline points="392.5,464.5,439.5,511.5" stroke="black" stroke-width="1" fill="none" />
<polyline points="487.5,511.5,426.5,450.5,425.0,447.0,425.5,446.5,426.5,445.5,428.5,443.5,428.0,444.0,431.5,447.5,433.0,449.0,495.5,511.5" stroke="black" stroke-width="1" fill="none" />
<polyline points="503.5,511.5,435.0,443.0,435.0,445.0,438.5,441.5,440.0,441.5,440.0,511.5" stroke="black" stroke-width="1" fill="none" />
<polyline points="424.5,448.5,422.0,446.0,424.0,445.5,424.0,511.5" stroke="black" stroke-width="1" fill="none" />
<polyline points="391.0,463.0,388.5,460.5,386.0,458.0,383.0,455.0,379.0,459.0,377.0,457.0,374.5,456.0,511.5,456.0" stroke="black" stroke-width="1" fill="none" />
<polyline points="511.5,496.0,32.0,496.0,34.0,494.0,35.5,492.5,35.5,491.5,32.5,488.5,30.5,488.0,194.5,488.0,192.0,485.0,192.0,511.5" stroke="black" stroke-width="1" fill="none" />
<polyline points="184.5,511.5,197.0,499.0,194.0,498.0,0.0,304.0,0.0,304.0,368.0,304.0" stroke="black" stroke-width="1" fill="none" />
<polyline points="378.5,290.5,382.0,294.0" stroke="black" stroke-width="1" fill="none" />
<polyline points="390.5,294.5,393.0,297.0" stroke="black" stroke-width="1" fill="none" />
<polyline points="394.0,290.0,392.5,288.5" stroke="black" stroke-width="1" fill="none" />
<polyline points="393.5,281.5,400.5,288.5" stroke="black" stroke-width="1" fill="none" />
<polyline points="439.0,287.0,195.5,43.5,194.5,45.5,152.0,88.0,151.5,88.5,0.0,240.0,0.0,240.0,511.5,240.0" stroke="black" stroke-width="1" fill="none" />
<polyline points="511.5,175.5,336.0,0.0,336.0,0.0,336.0,311.0" stroke="black" stroke-width="1" fill="none" />
<polyline points="335.0,287.0,101.5,53.5,98.0,54.0,97.0,55.0,94.5,54.5,316.0,276.0,317.0,277.0,332.5,292.5" stroke="black" stroke-width="1" fill="none" />
<polyline points="335.5,279.5,117.0,61.0,122.0,62.0,108.5,75.5,108.0,76.0,101.0,83.0,100.5,83.5,0.0,184.0,0.0,184.0,511.5,184.0" stroke="black" stroke-width="1" fill="none" />
<polyline points="511.5,71.5,440.0,0.0,440.0,0.0,440.0,287.5" stroke="black" stroke-width="1" fill="none" />
<polyline points="428.0,284.0,187.5,43.5,185.0,47.0,183.0,49.0,182.5,49.5,176.5,55.5,176.0,56.0,161.5,70.5,161.0,71.0,158.5,73.5" stroke="black" stroke-width="1" fill="none" />
<polyline points="171.0,77.0,127.0,121.0" stroke="black" stroke-width="1" fill="none" />
<polyline points="132.0,124.0,158.5,97.5,160.0,96.0,172.5,83.5" stroke="black" stroke-width="1" fill="none" />
<polyline points="178.0,102.0,201.0,79.0,201.5,78.5,229.5,50.5" stroke="black" stroke-width="1" fill="none" />
<polyline points="231.5,64.5,268.0,28.0" stroke="black" stroke-width="1" fill="none" />
<polyline points="268.5,12.5,511.5,255.5" stroke="black" stroke-width="1" fill="none" />
<polyline points="511.5,199.5,313.0,1.0,312.0,0.0,312.0,316.0" stroke="black" stroke-width="1" fill="none" />
<polyline points="315.5,299.5,314.5,298.5,310.5,294.5,309.0,293.0" stroke="black" stroke-width="1" fill="none" />
<polyline points="315.0,283.0,327.5,295.5" stroke="black" stroke-width="1" fill="none" />
<polyline points="301.0,275.0,298.0,278.0" stroke="black" stroke-width="1" fill="none" />
<polyline points="296.0,272.0,300.5,267.5" stroke="black" stroke-width="1" fill="none" />
<polyline points="295.0,265.0,298.5,261.5" stroke="black" stroke-width="1" fill="none" />
<polyline points="293.0,259.0,296.5,255.5" stroke="black" stroke-width="1" fill="none" />
<polyline points="291.5,252.5,297.0,247.0" stroke="black" stroke-width="1" fill="none" />
<polyline points="294.5,241.5,290.0,246.0,288.0,248.0,287.5,248.5" stroke="black" stroke-width="1" fill="none" />
<polyline points="287.5,240.5,293.0,235.0" stroke="black" stroke-width="1" fill="none" />
<polyline points="275.0,229.0,274.5,229.5" stroke="black" stroke-width="1" fill="none" />
<polyline points="275.5,220.5,276.0,220.0" stroke="black" stroke-width="1" fill="none" />
<polyline points="271.5,216.5,274.5,213.5,275.5,212.5,277.0,211.0,279.0,209.0,279.5,208.5" stroke="black" stroke-width="1" fill="none" />
<polyline points="272.0,200.0,275.5,196.5,276.5,195.5,282.5,189.5,284.5,187.5,285.5,186.5,286.5,185.5,472.0,0.0,472.0,0.0,472.0,331.0,471.0,328.0,511.5,328.0" stroke="black" stroke-width="1" fill="none" />
<polyline points="511.5,303.5,234.5,26.5,235.0,21.0,236.5,19.5,235.5,19.5,246.0,30.0" stroke="black" stroke-width="1" fill="none" />
<polyline points="245.5,18.5,246.5,17.5,242.0,18.0,252.0,28.0" stroke="black" stroke-width="1" fill="none" />
<polyline points="255.5,15.5,511.5,271.5" stroke="black" stroke-width="1" fill="none" />
<polyline points="511.5,223.5,294.0,6.0,296.0,4.0,296.0,320.0" stroke="black" stroke-width="1" fill="none" />
<polyline points="292.0,308.0,291.5,307.5" stroke="black" stroke-width="1" fill="none" />
<polyline points="285.0,309.0,284.0,308.0" stroke="black" stroke-width="1" fill="none" />
<polyline points="270.5,302.5,265.0,297.0" stroke="black" stroke-width="1" fill="none" />
<polyline points="262.5,302.5,258.0,298.0" stroke="black" stroke-width="1" fill="none" />
<polyline points="253.5,301.5,259.0,307.0" stroke="black" stroke-width="1" fill="none" />
<polyline points="260.5,316.5,262.5,318.5" stroke="black" stroke-width="1" fill="none" />
<polyline points="238.0,318.0,236.5,316.5,235.5,315.5,234.0,314.0" stroke="black" stroke-width="1" fill="none" />
<polyline points="220.5,316.5,217.0,313.0" stroke="black" stroke-width="1" fill="none" />
<polyline points="201.5,337.5,205.0,341.0" stroke="black" stroke-width="1" fill="none" />
<polyline points="192.0,344.0,188.5,340.5,186.5,341.5,181.0,347.0" stroke="black" stroke-width="1" fill="none" />
<polyline points="176.0,344.0,171.0,349.0" stroke="black" stroke-width="1" fill="none" />
<polyline points="165.0,347.0,161.0,351.0,158.0,354.0,155.5,356.5,159.5,360.5,157.5,362.5,160.0,360.5,160.0,511.5" stroke="black" stroke-width="1" fill="none" />
<polyline points="144.5,511.5,174.0,482.0,177.0,479.0,178.0,478.0" stroke="black" stroke-width="1" fill="none" />
<polyline points="185.5,478.5,187.5,476.5" stroke="black" stroke-width="1" fill="none" />
<polyline points="184.0,472.0,186.5,469.5,182.5,470.5,188.0,476.0" stroke="black" stroke-width="1" fill="none" />
<polyline points="189.5,482.5,187.5,484.5" stroke="black" stroke-width="1" fill="none" />
<polyline points="200.0,497.0,200.0,511.5" stroke="black" stroke-width="1" fill="none" />
<polyline points="183.0,465.0,185.0,463.0,185.5,465.5,181.5,461.5,184.0,460.0,184.0,511.5" stroke="black" stroke-width="1" fill="none" />
<polyline points="170.0,478.0,136.5,511.5" stroke="black" stroke-width="1" fill="none" />
<polyline points="128.5,511.5,166.5,473.5" stroke="black" stroke-width="1" fill="none" />
<polyline points="165.5,466.5,166.0,466.0,164.0,468.0,120.5,511.5" stroke="black" stroke-width="1" fill="none" />
<polyline points="112.5,511.5,159.5,464.5" stroke="black" stroke-width="1" fill="none" />
<polyline points="159.5,456.5,104.5,511.5" stroke="black" stroke-width="1" fill="none" />
<polyline points="96.5,511.5,157.5,450.5,160.0,448.0,160.5,447.5" stroke="black" stroke-width="1" fill="none" />
<polyline points="164.0,436.0,168.0,432.0,169.0,431.0,172.0,428.0,168.0,424.0,170.0,422.0,166.5,425.5,80.5,511.5" stroke="black" stroke-width="1" fill="none" />
<polyline points="72.5,511.5,162.0,422.0" stroke="black" stroke-width="1" fill="none" />
<polyline points="156.5,419.5,64.5,511.5" stroke="black" stroke-width="1" fill="none" />
<polyline points="56.5,511.5,153.0,415.0" stroke="black" stroke-width="1" fill="none" />
<polyline points="147.0,413.0,48.5,511.5" stroke="black" stroke-width="1" fill="none" />
<polyline points="48.0,504.0,49.5,502.5,52.5,499.5,142.5,409.5,143.0,409.0,144.5,407.5" stroke="black" stroke-width="1" fill="none" />
<polyline points="141.5,402.5,57.0,487.0,56.5,487.5,54.0,490.0" stroke="black" stroke-width="1" fill="none" />
<polyline points="53.0,483.0,139.0,397.0" stroke="black" stroke-width="1" fill="none" />
<polyline points="134.5,393.5,135.5,392.5,137.5,390.5,139.0,389.0" stroke="black" stroke-width="1" fill="none" />
<polyline points="133.5,394.5,48.5,479.5" stroke="black" stroke-width="1" fill="none" />
<polyline points="46.5,473.5,135.5,384.5" stroke="black" stroke-width="1" fill="none" />
<polyline points="134.0,378.0,135.5,376.5,136.0,376.0,138.0,374.0" stroke="black" stroke-width="1" fill="none" />
<polyline points="141.5,378.5,144.5,375.5" stroke="black" stroke-width="1" fill="none" />
<polyline points="137.5,366.5,142.0,362.0,146.0,358.0,147.0,357.0,149.0,355.0,158.0,346.0" stroke="black" stroke-width="1" fill="none" />
<polyline points="152.0,344.0,157.0,339.0" stroke="black" stroke-width="1" fill="none" />
<polyline points="151.0,337.0,156.0,332.0" stroke="black" stroke-width="1" fill="none" />
<polyline points="153.5,326.5,149.0,331.0,145.0,327.0,152.0,320.0" stroke="black" stroke-width="1" fill="none" />
<polyline points="157.5,322.5,159.5,320.5" stroke="black" stroke-width="1" fill="none" />
<polyline points="158.5,313.5,159.5,312.5,163.5,308.5,164.0,308.0" stroke="black" stroke-width="1" fill="none" />
<polyline points="162.0,302.0,162.5,301.5,165.5,298.5,166.5,297.5,162.5,293.5,161.0,295.0" stroke="black" stroke-width="1" fill="none" />
<polyline points="156.5,291.5,158.5,289.5,154.5,293.5,149.5,298.5" stroke="black" stroke-width="1" fill="none" />
<polyline points="152.5,303.5,144.5,311.5,143.0,313.0,141.5,314.5,141.0,315.0,139.5,316.5" stroke="black" stroke-width="1" fill="none" />
<polyline points="144.0,320.0,141.0,323.0" stroke="black" stroke-width="1" fill="none" />
<polyline points="146.0,318.0,151.0,313.0,154.0,310.0,158.5,305.5" stroke="black" stroke-width="1" fill="none" />
<polyline points="155.5,300.5,156.5,299.5" stroke="black" stroke-width="1" fill="none" />
<polyline points="149.0,299.0,129.0,319.0,128.5,319.5,122.0,326.0" stroke="black" stroke-width="1" fill="none" />
<polyline points="127.0,329.0,139.0,317.0" stroke="black" stroke-width="1" fill="none" />
<polyline points="140.5,323.5,134.5,329.5,138.5,333.5,139.0,333.0,137.5,334.5,136.0,336.0" stroke="black" stroke-width="1" fill="none" />
<polyline points="137.0,343.0,143.5,336.5,147.5,340.5,148.0,340.0" stroke="black" stroke-width="1" fill="none" />
<polyline points="145.5,350.5,133.0,363.0" stroke="black" stroke-width="1" fill="none" />
<polyline points="135.5,368.5,36.5,467.5" stroke="black" stroke-width="1" fill="none" />
<polyline points="42.0,470.0,133.0,379.0" stroke="black" stroke-width="1" fill="none" />
<polyline points="160.5,375.5,163.0,373.0,159.0,369.0,161.5,366.5" stroke="black" stroke-width="1" fill="none" />
<polyline points="164.0,380.0,162.5,381.5" stroke="black" stroke-width="1" fill="none" />
<polyline points="165.5,386.5,164.5,387.5,164.0,388.0,166.0,390.0" stroke="black" stroke-width="1" fill="none" />
<polyline points="168.0,396.0,168.0,396.5,168.0,398.0,168.0,403.0,168.5,408.0,170.5,408.0" stroke="black" stroke-width="1" fill="none" />
<polyline points="168.5,416.5,170.0,418.0" stroke="black" stroke-width="1" fill="none" />
<polyline points="172.5,435.5,171.5,436.5" stroke="black" stroke-width="1" fill="none" />
<polyline points="163.5,436.5,88.5,511.5" stroke="black" stroke-width="1" fill="none" />
<polyline points="41.0,511.0,40.5,511.5,39.5,511.5,37.0,509.0,37.0,507.0,39.5,504.5,34.5,504.0,511.5,504.0" stroke="black" stroke-width="1" fill="none" />
<polyline points="504.0,511.5,504.0,0.0,504.0,0.0,511.5,7.5" stroke="black" stroke-width="1" fill="none" />
<polyline points="504.0,0.0,316.5,187.5,315.5,188.5,313.0,191.0,311.0,193.0,306.0,198.0" stroke="black" stroke-width="1" fill="none" />
<polyline points="293.0,187.0,300.5,179.5,301.5,178.5,303.5,176.5,305.0,175.0,327.5,152.5,328.0,152.0,480.0,0.0,480.0,0.0,480.0,329.0" stroke="black" stroke-width="1" fill="none" />
<polyline points="479.0,336.0,511.5,336.0" stroke="black" stroke-width="1" fill="none" />
<polyline points="511.5,327.5,210.0,26.0,208.0,25.5,208.0,341.0" stroke="black" stroke-width="1" fill="none" />
<polyline points="185.5,345.5,181.0,341.0" stroke="black" stroke-width="1" fill="none" />
<polyline points="140.0,348.0,137.5,350.5,134.5,353.5,25.5,462.5" stroke="black" stroke-width="1" fill="none" />
<polyline points="30.0,466.0,131.5,364.5" stroke="black" stroke-width="1" fill="none" />
<polyline points="128.5,351.5,129.0,351.0,129.5,350.5,130.5,349.5,133.0,347.0,136.5,343.5" stroke="black" stroke-width="1" fill="none" />
<polyline points="134.5,337.5,126.5,345.5" stroke="black" stroke-width="1" fill="none" />
<polyline points="126.5,353.5,37.0,443.0" stroke="black" stroke-width="1" fill="none" />
<polyline points="31.0,447.0,95.5,511.5" stroke="black" stroke-width="1" fill="none" />
<polyline points="47.5,511.5,34.5,498.5,35.5,500.5,37.5,498.5,42.0,498.0,55.5,511.5" stroke="black" stroke-width="1" fill="none" />
<polyline points="63.5,511.5,44.5,492.5" stroke="black" stroke-width="1" fill="none" />
<polyline points="43.0,483.0,71.5,511.5" stroke="black" stroke-width="1" fill="none" />
<polyline points="79.5,511.5,24.0,456.0,24.0,453.0,24.0,486.0,26.5,482.5,13.0,469.0,13.0,467.0,15.5,464.5,12.5,460.5,26.5,474.5" stroke="black" stroke-width="1" fill="none" />
<polyline points="29.5,480.0,192.0,480.0" stroke="black" stroke-width="1" fill="none" />
<polyline points="179.0,467.0,178.0,466.0" stroke="black" stroke-width="1" fill="none" />
<polyline points="176.0,455.5,176.0,511.5" stroke="black" stroke-width="1" fill="none" />
<polyline points="119.5,511.5,6.5,398.5,6.0,400.0,170.5,400.0" stroke="black" stroke-width="1" fill="none" />
<polyline points="156.5,404.5,155.5,403.5" stroke="black" stroke-width="1" fill="none" />
<polyline points="166.5,446.5,0.0,280.0,0.0,280.0,511.5,280.0" stroke="black" stroke-width="1" fill="none" />
<polyline points="511.5,231.5,287.0,7.0,288.0,6.5,288.0,322.0" stroke="black" stroke-width="1" fill="none" />
<polyline points="275.5,299.5,0.0,24.0,0.0,24.0,511.5,24.0" stroke="black" stroke-width="1" fill="none" />
<polyline points="511.5,15.5,496.0,0.0" stroke="black" stroke-width="1" fill="none" />
<polyline points="488.0,0.0,511.5,23.5" stroke="black" stroke-width="1" fill="none" />
<polyline points="511.5,31.5,480.0,0.0" stroke="black" stroke-width="1" fill="none" />
<polyline points="472.0,0.0,511.5,39.5" stroke="black" stroke-width="1" fill="none" />
<polyline points="464.0,0.0,306.0,158.0,305.0,159.0,304.0,160.0,303.0,161.0,276.0,188.0,274.5,189.5,272.0,192.0,271.5,192.5,268.0,196.0,265.5,198.5,264.0,200.0,268.0,204.0,266.5,205.5,264.0,208.0,263.5,208.5,263.0,209.0,261.5,210.5,265.5,214.5,266.0,214.0,268.0,212.0,284.5,195.5,286.0,194.0,291.0,189.0" stroke="black" stroke-width="1" fill="none" />
<polyline points="271.0,201.0,270.0,202.0" stroke="black" stroke-width="1" fill="none" />
<polyline points="262.0,194.0,264.0,192.0,265.0,191.0,290.0,166.0,292.0,164.0,316.0,140.0,317.0,139.0,456.0,0.0" stroke="black" stroke-width="1" fill="none" />
<polyline points="448.0,0.0,448.0,285.5" stroke="black" stroke-width="1" fill="none" />
<polyline points="460.0,288.0,511.5,288.0" stroke="black" stroke-width="1" fill="none" />
<polyline points="511.5,239.5,281.0,9.0,280.0,8.5,280.0,324.0" stroke="black" stroke-width="1" fill="none" />
<polyline points="279.5,295.5,277.5,293.5" stroke="black" stroke-width="1" fill="none" />
<polyline points="306.0,290.0,16.0,0.0,16.0,0.0,16.0,433.0,15.0,432.0,173.5,432.0" stroke="black" stroke-width="1" fill="none" />
<polyline points="168.0,440.0,0.0,272.0,0.0,272.0,511.5,272.0" stroke="black" stroke-width="1" fill="none" />
<polyline points="511.5,247.5,275.0,11.0,272.0,10.5,272.0,326.0" stroke="black" stroke-width="1" fill="none" />
<polyline points="243.5,315.5,0.0,72.0,0.0,72.0,511.5,72.0" stroke="black" stroke-width="1" fill="none" />
<polyline points="511.5,63.5,448.0,0.0,448.0,0.0,296.0,152.0,295.5,152.5,287.0,161.0,286.5,161.5,285.5,162.5,282.5,165.5,258.5,189.5,255.5,192.5,254.0,194.0,253.5,194.5,253.0,195.0,252.5,195.5,250.5,197.5,249.0,199.0,248.5,199.5" stroke="black" stroke-width="1" fill="none" />
<polyline points="252.0,204.0,254.0,202.0,256.0,200.0,258.0,198.0,259.5,196.5,260.5,195.5" stroke="black" stroke-width="1" fill="none" />
<polyline points="258.5,205.5,257.0,207.0,255.5,208.5,252.0,212.0,251.0,213.0,250.0,214.0,249.5,214.5,248.0,216.0,246.0,218.0,244.5,219.5,243.5,220.5,242.0,222.0,239.5,224.5,238.5,225.5,234.5,221.5,239.0,217.0,240.5,215.5,243.0,213.0,244.0,212.0,245.0,211.0,246.0,210.0,247.5,208.5" stroke="black" stroke-width="1" fill="none" />
<polyline points="255.5,216.5,256.5,215.5" stroke="black" stroke-width="1" fill="none" />
<polyline points="262.0,218.0,263.0,217.0" stroke="black" stroke-width="1" fill="none" />
<polyline points="266.5,221.5,268.0,220.0,268.5,219.5,269.0,219.0" stroke="black" stroke-width="1" fill="none" />
<polyline points="264.5,223.5,263.0,225.0" stroke="black" stroke-width="1" fill="none" />
<polyline points="258.0,222.0,260.0,220.0,256.5,223.5,255.5,224.5,251.5,228.5,250.0,230.0,249.0,231.0,248.0,232.0,245.0,235.0,244.5,235.5,241.5,238.5,239.5,240.5" stroke="black" stroke-width="1" fill="none" />
<polyline points="245.0,243.0,246.5,241.5,250.5,237.5,251.0,237.0" stroke="black" stroke-width="1" fill="none" />
<polyline points="256.5,231.5,257.5,230.5" stroke="black" stroke-width="1" fill="none" />
<polyline points="251.0,221.0,252.5,219.5,248.5,223.5,247.5,224.5" stroke="black" stroke-width="1" fill="none" />
<polyline points="241.0,231.0,240.5,231.5" stroke="black" stroke-width="1" fill="none" />
<polyline points="227.5,228.5,226.0,230.0" stroke="black" stroke-width="1" fill="none" />
<polyline points="224.0,224.0,224.5,223.5,225.0,223.0,226.0,222.0" stroke="black" stroke-width="1" fill="none" />
<polyline points="224.0,216.0,228.0,212.0,230.0,210.0,234.0,206.0,235.5,204.5,238.0,202.0,240.5,199.5,246.0,194.0,248.0,192.0,253.0,187.0,255.5,184.5,261.5,178.5,263.5,176.5,276.5,163.5,278.0,162.0,285.5,154.5,286.5,153.5,440.0,0.0" stroke="black" stroke-width="1" fill="none" />
<polyline points="432.0,0.0,432.0,288.5" stroke="black" stroke-width="1" fill="none" />
<polyline points="426.0,290.0,178.0,42.0,175.5,39.5,172.0,36.0,168.0,36.0,168.0,350.5" stroke="black" stroke-width="1" fill="none" />
<polyline points="125.5,346.5,38.0,434.0,37.0,435.0,36.5,435.5" stroke="black" stroke-width="1" fill="none" />
<polyline points="30.0,438.0,103.5,511.5" stroke="black" stroke-width="1" fill="none" />
<polyline points="87.5,511.5,29.0,453.0" stroke="black" stroke-width="1" fill="none" />
<polyline points="21.0,448.0,181.5,448.0,181.5,453.5,182.0,454.0" stroke="black" stroke-width="1" fill="none" />
<polyline points="176.0,448.0,176.0,445.5" stroke="black" stroke-width="1" fill="none" />
<polyline points="118.0,346.0,134.0,330.0" stroke="black" stroke-width="1" fill="none" />
<polyline points="126.5,329.5,36.0,420.0" stroke="black" stroke-width="1" fill="none" />
<polyline points="39.5,424.5,117.5,346.5" stroke="black" stroke-width="1" fill="none" />
<polyline points="121.5,326.5,33.5,414.5,32.5,415.5,30.5,417.5" stroke="black" stroke-width="1" fill="none" />
<polyline points="26.0,414.0,27.5,412.5,28.5,411.5,146.0,294.0,147.0,293.0,154.5,285.5,155.5,284.5,156.0,284.0,156.5,283.5,159.0,281.0,161.0,279.0,163.0,277.0" stroke="black" stroke-width="1" fill="none" />
<polyline points="166.5,281.5,171.0,277.0" stroke="black" stroke-width="1" fill="none" />
<polyline points="168.5,271.5,169.0,271.0,171.5,268.5,173.0,267.0,175.5,264.5,177.5,262.5,178.0,262.0,180.0,260.0,180.5,259.5,185.0,255.0,188.5,251.5,190.5,249.5,192.0,248.0,193.0,247.0,195.5,244.5,196.0,244.0,196.5,243.5,197.0,243.0,198.0,242.0,198.5,241.5,201.5,238.5,202.5,237.5,204.0,236.0,206.5,233.5,208.0,232.0,208.5,231.5,212.0,228.0,213.0,227.0,214.5,225.5,215.0,225.0" stroke="black" stroke-width="1" fill="none" />
<polyline points="219.5,220.5,221.5,218.5,217.5,214.5,219.0,213.0,221.0,211.0,228.0,204.0,228.5,203.5,232.0,200.0,234.0,198.0,238.0,194.0,240.0,192.0,241.5,190.5,242.0,190.0,243.0,189.0,245.5,186.5,284.0,148.0,284.5,147.5,292.0,140.0,292.5,139.5,432.0,0.0,432.0,0.0,511.5,79.5" stroke="black" stroke-width="1" fill="none" />
<polyline points="511.5,87.5,424.0,0.0,424.0,0.0,424.0,290.5" stroke="black" stroke-width="1" fill="none" />
<polyline points="409.5,281.5,176.0,48.0,174.5,49.5,168.5,55.5,168.0,56.0,123.0,101.0,122.5,101.5,117.5,106.5,116.0,108.0,0.0,224.0,0.0,224.0,511.5,224.0" stroke="black" stroke-width="1" fill="none" />
<polyline points="511.5,143.5,368.0,0.0,368.0,0.0,368.0,303.0" stroke="black" stroke-width="1" fill="none" />
<polyline points="353.5,238.5,355.5,236.5" stroke="black" stroke-width="1" fill="none" />
<polyline points="330.0,222.0,328.5,223.5" stroke="black" stroke-width="1" fill="none" />
<polyline points="322.0,246.0,321.5,246.5" stroke="black" stroke-width="1" fill="none" />
<polyline points="263.5,240.5,261.5,242.5,257.5,246.5,257.0,247.0" stroke="black" stroke-width="1" fill="none" />
<polyline points="248.5,247.5,247.5,248.5" stroke="black" stroke-width="1" fill="none" />
<polyline points="241.5,246.5,241.0,247.0" stroke="black" stroke-width="1" fill="none" />
<polyline points="234.0,246.0,233.5,246.5" stroke="black" stroke-width="1" fill="none" />
<polyline points="231.0,257.0,230.5,257.5" stroke="black" stroke-width="1" fill="none" />
<polyline points="220.5,251.5,219.0,253.0" stroke="black" stroke-width="1" fill="none" />
<polyline points="214.5,249.5,213.5,250.5,216.5,247.5,217.0,247.0" stroke="black" stroke-width="1" fill="none" />
<polyline points="213.5,242.5,211.0,245.0,207.0,249.0,205.0,251.0" stroke="black" stroke-width="1" fill="none" />
<polyline points="201.5,246.5,202.5,245.5,203.0,245.0,204.5,243.5,208.0,240.0,208.5,239.5,210.0,238.0,210.5,237.5,211.5,236.5,212.0,236.0,213.0,235.0,214.0,234.0" stroke="black" stroke-width="1" fill="none" />
<polyline points="224.5,239.5,226.0,238.0" stroke="black" stroke-width="1" fill="none" />
<polyline points="230.5,217.5,231.0,217.0,232.0,216.0,233.0,215.0,235.0,213.0,247.0,201.0" stroke="black" stroke-width="1" fill="none" />
<polyline points="235.0,189.0,242.0,182.0,243.0,181.0,245.0,179.0,245.5,178.5,249.0,175.0,250.5,173.5,252.0,172.0,252.5,171.5,262.5,161.5,264.0,160.0,274.5,149.5,275.5,148.5,283.0,141.0,284.5,139.5,424.0,0.0" stroke="black" stroke-width="1" fill="none" />
<polyline points="416.0,0.0,416.0,292.5" stroke="black" stroke-width="1" fill="none" />
<polyline points="402.0,282.0,168.5,48.5,167.0,47.0,166.5,46.5,165.0,45.0,159.0,39.0,160.0,38.0,160.0,352.5" stroke="black" stroke-width="1" fill="none" />
<polyline points="118.5,313.5,138.5,293.5,139.5,292.5,144.5,287.5,145.5,286.5,147.5,284.5,148.0,284.0,150.5,281.5,151.0,281.0,161.5,270.5,162.5,269.5,164.5,267.5,165.5,266.5,169.0,263.0,171.0,261.0,173.0,259.0,176.0,256.0,180.0,252.0,183.5,248.5,185.0,247.0,186.0,246.0,186.5,245.5,188.5,243.5,190.0,242.0,193.0,239.0,196.0,236.0,199.0,233.0,201.5,230.5,203.0,229.0,213.0,219.0,214.5,217.5,215.5,216.5" stroke="black" stroke-width="1" fill="none" />
<polyline points="216.0,208.0,217.5,206.5,218.5,205.5,219.5,204.5,221.0,203.0,224.5,199.5,225.0,199.0,226.5,197.5,229.5,194.5,233.5,190.5" stroke="black" stroke-width="1" fill="none" />
<polyline points="225.5,190.5,235.0,181.0,236.0,180.0,253.5,162.5,254.5,161.5,255.0,161.0,256.5,159.5,263.5,152.5,265.0,151.0,416.0,0.0,416.0,0.0,511.5,95.5" stroke="black" stroke-width="1" fill="none" />
<polyline points="511.5,103.5,408.0,0.0,408.0,0.0,408.0,294.5" stroke="black" stroke-width="1" fill="none" />
<polyline points="392.5,280.5,162.5,50.5,163.5,52.5,132.0,84.0" stroke="black" stroke-width="1" fill="none" />
<polyline points="146.5,85.5,158.0,74.0" stroke="black" stroke-width="1" fill="none" />
<polyline points="145.5,86.5,0.0,232.0,0.0,232.0,511.5,232.0" stroke="black" stroke-width="1" fill="none" />
<polyline points="511.5,151.5,360.0,0.0,360.0,0.0,360.0,305.0" stroke="black" stroke-width="1" fill="none" />
<polyline points="380.0,284.0,142.5,46.5,139.5,44.5,141.0,43.0,139.5,43.5,142.0,46.0,144.0,42.5,144.0,511.5" stroke="black" stroke-width="1" fill="none" />
<polyline points="111.5,511.5,10.0,410.0,8.0,408.0,166.5,408.0" stroke="black" stroke-width="1" fill="none" />
<polyline points="101.0,331.0,117.0,315.0" stroke="black" stroke-width="1" fill="none" />
<polyline points="126.5,297.5,134.5,289.5,135.0,289.0,151.5,272.5,152.0,272.0,152.5,271.5,153.0,271.0,154.0,270.0,154.5,269.5,156.0,268.0,156.5,267.5,174.5,249.5,175.5,248.5,176.0,248.0,176.5,247.5,177.0,247.0,178.0,246.0,181.0,243.0,181.5,242.5,184.5,239.5,185.5,238.5,187.5,236.5,189.5,234.5,192.0,232.0,193.5,230.5,200.5,223.5,202.0,222.0,213.0,211.0" stroke="black" stroke-width="1" fill="none" />
<polyline points="209.5,206.5,212.0,204.0,213.0,203.0,215.5,200.5,217.5,198.5,218.5,197.5,221.5,194.5,224.0,192.0,224.5,191.5,225.0,191.0" stroke="black" stroke-width="1" fill="none" />
<polyline points="217.0,183.0,219.5,180.5,220.0,180.0,221.0,179.0,222.0,178.0,231.0,169.0,232.5,167.5,238.0,162.0,238.5,161.5,240.5,159.5,242.0,158.0,248.0,152.0,248.5,151.5,254.5,145.5,256.5,143.5,258.5,141.5,259.5,140.5,260.5,139.5,261.5,138.5,262.5,137.5,263.0,137.0,278.5,121.5,279.5,120.5,282.5,117.5,283.0,117.0,400.0,0.0,400.0,0.0,400.0,296.5" stroke="black" stroke-width="1" fill="none" />
<polyline points="371.5,283.5,133.5,45.5,136.0,44.5,136.0,511.5" stroke="black" stroke-width="1" fill="none" />
<polyline points="127.5,511.5,0.0,384.0,0.0,384.0,167.0,384.0" stroke="black" stroke-width="1" fill="none" />
<polyline points="176.0,296.0,176.5,295.5" stroke="black" stroke-width="1" fill="none" />
<polyline points="172.0,292.0,171.0,293.0" stroke="black" stroke-width="1" fill="none" />
<polyline points="172.0,284.0,172.5,283.5" stroke="black" stroke-width="1" fill="none" />
<polyline points="177.0,279.0,178.0,278.0,181.5,274.5,182.5,273.5" stroke="black" stroke-width="1" fill="none" />
<polyline points="186.0,278.0,189.0,275.0" stroke="black" stroke-width="1" fill="none" />
<polyline points="187.0,269.0,189.5,266.5" stroke="black" stroke-width="1" fill="none" />
<polyline points="189.0,259.0,190.0,258.0,193.5,254.5,197.0,251.0" stroke="black" stroke-width="1" fill="none" />
<polyline points="209.5,254.5,210.5,253.5,214.5,257.5,214.0,258.0,212.0,260.0,211.5,260.5" stroke="black" stroke-width="1" fill="none" />
<polyline points="196.5,283.5,195.5,284.5" stroke="black" stroke-width="1" fill="none" />
<polyline points="189.5,282.5,189.0,283.0,188.5,283.5,188.0,284.0,184.5,287.5,184.0,288.0,180.0,284.0,179.5,284.5,180.5,283.5,181.0,283.0" stroke="black" stroke-width="1" fill="none" />
<polyline points="179.5,268.5,185.5,262.5" stroke="black" stroke-width="1" fill="none" />
<polyline points="170.5,245.5,173.0,243.0,173.5,242.5,178.5,237.5,179.0,237.0,179.5,236.5,180.5,235.5,184.0,232.0,185.0,231.0,192.0,224.0,192.5,223.5,198.5,217.5,200.5,215.5,205.5,210.5,206.5,209.5,208.0,208.0" stroke="black" stroke-width="1" fill="none" />
<polyline points="206.5,201.5,211.0,197.0,212.0,196.0,249.0,159.0,249.5,158.5,276.0,132.0,277.0,131.0,408.0,0.0" stroke="black" stroke-width="1" fill="none" />
<polyline points="400.0,0.0,511.5,111.5" stroke="black" stroke-width="1" fill="none" />
<polyline points="511.5,119.5,392.0,0.0,392.0,0.0,392.0,298.5" stroke="black" stroke-width="1" fill="none" />
<polyline points="367.0,287.0,131.5,51.5,131.0,51.0,127.5,47.5,128.0,45.5,128.0,511.5" stroke="black" stroke-width="1" fill="none" />
<polyline points="135.5,511.5,0.0,376.0,0.0,376.0,166.0,376.0" stroke="black" stroke-width="1" fill="none" />
<polyline points="163.0,285.0,164.5,283.5" stroke="black" stroke-width="1" fill="none" />
<polyline points="144.5,271.5,154.0,262.0,155.5,260.5,158.0,258.0,159.5,256.5,163.5,252.5,164.5,251.5,170.0,246.0" stroke="black" stroke-width="1" fill="none" />
<polyline points="165.0,243.0,167.5,240.5,168.5,239.5,172.5,235.5,174.5,233.5,175.0,233.0,176.0,232.0,177.5,230.5,179.0,229.0,186.0,222.0,187.0,221.0,192.0,216.0,193.0,215.0,194.0,214.0,194.5,213.5,197.0,211.0,200.5,207.5,204.0,204.0" stroke="black" stroke-width="1" fill="none" />
<polyline points="201.0,199.0,203.0,197.0,204.5,195.5,208.5,191.5,209.5,190.5,212.5,187.5,214.0,186.0,215.5,184.5" stroke="black" stroke-width="1" fill="none" />
<polyline points="219.5,172.5,199.5,192.5,199.0,193.0,198.5,193.5,197.0,195.0,185.0,207.0,189.0,211.0,193.5,206.5,194.0,206.0,199.5,200.5" stroke="black" stroke-width="1" fill="none" />
<polyline points="195.0,189.0,196.5,187.5,198.0,186.0,212.0,172.0,212.5,171.5,217.5,166.5,219.0,165.0,221.5,162.5,222.0,162.0,223.5,160.5,224.5,159.5,229.5,154.5,231.0,153.0,233.5,150.5,235.0,149.0,238.0,146.0,238.5,145.5,247.5,136.5,248.5,135.5,274.0,110.0,274.5,109.5,384.0,0.0,384.0,0.0,384.0,299.0" stroke="black" stroke-width="1" fill="none" />
<polyline points="355.0,283.0,120.5,48.5,120.0,47.0,120.0,511.5" stroke="black" stroke-width="1" fill="none" />
<polyline points="143.5,511.5,0.0,368.0,0.0,368.0,164.0,368.0" stroke="black" stroke-width="1" fill="none" />
<polyline points="100.5,331.5,25.0,407.0,24.5,407.5,24.0,408.0" stroke="black" stroke-width="1" fill="none" />
<polyline points="19.0,405.0,125.5,298.5" stroke="black" stroke-width="1" fill="none" />
<polyline points="123.0,285.0,143.0,265.0,144.0,264.0,149.5,258.5,150.5,257.5,155.0,253.0,155.5,252.5,158.5,249.5,159.0,249.0,164.5,243.5,160.5,239.5,172.5,227.5,174.0,226.0,182.5,217.5,185.0,215.0,188.0,212.0" stroke="black" stroke-width="1" fill="none" />
<polyline points="184.5,207.5,172.5,219.5,171.0,221.0,131.5,260.5,130.5,261.5,126.0,266.0" stroke="black" stroke-width="1" fill="none" />
<polyline points="132.5,267.5,160.0,240.0" stroke="black" stroke-width="1" fill="none" />
<polyline points="146.0,230.0,153.0,223.0,154.0,222.0,158.0,218.0,159.0,217.0,173.5,202.5,176.5,199.5,177.0,199.0,178.0,198.0,180.5,195.5,181.0,195.0,188.0,188.0,188.5,187.5,189.5,186.5,190.5,185.5,200.0,176.0,202.0,174.0,211.0,165.0,212.5,163.5,217.5,158.5,219.0,157.0,225.5,150.5,228.0,148.0,229.5,146.5,232.0,144.0,237.0,139.0,238.0,138.0,240.5,135.5,241.0,135.0,247.0,129.0,248.0,128.0,250.0,126.0,250.5,125.5,374.5,1.5,376.0,0.0,376.0,301.0" stroke="black" stroke-width="1" fill="none" />
<polyline points="353.0,289.0,113.5,49.5,112.0,48.5,112.0,511.5" stroke="black" stroke-width="1" fill="none" />
<polyline points="151.5,511.5,0.0,360.0,0.0,360.0,162.0,360.0" stroke="black" stroke-width="1" fill="none" />
<polyline points="132.0,284.0,141.5,274.5,142.0,274.0,143.5,272.5" stroke="black" stroke-width="1" fill="none" />
<polyline points="131.0,285.0,19.5,396.5,17.5,398.5,16.5,399.5,12.5,403.5,9.5,406.5" stroke="black" stroke-width="1" fill="none" />
<polyline points="14.0,410.0,11.0,413.0" stroke="black" stroke-width="1" fill="none" />
<polyline points="8.0,405.0,8.0,0.0,8.0,0.0,298.5,290.5" stroke="black" stroke-width="1" fill="none" />
<polyline points="314.0,282.0,88.0,56.0,88.0,56.0,87.5,56.5,88.0,55.0,88.0,511.5" stroke="black" stroke-width="1" fill="none" />
<polyline points="104.0,511.5,104.0,50.5,107.5,51.5,116.5,60.5" stroke="black" stroke-width="1" fill="none" />
<polyline points="112.0,64.0,111.0,65.0,108.5,67.5,0.0,176.0,0.0,176.0,511.5,176.0" stroke="black" stroke-width="1" fill="none" />
<polyline points="511.5,127.5,384.0,0.0" stroke="black" stroke-width="1" fill="none" />
<polyline points="376.0,0.0,511.5,135.5" stroke="black" stroke-width="1" fill="none" />
<polyline points="511.5,159.5,352.0,0.0" stroke="black" stroke-width="1" fill="none" />
<polyline points="344.0,0.0,344.0,309.0" stroke="black" stroke-width="1" fill="none" />
<polyline points="247.0,303.0,245.0,301.0" stroke="black" stroke-width="1" fill="none" />
<polyline points="244.5,259.5,246.5,257.5" stroke="black" stroke-width="1" fill="none" />
<polyline points="194.0,190.0,177.5,206.5,176.0,208.0,164.5,219.5,164.0,220.0,127.5,256.5" stroke="black" stroke-width="1" fill="none" />
<polyline points="125.0,267.0,3.0,389.0,3.5,392.0,169.0,392.0" stroke="black" stroke-width="1" fill="none" />
<polyline points="38.5,425.5,37.5,426.5" stroke="black" stroke-width="1" fill="none" />
<polyline points="17.0,423.0,15.0,425.0,12.5,424.0,172.5,424.0" stroke="black" stroke-width="1" fill="none" />
<polyline points="122.5,285.5,14.0,394.0,10.5,397.5,8.0,400.0" stroke="black" stroke-width="1" fill="none" />
<polyline points="6.0,394.0,132.0,268.0" stroke="black" stroke-width="1" fill="none" />
<polyline points="126.5,257.5,0.0,384.0" stroke="black" stroke-width="1" fill="none" />
<polyline points="0.0,376.0,142.0,234.0,143.0,233.0,145.5,230.5" stroke="black" stroke-width="1" fill="none" />
<polyline points="140.5,219.5,152.0,208.0,152.5,207.5,155.5,204.5,156.0,204.0,162.5,197.5,164.0,196.0,186.0,174.0,186.5,173.5,188.0,172.0,190.0,170.0,195.0,165.0,195.5,164.5,196.0,164.0,197.0,163.0,198.5,161.5,199.5,160.5,202.0,158.0,203.0,157.0,209.0,151.0,210.0,150.0,214.5,145.5,217.5,142.5,221.5,138.5,223.0,137.0,225.5,134.5,221.5,130.5,219.0,133.0,218.5,133.5,218.0,134.0,217.0,135.0,211.0,141.0,209.0,143.0,196.0,156.0,195.5,156.5,194.5,157.5,193.5,158.5,189.0,163.0,187.5,164.5,187.0,165.0,186.0,166.0,171.5,180.5,170.0,182.0,159.5,192.5,157.5,194.5,155.0,197.0,154.0,198.0,131.5,220.5,130.0,222.0,0.0,352.0,0.0,352.0,167.5,352.0" stroke="black" stroke-width="1" fill="none" />
<polyline points="114.0,254.0,117.5,250.5,118.5,249.5,120.0,248.0,121.0,247.0,150.5,217.5,152.5,215.5,164.0,204.0,165.5,202.5,166.5,201.5,167.0,201.0,190.5,177.5,191.5,176.5,196.0,172.0,198.5,169.5,208.5,159.5,209.5,158.5,217.0,151.0,218.0,150.0,219.0,149.0,219.5,148.5,220.0,148.0,220.5,147.5,221.0,147.0,221.5,146.5,223.5,144.5,225.0,143.0,246.5,121.5,248.5,119.5,363.5,4.5" stroke="black" stroke-width="1" fill="none" />
<polyline points="344.0,0.0,511.5,167.5" stroke="black" stroke-width="1" fill="none" />
<polyline points="511.5,183.5,328.0,0.0,328.0,0.0,328.0,313.0" stroke="black" stroke-width="1" fill="none" />
<polyline points="199.0,335.0,0.0,136.0,0.0,136.0,511.5,136.0" stroke="black" stroke-width="1" fill="none" />
<polyline points="511.5,191.5,320.0,0.0,320.0,0.0,320.0,314.0" stroke="black" stroke-width="1" fill="none" />
<polyline points="180.0,340.0,0.0,160.0,0.0,160.0,511.5,160.0" stroke="black" stroke-width="1" fill="none" />
<polyline points="511.5,207.5,306.5,2.5,308.5,3.5,309.0,3.0,304.0,2.0,304.0,318.0" stroke="black" stroke-width="1" fill="none" />
<polyline points="160.0,360.0,0.0,200.0,0.0,200.0,511.5,200.0" stroke="black" stroke-width="1" fill="none" />
<polyline points="511.5,215.5,300.5,4.5" stroke="black" stroke-width="1" fill="none" />
<polyline points="289.0,7.0,288.0,8.0" stroke="black" stroke-width="1" fill="none" />
<polyline points="278.5,9.5,278.0,10.0" stroke="black" stroke-width="1" fill="none" />
<polyline points="264.0,12.5,264.0,327.5" stroke="black" stroke-width="1" fill="none" />
<polyline points="172.5,436.5,0.0,264.0,0.0,264.0,511.5,264.0,511.5,263.5,261.5,13.5,256.0,14.5,256.0,328.5" stroke="black" stroke-width="1" fill="none" />
<polyline points="172.5,428.5,0.0,256.0,0.0,256.0,511.5,256.0" stroke="black" stroke-width="1" fill="none" />
<polyline points="511.5,296.0,461.5,296.0" stroke="black" stroke-width="1" fill="none" />
<polyline points="474.0,336.0,475.5,336.0" stroke="black" stroke-width="1" fill="none" />
<polyline points="482.0,384.0,511.5,384.0" stroke="black" stroke-width="1" fill="none" />
<polyline points="511.5,440.0,441.0,440.0" stroke="black" stroke-width="1" fill="none" />
<polyline points="432.0,443.5,432.0,511.5" stroke="black" stroke-width="1" fill="none" />
<polyline points="393.0,457.0,390.0,454.0,392.0,452.5,392.0,511.5" stroke="black" stroke-width="1" fill="none" />
<polyline points="393.0,455.0,395.5,452.5,396.5,452.5,399.0,455.0,400.0,450.5,400.0,511.5" stroke="black" stroke-width="1" fill="none" />
<polyline points="405.0,453.0,402.5,450.5" stroke="black" stroke-width="1" fill="none" />
<polyline points="373.5,456.0,372.5,456.0,371.5,456.0,369.5,456.0" stroke="black" stroke-width="1" fill="none" />
<polyline points="344.0,463.5,344.0,511.5" stroke="black" stroke-width="1" fill="none" />
<polyline points="321.0,473.0,318.0,470.0" stroke="black" stroke-width="1" fill="none" />
<polyline points="312.0,471.5,312.0,511.5" stroke="black" stroke-width="1" fill="none" />
<polyline points="328.0,472.0,325.0,469.0,328.0,467.5,328.0,511.5" stroke="black" stroke-width="1" fill="none" />
<polyline points="183.5,511.5,0.0,328.0,0.0,328.0,266.0,328.0" stroke="black" stroke-width="1" fill="none" />
<polyline points="221.0,171.0,225.5,166.5,226.0,166.0,228.0,164.0" stroke="black" stroke-width="1" fill="none" />
<polyline points="233.0,159.0,241.0,151.0,242.0,150.0,248.0,144.0,249.0,143.0,250.5,141.5,251.5,140.5,259.0,133.0,260.0,132.0,268.0,124.0,269.0,123.0,278.0,114.0,278.5,113.5,392.0,0.0" stroke="black" stroke-width="1" fill="none" />
<polyline points="300.5,19.5,222.5,97.5" stroke="black" stroke-width="1" fill="none" />
<polyline points="236.0,100.0,222.0,114.0" stroke="black" stroke-width="1" fill="none" />
<polyline points="223.0,121.0,241.0,103.0" stroke="black" stroke-width="1" fill="none" />
<polyline points="222.0,122.0,203.5,140.5,200.5,143.5,183.5,160.5,181.0,163.0,175.5,168.5,174.5,169.5,161.0,183.0,160.0,184.0,149.0,195.0,146.5,197.5,127.0,217.0,126.5,217.5,0.0,344.0,0.0,344.0,194.5,344.0" stroke="black" stroke-width="1" fill="none" />
<polyline points="113.0,255.0,0.0,368.0" stroke="black" stroke-width="1" fill="none" />
<polyline points="0.0,360.0,132.0,228.0,132.5,227.5,138.5,221.5" stroke="black" stroke-width="1" fill="none" />
<polyline points="118.0,218.0,135.5,200.5,136.5,199.5,166.0,170.0,167.0,169.0,168.5,167.5,169.5,166.5,177.5,158.5,179.0,157.0,200.0,136.0,201.5,134.5,203.5,132.5,204.0,132.0,210.0,126.0,210.5,125.5,211.5,124.5,214.5,121.5,221.5,114.5" stroke="black" stroke-width="1" fill="none" />
<polyline points="196.0,132.0,176.5,151.5,175.5,152.5,167.0,161.0,166.5,161.5,159.0,169.0,157.5,170.5,146.5,181.5,145.5,182.5,126.5,201.5" stroke="black" stroke-width="1" fill="none" />
<polyline points="117.0,219.0,0.0,336.0,0.0,336.0,230.0,336.0" stroke="black" stroke-width="1" fill="none" />
<polyline points="108.0,220.0,125.5,202.5" stroke="black" stroke-width="1" fill="none" />
<polyline points="107.0,221.0,104.5,223.5,104.0,224.0,0.0,328.0" stroke="black" stroke-width="1" fill="none" />
<polyline points="0.0,336.0,175.5,511.5" stroke="black" stroke-width="1" fill="none" />
<polyline points="159.5,511.5,0.0,352.0" stroke="black" stroke-width="1" fill="none" />
<polyline points="0.0,344.0,167.5,511.5" stroke="black" stroke-width="1" fill="none" />
<polyline points="168.5,456.5,0.0,288.0,0.0,288.0,440.0,288.0" stroke="black" stroke-width="1" fill="none" />
<polyline points="299.0,299.0,0.0,0.0,0.0,0.0,0.0,390.5" stroke="black" stroke-width="1" fill="none" />
<polyline points="17.5,440.0,175.5,440.0" stroke="black" stroke-width="1" fill="none" />
<polyline points="153.5,401.5,0.0,248.0,0.0,248.0,511.5,248.0" stroke="black" stroke-width="1" fill="none" />
<polyline points="511.5,432.0,476.0,432.0,474.0,432.0,468.5,432.0,464.0,435.0,464.0,511.5" stroke="black" stroke-width="1" fill="none" />
<polyline points="456.0,511.5,456.0,437.5" stroke="black" stroke-width="1" fill="none" />
<polyline points="166.0,154.0,173.0,147.0,173.5,146.5,222.0,98.0" stroke="black" stroke-width="1" fill="none" />
<polyline points="212.5,83.5,231.0,65.0" stroke="black" stroke-width="1" fill="none" />
<polyline points="233.5,70.5,236.5,67.5" stroke="black" stroke-width="1" fill="none" />
<polyline points="230.0,74.0,164.5,139.5" stroke="black" stroke-width="1" fill="none" />
<polyline points="172.5,139.5,173.0,139.0,174.5,137.5,186.0,126.0" stroke="black" stroke-width="1" fill="none" />
<polyline points="183.0,113.0,188.0,108.0,189.5,106.5,211.5,84.5,207.5,80.5,212.0,76.0,212.5,75.5,237.5,50.5" stroke="black" stroke-width="1" fill="none" />
<polyline points="217.5,54.5,200.0,72.0,198.5,73.5,161.5,110.5,160.5,111.5,119.0,153.0,118.5,153.5,117.5,154.5" stroke="black" stroke-width="1" fill="none" />
<polyline points="125.0,163.0,152.0,136.0,152.5,135.5,176.0,112.0,176.5,111.5,188.0,100.0,189.0,99.0,192.0,96.0,193.0,95.0,205.0,83.0" stroke="black" stroke-width="1" fill="none" />
<polyline points="194.0,70.0,194.5,69.5,195.0,69.0,205.0,59.0,206.0,58.0,221.5,42.5" stroke="black" stroke-width="1" fill="none" />
<polyline points="232.5,32.5,228.5,28.5" stroke="black" stroke-width="1" fill="none" />
<polyline points="234.0,26.0,230.0,22.0,232.0,20.0,232.0,335.0" stroke="black" stroke-width="1" fill="none" />
<polyline points="100.0,212.0,156.5,155.5,157.0,155.0,160.0,152.0,161.0,151.0,172.0,140.0" stroke="black" stroke-width="1" fill="none" />
<polyline points="165.5,154.5,151.0,169.0,150.5,169.5,143.0,177.0,142.0,178.0,57.0,263.0,56.5,263.5,0.0,320.0" stroke="black" stroke-width="1" fill="none" />
<polyline points="0.0,312.0,99.0,213.0" stroke="black" stroke-width="1" fill="none" />
<polyline points="105.0,175.0,135.5,144.5,137.0,143.0,141.0,139.0,141.5,138.5,149.5,130.5,150.5,129.5,172.0,108.0,173.0,107.0,176.5,103.5" stroke="black" stroke-width="1" fill="none" />
<polyline points="181.0,115.0,152.5,143.5" stroke="black" stroke-width="1" fill="none" />
<polyline points="164.0,140.0,136.5,167.5,136.0,168.0,0.0,304.0" stroke="black" stroke-width="1" fill="none" />
<polyline points="0.0,296.0,120.5,175.5,121.0,175.0,152.0,144.0" stroke="black" stroke-width="1" fill="none" />
<polyline points="124.5,163.5,0.0,288.0" stroke="black" stroke-width="1" fill="none" />
<polyline points="0.0,280.0,104.0,176.0" stroke="black" stroke-width="1" fill="none" />
<polyline points="117.0,155.0,0.0,272.0" stroke="black" stroke-width="1" fill="none" />
<polyline points="0.0,264.0,155.5,108.5,156.0,108.0,193.0,71.0" stroke="black" stroke-width="1" fill="none" />
<polyline points="194.0,42.0,192.0,40.0" stroke="black" stroke-width="1" fill="none" />
<polyline points="200.5,40.5,190.5,30.5" stroke="black" stroke-width="1" fill="none" />
<polyline points="184.5,32.5,191.5,39.5" stroke="black" stroke-width="1" fill="none" />
<polyline points="187.0,43.0,179.0,35.0,176.0,34.0,176.0,348.5" stroke="black" stroke-width="1" fill="none" />
<polyline points="18.5,450.5,16.5,448.5,16.0,447.5,16.0,480.0,14.5,480.0,29.0,480.0,32.0,482.0,32.0,492.5" stroke="black" stroke-width="1" fill="none" />
<polyline points="17.5,478.5,18.5,477.5" stroke="black" stroke-width="1" fill="none" />
<polyline points="15.0,473.0,17.0,471.0,12.0,472.0,189.5,472.0" stroke="black" stroke-width="1" fill="none" />
<polyline points="15.0,457.0,13.0,459.0,10.0,456.0,184.0,456.0" stroke="black" stroke-width="1" fill="none" />
<polyline points="28.5,468.5,13.0,453.0,11.5,448.0,19.5,448.0" stroke="black" stroke-width="1" fill="none" />
<polyline points="10.5,464.0,187.5,464.0" stroke="black" stroke-width="1" fill="none" />
<polyline points="0.0,256.0,110.5,145.5,111.5,144.5,131.0,125.0" stroke="black" stroke-width="1" fill="none" />
<polyline points="126.0,122.0,109.0,139.0,108.0,140.0,0.0,248.0" stroke="black" stroke-width="1" fill="none" />
<polyline points="0.0,240.0,154.5,394.5" stroke="black" stroke-width="1" fill="none" />
<polyline points="156.5,388.5,0.0,232.0" stroke="black" stroke-width="1" fill="none" />
<polyline points="0.0,224.0,158.0,382.0" stroke="black" stroke-width="1" fill="none" />
<polyline points="164.0,380.0,0.0,216.0,0.0,216.0,511.5,216.0" stroke="black" stroke-width="1" fill="none" />
<polyline points="208.5,328.5,0.0,120.0,0.0,120.0,511.5,120.0" stroke="black" stroke-width="1" fill="none" />
<polyline points="292.0,300.0,0.0,8.0,0.0,8.0,511.5,8.0" stroke="black" stroke-width="1" fill="none" />
<polyline points="240.0,18.5,240.0,333.0" stroke="black" stroke-width="1" fill="none" />
<polyline points="101.5,106.5,153.0,55.0" stroke="black" stroke-width="1" fill="none" />
<polyline points="159.5,47.5,161.0,49.0,159.0,47.0,153.0,41.0" stroke="black" stroke-width="1" fill="none" />
<polyline points="151.0,47.0,146.5,42.5" stroke="black" stroke-width="1" fill="none" />
<polyline points="142.0,58.0,140.0,60.0" stroke="black" stroke-width="1" fill="none" />
<polyline points="131.0,85.0,0.0,216.0" stroke="black" stroke-width="1" fill="none" />
<polyline points="0.0,208.0,511.5,208.0" stroke="black" stroke-width="1" fill="none" />
<polyline points="226.0,22.0,225.0,23.0,224.0,24.0,228.0,28.0" stroke="black" stroke-width="1" fill="none" />
<polyline points="226.0,34.0,219.5,27.5,219.0,27.0,216.5,24.5,216.0,23.5,216.0,339.0" stroke="black" stroke-width="1" fill="none" />
<polyline points="162.0,370.0,0.0,208.0,0.0,208.0,100.5,107.5" stroke="black" stroke-width="1" fill="none" />
<polyline points="99.5,68.5,0.0,168.0,0.0,168.0,511.5,168.0" stroke="black" stroke-width="1" fill="none" />
<polyline points="226.5,314.5,0.0,88.0,0.0,88.0,511.5,88.0" stroke="black" stroke-width="1" fill="none" />
<polyline points="224.0,21.5,224.0,337.0" stroke="black" stroke-width="1" fill="none" />
<polyline points="0.0,200.0,139.5,60.5" stroke="black" stroke-width="1" fill="none" />
<polyline points="131.5,60.5,0.0,192.0,0.0,192.0,511.5,192.0" stroke="black" stroke-width="1" fill="none" />
<polyline points="187.5,339.5,0.0,152.0,0.0,152.0,511.5,152.0" stroke="black" stroke-width="1" fill="none" />
<polyline points="211.0,323.0,0.0,112.0,0.0,112.0,511.5,112.0" stroke="black" stroke-width="1" fill="none" />
<polyline points="243.5,299.5,0.0,56.0,0.0,56.0,511.5,56.0" stroke="black" stroke-width="1" fill="none" />
<polyline points="184.0,32.0,184.0,346.5" stroke="black" stroke-width="1" fill="none" />
<polyline points="160.0,352.0,0.0,192.0" stroke="black" stroke-width="1" fill="none" />
<polyline points="0.0,184.0,166.5,350.5" stroke="black" stroke-width="1" fill="none" />
<polyline points="173.5,349.5,0.0,176.0" stroke="black" stroke-width="1" fill="none" />
<polyline points="0.0,168.0,179.5,347.5" stroke="black" stroke-width="1" fill="none" />
<polyline points="0.0,160.0,52.0,108.0,52.5,107.5,62.0,98.0,62.5,97.5,89.5,70.5" stroke="black" stroke-width="1" fill="none" />
<polyline points="100.0,68.0,101.5,66.5" stroke="black" stroke-width="1" fill="none" />
<polyline points="96.0,52.0,96.0,511.5" stroke="black" stroke-width="1" fill="none" />
<polyline points="0.0,152.0,52.5,99.5,53.0,99.0,72.5,79.5,73.0,79.0,77.0,75.0,77.5,74.5,80.0,72.0" stroke="black" stroke-width="1" fill="none" />
<polyline points="69.5,74.5,0.0,144.0" stroke="black" stroke-width="1" fill="none" />
<polyline points="0.0,136.0,58.5,77.5" stroke="black" stroke-width="1" fill="none" />
<polyline points="48.0,80.0,0.0,128.0" stroke="black" stroke-width="1" fill="none" />
<polyline points="0.0,120.0,38.0,82.0" stroke="black" stroke-width="1" fill="none" />
<polyline points="27.0,85.0,0.0,112.0" stroke="black" stroke-width="1" fill="none" />
<polyline points="0.0,104.0,511.5,104.0" stroke="black" stroke-width="1" fill="none" />
<polyline points="183.5,32.5,182.0,34.0" stroke="black" stroke-width="1" fill="none" />
<polyline points="174.0,46.0,169.5,41.5,168.5,40.5,165.0,37.0" stroke="black" stroke-width="1" fill="none" />
<polyline points="104.0,44.5,104.0,49.0" stroke="black" stroke-width="1" fill="none" />
<polyline points="96.0,51.5,96.0,33.5,96.0,33.0,96.0,26.5,96.0,26.0,96.0,25.5" stroke="black" stroke-width="1" fill="none" />
<polyline points="88.0,22.0,88.0,44.0,88.0,45.5,88.0,47.0,88.0,49.0,88.0,52.0,88.0,52.5,88.0,53.0" stroke="black" stroke-width="1" fill="none" />
<polyline points="81.0,55.0,76.5,59.5" stroke="black" stroke-width="1" fill="none" />
<polyline points="66.5,61.5,79.0,49.0,78.5,46.5,32.0,0.0,32.0,0.0,32.0,470.5" stroke="black" stroke-width="1" fill="none" />
<polyline points="218.5,322.5,0.0,104.0,0.0,104.0,16.5,87.5" stroke="black" stroke-width="1" fill="none" />
<polyline points="6.5,89.5,0.0,96.0,0.0,96.0,511.5,96.0" stroke="black" stroke-width="1" fill="none" />
<polyline points="215.5,311.5,0.0,96.0" stroke="black" stroke-width="1" fill="none" />
<polyline points="0.0,80.0,511.5,80.0" stroke="black" stroke-width="1" fill="none" />
<polyline points="232.0,312.0,0.0,80.0,1.0,79.0,63.0,17.0,65.5,14.5,67.0,13.0,69.0,11.0,69.5,10.5" stroke="black" stroke-width="1" fill="none" />
<polyline points="69.0,19.0,11.0,77.0" stroke="black" stroke-width="1" fill="none" />
<polyline points="21.5,74.5,71.0,25.0,70.5,22.5,48.0,0.0,48.0,0.0,48.0,511.5" stroke="black" stroke-width="1" fill="none" />
<polyline points="33.5,70.5,73.0,31.0" stroke="black" stroke-width="1" fill="none" />
<polyline points="75.0,37.0,44.0,68.0" stroke="black" stroke-width="1" fill="none" />
<polyline points="54.0,66.0,77.0,43.0,80.0,46.0,80.0,511.5" stroke="black" stroke-width="1" fill="none" />
<polyline points="0.0,72.0,64.0,8.0" stroke="black" stroke-width="1" fill="none" />
<polyline points="62.0,2.0,0.0,64.0" stroke="black" stroke-width="1" fill="none" />
<polyline points="0.0,56.0,56.0,0.0,56.0,0.0,56.0,511.5" stroke="black" stroke-width="1" fill="none" />
<polyline points="252.5,300.5,0.0,48.0,0.0,48.0,511.5,48.0" stroke="black" stroke-width="1" fill="none" />
<polyline points="257.0,297.0,0.0,40.0,0.0,40.0,511.5,40.0" stroke="black" stroke-width="1" fill="none" />
<polyline points="263.5,295.5,0.0,32.0,0.0,32.0,511.5,32.0" stroke="black" stroke-width="1" fill="none" />
<polyline points="277.0,293.0,0.0,16.0,0.0,16.0,511.5,16.0" stroke="black" stroke-width="1" fill="none" />
<polyline points="88.0,20.5,88.0,21.0" stroke="black" stroke-width="1" fill="none" />
<polyline points="80.0,25.5,80.0,28.0" stroke="black" stroke-width="1" fill="none" />
<polyline points="75.5,35.5,40.0,0.0,40.0,0.0,40.0,511.5" stroke="black" stroke-width="1" fill="none" />
<polyline points="0.0,48.0,48.0,0.0" stroke="black" stroke-width="1" fill="none" />
<polyline points="56.0,0.0,68.5,12.5" stroke="black" stroke-width="1" fill="none" />
<polyline points="72.0,22.5,72.0,511.5" stroke="black" stroke-width="1" fill="none" />
<polyline points="0.0,40.0,40.0,0.0" stroke="black" stroke-width="1" fill="none" />
<polyline points="32.0,0.0,0.0,32.0" stroke="black" stroke-width="1" fill="none" />
<polyline points="0.0,24.0,24.0,0.0" stroke="black" stroke-width="1" fill="none" />
<polyline points="16.0,0.0,0.0,16.0" stroke="black" stroke-width="1" fill="none" />
<polyline points="0.0,8.0,8.0,0.0" stroke="black" stroke-width="1" fill="none" />
<polyline points="0.0,0.0,0.0,0.0" stroke="black" stroke-width="1" fill="none" />
<polyline points="64.0,0.0,64.0,511.5" stroke="black" stroke-width="1" fill="none" />
<polyline points="88.0,8.5,88.0,6.5" stroke="black" stroke-width="1" fill="none" />
<polyline points="80.0,6.5,80.0,11.0" stroke="black" stroke-width="1" fill="none" />
<polyline points="72.0,13.0,72.0,0.0" stroke="black" stroke-width="1" fill="none" />
</svg>