<svg xmlns="http://www.w3.org/2000/svg" height="512px" width="512px" version="1.1"><polyline points="136.0,0.0,132.0,8.0,129.0,16.0,130.0,26.0,132.0,34.0,135.0,42.0,138.0,50.0,142.0,58.0,144.0,66.0,148.0,74.0" stroke="black" stroke-width="1" fill="none" />
<polyline points="173.0,75.0,165.0,75.0,157.0,75.0,149.0,75.0,141.0,56.0,133.0,35.0" stroke="black" stroke-width="1" fill="none" />
<polyline points="118.0,34.0,122.0,42.0,123.0,50.0,127.0,59.0,130.0,67.0,131.0,69.0,122.0,51.0,114.0,52.0,106.0,52.0,98.0,53.0,90.0,53.0" stroke="black" stroke-width="1" fill="none" />
<polyline points="108.0,24.0,107.0,21.0,105.0,13.0,112.0,6.0,112.0,6.0,104.0,10.0" stroke="black" stroke-width="1" fill="none" />
<polyline points="111.0,11.0,110.0,19.0,111.0,27.0" stroke="black" stroke-width="1" fill="none" />
<polyline points="114.0,13.0,124.0,21.0,130.0,13.0" stroke="black" stroke-width="1" fill="none" />
<polyline points="111.0,11.0,119.0,15.0,129.0,25.0,137.0,22.0,145.0,22.0,153.0,22.0,161.0,21.0,169.0,21.0,177.0,21.0" stroke="black" stroke-width="1" fill="none" />
<polyline points="173.0,15.0,181.0,17.0,194.0,21.0,202.0,21.0" stroke="black" stroke-width="1" fill="none" />
<polyline points="219.0,11.0,217.0,3.0,215.0,1.0" stroke="black" stroke-width="1" fill="none" />
<polyline points="238.0,1.0,240.0,5.0,236.0,2.0,238.0,10.0,235.0,18.0" stroke="black" stroke-width="1" fill="none" />
<polyline points="235.0,26.0,239.0,22.0,244.0,14.0,249.0,6.0,256.0,2.0,268.0,6.0,264.0,4.0,256.0,1.0" stroke="black" stroke-width="1" fill="none" />
<polyline points="215.0,67.0,217.0,73.0,214.0,72.0,222.0,76.0,219.0,81.0,227.0,87.0,223.0,95.0,228.0,97.0,227.0,105.0,226.0,113.0,224.0,121.0,224.0,129.0,225.0,137.0,225.0,145.0,228.0,153.0,229.0,161.0,230.0,169.0,233.0,177.0,237.0,185.0,240.0,193.0,243.0,201.0,245.0,209.0,247.0,217.0,255.0,228.0,260.0,236.0,259.0,244.0,260.0,246.0,252.0,247.0,244.0,247.0,236.0,247.0,228.0,247.0,220.0,247.0,212.0,247.0,204.0,247.0,196.0,247.0,188.0,246.0,180.0,246.0,172.0,247.0,164.0,247.0,156.0,246.0,148.0,248.0,150.0,248.0,158.0,250.0,162.0,254.0,161.0,262.0,161.0,270.0,160.0,278.0,159.0,286.0,159.0,294.0,158.0,302.0,158.0,310.0,171.0,312.0,179.0,311.0,187.0,309.0,195.0,307.0,203.0,307.0,211.0,307.0,219.0,306.0,227.0,304.0,235.0,301.0,243.0,298.0,251.0,296.0,259.0,291.0,267.0,287.0,275.0,286.0,274.0,286.0,274.0,294.0" stroke="black" stroke-width="1" fill="none" />
<polyline points="276.0,284.0,282.0,292.0,282.0,300.0,283.0,308.0,285.0,316.0,289.0,324.0,293.0,332.0,298.0,340.0,300.0,348.0,302.0,356.0,304.0,364.0,305.0,372.0,307.0,380.0,310.0,388.0,312.0,396.0,314.0,404.0,316.0,412.0,319.0,420.0,321.0,428.0,324.0,436.0,326.0,444.0,330.0,452.0,332.0,460.0,336.0,468.0,339.0,476.0,342.0,484.0,345.0,492.0,350.0,500.0,353.0,508.0" stroke="black" stroke-width="1" fill="none" />
<polyline points="353.0,498.0,345.0,481.0,337.0,462.0,329.0,441.0" stroke="black" stroke-width="1" fill="none" />
<polyline points="317.0,413.0,325.0,439.0,333.0,461.0,341.0,481.0,349.0,497.0" stroke="black" stroke-width="1" fill="none" />
<polyline points="473.0,504.0,481.0,502.0,481.0,505.0" stroke="black" stroke-width="1" fill="none" />
<polyline points="378.0,401.0,390.0,393.0,400.0,385.0,412.0,377.0,424.0,369.0,434.0,361.0,443.0,353.0,451.0,345.0,456.0,337.0,449.0,347.0,441.0,355.0,433.0,362.0,425.0,368.0,417.0,374.0,409.0,379.0,401.0,385.0,393.0,391.0,385.0,397.0,377.0,402.0,369.0,402.0,361.0,398.0,353.0,393.0,345.0,388.0,337.0,381.0,329.0,373.0,321.0,365.0,313.0,355.0,305.0,346.0,305.0,346.0,311.0,354.0,317.0,362.0,325.0,370.0,333.0,378.0,341.0,386.0,353.0,394.0,367.0,402.0" stroke="black" stroke-width="1" fill="none" />
<polyline points="356.0,507.0,353.0,499.0,349.0,491.0,345.0,483.0,342.0,475.0,339.0,467.0,336.0,459.0,333.0,451.0,330.0,443.0,327.0,435.0,324.0,427.0,322.0,419.0,319.0,411.0,317.0,403.0,315.0,395.0,313.0,387.0,310.0,379.0,308.0,371.0,307.0,363.0,305.0,355.0,303.0,347.0,294.0,332.0,286.0,317.0" stroke="black" stroke-width="1" fill="none" />
<polyline points="260.0,306.0,260.0,298.0,258.0,295.0" stroke="black" stroke-width="1" fill="none" />
<polyline points="242.0,298.0,262.0,290.0,274.0,282.0" stroke="black" stroke-width="1" fill="none" />
<polyline points="239.0,189.0,231.0,172.0" stroke="black" stroke-width="1" fill="none" />
<polyline points="194.0,181.0,186.0,176.0,183.0,173.0,179.0,164.0,171.0,155.0,163.0,155.0,155.0,155.0,147.0,155.0,139.0,155.0,131.0,155.0,123.0,155.0,115.0,155.0,107.0,155.0,99.0,156.0,91.0,156.0,83.0,157.0,75.0,157.0,67.0,157.0,59.0,157.0,51.0,157.0,43.0,157.0,35.0,157.0,27.0,157.0,19.0,160.0" stroke="black" stroke-width="1" fill="none" />
<polyline points="24.0,157.0,23.0,165.0,26.0,174.0,30.0,182.0,36.0,190.0" stroke="black" stroke-width="1" fill="none" />
<polyline points="31.0,183.0,39.0,190.0,47.0,191.0,55.0,194.0,63.0,194.0,71.0,195.0,79.0,195.0,87.0,194.0,95.0,194.0,103.0,194.0,111.0,194.0,119.0,194.0,127.0,194.0,135.0,194.0,143.0,194.0,151.0,194.0,159.0,194.0,167.0,194.0,175.0,193.0,183.0,193.0" stroke="black" stroke-width="1" fill="none" />
<polyline points="188.0,184.0,183.0,184.0,184.0,176.0,180.0,180.0,184.0,172.0,178.0,164.0,173.0,156.0" stroke="black" stroke-width="1" fill="none" />
<polyline points="117.0,221.0,115.0,229.0,114.0,237.0,113.0,245.0,112.0,253.0,111.0,261.0,111.0,269.0,109.0,277.0,108.0,285.0,108.0,293.0,106.0,301.0,106.0,309.0,105.0,317.0,104.0,325.0" stroke="black" stroke-width="1" fill="none" />
<polyline points="105.0,347.0,92.0,355.0,81.0,363.0,70.0,371.0,66.0,374.0,74.0,369.0,82.0,363.0,90.0,356.0,98.0,351.0,106.0,347.0" stroke="black" stroke-width="1" fill="none" />
<polyline points="145.0,303.0,149.0,298.0,154.0,290.0,155.0,282.0,156.0,274.0,157.0,266.0,157.0,258.0,153.0,256.0" stroke="black" stroke-width="1" fill="none" />
<polyline points="149.0,270.0,141.0,269.0,144.0,271.0,141.0,269.0,139.0,276.0" stroke="black" stroke-width="1" fill="none" />
<polyline points="152.0,273.0,153.0,265.0,153.0,257.0,147.0,253.0,139.0,252.0,131.0,255.0" stroke="black" stroke-width="1" fill="none" />
<polyline points="115.0,225.0,123.0,221.0,131.0,221.0,139.0,221.0,147.0,221.0,155.0,221.0,163.0,221.0,171.0,221.0,179.0,221.0,187.0,220.0,195.0,220.0,203.0,220.0,211.0,220.0,219.0,220.0,227.0,220.0,235.0,220.0,243.0,220.0" stroke="black" stroke-width="1" fill="none" />
<polyline points="275.0,282.0,267.0,283.0,259.0,286.0,251.0,288.0,243.0,290.0,235.0,292.0,227.0,292.0,219.0,292.0,211.0,292.0,203.0,292.0,195.0,292.0,187.0,292.0,179.0,292.0,171.0,292.0,163.0,295.0,164.0,292.0,163.0,300.0,162.0,308.0" stroke="black" stroke-width="1" fill="none" />
<polyline points="143.0,302.0,142.0,294.0" stroke="black" stroke-width="1" fill="none" />
<polyline points="74.0,339.0,66.0,339.0,58.0,339.0,50.0,339.0,42.0,341.0,44.0,339.0,42.0,347.0,47.0,360.0,46.0,368.0,45.0,376.0" stroke="black" stroke-width="1" fill="none" />
<polyline points="66.0,369.0,58.0,376.0,50.0,382.0,42.0,383.0,34.0,384.0,26.0,388.0" stroke="black" stroke-width="1" fill="none" />
<polyline points="16.0,409.0,8.0,409.0,0.0,409.0" stroke="black" stroke-width="1" fill="none" />
<polyline points="0.0,395.0,8.0,395.0,8.0,392.0,0.0,391.0,0.0,388.0,8.0,388.0,8.0,384.0,0.0,384.0,0.0,381.0,8.0,381.0,16.0,381.0,16.0,377.0,8.0,378.0,0.0,377.0,0.0,375.0,8.0,375.0,17.0,374.0,25.0,379.0,33.0,380.0,41.0,380.0" stroke="black" stroke-width="1" fill="none" />
<polyline points="27.0,352.0,35.0,351.0,43.0,352.0,44.0,348.0,52.0,348.0,60.0,348.0,68.0,348.0" stroke="black" stroke-width="1" fill="none" />
<polyline points="55.0,316.0,47.0,316.0,39.0,316.0,38.0,314.0,46.0,313.0,54.0,313.0" stroke="black" stroke-width="1" fill="none" />
<polyline points="33.0,282.0,25.0,275.0,25.0,275.0,33.0,283.0,34.0,291.0,33.0,299.0,24.0,307.0,29.0,303.0" stroke="black" stroke-width="1" fill="none" />
<polyline points="0.0,324.0,8.0,324.0,16.0,324.0,24.0,324.0,32.0,324.0,40.0,324.0,48.0,324.0,56.0,324.0,64.0,324.0,72.0,324.0,78.0,326.0,77.0,334.0,76.0,342.0,74.0,350.0,74.0,358.0,70.0,366.0,60.0,374.0,50.0,382.0,41.0,390.0,32.0,398.0,24.0,406.0,17.0,414.0,10.0,422.0,3.0,430.0,5.0,427.0,13.0,418.0,21.0,409.0,29.0,401.0,37.0,394.0,45.0,387.0" stroke="black" stroke-width="1" fill="none" />
<polyline points="24.0,370.0,16.0,371.0,8.0,371.0,0.0,370.0" stroke="black" stroke-width="1" fill="none" />
<polyline points="28.0,351.0,26.0,359.0,25.0,367.0,26.0,380.0,26.0,391.0,25.0,399.0" stroke="black" stroke-width="1" fill="none" />
<polyline points="7.0,267.0,1.0,280.0,5.0,272.0,6.0,264.0" stroke="black" stroke-width="1" fill="none" />
<polyline points="27.0,174.0,19.0,172.0" stroke="black" stroke-width="1" fill="none" />
<polyline points="90.0,217.0,91.0,225.0,90.0,233.0,89.0,241.0,88.0,249.0,87.0,257.0,86.0,265.0,85.0,273.0,84.0,281.0" stroke="black" stroke-width="1" fill="none" />
<polyline points="90.0,217.0,98.0,218.0,106.0,217.0,114.0,217.0,122.0,217.0,130.0,217.0,138.0,217.0,146.0,217.0,154.0,217.0,162.0,217.0,170.0,217.0,178.0,217.0,186.0,217.0,194.0,217.0,202.0,217.0,210.0,217.0,218.0,217.0,226.0,217.0,234.0,217.0,242.0,217.0,253.0,223.0" stroke="black" stroke-width="1" fill="none" />
<polyline points="465.0,280.0,473.0,275.0,478.0,276.0,476.0,284.0,468.0,278.0,465.0,286.0,470.0,284.0,475.0,286.0,467.0,289.0" stroke="black" stroke-width="1" fill="none" />
<polyline points="494.0,289.0,502.0,297.0" stroke="black" stroke-width="1" fill="none" />
<polyline points="505.0,273.0,498.0,268.0,496.0,279.0,488.0,292.0,488.0,292.0,491.0,284.0,499.0,276.0,508.0,270.0,509.0,261.0,504.0,253.0,501.0,245.0,497.0,237.0,496.0,229.0,500.0,221.0,503.0,213.0,505.0,205.0,507.0,197.0,509.0,189.0,509.0,181.0,509.0,178.0" stroke="black" stroke-width="1" fill="none" />
<polyline points="500.0,243.0,508.0,259.0" stroke="black" stroke-width="1" fill="none" />
<polyline points="494.0,255.0,497.0,263.0,498.0,271.0" stroke="black" stroke-width="1" fill="none" />
<polyline points="492.0,255.0,493.0,263.0,493.0,271.0,491.0,279.0,497.0,291.0,505.0,298.0" stroke="black" stroke-width="1" fill="none" />
<polyline points="203.0,2.0,193.0,3.0,185.0,3.0,177.0,1.0,178.0,0.0,174.0,4.0,172.0,12.0,181.0,20.0,194.0,16.0,202.0,16.0,210.0,16.0,216.0,19.0,224.0,20.0,232.0,19.0,245.0,12.0,244.0,3.0,241.0,11.0,238.0,19.0" stroke="black" stroke-width="1" fill="none" />
<polyline points="44.0,82.0,36.0,71.0,28.0,59.0,24.0,56.0,31.0,64.0,36.0,72.0,42.0,80.0,48.0,88.0" stroke="black" stroke-width="1" fill="none" />
<polyline points="35.0,56.0,27.0,56.0,19.0,56.0" stroke="black" stroke-width="1" fill="none" />
<polyline points="118.5,0.0,137.0,0.0,138.5,0.0,141.5,0.0" stroke="black" stroke-width="1" fill="none" />
<polyline points="134.0,8.0,114.5,8.0" stroke="black" stroke-width="1" fill="none" />
<polyline points="121.5,16.0,130.0,16.0" stroke="black" stroke-width="1" fill="none" />
<polyline points="129.0,24.0,511.5,24.0" stroke="black" stroke-width="1" fill="none" />
<polyline points="511.5,48.5,480.0,80.0,479.5,80.5,476.5,83.5,474.5,85.5,474.0,86.0,478.0,90.0,480.5,87.5,482.5,85.5,511.5,56.5" stroke="black" stroke-width="1" fill="none" />
<polyline points="511.5,88.5,503.0,97.0,500.5,99.5,499.5,100.5" stroke="black" stroke-width="1" fill="none" />
<polyline points="505.5,102.5,506.5,101.5,508.0,100.0,511.5,96.5" stroke="black" stroke-width="1" fill="none" />
<polyline points="498.5,93.5,511.5,80.5" stroke="black" stroke-width="1" fill="none" />
<polyline points="511.5,72.5,494.0,90.0,493.0,91.0,491.5,92.5,489.5,94.5,488.5,95.5" stroke="black" stroke-width="1" fill="none" />
<polyline points="488.5,87.5,511.5,64.5" stroke="black" stroke-width="1" fill="none" />
<polyline points="511.5,40.5,465.5,86.5,463.5,88.5,462.0,90.0,460.0,92.0,459.0,93.0,457.5,94.5,456.5,95.5,454.5,97.5,453.5,98.5,453.0,99.0,452.0,100.0" stroke="black" stroke-width="1" fill="none" />
<polyline points="456.5,103.5,454.0,106.0,452.0,108.0,451.5,108.5,448.5,111.5,447.5,112.5" stroke="black" stroke-width="1" fill="none" />
<polyline points="458.5,109.5,459.0,109.0,462.0,106.0,464.0,104.0,467.5,100.5,468.0,100.0" stroke="black" stroke-width="1" fill="none" />
<polyline points="463.0,97.0,462.0,98.0,461.0,99.0,458.0,102.0" stroke="black" stroke-width="1" fill="none" />
<polyline points="449.0,95.0,456.0,88.0" stroke="black" stroke-width="1" fill="none" />
<polyline points="460.5,83.5,511.5,32.5" stroke="black" stroke-width="1" fill="none" />
<polyline points="511.5,24.5,454.5,81.5,453.5,82.5,446.0,90.0,442.0,86.0,459.5,68.5,460.5,67.5,477.5,50.5,479.0,49.0,511.5,16.5" stroke="black" stroke-width="1" fill="none" />
<polyline points="511.5,8.5,476.0,44.0,475.0,45.0,474.0,46.0,471.5,48.5,471.0,49.0,469.5,50.5,457.0,63.0" stroke="black" stroke-width="1" fill="none" />
<polyline points="452.0,68.0,437.5,82.5" stroke="black" stroke-width="1" fill="none" />
<polyline points="434.0,78.0,462.5,49.5" stroke="black" stroke-width="1" fill="none" />
<polyline points="460.0,44.0,461.0,43.0" stroke="black" stroke-width="1" fill="none" />
<polyline points="457.5,38.5,496.0,0.0,496.0,0.0,496.0,230.0,494.5,233.5,492.5,235.5,496.0,234.0,496.0,261.5,498.0,262.0,504.0,256.0,505.0,257.0,488.0,240.0,487.5,239.5,368.5,120.5,367.0,119.0,356.5,108.5,355.5,107.5,347.0,99.0,344.5,96.5,343.0,95.0,342.0,94.0,341.0,93.0,339.5,91.5,339.0,91.0,337.5,89.5,336.5,88.5" stroke="black" stroke-width="1" fill="none" />
<polyline points="341.0,85.0,347.5,91.5,348.5,92.5,500.0,244.0" stroke="black" stroke-width="1" fill="none" />
<polyline points="502.0,250.0,495.0,257.0,492.5,259.5,479.0,273.0" stroke="black" stroke-width="1" fill="none" />
<polyline points="475.5,268.5,465.5,278.5,464.5,279.5,455.5,288.5,452.5,291.5,452.0,292.0,456.0,296.0,454.5,297.5,458.0,294.0,464.0,288.0" stroke="black" stroke-width="1" fill="none" />
<polyline points="467.5,292.5,469.5,290.5,472.0,288.0,487.5,303.5" stroke="black" stroke-width="1" fill="none" />
<polyline points="486.0,298.0,481.0,303.0,480.5,303.5,480.0,304.0,477.5,306.5,475.0,309.0" stroke="black" stroke-width="1" fill="none" />
<polyline points="470.5,305.5,490.0,286.0" stroke="black" stroke-width="1" fill="none" />
<polyline points="492.0,276.0,467.0,301.0,465.5,302.5,461.0,307.0,460.5,307.5,460.0,308.0" stroke="black" stroke-width="1" fill="none" />
<polyline points="467.0,309.0,458.0,318.0,456.0,320.0,454.0,322.0,451.0,325.0,450.5,325.5" stroke="black" stroke-width="1" fill="none" />
<polyline points="454.0,330.0,455.5,328.5,456.0,328.0,462.0,322.0,464.5,319.5,467.5,316.5" stroke="black" stroke-width="1" fill="none" />
<polyline points="467.5,324.5,465.0,327.0" stroke="black" stroke-width="1" fill="none" />
<polyline points="472.0,328.0,478.0,334.0,482.0,338.0,484.5,340.5" stroke="black" stroke-width="1" fill="none" />
<polyline points="479.5,343.5,483.0,347.0" stroke="black" stroke-width="1" fill="none" />
<polyline points="478.5,350.5,479.5,351.5,475.5,347.5,474.5,346.5" stroke="black" stroke-width="1" fill="none" />
<polyline points="477.5,341.5,471.0,335.0,465.5,334.5,462.5,337.5,462.5,334.5,466.0,338.0,469.0,341.0,473.5,345.5" stroke="black" stroke-width="1" fill="none" />
<polyline points="468.5,348.5,472.5,352.5" stroke="black" stroke-width="1" fill="none" />
<polyline points="477.5,357.5,478.0,358.0" stroke="black" stroke-width="1" fill="none" />
<polyline points="473.5,361.5,477.0,365.0" stroke="black" stroke-width="1" fill="none" />
<polyline points="456.5,367.5,454.5,369.5,457.5,369.5,454.0,366.0" stroke="black" stroke-width="1" fill="none" />
<polyline points="450.5,370.5,451.5,371.5,452.0,372.0,456.0,376.0,454.5,377.5,452.0,380.0,451.0,379.0,455.0,383.0" stroke="black" stroke-width="1" fill="none" />
<polyline points="452.0,388.0,448.0,392.0,447.5,391.5,451.0,395.0,448.5,399.5,445.5,402.5,444.0,404.0,448.0,408.0,444.0,412.0,441.5,414.5,439.5,415.5,443.5,419.5,442.0,422.0,437.5,426.5,436.0,428.0,440.0,432.0,437.5,434.5,433.5,438.5,432.0,440.0,436.0,444.0,433.5,446.5,430.0,450.0,428.5,452.5,432.0,456.0,429.0,459.0,426.0,462.0,424.0,464.0,428.0,468.0,426.0,470.0,422.5,473.5,425.5,473.5,422.0,470.0" stroke="black" stroke-width="1" fill="none" />
<polyline points="420.5,476.5,424.0,480.0,422.0,482.0,418.0,486.0,416.0,488.0,420.5,492.5,418.0,494.0,414.0,498.0,412.5,500.5,416.5,504.5,414.0,506.0,411.5,508.5,411.0,507.0,414.0,510.0" stroke="black" stroke-width="1" fill="none" />
<polyline points="418.5,498.5,414.0,494.0" stroke="black" stroke-width="1" fill="none" />
<polyline points="422.5,486.5,418.0,482.0" stroke="black" stroke-width="1" fill="none" />
<polyline points="430.0,462.0,426.5,458.5" stroke="black" stroke-width="1" fill="none" />
<polyline points="434.0,450.0,429.0,445.0" stroke="black" stroke-width="1" fill="none" />
<polyline points="438.0,438.0,433.5,433.5" stroke="black" stroke-width="1" fill="none" />
<polyline points="442.0,426.0,437.5,421.5" stroke="black" stroke-width="1" fill="none" />
<polyline points="446.0,414.0,441.5,409.5" stroke="black" stroke-width="1" fill="none" />
<polyline points="449.5,401.5,445.5,397.5" stroke="black" stroke-width="1" fill="none" />
<polyline points="452.5,388.5,449.5,385.5" stroke="black" stroke-width="1" fill="none" />
<polyline points="456.5,359.5,460.5,355.5,461.5,357.5,457.0,353.0" stroke="black" stroke-width="1" fill="none" />
<polyline points="452.5,356.5,454.5,358.5,455.0,359.0,459.5,363.5" stroke="black" stroke-width="1" fill="none" />
<polyline points="460.5,347.5,463.0,345.0,465.0,345.0,460.5,340.5,457.5,337.5,358.0,238.0" stroke="black" stroke-width="1" fill="none" />
<polyline points="362.5,234.5,363.0,235.0,367.0,231.0,366.5,230.5,365.0,229.0,362.5,226.5,359.0,223.0,358.5,222.5" stroke="black" stroke-width="1" fill="none" />
<polyline points="356.0,228.0,358.5,230.5" stroke="black" stroke-width="1" fill="none" />
<polyline points="356.0,236.0,349.5,229.5,347.0,227.0,346.0,226.0" stroke="black" stroke-width="1" fill="none" />
<polyline points="343.0,231.0,454.5,342.5,458.5,346.5,463.0,351.0" stroke="black" stroke-width="1" fill="none" />
<polyline points="448.0,344.0,456.0,336.0" stroke="black" stroke-width="1" fill="none" />
<polyline points="446.0,346.0,445.0,347.0,444.5,347.5,444.0,348.0,442.5,349.5,421.5,370.5" stroke="black" stroke-width="1" fill="none" />
<polyline points="413.0,371.0,412.5,371.5,409.0,375.0,403.5,380.5,402.5,381.5,399.0,385.0,398.5,385.5,396.0,388.0" stroke="black" stroke-width="1" fill="none" />
<polyline points="393.0,383.0,393.5,382.5,392.0,384.0,390.5,385.5,390.0,386.0,380.5,395.5,376.5,399.5,374.0,402.0" stroke="black" stroke-width="1" fill="none" />
<polyline points="374.0,394.0,377.0,391.0,378.5,389.5,379.5,388.5,380.5,387.5,381.5,386.5" stroke="black" stroke-width="1" fill="none" />
<polyline points="370.0,390.0,369.5,390.5" stroke="black" stroke-width="1" fill="none" />
<polyline points="354.0,394.0,298.5,338.5,300.0,340.0,302.5,337.5" stroke="black" stroke-width="1" fill="none" />
<polyline points="297.0,335.0,300.0,332.0" stroke="black" stroke-width="1" fill="none" />
<polyline points="306.0,330.0,306.5,330.5" stroke="black" stroke-width="1" fill="none" />
<polyline points="298.5,325.5,294.0,330.0" stroke="black" stroke-width="1" fill="none" />
<polyline points="291.0,325.0,298.5,317.5,302.5,313.5,307.5,308.5,311.0,305.0,314.0,302.0,316.5,299.5,317.0,299.0" stroke="black" stroke-width="1" fill="none" />
<polyline points="317.0,307.0,316.0,308.0" stroke="black" stroke-width="1" fill="none" />
<polyline points="311.0,313.0,309.5,314.5" stroke="black" stroke-width="1" fill="none" />
<polyline points="326.5,310.5,327.5,311.5" stroke="black" stroke-width="1" fill="none" />
<polyline points="328.0,304.0,327.5,303.5" stroke="black" stroke-width="1" fill="none" />
<polyline points="331.0,299.0,330.5,298.5" stroke="black" stroke-width="1" fill="none" />
<polyline points="336.5,296.5,338.0,298.0" stroke="black" stroke-width="1" fill="none" />
<polyline points="343.0,295.0,344.0,296.0,345.5,297.5,356.0,308.0,352.0,312.0,357.0,317.0" stroke="black" stroke-width="1" fill="none" />
<polyline points="362.5,314.5,364.0,316.0,365.5,317.5,367.0,319.0,369.5,321.5,420.5,372.5" stroke="black" stroke-width="1" fill="none" />
<polyline points="400.0,376.0,399.0,377.0" stroke="black" stroke-width="1" fill="none" />
<polyline points="430.0,366.0,372.0,308.0" stroke="black" stroke-width="1" fill="none" />
<polyline points="381.0,309.0,392.0,320.0,392.5,320.5,393.0,321.0,394.0,322.0,434.5,362.5" stroke="black" stroke-width="1" fill="none" />
<polyline points="470.0,326.0,384.0,240.0" stroke="black" stroke-width="1" fill="none" />
<polyline points="377.5,241.5,467.5,331.5" stroke="black" stroke-width="1" fill="none" />
<polyline points="482.5,330.5,485.5,333.5" stroke="black" stroke-width="1" fill="none" />
<polyline points="489.0,329.0,486.5,326.5" stroke="black" stroke-width="1" fill="none" />
<polyline points="487.5,319.5,398.5,230.5" stroke="black" stroke-width="1" fill="none" />
<polyline points="395.0,235.0,396.0,236.0,396.5,236.5,485.5,325.5" stroke="black" stroke-width="1" fill="none" />
<polyline points="481.0,329.0,390.5,238.5,394.5,234.5,391.5,231.5" stroke="black" stroke-width="1" fill="none" />
<polyline points="393.5,225.5,390.0,222.0" stroke="black" stroke-width="1" fill="none" />
<polyline points="393.0,217.0,395.0,219.0,396.0,220.0,396.5,220.5,397.0,221.0,404.0,228.0,404.5,228.5,405.0,229.0,406.0,230.0,487.5,311.5" stroke="black" stroke-width="1" fill="none" />
<polyline points="488.0,296.0,477.0,285.0,472.0,284.5,472.0,511.5" stroke="black" stroke-width="1" fill="none" />
<polyline points="479.5,504.5,481.0,503.0,481.5,505.5,478.0,502.0,477.5,498.5,478.0,498.0,475.5,499.5,467.0,491.0" stroke="black" stroke-width="1" fill="none" />
<polyline points="481.0,497.0,483.0,499.0,485.5,501.5,488.5,504.5,493.0,507.0,495.0,505.0,495.0,503.0,497.0,505.0,501.0,509.0,503.5,511.5,504.5,511.5,506.0,510.0" stroke="black" stroke-width="1" fill="none" />
<polyline points="511.0,503.0,507.5,499.5,511.5,495.5,509.5,493.5,505.5,497.5,502.5,494.5" stroke="black" stroke-width="1" fill="none" />
<polyline points="499.5,499.5,503.5,503.5" stroke="black" stroke-width="1" fill="none" />
<polyline points="495.5,511.5,493.5,509.5" stroke="black" stroke-width="1" fill="none" />
<polyline points="487.5,511.5,486.0,510.0" stroke="black" stroke-width="1" fill="none" />
<polyline points="492.5,500.5,491.0,499.0,488.0,496.0,486.5,494.5" stroke="black" stroke-width="1" fill="none" />
<polyline points="490.0,490.0,495.5,495.5" stroke="black" stroke-width="1" fill="none" />
<polyline points="504.0,511.5,504.0,343.0" stroke="black" stroke-width="1" fill="none" />
<polyline points="496.0,330.5,496.0,511.5" stroke="black" stroke-width="1" fill="none" />
<polyline points="488.0,511.5,488.0,0.0,488.0,0.0,511.5,23.5" stroke="black" stroke-width="1" fill="none" />
<polyline points="508.5,3.5,474.0,38.0,473.5,38.5,468.5,43.5" stroke="black" stroke-width="1" fill="none" />
<polyline points="466.0,38.0,504.0,0.0,504.0,0.0,504.0,211.0" stroke="black" stroke-width="1" fill="none" />
<polyline points="483.0,197.0,481.5,198.5" stroke="black" stroke-width="1" fill="none" />
<polyline points="479.0,193.0,480.5,191.5,476.5,187.5,477.0,187.0" stroke="black" stroke-width="1" fill="none" />
<polyline points="477.5,178.5,464.5,191.5" stroke="black" stroke-width="1" fill="none" />
<polyline points="456.0,192.0,474.5,173.5" stroke="black" stroke-width="1" fill="none" />
<polyline points="468.0,172.0,448.0,192.0" stroke="black" stroke-width="1" fill="none" />
<polyline points="445.0,187.0,446.0,186.0,447.0,185.0,463.0,169.0" stroke="black" stroke-width="1" fill="none" />
<polyline points="467.0,157.0,467.5,156.5,471.0,153.0,473.0,151.0,476.0,148.0,478.0,146.0" stroke="black" stroke-width="1" fill="none" />
<polyline points="479.5,152.5,477.0,155.0,476.5,155.5,475.0,157.0" stroke="black" stroke-width="1" fill="none" />
<polyline points="483.5,156.5,485.0,155.0" stroke="black" stroke-width="1" fill="none" />
<polyline points="472.0,144.0,471.0,145.0,468.5,147.5,465.0,151.0,464.0,152.0,460.5,155.5" stroke="black" stroke-width="1" fill="none" />
<polyline points="455.5,152.5,460.0,148.0,460.5,147.5,462.0,146.0,463.5,144.5,464.0,144.0,467.0,141.0,468.0,140.0" stroke="black" stroke-width="1" fill="none" />
<polyline points="466.0,134.0,467.0,133.0,465.5,134.5,452.5,147.5,451.0,149.0,449.5,150.5,448.0,152.0,436.0,164.0,435.5,164.5,419.0,181.0" stroke="black" stroke-width="1" fill="none" />
<polyline points="424.0,184.0,442.5,165.5,443.0,165.0,452.0,156.0" stroke="black" stroke-width="1" fill="none" />
<polyline points="455.5,160.5,434.5,181.5,433.5,182.5,431.5,184.5" stroke="black" stroke-width="1" fill="none" />
<polyline points="442.0,182.0,461.0,163.0" stroke="black" stroke-width="1" fill="none" />
<polyline points="444.5,147.5,463.0,129.0,459.0,125.0,463.5,120.5" stroke="black" stroke-width="1" fill="none" />
<polyline points="455.0,129.0,443.0,141.0,439.0,137.0,438.5,137.5,439.5,136.5,450.0,126.0" stroke="black" stroke-width="1" fill="none" />
<polyline points="448.0,120.0,433.5,134.5,430.0,138.0,429.0,139.0" stroke="black" stroke-width="1" fill="none" />
<polyline points="434.0,142.0,427.5,148.5" stroke="black" stroke-width="1" fill="none" />
<polyline points="433.5,150.5,438.0,146.0" stroke="black" stroke-width="1" fill="none" />
<polyline points="437.0,155.0,432.5,159.5,431.5,160.5,427.5,164.5,426.5,165.5,412.0,180.0" stroke="black" stroke-width="1" fill="none" />
<polyline points="400.0,184.0,417.5,166.5" stroke="black" stroke-width="1" fill="none" />
<polyline points="412.0,164.0,411.5,164.5,410.5,165.5,391.0,185.0" stroke="black" stroke-width="1" fill="none" />
<polyline points="384.0,184.0,396.0,172.0,397.0,171.0,397.5,170.5" stroke="black" stroke-width="1" fill="none" />
<polyline points="401.0,161.0,481.0,241.0,481.5,241.5,482.5,242.5,484.0,244.0,506.5,266.5,504.5,263.5,500.5,267.5,499.5,267.5,502.5,270.5,504.0,272.5,504.0,253.5" stroke="black" stroke-width="1" fill="none" />
<polyline points="493.0,267.0,479.5,280.5,479.0,279.0,489.5,289.5" stroke="black" stroke-width="1" fill="none" />
<polyline points="491.0,283.0,370.5,162.5" stroke="black" stroke-width="1" fill="none" />
<polyline points="366.0,166.0,371.5,171.5,373.0,173.0,374.5,174.5,375.0,175.0,399.5,199.5,400.5,200.5,474.5,274.5" stroke="black" stroke-width="1" fill="none" />
<polyline points="469.5,277.5,389.0,197.0,388.5,196.5,388.0,196.0,386.0,194.0,383.5,191.5,382.5,190.5,374.0,182.0,370.0,178.0,369.0,177.0" stroke="black" stroke-width="1" fill="none" />
<polyline points="371.5,187.5,379.0,195.0,380.5,196.5,405.0,221.0,407.0,223.0,408.0,224.0,409.5,225.5,411.5,227.5,412.0,228.0,464.5,280.5" stroke="black" stroke-width="1" fill="none" />
<polyline points="460.5,275.5,463.5,272.5,464.0,272.0,497.5,238.5" stroke="black" stroke-width="1" fill="none" />
<polyline points="500.0,244.0,477.5,266.5" stroke="black" stroke-width="1" fill="none" />
<polyline points="475.0,253.0,476.0,252.0,474.5,253.5,461.0,267.0,460.0,268.0,457.0,271.0" stroke="black" stroke-width="1" fill="none" />
<polyline points="459.5,276.5,453.5,282.5,452.0,284.0,451.0,285.0" stroke="black" stroke-width="1" fill="none" />
<polyline points="446.0,290.0,444.5,291.5" stroke="black" stroke-width="1" fill="none" />
<polyline points="451.5,276.5,454.0,274.0" stroke="black" stroke-width="1" fill="none" />
<polyline points="446.5,265.5,444.5,267.5,448.5,263.5,452.0,260.0" stroke="black" stroke-width="1" fill="none" />
<polyline points="458.0,262.0,459.0,261.0" stroke="black" stroke-width="1" fill="none" />
<polyline points="443.0,269.0,439.5,272.5,439.0,273.0,438.0,274.0" stroke="black" stroke-width="1" fill="none" />
<polyline points="435.0,269.0,432.5,271.5" stroke="black" stroke-width="1" fill="none" />
<polyline points="429.5,266.5,432.0,264.0,433.0,263.0,438.5,257.5" stroke="black" stroke-width="1" fill="none" />
<polyline points="443.0,261.0,439.0,265.0" stroke="black" stroke-width="1" fill="none" />
<polyline points="427.0,261.0,424.5,263.5,424.0,264.0,422.0,266.0" stroke="black" stroke-width="1" fill="none" />
<polyline points="418.5,261.5,421.0,259.0" stroke="black" stroke-width="1" fill="none" />
<polyline points="416.5,263.5,413.5,266.5" stroke="black" stroke-width="1" fill="none" />
<polyline points="410.5,261.5,411.5,260.5,408.0,264.0,407.0,265.0" stroke="black" stroke-width="1" fill="none" />
<polyline points="401.5,262.5,400.0,264.0,399.0,265.0,397.5,266.5" stroke="black" stroke-width="1" fill="none" />
<polyline points="391.5,264.5,390.5,265.5" stroke="black" stroke-width="1" fill="none" />
<polyline points="395.0,277.0,394.5,277.5,394.0,278.0,393.0,279.0" stroke="black" stroke-width="1" fill="none" />
<polyline points="412.0,276.0,414.0,274.0" stroke="black" stroke-width="1" fill="none" />
<polyline points="422.5,273.5,425.0,271.0" stroke="black" stroke-width="1" fill="none" />
<polyline points="461.0,299.0,464.5,295.5" stroke="black" stroke-width="1" fill="none" />
<polyline points="471.0,280.0,496.5,280.0,498.5,280.0,506.5,280.0" stroke="black" stroke-width="1" fill="none" />
<polyline points="496.0,272.5,496.0,271.0" stroke="black" stroke-width="1" fill="none" />
<polyline points="493.5,261.5,480.0,248.0" stroke="black" stroke-width="1" fill="none" />
<polyline points="469.5,226.5,470.0,226.0" stroke="black" stroke-width="1" fill="none" />
<polyline points="466.5,213.5,467.5,212.5" stroke="black" stroke-width="1" fill="none" />
<polyline points="466.0,206.0,467.0,205.0" stroke="black" stroke-width="1" fill="none" />
<polyline points="458.5,205.5,458.0,206.0,455.0,209.0,454.0,210.0,453.0,211.0,452.5,211.5,456.5,215.5,455.5,216.5" stroke="black" stroke-width="1" fill="none" />
<polyline points="445.0,211.0,444.5,211.5,444.0,212.0,442.0,214.0" stroke="black" stroke-width="1" fill="none" />
<polyline points="439.5,208.5,443.0,205.0" stroke="black" stroke-width="1" fill="none" />
<polyline points="439.5,200.5,441.5,198.5" stroke="black" stroke-width="1" fill="none" />
<polyline points="436.5,203.5,436.0,204.0" stroke="black" stroke-width="1" fill="none" />
<polyline points="432.5,199.5,436.5,195.5" stroke="black" stroke-width="1" fill="none" />
<polyline points="429.0,203.0,427.5,204.5,423.5,200.5,428.0,196.0" stroke="black" stroke-width="1" fill="none" />
<polyline points="428.5,155.5,429.5,154.5" stroke="black" stroke-width="1" fill="none" />
<polyline points="426.5,133.5,444.5,115.5" stroke="black" stroke-width="1" fill="none" />
<polyline points="432.5,119.5,430.5,121.5,426.5,125.5,419.0,133.0" stroke="black" stroke-width="1" fill="none" />
<polyline points="415.5,128.5,416.0,128.0,416.5,127.5,424.5,119.5" stroke="black" stroke-width="1" fill="none" />
<polyline points="420.0,116.0,408.5,127.5" stroke="black" stroke-width="1" fill="none" />
<polyline points="413.5,130.5,414.5,129.5,413.0,131.0,403.5,140.5" stroke="black" stroke-width="1" fill="none" />
<polyline points="396.5,139.5,407.5,128.5" stroke="black" stroke-width="1" fill="none" />
<polyline points="406.0,122.0,411.0,117.0,410.0,114.0,504.0,208.0" stroke="black" stroke-width="1" fill="none" />
<polyline points="509.5,138.5,510.0,138.0" stroke="black" stroke-width="1" fill="none" />
<polyline points="509.5,122.5,510.5,121.5" stroke="black" stroke-width="1" fill="none" />
<polyline points="469.5,106.5,469.0,107.0,468.5,107.5,468.0,108.0" stroke="black" stroke-width="1" fill="none" />
<polyline points="467.5,92.5,470.5,89.5,474.5,93.5,475.5,92.5" stroke="black" stroke-width="1" fill="none" />
<polyline points="450.5,53.5,451.5,52.5,448.0,56.0,431.5,72.5,427.5,68.5,441.0,55.0" stroke="black" stroke-width="1" fill="none" />
<polyline points="438.0,50.0,439.0,49.0,442.5,45.5,443.5,44.5,447.5,48.5,448.0,48.0" stroke="black" stroke-width="1" fill="none" />
<polyline points="453.0,43.0,455.0,41.0" stroke="black" stroke-width="1" fill="none" />
<polyline points="448.0,40.0,488.0,0.0" stroke="black" stroke-width="1" fill="none" />
<polyline points="480.0,0.0,480.0,511.5" stroke="black" stroke-width="1" fill="none" />
<polyline points="464.0,511.5,464.0,0.0,464.0,0.0,511.5,47.5" stroke="black" stroke-width="1" fill="none" />
<polyline points="511.5,7.5,504.0,0.0" stroke="black" stroke-width="1" fill="none" />
<polyline points="496.0,0.0,511.5,15.5" stroke="black" stroke-width="1" fill="none" />
<polyline points="511.5,31.5,480.0,0.0,480.0,0.0,435.5,44.5,434.5,45.5,421.5,58.5" stroke="black" stroke-width="1" fill="none" />
<polyline points="426.5,61.5,437.0,51.0" stroke="black" stroke-width="1" fill="none" />
<polyline points="429.0,43.0,428.0,44.0" stroke="black" stroke-width="1" fill="none" />
<polyline points="433.0,39.0,434.0,38.0,436.5,35.5,472.0,0.0,472.0,0.0,472.0,275.5" stroke="black" stroke-width="1" fill="none" />
<polyline points="478.5,246.5,391.0,159.0" stroke="black" stroke-width="1" fill="none" />
<polyline points="398.5,158.5,362.0,122.0,361.0,121.0,360.0,120.0,358.0,118.0,353.0,113.0,349.5,109.5,342.5,102.5,340.0,100.0,339.5,99.5,336.5,96.5,336.0,96.0" stroke="black" stroke-width="1" fill="none" />
<polyline points="337.5,105.5,340.0,108.0,341.0,109.0,343.5,111.5" stroke="black" stroke-width="1" fill="none" />
<polyline points="338.5,114.5,337.5,113.5" stroke="black" stroke-width="1" fill="none" />
<polyline points="355.5,123.5,356.0,124.0,357.0,125.0,358.0,126.0,359.0,127.0,360.5,128.5,363.0,131.0,390.0,158.0" stroke="black" stroke-width="1" fill="none" />
<polyline points="382.0,166.0,382.5,166.5,384.5,168.5,492.5,276.5" stroke="black" stroke-width="1" fill="none" />
<polyline points="493.0,269.0,372.0,148.0,371.5,147.5,364.0,140.0" stroke="black" stroke-width="1" fill="none" />
<polyline points="361.0,145.0,369.0,153.0,370.0,154.0,380.0,164.0" stroke="black" stroke-width="1" fill="none" />
<polyline points="363.5,155.5,360.5,152.5" stroke="black" stroke-width="1" fill="none" />
<polyline points="360.5,160.5,362.0,162.0" stroke="black" stroke-width="1" fill="none" />
<polyline points="372.0,196.0,372.5,196.5,374.5,198.5,376.0,200.0,379.0,203.0,392.5,216.5" stroke="black" stroke-width="1" fill="none" />
<polyline points="388.0,220.0,379.0,211.0,378.0,210.0,377.5,209.5,373.5,213.5,374.0,214.0,375.0,215.0,380.0,220.0,380.5,220.5,386.0,226.0" stroke="black" stroke-width="1" fill="none" />
<polyline points="382.5,230.5,381.0,229.0,378.5,226.5,376.5,224.5,374.5,222.5,372.5,220.5" stroke="black" stroke-width="1" fill="none" />
<polyline points="367.0,223.0,370.5,226.5,373.5,229.5,375.0,231.0,376.5,232.5,379.0,235.0" stroke="black" stroke-width="1" fill="none" />
<polyline points="374.5,238.5,371.5,235.5" stroke="black" stroke-width="1" fill="none" />
<polyline points="368.5,240.5,370.5,242.5,371.0,243.0,460.5,332.5" stroke="black" stroke-width="1" fill="none" />
<polyline points="450.5,346.5,339.0,235.0,338.0,234.0,335.5,231.5" stroke="black" stroke-width="1" fill="none" />
<polyline points="338.5,226.5,340.5,228.5,336.5,224.5,336.0,224.0" stroke="black" stroke-width="1" fill="none" />
<polyline points="347.0,219.0,348.5,220.5" stroke="black" stroke-width="1" fill="none" />
<polyline points="337.5,241.5,447.0,351.0" stroke="black" stroke-width="1" fill="none" />
<polyline points="442.5,354.5,330.5,242.5,329.5,241.5,327.5,239.5" stroke="black" stroke-width="1" fill="none" />
<polyline points="321.0,241.0,375.0,295.0,377.0,297.0,379.0,299.0" stroke="black" stroke-width="1" fill="none" />
<polyline points="384.5,304.5,393.0,313.0,393.5,313.5,397.0,317.0,398.0,318.0,399.5,319.5,400.0,320.0,439.0,359.0" stroke="black" stroke-width="1" fill="none" />
<polyline points="425.5,369.5,382.0,326.0,380.5,324.5,380.0,324.0,379.5,323.5,379.0,323.0,377.0,321.0,351.0,295.0" stroke="black" stroke-width="1" fill="none" />
<polyline points="362.0,290.0,380.5,308.5" stroke="black" stroke-width="1" fill="none" />
<polyline points="371.5,307.5,230.5,166.5,231.5,168.5,280.5,119.5" stroke="black" stroke-width="1" fill="none" />
<polyline points="279.0,129.0,265.0,143.0" stroke="black" stroke-width="1" fill="none" />
<polyline points="271.5,144.5,277.5,138.5" stroke="black" stroke-width="1" fill="none" />
<polyline points="267.0,149.0,265.0,151.0,269.0,155.0,269.5,154.5" stroke="black" stroke-width="1" fill="none" />
<polyline points="265.0,161.0,281.5,177.5,279.5,176.5,278.0,178.0,276.0,180.0,278.5,182.5,279.5,183.5,282.0,186.0" stroke="black" stroke-width="1" fill="none" />
<polyline points="281.0,193.0,290.0,202.0" stroke="black" stroke-width="1" fill="none" />
<polyline points="292.5,211.5,264.0,240.0,261.0,237.0,326.0,302.0" stroke="black" stroke-width="1" fill="none" />
<polyline points="313.5,294.5,288.5,319.5,287.5,319.5,308.5,340.5" stroke="black" stroke-width="1" fill="none" />
<polyline points="308.5,347.5,308.0,348.0" stroke="black" stroke-width="1" fill="none" />
<polyline points="311.5,352.5,313.0,351.0,317.0,349.0,371.0,403.0" stroke="black" stroke-width="1" fill="none" />
<polyline points="378.0,402.0,324.5,348.5" stroke="black" stroke-width="1" fill="none" />
<polyline points="328.0,344.0,332.0,348.0,333.0,349.0,335.5,351.5,336.5,352.5,342.5,358.5,343.0,359.0,383.0,399.0" stroke="black" stroke-width="1" fill="none" />
<polyline points="406.0,382.0,370.5,346.5" stroke="black" stroke-width="1" fill="none" />
<polyline points="377.0,345.0,378.0,346.0,379.0,347.0,411.0,379.0" stroke="black" stroke-width="1" fill="none" />
<polyline points="416.0,376.0,382.5,342.5,382.0,342.0,364.5,324.5" stroke="black" stroke-width="1" fill="none" />
<polyline points="359.0,327.0,369.0,337.0,371.0,339.0,372.0,340.0" stroke="black" stroke-width="1" fill="none" />
<polyline points="368.5,344.5,361.0,337.0,358.5,334.5,357.0,333.0,353.0,329.0,352.0,328.0" stroke="black" stroke-width="1" fill="none" />
<polyline points="355.5,323.5,358.5,326.5" stroke="black" stroke-width="1" fill="none" />
<polyline points="352.5,320.5,351.0,319.0" stroke="black" stroke-width="1" fill="none" />
<polyline points="351.5,311.5,350.0,310.0" stroke="black" stroke-width="1" fill="none" />
<polyline points="343.0,311.0,342.0,310.0" stroke="black" stroke-width="1" fill="none" />
<polyline points="350.0,294.0,236.0,180.0,236.5,179.5,249.5,166.5,252.5,163.5,254.0,162.0,258.5,162.5,274.5,178.5" stroke="black" stroke-width="1" fill="none" />
<polyline points="274.0,186.0,256.5,168.5" stroke="black" stroke-width="1" fill="none" />
<polyline points="251.5,172.5,239.0,185.0" stroke="black" stroke-width="1" fill="none" />
<polyline points="241.0,191.0,253.5,178.5,257.5,177.5,263.5,183.5,267.0,187.0,269.5,189.5" stroke="black" stroke-width="1" fill="none" />
<polyline points="267.5,195.5,361.5,289.5" stroke="black" stroke-width="1" fill="none" />
<polyline points="316.0,284.0,286.5,313.5" stroke="black" stroke-width="1" fill="none" />
<polyline points="284.0,308.0,305.0,329.0" stroke="black" stroke-width="1" fill="none" />
<polyline points="302.5,345.5,301.5,346.5,301.0,349.0,304.0,352.0,303.5,352.5,303.0,353.0" stroke="black" stroke-width="1" fill="none" />
<polyline points="303.0,359.0,307.0,363.0,307.0,365.0,305.5,366.5,306.0,370.0,309.5,373.5,308.0,372.0,307.5,372.5,312.0,373.0,312.0,426.0,312.0,431.0,312.0,432.5,312.0,437.5,312.0,443.0,312.0,445.0,312.0,511.5" stroke="black" stroke-width="1" fill="none" />
<polyline points="343.5,487.5,352.5,496.5,351.5,496.5,350.0,498.0,354.0,502.0,352.0,504.0,351.5,503.5,358.5,510.5,356.5,507.5,354.5,509.5" stroke="black" stroke-width="1" fill="none" />
<polyline points="347.5,492.5,349.0,491.0" stroke="black" stroke-width="1" fill="none" />
<polyline points="344.5,487.5,346.0,486.0,342.0,482.0,344.0,480.0,340.0,476.0,341.5,474.5,338.5,474.5,345.5,481.5" stroke="black" stroke-width="1" fill="none" />
<polyline points="337.5,470.5,339.5,468.5,335.5,464.5,337.0,463.0,332.5,460.5,339.5,467.5" stroke="black" stroke-width="1" fill="none" />
<polyline points="333.0,459.0,335.0,457.0,331.0,453.0,332.5,451.5,334.5,454.5,328.5,448.5,329.0,447.0,330.5,445.5,329.0,441.0,324.0,436.0,324.5,435.5,326.5,433.5,328.0,434.0,328.0,511.5" stroke="black" stroke-width="1" fill="none" />
<polyline points="384.0,511.5,384.0,452.0,384.0,449.5,384.0,448.0,384.0,446.0,384.0,0.0,384.0,0.0,384.5,0.5,387.5,3.5,511.5,127.5" stroke="black" stroke-width="1" fill="none" />
<polyline points="511.5,55.5,456.0,0.0,456.0,0.0,456.0,511.5" stroke="black" stroke-width="1" fill="none" />
<polyline points="448.0,511.5,448.0,498.0,448.0,495.5,448.0,0.0,448.0,0.0,511.5,63.5" stroke="black" stroke-width="1" fill="none" />
<polyline points="511.5,39.5,472.0,0.0" stroke="black" stroke-width="1" fill="none" />
<polyline points="464.0,0.0,453.5,10.5" stroke="black" stroke-width="1" fill="none" />
<polyline points="450.5,5.5,456.0,0.0" stroke="black" stroke-width="1" fill="none" />
<polyline points="449.0,7.0,445.5,10.5" stroke="black" stroke-width="1" fill="none" />
<polyline points="444.0,4.0,448.0,0.0" stroke="black" stroke-width="1" fill="none" />
<polyline points="440.0,0.0,440.0,490.0" stroke="black" stroke-width="1" fill="none" />
<polyline points="440.0,504.5,440.0,510.5" stroke="black" stroke-width="1" fill="none" />
<polyline points="432.0,511.5,432.0,0.0,432.0,0.0,511.5,79.5" stroke="black" stroke-width="1" fill="none" />
<polyline points="511.5,71.5,440.0,0.0" stroke="black" stroke-width="1" fill="none" />
<polyline points="424.0,0.0,424.0,511.5" stroke="black" stroke-width="1" fill="none" />
<polyline points="416.0,511.5,416.0,0.0,416.0,0.0,511.5,95.5" stroke="black" stroke-width="1" fill="none" />
<polyline points="511.5,87.5,424.0,0.0" stroke="black" stroke-width="1" fill="none" />
<polyline points="408.0,0.0,408.0,511.5" stroke="black" stroke-width="1" fill="none" />
<polyline points="400.0,511.5,400.0,0.0,400.0,0.0,511.5,111.5" stroke="black" stroke-width="1" fill="none" />
<polyline points="511.5,103.5,408.0,0.0" stroke="black" stroke-width="1" fill="none" />
<polyline points="396.0,4.0,511.5,119.5" stroke="black" stroke-width="1" fill="none" />
<polyline points="511.5,135.5,380.5,4.5" stroke="black" stroke-width="1" fill="none" />
<polyline points="382.0,10.0,380.0,12.0" stroke="black" stroke-width="1" fill="none" />
<polyline points="385.5,14.5,369.5,30.5" stroke="black" stroke-width="1" fill="none" />
<polyline points="375.0,33.0,389.0,19.0" stroke="black" stroke-width="1" fill="none" />
<polyline points="396.0,28.0,392.0,32.0,391.0,33.0,390.5,33.5" stroke="black" stroke-width="1" fill="none" />
<polyline points="383.0,33.0,392.0,24.0" stroke="black" stroke-width="1" fill="none" />
<polyline points="379.0,13.0,360.5,31.5,360.0,32.0,359.0,33.0" stroke="black" stroke-width="1" fill="none" />
<polyline points="351.5,32.5,372.0,12.0,372.5,11.5,374.0,10.0" stroke="black" stroke-width="1" fill="none" />
<polyline points="373.5,2.5,334.5,41.5" stroke="black" stroke-width="1" fill="none" />
<polyline points="341.5,42.5,344.0,40.0,344.5,39.5,345.0,39.0,346.0,38.0,351.0,33.0" stroke="black" stroke-width="1" fill="none" />
<polyline points="367.5,40.5,368.0,40.0" stroke="black" stroke-width="1" fill="none" />
<polyline points="371.5,44.5,373.5,42.5" stroke="black" stroke-width="1" fill="none" />
<polyline points="376.5,47.5,374.5,49.5" stroke="black" stroke-width="1" fill="none" />
<polyline points="388.0,60.0,369.0,79.0" stroke="black" stroke-width="1" fill="none" />
<polyline points="364.5,75.5,386.0,54.0" stroke="black" stroke-width="1" fill="none" />
<polyline points="393.0,63.0,389.0,67.0,388.5,67.5,388.0,68.0" stroke="black" stroke-width="1" fill="none" />
<polyline points="393.0,71.0,397.0,67.0,397.5,66.5,399.0,65.0" stroke="black" stroke-width="1" fill="none" />
<polyline points="404.5,67.5,405.0,67.0,401.5,70.5,400.0,72.0" stroke="black" stroke-width="1" fill="none" />
<polyline points="387.5,68.5,382.0,74.0" stroke="black" stroke-width="1" fill="none" />
<polyline points="381.0,51.0,357.5,74.5" stroke="black" stroke-width="1" fill="none" />
<polyline points="352.0,72.0,350.0,74.0" stroke="black" stroke-width="1" fill="none" />
<polyline points="345.0,71.0,342.0,74.0,341.5,74.5,339.5,76.5" stroke="black" stroke-width="1" fill="none" />
<polyline points="339.5,83.5,340.0,84.0" stroke="black" stroke-width="1" fill="none" />
<polyline points="330.0,78.0,341.5,66.5,342.5,65.5,359.0,49.0" stroke="black" stroke-width="1" fill="none" />
<polyline points="367.5,48.5,356.0,60.0" stroke="black" stroke-width="1" fill="none" />
<polyline points="357.0,67.0,373.0,51.0" stroke="black" stroke-width="1" fill="none" />
<polyline points="345.0,55.0,325.5,74.5" stroke="black" stroke-width="1" fill="none" />
<polyline points="339.0,83.0,261.0,5.0,264.0,4.5,264.0,285.5,265.5,288.0,275.5,288.0,276.5,288.0,494.5,288.0" stroke="black" stroke-width="1" fill="none" />
<polyline points="496.0,297.5,496.0,301.0" stroke="black" stroke-width="1" fill="none" />
<polyline points="511.5,167.5,344.0,0.0,344.0,0.0,344.0,426.5,344.0,428.0,344.0,436.5" stroke="black" stroke-width="1" fill="none" />
<polyline points="352.0,438.0,352.0,397.0" stroke="black" stroke-width="1" fill="none" />
<polyline points="347.5,388.5,349.0,387.0" stroke="black" stroke-width="1" fill="none" />
<polyline points="345.5,382.5,343.0,385.0" stroke="black" stroke-width="1" fill="none" />
<polyline points="336.0,384.0,336.0,407.5,336.0,409.0,336.0,434.0" stroke="black" stroke-width="1" fill="none" />
<polyline points="336.0,440.5,336.0,444.0,336.0,444.5,336.0,446.0,336.0,447.0,336.0,511.5" stroke="black" stroke-width="1" fill="none" />
<polyline points="392.0,511.5,392.0,0.0" stroke="black" stroke-width="1" fill="none" />
<polyline points="380.0,4.0,376.0,0.0,376.0,0.0,376.0,443.5" stroke="black" stroke-width="1" fill="none" />
<polyline points="376.0,455.0,376.0,511.5" stroke="black" stroke-width="1" fill="none" />
<polyline points="368.0,511.5,368.0,455.0" stroke="black" stroke-width="1" fill="none" />
<polyline points="360.0,455.0,360.0,454.0" stroke="black" stroke-width="1" fill="none" />
<polyline points="360.0,460.0,360.0,511.5" stroke="black" stroke-width="1" fill="none" />
<polyline points="352.0,511.5,352.0,457.0" stroke="black" stroke-width="1" fill="none" />
<polyline points="344.0,454.5,344.0,511.5" stroke="black" stroke-width="1" fill="none" />
<polyline points="326.5,441.5,328.5,439.5" stroke="black" stroke-width="1" fill="none" />
<polyline points="328.0,431.0,328.0,400.0,328.0,398.0,328.0,379.5" stroke="black" stroke-width="1" fill="none" />
<polyline points="330.5,373.5,332.5,371.5" stroke="black" stroke-width="1" fill="none" />
<polyline points="326.5,369.5,330.5,365.5" stroke="black" stroke-width="1" fill="none" />
<polyline points="324.5,363.5,322.5,365.5" stroke="black" stroke-width="1" fill="none" />
<polyline points="319.0,361.0,322.0,358.0" stroke="black" stroke-width="1" fill="none" />
<polyline points="317.0,355.0,315.5,356.5" stroke="black" stroke-width="1" fill="none" />
<polyline points="305.5,358.5,304.0,360.0" stroke="black" stroke-width="1" fill="none" />
<polyline points="320.0,365.5,320.0,0.0,320.0,0.0,415.5,95.5,416.0,96.0,428.0,108.0,429.0,109.0,508.0,188.0" stroke="black" stroke-width="1" fill="none" />
<polyline points="511.5,143.5,368.0,0.0,368.0,0.0,368.0,439.0" stroke="black" stroke-width="1" fill="none" />
<polyline points="360.0,439.0,360.0,437.5" stroke="black" stroke-width="1" fill="none" />
<polyline points="324.5,427.5,323.0,429.0,324.5,428.5,321.0,425.0,321.0,423.0,322.5,421.5" stroke="black" stroke-width="1" fill="none" />
<polyline points="319.0,417.0,320.5,415.5,322.0,418.0,317.5,413.5,318.0,410.0,318.5,409.5" stroke="black" stroke-width="1" fill="none" />
<polyline points="315.5,404.5,316.5,403.5,314.0,402.0,318.0,406.0" stroke="black" stroke-width="1" fill="none" />
<polyline points="313.5,398.5,315.0,397.0,315.0,395.0,311.0,391.0,312.0,392.0,313.5,390.5" stroke="black" stroke-width="1" fill="none" />
<polyline points="310.5,385.5,311.0,385.0,311.5,383.5,308.0,380.0,304.0,378.5,304.0,384.0,304.0,387.0,304.0,418.5,304.0,420.0,304.0,423.0,304.0,425.0,304.0,426.5,304.0,431.5,304.0,511.5" stroke="black" stroke-width="1" fill="none" />
<polyline points="320.0,511.5,320.0,443.0,320.0,438.0,320.0,434.5,320.0,432.0,320.0,394.5,320.0,392.0,320.0,379.5" stroke="black" stroke-width="1" fill="none" />
<polyline points="336.0,382.5,336.0,0.0,336.0,0.0,420.5,84.5,424.0,88.0,424.5,88.5,425.0,89.0,510.5,174.5" stroke="black" stroke-width="1" fill="none" />
<polyline points="511.5,151.5,360.0,0.0,360.0,0.0,360.0,434.5" stroke="black" stroke-width="1" fill="none" />
<polyline points="401.5,385.5,362.0,346.0,361.0,345.0,359.5,343.5,358.5,342.5,351.5,335.5" stroke="black" stroke-width="1" fill="none" />
<polyline points="348.0,340.0,348.5,340.5,349.0,341.0,349.5,341.5,350.5,342.5,362.5,354.5,363.0,355.0,397.0,389.0" stroke="black" stroke-width="1" fill="none" />
<polyline points="388.0,396.0,346.5,354.5,345.0,353.0,340.0,348.0,336.0,344.0,335.5,343.5,339.5,339.5,337.0,337.0" stroke="black" stroke-width="1" fill="none" />
<polyline points="341.5,333.5,342.5,334.5,345.5,337.5,347.5,339.5" stroke="black" stroke-width="1" fill="none" />
<polyline points="343.0,343.0,342.5,342.5,345.5,345.5,354.0,354.0,356.0,356.0,357.5,357.5,358.5,358.5,392.5,392.5" stroke="black" stroke-width="1" fill="none" />
<polyline points="327.5,343.5,326.5,342.5" stroke="black" stroke-width="1" fill="none" />
<polyline points="330.0,298.0,251.0,219.0,253.0,219.0,261.5,210.5,262.0,210.0,274.0,198.0,277.0,197.0,295.0,215.0" stroke="black" stroke-width="1" fill="none" />
<polyline points="301.0,235.0,266.0,270.0" stroke="black" stroke-width="1" fill="none" />
<polyline points="268.5,275.5,302.5,241.5" stroke="black" stroke-width="1" fill="none" />
<polyline points="307.5,252.5,277.0,283.0,281.0,287.0,309.5,258.5" stroke="black" stroke-width="1" fill="none" />
<polyline points="315.0,277.0,285.0,307.0" stroke="black" stroke-width="1" fill="none" />
<polyline points="284.0,300.0,315.0,269.0,311.0,265.0,283.5,292.5,282.0,290.0,310.0,318.0" stroke="black" stroke-width="1" fill="none" />
<polyline points="324.5,308.5,262.5,246.5,264.0,248.0,267.0,245.0,267.5,244.5,294.5,217.5" stroke="black" stroke-width="1" fill="none" />
<polyline points="299.0,229.0,264.5,263.5" stroke="black" stroke-width="1" fill="none" />
<polyline points="259.5,260.5,259.0,261.0" stroke="black" stroke-width="1" fill="none" />
<polyline points="263.5,256.5,269.0,251.0,270.5,249.5,297.0,223.0" stroke="black" stroke-width="1" fill="none" />
<polyline points="290.0,206.0,261.5,234.5" stroke="black" stroke-width="1" fill="none" />
<polyline points="258.5,229.5,287.5,200.5" stroke="black" stroke-width="1" fill="none" />
<polyline points="282.0,198.0,256.0,224.0" stroke="black" stroke-width="1" fill="none" />
<polyline points="250.0,214.0,256.5,207.5,257.0,207.0,267.0,197.0" stroke="black" stroke-width="1" fill="none" />
<polyline points="262.0,194.0,248.0,208.0,247.0,207.0,332.0,292.0" stroke="black" stroke-width="1" fill="none" />
<polyline points="340.0,292.0,241.5,193.5,243.5,196.5,255.5,184.5" stroke="black" stroke-width="1" fill="none" />
<polyline points="258.0,190.0,246.5,201.5" stroke="black" stroke-width="1" fill="none" />
<polyline points="233.5,174.5,247.5,160.5,249.5,158.5,259.0,149.0" stroke="black" stroke-width="1" fill="none" />
<polyline points="229.5,154.5,284.0,100.0" stroke="black" stroke-width="1" fill="none" />
<polyline points="293.0,101.0,294.0,102.0,292.5,100.5,236.5,44.5,239.0,41.0,266.5,13.5" stroke="black" stroke-width="1" fill="none" />
<polyline points="265.0,7.0,267.0,5.0,271.0,7.0,353.5,89.5,354.0,90.0,494.0,230.0" stroke="black" stroke-width="1" fill="none" />
<polyline points="511.5,159.5,352.0,0.0,352.0,0.0,352.0,395.0" stroke="black" stroke-width="1" fill="none" />
<polyline points="328.0,375.0,328.0,0.0,328.0,0.0,417.0,89.0,417.5,89.5,509.0,181.0" stroke="black" stroke-width="1" fill="none" />
<polyline points="507.0,195.0,413.0,101.0,412.0,100.0,312.0,0.0,312.0,0.0,312.0,356.0" stroke="black" stroke-width="1" fill="none" />
<polyline points="304.0,367.5,304.0,0.0,304.0,0.0,407.0,103.0,409.0,105.0,505.5,201.5" stroke="black" stroke-width="1" fill="none" />
<polyline points="502.0,214.0,406.0,118.0,405.0,117.0,402.5,114.5,400.0,112.0,399.5,111.5,397.0,109.0,288.0,0.0,288.0,0.0,288.0,325.0" stroke="black" stroke-width="1" fill="none" />
<polyline points="296.0,338.5,296.0,0.0,296.0,0.0,402.5,106.5" stroke="black" stroke-width="1" fill="none" />
<polyline points="396.5,116.5,398.0,118.0,401.5,121.5,500.0,220.0" stroke="black" stroke-width="1" fill="none" />
<polyline points="497.0,225.0,396.0,124.0" stroke="black" stroke-width="1" fill="none" />
<polyline points="395.0,133.0,390.5,137.5" stroke="black" stroke-width="1" fill="none" />
<polyline points="386.0,134.0,390.5,129.5" stroke="black" stroke-width="1" fill="none" />
<polyline points="388.5,123.5,383.0,129.0" stroke="black" stroke-width="1" fill="none" />
<polyline points="394.5,114.5,280.0,0.0,280.0,0.0,280.0,288.5" stroke="black" stroke-width="1" fill="none" />
<polyline points="272.0,288.5,272.0,286.0,271.5,280.5,304.0,248.0" stroke="black" stroke-width="1" fill="none" />
<polyline points="314.0,234.0,313.5,233.5" stroke="black" stroke-width="1" fill="none" />
<polyline points="318.5,238.5,319.5,239.5" stroke="black" stroke-width="1" fill="none" />
<polyline points="367.0,199.0,367.5,199.5,368.5,200.5,371.5,203.5,373.0,205.0,373.5,205.5" stroke="black" stroke-width="1" fill="none" />
<polyline points="393.5,121.5,279.5,7.5,281.0,7.0,281.5,6.5" stroke="black" stroke-width="1" fill="none" />
<polyline points="288.5,7.5,296.0,0.0" stroke="black" stroke-width="1" fill="none" />
<polyline points="312.0,0.0,234.0,78.0,233.5,78.5,233.0,79.0,231.5,79.5,281.5,129.5" stroke="black" stroke-width="1" fill="none" />
<polyline points="288.5,112.5,286.5,110.5,282.5,109.5,230.5,161.5,229.5,157.5,264.5,192.5" stroke="black" stroke-width="1" fill="none" />
<polyline points="279.0,143.0,229.0,93.0,232.0,96.0,328.0,0.0" stroke="black" stroke-width="1" fill="none" />
<polyline points="368.0,0.0,324.5,43.5" stroke="black" stroke-width="1" fill="none" />
<polyline points="304.0,56.0,360.0,0.0" stroke="black" stroke-width="1" fill="none" />
<polyline points="433.0,23.0,434.5,21.5" stroke="black" stroke-width="1" fill="none" />
<polyline points="436.0,28.0,444.0,20.0" stroke="black" stroke-width="1" fill="none" />
<polyline points="434.5,29.5,434.0,30.0" stroke="black" stroke-width="1" fill="none" />
<polyline points="352.0,0.0,225.0,127.0,224.5,128.5,256.5,160.5" stroke="black" stroke-width="1" fill="none" />
<polyline points="227.5,148.5,285.5,90.5" stroke="black" stroke-width="1" fill="none" />
<polyline points="287.0,81.0,226.5,141.5,226.0,138.0,255.0,167.0" stroke="black" stroke-width="1" fill="none" />
<polyline points="278.0,150.0,230.0,102.0,231.0,105.0,336.0,0.0" stroke="black" stroke-width="1" fill="none" />
<polyline points="344.0,0.0,230.0,114.0,228.0,116.0,227.0,117.0,227.0,115.0,273.5,161.5" stroke="black" stroke-width="1" fill="none" />
<polyline points="284.0,116.0,226.0,58.0,227.0,61.0,230.0,58.0,230.0,54.0,285.5,109.5" stroke="black" stroke-width="1" fill="none" />
<polyline points="290.5,106.5,291.5,107.5" stroke="black" stroke-width="1" fill="none" />
<polyline points="302.0,94.0,306.0,98.0" stroke="black" stroke-width="1" fill="none" />
<polyline points="319.5,95.5,321.0,97.0" stroke="black" stroke-width="1" fill="none" />
<polyline points="333.5,85.5,252.5,4.5,256.0,2.5,256.0,229.5" stroke="black" stroke-width="1" fill="none" />
<polyline points="256.0,246.0,256.0,287.5,254.5,286.5,253.0,285.0" stroke="black" stroke-width="1" fill="none" />
<polyline points="259.5,283.5,261.0,285.0,265.0,281.0,267.0,283.0" stroke="black" stroke-width="1" fill="none" />
<polyline points="254.5,278.5,253.0,277.0" stroke="black" stroke-width="1" fill="none" />
<polyline points="240.5,288.5,241.5,289.5" stroke="black" stroke-width="1" fill="none" />
<polyline points="235.5,291.5,233.0,289.0" stroke="black" stroke-width="1" fill="none" />
<polyline points="227.5,291.5,226.0,290.0" stroke="black" stroke-width="1" fill="none" />
<polyline points="219.5,291.5,218.0,290.0" stroke="black" stroke-width="1" fill="none" />
<polyline points="211.5,291.5,209.0,289.0" stroke="black" stroke-width="1" fill="none" />
<polyline points="203.0,291.0,202.0,290.0" stroke="black" stroke-width="1" fill="none" />
<polyline points="195.5,291.5,194.0,290.0" stroke="black" stroke-width="1" fill="none" />
<polyline points="187.0,291.0,186.0,290.0" stroke="black" stroke-width="1" fill="none" />
<polyline points="179.5,291.5,177.5,289.5" stroke="black" stroke-width="1" fill="none" />
<polyline points="172.0,292.0,169.0,289.0,166.0,290.0,165.5,290.5,163.5,292.5,160.5,295.5,160.0,296.0,162.5,298.5,161.5,302.5,160.0,304.0,159.5,303.5,162.0,306.0,163.5,304.0,157.0,304.0" stroke="black" stroke-width="1" fill="none" />
<polyline points="157.5,312.0,160.5,312.0" stroke="black" stroke-width="1" fill="none" />
<polyline points="148.0,300.0,141.0,293.0,143.5,296.5,148.5,291.5,149.5,293.5,146.0,290.0,143.0,287.0,140.0,284.0,143.5,280.5,144.5,279.5,143.0,279.0,145.5,281.5,146.5,282.5,149.0,285.0,151.5,287.5,154.0,290.0,153.5,286.5,154.5,285.5,155.5,283.5,143.0,271.0,144.0,271.0,144.0,276.0,144.0,277.0,144.0,303.0" stroke="black" stroke-width="1" fill="none" />
<polyline points="152.0,292.5,152.0,258.5,154.5,258.5,157.0,261.0,155.0,261.0,157.0,259.0,161.0,256.0,511.5,256.0" stroke="black" stroke-width="1" fill="none" />
<polyline points="323.0,315.0,255.5,247.5,256.0,248.0,247.5,256.5" stroke="black" stroke-width="1" fill="none" />
<polyline points="252.0,260.0,252.5,259.5" stroke="black" stroke-width="1" fill="none" />
<polyline points="248.0,248.0,239.5,256.5" stroke="black" stroke-width="1" fill="none" />
<polyline points="240.0,248.0,273.5,281.5" stroke="black" stroke-width="1" fill="none" />
<polyline points="262.5,278.5,232.0,248.0,232.0,248.0,223.0,257.0" stroke="black" stroke-width="1" fill="none" />
<polyline points="217.5,254.5,224.0,248.0,224.0,248.0,248.5,272.5" stroke="black" stroke-width="1" fill="none" />
<polyline points="227.5,275.5,227.0,275.0,225.0,273.0,224.0,272.0" stroke="black" stroke-width="1" fill="none" />
<polyline points="214.5,270.5,214.0,270.0" stroke="black" stroke-width="1" fill="none" />
<polyline points="207.5,256.5,216.0,248.0,216.0,248.0,243.0,275.0" stroke="black" stroke-width="1" fill="none" />
<polyline points="229.5,258.5,240.0,248.0,240.0,246.0,240.0,292.0" stroke="black" stroke-width="1" fill="none" />
<polyline points="248.0,289.0,248.0,246.0,247.5,247.5,322.5,322.5" stroke="black" stroke-width="1" fill="none" />
<polyline points="305.0,321.0,283.5,299.5" stroke="black" stroke-width="1" fill="none" />
<polyline points="264.0,297.5,264.0,321.5,264.0,324.5,264.0,326.5" stroke="black" stroke-width="1" fill="none" />
<polyline points="272.0,331.5,272.0,334.5,272.0,335.0,272.0,346.5" stroke="black" stroke-width="1" fill="none" />
<polyline points="272.0,358.5,272.0,362.0,272.0,363.0,272.0,449.5,272.0,452.0,272.0,466.0,272.0,469.5,272.0,477.0,272.0,479.5,272.0,511.5" stroke="black" stroke-width="1" fill="none" />
<polyline points="296.0,511.5,296.0,420.0,296.0,416.5,296.0,412.0,296.0,411.0,296.0,394.5,296.0,392.5,296.0,390.5,296.0,389.5,296.0,389.0" stroke="black" stroke-width="1" fill="none" />
<polyline points="296.0,383.0,296.0,381.0" stroke="black" stroke-width="1" fill="none" />
<polyline points="288.0,390.0,288.0,391.5,288.0,392.0,288.0,394.5,288.0,395.0,288.0,511.5" stroke="black" stroke-width="1" fill="none" />
<polyline points="280.0,511.5,280.0,390.5,280.0,387.0,280.0,382.5" stroke="black" stroke-width="1" fill="none" />
<polyline points="264.0,385.0,264.0,395.0,264.0,397.0,264.0,399.0,264.0,404.0,264.0,405.0,264.0,410.0,264.0,411.0" stroke="black" stroke-width="1" fill="none" />
<polyline points="264.0,382.5,264.0,337.5" stroke="black" stroke-width="1" fill="none" />
<polyline points="280.0,359.5,280.0,361.5" stroke="black" stroke-width="1" fill="none" />
<polyline points="251.5,312.0,511.5,312.0" stroke="black" stroke-width="1" fill="none" />
<polyline points="272.0,282.0,272.0,0.0,272.0,0.0,276.5,4.5" stroke="black" stroke-width="1" fill="none" />
<polyline points="275.0,13.0,241.5,46.5" stroke="black" stroke-width="1" fill="none" />
<polyline points="247.5,48.5,288.0,8.0" stroke="black" stroke-width="1" fill="none" />
<polyline points="304.0,0.0,254.0,50.0,253.5,50.5,229.5,74.5" stroke="black" stroke-width="1" fill="none" />
<polyline points="224.5,71.5,233.0,63.0,237.0,59.0,245.0,51.0" stroke="black" stroke-width="1" fill="none" />
<polyline points="237.5,50.5,233.0,55.0" stroke="black" stroke-width="1" fill="none" />
<polyline points="230.5,46.5,290.0,106.0" stroke="black" stroke-width="1" fill="none" />
<polyline points="302.5,78.5,318.0,94.0" stroke="black" stroke-width="1" fill="none" />
<polyline points="296.5,63.5,226.0,134.0" stroke="black" stroke-width="1" fill="none" />
<polyline points="226.5,146.5,254.0,174.0" stroke="black" stroke-width="1" fill="none" />
<polyline points="280.0,136.0,229.0,85.0,231.0,89.0,320.0,0.0" stroke="black" stroke-width="1" fill="none" />
<polyline points="267.0,0.0,511.5,0.0" stroke="black" stroke-width="1" fill="none" />
<polyline points="261.5,10.5,246.0,26.0,244.5,27.5,244.0,28.0,241.0,31.0,239.0,33.0,235.5,36.5,235.0,37.0,239.0,39.0,299.0,99.0" stroke="black" stroke-width="1" fill="none" />
<polyline points="328.5,88.5,250.0,10.0,249.5,8.0,511.5,8.0" stroke="black" stroke-width="1" fill="none" />
<polyline points="255.0,9.0,246.5,17.5,246.0,18.0,241.0,23.0,240.0,24.0,313.0,97.0" stroke="black" stroke-width="1" fill="none" />
<polyline points="325.0,93.0,247.0,15.0,243.5,16.0,511.5,16.0" stroke="black" stroke-width="1" fill="none" />
<polyline points="302.0,78.0,243.0,19.0,240.0,21.5,240.0,193.5" stroke="black" stroke-width="1" fill="none" />
<polyline points="262.0,158.0,225.0,121.0,224.0,120.5,224.0,136.5" stroke="black" stroke-width="1" fill="none" />
<polyline points="229.0,109.0,277.5,157.5" stroke="black" stroke-width="1" fill="none" />
<polyline points="301.0,93.0,235.5,27.5" stroke="black" stroke-width="1" fill="none" />
<polyline points="232.5,32.5,238.5,38.5,234.5,42.5,230.0,38.0" stroke="black" stroke-width="1" fill="none" />
<polyline points="228.0,44.0,228.5,44.5" stroke="black" stroke-width="1" fill="none" />
<polyline points="224.0,55.0,224.0,83.5,224.5,80.5,227.0,83.0,231.0,79.0,220.5,68.5" stroke="black" stroke-width="1" fill="none" />
<polyline points="225.0,65.0,283.5,123.5" stroke="black" stroke-width="1" fill="none" />
<polyline points="224.0,64.0,223.5,63.5" stroke="black" stroke-width="1" fill="none" />
<polyline points="224.0,54.0,224.0,21.5" stroke="black" stroke-width="1" fill="none" />
<polyline points="232.0,22.0,232.0,176.0" stroke="black" stroke-width="1" fill="none" />
<polyline points="198.5,184.0,511.5,184.0" stroke="black" stroke-width="1" fill="none" />
<polyline points="248.0,217.0,248.0,10.5" stroke="black" stroke-width="1" fill="none" />
<polyline points="240.0,9.0,240.0,12.5,241.0,16.0,233.0,16.0" stroke="black" stroke-width="1" fill="none" />
<polyline points="237.5,8.0,242.0,8.0" stroke="black" stroke-width="1" fill="none" />
<polyline points="243.5,0.0,245.5,0.0,250.0,0.0,256.0,0.0" stroke="black" stroke-width="1" fill="none" />
<polyline points="237.5,0.0,237.0,0.0" stroke="black" stroke-width="1" fill="none" />
<polyline points="225.5,0.0,223.5,0.0" stroke="black" stroke-width="1" fill="none" />
<polyline points="216.0,3.5,216.0,16.0" stroke="black" stroke-width="1" fill="none" />
<polyline points="218.5,10.5,216.0,8.0" stroke="black" stroke-width="1" fill="none" />
<polyline points="208.0,8.5,208.0,15.5,204.0,12.0,201.5,14.5,199.5,15.5,197.0,13.0" stroke="black" stroke-width="1" fill="none" />
<polyline points="200.0,8.0,207.0,15.0" stroke="black" stroke-width="1" fill="none" />
<polyline points="208.0,23.0,208.0,74.5" stroke="black" stroke-width="1" fill="none" />
<polyline points="216.0,65.5,216.0,22.5" stroke="black" stroke-width="1" fill="none" />
<polyline points="200.0,23.0,200.0,74.5" stroke="black" stroke-width="1" fill="none" />
<polyline points="192.0,74.5,192.0,23.0" stroke="black" stroke-width="1" fill="none" />
<polyline points="192.0,15.5,192.0,4.5,190.0,6.0,189.5,5.5,189.5,0.0,191.5,0.0,195.5,0.0,201.0,0.0,203.5,0.0,220.0,0.0" stroke="black" stroke-width="1" fill="none" />
<polyline points="209.5,1.5,208.0,0.0,208.0,0.0,208.0,7.5" stroke="black" stroke-width="1" fill="none" />
<polyline points="200.0,3.5,200.0,17.0" stroke="black" stroke-width="1" fill="none" />
<polyline points="191.0,15.0,181.5,5.5,179.0,5.0,176.5,7.5,175.0,7.0,184.0,16.0" stroke="black" stroke-width="1" fill="none" />
<polyline points="179.5,12.5,181.0,11.0" stroke="black" stroke-width="1" fill="none" />
<polyline points="175.5,15.5,173.5,13.5,171.5,16.0,221.0,16.0" stroke="black" stroke-width="1" fill="none" />
<polyline points="184.0,22.0,184.0,74.5" stroke="black" stroke-width="1" fill="none" />
<polyline points="176.0,74.5,176.0,23.5" stroke="black" stroke-width="1" fill="none" />
<polyline points="176.0,16.5,176.0,2.5,174.0,0.0,179.0,0.0" stroke="black" stroke-width="1" fill="none" />
<polyline points="184.0,4.5,184.0,19.0" stroke="black" stroke-width="1" fill="none" />
<polyline points="168.0,23.5,168.0,74.5" stroke="black" stroke-width="1" fill="none" />
<polyline points="160.0,74.5,160.0,24.0" stroke="black" stroke-width="1" fill="none" />
<polyline points="152.0,24.0,152.0,74.5" stroke="black" stroke-width="1" fill="none" />
<polyline points="144.0,62.5,144.0,24.5" stroke="black" stroke-width="1" fill="none" />
<polyline points="144.0,32.0,146.5,34.5" stroke="black" stroke-width="1" fill="none" />
<polyline points="136.0,38.5,136.0,25.0" stroke="black" stroke-width="1" fill="none" />
<polyline points="131.5,32.0,511.5,32.0" stroke="black" stroke-width="1" fill="none" />
<polyline points="511.5,368.0,103.0,368.0" stroke="black" stroke-width="1" fill="none" />
<polyline points="99.0,376.0,511.5,376.0" stroke="black" stroke-width="1" fill="none" />
<polyline points="511.5,504.0,0.0,504.0" stroke="black" stroke-width="1" fill="none" />
<polyline points="0.0,511.5,0.0,486.5,0.0,488.0,511.5,488.0" stroke="black" stroke-width="1" fill="none" />
<polyline points="256.0,477.5,256.0,511.5" stroke="black" stroke-width="1" fill="none" />
<polyline points="256.0,475.5,256.0,472.0" stroke="black" stroke-width="1" fill="none" />
<polyline points="248.0,452.5,248.0,511.5" stroke="black" stroke-width="1" fill="none" />
<polyline points="240.0,511.5,240.0,453.5" stroke="black" stroke-width="1" fill="none" />
<polyline points="240.0,446.0,240.0,444.0" stroke="black" stroke-width="1" fill="none" />
<polyline points="248.0,444.0,248.0,446.0,248.0,449.5,248.0,451.0" stroke="black" stroke-width="1" fill="none" />
<polyline points="232.0,452.5,232.0,457.5,232.0,459.5,232.0,464.5,232.0,466.5,232.0,511.5" stroke="black" stroke-width="1" fill="none" />
<polyline points="224.0,511.5,224.0,467.0,224.0,466.0,224.0,456.0,224.0,455.0,224.0,448.0" stroke="black" stroke-width="1" fill="none" />
<polyline points="232.0,446.5,232.0,450.5" stroke="black" stroke-width="1" fill="none" />
<polyline points="240.0,434.5,240.0,434.0" stroke="black" stroke-width="1" fill="none" />
<polyline points="232.0,431.5,232.0,439.5" stroke="black" stroke-width="1" fill="none" />
<polyline points="224.0,435.5,224.0,433.0" stroke="black" stroke-width="1" fill="none" />
<polyline points="216.0,433.5,216.0,464.0,216.0,467.0,216.0,511.5" stroke="black" stroke-width="1" fill="none" />
<polyline points="208.0,511.5,208.0,445.0,208.0,444.0,208.0,443.0" stroke="black" stroke-width="1" fill="none" />
<polyline points="200.0,445.5,200.0,446.0,200.0,446.5,200.0,511.5" stroke="black" stroke-width="1" fill="none" />
<polyline points="143.5,511.5,142.5,510.5" stroke="black" stroke-width="1" fill="none" />
<polyline points="134.5,510.5,132.5,508.5,131.0,507.0,130.0,506.0,129.5,505.5,129.0,505.0" stroke="black" stroke-width="1" fill="none" />
<polyline points="127.0,511.0,127.5,511.5" stroke="black" stroke-width="1" fill="none" />
<polyline points="132.5,492.5,131.5,491.5" stroke="black" stroke-width="1" fill="none" />
<polyline points="103.5,511.5,102.5,510.5" stroke="black" stroke-width="1" fill="none" />
<polyline points="95.5,511.5,95.0,511.0,93.5,509.5,93.0,509.0" stroke="black" stroke-width="1" fill="none" />
<polyline points="128.0,511.5,128.0,424.0" stroke="black" stroke-width="1" fill="none" />
<polyline points="136.0,423.0,136.0,511.5" stroke="black" stroke-width="1" fill="none" />
<polyline points="192.0,511.5,192.0,455.0" stroke="black" stroke-width="1" fill="none" />
<polyline points="200.0,439.5,200.0,436.5" stroke="black" stroke-width="1" fill="none" />
<polyline points="192.0,432.5,192.0,453.5" stroke="black" stroke-width="1" fill="none" />
<polyline points="192.0,431.0,192.0,429.0,192.0,425.5,192.0,424.0,192.0,423.5,192.0,423.0" stroke="black" stroke-width="1" fill="none" />
<polyline points="184.0,413.0,184.0,511.5" stroke="black" stroke-width="1" fill="none" />
<polyline points="176.0,511.5,176.0,419.5" stroke="black" stroke-width="1" fill="none" />
<polyline points="168.0,413.5,168.0,511.5" stroke="black" stroke-width="1" fill="none" />
<polyline points="160.0,511.5,160.0,420.0,160.0,419.0,160.0,416.0,160.0,414.0,160.0,407.5,160.0,405.0,160.0,404.0" stroke="black" stroke-width="1" fill="none" />
<polyline points="168.0,410.0,168.0,413.0" stroke="black" stroke-width="1" fill="none" />
<polyline points="176.0,403.5,176.0,401.5,176.0,397.0,176.0,395.0" stroke="black" stroke-width="1" fill="none" />
<polyline points="168.0,394.5,168.0,398.5" stroke="black" stroke-width="1" fill="none" />
<polyline points="168.0,386.5,168.0,384.5,168.0,384.0,168.0,383.5" stroke="black" stroke-width="1" fill="none" />
<polyline points="184.0,383.5,184.0,386.0,184.0,388.5,184.0,391.0" stroke="black" stroke-width="1" fill="none" />
<polyline points="216.0,409.0,216.0,409.5" stroke="black" stroke-width="1" fill="none" />
<polyline points="152.0,414.0,152.0,415.0,152.0,419.0,152.0,434.0,152.0,435.0,152.0,511.5" stroke="black" stroke-width="1" fill="none" />
<polyline points="144.0,511.5,144.0,434.0" stroke="black" stroke-width="1" fill="none" />
<polyline points="128.0,401.5,128.0,399.0" stroke="black" stroke-width="1" fill="none" />
<polyline points="136.0,385.5,136.0,383.5" stroke="black" stroke-width="1" fill="none" />
<polyline points="128.0,379.0,128.0,394.5" stroke="black" stroke-width="1" fill="none" />
<polyline points="120.0,379.0,120.0,511.5" stroke="black" stroke-width="1" fill="none" />
<polyline points="112.0,511.5,112.0,380.5" stroke="black" stroke-width="1" fill="none" />
<polyline points="104.0,385.5,104.0,511.5" stroke="black" stroke-width="1" fill="none" />
<polyline points="96.0,511.5,96.0,394.0" stroke="black" stroke-width="1" fill="none" />
<polyline points="88.5,392.0,511.5,392.0" stroke="black" stroke-width="1" fill="none" />
<polyline points="511.5,496.0,0.0,496.0" stroke="black" stroke-width="1" fill="none" />
<polyline points="0.0,480.0,511.5,480.0" stroke="black" stroke-width="1" fill="none" />
<polyline points="511.5,472.0,0.0,472.0,0.0,472.5,0.0,470.0" stroke="black" stroke-width="1" fill="none" />
<polyline points="0.0,464.0,511.5,464.0" stroke="black" stroke-width="1" fill="none" />
<polyline points="511.5,456.0,0.0,456.0" stroke="black" stroke-width="1" fill="none" />
<polyline points="0.0,448.0,511.5,448.0" stroke="black" stroke-width="1" fill="none" />
<polyline points="511.5,440.0,16.0,440.0" stroke="black" stroke-width="1" fill="none" />
<polyline points="22.0,432.0,52.0,432.0,57.5,432.0,511.5,432.0" stroke="black" stroke-width="1" fill="none" />
<polyline points="511.5,424.0,69.0,424.0" stroke="black" stroke-width="1" fill="none" />
<polyline points="61.0,424.0,51.5,424.0,50.0,424.0,30.5,424.0" stroke="black" stroke-width="1" fill="none" />
<polyline points="39.0,416.0,56.5,416.0" stroke="black" stroke-width="1" fill="none" />
<polyline points="57.0,408.0,59.5,408.0,61.0,408.0,64.5,408.0" stroke="black" stroke-width="1" fill="none" />
<polyline points="72.0,416.0,511.5,416.0" stroke="black" stroke-width="1" fill="none" />
<polyline points="511.5,408.0,77.0,408.0" stroke="black" stroke-width="1" fill="none" />
<polyline points="83.5,400.0,511.5,400.0" stroke="black" stroke-width="1" fill="none" />
<polyline points="511.5,384.0,94.5,384.0" stroke="black" stroke-width="1" fill="none" />
<polyline points="83.5,376.0,70.0,376.0,65.5,376.0,65.0,376.0" stroke="black" stroke-width="1" fill="none" />
<polyline points="58.0,374.0,63.5,368.5,63.5,367.5,65.5,369.5,61.5,373.5,57.5,369.5,57.0,375.0,56.0,376.0,55.0,375.0,57.0,377.0" stroke="black" stroke-width="1" fill="none" />
<polyline points="52.5,380.5,50.0,378.0,49.5,377.5,47.0,375.0,43.5,376.0,59.5,376.0" stroke="black" stroke-width="1" fill="none" />
<polyline points="52.5,372.5,52.0,372.0,49.5,369.5,47.5,367.5" stroke="black" stroke-width="1" fill="none" />
<polyline points="50.5,362.5,48.5,360.5,45.5,360.0,74.5,360.0,72.0,360.0,71.5,359.5" stroke="black" stroke-width="1" fill="none" />
<polyline points="68.5,364.5,70.5,366.5,72.0,365.0,72.0,348.5,74.0,350.0,72.0,352.0,74.0,354.0,69.5,349.5,66.5,349.5,64.5,351.5,64.0,348.5,64.0,371.0" stroke="black" stroke-width="1" fill="none" />
<polyline points="56.0,377.5,56.0,348.5,58.5,349.5,56.0,352.0,53.0,349.0,59.0,355.0" stroke="black" stroke-width="1" fill="none" />
<polyline points="61.5,349.5,67.0,355.0" stroke="black" stroke-width="1" fill="none" />
<polyline points="70.0,338.0,76.5,331.5" stroke="black" stroke-width="1" fill="none" />
<polyline points="73.5,326.5,75.0,325.0,72.0,324.5,72.0,340.0" stroke="black" stroke-width="1" fill="none" />
<polyline points="61.5,338.5,71.5,328.5,69.0,325.0,76.5,332.5" stroke="black" stroke-width="1" fill="none" />
<polyline points="67.0,325.0,65.0,327.0,64.0,328.0,58.5,333.5,58.0,334.0,53.5,338.5" stroke="black" stroke-width="1" fill="none" />
<polyline points="50.5,333.5,56.0,328.0,57.5,326.5,59.0,325.0,61.0,325.0,75.0,339.0" stroke="black" stroke-width="1" fill="none" />
<polyline points="59.0,339.0,45.0,325.0,43.0,325.0,41.5,326.5,40.0,328.0,29.0,339.0" stroke="black" stroke-width="1" fill="none" />
<polyline points="36.0,340.0,39.5,336.5,42.5,333.5,48.0,328.0,49.0,327.0,51.0,325.0,53.0,325.0,67.0,339.0,64.0,340.0,64.0,324.5" stroke="black" stroke-width="1" fill="none" />
<polyline points="56.0,324.5,56.0,340.0" stroke="black" stroke-width="1" fill="none" />
<polyline points="51.0,349.0,49.0,351.0,49.0,353.0,51.5,355.5,48.0,354.5,48.0,384.0,47.0,383.0,44.5,380.5,40.0,381.0,40.0,384.0,39.0,383.0,38.0,382.0" stroke="black" stroke-width="1" fill="none" />
<polyline points="32.0,381.0,32.0,384.0,31.0,383.0,29.5,381.5" stroke="black" stroke-width="1" fill="none" />
<polyline points="24.0,380.0,24.0,407.0,20.0,404.0,19.5,404.5,19.0,403.0,22.5,406.5" stroke="black" stroke-width="1" fill="none" />
<polyline points="17.0,409.0,11.0,403.0,9.0,407.0,8.5,407.5,8.5,408.5,5.5,405.5,1.0,407.0,0.5,407.5,0.0,408.0,24.0,408.0" stroke="black" stroke-width="1" fill="none" />
<polyline points="15.0,399.0,12.0,396.0,8.0,396.5,8.0,409.5" stroke="black" stroke-width="1" fill="none" />
<polyline points="0.5,408.5,0.0,408.0,0.0,409.5,0.0,395.0,0.0,392.0,40.5,392.0" stroke="black" stroke-width="1" fill="none" />
<polyline points="47.0,400.0,65.5,400.0" stroke="black" stroke-width="1" fill="none" />
<polyline points="72.0,392.0,52.5,392.0" stroke="black" stroke-width="1" fill="none" />
<polyline points="60.0,384.0,66.0,384.0" stroke="black" stroke-width="1" fill="none" />
<polyline points="50.0,384.0,0.0,384.0,0.0,384.0,0.0,381.5,1.0,377.0,0.0,376.0,0.0,376.0,25.5,376.0" stroke="black" stroke-width="1" fill="none" />
<polyline points="24.5,368.5,22.0,366.0,18.0,370.0,15.0,367.0,15.0,369.0,14.5,369.5,10.0,370.0,0.0,360.0,0.0,360.0,27.5,360.0,25.0,361.0,0.0,336.0,0.0,336.0,77.5,336.0" stroke="black" stroke-width="1" fill="none" />
<polyline points="47.5,336.5,45.5,338.5" stroke="black" stroke-width="1" fill="none" />
<polyline points="42.0,346.0,20.5,324.5,19.5,324.5,2.5,341.5,0.0,344.0,76.5,344.0" stroke="black" stroke-width="1" fill="none" />
<polyline points="79.0,368.0,83.0,368.0,84.5,368.0,87.5,368.0" stroke="black" stroke-width="1" fill="none" />
<polyline points="70.0,368.0,30.5,368.0" stroke="black" stroke-width="1" fill="none" />
<polyline points="24.0,371.5,24.0,324.5,27.5,324.5,7.5,344.5" stroke="black" stroke-width="1" fill="none" />
<polyline points="3.0,349.0,2.5,349.5,0.0,352.0,75.5,352.0" stroke="black" stroke-width="1" fill="none" />
<polyline points="51.0,339.0,37.0,325.0,35.5,324.5,33.0,327.0,32.0,328.0,19.5,340.5" stroke="black" stroke-width="1" fill="none" />
<polyline points="26.5,349.5,26.0,350.0,25.5,353.5,0.0,328.0,0.0,328.0,79.0,328.0" stroke="black" stroke-width="1" fill="none" />
<polyline points="48.0,324.5,48.0,340.0,43.5,339.5,29.0,325.0,32.0,324.5,32.0,351.0,30.0,350.0,4.5,324.5,3.5,324.5,0.0,328.0,0.0,323.0,0.0,370.5,1.0,369.0,0.0,368.0,0.0,368.0,27.0,368.0" stroke="black" stroke-width="1" fill="none" />
<polyline points="20.5,364.5,0.0,344.0" stroke="black" stroke-width="1" fill="none" />
<polyline points="0.0,336.0,11.5,324.5,12.5,324.5,39.0,351.0,42.0,350.0,42.5,349.5,45.5,349.5,47.5,351.5,48.0,352.5,48.0,348.0" stroke="black" stroke-width="1" fill="none" />
<polyline points="40.0,352.0,40.0,324.5" stroke="black" stroke-width="1" fill="none" />
<polyline points="16.0,324.0,16.0,372.5,16.0,374.5,16.0,377.5,16.0,382.0,16.0,410.0" stroke="black" stroke-width="1" fill="none" />
<polyline points="9.5,424.0,0.0,424.0,0.0,429.0,0.0,432.5,0.0,432.0,2.5,432.0" stroke="black" stroke-width="1" fill="none" />
<polyline points="2.0,440.0,5.0,440.0" stroke="black" stroke-width="1" fill="none" />
<polyline points="0.0,416.0,16.0,416.0" stroke="black" stroke-width="1" fill="none" />
<polyline points="0.0,400.0,32.0,400.0" stroke="black" stroke-width="1" fill="none" />
<polyline points="19.0,387.0,18.5,386.5,17.0,385.0,15.0,383.0" stroke="black" stroke-width="1" fill="none" />
<polyline points="13.5,389.5,15.0,391.0" stroke="black" stroke-width="1" fill="none" />
<polyline points="8.0,392.0,8.0,388.5,7.0,391.0,5.0,389.0,0.0,388.0,0.0,391.0" stroke="black" stroke-width="1" fill="none" />
<polyline points="7.5,383.5,6.5,382.5,8.0,381.5,8.0,384.5" stroke="black" stroke-width="1" fill="none" />
<polyline points="9.0,377.0,8.0,376.0,8.0,375.5,8.0,378.0" stroke="black" stroke-width="1" fill="none" />
<polyline points="8.0,371.0,8.0,324.0" stroke="black" stroke-width="1" fill="none" />
<polyline points="0.0,320.0,19.0,320.0" stroke="black" stroke-width="1" fill="none" />
<polyline points="24.0,306.0,24.0,303.0" stroke="black" stroke-width="1" fill="none" />
<polyline points="14.0,302.0,4.5,292.5,4.0,292.0,2.0,290.0,0.0,288.0,34.0,288.0" stroke="black" stroke-width="1" fill="none" />
<polyline points="34.0,296.0,0.0,296.0,0.0,296.0,1.0,297.0" stroke="black" stroke-width="1" fill="none" />
<polyline points="0.0,304.0,32.0,304.0" stroke="black" stroke-width="1" fill="none" />
<polyline points="16.0,311.0,16.0,292.0" stroke="black" stroke-width="1" fill="none" />
<polyline points="8.0,284.0,8.0,314.5" stroke="black" stroke-width="1" fill="none" />
<polyline points="0.0,315.0,0.0,282.0,0.0,280.0,25.5,280.0,28.0,280.0,31.0,280.0" stroke="black" stroke-width="1" fill="none" />
<polyline points="19.5,272.0,6.5,272.0" stroke="black" stroke-width="1" fill="none" />
<polyline points="6.5,264.0,10.5,264.0" stroke="black" stroke-width="1" fill="none" />
<polyline points="3.5,256.0,0.0,256.0" stroke="black" stroke-width="1" fill="none" />
<polyline points="0.0,248.0,9.5,248.0" stroke="black" stroke-width="1" fill="none" />
<polyline points="0.0,243.5,0.0,239.5,0.0,240.0,34.5,240.0" stroke="black" stroke-width="1" fill="none" />
<polyline points="0.0,232.0,90.5,232.0" stroke="black" stroke-width="1" fill="none" />
<polyline points="88.5,240.0,87.5,240.0" stroke="black" stroke-width="1" fill="none" />
<polyline points="117.5,224.0,511.5,224.0" stroke="black" stroke-width="1" fill="none" />
<polyline points="511.5,360.0,110.0,360.0" stroke="black" stroke-width="1" fill="none" />
<polyline points="116.5,352.0,511.5,352.0" stroke="black" stroke-width="1" fill="none" />
<polyline points="511.5,344.0,125.0,344.0" stroke="black" stroke-width="1" fill="none" />
<polyline points="128.0,374.0,128.0,377.0" stroke="black" stroke-width="1" fill="none" />
<polyline points="157.0,336.0,174.0,336.0" stroke="black" stroke-width="1" fill="none" />
<polyline points="170.5,328.0,170.0,328.0" stroke="black" stroke-width="1" fill="none" />
<polyline points="183.5,336.0,511.5,336.0" stroke="black" stroke-width="1" fill="none" />
<polyline points="511.5,328.0,195.0,328.0" stroke="black" stroke-width="1" fill="none" />
<polyline points="204.5,320.0,511.5,320.0" stroke="black" stroke-width="1" fill="none" />
<polyline points="511.5,304.0,253.5,304.0,249.0,304.0,248.5,304.0" stroke="black" stroke-width="1" fill="none" />
<polyline points="250.5,312.0,251.0,312.0,250.0,312.0,245.0,312.0,243.5,312.0,211.5,312.0" stroke="black" stroke-width="1" fill="none" />
<polyline points="229.0,304.0,243.5,304.0" stroke="black" stroke-width="1" fill="none" />
<polyline points="257.0,296.0,257.5,296.0,260.0,296.0,509.5,296.0" stroke="black" stroke-width="1" fill="none" />
<polyline points="233.5,273.5,208.0,248.0,208.0,248.0,201.0,255.0" stroke="black" stroke-width="1" fill="none" />
<polyline points="199.5,248.5,194.0,254.0" stroke="black" stroke-width="1" fill="none" />
<polyline points="192.0,248.0,185.0,255.0" stroke="black" stroke-width="1" fill="none" />
<polyline points="183.5,248.5,177.0,255.0" stroke="black" stroke-width="1" fill="none" />
<polyline points="170.5,253.5,175.5,248.5,175.5,247.5,195.0,267.0" stroke="black" stroke-width="1" fill="none" />
<polyline points="178.5,274.5,163.5,259.5,164.5,259.5,166.0,258.0,167.0,257.0,167.5,256.5" stroke="black" stroke-width="1" fill="none" />
<polyline points="164.5,251.5,167.5,248.5,168.0,248.0,187.5,267.5" stroke="black" stroke-width="1" fill="none" />
<polyline points="177.5,281.5,162.5,266.5,164.5,267.5,163.0,269.0,162.0,274.0,169.0,281.0" stroke="black" stroke-width="1" fill="none" />
<polyline points="165.5,285.5,161.5,281.5,160.0,282.0,160.0,311.5" stroke="black" stroke-width="1" fill="none" />
<polyline points="164.0,292.0,160.5,288.5" stroke="black" stroke-width="1" fill="none" />
<polyline points="153.5,278.5,155.0,277.0,155.5,275.5,153.0,273.0,154.5,269.5,155.5,268.5,156.5,268.5,154.0,266.0" stroke="black" stroke-width="1" fill="none" />
<polyline points="144.5,271.5,142.0,274.0,140.5,276.5,136.0,272.0" stroke="black" stroke-width="1" fill="none" />
<polyline points="133.5,277.5,138.0,282.0" stroke="black" stroke-width="1" fill="none" />
<polyline points="136.0,288.0,136.5,288.5,136.0,290.5,136.0,252.5" stroke="black" stroke-width="1" fill="none" />
<polyline points="144.0,254.0,144.0,268.5" stroke="black" stroke-width="1" fill="none" />
<polyline points="142.0,262.0,141.0,261.0" stroke="black" stroke-width="1" fill="none" />
<polyline points="152.0,249.5,152.0,245.5" stroke="black" stroke-width="1" fill="none" />
<polyline points="160.0,245.5,160.0,250.0,161.0,249.0,160.5,248.5,163.5,251.5,181.0,269.0" stroke="black" stroke-width="1" fill="none" />
<polyline points="183.5,247.5,205.0,269.0" stroke="black" stroke-width="1" fill="none" />
<polyline points="213.0,269.0,191.5,247.5,192.0,245.5,192.0,292.0" stroke="black" stroke-width="1" fill="none" />
<polyline points="219.5,267.5,200.0,248.0,200.0,246.0,200.0,292.0" stroke="black" stroke-width="1" fill="none" />
<polyline points="232.0,292.0,232.0,246.0" stroke="black" stroke-width="1" fill="none" />
<polyline points="224.0,246.0,224.0,292.0" stroke="black" stroke-width="1" fill="none" />
<polyline points="216.0,292.0,216.0,246.0" stroke="black" stroke-width="1" fill="none" />
<polyline points="208.0,246.0,208.0,292.0" stroke="black" stroke-width="1" fill="none" />
<polyline points="184.0,292.0,184.0,245.5" stroke="black" stroke-width="1" fill="none" />
<polyline points="176.0,245.5,176.0,292.0" stroke="black" stroke-width="1" fill="none" />
<polyline points="168.0,292.0,168.0,245.5" stroke="black" stroke-width="1" fill="none" />
<polyline points="160.0,256.0,124.0,256.0" stroke="black" stroke-width="1" fill="none" />
<polyline points="124.5,248.0,511.5,248.0" stroke="black" stroke-width="1" fill="none" />
<polyline points="253.0,288.0,125.0,288.0" stroke="black" stroke-width="1" fill="none" />
<polyline points="124.0,280.0,469.5,280.0" stroke="black" stroke-width="1" fill="none" />
<polyline points="511.0,272.0,124.0,272.0" stroke="black" stroke-width="1" fill="none" />
<polyline points="123.5,264.0,511.5,264.0" stroke="black" stroke-width="1" fill="none" />
<polyline points="511.5,240.0,123.5,240.0" stroke="black" stroke-width="1" fill="none" />
<polyline points="121.5,232.0,511.5,232.0" stroke="black" stroke-width="1" fill="none" />
<polyline points="511.5,216.0,121.0,216.0" stroke="black" stroke-width="1" fill="none" />
<polyline points="128.5,208.0,132.5,208.0" stroke="black" stroke-width="1" fill="none" />
<polyline points="168.5,208.0,170.5,208.0,173.5,208.0,511.5,208.0" stroke="black" stroke-width="1" fill="none" />
<polyline points="511.5,200.0,189.5,200.0" stroke="black" stroke-width="1" fill="none" />
<polyline points="190.0,192.0,511.5,192.0" stroke="black" stroke-width="1" fill="none" />
<polyline points="511.5,176.0,185.5,176.0" stroke="black" stroke-width="1" fill="none" />
<polyline points="187.5,168.0,511.5,168.0" stroke="black" stroke-width="1" fill="none" />
<polyline points="511.5,160.0,177.5,160.0" stroke="black" stroke-width="1" fill="none" />
<polyline points="171.5,152.0,511.5,152.0" stroke="black" stroke-width="1" fill="none" />
<polyline points="169.0,152.0,161.5,152.0,159.5,152.0,158.5,152.0" stroke="black" stroke-width="1" fill="none" />
<polyline points="113.5,72.0,511.5,72.0" stroke="black" stroke-width="1" fill="none" />
<polyline points="511.5,144.0,0.0,144.0" stroke="black" stroke-width="1" fill="none" />
<polyline points="0.0,136.0,511.5,136.0" stroke="black" stroke-width="1" fill="none" />
<polyline points="511.5,128.0,0.0,128.0" stroke="black" stroke-width="1" fill="none" />
<polyline points="0.0,120.0,511.5,120.0" stroke="black" stroke-width="1" fill="none" />
<polyline points="511.5,112.0,0.0,112.0" stroke="black" stroke-width="1" fill="none" />
<polyline points="0.0,104.0,511.5,104.0" stroke="black" stroke-width="1" fill="none" />
<polyline points="511.5,96.0,0.0,96.0" stroke="black" stroke-width="1" fill="none" />
<polyline points="0.0,88.0,511.5,88.0" stroke="black" stroke-width="1" fill="none" />
<polyline points="511.5,80.0,90.5,80.0,89.5,80.0,75.5,80.0,74.0,80.0,69.5,80.0,66.0,80.0,64.0,80.0" stroke="black" stroke-width="1" fill="none" />
<polyline points="54.0,80.0,50.5,80.0" stroke="black" stroke-width="1" fill="none" />
<polyline points="43.5,80.0,34.5,80.0" stroke="black" stroke-width="1" fill="none" />
<polyline points="36.5,72.0,32.0,72.0" stroke="black" stroke-width="1" fill="none" />
<polyline points="29.0,64.0,28.5,64.0" stroke="black" stroke-width="1" fill="none" />
<polyline points="25.0,80.0,23.5,80.0" stroke="black" stroke-width="1" fill="none" />
<polyline points="0.0,152.0,47.5,152.0,48.0,152.0,48.5,152.0,50.0,152.0,50.5,152.0,51.5,152.0,52.5,152.0" stroke="black" stroke-width="1" fill="none" />
<polyline points="60.0,200.0,0.0,200.0" stroke="black" stroke-width="1" fill="none" />
<polyline points="0.0,192.0,41.0,192.0" stroke="black" stroke-width="1" fill="none" />
<polyline points="77.0,208.0,0.0,208.0" stroke="black" stroke-width="1" fill="none" />
<polyline points="0.0,216.0,89.5,216.0" stroke="black" stroke-width="1" fill="none" />
<polyline points="126.5,296.0,164.5,296.0" stroke="black" stroke-width="1" fill="none" />
<polyline points="153.0,304.0,130.0,304.0" stroke="black" stroke-width="1" fill="none" />
<polyline points="43.5,360.0,35.0,360.0" stroke="black" stroke-width="1" fill="none" />
<polyline points="40.5,376.0,42.5,376.0" stroke="black" stroke-width="1" fill="none" />
<polyline points="7.5,368.5,6.5,369.5" stroke="black" stroke-width="1" fill="none" />
<polyline points="14.0,366.0,1.5,353.5" stroke="black" stroke-width="1" fill="none" />
<polyline points="0.0,375.5,0.0,377.5" stroke="black" stroke-width="1" fill="none" />
<polyline points="0.0,312.0,27.5,312.0" stroke="black" stroke-width="1" fill="none" />
<polyline points="0.0,224.0,91.5,224.0" stroke="black" stroke-width="1" fill="none" />
<polyline points="30.5,184.0,0.0,184.0" stroke="black" stroke-width="1" fill="none" />
<polyline points="0.0,176.0,29.0,176.0" stroke="black" stroke-width="1" fill="none" />
<polyline points="22.0,168.0,0.0,168.0" stroke="black" stroke-width="1" fill="none" />
<polyline points="0.0,160.0,19.0,160.0" stroke="black" stroke-width="1" fill="none" />
<polyline points="124.5,64.0,511.5,64.0" stroke="black" stroke-width="1" fill="none" />
<polyline points="511.5,56.0,133.0,56.0,130.5,56.0,125.0,56.0" stroke="black" stroke-width="1" fill="none" />
<polyline points="125.0,48.0,125.5,48.0" stroke="black" stroke-width="1" fill="none" />
<polyline points="132.5,48.0,511.5,48.0" stroke="black" stroke-width="1" fill="none" />
<polyline points="511.5,40.0,133.5,40.0" stroke="black" stroke-width="1" fill="none" />
<polyline points="154.5,0.0,158.5,0.0" stroke="black" stroke-width="1" fill="none" />
<polyline points="171.5,8.0,225.5,8.0" stroke="black" stroke-width="1" fill="none" />
<polyline points="88.0,422.5,88.0,511.5" stroke="black" stroke-width="1" fill="none" />
<polyline points="80.0,511.5,80.0,445.5" stroke="black" stroke-width="1" fill="none" />
<polyline points="72.0,461.0,72.0,463.0,72.0,465.5,72.0,468.5,72.0,471.0,72.0,511.5" stroke="black" stroke-width="1" fill="none" />
<polyline points="64.0,511.5,64.0,481.5" stroke="black" stroke-width="1" fill="none" />
<polyline points="56.0,487.5,56.0,488.5,56.0,492.5,56.0,493.5,56.0,494.5,56.0,511.5" stroke="black" stroke-width="1" fill="none" />
<polyline points="48.0,511.5,48.0,511.0,48.0,508.5,48.0,506.0" stroke="black" stroke-width="1" fill="none" />
</svg>