<svg xmlns="http://www.w3.org/2000/svg" height="512px" width="512px" version="1.1"><polyline points="184.0,0.0,189.0,8.0,195.0,16.0,201.0,24.0,207.0,32.0,213.0,40.0,219.0,48.0,225.0,56.0,231.0,64.0,237.0,72.0,243.0,80.0,249.0,88.0,254.0,96.0,260.0,104.0,266.0,112.0,272.0,120.0,278.0,128.0,284.0,136.0,290.0,144.0,296.0,152.0,302.0,160.0,307.0,168.0,313.0,176.0,319.0,184.0,325.0,192.0,331.0,200.0,337.0,208.0,342.0,216.0,348.0,224.0,354.0,232.0,360.0,240.0,366.0,248.0,372.0,256.0,378.0,264.0,384.0,272.0,390.0,280.0,396.0,288.0,402.0,296.0,408.0,304.0,414.0,312.0,420.0,320.0,426.0,328.0,432.0,336.0,438.0,344.0,444.0,352.0,450.0,360.0,456.0,368.0,461.0,376.0,467.0,384.0,473.0,392.0,479.0,400.0,485.0,408.0,491.0,416.0,497.0,424.0,503.0,432.0,509.0,440.0" stroke="black" stroke-width="1" fill="none" />
<polyline points="506.0,393.0,500.0,387.0,499.0,389.0" stroke="black" stroke-width="1" fill="none" />
<polyline points="443.0,256.0,435.0,249.0,435.0,249.0,442.0,257.0" stroke="black" stroke-width="1" fill="none" />
<polyline points="417.0,230.0,409.0,220.0,409.0,217.0" stroke="black" stroke-width="1" fill="none" />
<polyline points="402.0,258.0,408.0,259.0,406.0,263.0" stroke="black" stroke-width="1" fill="none" />
<polyline points="400.0,200.0,392.0,190.0,384.0,182.0,384.0,182.0,391.0,190.0,398.0,198.0" stroke="black" stroke-width="1" fill="none" />
<polyline points="363.0,155.0,355.0,144.0,355.0,144.0,361.0,152.0,365.0,160.0" stroke="black" stroke-width="1" fill="none" />
<polyline points="341.0,168.0,346.0,176.0,352.0,184.0,356.0,191.0,359.0,196.0,368.0,205.0,375.0,215.0,373.0,218.0" stroke="black" stroke-width="1" fill="none" />
<polyline points="344.0,124.0,335.0,115.0,333.0,109.0,332.0,104.0,334.0,112.0,340.0,120.0,345.0,128.0,353.0,136.0" stroke="black" stroke-width="1" fill="none" />
<polyline points="345.0,75.0,353.0,87.0,361.0,97.0,369.0,110.0,377.0,120.0,385.0,130.0,393.0,141.0,401.0,152.0,409.0,163.0,417.0,173.0,425.0,185.0,433.0,195.0,441.0,205.0,449.0,216.0,457.0,227.0,465.0,238.0,473.0,248.0,481.0,259.0,489.0,270.0,497.0,280.0,505.0,291.0" stroke="black" stroke-width="1" fill="none" />
<polyline points="501.0,206.0,493.0,196.0,497.0,196.0,503.0,204.0,509.0,212.0" stroke="black" stroke-width="1" fill="none" />
<polyline points="504.0,204.0,496.0,194.0,488.0,184.0,480.0,174.0,472.0,163.0,464.0,158.0,454.0,144.0,446.0,133.0,444.0,132.0,442.0,124.0,430.0,113.0,422.0,103.0" stroke="black" stroke-width="1" fill="none" />
<polyline points="461.0,149.0,467.0,157.0,475.0,171.0,487.0,187.0" stroke="black" stroke-width="1" fill="none" />
<polyline points="466.0,155.0,458.0,145.0,450.0,134.0,442.0,123.0,434.0,113.0,426.0,102.0,418.0,92.0,410.0,82.0,402.0,72.0,394.0,62.0,392.0,58.0,384.0,53.0,376.0,50.0,368.0,56.0,360.0,61.0,352.0,67.0,344.0,71.0" stroke="black" stroke-width="1" fill="none" />
<polyline points="343.0,78.0,335.0,65.0,327.0,55.0,319.0,44.0,311.0,34.0,311.0,34.0,316.0,42.0,323.0,50.0,329.0,58.0,335.0,66.0,341.0,74.0,346.0,82.0" stroke="black" stroke-width="1" fill="none" />
<polyline points="377.0,49.0,366.0,57.0,354.0,65.0,344.0,73.0,349.0,81.0,354.0,89.0,360.0,97.0,366.0,105.0,371.0,113.0,377.0,121.0,383.0,129.0,389.0,137.0,395.0,145.0,401.0,153.0,407.0,161.0,413.0,169.0,419.0,177.0,424.0,185.0,431.0,193.0,437.0,201.0,443.0,209.0,449.0,217.0,455.0,225.0,461.0,233.0,467.0,241.0,473.0,249.0,479.0,257.0,485.0,265.0,491.0,273.0,497.0,281.0,503.0,289.0,508.0,297.0" stroke="black" stroke-width="1" fill="none" />
<polyline points="339.0,164.0,331.0,155.0,327.0,150.0,319.0,145.0,317.0,136.0,309.0,125.0,301.0,114.0,299.0,110.0,295.0,105.0,287.0,96.0,279.0,85.0,271.0,79.0,268.0,73.0,267.0,67.0,257.0,57.0,257.0,54.0,253.0,49.0,246.0,45.0,247.0,41.0,239.0,37.0" stroke="black" stroke-width="1" fill="none" />
<polyline points="238.0,29.0,241.0,37.0,250.0,45.0,253.0,52.0,262.0,63.0,268.0,70.0,273.0,77.0,281.0,89.0,287.0,97.0,294.0,105.0,295.0,113.0,301.0,121.0,307.0,129.0,313.0,137.0,318.0,145.0,329.0,152.0,332.0,157.0,332.0,162.0,341.0,175.0,349.0,178.0,348.0,181.0,356.0,188.0,356.0,191.0,361.0,197.0,367.0,210.0,375.0,214.0,380.0,225.0,383.0,232.0,390.0,234.0,391.0,242.0,398.0,245.0,406.0,255.0,410.0,268.0,418.0,273.0,421.0,283.0,428.0,285.0,434.0,293.0,435.0,302.0,443.0,305.0,445.0,309.0,453.0,319.0,456.0,330.0,459.0,334.0,467.0,337.0,468.0,340.0,471.0,344.0,473.0,354.0,477.0,355.0,481.0,360.0,485.0,368.0,493.0,373.0,490.0,375.0,495.0,382.0,503.0,386.0" stroke="black" stroke-width="1" fill="none" />
<polyline points="503.0,394.0,502.0,386.0,493.0,381.0,492.0,373.0,491.0,371.0,489.0,369.0,483.0,368.0,483.0,360.0,477.0,358.0,473.0,348.0,471.0,345.0,462.0,340.0,462.0,333.0,455.0,330.0,454.0,324.0,451.0,322.0,449.0,321.0,446.0,314.0,443.0,312.0,436.0,304.0,432.0,296.0,424.0,288.0,422.0,280.0,418.0,279.0,413.0,271.0,410.0,269.0,404.0,261.0,403.0,253.0,398.0,253.0,393.0,245.0,386.0,237.0,385.0,229.0,379.0,227.0,373.0,219.0,367.0,211.0,363.0,203.0,356.0,195.0,350.0,187.0,345.0,179.0,338.0,171.0,337.0,164.0,333.0,164.0,327.0,156.0,323.0,147.0,319.0,138.0,313.0,131.0,304.0,121.0,300.0,113.0,295.0,106.0,283.0,97.0,277.0,89.0,273.0,83.0,267.0,75.0,261.0,67.0,256.0,59.0,253.0,55.0,247.0,47.0,240.0,39.0,235.0,31.0,232.0,27.0,225.0,19.0,225.0,12.0,218.0,10.0,221.0,5.0,213.0,1.0" stroke="black" stroke-width="1" fill="none" />
<polyline points="206.0,1.0,214.0,12.0,222.0,22.0,230.0,33.0,238.0,44.0,246.0,55.0,254.0,65.0,262.0,77.0,270.0,87.0,278.0,98.0,286.0,109.0,294.0,120.0,302.0,131.0,310.0,142.0,318.0,153.0,326.0,164.0,334.0,175.0,342.0,186.0,350.0,197.0,358.0,207.0,366.0,218.0,374.0,229.0,382.0,240.0,390.0,251.0,398.0,262.0,406.0,272.0,414.0,283.0,422.0,294.0,430.0,305.0,438.0,315.0,446.0,326.0,454.0,337.0,462.0,348.0,470.0,359.0,478.0,370.0,486.0,380.0,494.0,391.0,502.0,402.0,510.0,413.0" stroke="black" stroke-width="1" fill="none" />
<polyline points="503.0,431.0,495.0,421.0,487.0,410.0,479.0,399.0,471.0,388.0,463.0,377.0,455.0,366.0,447.0,356.0,439.0,345.0,431.0,334.0,423.0,323.0,415.0,313.0,407.0,301.0,399.0,291.0,391.0,281.0,383.0,269.0,375.0,259.0,367.0,248.0,359.0,237.0,351.0,226.0,343.0,216.0,335.0,205.0,327.0,193.0,319.0,183.0,311.0,171.0,303.0,161.0,295.0,150.0,287.0,139.0,279.0,128.0,271.0,117.0,263.0,106.0,255.0,96.0,247.0,84.0,239.0,73.0,231.0,63.0,223.0,52.0,215.0,41.0,207.0,31.0,199.0,20.0,191.0,10.0,183.0,1.0" stroke="black" stroke-width="1" fill="none" />
<polyline points="205.0,0.0,210.0,8.0,217.0,16.0,222.0,24.0,228.0,32.0,234.0,40.0,240.0,48.0,246.0,56.0,252.0,64.0,258.0,72.0,264.0,80.0,270.0,88.0,276.0,96.0,281.0,104.0,287.0,112.0,293.0,120.0,299.0,128.0,305.0,136.0,311.0,144.0,317.0,152.0,322.0,160.0,328.0,168.0,334.0,176.0,340.0,184.0,346.0,192.0,352.0,200.0,358.0,208.0,363.0,216.0,369.0,224.0,375.0,232.0,381.0,240.0,387.0,248.0,393.0,256.0,399.0,264.0,405.0,272.0,411.0,280.0,417.0,288.0,422.0,296.0,428.0,304.0,434.0,312.0,440.0,320.0,446.0,328.0,452.0,336.0,458.0,344.0,464.0,352.0,470.0,360.0,476.0,368.0,482.0,376.0,488.0,384.0,494.0,392.0,499.0,400.0,505.0,408.0" stroke="black" stroke-width="1" fill="none" />
<polyline points="204.0,502.0,196.0,492.0,188.0,481.0,186.0,473.0,178.0,467.0,170.0,457.0,162.0,446.0,154.0,434.0,146.0,424.0" stroke="black" stroke-width="1" fill="none" />
<polyline points="166.0,403.0,156.0,411.0,146.0,419.0,148.0,427.0,154.0,435.0,159.0,443.0,165.0,451.0,171.0,459.0,177.0,467.0,183.0,475.0,189.0,483.0,195.0,491.0,201.0,499.0,207.0,507.0" stroke="black" stroke-width="1" fill="none" />
<polyline points="199.0,503.0,193.0,495.0,187.0,487.0,181.0,479.0,175.0,471.0,169.0,463.0,163.0,455.0,157.0,447.0,151.0,439.0,145.0,431.0,139.0,423.0,133.0,415.0,127.0,407.0,121.0,399.0,115.0,391.0,109.0,383.0,103.0,375.0,97.0,367.0,91.0,359.0,85.0,351.0,79.0,343.0,72.0,335.0,66.0,327.0,60.0,319.0,54.0,311.0,48.0,303.0,41.0,295.0,39.0,294.0,27.0,302.0,16.0,310.0,4.0,318.0,4.0,318.0,12.0,312.0,20.0,307.0,28.0,301.0,36.0,296.0,44.0,298.0,52.0,308.0,60.0,318.0,68.0,328.0,76.0,339.0,84.0,349.0,92.0,360.0,100.0,370.0,108.0,381.0,116.0,392.0,124.0,402.0,132.0,412.0,140.0,424.0,148.0,434.0,156.0,445.0,164.0,455.0,172.0,465.0,180.0,476.0,188.0,487.0,196.0,497.0,204.0,508.0" stroke="black" stroke-width="1" fill="none" />
<polyline points="135.0,410.0,127.0,399.0,119.0,389.0,111.0,379.0,103.0,369.0,95.0,358.0,87.0,347.0,79.0,336.0,71.0,326.0,63.0,316.0,55.0,306.0,47.0,294.0,37.0,291.0,29.0,296.0,21.0,302.0,13.0,307.0,5.0,313.0,2.0,315.0,13.0,307.0,25.0,299.0,36.0,291.0" stroke="black" stroke-width="1" fill="none" />
<polyline points="42.0,290.0,49.0,298.0,55.0,306.0,61.0,314.0,67.0,322.0,74.0,330.0,80.0,338.0,85.0,346.0,92.0,354.0,97.0,362.0,103.0,370.0,109.0,378.0,116.0,386.0,122.0,394.0,128.0,402.0,134.0,410.0,146.0,419.0,154.0,413.0,162.0,407.0" stroke="black" stroke-width="1" fill="none" />
<polyline points="301.0,66.0,298.0,58.0" stroke="black" stroke-width="1" fill="none" />
<polyline points="294.0,12.0,286.0,1.0,286.0,0.0,291.0,8.0" stroke="black" stroke-width="1" fill="none" />
<polyline points="238.0,28.0,231.0,26.0,232.0,20.0,224.0,18.0" stroke="black" stroke-width="1" fill="none" />
<polyline points="380.0,50.0,388.0,58.0,397.0,66.0,403.0,74.0,409.0,82.0,415.0,90.0,422.0,98.0,424.0,106.0,428.0,111.0,433.0,112.0,435.0,120.0,441.0,128.0,448.0,138.0,453.0,139.0,459.0,147.0,462.0,155.0,469.0,163.0,474.0,171.0,478.0,172.0,485.0,180.0,487.0,188.0,493.0,192.0,497.0,200.0,503.0,208.0" stroke="black" stroke-width="1" fill="none" />
<polyline points="0.0,0.0,511.5,0.0,511.5,0.5,419.0,93.0" stroke="black" stroke-width="1" fill="none" />
<polyline points="422.5,97.5,511.5,8.5" stroke="black" stroke-width="1" fill="none" />
<polyline points="511.5,16.5,426.0,102.0" stroke="black" stroke-width="1" fill="none" />
<polyline points="429.5,106.5,511.5,24.5" stroke="black" stroke-width="1" fill="none" />
<polyline points="511.5,48.5,440.0,120.0,436.5,116.5,511.5,191.5" stroke="black" stroke-width="1" fill="none" />
<polyline points="511.5,200.5,506.0,206.0" stroke="black" stroke-width="1" fill="none" />
<polyline points="502.5,201.5,511.5,192.5" stroke="black" stroke-width="1" fill="none" />
<polyline points="511.5,184.5,499.5,196.5,495.5,192.5,507.5,180.5,508.5,179.5,511.5,176.5" stroke="black" stroke-width="1" fill="none" />
<polyline points="511.5,168.5,492.0,188.0,488.5,184.5,511.5,207.5,511.5,208.5,509.5,210.5" stroke="black" stroke-width="1" fill="none" />
<polyline points="488.5,183.5,511.5,160.5" stroke="black" stroke-width="1" fill="none" />
<polyline points="511.5,152.5,485.5,178.5,486.5,182.5,487.5,183.5" stroke="black" stroke-width="1" fill="none" />
<polyline points="481.5,174.5,511.5,144.5" stroke="black" stroke-width="1" fill="none" />
<polyline points="511.5,136.5,478.0,170.0" stroke="black" stroke-width="1" fill="none" />
<polyline points="474.5,165.5,511.5,128.5" stroke="black" stroke-width="1" fill="none" />
<polyline points="511.5,120.5,470.5,161.5" stroke="black" stroke-width="1" fill="none" />
<polyline points="467.5,156.5,511.5,112.5" stroke="black" stroke-width="1" fill="none" />
<polyline points="511.5,104.5,464.5,151.5,464.0,152.0,511.5,199.5" stroke="black" stroke-width="1" fill="none" />
<polyline points="511.5,159.5,352.0,0.0,352.0,0.0,352.0,67.5,350.5,65.5,416.0,0.0,416.0,0.0,416.0,95.5" stroke="black" stroke-width="1" fill="none" />
<polyline points="416.0,88.0,504.0,0.0,504.0,0.0,504.0,209.0" stroke="black" stroke-width="1" fill="none" />
<polyline points="511.5,183.5,408.5,80.5,409.0,79.0,488.0,0.0,488.0,0.0,488.0,188.0" stroke="black" stroke-width="1" fill="none" />
<polyline points="511.5,167.5,344.0,0.0,344.0,0.0,344.0,72.0,343.5,72.5,342.0,74.0,344.0,74.5,344.0,173.0,346.0,174.0,352.0,168.0,353.5,166.5,364.0,156.0,363.5,155.5,364.5,156.5" stroke="black" stroke-width="1" fill="none" />
<polyline points="365.0,163.0,357.5,170.5" stroke="black" stroke-width="1" fill="none" />
<polyline points="360.5,175.5,370.0,166.0" stroke="black" stroke-width="1" fill="none" />
<polyline points="373.5,170.5,356.5,187.5,356.5,188.5,358.0,190.0,358.5,190.5,482.5,314.5,483.5,315.5,484.5,316.5,483.5,316.5,465.0,335.0,467.0,339.0,468.0,340.0,468.5,339.5,487.5,320.5,487.5,319.5,488.5,320.5,491.0,323.0,496.5,328.5,494.0,330.0,475.0,349.0,474.5,349.5,474.0,350.0,472.0,350.5,472.0,363.0,471.5,360.5,476.0,356.0,476.5,356.5,477.5,357.5,478.5,353.5,496.5,335.5" stroke="black" stroke-width="1" fill="none" />
<polyline points="502.0,346.0,486.0,362.0,485.5,365.5,487.0,367.0,489.0,367.0,508.5,347.5,506.5,346.5,511.5,351.5" stroke="black" stroke-width="1" fill="none" />
<polyline points="511.5,360.5,495.5,376.5,494.0,374.0,511.5,391.5,511.5,392.5,508.0,396.0,507.5,395.5,511.0,399.0,510.5,401.5,505.5,406.5,504.0,411.5,504.0,412.0,504.0,415.5,504.0,416.0,504.0,419.0,504.0,511.5" stroke="black" stroke-width="1" fill="none" />
<polyline points="511.5,463.5,477.0,429.0,475.0,427.0,474.5,426.5,472.5,424.5,471.5,423.5,469.0,421.0,467.5,419.5" stroke="black" stroke-width="1" fill="none" />
<polyline points="465.0,425.0,467.0,427.0,470.0,430.0,471.0,431.0,473.5,433.5,475.5,435.5,478.5,438.5,483.5,443.5,484.0,444.0,511.5,471.5" stroke="black" stroke-width="1" fill="none" />
<polyline points="511.5,447.5,485.5,421.5,484.5,420.5,483.0,419.0,480.0,416.0,479.5,415.5" stroke="black" stroke-width="1" fill="none" />
<polyline points="477.5,421.5,480.5,424.5,482.5,426.5,483.5,427.5,484.0,428.0,491.5,435.5,492.0,436.0,511.5,455.5" stroke="black" stroke-width="1" fill="none" />
<polyline points="490.5,458.5,511.5,479.5" stroke="black" stroke-width="1" fill="none" />
<polyline points="496.5,424.5,494.5,422.5,494.0,422.0,489.5,417.5,488.5,416.5,487.5,415.5,488.0,410.0,488.0,511.5" stroke="black" stroke-width="1" fill="none" />
<polyline points="490.0,458.0,470.0,438.0,469.0,437.0,468.5,436.5,467.5,435.5,466.5,434.5" stroke="black" stroke-width="1" fill="none" />
<polyline points="461.0,437.0,511.5,487.5" stroke="black" stroke-width="1" fill="none" />
<polyline points="511.5,495.5,455.0,439.0,451.0,443.0,511.5,503.5" stroke="black" stroke-width="1" fill="none" />
<polyline points="439.5,511.5,403.0,475.0,401.5,473.5,396.0,468.0" stroke="black" stroke-width="1" fill="none" />
<polyline points="400.5,464.5,407.5,471.5,409.0,473.0,447.5,511.5" stroke="black" stroke-width="1" fill="none" />
<polyline points="410.5,509.5,408.5,511.5" stroke="black" stroke-width="1" fill="none" />
<polyline points="403.5,508.5,407.0,505.0,403.0,501.0,400.5,503.5" stroke="black" stroke-width="1" fill="none" />
<polyline points="398.0,498.0,400.5,495.5" stroke="black" stroke-width="1" fill="none" />
<polyline points="396.0,492.0,393.5,494.5" stroke="black" stroke-width="1" fill="none" />
<polyline points="391.0,489.0,393.5,486.5" stroke="black" stroke-width="1" fill="none" />
<polyline points="389.0,483.0,386.5,485.5,383.0,487.0,407.5,511.5" stroke="black" stroke-width="1" fill="none" />
<polyline points="375.5,511.5,356.0,492.0,355.5,491.5,348.0,484.0,352.0,480.0,353.5,481.5,357.5,485.5,383.5,511.5" stroke="black" stroke-width="1" fill="none" />
<polyline points="359.5,511.5,343.5,495.5,342.0,494.0,340.5,492.5,339.5,491.5,337.5,489.5,336.0,488.0,335.0,487.0,331.0,491.0,334.0,494.0,336.5,496.5,339.0,499.0,339.5,499.5,351.5,511.5" stroke="black" stroke-width="1" fill="none" />
<polyline points="335.5,511.5,329.5,505.5" stroke="black" stroke-width="1" fill="none" />
<polyline points="333.0,501.0,335.0,503.0,335.5,503.5,343.5,511.5" stroke="black" stroke-width="1" fill="none" />
<polyline points="327.5,511.5,321.0,505.0,319.5,503.5,318.0,502.0,314.0,506.0,312.5,504.5,315.0,507.0,319.0,511.0" stroke="black" stroke-width="1" fill="none" />
<polyline points="311.5,511.5,311.5,511.5,309.5,509.5,309.0,509.0,307.5,507.5,305.5,505.5,309.5,501.5,310.5,502.5" stroke="black" stroke-width="1" fill="none" />
<polyline points="301.5,509.5,303.5,511.5,301.0,509.0,300.0,508.0" stroke="black" stroke-width="1" fill="none" />
<polyline points="295.5,511.5,294.0,510.0" stroke="black" stroke-width="1" fill="none" />
<polyline points="287.5,511.5,283.5,507.5,287.5,503.5,291.5,507.5,295.5,503.5,292.0,500.0" stroke="black" stroke-width="1" fill="none" />
<polyline points="296.5,496.5,300.0,500.0" stroke="black" stroke-width="1" fill="none" />
<polyline points="305.0,497.0,300.5,492.5" stroke="black" stroke-width="1" fill="none" />
<polyline points="305.0,489.0,309.0,493.0" stroke="black" stroke-width="1" fill="none" />
<polyline points="312.5,487.5,327.0,473.0,327.0,471.0,331.0,475.0,328.5,471.5,329.0,471.0,330.5,469.5,331.0,469.0,331.0,467.0,335.0,471.0" stroke="black" stroke-width="1" fill="none" />
<polyline points="339.5,467.5,335.0,463.0" stroke="black" stroke-width="1" fill="none" />
<polyline points="340.0,460.0,344.0,464.0,348.0,460.0,344.5,456.5,348.5,452.5,352.5,456.5" stroke="black" stroke-width="1" fill="none" />
<polyline points="357.0,453.0,353.0,449.0" stroke="black" stroke-width="1" fill="none" />
<polyline points="354.0,442.0,423.5,511.5" stroke="black" stroke-width="1" fill="none" />
<polyline points="391.5,511.5,366.5,486.5,365.5,485.5,359.5,479.5,358.5,478.5,356.0,476.0,355.5,475.5,355.0,475.0,354.0,474.0,352.5,472.5,348.5,476.5,348.0,476.0" stroke="black" stroke-width="1" fill="none" />
<polyline points="356.0,468.0,356.5,468.5" stroke="black" stroke-width="1" fill="none" />
<polyline points="364.5,468.5,365.0,469.0" stroke="black" stroke-width="1" fill="none" />
<polyline points="370.0,474.0,374.0,478.0,375.0,479.0,378.5,482.5,380.0,484.0,382.0,486.0" stroke="black" stroke-width="1" fill="none" />
<polyline points="384.0,480.0,386.5,477.5" stroke="black" stroke-width="1" fill="none" />
<polyline points="383.5,472.5,380.0,476.0" stroke="black" stroke-width="1" fill="none" />
<polyline points="377.0,471.0,379.0,469.0,374.5,470.5,415.5,511.5" stroke="black" stroke-width="1" fill="none" />
<polyline points="367.5,511.5,342.0,486.0" stroke="black" stroke-width="1" fill="none" />
<polyline points="337.0,481.0,336.5,480.5" stroke="black" stroke-width="1" fill="none" />
<polyline points="332.0,484.0,330.0,482.0" stroke="black" stroke-width="1" fill="none" />
<polyline points="322.0,482.0,318.0,478.0" stroke="black" stroke-width="1" fill="none" />
<polyline points="321.5,473.5,326.5,478.5" stroke="black" stroke-width="1" fill="none" />
<polyline points="318.0,486.0,313.5,481.5" stroke="black" stroke-width="1" fill="none" />
<polyline points="309.0,485.0,313.0,489.0" stroke="black" stroke-width="1" fill="none" />
<polyline points="322.5,498.5,325.0,501.0" stroke="black" stroke-width="1" fill="none" />
<polyline points="328.0,496.0,331.0,499.0" stroke="black" stroke-width="1" fill="none" />
<polyline points="364.0,476.0,399.5,511.5" stroke="black" stroke-width="1" fill="none" />
<polyline points="431.5,511.5,390.0,470.0,389.5,469.5,384.5,464.5,384.0,464.0,382.5,462.5,381.5,461.5,379.5,459.5" stroke="black" stroke-width="1" fill="none" />
<polyline points="383.0,455.0,381.5,453.5" stroke="black" stroke-width="1" fill="none" />
<polyline points="386.5,458.5,389.0,461.0,390.0,462.0,391.5,463.5" stroke="black" stroke-width="1" fill="none" />
<polyline points="396.0,460.0,391.0,455.0" stroke="black" stroke-width="1" fill="none" />
<polyline points="394.5,450.5,396.5,452.5,397.0,453.0,398.0,454.0,401.0,457.0,455.5,511.5" stroke="black" stroke-width="1" fill="none" />
<polyline points="463.5,511.5,412.0,460.0,411.5,459.5,405.5,453.5" stroke="black" stroke-width="1" fill="none" />
<polyline points="409.0,449.0,419.5,459.5,420.5,460.5,471.5,511.5" stroke="black" stroke-width="1" fill="none" />
<polyline points="479.5,511.5,432.0,464.0,431.5,463.5,427.5,459.5,427.0,459.0,422.5,454.5,421.0,453.0,418.0,450.0,414.0,446.0,413.5,445.5" stroke="black" stroke-width="1" fill="none" />
<polyline points="419.5,443.5,421.5,445.5,424.5,448.5,427.5,451.5,430.5,454.5,487.5,511.5" stroke="black" stroke-width="1" fill="none" />
<polyline points="495.5,511.5,440.5,456.5,439.5,455.5,430.5,446.5,429.0,445.0,428.5,444.5" stroke="black" stroke-width="1" fill="none" />
<polyline points="431.5,439.5,434.5,442.5,435.5,443.5,438.0,446.0,441.0,449.0,503.5,511.5" stroke="black" stroke-width="1" fill="none" />
<polyline points="511.5,511.5,452.0,452.0,450.0,450.0,448.0,448.0" stroke="black" stroke-width="1" fill="none" />
<polyline points="450.0,442.0,446.5,438.5" stroke="black" stroke-width="1" fill="none" />
<polyline points="442.0,442.0,446.0,446.0" stroke="black" stroke-width="1" fill="none" />
<polyline points="439.5,439.5,438.5,438.5" stroke="black" stroke-width="1" fill="none" />
<polyline points="445.5,429.5,449.5,433.5" stroke="black" stroke-width="1" fill="none" />
<polyline points="457.0,433.0,460.5,436.5" stroke="black" stroke-width="1" fill="none" />
<polyline points="459.0,427.0,457.0,425.0" stroke="black" stroke-width="1" fill="none" />
<polyline points="460.0,420.0,459.0,419.0" stroke="black" stroke-width="1" fill="none" />
<polyline points="480.0,399.5,480.0,511.5" stroke="black" stroke-width="1" fill="none" />
<polyline points="496.0,511.5,496.0,419.0,496.0,418.0,496.0,416.5" stroke="black" stroke-width="1" fill="none" />
<polyline points="509.0,411.0,511.5,408.5,511.5,407.5,488.5,384.5,488.5,383.5,492.5,379.5,494.0,382.0,496.0,384.0,496.0,384.0,492.5,387.5" stroke="black" stroke-width="1" fill="none" />
<polyline points="495.5,392.5,499.0,389.0,500.0,388.0,498.5,386.5,502.5,385.5,511.5,376.5" stroke="black" stroke-width="1" fill="none" />
<polyline points="511.5,384.5,504.5,391.5,503.5,391.5,504.5,392.5,503.0,393.0,499.0,397.0,504.0,394.5,504.0,408.5" stroke="black" stroke-width="1" fill="none" />
<polyline points="502.0,402.0,507.5,396.5,504.0,392.5,504.0,390.0" stroke="black" stroke-width="1" fill="none" />
<polyline points="499.0,381.0,511.5,368.5" stroke="black" stroke-width="1" fill="none" />
<polyline points="509.0,355.0,493.0,371.0,491.0,371.0,490.0,370.0,488.0,371.0,488.0,386.0" stroke="black" stroke-width="1" fill="none" />
<polyline points="485.0,379.0,489.0,375.0" stroke="black" stroke-width="1" fill="none" />
<polyline points="485.5,370.5,482.0,374.0" stroke="black" stroke-width="1" fill="none" />
<polyline points="478.5,369.5,482.0,366.0,480.0,361.0,480.0,374.5" stroke="black" stroke-width="1" fill="none" />
<polyline points="475.5,364.5,478.5,361.5,482.5,357.5,502.0,338.0" stroke="black" stroke-width="1" fill="none" />
<polyline points="509.5,333.5,511.5,335.5,511.5,336.5,511.0,337.0" stroke="black" stroke-width="1" fill="none" />
<polyline points="500.0,324.0,499.0,323.0" stroke="black" stroke-width="1" fill="none" />
<polyline points="492.0,324.0,471.5,344.5,470.5,342.5,511.5,383.5" stroke="black" stroke-width="1" fill="none" />
<polyline points="511.5,375.5,448.0,312.0,448.5,311.5,470.5,289.5,473.5,289.5,476.0,292.0,473.5,294.5,452.0,316.0,448.0,320.0,448.0,331.0,448.0,328.0,451.5,324.5,450.0,322.0,449.0,321.0,448.0,320.0,444.5,323.5,446.0,326.0,469.0,349.0,469.0,347.0,465.0,351.0,467.5,355.5,468.5,356.5,469.0,357.0,492.5,380.5,496.0,381.0,496.0,396.0" stroke="black" stroke-width="1" fill="none" />
<polyline points="511.0,415.0,511.5,415.5" stroke="black" stroke-width="1" fill="none" />
<polyline points="504.0,389.5,504.0,290.5,505.5,288.0,511.5,288.0" stroke="black" stroke-width="1" fill="none" />
<polyline points="506.5,298.5,511.5,303.5,511.5,304.5,510.5,305.5" stroke="black" stroke-width="1" fill="none" />
<polyline points="487.0,319.0,485.5,317.5" stroke="black" stroke-width="1" fill="none" />
<polyline points="480.5,311.5,462.0,330.0,458.5,333.5,454.5,337.5" stroke="black" stroke-width="1" fill="none" />
<polyline points="458.0,342.0,461.5,338.5,464.0,341.0,464.0,352.5,468.5,355.5,472.5,351.5,471.0,351.0,473.0,353.0" stroke="black" stroke-width="1" fill="none" />
<polyline points="465.0,343.0,461.5,346.5" stroke="black" stroke-width="1" fill="none" />
<polyline points="472.0,346.0,472.0,248.0" stroke="black" stroke-width="1" fill="none" />
<polyline points="479.0,257.0,478.0,258.0,480.0,259.0,480.0,357.0" stroke="black" stroke-width="1" fill="none" />
<polyline points="488.0,368.0,488.0,270.5,493.0,272.0,495.0,272.0,500.5,272.0,511.5,272.0" stroke="black" stroke-width="1" fill="none" />
<polyline points="511.5,280.0,499.0,280.0,496.0,280.0,496.0,378.0" stroke="black" stroke-width="1" fill="none" />
<polyline points="511.5,359.5,403.0,251.0,403.5,252.5,410.0,246.0,411.5,244.5,421.0,235.0,417.0,231.0,399.5,248.5,399.0,247.0,401.5,249.5,397.5,250.5,393.5,254.5" stroke="black" stroke-width="1" fill="none" />
<polyline points="397.0,259.0,400.5,255.5,400.0,254.0,400.0,265.0,401.0,265.0,424.5,288.5,424.0,288.0,420.5,291.5,422.5,294.5,447.5,319.5,444.5,315.5,441.0,319.0" stroke="black" stroke-width="1" fill="none" />
<polyline points="438.0,314.0,441.5,310.5,440.0,309.0,440.0,320.0" stroke="black" stroke-width="1" fill="none" />
<polyline points="434.5,309.5,438.5,305.5,441.0,303.0,459.0,285.0" stroke="black" stroke-width="1" fill="none" />
<polyline points="462.0,290.0,445.0,307.0,445.0,309.0,446.0,310.0" stroke="black" stroke-width="1" fill="none" />
<polyline points="436.5,300.5,436.0,300.0,438.0,298.0,453.5,282.5" stroke="black" stroke-width="1" fill="none" />
<polyline points="452.5,275.5,434.5,293.5,432.0,294.5,432.0,296.5,432.0,296.0,431.0,295.0,430.5,297.5,427.5,300.5,432.0,298.5,432.0,308.0,431.0,305.0,435.0,301.0" stroke="black" stroke-width="1" fill="none" />
<polyline points="428.0,292.0,424.0,296.0,428.0,292.0,426.5,290.5,430.5,289.5,446.5,273.5" stroke="black" stroke-width="1" fill="none" />
<polyline points="446.0,266.0,428.5,283.5,428.5,284.5,511.5,367.5" stroke="black" stroke-width="1" fill="none" />
<polyline points="503.0,343.0,380.0,220.0,380.0,220.0,386.0,214.0,387.5,212.5,396.5,203.5,397.0,203.0,397.5,202.5,403.0,203.0,405.0,205.0" stroke="black" stroke-width="1" fill="none" />
<polyline points="409.5,209.5,418.5,218.5" stroke="black" stroke-width="1" fill="none" />
<polyline points="423.5,215.5,424.5,216.5,422.0,214.0,416.0,208.0" stroke="black" stroke-width="1" fill="none" />
<polyline points="408.0,216.0,409.0,217.0" stroke="black" stroke-width="1" fill="none" />
<polyline points="412.5,227.5,404.0,236.0,403.5,236.5,397.0,243.0,396.0,244.0,395.5,243.5,392.0,244.0,392.0,254.5,390.5,249.5,393.5,246.5" stroke="black" stroke-width="1" fill="none" />
<polyline points="390.0,242.0,386.5,245.5" stroke="black" stroke-width="1" fill="none" />
<polyline points="383.5,240.5,386.5,237.5,384.0,234.0,384.0,244.0" stroke="black" stroke-width="1" fill="none" />
<polyline points="380.0,236.0,383.0,233.0,386.0,232.0,461.5,232.0,461.5,234.5,460.5,235.5,457.5,233.5,468.0,244.0" stroke="black" stroke-width="1" fill="none" />
<polyline points="464.0,237.5,464.0,336.0" stroke="black" stroke-width="1" fill="none" />
<polyline points="456.0,330.5,456.0,341.5" stroke="black" stroke-width="1" fill="none" />
<polyline points="451.5,332.5,454.5,329.5,458.5,325.5,477.5,306.5" stroke="black" stroke-width="1" fill="none" />
<polyline points="475.0,301.0,455.0,321.0,456.0,326.5,456.0,228.0" stroke="black" stroke-width="1" fill="none" />
<polyline points="452.0,236.0,475.0,259.0,479.0,263.0,482.0,266.0,481.0,263.0,481.5,262.5" stroke="black" stroke-width="1" fill="none" />
<polyline points="474.0,266.0,472.5,264.5" stroke="black" stroke-width="1" fill="none" />
<polyline points="466.5,274.5,472.0,280.0" stroke="black" stroke-width="1" fill="none" />
<polyline points="468.5,284.5,469.5,285.5,474.0,286.0,474.5,285.5,478.0,286.0,478.5,286.5,480.0,288.0,482.0,290.0" stroke="black" stroke-width="1" fill="none" />
<polyline points="467.5,283.5,459.5,275.5" stroke="black" stroke-width="1" fill="none" />
<polyline points="454.5,270.5,451.5,267.5" stroke="black" stroke-width="1" fill="none" />
<polyline points="443.5,260.5,424.5,279.5,423.5,279.5,422.5,278.5,421.0,275.0,427.0,269.0,428.0,268.0,440.5,255.5,436.5,251.5,424.5,263.5,423.5,264.5,418.0,270.0,416.0,270.5,416.0,173.0,413.0,173.0,418.0,178.0,420.5,180.5,421.0,181.0,422.5,182.5,423.0,183.0,424.0,184.0,424.0,280.5,426.5,282.5,428.0,284.0,424.0,285.0,424.0,298.0" stroke="black" stroke-width="1" fill="none" />
<polyline points="417.5,286.5,420.5,283.5" stroke="black" stroke-width="1" fill="none" />
<polyline points="417.5,278.5,414.0,282.0" stroke="black" stroke-width="1" fill="none" />
<polyline points="410.5,277.5,413.5,274.5,416.0,275.5,416.0,287.5" stroke="black" stroke-width="1" fill="none" />
<polyline points="408.0,276.0,408.0,264.5,411.0,261.0,417.0,255.0,418.5,253.5,429.0,243.0,433.0,247.0,414.5,265.5,410.5,269.5,407.5,272.5,403.5,268.5,407.5,264.5,405.0,261.0,404.5,260.5,404.0,260.0,400.5,263.5,400.5,264.5,399.0,263.0" stroke="black" stroke-width="1" fill="none" />
<polyline points="401.0,257.0,377.5,233.5,376.5,231.5,379.5,228.5,381.5,229.5,382.0,230.0,387.0,229.0,393.0,223.0,394.0,222.0,404.0,212.0" stroke="black" stroke-width="1" fill="none" />
<polyline points="411.0,221.0,394.0,238.0" stroke="black" stroke-width="1" fill="none" />
<polyline points="390.5,233.5,405.0,219.0" stroke="black" stroke-width="1" fill="none" />
<polyline points="398.5,209.5,391.0,217.0,389.5,218.5,384.0,224.0" stroke="black" stroke-width="1" fill="none" />
<polyline points="376.5,223.5,373.0,227.0,376.0,223.0,376.0,233.0" stroke="black" stroke-width="1" fill="none" />
<polyline points="369.5,222.5,373.5,218.5,376.0,217.5,376.0,219.5,375.0,216.0,450.0,216.0,448.0,216.5,448.0,315.5" stroke="black" stroke-width="1" fill="none" />
<polyline points="440.0,305.5,440.0,205.5" stroke="black" stroke-width="1" fill="none" />
<polyline points="432.0,195.5,432.0,290.5" stroke="black" stroke-width="1" fill="none" />
<polyline points="416.5,272.0,491.0,272.0" stroke="black" stroke-width="1" fill="none" />
<polyline points="497.5,280.0,0.0,280.0" stroke="black" stroke-width="1" fill="none" />
<polyline points="0.0,272.0,414.5,272.0,415.0,272.0,415.5,272.0" stroke="black" stroke-width="1" fill="none" />
<polyline points="407.5,256.5,413.5,250.5,415.0,249.0,422.5,241.5,426.5,237.5,427.0,237.0,427.0,235.0,430.0,238.0" stroke="black" stroke-width="1" fill="none" />
<polyline points="431.5,231.5,430.5,230.5,428.5,228.5,428.0,228.0" stroke="black" stroke-width="1" fill="none" />
<polyline points="424.5,232.5,420.5,228.5" stroke="black" stroke-width="1" fill="none" />
<polyline points="407.0,215.0,285.0,93.0,285.0,91.0,301.5,74.5,303.0,73.0,305.5,70.5,301.5,66.5,281.5,86.5,278.5,89.5,275.0,93.0,280.0,90.5,280.0,102.5,281.5,102.5,285.5,98.5,288.0,96.0,306.5,77.5,311.5,79.5,331.5,99.5" stroke="black" stroke-width="1" fill="none" />
<polyline points="328.0,104.0,327.0,105.0,325.5,106.5,308.5,123.5,308.5,124.5,309.5,125.5,310.0,128.0,384.0,128.0,386.0,128.0,388.5,128.0,384.0,130.0,384.0,228.0" stroke="black" stroke-width="1" fill="none" />
<polyline points="377.0,215.0,382.0,210.0,384.5,207.5,396.0,196.0" stroke="black" stroke-width="1" fill="none" />
<polyline points="392.5,191.5,381.0,203.0,379.5,204.5,373.5,210.5,370.0,214.0,366.5,217.5,368.0,222.0,368.0,212.0,366.5,209.5,363.0,213.0" stroke="black" stroke-width="1" fill="none" />
<polyline points="359.5,208.5,362.5,205.5,364.0,204.0,364.5,204.5,366.5,201.5,372.5,195.5,373.5,194.5,385.0,183.0,389.0,187.0,377.5,198.5,376.0,200.0,369.5,206.5,368.0,208.0,368.0,209.0,368.0,205.0,368.0,108.0,366.0,106.0,366.5,105.5,365.5,109.5,366.0,110.0,369.0,113.0,372.0,116.0,373.5,112.0,511.5,112.0" stroke="black" stroke-width="1" fill="none" />
<polyline points="511.5,96.5,461.0,147.0,463.0,151.0,463.5,151.5" stroke="black" stroke-width="1" fill="none" />
<polyline points="457.5,142.5,511.5,88.5" stroke="black" stroke-width="1" fill="none" />
<polyline points="511.5,80.5,454.0,138.0" stroke="black" stroke-width="1" fill="none" />
<polyline points="450.5,133.5,511.5,72.5" stroke="black" stroke-width="1" fill="none" />
<polyline points="511.5,64.5,447.0,129.0" stroke="black" stroke-width="1" fill="none" />
<polyline points="443.5,124.5,511.5,56.5" stroke="black" stroke-width="1" fill="none" />
<polyline points="511.5,40.5,436.5,115.5" stroke="black" stroke-width="1" fill="none" />
<polyline points="433.0,111.0,511.5,32.5" stroke="black" stroke-width="1" fill="none" />
<polyline points="511.5,7.5,504.0,0.0" stroke="black" stroke-width="1" fill="none" />
<polyline points="496.0,0.0,496.0,198.5" stroke="black" stroke-width="1" fill="none" />
<polyline points="511.5,175.5,336.0,0.0,336.0,0.0,336.0,162.0,335.5,160.5,341.5,154.5,342.5,153.5,352.0,144.0,353.0,143.0,353.5,142.5" stroke="black" stroke-width="1" fill="none" />
<polyline points="357.0,147.0,347.0,157.0" stroke="black" stroke-width="1" fill="none" />
<polyline points="350.5,161.5,358.0,154.0" stroke="black" stroke-width="1" fill="none" />
<polyline points="361.5,145.5,373.0,157.0,374.0,158.0,375.0,159.0,376.5,160.5,377.5,161.5,378.5,162.5,381.5,165.5" stroke="black" stroke-width="1" fill="none" />
<polyline points="377.0,169.0,381.5,173.5,381.0,179.0,362.5,197.5,363.5,200.0,437.5,200.0" stroke="black" stroke-width="1" fill="none" />
<polyline points="435.0,192.0,434.0,192.0,431.5,192.0,0.0,192.0,1.0,193.0,1.5,193.5,5.0,197.0,5.5,197.5" stroke="black" stroke-width="1" fill="none" />
<polyline points="2.0,202.0,0.0,200.0,0.0,200.0,361.5,200.0,360.0,200.0,356.0,204.0,354.5,202.5,379.5,227.5" stroke="black" stroke-width="1" fill="none" />
<polyline points="392.0,239.0,392.0,187.5" stroke="black" stroke-width="1" fill="none" />
<polyline points="397.5,197.5,265.0,65.0,264.5,63.5,285.0,43.0" stroke="black" stroke-width="1" fill="none" />
<polyline points="295.0,57.0,274.0,78.0,272.0,79.0,272.0,91.0,271.5,88.5,276.0,84.0,276.5,84.5,277.0,85.0,277.5,82.5,298.5,61.5,300.0,60.0,298.0,58.0" stroke="black" stroke-width="1" fill="none" />
<polyline points="291.5,52.5,271.0,73.0,268.5,75.5,265.0,79.0,268.5,76.5,243.5,51.5,244.0,52.0,248.0,48.0,248.0,47.5,248.0,59.0,248.0,56.0,251.5,52.5,254.5,49.5,272.5,31.5,276.5,35.5,258.0,54.0,256.0,57.5,256.0,70.5,258.0,70.0,261.5,66.5,264.0,68.5,264.0,80.5,267.0,83.0,288.0,104.0,288.0,104.0,285.0,107.0,288.5,104.5,292.0,108.0,295.0,105.0,311.5,88.5,312.0,88.0,312.5,87.5,316.5,91.5,298.5,109.5,296.0,110.0,296.0,110.5,295.0,113.0,292.0,116.0,290.0,114.0,311.0,135.0,311.5,136.5,308.5,139.5,309.5,141.5,311.0,143.0,311.5,143.5,333.0,165.0,332.5,163.5,329.0,167.0,331.5,171.5,356.0,196.0,356.0,196.0,352.5,199.5" stroke="black" stroke-width="1" fill="none" />
<polyline points="349.5,194.5,352.5,191.5,352.0,191.5,352.0,200.5" stroke="black" stroke-width="1" fill="none" />
<polyline points="358.5,198.5,360.0,200.0,360.0,198.5,360.0,211.5" stroke="black" stroke-width="1" fill="none" />
<polyline points="376.0,215.5,376.0,120.0,378.0,122.0,379.5,123.5,380.0,120.0,383.0,120.0,388.5,120.0,511.5,120.0" stroke="black" stroke-width="1" fill="none" />
<polyline points="511.5,31.5,480.0,0.0,480.0,0.0,480.0,178.5" stroke="black" stroke-width="1" fill="none" />
<polyline points="472.0,168.0,472.0,0.0,472.0,0.0,511.5,39.5" stroke="black" stroke-width="1" fill="none" />
<polyline points="511.5,15.5,496.0,0.0,496.0,0.0,412.0,84.0" stroke="black" stroke-width="1" fill="none" />
<polyline points="405.5,74.5,480.0,0.0" stroke="black" stroke-width="1" fill="none" />
<polyline points="488.0,0.0,511.5,23.5" stroke="black" stroke-width="1" fill="none" />
<polyline points="472.0,0.0,401.5,70.5" stroke="black" stroke-width="1" fill="none" />
<polyline points="398.5,65.5,464.0,0.0,464.0,0.0,464.0,156.5" stroke="black" stroke-width="1" fill="none" />
<polyline points="456.0,146.0,456.0,0.0,456.0,0.0,511.5,55.5" stroke="black" stroke-width="1" fill="none" />
<polyline points="511.5,47.5,464.0,0.0" stroke="black" stroke-width="1" fill="none" />
<polyline points="456.0,0.0,394.5,61.5" stroke="black" stroke-width="1" fill="none" />
<polyline points="391.0,57.0,448.0,0.0,448.0,0.0,448.0,136.5" stroke="black" stroke-width="1" fill="none" />
<polyline points="440.0,126.0,440.0,0.0,440.0,0.0,511.5,71.5" stroke="black" stroke-width="1" fill="none" />
<polyline points="511.5,63.5,448.0,0.0" stroke="black" stroke-width="1" fill="none" />
<polyline points="440.0,0.0,387.5,52.5" stroke="black" stroke-width="1" fill="none" />
<polyline points="384.0,48.0,432.0,0.0,432.0,0.0,432.0,115.5" stroke="black" stroke-width="1" fill="none" />
<polyline points="424.0,105.0,424.0,0.0,424.0,0.0,511.5,87.5" stroke="black" stroke-width="1" fill="none" />
<polyline points="511.5,79.5,432.0,0.0" stroke="black" stroke-width="1" fill="none" />
<polyline points="424.0,0.0,375.0,49.0,377.5,49.5,328.0,0.0,328.0,0.0,328.0,151.5,329.5,150.5,335.0,145.0,336.0,144.0,348.5,131.5" stroke="black" stroke-width="1" fill="none" />
<polyline points="350.5,137.5,332.5,155.5,332.0,156.0,331.5,155.5,328.0,157.0,328.0,167.5,325.5,162.5,328.5,159.5,332.5,160.0,407.5,160.0,410.0,160.0,411.5,160.0,408.0,162.5,408.0,259.5,404.5,256.0,480.0,256.0" stroke="black" stroke-width="1" fill="none" />
<polyline points="485.5,264.0,0.0,264.0,0.0,264.0,3.0,267.0,7.0,263.0,7.5,263.5,9.0,265.0,9.5,265.5" stroke="black" stroke-width="1" fill="none" />
<polyline points="4.0,260.0,3.5,259.5,1.0,257.0,0.0,256.0,0.0,256.0,403.5,256.0" stroke="black" stroke-width="1" fill="none" />
<polyline points="400.0,249.5,400.0,172.5" stroke="black" stroke-width="1" fill="none" />
<polyline points="405.5,165.5,407.5,167.5,408.5,168.5,411.5,171.5,415.0,168.0,416.5,168.0" stroke="black" stroke-width="1" fill="none" />
<polyline points="421.0,176.0,422.5,176.0" stroke="black" stroke-width="1" fill="none" />
<polyline points="426.5,184.0,429.0,184.0" stroke="black" stroke-width="1" fill="none" />
<polyline points="420.5,188.5,413.0,181.0" stroke="black" stroke-width="1" fill="none" />
<polyline points="405.0,165.0,404.5,164.5" stroke="black" stroke-width="1" fill="none" />
<polyline points="400.0,172.0,400.0,153.0,403.5,152.0,405.5,152.0,401.0,152.0,0.0,152.0,0.5,152.5,1.0,153.0,3.5,155.5,4.0,156.0,4.5,156.5,5.5,157.5" stroke="black" stroke-width="1" fill="none" />
<polyline points="2.0,162.0,0.0,160.0,0.0,160.0,331.0,160.0,335.0,159.0,456.0,280.0" stroke="black" stroke-width="1" fill="none" />
<polyline points="465.0,289.0,475.5,299.5" stroke="black" stroke-width="1" fill="none" />
<polyline points="511.5,320.0,61.0,320.0,63.5,320.5,64.5,319.5,64.0,317.0,64.0,323.0,67.0,325.0,68.0,324.0,68.0,324.0,68.5,324.5,67.0,323.0,58.0,314.0,57.5,313.5,57.0,313.0,56.5,311.5,58.0,310.0,56.0,312.5,56.0,306.5,53.5,306.5,53.0,307.0,56.0,305.5,56.0,303.0,51.5,300.5,49.5,302.5,48.0,302.5,48.0,0.0,48.0,0.0,111.5,63.5,115.0,67.0,115.5,67.5,116.0,68.0,118.5,70.5,122.5,66.5,124.0,68.0" stroke="black" stroke-width="1" fill="none" />
<polyline points="127.0,63.0,126.0,62.0,130.0,66.0,131.5,67.5" stroke="black" stroke-width="1" fill="none" />
<polyline points="136.0,64.0,133.5,61.5,132.0,60.0,131.5,59.5,129.5,57.5,127.5,55.5,126.5,54.5,125.5,53.5,125.0,53.0,124.0,52.0,122.5,50.5,72.0,0.0,72.0,0.0,72.0,309.5" stroke="black" stroke-width="1" fill="none" />
<polyline points="61.0,315.0,60.0,316.0" stroke="black" stroke-width="1" fill="none" />
<polyline points="55.0,312.0,511.5,312.0" stroke="black" stroke-width="1" fill="none" />
<polyline points="511.5,360.0,92.0,360.0,95.0,361.0,95.5,360.5,96.0,360.5,96.0,365.0,98.0,368.0,511.5,368.0" stroke="black" stroke-width="1" fill="none" />
<polyline points="472.0,390.0,472.0,511.5" stroke="black" stroke-width="1" fill="none" />
<polyline points="407.5,447.5,405.0,445.0" stroke="black" stroke-width="1" fill="none" />
<polyline points="392.0,448.0,391.0,447.0" stroke="black" stroke-width="1" fill="none" />
<polyline points="377.5,430.5,371.5,436.5,371.0,437.0,369.0,439.0,368.5,439.5,366.5,441.5,366.0,442.0,364.5,443.5,363.0,445.0,360.5,447.5" stroke="black" stroke-width="1" fill="none" />
<polyline points="357.0,443.0,358.0,442.0,361.5,441.5,366.0,446.0,365.0,451.0,364.0,452.0" stroke="black" stroke-width="1" fill="none" />
<polyline points="367.5,456.5,369.5,454.5" stroke="black" stroke-width="1" fill="none" />
<polyline points="372.0,460.0,370.5,461.5" stroke="black" stroke-width="1" fill="none" />
<polyline points="374.0,466.0,375.5,464.5" stroke="black" stroke-width="1" fill="none" />
<polyline points="370.0,442.0,365.5,437.5" stroke="black" stroke-width="1" fill="none" />
<polyline points="370.5,434.5,374.0,438.0" stroke="black" stroke-width="1" fill="none" />
<polyline points="379.0,435.0,374.5,430.5,378.5,426.5,383.0,431.0,387.0,427.0,383.5,423.5" stroke="black" stroke-width="1" fill="none" />
<polyline points="388.0,420.0,391.5,423.5" stroke="black" stroke-width="1" fill="none" />
<polyline points="396.0,420.0,392.0,416.0" stroke="black" stroke-width="1" fill="none" />
<polyline points="396.5,412.5,400.0,416.0,404.0,412.0,400.5,408.5" stroke="black" stroke-width="1" fill="none" />
<polyline points="405.0,405.0,409.0,409.0,413.0,405.0,409.5,401.5,413.5,402.5,414.0,402.0,417.0,401.0,413.5,397.5" stroke="black" stroke-width="1" fill="none" />
<polyline points="418.5,394.5,422.0,398.0,420.0,396.0,422.0,394.0,422.5,393.5,423.5,392.5,425.0,391.0,425.5,390.5,427.0,389.0,427.5,388.5,427.0,387.0,430.0,390.0" stroke="black" stroke-width="1" fill="none" />
<polyline points="434.5,386.5,431.0,383.0" stroke="black" stroke-width="1" fill="none" />
<polyline points="436.0,380.0,438.5,382.5" stroke="black" stroke-width="1" fill="none" />
<polyline points="443.0,379.0,440.0,376.0,444.0,372.0,447.0,375.0" stroke="black" stroke-width="1" fill="none" />
<polyline points="451.5,371.5,449.0,369.0" stroke="black" stroke-width="1" fill="none" />
<polyline points="456.0,367.5,456.0,511.5" stroke="black" stroke-width="1" fill="none" />
<polyline points="425.5,393.5,422.5,390.5" stroke="black" stroke-width="1" fill="none" />
<polyline points="448.0,358.0,448.0,511.5" stroke="black" stroke-width="1" fill="none" />
<polyline points="358.5,438.5,357.5,437.5,355.0,437.0,354.0,438.0,355.5,435.5,356.5,436.5" stroke="black" stroke-width="1" fill="none" />
<polyline points="351.0,433.0,350.0,434.0" stroke="black" stroke-width="1" fill="none" />
<polyline points="347.5,428.5,348.0,428.0,344.0,424.0,343.5,424.5" stroke="black" stroke-width="1" fill="none" />
<polyline points="340.0,420.0,341.0,419.0" stroke="black" stroke-width="1" fill="none" />
<polyline points="334.5,414.5,352.5,432.5" stroke="black" stroke-width="1" fill="none" />
<polyline points="333.0,411.0,334.5,409.5,331.5,411.5,331.0,411.0" stroke="black" stroke-width="1" fill="none" />
<polyline points="333.0,405.0,331.5,403.5,327.0,401.0,326.5,401.5" stroke="black" stroke-width="1" fill="none" />
<polyline points="316.5,387.5,317.5,386.5" stroke="black" stroke-width="1" fill="none" />
<polyline points="310.5,382.5,327.0,399.0" stroke="black" stroke-width="1" fill="none" />
<polyline points="309.5,378.5,310.5,377.5,309.0,373.0,307.5,371.5,307.0,371.0,305.0,369.0" stroke="black" stroke-width="1" fill="none" />
<polyline points="300.0,364.0,292.0,356.0" stroke="black" stroke-width="1" fill="none" />
<polyline points="289.0,351.0,289.5,350.5,286.0,350.0,285.0,349.0" stroke="black" stroke-width="1" fill="none" />
<polyline points="282.0,342.0,283.0,341.0,282.5,338.5,278.5,334.5,277.5,333.5,276.5,332.5" stroke="black" stroke-width="1" fill="none" />
<polyline points="272.5,327.5,273.0,327.0,271.0,327.0,275.0,331.0" stroke="black" stroke-width="1" fill="none" />
<polyline points="270.5,326.5,268.5,324.5,268.0,324.0,266.0,322.0,262.0,326.0,263.5,327.5" stroke="black" stroke-width="1" fill="none" />
<polyline points="259.0,331.0,256.5,328.5,252.5,332.5,254.0,334.0,250.0,338.0,248.0,336.0" stroke="black" stroke-width="1" fill="none" />
<polyline points="243.5,339.5,245.5,341.5" stroke="black" stroke-width="1" fill="none" />
<polyline points="241.0,345.0,239.0,343.0" stroke="black" stroke-width="1" fill="none" />
<polyline points="234.5,346.5,236.5,348.5" stroke="black" stroke-width="1" fill="none" />
<polyline points="232.0,352.0,230.0,350.0" stroke="black" stroke-width="1" fill="none" />
<polyline points="225.5,353.5,226.5,354.5" stroke="black" stroke-width="1" fill="none" />
<polyline points="223.0,359.0,221.0,357.0" stroke="black" stroke-width="1" fill="none" />
<polyline points="216.5,360.5,218.0,362.0" stroke="black" stroke-width="1" fill="none" />
<polyline points="214.5,366.5,213.0,365.0,208.5,367.5,208.0,368.0,207.0,367.0,209.5,369.5" stroke="black" stroke-width="1" fill="none" />
<polyline points="204.5,372.5,203.0,371.0" stroke="black" stroke-width="1" fill="none" />
<polyline points="198.5,374.5,200.0,376.0,196.0,380.0,194.0,378.0,190.0,382.0,189.5,381.5,185.5,385.5,186.0,386.0" stroke="black" stroke-width="1" fill="none" />
<polyline points="181.5,389.5,180.5,388.5,176.0,389.0,176.0,397.5,172.5,396.5,172.0,396.0,168.0,396.5,168.0,404.5,168.0,400.0,167.5,399.5" stroke="black" stroke-width="1" fill="none" />
<polyline points="160.0,403.0,160.0,409.0,159.0,407.0,158.5,406.5" stroke="black" stroke-width="1" fill="none" />
<polyline points="152.0,408.5,152.0,415.5" stroke="black" stroke-width="1" fill="none" />
<polyline points="144.0,417.0,144.0,419.5,144.0,420.0,144.0,428.5,146.5,429.5,147.0,429.0,146.5,432.0,511.5,432.0" stroke="black" stroke-width="1" fill="none" />
<polyline points="464.0,378.5,464.0,511.5" stroke="black" stroke-width="1" fill="none" />
<polyline points="440.0,511.5,440.0,347.5" stroke="black" stroke-width="1" fill="none" />
<polyline points="432.0,336.5,432.0,511.5" stroke="black" stroke-width="1" fill="none" />
<polyline points="279.5,511.5,278.0,510.0" stroke="black" stroke-width="1" fill="none" />
<polyline points="268.5,508.5,268.0,508.0" stroke="black" stroke-width="1" fill="none" />
<polyline points="296.0,511.5,296.0,153.0" stroke="black" stroke-width="1" fill="none" />
<polyline points="304.0,163.5,304.0,511.5" stroke="black" stroke-width="1" fill="none" />
<polyline points="368.0,511.5,368.0,251.0" stroke="black" stroke-width="1" fill="none" />
<polyline points="360.0,246.0,360.0,511.5" stroke="black" stroke-width="1" fill="none" />
<polyline points="424.0,511.5,424.0,325.0" stroke="black" stroke-width="1" fill="none" />
<polyline points="416.0,315.5,416.0,511.5" stroke="black" stroke-width="1" fill="none" />
<polyline points="408.0,511.5,408.0,305.0" stroke="black" stroke-width="1" fill="none" />
<polyline points="400.0,293.5,400.0,511.5" stroke="black" stroke-width="1" fill="none" />
<polyline points="392.0,511.5,392.0,283.5" stroke="black" stroke-width="1" fill="none" />
<polyline points="384.0,273.0,384.0,511.5" stroke="black" stroke-width="1" fill="none" />
<polyline points="376.0,511.5,376.0,261.5" stroke="black" stroke-width="1" fill="none" />
<polyline points="358.0,254.0,356.5,252.5,352.0,253.0,352.0,511.5" stroke="black" stroke-width="1" fill="none" />
<polyline points="344.0,511.5,344.0,233.0,344.0,232.0,344.0,231.5" stroke="black" stroke-width="1" fill="none" />
<polyline points="352.0,231.5,352.0,251.5,352.5,256.5,353.0,257.0" stroke="black" stroke-width="1" fill="none" />
<polyline points="344.5,264.5,343.5,263.5,339.5,267.5,338.5,266.5,334.5,270.5,335.0,271.0,331.0,275.0,329.0,273.0" stroke="black" stroke-width="1" fill="none" />
<polyline points="325.5,277.5,326.5,278.5" stroke="black" stroke-width="1" fill="none" />
<polyline points="322.0,282.0,320.0,280.0,316.0,284.0,318.0,286.0" stroke="black" stroke-width="1" fill="none" />
<polyline points="312.5,288.5,311.0,287.0,307.0,291.0,308.5,292.5" stroke="black" stroke-width="1" fill="none" />
<polyline points="303.0,295.0,302.5,294.5" stroke="black" stroke-width="1" fill="none" />
<polyline points="298.0,298.0,299.5,299.5" stroke="black" stroke-width="1" fill="none" />
<polyline points="295.0,303.0,293.0,301.0,289.0,305.0,290.5,306.5" stroke="black" stroke-width="1" fill="none" />
<polyline points="285.5,309.5,284.0,308.0" stroke="black" stroke-width="1" fill="none" />
<polyline points="279.5,311.5,281.5,313.5" stroke="black" stroke-width="1" fill="none" />
<polyline points="276.5,316.5,275.0,315.0,271.0,319.0,273.0,321.0" stroke="black" stroke-width="1" fill="none" />
<polyline points="262.0,318.0,260.5,316.5,259.5,315.5,259.0,315.0,258.5,309.5,259.0,309.0" stroke="black" stroke-width="1" fill="none" />
<polyline points="255.0,303.0,252.5,300.5,252.0,300.0,250.5,298.5" stroke="black" stroke-width="1" fill="none" />
<polyline points="244.0,292.0,245.0,291.0" stroke="black" stroke-width="1" fill="none" />
<polyline points="240.0,288.0,249.5,297.5" stroke="black" stroke-width="1" fill="none" />
<polyline points="237.0,283.0,238.0,282.0,235.5,283.5,235.0,283.0" stroke="black" stroke-width="1" fill="none" />
<polyline points="230.0,274.0,231.0,273.0" stroke="black" stroke-width="1" fill="none" />
<polyline points="220.5,259.5,221.5,258.5" stroke="black" stroke-width="1" fill="none" />
<polyline points="214.5,254.5,230.5,270.5" stroke="black" stroke-width="1" fill="none" />
<polyline points="213.5,250.5,214.5,249.5" stroke="black" stroke-width="1" fill="none" />
<polyline points="206.5,241.5,207.5,240.5" stroke="black" stroke-width="1" fill="none" />
<polyline points="199.5,232.5,200.5,231.5" stroke="black" stroke-width="1" fill="none" />
<polyline points="192.5,223.5,193.5,222.5,189.5,221.5,205.0,237.0" stroke="black" stroke-width="1" fill="none" />
<polyline points="185.5,214.5,187.0,213.0,186.5,210.5,182.5,206.5,181.5,205.5,180.5,204.5,179.5,204.5,178.5,205.5" stroke="black" stroke-width="1" fill="none" />
<polyline points="170.5,202.5,168.0,200.0" stroke="black" stroke-width="1" fill="none" />
<polyline points="163.5,203.5,166.0,206.0,163.0,205.0,162.5,205.5,159.0,207.0,161.5,209.5" stroke="black" stroke-width="1" fill="none" />
<polyline points="157.0,213.0,156.5,212.5,156.0,212.0,154.5,210.5" stroke="black" stroke-width="1" fill="none" />
<polyline points="149.5,213.5,152.0,216.0" stroke="black" stroke-width="1" fill="none" />
<polyline points="147.5,219.5,144.5,216.5" stroke="black" stroke-width="1" fill="none" />
<polyline points="140.0,220.0,142.5,222.5" stroke="black" stroke-width="1" fill="none" />
<polyline points="135.5,224.5,135.0,225.0,135.0,223.0,137.5,225.5,133.5,226.5,133.0,227.0,131.0,227.0,133.5,229.5" stroke="black" stroke-width="1" fill="none" />
<polyline points="128.5,232.5,126.0,230.0" stroke="black" stroke-width="1" fill="none" />
<polyline points="121.5,233.5,123.5,235.5" stroke="black" stroke-width="1" fill="none" />
<polyline points="119.0,239.0,116.5,236.5" stroke="black" stroke-width="1" fill="none" />
<polyline points="112.0,240.0,115.0,243.0" stroke="black" stroke-width="1" fill="none" />
<polyline points="109.5,245.5,107.0,243.0,106.5,245.5,105.5,246.5,102.5,246.5,105.5,249.5" stroke="black" stroke-width="1" fill="none" />
<polyline points="100.5,252.5,98.0,250.0" stroke="black" stroke-width="1" fill="none" />
<polyline points="93.0,253.0,96.0,256.0" stroke="black" stroke-width="1" fill="none" />
<polyline points="91.5,259.5,88.5,256.5" stroke="black" stroke-width="1" fill="none" />
<polyline points="83.5,259.5,86.5,262.5" stroke="black" stroke-width="1" fill="none" />
<polyline points="82.0,266.0,79.0,263.0" stroke="black" stroke-width="1" fill="none" />
<polyline points="74.5,266.5,77.0,269.0" stroke="black" stroke-width="1" fill="none" />
<polyline points="71.5,271.5,69.0,269.0" stroke="black" stroke-width="1" fill="none" />
<polyline points="64.5,272.5,67.5,275.5" stroke="black" stroke-width="1" fill="none" />
<polyline points="62.0,278.0,60.0,276.0" stroke="black" stroke-width="1" fill="none" />
<polyline points="55.5,279.5,58.0,282.0,54.5,281.5,53.5,282.5,53.0,285.0,50.5,282.5,46.5,286.5,48.0,288.0" stroke="black" stroke-width="1" fill="none" />
<polyline points="44.5,292.5,48.0,296.0,47.5,296.5,46.0,298.0,42.5,296.0,511.5,296.0" stroke="black" stroke-width="1" fill="none" />
<polyline points="511.5,328.0,67.5,328.0,70.5,329.5,71.0,329.0,72.0,326.5,72.0,333.0,74.0,334.0,74.5,333.5,73.5,336.0,511.5,336.0" stroke="black" stroke-width="1" fill="none" />
<polyline points="511.5,408.0,128.0,408.0,128.0,407.5,128.0,402.5" stroke="black" stroke-width="1" fill="none" />
<polyline points="122.0,400.0,511.5,400.0" stroke="black" stroke-width="1" fill="none" />
<polyline points="511.5,504.0,200.5,504.0,201.0,503.0,202.5,501.5,200.0,502.5,200.0,495.5,195.5,492.5,194.5,493.5,194.5,496.0,511.5,496.0" stroke="black" stroke-width="1" fill="none" />
<polyline points="336.0,511.5,336.0,234.0,336.0,233.5,336.0,229.0" stroke="black" stroke-width="1" fill="none" />
<polyline points="344.0,230.5,344.0,219.5" stroke="black" stroke-width="1" fill="none" />
<polyline points="336.0,227.0,336.0,208.0" stroke="black" stroke-width="1" fill="none" />
<polyline points="328.0,198.0,328.0,511.5" stroke="black" stroke-width="1" fill="none" />
<polyline points="320.0,511.5,320.0,225.5,320.0,224.0,320.0,186.0" stroke="black" stroke-width="1" fill="none" />
<polyline points="312.0,180.0,312.0,194.5,312.0,195.5,312.0,196.0,312.0,196.5,312.0,511.5" stroke="black" stroke-width="1" fill="none" />
<polyline points="288.0,511.5,288.0,142.0" stroke="black" stroke-width="1" fill="none" />
<polyline points="280.0,130.0,280.0,511.5" stroke="black" stroke-width="1" fill="none" />
<polyline points="272.0,511.5,272.0,120.0" stroke="black" stroke-width="1" fill="none" />
<polyline points="272.0,128.0,273.0,129.0" stroke="black" stroke-width="1" fill="none" />
<polyline points="268.5,132.5,267.0,131.0" stroke="black" stroke-width="1" fill="none" />
<polyline points="262.5,134.5,264.0,136.0" stroke="black" stroke-width="1" fill="none" />
<polyline points="259.0,139.0,258.0,138.0" stroke="black" stroke-width="1" fill="none" />
<polyline points="254.5,142.5,253.0,141.0,249.0,145.0,249.5,145.5,245.5,149.5,243.5,147.5,239.5,151.5,240.5,152.5" stroke="black" stroke-width="1" fill="none" />
<polyline points="236.0,156.0,234.5,154.5" stroke="black" stroke-width="1" fill="none" />
<polyline points="231.0,159.0,229.5,157.5" stroke="black" stroke-width="1" fill="none" />
<polyline points="225.0,161.0,227.0,163.0" stroke="black" stroke-width="1" fill="none" />
<polyline points="222.0,166.0,220.0,164.0,216.0,168.0,217.0,169.0,213.0,173.0,211.0,171.0" stroke="black" stroke-width="1" fill="none" />
<polyline points="206.5,174.5,207.5,175.5" stroke="black" stroke-width="1" fill="none" />
<polyline points="204.0,180.0,201.5,177.5" stroke="black" stroke-width="1" fill="none" />
<polyline points="197.0,181.0,199.0,183.0" stroke="black" stroke-width="1" fill="none" />
<polyline points="194.0,186.0,192.0,184.0" stroke="black" stroke-width="1" fill="none" />
<polyline points="187.5,187.5,189.0,189.0,185.0,191.0,184.5,191.5,183.0,191.0,185.0,193.0" stroke="black" stroke-width="1" fill="none" />
<polyline points="179.5,195.5,178.0,194.0" stroke="black" stroke-width="1" fill="none" />
<polyline points="170.0,194.0,179.0,203.0" stroke="black" stroke-width="1" fill="none" />
<polyline points="169.0,191.0,170.0,190.0,168.5,192.5,164.5,188.5" stroke="black" stroke-width="1" fill="none" />
<polyline points="162.0,182.0,163.0,181.0" stroke="black" stroke-width="1" fill="none" />
<polyline points="159.0,175.0,156.5,172.5,155.5,172.5,155.0,173.0" stroke="black" stroke-width="1" fill="none" />
<polyline points="148.0,164.0,149.0,163.0" stroke="black" stroke-width="1" fill="none" />
<polyline points="142.0,158.0,156.0,172.0" stroke="black" stroke-width="1" fill="none" />
<polyline points="141.0,157.0,140.5,156.5,141.0,155.0,142.5,153.5,140.0,156.0,138.5,154.5" stroke="black" stroke-width="1" fill="none" />
<polyline points="134.0,146.0,135.5,144.5,131.5,140.5,132.0,140.0,128.0,136.0,127.0,137.0" stroke="black" stroke-width="1" fill="none" />
<polyline points="124.0,132.0,125.5,130.5,121.5,126.5,120.0,128.0" stroke="black" stroke-width="1" fill="none" />
<polyline points="117.0,123.0,118.5,121.5,115.0,123.0,133.5,141.5" stroke="black" stroke-width="1" fill="none" />
<polyline points="114.5,122.5,112.5,120.5,113.0,119.0,114.5,117.5,112.0,120.0,111.0,119.0,110.5,113.5,111.5,112.5,110.5,110.5,117.0,117.0" stroke="black" stroke-width="1" fill="none" />
<polyline points="107.5,108.5,107.0,109.0,103.0,105.0,104.5,103.5" stroke="black" stroke-width="1" fill="none" />
<polyline points="103.5,95.5,102.0,94.0,98.0,94.0,96.5,95.5" stroke="black" stroke-width="1" fill="none" />
<polyline points="93.5,90.5,94.5,89.5,97.5,89.5,98.0,90.0,102.0,86.0,103.0,87.0" stroke="black" stroke-width="1" fill="none" />
<polyline points="96.0,88.0,93.5,85.5,91.0,85.0,89.5,86.5,93.0,85.0,8.0,0.0,8.0,0.0,8.0,303.5" stroke="black" stroke-width="1" fill="none" />
<polyline points="0.0,304.0,26.0,304.0,26.0,302.0,27.5,300.5,28.5,299.5,29.5,298.5,28.5,300.5,27.0,299.0,24.0,299.5,24.0,305.0,24.0,304.0,22.5,302.5,18.5,306.5,18.0,306.0,16.0,306.5,16.0,310.5" stroke="black" stroke-width="1" fill="none" />
<polyline points="16.0,304.5,16.0,303.0" stroke="black" stroke-width="1" fill="none" />
<polyline points="24.0,299.0,24.0,0.0,24.0,0.0,82.0,58.0,83.0,59.0,97.5,73.5" stroke="black" stroke-width="1" fill="none" />
<polyline points="88.0,80.0,87.0,81.0,84.5,84.5,109.5,109.5" stroke="black" stroke-width="1" fill="none" />
<polyline points="125.0,85.0,123.5,83.5" stroke="black" stroke-width="1" fill="none" />
<polyline points="116.0,76.0,115.5,75.5" stroke="black" stroke-width="1" fill="none" />
<polyline points="120.0,64.0,116.5,60.5,116.0,60.0,115.5,59.5,114.5,58.5,112.0,56.0" stroke="black" stroke-width="1" fill="none" />
<polyline points="107.0,53.0,111.5,48.5,113.0,47.0,114.0,46.0,110.5,46.5,117.0,53.0,120.0,56.0,122.5,58.5" stroke="black" stroke-width="1" fill="none" />
<polyline points="128.5,48.5,134.0,54.0,135.5,55.5,137.0,57.0,138.0,58.0,138.5,58.5" stroke="black" stroke-width="1" fill="none" />
<polyline points="141.0,53.0,138.5,50.5" stroke="black" stroke-width="1" fill="none" />
<polyline points="138.5,42.5,136.5,40.5,135.5,39.5,96.0,0.0,96.0,0.0,96.0,310.0,96.0,311.5,96.0,318.5,96.0,319.5,96.0,321.5,96.0,325.5,96.0,327.5,96.0,328.0,96.0,328.5" stroke="black" stroke-width="1" fill="none" />
<polyline points="104.0,328.0,104.0,325.0,104.0,322.5,104.0,318.5" stroke="black" stroke-width="1" fill="none" />
<polyline points="112.0,320.0,112.0,313.0,112.0,312.0,112.0,309.5" stroke="black" stroke-width="1" fill="none" />
<polyline points="120.0,320.0,120.0,321.0" stroke="black" stroke-width="1" fill="none" />
<polyline points="120.0,327.5,120.0,329.5,120.0,331.0,120.0,332.5" stroke="black" stroke-width="1" fill="none" />
<polyline points="112.0,332.5,112.0,331.0,112.0,328.0,112.0,327.0" stroke="black" stroke-width="1" fill="none" />
<polyline points="128.0,329.0,128.0,322.0" stroke="black" stroke-width="1" fill="none" />
<polyline points="136.0,323.5,136.0,328.5,136.0,334.0,136.0,338.5,136.0,339.5,136.0,340.0" stroke="black" stroke-width="1" fill="none" />
<polyline points="144.0,339.0,144.0,345.5,144.0,348.0,144.0,350.0" stroke="black" stroke-width="1" fill="none" />
<polyline points="144.0,356.0,144.0,356.5" stroke="black" stroke-width="1" fill="none" />
<polyline points="136.0,356.5,136.0,358.0,136.0,362.5,136.0,363.5,136.0,364.0,136.0,364.5" stroke="black" stroke-width="1" fill="none" />
<polyline points="144.0,365.5,144.0,366.5" stroke="black" stroke-width="1" fill="none" />
<polyline points="152.0,366.5,152.0,365.0,152.0,360.5,152.0,358.5,152.0,356.0,152.0,354.0" stroke="black" stroke-width="1" fill="none" />
<polyline points="160.0,351.5,160.0,360.5,160.0,362.5,160.0,376.5" stroke="black" stroke-width="1" fill="none" />
<polyline points="168.0,385.5,168.0,386.0" stroke="black" stroke-width="1" fill="none" />
<polyline points="176.0,383.5,176.0,380.0,176.0,377.5,176.0,372.0" stroke="black" stroke-width="1" fill="none" />
<polyline points="184.0,379.0,184.0,395.5,184.0,400.5,184.0,403.5,184.0,406.0,184.0,408.5" stroke="black" stroke-width="1" fill="none" />
<polyline points="192.0,407.5,192.0,410.0,192.0,413.0,192.0,413.5,192.0,419.0,192.0,422.5,192.0,426.5,192.0,429.0" stroke="black" stroke-width="1" fill="none" />
<polyline points="200.0,430.0,200.0,427.0,200.0,424.5,200.0,420.0,200.0,417.0,200.0,413.0,200.0,412.0,200.0,409.5,200.0,407.5,200.0,405.0" stroke="black" stroke-width="1" fill="none" />
<polyline points="208.0,412.0,208.0,32.0" stroke="black" stroke-width="1" fill="none" />
<polyline points="200.0,21.5,200.0,392.0,200.0,392.5,200.0,404.5" stroke="black" stroke-width="1" fill="none" />
<polyline points="192.0,405.5,192.0,393.0,192.0,389.0,192.0,11.0" stroke="black" stroke-width="1" fill="none" />
<polyline points="184.0,8.0,179.0,3.0,179.5,4.5,179.0,5.0,178.0,6.0,176.5,7.5,176.0,8.0,174.0,10.0,173.5,5.5,179.0,11.0" stroke="black" stroke-width="1" fill="none" />
<polyline points="173.5,13.5,169.0,9.0" stroke="black" stroke-width="1" fill="none" />
<polyline points="171.5,3.5,168.0,0.0,168.0,0.0,168.0,362.5,168.0,363.5,168.0,371.0" stroke="black" stroke-width="1" fill="none" />
<polyline points="184.0,378.0,184.0,0.0" stroke="black" stroke-width="1" fill="none" />
<polyline points="176.0,0.0,176.0,351.0,176.0,352.0,176.0,371.5" stroke="black" stroke-width="1" fill="none" />
<polyline points="176.0,402.0,176.0,402.5" stroke="black" stroke-width="1" fill="none" />
<polyline points="184.0,417.0,184.0,417.5" stroke="black" stroke-width="1" fill="none" />
<polyline points="208.0,416.0,208.0,423.0,208.0,424.0,208.0,435.0,208.0,437.0,208.0,446.0,208.0,451.5,208.0,458.5,208.0,463.5,208.0,464.5,208.0,468.5,208.0,472.0,208.0,476.0,208.0,477.5" stroke="black" stroke-width="1" fill="none" />
<polyline points="208.0,485.0,208.0,490.0" stroke="black" stroke-width="1" fill="none" />
<polyline points="216.0,488.5,216.0,491.5,216.0,495.0,216.0,498.0,216.0,501.5,216.0,503.0" stroke="black" stroke-width="1" fill="none" />
<polyline points="208.0,507.0,208.0,511.5,208.5,511.5,209.0,511.0,207.5,511.5,207.0,511.0" stroke="black" stroke-width="1" fill="none" />
<polyline points="224.0,511.5,224.0,499.0,224.0,495.0,224.0,490.5,224.0,489.5,224.0,482.0,224.0,480.5,224.0,55.0" stroke="black" stroke-width="1" fill="none" />
<polyline points="232.0,65.0,232.0,511.5" stroke="black" stroke-width="1" fill="none" />
<polyline points="248.0,511.5,248.0,87.0" stroke="black" stroke-width="1" fill="none" />
<polyline points="240.0,76.0,240.0,491.5,240.0,492.5,240.0,511.5" stroke="black" stroke-width="1" fill="none" />
<polyline points="264.0,511.5,264.0,108.0" stroke="black" stroke-width="1" fill="none" />
<polyline points="256.0,98.0,256.0,511.5" stroke="black" stroke-width="1" fill="none" />
<polyline points="216.0,486.5,216.0,479.5" stroke="black" stroke-width="1" fill="none" />
<polyline points="216.0,473.5,216.0,468.5" stroke="black" stroke-width="1" fill="none" />
<polyline points="216.0,462.5,216.0,454.0,216.0,450.5,216.0,449.0,216.0,447.0,216.0,411.0,216.0,408.0,216.0,43.5" stroke="black" stroke-width="1" fill="none" />
<polyline points="230.5,33.5,234.0,30.0,232.0,25.5,232.0,38.0,234.0,38.0,236.5,35.5,240.0,34.5,240.0,37.0,240.0,38.0,240.0,48.0,241.0,47.0,244.5,43.5,247.5,40.5,265.5,22.5,268.5,19.5,269.5,18.5" stroke="black" stroke-width="1" fill="none" />
<polyline points="274.0,22.0,272.0,24.0,269.0,27.0,251.0,45.0,248.5,48.5,249.5,49.5" stroke="black" stroke-width="1" fill="none" />
<polyline points="254.5,57.5,251.0,61.0" stroke="black" stroke-width="1" fill="none" />
<polyline points="254.5,65.5,258.0,62.0,262.0,62.0,263.5,63.5,261.0,59.0,282.5,37.5" stroke="black" stroke-width="1" fill="none" />
<polyline points="287.5,48.5,268.0,68.0,264.5,71.5,261.5,74.5" stroke="black" stroke-width="1" fill="none" />
<polyline points="271.0,79.0,272.5,80.5,272.0,80.0,268.0,84.0" stroke="black" stroke-width="1" fill="none" />
<polyline points="278.5,97.5,281.5,94.5" stroke="black" stroke-width="1" fill="none" />
<polyline points="288.0,103.5,288.0,113.0,288.5,112.5,289.0,113.0,288.5,111.5,292.0,108.0" stroke="black" stroke-width="1" fill="none" />
<polyline points="296.0,113.5,296.0,124.5,298.5,125.5,302.5,121.5,304.0,120.0,304.5,120.5,304.0,119.5,304.0,121.5,304.0,124.5,304.0,135.0,305.5,134.5,309.0,131.0,312.5,128.5,446.5,262.5" stroke="black" stroke-width="1" fill="none" />
<polyline points="474.0,248.0,0.0,248.0,1.5,249.5,2.5,250.5,3.0,251.0,6.0,254.0,10.5,253.5,12.5,251.5,16.0,248.0,15.5,247.5,19.5,243.5,20.5,244.5" stroke="black" stroke-width="1" fill="none" />
<polyline points="14.5,238.5,13.5,237.5,12.5,236.5,12.0,236.0,10.5,234.5,8.5,232.5,4.5,236.5,4.0,236.0,3.0,237.0,0.5,239.5,0.0,240.0,467.5,240.0" stroke="black" stroke-width="1" fill="none" />
<polyline points="478.0,232.0,480.0,232.0,480.5,232.0,511.5,232.0" stroke="black" stroke-width="1" fill="none" />
<polyline points="511.5,256.0,493.5,256.0" stroke="black" stroke-width="1" fill="none" />
<polyline points="489.0,248.0,511.5,248.0" stroke="black" stroke-width="1" fill="none" />
<polyline points="511.5,264.0,498.5,264.0" stroke="black" stroke-width="1" fill="none" />
<polyline points="503.5,288.0,0.0,288.0" stroke="black" stroke-width="1" fill="none" />
<polyline points="0.0,296.0,38.5,296.0,38.0,294.0,36.5,292.5,39.0,289.0,40.0,288.0" stroke="black" stroke-width="1" fill="none" />
<polyline points="43.5,292.5,42.5,293.5" stroke="black" stroke-width="1" fill="none" />
<polyline points="34.0,298.0,32.0,296.0" stroke="black" stroke-width="1" fill="none" />
<polyline points="32.5,279.5,33.0,279.0,29.0,275.0,30.5,273.5" stroke="black" stroke-width="1" fill="none" />
<polyline points="26.0,270.0,25.0,271.0" stroke="black" stroke-width="1" fill="none" />
<polyline points="21.5,266.5,23.0,265.0,25.0,265.0,25.5,265.5,23.0,263.0,22.5,262.5,19.0,261.0,18.0,262.0,18.0,266.0,43.5,291.5,40.0,294.5,40.0,0.0,40.0,0.0,109.0,69.0" stroke="black" stroke-width="1" fill="none" />
<polyline points="101.5,58.5,102.5,57.5,104.0,56.0,105.5,54.5,106.0,54.0,106.5,53.5,111.5,55.5,102.5,46.5" stroke="black" stroke-width="1" fill="none" />
<polyline points="93.0,59.0,92.5,59.5,92.0,60.0,89.5,62.5,89.0,63.0,83.5,68.5,82.5,69.5,80.0,72.0,84.0,76.0,82.5,77.5,81.5,81.5,82.0,82.0,82.5,82.5,83.0,83.0" stroke="black" stroke-width="1" fill="none" />
<polyline points="78.0,86.0,81.0,89.0,82.0,90.0,83.5,91.5" stroke="black" stroke-width="1" fill="none" />
<polyline points="81.5,97.5,82.0,98.0" stroke="black" stroke-width="1" fill="none" />
<polyline points="79.0,103.0,80.0,104.0" stroke="black" stroke-width="1" fill="none" />
<polyline points="73.0,105.0,72.0,104.0,71.5,103.5,70.5,102.5,68.0,100.0,67.0,99.0,66.5,98.5,64.0,96.0,61.5,93.5,60.5,92.5" stroke="black" stroke-width="1" fill="none" />
<polyline points="57.0,97.0,55.0,95.0,57.5,97.5,59.0,99.0,62.0,102.0,63.5,103.5" stroke="black" stroke-width="1" fill="none" />
<polyline points="68.5,108.5,70.0,110.0" stroke="black" stroke-width="1" fill="none" />
<polyline points="63.5,119.5,66.0,122.0" stroke="black" stroke-width="1" fill="none" />
<polyline points="60.5,124.5,60.0,124.0,57.5,121.5,56.5,120.5" stroke="black" stroke-width="1" fill="none" />
<polyline points="54.0,126.0,55.0,127.0" stroke="black" stroke-width="1" fill="none" />
<polyline points="51.5,131.5,52.0,132.0" stroke="black" stroke-width="1" fill="none" />
<polyline points="44.0,132.0,41.0,129.0,38.0,126.0,37.5,125.5" stroke="black" stroke-width="1" fill="none" />
<polyline points="32.5,128.5,32.0,128.0,31.5,127.5,28.5,124.5,28.0,124.0,26.0,122.0" stroke="black" stroke-width="1" fill="none" />
<polyline points="21.5,125.5,20.0,124.0,19.5,123.5,19.0,123.0,18.0,122.0,17.5,121.5" stroke="black" stroke-width="1" fill="none" />
<polyline points="15.5,127.5,16.0,128.0,18.5,130.5,19.5,131.5,21.0,133.0,23.0,135.0,24.5,136.5,25.5,137.5,26.0,138.0,26.5,138.5,27.5,139.5,31.0,143.0,33.0,145.0,33.5,145.5,36.0,148.0,37.5,149.5" stroke="black" stroke-width="1" fill="none" />
<polyline points="41.0,145.0,42.0,146.0" stroke="black" stroke-width="1" fill="none" />
<polyline points="47.0,151.0,48.0,152.0" stroke="black" stroke-width="1" fill="none" />
<polyline points="38.5,142.5,35.5,139.5,34.5,138.5,33.5,137.5,32.0,136.0,30.5,134.5,29.0,133.0,27.5,131.5,26.5,130.5,24.0,128.0" stroke="black" stroke-width="1" fill="none" />
<polyline points="18.0,138.0,23.5,143.5,24.0,144.0,27.5,147.5,29.5,149.5,31.5,151.5" stroke="black" stroke-width="1" fill="none" />
<polyline points="26.0,154.0,23.0,151.0,21.5,149.5,20.5,148.5,18.0,146.0,17.5,145.5,14.5,142.5,11.0,139.0,8.5,136.5,7.0,135.0,4.0,132.0,3.5,131.5,0.0,128.0,308.5,128.0,312.5,127.5,331.5,108.5" stroke="black" stroke-width="1" fill="none" />
<polyline points="334.5,113.5,316.0,132.0" stroke="black" stroke-width="1" fill="none" />
<polyline points="319.5,136.5,325.0,131.0,326.5,129.5,338.5,117.5,339.0,115.0,338.5,114.5" stroke="black" stroke-width="1" fill="none" />
<polyline points="345.0,127.0,326.5,145.5,323.0,147.0,322.5,146.5,320.0,146.5,320.0,157.5,322.5,157.5,325.5,154.5" stroke="black" stroke-width="1" fill="none" />
<polyline points="322.0,150.0,319.0,153.0" stroke="black" stroke-width="1" fill="none" />
<polyline points="315.5,148.5,319.0,145.0,318.5,142.5,318.0,142.0,315.5,140.5,312.0,144.0" stroke="black" stroke-width="1" fill="none" />
<polyline points="313.5,137.5,313.0,137.0,312.0,136.5,312.0,146.0" stroke="black" stroke-width="1" fill="none" />
<polyline points="320.0,141.0,320.0,0.0,320.0,0.0,372.5,52.5,368.5,56.5,312.0,0.0,312.0,0.0,312.0,129.0" stroke="black" stroke-width="1" fill="none" />
<polyline points="306.0,126.0,302.0,130.0" stroke="black" stroke-width="1" fill="none" />
<polyline points="295.5,120.5,298.5,117.5,301.5,114.5,317.5,98.5" stroke="black" stroke-width="1" fill="none" />
<polyline points="322.5,101.5,305.5,118.5" stroke="black" stroke-width="1" fill="none" />
<polyline points="292.0,100.0,310.0,82.0" stroke="black" stroke-width="1" fill="none" />
<polyline points="316.0,76.0,316.5,76.5,318.5,78.5,332.0,92.0" stroke="black" stroke-width="1" fill="none" />
<polyline points="325.0,101.0,332.5,108.5" stroke="black" stroke-width="1" fill="none" />
<polyline points="341.5,122.5,329.5,134.5,329.0,135.0,322.5,141.5,321.5,144.0,395.0,144.0,397.5,144.0,399.0,144.0" stroke="black" stroke-width="1" fill="none" />
<polyline points="392.0,140.0,392.0,162.5,392.0,164.0,392.0,186.5" stroke="black" stroke-width="1" fill="none" />
<polyline points="375.0,177.0,367.0,185.0,366.5,185.5,360.0,192.0" stroke="black" stroke-width="1" fill="none" />
<polyline points="355.5,187.5,354.0,186.0,353.0,183.0,358.5,177.5" stroke="black" stroke-width="1" fill="none" />
<polyline points="355.5,172.5,350.0,178.0,345.0,176.0,419.5,176.0" stroke="black" stroke-width="1" fill="none" />
<polyline points="425.0,184.0,351.0,184.0,349.5,186.5,346.0,190.0" stroke="black" stroke-width="1" fill="none" />
<polyline points="342.5,185.5,345.5,182.5,344.0,177.5,344.0,190.0" stroke="black" stroke-width="1" fill="none" />
<polyline points="339.0,181.0,343.0,177.0" stroke="black" stroke-width="1" fill="none" />
<polyline points="339.5,172.5,336.0,176.0" stroke="black" stroke-width="1" fill="none" />
<polyline points="332.5,171.5,336.0,168.0,336.0,168.0,336.0,178.5" stroke="black" stroke-width="1" fill="none" />
<polyline points="343.0,176.0,0.0,176.0" stroke="black" stroke-width="1" fill="none" />
<polyline points="4.5,172.5,5.5,173.5,3.5,171.5,3.0,171.0,0.0,168.0,339.5,168.0,340.0,168.0,414.0,168.0" stroke="black" stroke-width="1" fill="none" />
<polyline points="423.0,160.0,511.5,160.0" stroke="black" stroke-width="1" fill="none" />
<polyline points="511.5,95.5,416.0,0.0" stroke="black" stroke-width="1" fill="none" />
<polyline points="408.0,0.0,408.0,85.0" stroke="black" stroke-width="1" fill="none" />
<polyline points="400.0,74.5,400.0,0.0,400.0,0.0,511.5,111.5" stroke="black" stroke-width="1" fill="none" />
<polyline points="511.5,103.5,408.0,0.0,408.0,0.0,348.5,59.5" stroke="black" stroke-width="1" fill="none" />
<polyline points="342.0,58.0,400.0,0.0" stroke="black" stroke-width="1" fill="none" />
<polyline points="392.0,0.0,392.0,66.5" stroke="black" stroke-width="1" fill="none" />
<polyline points="384.0,62.5,384.0,60.5" stroke="black" stroke-width="1" fill="none" />
<polyline points="349.5,66.5,348.5,67.5" stroke="black" stroke-width="1" fill="none" />
<polyline points="342.5,65.5,338.5,69.5" stroke="black" stroke-width="1" fill="none" />
<polyline points="335.0,65.0,339.5,60.5" stroke="black" stroke-width="1" fill="none" />
<polyline points="332.0,60.0,392.0,0.0,392.0,0.0,511.5,119.5" stroke="black" stroke-width="1" fill="none" />
<polyline points="511.5,127.5,384.0,0.0,384.0,0.0,384.0,60.0" stroke="black" stroke-width="1" fill="none" />
<polyline points="352.5,87.5,352.0,88.0,352.0,87.0,352.0,183.5" stroke="black" stroke-width="1" fill="none" />
<polyline points="343.5,168.5,348.5,163.5" stroke="black" stroke-width="1" fill="none" />
<polyline points="345.5,158.5,339.5,164.5" stroke="black" stroke-width="1" fill="none" />
<polyline points="357.0,141.0,221.5,5.5,220.5,3.5,224.0,0.0,224.0,0.0,224.0,11.0,223.5,8.5,232.0,0.0,232.0,0.0,232.0,21.0,234.5,21.5,254.0,2.0,256.0,0.0,256.0,54.0" stroke="black" stroke-width="1" fill="none" />
<polyline points="245.0,37.0,363.0,155.0" stroke="black" stroke-width="1" fill="none" />
<polyline points="367.5,143.5,375.5,151.5,378.5,154.5,379.0,155.0" stroke="black" stroke-width="1" fill="none" />
<polyline points="392.0,136.0,394.0,136.0,389.0,136.0,0.0,136.0,0.0,136.0,1.0,137.0" stroke="black" stroke-width="1" fill="none" />
<polyline points="0.0,144.0,320.0,144.0" stroke="black" stroke-width="1" fill="none" />
<polyline points="312.0,175.5,312.0,179.5" stroke="black" stroke-width="1" fill="none" />
<polyline points="360.0,241.0,360.0,245.5" stroke="black" stroke-width="1" fill="none" />
<polyline points="360.0,194.0,360.0,96.5,359.5,96.5,358.5,97.5" stroke="black" stroke-width="1" fill="none" />
<polyline points="355.5,91.5,349.0,85.0,349.0,83.0,349.5,82.5,348.5,84.5,346.5,82.5,345.5,78.5,346.0,78.0" stroke="black" stroke-width="1" fill="none" />
<polyline points="348.5,68.5,295.0,15.0,297.0,15.0,312.0,0.0" stroke="black" stroke-width="1" fill="none" />
<polyline points="304.0,0.0,304.0,117.5" stroke="black" stroke-width="1" fill="none" />
<polyline points="325.5,77.5,322.5,74.5" stroke="black" stroke-width="1" fill="none" />
<polyline points="313.5,73.5,312.0,72.0" stroke="black" stroke-width="1" fill="none" />
<polyline points="328.0,56.0,384.0,0.0" stroke="black" stroke-width="1" fill="none" />
<polyline points="376.0,0.0,376.0,51.5" stroke="black" stroke-width="1" fill="none" />
<polyline points="363.5,59.5,304.0,0.0,304.0,0.0,293.5,10.5" stroke="black" stroke-width="1" fill="none" />
<polyline points="290.0,6.0,296.0,0.0,296.0,0.0,296.0,107.0" stroke="black" stroke-width="1" fill="none" />
<polyline points="345.0,89.0,364.5,108.5" stroke="black" stroke-width="1" fill="none" />
<polyline points="363.0,115.0,366.0,118.0" stroke="black" stroke-width="1" fill="none" />
<polyline points="396.0,128.0,511.5,128.0" stroke="black" stroke-width="1" fill="none" />
<polyline points="511.5,135.5,376.0,0.0,376.0,0.0,325.0,51.0,323.5,51.5,324.5,52.5,326.0,54.0,343.5,71.5" stroke="black" stroke-width="1" fill="none" />
<polyline points="321.0,47.0,368.0,0.0,368.0,0.0,368.0,57.5" stroke="black" stroke-width="1" fill="none" />
<polyline points="317.5,42.5,360.0,0.0,360.0,0.0,360.0,62.5" stroke="black" stroke-width="1" fill="none" />
<polyline points="314.0,38.0,352.0,0.0" stroke="black" stroke-width="1" fill="none" />
<polyline points="360.0,0.0,511.5,151.5" stroke="black" stroke-width="1" fill="none" />
<polyline points="511.5,143.5,368.0,0.0" stroke="black" stroke-width="1" fill="none" />
<polyline points="344.0,0.0,311.0,33.0" stroke="black" stroke-width="1" fill="none" />
<polyline points="305.0,31.0,336.0,0.0" stroke="black" stroke-width="1" fill="none" />
<polyline points="328.0,0.0,303.5,24.5,302.5,25.5,300.5,27.5" stroke="black" stroke-width="1" fill="none" />
<polyline points="297.0,23.0,298.5,21.5,300.0,20.0,320.0,0.0" stroke="black" stroke-width="1" fill="none" />
<polyline points="296.0,0.0,358.5,62.5" stroke="black" stroke-width="1" fill="none" />
<polyline points="353.0,65.0,288.0,0.0,288.0,0.0,288.0,100.0" stroke="black" stroke-width="1" fill="none" />
<polyline points="311.5,47.5,310.0,46.0" stroke="black" stroke-width="1" fill="none" />
<polyline points="293.0,19.0,293.5,18.5,289.0,17.0,313.5,41.5" stroke="black" stroke-width="1" fill="none" />
<polyline points="287.0,23.0,285.5,21.5" stroke="black" stroke-width="1" fill="none" />
<polyline points="281.0,17.0,277.5,13.5,276.5,12.5,272.0,8.0,271.5,7.5,264.0,0.0,264.0,0.0,264.0,64.5" stroke="black" stroke-width="1" fill="none" />
<polyline points="240.5,39.5,237.5,42.5" stroke="black" stroke-width="1" fill="none" />
<polyline points="244.5,36.5,241.5,33.5,241.0,31.0,260.0,12.0,262.0,14.0,283.0,35.0" stroke="black" stroke-width="1" fill="none" />
<polyline points="281.0,25.0,268.5,12.5,268.0,12.0,267.5,11.5,263.5,8.5,263.0,9.0,267.0,5.0,267.5,4.5" stroke="black" stroke-width="1" fill="none" />
<polyline points="272.0,0.0,272.0,75.5" stroke="black" stroke-width="1" fill="none" />
<polyline points="244.5,35.5,262.5,17.5" stroke="black" stroke-width="1" fill="none" />
<polyline points="258.5,5.5,237.5,26.5" stroke="black" stroke-width="1" fill="none" />
<polyline points="230.5,25.5,227.0,29.0" stroke="black" stroke-width="1" fill="none" />
<polyline points="224.0,24.0,227.0,21.0,228.5,20.5,229.0,21.0,230.5,17.5,248.0,0.0,248.0,0.0,248.0,43.0" stroke="black" stroke-width="1" fill="none" />
<polyline points="224.0,16.0,220.5,19.5,220.0,20.0,245.5,45.5" stroke="black" stroke-width="1" fill="none" />
<polyline points="226.0,14.0,240.0,0.0,240.0,0.0,240.0,32.0" stroke="black" stroke-width="1" fill="none" />
<polyline points="224.5,16.5,223.5,15.5,224.0,14.5,224.0,27.5" stroke="black" stroke-width="1" fill="none" />
<polyline points="217.5,14.5,220.0,12.0" stroke="black" stroke-width="1" fill="none" />
<polyline points="216.5,7.5,213.5,10.5" stroke="black" stroke-width="1" fill="none" />
<polyline points="210.5,5.5,213.0,3.0,216.0,4.0,216.0,16.0" stroke="black" stroke-width="1" fill="none" />
<polyline points="220.5,4.5,218.0,2.0" stroke="black" stroke-width="1" fill="none" />
<polyline points="224.0,0.0,320.0,96.0" stroke="black" stroke-width="1" fill="none" />
<polyline points="292.0,52.0,240.0,0.0" stroke="black" stroke-width="1" fill="none" />
<polyline points="232.0,0.0,309.0,77.0" stroke="black" stroke-width="1" fill="none" />
<polyline points="286.5,1.5,288.0,0.0" stroke="black" stroke-width="1" fill="none" />
<polyline points="280.0,0.0,280.0,87.0" stroke="black" stroke-width="1" fill="none" />
<polyline points="267.0,11.0,258.0,2.0" stroke="black" stroke-width="1" fill="none" />
<polyline points="248.0,0.0,261.5,13.5" stroke="black" stroke-width="1" fill="none" />
<polyline points="220.0,12.0,208.0,0.0,208.0,0.0,208.0,5.5,207.0,1.0,208.0,0.0" stroke="black" stroke-width="1" fill="none" />
<polyline points="168.0,8.0,160.0,0.0,160.0,0.0,160.0,350.0" stroke="black" stroke-width="1" fill="none" />
<polyline points="152.0,352.5,152.0,0.0,152.0,0.0,169.0,17.0" stroke="black" stroke-width="1" fill="none" />
<polyline points="157.0,19.0,150.5,25.5,149.5,26.5,148.5,27.5" stroke="black" stroke-width="1" fill="none" />
<polyline points="155.5,27.5,157.0,29.0" stroke="black" stroke-width="1" fill="none" />
<polyline points="160.5,24.5,136.0,0.0,136.0,0.0,136.0,322.5" stroke="black" stroke-width="1" fill="none" />
<polyline points="128.0,336.5,128.0,340.0,128.0,341.5,128.0,343.5" stroke="black" stroke-width="1" fill="none" />
<polyline points="136.0,352.0,136.0,353.5" stroke="black" stroke-width="1" fill="none" />
<polyline points="144.0,337.5,144.0,0.0,144.0,0.0,164.0,20.0" stroke="black" stroke-width="1" fill="none" />
<polyline points="155.0,27.0,128.0,0.0,128.0,0.0,128.0,320.5" stroke="black" stroke-width="1" fill="none" />
<polyline points="120.0,318.5,120.0,0.0,120.0,0.0,153.0,33.0,154.5,34.5,155.0,35.0,157.0,37.0,158.0,38.0" stroke="black" stroke-width="1" fill="none" />
<polyline points="137.5,30.5,137.0,31.0,135.0,33.0,124.5,43.5" stroke="black" stroke-width="1" fill="none" />
<polyline points="132.5,44.5,134.0,46.0" stroke="black" stroke-width="1" fill="none" />
<polyline points="150.5,38.5,112.0,0.0,112.0,0.0,112.0,307.5" stroke="black" stroke-width="1" fill="none" />
<polyline points="104.0,314.5,104.0,0.0,104.0,0.0,146.5,42.5" stroke="black" stroke-width="1" fill="none" />
<polyline points="130.5,42.5,88.0,0.0,88.0,0.0,88.0,296.5,88.0,299.0,88.0,313.5,88.0,316.0,88.0,320.0" stroke="black" stroke-width="1" fill="none" />
<polyline points="80.0,337.5,80.0,343.5,80.0,344.0,511.5,344.0" stroke="black" stroke-width="1" fill="none" />
<polyline points="511.5,448.0,165.0,448.0,164.0,452.0,160.5,448.5,159.5,447.5,158.5,446.5,158.5,448.0,164.5,448.0,160.0,449.5,160.0,444.0" stroke="black" stroke-width="1" fill="none" />
<polyline points="152.5,440.0,511.5,440.0" stroke="black" stroke-width="1" fill="none" />
<polyline points="511.5,488.0,188.5,488.0,187.5,484.5,188.5,483.5,192.0,486.5,192.0,492.0,191.5,487.5,183.5,479.5,182.5,480.0,511.5,480.0" stroke="black" stroke-width="1" fill="none" />
<polyline points="511.5,472.0,176.5,472.0,181.0,475.0,181.5,474.5,184.0,476.0,184.0,481.5" stroke="black" stroke-width="1" fill="none" />
<polyline points="176.0,471.0,176.0,466.0,174.5,465.5,174.0,466.0,170.5,464.0,511.5,464.0" stroke="black" stroke-width="1" fill="none" />
<polyline points="511.5,456.0,164.5,456.0,168.0,456.0,168.0,460.0" stroke="black" stroke-width="1" fill="none" />
<polyline points="184.0,443.0,184.0,442.5" stroke="black" stroke-width="1" fill="none" />
<polyline points="192.0,442.0,192.0,441.0" stroke="black" stroke-width="1" fill="none" />
<polyline points="200.0,441.5,200.0,440.0,200.0,437.5,200.0,436.0" stroke="black" stroke-width="1" fill="none" />
<polyline points="200.0,444.5,200.0,445.5,200.0,448.5,200.0,450.0" stroke="black" stroke-width="1" fill="none" />
<polyline points="152.0,439.0,152.0,433.0" stroke="black" stroke-width="1" fill="none" />
<polyline points="146.0,426.0,145.0,425.0,140.0,424.0,511.5,424.0" stroke="black" stroke-width="1" fill="none" />
<polyline points="511.5,416.0,134.0,416.0,134.5,414.5,136.5,416.5,136.0,417.5,136.0,412.5" stroke="black" stroke-width="1" fill="none" />
<polyline points="122.0,398.0,122.5,397.5,120.0,396.5,120.0,391.0,118.0,390.0,114.0,386.0,116.0,388.0,115.5,388.5,115.5,392.0,511.5,392.0" stroke="black" stroke-width="1" fill="none" />
<polyline points="511.5,384.0,110.0,384.0,109.0,381.0,113.5,385.5,112.0,386.0,112.0,380.0" stroke="black" stroke-width="1" fill="none" />
<polyline points="104.0,376.0,511.5,376.0" stroke="black" stroke-width="1" fill="none" />
<polyline points="511.5,352.0,86.0,352.0,88.0,352.0,88.5,351.5,88.0,350.0,88.0,354.5,92.0,356.0,83.5,347.5" stroke="black" stroke-width="1" fill="none" />
<polyline points="77.5,338.5,78.0,338.0" stroke="black" stroke-width="1" fill="none" />
<polyline points="102.5,369.5,101.5,370.5,104.0,370.5,104.0,375.5" stroke="black" stroke-width="1" fill="none" />
<polyline points="80.0,313.0,80.0,0.0,80.0,0.0,127.5,47.5" stroke="black" stroke-width="1" fill="none" />
<polyline points="77.0,67.0,76.5,67.5,72.5,63.5,74.5,61.5" stroke="black" stroke-width="1" fill="none" />
<polyline points="70.0,58.0,72.0,56.0" stroke="black" stroke-width="1" fill="none" />
<polyline points="67.5,52.5,65.5,54.5" stroke="black" stroke-width="1" fill="none" />
<polyline points="62.5,49.5,65.0,47.0" stroke="black" stroke-width="1" fill="none" />
<polyline points="60.5,43.5,58.5,45.5" stroke="black" stroke-width="1" fill="none" />
<polyline points="55.5,40.5,58.0,38.0" stroke="black" stroke-width="1" fill="none" />
<polyline points="54.5,33.5,55.0,33.0,54.0,34.0,51.5,36.5" stroke="black" stroke-width="1" fill="none" />
<polyline points="49.0,31.0,51.5,28.5" stroke="black" stroke-width="1" fill="none" />
<polyline points="48.0,24.0,45.0,27.0" stroke="black" stroke-width="1" fill="none" />
<polyline points="42.0,22.0,44.0,20.0" stroke="black" stroke-width="1" fill="none" />
<polyline points="41.5,14.5,38.0,18.0" stroke="black" stroke-width="1" fill="none" />
<polyline points="35.0,13.0,38.0,10.0" stroke="black" stroke-width="1" fill="none" />
<polyline points="34.5,5.5,30.5,9.5" stroke="black" stroke-width="1" fill="none" />
<polyline points="28.0,4.0,32.0,0.0,32.0,0.0,32.0,298.5" stroke="black" stroke-width="1" fill="none" />
<polyline points="16.0,301.0,16.0,0.0,16.0,0.0,92.0,76.0" stroke="black" stroke-width="1" fill="none" />
<polyline points="104.0,72.0,32.0,0.0" stroke="black" stroke-width="1" fill="none" />
<polyline points="24.0,0.0,23.5,0.5" stroke="black" stroke-width="1" fill="none" />
<polyline points="0.0,0.0,0.0,302.0" stroke="black" stroke-width="1" fill="none" />
<polyline points="0.0,312.0,14.0,312.0" stroke="black" stroke-width="1" fill="none" />
<polyline points="8.0,312.5,8.0,315.0" stroke="black" stroke-width="1" fill="none" />
<polyline points="2.0,320.0,0.0,320.0" stroke="black" stroke-width="1" fill="none" />
<polyline points="49.0,304.0,511.5,304.0" stroke="black" stroke-width="1" fill="none" />
<polyline points="511.5,240.0,485.5,240.0" stroke="black" stroke-width="1" fill="none" />
<polyline points="474.0,224.0,511.5,224.0" stroke="black" stroke-width="1" fill="none" />
<polyline points="511.5,216.0,469.0,216.0,468.0,216.0,467.5,216.0" stroke="black" stroke-width="1" fill="none" />
<polyline points="460.0,208.0,511.5,208.0" stroke="black" stroke-width="1" fill="none" />
<polyline points="511.5,200.0,455.0,200.0" stroke="black" stroke-width="1" fill="none" />
<polyline points="448.5,192.0,511.5,192.0" stroke="black" stroke-width="1" fill="none" />
<polyline points="455.5,224.0,0.0,224.0,0.0,224.0,1.5,225.5,2.0,226.0,6.5,230.5" stroke="black" stroke-width="1" fill="none" />
<polyline points="1.5,233.5,0.0,232.0,0.0,232.0,384.5,232.0" stroke="black" stroke-width="1" fill="none" />
<polyline points="372.5,216.0,0.0,216.0" stroke="black" stroke-width="1" fill="none" />
<polyline points="7.5,215.5,8.0,216.0,12.0,212.0,11.0,211.0,10.0,210.0,9.0,209.0" stroke="black" stroke-width="1" fill="none" />
<polyline points="0.0,208.0,444.0,208.0" stroke="black" stroke-width="1" fill="none" />
<polyline points="443.5,184.0,511.5,184.0" stroke="black" stroke-width="1" fill="none" />
<polyline points="511.5,176.0,436.0,176.0" stroke="black" stroke-width="1" fill="none" />
<polyline points="430.5,168.0,511.5,168.0" stroke="black" stroke-width="1" fill="none" />
<polyline points="511.5,152.0,416.5,152.0" stroke="black" stroke-width="1" fill="none" />
<polyline points="409.0,144.0,511.5,144.0" stroke="black" stroke-width="1" fill="none" />
<polyline points="511.5,136.0,402.5,136.0" stroke="black" stroke-width="1" fill="none" />
<polyline points="108.0,44.0,64.0,0.0,64.0,0.0,64.0,302.5" stroke="black" stroke-width="1" fill="none" />
<polyline points="16.5,255.5,14.5,257.5" stroke="black" stroke-width="1" fill="none" />
<polyline points="7.5,248.5,10.0,246.0,9.5,241.5,9.0,241.0,6.0,242.0,3.5,244.5" stroke="black" stroke-width="1" fill="none" />
<polyline points="0.0,240.0,21.5,261.5" stroke="black" stroke-width="1" fill="none" />
<polyline points="20.0,236.0,19.5,235.5" stroke="black" stroke-width="1" fill="none" />
<polyline points="14.0,230.0,13.0,229.0,11.5,227.5,9.0,225.0,7.5,223.5,6.0,222.0" stroke="black" stroke-width="1" fill="none" />
<polyline points="23.0,223.0,23.5,223.5" stroke="black" stroke-width="1" fill="none" />
<polyline points="22.5,214.5,21.5,213.5" stroke="black" stroke-width="1" fill="none" />
<polyline points="28.0,204.0,27.5,203.5" stroke="black" stroke-width="1" fill="none" />
<polyline points="13.5,189.5,12.0,188.0,11.0,187.0,8.5,184.5" stroke="black" stroke-width="1" fill="none" />
<polyline points="12.0,180.0,11.5,179.5,14.0,182.0,15.5,183.5" stroke="black" stroke-width="1" fill="none" />
<polyline points="21.5,181.5,23.0,183.0" stroke="black" stroke-width="1" fill="none" />
<polyline points="17.5,177.5,16.5,176.5,20.5,172.5,21.5,173.5" stroke="black" stroke-width="1" fill="none" />
<polyline points="26.0,162.0,24.0,160.0" stroke="black" stroke-width="1" fill="none" />
<polyline points="38.0,166.0,39.5,167.5,40.0,168.0,40.5,168.5" stroke="black" stroke-width="1" fill="none" />
<polyline points="59.5,163.5,60.0,164.0" stroke="black" stroke-width="1" fill="none" />
<polyline points="80.0,144.0,79.5,143.5" stroke="black" stroke-width="1" fill="none" />
<polyline points="42.5,138.5,42.0,138.0" stroke="black" stroke-width="1" fill="none" />
<polyline points="36.0,132.0,35.5,131.5" stroke="black" stroke-width="1" fill="none" />
<polyline points="43.5,123.5,44.0,124.0,40.5,120.5,37.0,117.0,36.5,116.5,35.0,115.0" stroke="black" stroke-width="1" fill="none" />
<polyline points="31.5,119.5,29.0,117.0,28.5,116.5,28.0,116.0,27.0,115.0,26.0,114.0" stroke="black" stroke-width="1" fill="none" />
<polyline points="21.0,107.0,21.5,106.5,19.5,108.5,15.5,112.5,14.0,114.0,12.5,115.5" stroke="black" stroke-width="1" fill="none" />
<polyline points="10.0,122.0,2.5,114.5,0.0,112.0,371.5,112.0" stroke="black" stroke-width="1" fill="none" />
<polyline points="101.5,45.5,56.0,0.0,56.0,0.0,56.0,300.5" stroke="black" stroke-width="1" fill="none" />
<polyline points="1.0,185.0,0.0,184.0,0.0,184.0,349.5,184.0" stroke="black" stroke-width="1" fill="none" />
<polyline points="76.0,100.0,73.0,97.0,77.0,93.0,79.0,95.0,76.0,92.0,74.5,90.5,73.5,89.5,72.5,88.5,69.5,85.5,61.0,77.0,57.0,81.0,62.5,86.5,61.0,83.0,68.0,76.0" stroke="black" stroke-width="1" fill="none" />
<polyline points="60.5,76.5,0.0,16.0,0.0,16.0,511.5,16.0" stroke="black" stroke-width="1" fill="none" />
<polyline points="77.0,85.0,76.5,84.5,74.5,82.5,74.0,82.0" stroke="black" stroke-width="1" fill="none" />
<polyline points="65.5,89.5,68.5,92.5" stroke="black" stroke-width="1" fill="none" />
<polyline points="60.0,84.0,58.0,86.0,56.5,87.5,56.0,88.0" stroke="black" stroke-width="1" fill="none" />
<polyline points="53.0,93.0,46.5,86.5,45.5,85.5,44.5,84.5,43.5,83.5,29.5,69.5" stroke="black" stroke-width="1" fill="none" />
<polyline points="21.0,69.0,41.0,89.0,42.5,90.5,55.0,103.0" stroke="black" stroke-width="1" fill="none" />
<polyline points="53.0,109.0,48.0,104.0" stroke="black" stroke-width="1" fill="none" />
<polyline points="45.0,109.0,42.5,106.5,40.5,104.5,39.5,103.5" stroke="black" stroke-width="1" fill="none" />
<polyline points="38.0,98.0,45.0,91.0" stroke="black" stroke-width="1" fill="none" />
<polyline points="43.5,99.5,32.5,88.5" stroke="black" stroke-width="1" fill="none" />
<polyline points="30.0,94.0,30.5,94.5,31.0,95.0,39.0,103.0,33.5,102.5,32.5,103.5" stroke="black" stroke-width="1" fill="none" />
<polyline points="37.0,109.0,39.0,111.0,40.5,112.5,43.5,115.5,44.0,116.0,44.5,116.5,45.0,117.0,46.5,118.5,48.0,120.0,50.0,122.0" stroke="black" stroke-width="1" fill="none" />
<polyline points="49.5,113.5,47.0,111.0" stroke="black" stroke-width="1" fill="none" />
<polyline points="54.5,110.5,55.0,111.0" stroke="black" stroke-width="1" fill="none" />
<polyline points="30.5,110.5,13.5,93.5,12.0,92.0,9.0,89.0,8.5,88.5,5.0,85.0" stroke="black" stroke-width="1" fill="none" />
<polyline points="1.5,89.5,23.5,111.5" stroke="black" stroke-width="1" fill="none" />
<polyline points="14.0,118.0,6.0,110.0,5.0,109.0,4.5,108.5,0.5,104.5,0.0,104.0,0.0,104.0,511.5,104.0" stroke="black" stroke-width="1" fill="none" />
<polyline points="60.0,92.0,48.5,80.5" stroke="black" stroke-width="1" fill="none" />
<polyline points="32.0,88.0,28.0,84.0" stroke="black" stroke-width="1" fill="none" />
<polyline points="20.0,84.0,29.5,93.5" stroke="black" stroke-width="1" fill="none" />
<polyline points="26.5,98.5,34.0,106.0" stroke="black" stroke-width="1" fill="none" />
<polyline points="21.5,117.5,9.0,105.0,7.0,103.0,0.0,96.0,0.0,96.0,511.5,96.0" stroke="black" stroke-width="1" fill="none" />
<polyline points="25.5,97.5,17.0,89.0" stroke="black" stroke-width="1" fill="none" />
<polyline points="4.0,84.0,0.0,80.0,0.0,80.0,511.5,80.0" stroke="black" stroke-width="1" fill="none" />
<polyline points="15.5,135.5,10.5,130.5,8.5,128.5,8.0,128.0,6.0,126.0,0.0,120.0,0.0,120.0,378.0,120.0" stroke="black" stroke-width="1" fill="none" />
<polyline points="12.5,84.5,0.0,72.0,0.0,72.0,511.5,72.0" stroke="black" stroke-width="1" fill="none" />
<polyline points="19.5,83.5,0.0,64.0,0.0,64.0,511.5,64.0" stroke="black" stroke-width="1" fill="none" />
<polyline points="27.5,83.5,0.0,56.0,0.0,56.0,511.5,56.0" stroke="black" stroke-width="1" fill="none" />
<polyline points="19.5,67.5,0.0,48.0,0.0,48.0,511.5,48.0" stroke="black" stroke-width="1" fill="none" />
<polyline points="28.0,68.0,12.5,52.5,12.0,52.0,0.0,40.0,0.0,40.0,511.5,40.0" stroke="black" stroke-width="1" fill="none" />
<polyline points="46.5,78.5,0.0,32.0,0.0,32.0,511.5,32.0" stroke="black" stroke-width="1" fill="none" />
<polyline points="56.0,80.0,0.0,24.0,0.0,24.0,511.5,24.0" stroke="black" stroke-width="1" fill="none" />
<polyline points="72.0,80.0,0.0,8.0,0.0,8.0,511.5,8.0" stroke="black" stroke-width="1" fill="none" />
<polyline points="78.5,78.5,0.0,0.0" stroke="black" stroke-width="1" fill="none" />
<polyline points="0.0,88.0,511.5,88.0" stroke="black" stroke-width="1" fill="none" />
<polyline points="5.5,149.5,5.0,149.0,3.5,147.5,1.0,145.0" stroke="black" stroke-width="1" fill="none" />
</svg>