<svg xmlns="http://www.w3.org/2000/svg" height="512px" width="512px" version="1.1"><polyline points="181.0,0.0,186.0,8.0,192.0,16.0,198.0,24.0,204.0,32.0,210.0,40.0,216.0,48.0,222.0,56.0,228.0,64.0,234.0,72.0,240.0,80.0,246.0,88.0,252.0,96.0,258.0,104.0,264.0,112.0,270.0,120.0,276.0,128.0,279.0,132.0,285.0,140.0,290.0,148.0,296.0,156.0,302.0,164.0,308.0,172.0,314.0,180.0,320.0,188.0,326.0,196.0,332.0,204.0,338.0,212.0,344.0,220.0,350.0,228.0,356.0,236.0,362.0,244.0,360.0,252.0,371.0,257.0,377.0,265.0,383.0,273.0,389.0,281.0,395.0,289.0,401.0,297.0,407.0,305.0,414.0,313.0,419.0,321.0,425.0,329.0,431.0,337.0,437.0,345.0,443.0,353.0,449.0,361.0,455.0,369.0,461.0,377.0,467.0,385.0,473.0,393.0,479.0,401.0,485.0,409.0,491.0,417.0,497.0,425.0,503.0,433.0,509.0,441.0" stroke="black" stroke-width="1" fill="none" />
<polyline points="510.0,396.0,502.0,389.0,497.0,383.0,497.0,380.0,491.0,374.0,488.0,367.0,482.0,360.0,476.0,353.0,471.0,344.0,464.0,340.0,458.0,336.0,461.0,332.0,456.0,325.0,449.0,322.0,451.0,317.0,444.0,312.0,441.0,309.0,440.0,303.0,432.0,299.0,434.0,294.0,426.0,289.0,423.0,282.0,419.0,279.0,419.0,275.0,411.0,271.0,414.0,268.0,406.0,258.0,399.0,255.0,396.0,248.0,397.0,247.0,390.0,238.0,383.0,231.0,380.0,224.0,373.0,218.0,370.0,210.0,364.0,203.0,359.0,196.0,352.0,190.0,347.0,181.0,344.0,175.0,339.0,169.0,333.0,161.0,326.0,151.0,322.0,146.0,317.0,140.0,312.0,133.0,307.0,125.0,301.0,119.0,295.0,110.0,283.0,97.0,279.0,89.0,272.0,80.0,262.0,69.0,255.0,62.0,248.0,54.0,242.0,45.0,236.0,37.0,229.0,29.0,225.0,21.0,217.0,13.0,217.0,5.0,209.0,1.0,214.0,0.0,211.0,4.0,219.0,8.0,222.0,16.0,230.0,25.0,237.0,32.0,240.0,39.0,248.0,47.0,254.0,55.0,259.0,61.0,260.0,69.0,265.0,72.0,267.0,79.0,273.0,87.0,279.0,95.0,285.0,103.0,292.0,106.0,294.0,114.0,300.0,122.0,305.0,130.0,311.0,138.0,318.0,146.0,323.0,154.0,330.0,162.0,335.0,170.0,340.0,178.0,348.0,186.0,352.0,194.0,358.0,202.0,364.0,210.0,370.0,218.0,376.0,226.0,383.0,234.0,388.0,242.0,395.0,250.0,398.0,251.0,401.0,258.0,404.0,259.0,407.0,267.0,414.0,275.0,416.0,279.0,422.0,287.0,427.0,295.0,434.0,303.0,440.0,311.0,446.0,319.0,452.0,325.0,456.0,333.0,461.0,333.0,465.0,339.0,468.0,344.0,471.0,352.0,479.0,361.0,486.0,368.0,489.0,373.0,494.0,381.0,498.0,386.0,502.0,394.0,507.0,395.0,507.0,399.0" stroke="black" stroke-width="1" fill="none" />
<polyline points="506.0,409.0,498.0,398.0,490.0,387.0,482.0,376.0,474.0,365.0,466.0,354.0,458.0,344.0,450.0,333.0,442.0,322.0,434.0,312.0,426.0,301.0,418.0,291.0,410.0,280.0,402.0,269.0,394.0,258.0,386.0,248.0,378.0,237.0,370.0,226.0,362.0,215.0,354.0,205.0,346.0,194.0,338.0,183.0,330.0,172.0,322.0,161.0,314.0,150.0,306.0,140.0,298.0,129.0,290.0,118.0,282.0,107.0,274.0,96.0,266.0,85.0,258.0,75.0,250.0,64.0,242.0,53.0,234.0,43.0,226.0,32.0,218.0,21.0,210.0,11.0,202.0,1.0,202.0,0.0,207.0,8.0,213.0,16.0,219.0,24.0,225.0,32.0,231.0,40.0,237.0,48.0,243.0,56.0,249.0,64.0,255.0,72.0,261.0,80.0,267.0,88.0,273.0,96.0,279.0,104.0,285.0,112.0,291.0,120.0,297.0,128.0,303.0,136.0,308.0,144.0,314.0,152.0,320.0,160.0,326.0,168.0,332.0,176.0,338.0,184.0,344.0,192.0,350.0,200.0,356.0,208.0,362.0,216.0,367.0,224.0,373.0,232.0,379.0,240.0,385.0,248.0,391.0,256.0,397.0,264.0,403.0,272.0,409.0,280.0,415.0,288.0,422.0,296.0,428.0,304.0,433.0,312.0,439.0,320.0,445.0,328.0,451.0,336.0,457.0,344.0,463.0,352.0,469.0,360.0,475.0,368.0,481.0,376.0,487.0,384.0,493.0,392.0,499.0,400.0,505.0,408.0" stroke="black" stroke-width="1" fill="none" />
<polyline points="509.0,440.0,501.0,429.0,493.0,419.0,485.0,408.0,477.0,397.0,469.0,386.0,461.0,376.0,453.0,365.0,445.0,354.0,437.0,344.0,429.0,333.0,421.0,322.0,413.0,311.0,405.0,301.0,397.0,290.0,389.0,279.0,381.0,269.0,373.0,258.0,365.0,248.0,357.0,236.0,349.0,226.0,341.0,216.0,333.0,204.0,325.0,193.0,317.0,183.0,309.0,172.0,301.0,161.0,293.0,151.0,285.0,139.0,277.0,128.0,269.0,118.0,261.0,107.0,253.0,96.0,245.0,86.0,237.0,75.0,229.0,64.0,221.0,53.0,213.0,43.0,205.0,33.0,197.0,22.0,189.0,11.0,181.0,1.0" stroke="black" stroke-width="1" fill="none" />
<polyline points="222.0,18.0,230.0,21.0,229.0,28.0,236.0,30.0,236.0,33.0,244.0,41.0,248.0,46.0,253.0,53.0,257.0,58.0,261.0,70.0,268.0,73.0,271.0,82.0,279.0,88.0,287.0,99.0,292.0,105.0,300.0,115.0,308.0,125.0,308.0,133.0,312.0,131.0,315.0,143.0,320.0,143.0,323.0,153.0,330.0,156.0,338.0,166.0,346.0,177.0,348.0,181.0,356.0,191.0,360.0,204.0,368.0,207.0,376.0,218.0,384.0,228.0,386.0,237.0,389.0,242.0,397.0,246.0" stroke="black" stroke-width="1" fill="none" />
<polyline points="408.0,261.0,411.0,269.0" stroke="black" stroke-width="1" fill="none" />
<polyline points="425.0,284.0,428.0,292.0,435.0,298.0,440.0,304.0,445.0,311.0,451.0,318.0" stroke="black" stroke-width="1" fill="none" />
<polyline points="464.0,293.0,456.0,287.0,458.0,285.0,463.0,293.0" stroke="black" stroke-width="1" fill="none" />
<polyline points="443.0,259.0,435.0,252.0,435.0,252.0,443.0,260.0" stroke="black" stroke-width="1" fill="none" />
<polyline points="416.0,230.0,408.0,223.0,410.0,221.0,415.0,229.0,420.0,236.0" stroke="black" stroke-width="1" fill="none" />
<polyline points="402.0,204.0,394.0,195.0,386.0,187.0" stroke="black" stroke-width="1" fill="none" />
<polyline points="374.0,173.0,366.0,163.0,358.0,157.0,363.0,159.0,370.0,167.0,373.0,174.0,382.0,180.0,386.0,188.0,394.0,196.0,400.0,204.0" stroke="black" stroke-width="1" fill="none" />
<polyline points="381.0,231.0,374.0,221.0,367.0,211.0,360.0,200.0,352.0,193.0" stroke="black" stroke-width="1" fill="none" />
<polyline points="356.0,140.0,348.0,134.0,340.0,121.0,340.0,121.0,344.0,129.0,350.0,137.0" stroke="black" stroke-width="1" fill="none" />
<polyline points="344.0,75.0,352.0,71.0,360.0,65.0,368.0,60.0,376.0,54.0,384.0,57.0,388.0,58.0,394.0,66.0,400.0,74.0,407.0,82.0,413.0,90.0,418.0,98.0,421.0,101.0,423.0,109.0,430.0,117.0,436.0,125.0,448.0,136.0,451.0,144.0,454.0,144.0,457.0,152.0,463.0,160.0,469.0,168.0,475.0,171.0,482.0,179.0,483.0,186.0,489.0,189.0,492.0,197.0,496.0,198.0,498.0,206.0,503.0,207.0,505.0,215.0,507.0,216.0" stroke="black" stroke-width="1" fill="none" />
<polyline points="499.0,206.0,491.0,196.0" stroke="black" stroke-width="1" fill="none" />
<polyline points="510.0,214.0,502.0,204.0,494.0,194.0,486.0,184.0,478.0,173.0,470.0,164.0,462.0,158.0,454.0,148.0,446.0,138.0,438.0,128.0,436.0,120.0,430.0,112.0,417.0,101.0" stroke="black" stroke-width="1" fill="none" />
<polyline points="423.0,109.0,431.0,119.0,440.0,130.0" stroke="black" stroke-width="1" fill="none" />
<polyline points="456.0,146.0,462.0,154.0,468.0,162.0,477.0,177.0,486.0,188.0" stroke="black" stroke-width="1" fill="none" />
<polyline points="468.0,161.0,460.0,150.0,452.0,139.0,444.0,129.0,436.0,119.0,428.0,109.0,420.0,99.0,412.0,88.0,404.0,78.0,396.0,68.0,388.0,58.0,387.0,62.0,380.0,54.0,377.0,53.0,366.0,61.0,355.0,69.0,344.0,77.0,349.0,85.0,355.0,93.0,360.0,101.0,367.0,109.0,372.0,117.0,379.0,125.0,385.0,133.0,391.0,141.0,397.0,149.0,402.0,157.0,408.0,165.0,414.0,173.0,420.0,181.0,426.0,189.0,432.0,197.0,438.0,205.0,445.0,213.0,451.0,221.0,457.0,229.0,463.0,237.0,469.0,245.0,475.0,253.0,481.0,261.0,487.0,269.0,493.0,277.0,499.0,285.0,504.0,293.0,510.0,301.0" stroke="black" stroke-width="1" fill="none" />
<polyline points="470.0,344.0,474.0,352.0,477.0,360.0,483.0,368.0,494.0,376.0,501.0,386.0" stroke="black" stroke-width="1" fill="none" />
<polyline points="261.0,316.0,253.0,309.0,245.0,299.0,245.0,299.0,251.0,307.0,258.0,316.0,262.0,317.0" stroke="black" stroke-width="1" fill="none" />
<polyline points="194.0,381.0,183.0,389.0,173.0,397.0,163.0,405.0,153.0,413.0,143.0,421.0,153.0,436.0,161.0,447.0,169.0,458.0,177.0,468.0,185.0,478.0,193.0,489.0,201.0,500.0" stroke="black" stroke-width="1" fill="none" />
<polyline points="204.0,505.0,198.0,497.0,192.0,489.0,186.0,481.0,180.0,473.0,173.0,465.0,167.0,457.0,161.0,449.0,155.0,441.0,150.0,433.0,147.0,425.0,154.0,417.0" stroke="black" stroke-width="1" fill="none" />
<polyline points="201.0,507.0,195.0,499.0,189.0,491.0,183.0,483.0,177.0,475.0,171.0,467.0,164.0,459.0,158.0,451.0,152.0,443.0,146.0,435.0,140.0,427.0,134.0,419.0,128.0,411.0,122.0,403.0,116.0,395.0,110.0,387.0,104.0,379.0,98.0,371.0,92.0,363.0,85.0,355.0,79.0,347.0,73.0,339.0,67.0,331.0,61.0,323.0,55.0,315.0,48.0,307.0,42.0,299.0,41.0,298.0,29.0,306.0,18.0,314.0,6.0,322.0,3.0,324.0,11.0,319.0,19.0,313.0,27.0,308.0,35.0,302.0,43.0,295.0,51.0,302.0,59.0,313.0,67.0,324.0,75.0,334.0,83.0,345.0,91.0,355.0,99.0,366.0,107.0,376.0,115.0,387.0,123.0,397.0,131.0,407.0,139.0,417.0,147.0,418.0,155.0,412.0,163.0,405.0,171.0,399.0,179.0,393.0,187.0,386.0,195.0,381.0" stroke="black" stroke-width="1" fill="none" />
<polyline points="154.0,417.0,146.0,426.0,136.0,415.0,130.0,407.0,124.0,399.0,118.0,391.0,111.0,383.0,105.0,375.0,99.0,367.0,93.0,359.0,87.0,351.0,81.0,343.0,75.0,335.0,69.0,327.0,63.0,319.0,57.0,311.0,51.0,303.0,43.0,295.0,38.0,295.0,27.0,303.0,15.0,311.0,4.0,319.0,4.0,319.0,12.0,314.0,20.0,308.0,28.0,302.0,36.0,296.0,46.0,303.0,54.0,313.0,62.0,323.0,70.0,333.0,78.0,344.0,86.0,355.0,94.0,365.0,102.0,376.0,110.0,386.0,118.0,396.0,126.0,407.0,134.0,418.0,142.0,429.0,150.0,439.0,158.0,449.0,166.0,460.0,174.0,471.0,182.0,481.0,190.0,492.0,198.0,502.0" stroke="black" stroke-width="1" fill="none" />
<polyline points="340.0,75.0,332.0,65.0,324.0,54.0,316.0,44.0,308.0,34.0,308.0,34.0,314.0,42.0,320.0,50.0,326.0,58.0,332.0,66.0,338.0,74.0,343.0,82.0,350.0,85.0,358.0,96.0,366.0,106.0,374.0,119.0,382.0,129.0,390.0,139.0,398.0,150.0,406.0,162.0,414.0,172.0,422.0,182.0,430.0,192.0,438.0,203.0,446.0,214.0,454.0,225.0,462.0,235.0,470.0,245.0,478.0,256.0,486.0,267.0,494.0,277.0,502.0,288.0,510.0,300.0" stroke="black" stroke-width="1" fill="none" />
<polyline points="305.0,73.0,301.0,70.0,299.0,62.0" stroke="black" stroke-width="1" fill="none" />
<polyline points="299.0,21.0,291.0,11.0,283.0,1.0,283.0,0.0,287.0,8.0,293.0,16.0" stroke="black" stroke-width="1" fill="none" />
<polyline points="0.0,0.0,511.5,0.0,511.5,0.5,417.5,94.5" stroke="black" stroke-width="1" fill="none" />
<polyline points="414.0,90.0,504.0,0.0,504.0,0.0,504.0,211.5,506.0,210.0,511.5,215.5,508.0,212.0,511.5,208.5" stroke="black" stroke-width="1" fill="none" />
<polyline points="505.0,207.0,511.5,200.5" stroke="black" stroke-width="1" fill="none" />
<polyline points="511.5,192.5,501.5,202.5" stroke="black" stroke-width="1" fill="none" />
<polyline points="498.0,198.0,511.5,184.5" stroke="black" stroke-width="1" fill="none" />
<polyline points="511.5,176.5,494.5,193.5" stroke="black" stroke-width="1" fill="none" />
<polyline points="491.0,189.0,511.5,168.5" stroke="black" stroke-width="1" fill="none" />
<polyline points="511.5,160.5,487.5,184.5" stroke="black" stroke-width="1" fill="none" />
<polyline points="484.0,180.0,511.5,152.5" stroke="black" stroke-width="1" fill="none" />
<polyline points="511.5,144.5,480.5,175.5,480.0,176.0,481.5,177.5,482.0,178.0,511.5,207.5" stroke="black" stroke-width="1" fill="none" />
<polyline points="511.5,175.5,336.0,0.0,336.0,0.0,336.0,98.5,336.0,100.0,336.0,166.0,338.5,165.5,344.0,160.0,344.5,159.5,355.5,148.5" stroke="black" stroke-width="1" fill="none" />
<polyline points="359.0,153.0,341.5,170.5,338.0,168.0,412.0,168.0,409.5,169.5,411.0,171.0,408.5,168.5,407.5,167.5,406.5,166.5,405.5,165.5,404.0,164.0,403.5,163.5,400.0,164.0,400.0,174.0,400.0,175.0,400.0,194.0,400.0,196.0,400.0,198.5,400.0,200.5,400.0,250.0,400.0,251.5,400.0,253.5,398.5,254.5,398.0,254.0,399.5,256.5,396.5,259.5,394.5,258.5,418.0,282.0,419.5,283.5,421.5,285.5,420.5,283.5,416.5,287.5,417.0,289.0,444.0,316.0,447.0,313.0,466.0,294.0,465.0,289.0,476.5,300.5" stroke="black" stroke-width="1" fill="none" />
<polyline points="477.0,307.0,457.0,327.0,456.0,328.5,456.0,342.5,457.5,342.5,461.0,339.0,464.0,339.5,464.0,337.0,465.0,337.0,511.5,383.5,511.5,384.5,506.0,390.0,502.0,390.0,501.5,389.5,502.5,385.5,511.5,376.5" stroke="black" stroke-width="1" fill="none" />
<polyline points="511.5,368.5,499.0,381.0,497.0,385.0,498.0,386.0,496.0,384.5,496.0,397.0,498.5,397.5,502.0,394.0,504.0,394.5,504.0,408.0,505.5,406.5,511.5,400.5,511.5,399.5,510.0,398.0,509.5,394.5,511.5,392.5" stroke="black" stroke-width="1" fill="none" />
<polyline points="505.5,398.5,502.0,402.0" stroke="black" stroke-width="1" fill="none" />
<polyline points="495.0,393.0,499.0,389.0,495.0,385.0,492.0,388.0" stroke="black" stroke-width="1" fill="none" />
<polyline points="488.5,383.5,492.5,379.5,492.0,380.0,494.5,382.5" stroke="black" stroke-width="1" fill="none" />
<polyline points="495.5,376.5,511.5,360.5" stroke="black" stroke-width="1" fill="none" />
<polyline points="511.5,352.5,492.5,371.5,492.0,372.0,511.5,391.5" stroke="black" stroke-width="1" fill="none" />
<polyline points="511.5,408.5,509.0,411.0,509.5,413.5,511.5,415.5" stroke="black" stroke-width="1" fill="none" />
<polyline points="511.5,407.5,486.5,382.5,485.0,379.0,489.0,375.0,488.0,373.5,488.0,386.0" stroke="black" stroke-width="1" fill="none" />
<polyline points="481.5,374.5,485.5,370.5,486.5,369.5,487.0,369.0,488.5,368.5,489.0,369.0,488.5,367.5,506.5,349.5,509.5,349.5,511.5,351.5" stroke="black" stroke-width="1" fill="none" />
<polyline points="502.0,346.0,484.5,363.5,484.0,364.0,484.5,364.5,482.5,365.5,478.0,370.0" stroke="black" stroke-width="1" fill="none" />
<polyline points="474.5,365.5,478.5,361.5,480.0,360.0,479.0,359.0,481.5,358.5,500.5,339.5,499.0,339.0,504.5,344.5" stroke="black" stroke-width="1" fill="none" />
<polyline points="494.0,338.0,478.5,353.5,475.5,355.5,474.5,354.5,472.0,354.0,472.0,364.0,471.5,360.5,474.5,357.5" stroke="black" stroke-width="1" fill="none" />
<polyline points="471.0,353.0,468.0,356.0,465.0,353.0,490.5,378.5" stroke="black" stroke-width="1" fill="none" />
<polyline points="491.5,371.5,491.0,371.0" stroke="black" stroke-width="1" fill="none" />
<polyline points="496.0,380.0,496.0,281.5" stroke="black" stroke-width="1" fill="none" />
<polyline points="503.5,288.0,511.5,288.0" stroke="black" stroke-width="1" fill="none" />
<polyline points="504.0,292.5,504.0,390.5" stroke="black" stroke-width="1" fill="none" />
<polyline points="511.5,367.5,422.5,278.5,421.5,277.5,420.0,276.0,420.5,275.5,426.0,270.0,426.5,269.5,439.0,257.0,443.0,261.0,423.5,280.5,421.0,280.0,497.5,280.0" stroke="black" stroke-width="1" fill="none" />
<polyline points="506.0,280.0,511.5,280.0" stroke="black" stroke-width="1" fill="none" />
<polyline points="511.5,272.0,504.5,272.0" stroke="black" stroke-width="1" fill="none" />
<polyline points="501.5,264.0,511.5,264.0" stroke="black" stroke-width="1" fill="none" />
<polyline points="511.5,256.0,498.5,256.0" stroke="black" stroke-width="1" fill="none" />
<polyline points="493.5,248.0,511.5,248.0" stroke="black" stroke-width="1" fill="none" />
<polyline points="511.5,240.0,488.0,240.0" stroke="black" stroke-width="1" fill="none" />
<polyline points="483.5,232.0,511.5,232.0" stroke="black" stroke-width="1" fill="none" />
<polyline points="511.5,199.5,452.0,140.0,452.5,139.5,511.5,80.5" stroke="black" stroke-width="1" fill="none" />
<polyline points="511.5,136.5,477.0,171.0,478.0,174.0,478.5,174.5" stroke="black" stroke-width="1" fill="none" />
<polyline points="480.0,180.5,480.0,0.0,480.0,0.0,511.5,31.5" stroke="black" stroke-width="1" fill="none" />
<polyline points="511.5,56.5,442.0,126.0,440.0,128.0,440.0,130.0" stroke="black" stroke-width="1" fill="none" />
<polyline points="446.0,130.0,511.5,64.5" stroke="black" stroke-width="1" fill="none" />
<polyline points="511.5,128.5,474.0,166.0,472.0,168.5,472.0,170.5" stroke="black" stroke-width="1" fill="none" />
<polyline points="469.5,162.5,511.5,120.5" stroke="black" stroke-width="1" fill="none" />
<polyline points="511.5,112.5,466.5,157.5,464.0,157.5,464.0,160.0" stroke="black" stroke-width="1" fill="none" />
<polyline points="463.0,153.0,511.5,104.5" stroke="black" stroke-width="1" fill="none" />
<polyline points="511.5,96.5,459.5,148.5" stroke="black" stroke-width="1" fill="none" />
<polyline points="456.0,144.0,511.5,88.5" stroke="black" stroke-width="1" fill="none" />
<polyline points="511.5,72.5,449.0,135.0,448.0,138.0,448.0,140.0" stroke="black" stroke-width="1" fill="none" />
<polyline points="438.5,121.5,511.5,48.5" stroke="black" stroke-width="1" fill="none" />
<polyline points="511.5,40.5,435.0,117.0" stroke="black" stroke-width="1" fill="none" />
<polyline points="431.5,112.5,511.5,32.5" stroke="black" stroke-width="1" fill="none" />
<polyline points="511.5,24.5,428.0,108.0" stroke="black" stroke-width="1" fill="none" />
<polyline points="424.5,103.5,511.5,16.5" stroke="black" stroke-width="1" fill="none" />
<polyline points="511.5,8.5,421.0,99.0,423.0,103.0,511.5,191.5" stroke="black" stroke-width="1" fill="none" />
<polyline points="511.5,151.5,360.0,0.0,360.0,0.0,360.0,66.5,360.0,64.0,424.0,0.0,424.0,0.0,424.0,108.5" stroke="black" stroke-width="1" fill="none" />
<polyline points="410.5,85.5,496.0,0.0,496.0,0.0,496.0,201.0" stroke="black" stroke-width="1" fill="none" />
<polyline points="511.5,183.5,394.0,66.0,396.5,67.5,464.0,0.0,464.0,0.0,464.0,157.0" stroke="black" stroke-width="1" fill="none" />
<polyline points="472.0,167.5,472.0,0.0,472.0,0.0,511.5,39.5" stroke="black" stroke-width="1" fill="none" />
<polyline points="511.5,7.5,504.0,0.0" stroke="black" stroke-width="1" fill="none" />
<polyline points="496.0,0.0,511.5,15.5" stroke="black" stroke-width="1" fill="none" />
<polyline points="511.5,23.5,488.0,0.0,488.0,0.0,488.0,190.0" stroke="black" stroke-width="1" fill="none" />
<polyline points="466.5,208.0,511.5,208.0" stroke="black" stroke-width="1" fill="none" />
<polyline points="511.5,224.0,474.5,224.0" stroke="black" stroke-width="1" fill="none" />
<polyline points="471.0,216.0,511.5,216.0" stroke="black" stroke-width="1" fill="none" />
<polyline points="511.5,167.5,344.0,0.0,344.0,0.0,344.0,76.0,344.0,78.5,344.0,175.0,345.0,175.0,361.0,159.0" stroke="black" stroke-width="1" fill="none" />
<polyline points="365.5,162.5,355.5,172.5" stroke="black" stroke-width="1" fill="none" />
<polyline points="358.5,177.5,367.0,169.0" stroke="black" stroke-width="1" fill="none" />
<polyline points="372.5,171.5,362.5,181.5" stroke="black" stroke-width="1" fill="none" />
<polyline points="366.0,186.0,373.5,178.5" stroke="black" stroke-width="1" fill="none" />
<polyline points="378.5,181.5,370.0,190.0" stroke="black" stroke-width="1" fill="none" />
<polyline points="373.0,195.0,384.0,184.0,384.0,180.0,384.0,229.0,385.5,230.5,403.0,213.0" stroke="black" stroke-width="1" fill="none" />
<polyline points="405.5,218.5,396.5,227.5" stroke="black" stroke-width="1" fill="none" />
<polyline points="400.0,232.0,409.0,223.0,414.5,222.5,428.0,236.0" stroke="black" stroke-width="1" fill="none" />
<polyline points="420.5,235.5,410.5,245.5,409.0,247.0,403.5,252.5,402.5,256.0,478.5,256.0,475.5,259.5,474.5,258.5,473.5,257.5,454.0,238.0,458.0,234.0,464.0,240.0,464.0,239.0,464.0,335.5,465.0,335.0,483.0,317.0" stroke="black" stroke-width="1" fill="none" />
<polyline points="486.5,321.5,468.0,340.0,464.5,343.5,461.0,347.0,464.0,343.0,464.0,353.0,464.0,352.0,463.5,351.5,464.5,351.5,467.5,348.5,469.5,349.5,470.5,350.5,475.0,349.0,495.5,328.5,494.5,326.5,498.0,330.0" stroke="black" stroke-width="1" fill="none" />
<polyline points="490.5,325.5,472.0,344.0" stroke="black" stroke-width="1" fill="none" />
<polyline points="461.0,331.0,479.5,312.5" stroke="black" stroke-width="1" fill="none" />
<polyline points="475.5,300.5,452.5,323.5,451.5,324.5,447.5,328.5" stroke="black" stroke-width="1" fill="none" />
<polyline points="444.0,324.0,447.5,320.5,448.0,321.5,448.0,332.5,450.5,333.5,455.5,328.5" stroke="black" stroke-width="1" fill="none" />
<polyline points="457.5,334.5,454.5,337.5" stroke="black" stroke-width="1" fill="none" />
<polyline points="467.0,347.0,441.5,321.5,440.5,319.5,444.0,316.0,448.0,318.0,448.0,320.0,451.0,317.0,474.0,294.0,478.0,294.0,471.5,287.5" stroke="black" stroke-width="1" fill="none" />
<polyline points="466.5,282.5,466.0,282.0" stroke="black" stroke-width="1" fill="none" />
<polyline points="469.0,277.0,471.0,279.0" stroke="black" stroke-width="1" fill="none" />
<polyline points="472.0,273.0,472.0,350.0" stroke="black" stroke-width="1" fill="none" />
<polyline points="480.0,364.0,480.0,375.5" stroke="black" stroke-width="1" fill="none" />
<polyline points="488.0,371.0,488.0,270.0" stroke="black" stroke-width="1" fill="none" />
<polyline points="480.5,263.5,481.5,262.5,480.0,260.5,480.0,360.5" stroke="black" stroke-width="1" fill="none" />
<polyline points="464.0,380.0,464.0,511.5" stroke="black" stroke-width="1" fill="none" />
<polyline points="423.5,511.5,396.0,484.0,392.0,488.0,390.0,490.0,389.0,493.0,407.5,511.5,408.5,511.5,410.5,509.5" stroke="black" stroke-width="1" fill="none" />
<polyline points="406.0,506.0,403.5,508.5" stroke="black" stroke-width="1" fill="none" />
<polyline points="400.5,503.5,403.0,501.0,406.5,502.5,415.5,511.5" stroke="black" stroke-width="1" fill="none" />
<polyline points="399.0,497.0,396.5,499.5" stroke="black" stroke-width="1" fill="none" />
<polyline points="393.5,494.5,396.0,492.0" stroke="black" stroke-width="1" fill="none" />
<polyline points="388.5,483.5,387.0,485.0,385.0,489.0,387.0,491.0" stroke="black" stroke-width="1" fill="none" />
<polyline points="382.5,481.5,385.0,479.0,389.5,477.5,391.5,479.5" stroke="black" stroke-width="1" fill="none" />
<polyline points="395.0,475.0,397.0,477.0,398.5,478.5,400.5,480.5,401.0,481.0,402.0,482.0,403.0,483.0,405.5,485.5,406.0,486.0,431.5,511.5" stroke="black" stroke-width="1" fill="none" />
<polyline points="439.5,511.5,409.5,481.5,409.0,481.0,408.0,480.0,405.5,477.5,402.5,474.5" stroke="black" stroke-width="1" fill="none" />
<polyline points="406.0,470.0,407.0,471.0,411.0,475.0,420.5,484.5,422.0,486.0,447.5,511.5" stroke="black" stroke-width="1" fill="none" />
<polyline points="455.5,511.5,420.0,476.0,424.0,472.0,423.5,471.5,424.5,472.5,425.0,473.0,426.0,474.0,427.0,475.0,428.5,476.5,463.5,511.5" stroke="black" stroke-width="1" fill="none" />
<polyline points="471.5,511.5,436.0,476.0,434.5,474.5,432.5,472.5,431.0,471.0,425.0,465.0,422.5,462.5,421.0,461.0" stroke="black" stroke-width="1" fill="none" />
<polyline points="417.5,465.5,418.5,466.5,420.0,468.0,423.0,471.0" stroke="black" stroke-width="1" fill="none" />
<polyline points="431.5,463.5,432.0,464.0,433.0,465.0,479.5,511.5" stroke="black" stroke-width="1" fill="none" />
<polyline points="511.5,479.5,505.5,473.5" stroke="black" stroke-width="1" fill="none" />
<polyline points="511.5,463.5,503.0,455.0,502.0,454.0,500.0,452.0,504.0,448.0,506.0,450.0,506.5,450.5,511.5,455.5" stroke="black" stroke-width="1" fill="none" />
<polyline points="511.5,447.5,507.5,443.5,503.5,439.5,502.5,438.5,501.5,437.5,498.0,434.0" stroke="black" stroke-width="1" fill="none" />
<polyline points="493.5,437.5,496.0,440.0,497.5,441.5,498.5,442.5,499.0,443.0,500.5,444.5,501.0,445.0,503.0,447.0" stroke="black" stroke-width="1" fill="none" />
<polyline points="495.0,447.0,494.5,446.5,493.5,445.5,491.5,443.5,490.0,442.0,488.0,440.0,492.0,436.0,491.0,435.0" stroke="black" stroke-width="1" fill="none" />
<polyline points="493.5,429.5,490.5,426.5" stroke="black" stroke-width="1" fill="none" />
<polyline points="496.0,422.0,496.0,511.5" stroke="black" stroke-width="1" fill="none" />
<polyline points="511.5,471.5,501.5,461.5,501.0,461.0,498.5,458.5,497.0,457.0,489.5,449.5,488.0,448.0,486.5,446.5,484.0,444.0,482.0,442.0,478.0,446.0,480.0,448.0,481.0,449.0,486.5,454.5,487.0,455.0,488.5,456.5,490.5,458.5,505.0,473.0" stroke="black" stroke-width="1" fill="none" />
<polyline points="511.5,487.5,483.5,459.5,482.0,458.0,476.5,452.5,476.0,452.0,475.0,451.0,474.0,450.0,472.5,448.5,468.5,452.5,470.5,454.5,471.5,455.5,474.0,458.0,476.0,460.0,511.5,495.5" stroke="black" stroke-width="1" fill="none" />
<polyline points="511.5,503.5,461.0,453.0,460.5,452.5,454.5,446.5" stroke="black" stroke-width="1" fill="none" />
<polyline points="459.5,443.5,462.0,446.0,458.0,442.0,456.5,440.5" stroke="black" stroke-width="1" fill="none" />
<polyline points="453.0,453.0,455.5,455.5,456.0,456.0,458.5,458.5,459.0,459.0,461.0,461.0,461.5,461.5,464.0,464.0,464.5,464.5,511.5,511.5" stroke="black" stroke-width="1" fill="none" />
<polyline points="487.5,511.5,436.0,460.0" stroke="black" stroke-width="1" fill="none" />
<polyline points="442.5,458.5,443.5,459.5,444.0,460.0,445.0,461.0,446.0,462.0,495.5,511.5" stroke="black" stroke-width="1" fill="none" />
<polyline points="503.5,511.5,455.0,463.0,453.5,461.5,452.5,460.5,450.0,458.0,448.0,456.0,447.5,455.5,447.0,455.0,446.0,454.0,445.0,453.0" stroke="black" stroke-width="1" fill="none" />
<polyline points="436.0,452.0,434.0,450.0" stroke="black" stroke-width="1" fill="none" />
<polyline points="427.0,459.0,428.0,460.0" stroke="black" stroke-width="1" fill="none" />
<polyline points="402.5,466.5,401.5,465.5" stroke="black" stroke-width="1" fill="none" />
<polyline points="389.0,469.0,387.0,467.0" stroke="black" stroke-width="1" fill="none" />
<polyline points="384.0,472.0,381.5,469.5,380.0,468.0,379.0,467.0,377.5,470.5,376.5,471.5" stroke="black" stroke-width="1" fill="none" />
<polyline points="380.0,476.0,382.0,474.0" stroke="black" stroke-width="1" fill="none" />
<polyline points="379.5,483.5,381.0,485.0" stroke="black" stroke-width="1" fill="none" />
<polyline points="374.0,486.0,399.5,511.5" stroke="black" stroke-width="1" fill="none" />
<polyline points="367.5,511.5,356.0,500.0,355.5,499.5,353.0,497.0,349.0,501.0,349.5,501.5,351.5,503.5,359.5,511.5" stroke="black" stroke-width="1" fill="none" />
<polyline points="351.5,511.5,347.5,507.5,343.5,511.5,339.5,507.5,335.5,511.5,333.5,509.5,331.5,507.5,330.0,506.0,327.0,503.0,326.5,502.5" stroke="black" stroke-width="1" fill="none" />
<polyline points="331.0,499.0,333.0,501.0,334.5,502.5,337.0,505.0" stroke="black" stroke-width="1" fill="none" />
<polyline points="343.0,503.0,347.0,507.0" stroke="black" stroke-width="1" fill="none" />
<polyline points="348.0,500.0,347.0,499.0" stroke="black" stroke-width="1" fill="none" />
<polyline points="339.0,499.0,337.5,497.5" stroke="black" stroke-width="1" fill="none" />
<polyline points="345.5,489.5,346.5,490.5" stroke="black" stroke-width="1" fill="none" />
<polyline points="351.0,487.0,352.0,488.0" stroke="black" stroke-width="1" fill="none" />
<polyline points="360.0,496.0,363.0,499.0,365.0,501.0,375.5,511.5" stroke="black" stroke-width="1" fill="none" />
<polyline points="383.5,511.5,367.5,495.5,366.0,494.0,365.0,493.0,364.5,492.5,364.0,492.0" stroke="black" stroke-width="1" fill="none" />
<polyline points="366.5,486.5,365.5,485.5" stroke="black" stroke-width="1" fill="none" />
<polyline points="372.5,492.5,391.5,511.5" stroke="black" stroke-width="1" fill="none" />
<polyline points="377.0,481.0,372.0,476.0" stroke="black" stroke-width="1" fill="none" />
<polyline points="371.0,467.0,406.0,502.0" stroke="black" stroke-width="1" fill="none" />
<polyline points="373.5,466.5,375.5,464.5,376.0,464.0,378.0,466.0" stroke="black" stroke-width="1" fill="none" />
<polyline points="369.5,465.5,368.5,464.5" stroke="black" stroke-width="1" fill="none" />
<polyline points="366.5,457.5,368.0,456.0" stroke="black" stroke-width="1" fill="none" />
<polyline points="360.0,456.0,356.0,452.0" stroke="black" stroke-width="1" fill="none" />
<polyline points="351.5,455.5,355.0,459.0" stroke="black" stroke-width="1" fill="none" />
<polyline points="351.5,463.5,347.5,459.5" stroke="black" stroke-width="1" fill="none" />
<polyline points="343.0,463.0,347.0,467.0" stroke="black" stroke-width="1" fill="none" />
<polyline points="340.5,467.5,339.5,468.5,339.0,469.0,332.5,475.5,332.0,476.0,330.5,477.5,330.0,474.0,334.0,478.0" stroke="black" stroke-width="1" fill="none" />
<polyline points="329.0,481.0,325.5,477.5,321.5,481.5,324.5,484.5,320.5,488.5,317.0,485.0,313.0,489.0,316.0,492.0" stroke="black" stroke-width="1" fill="none" />
<polyline points="311.5,495.5,308.5,492.5" stroke="black" stroke-width="1" fill="none" />
<polyline points="304.0,496.0,307.5,499.5,303.5,503.5,299.5,499.5,295.5,503.5,298.5,506.5,295.0,505.0,294.5,505.5,291.0,507.0,294.5,510.5,290.5,509.5,289.5,510.5,287.5,511.5,286.5,510.5" stroke="black" stroke-width="1" fill="none" />
<polyline points="308.0,508.0,310.5,510.5" stroke="black" stroke-width="1" fill="none" />
<polyline points="322.0,506.0,323.0,507.0,326.5,510.5,327.5,511.5" stroke="black" stroke-width="1" fill="none" />
<polyline points="337.5,473.5,334.5,470.5" stroke="black" stroke-width="1" fill="none" />
<polyline points="339.0,467.0,342.0,470.0" stroke="black" stroke-width="1" fill="none" />
<polyline points="356.0,444.0,375.5,463.5" stroke="black" stroke-width="1" fill="none" />
<polyline points="368.0,448.0,364.5,444.5" stroke="black" stroke-width="1" fill="none" />
<polyline points="369.0,441.0,372.5,444.5" stroke="black" stroke-width="1" fill="none" />
<polyline points="377.5,441.5,373.5,437.5" stroke="black" stroke-width="1" fill="none" />
<polyline points="378.0,434.0,381.5,437.5,385.5,433.5,382.0,430.0,386.0,430.0,386.5,429.5,388.0,428.0,389.5,426.5,390.5,425.5,392.0,424.0,391.0,423.0,394.0,426.0,393.0,423.0,393.5,422.5,395.0,421.0,396.0,420.0,395.0,419.0,398.5,422.5,402.5,418.5,399.0,415.0" stroke="black" stroke-width="1" fill="none" />
<polyline points="403.5,411.5,407.0,415.0" stroke="black" stroke-width="1" fill="none" />
<polyline points="411.5,411.5,408.0,408.0,412.0,404.0,415.5,407.5,419.5,403.5,416.5,400.5" stroke="black" stroke-width="1" fill="none" />
<polyline points="421.5,397.5,424.0,400.0,428.0,396.0,425.0,393.0" stroke="black" stroke-width="1" fill="none" />
<polyline points="430.0,390.0,433.0,393.0" stroke="black" stroke-width="1" fill="none" />
<polyline points="436.5,387.5,437.0,387.0,437.0,389.0,434.5,386.5,438.5,382.5,441.0,385.0" stroke="black" stroke-width="1" fill="none" />
<polyline points="445.5,381.5,443.0,379.0,447.0,375.0,450.0,378.0,448.0,376.0,448.5,375.5,450.5,373.5,451.0,373.0,451.5,371.5,454.0,374.0,454.0,370.0,455.0,369.0,456.0,369.0,456.0,511.5" stroke="black" stroke-width="1" fill="none" />
<polyline points="484.5,436.5,482.0,434.0" stroke="black" stroke-width="1" fill="none" />
<polyline points="504.0,430.0,504.0,511.5" stroke="black" stroke-width="1" fill="none" />
<polyline points="488.0,511.5,488.0,411.5" stroke="black" stroke-width="1" fill="none" />
<polyline points="480.0,401.5,480.0,511.5" stroke="black" stroke-width="1" fill="none" />
<polyline points="472.0,511.5,472.0,391.0" stroke="black" stroke-width="1" fill="none" />
<polyline points="448.0,359.5,448.0,511.5" stroke="black" stroke-width="1" fill="none" />
<polyline points="390.0,430.0,386.0,426.0" stroke="black" stroke-width="1" fill="none" />
<polyline points="354.0,438.0,353.0,439.0,353.5,441.5,354.5,442.5,352.5,440.5,350.0,438.0,350.0,434.0,351.0,433.0" stroke="black" stroke-width="1" fill="none" />
<polyline points="347.5,428.5,346.0,430.0" stroke="black" stroke-width="1" fill="none" />
<polyline points="343.5,424.5,344.0,424.0,340.0,420.0,339.0,421.0" stroke="black" stroke-width="1" fill="none" />
<polyline points="336.5,415.5,337.0,415.0" stroke="black" stroke-width="1" fill="none" />
<polyline points="330.5,410.5,347.0,427.0" stroke="black" stroke-width="1" fill="none" />
<polyline points="329.0,407.0,330.5,405.5" stroke="black" stroke-width="1" fill="none" />
<polyline points="322.5,397.5,323.5,396.5" stroke="black" stroke-width="1" fill="none" />
<polyline points="320.0,392.0,311.5,383.5,308.5,379.5,309.0,379.0,310.0,382.0,305.5,377.5" stroke="black" stroke-width="1" fill="none" />
<polyline points="301.5,370.5,302.5,369.5,302.0,366.0,301.5,365.5,300.0,364.0,299.5,363.5,295.5,360.5,294.5,361.5,294.5,358.5,286.0,350.0,285.0,347.0,285.5,346.5" stroke="black" stroke-width="1" fill="none" />
<polyline points="278.0,338.0,278.5,337.5" stroke="black" stroke-width="1" fill="none" />
<polyline points="275.5,331.5,272.5,328.5,271.5,327.5,268.0,324.0" stroke="black" stroke-width="1" fill="none" />
<polyline points="263.5,327.5,265.5,329.5" stroke="black" stroke-width="1" fill="none" />
<polyline points="262.0,334.0,260.0,332.0" stroke="black" stroke-width="1" fill="none" />
<polyline points="256.5,336.5,254.5,334.5" stroke="black" stroke-width="1" fill="none" />
<polyline points="251.0,339.0,252.0,340.0,248.0,344.0,246.5,342.5" stroke="black" stroke-width="1" fill="none" />
<polyline points="241.5,345.5,243.5,347.5" stroke="black" stroke-width="1" fill="none" />
<polyline points="239.0,351.0,237.5,349.5" stroke="black" stroke-width="1" fill="none" />
<polyline points="232.5,352.5,234.5,354.5" stroke="black" stroke-width="1" fill="none" />
<polyline points="230.0,358.0,228.5,356.5,224.5,360.5,224.0,360.0" stroke="black" stroke-width="1" fill="none" />
<polyline points="219.5,363.5,221.0,365.0" stroke="black" stroke-width="1" fill="none" />
<polyline points="215.5,367.5,215.0,367.0,211.0,371.0,211.5,371.5,207.5,375.5,206.0,374.0" stroke="black" stroke-width="1" fill="none" />
<polyline points="201.5,377.5,202.5,378.5,200.0,375.0,200.0,392.0,200.0,394.5,200.0,399.5,200.0,400.5,200.0,403.5,200.0,405.5,200.0,407.5" stroke="black" stroke-width="1" fill="none" />
<polyline points="200.0,415.0,200.0,420.5,200.0,422.5,200.0,426.0,200.0,427.0,200.0,431.0" stroke="black" stroke-width="1" fill="none" />
<polyline points="208.0,431.0,208.0,436.5,208.0,437.0,208.0,441.5" stroke="black" stroke-width="1" fill="none" />
<polyline points="216.0,443.0,216.0,446.0" stroke="black" stroke-width="1" fill="none" />
<polyline points="216.0,452.0,216.0,460.0,216.0,461.0,216.0,465.5,216.0,468.0,216.0,471.0,216.0,476.5,216.0,478.0,216.0,480.5,216.0,482.5,216.0,484.0,216.0,486.0,216.0,491.5,216.0,494.5" stroke="black" stroke-width="1" fill="none" />
<polyline points="224.0,497.0,224.0,499.0,224.0,501.5,224.0,504.0,224.0,506.0,224.0,507.5,224.0,510.0,224.0,511.5" stroke="black" stroke-width="1" fill="none" />
<polyline points="232.0,511.5,232.0,501.0,232.0,499.0,232.0,496.5,232.0,495.5,232.0,490.5" stroke="black" stroke-width="1" fill="none" />
<polyline points="240.0,490.5,240.0,511.5" stroke="black" stroke-width="1" fill="none" />
<polyline points="264.0,511.5,264.0,112.5" stroke="black" stroke-width="1" fill="none" />
<polyline points="256.0,102.5,256.0,511.5" stroke="black" stroke-width="1" fill="none" />
<polyline points="296.0,511.5,296.0,203.0" stroke="black" stroke-width="1" fill="none" />
<polyline points="304.0,205.0,304.0,207.0,304.0,209.0,304.0,212.0,304.0,213.0,304.0,511.5" stroke="black" stroke-width="1" fill="none" />
<polyline points="384.0,511.5,384.0,275.5" stroke="black" stroke-width="1" fill="none" />
<polyline points="392.0,285.5,392.0,511.5" stroke="black" stroke-width="1" fill="none" />
<polyline points="440.0,511.5,440.0,348.0" stroke="black" stroke-width="1" fill="none" />
<polyline points="432.0,337.5,432.0,511.5" stroke="black" stroke-width="1" fill="none" />
<polyline points="511.5,359.5,397.0,245.0,396.5,243.5,402.0,238.0,404.0,236.0,413.5,226.5" stroke="black" stroke-width="1" fill="none" />
<polyline points="414.5,233.5,407.5,240.5,406.0,242.0,399.5,248.5,397.5,248.0,472.0,248.0,472.0,250.0,472.0,271.5" stroke="black" stroke-width="1" fill="none" />
<polyline points="474.0,266.0,472.5,264.5" stroke="black" stroke-width="1" fill="none" />
<polyline points="479.0,263.0,486.5,270.5" stroke="black" stroke-width="1" fill="none" />
<polyline points="482.0,290.0,483.5,291.5" stroke="black" stroke-width="1" fill="none" />
<polyline points="464.0,288.0,463.5,287.5,462.0,290.0,444.0,308.0,445.5,309.5,442.0,306.0,440.0,308.0,440.0,321.0" stroke="black" stroke-width="1" fill="none" />
<polyline points="437.0,315.0,440.5,311.5" stroke="black" stroke-width="1" fill="none" />
<polyline points="446.0,310.0,511.5,375.5" stroke="black" stroke-width="1" fill="none" />
<polyline points="491.5,323.5,491.0,323.0" stroke="black" stroke-width="1" fill="none" />
<polyline points="511.0,305.0,511.5,304.5,511.5,303.5,508.0,300.0" stroke="black" stroke-width="1" fill="none" />
<polyline points="465.0,281.0,461.5,277.5" stroke="black" stroke-width="1" fill="none" />
<polyline points="457.0,287.0,447.5,296.5,446.5,297.5,441.5,302.5,437.5,298.5,443.5,292.5,445.0,291.0,454.5,281.5" stroke="black" stroke-width="1" fill="none" />
<polyline points="451.0,277.0,440.5,287.5,440.0,288.0,434.5,293.5,434.0,298.0,434.5,298.5,432.0,298.5,432.0,310.0,433.5,310.5,437.0,307.0" stroke="black" stroke-width="1" fill="none" />
<polyline points="433.5,302.5,430.0,306.0" stroke="black" stroke-width="1" fill="none" />
<polyline points="427.0,301.0,430.5,297.5,430.0,294.0,429.0,293.0,431.0,289.0,436.5,283.5,437.5,282.5,447.5,272.5" stroke="black" stroke-width="1" fill="none" />
<polyline points="446.0,266.0,434.5,277.5,434.0,278.0,427.0,285.0,424.0,288.0,424.0,299.5,423.5,296.5,426.5,293.5,425.5,289.5,424.5,288.5,424.0,288.0,420.0,292.0" stroke="black" stroke-width="1" fill="none" />
<polyline points="413.0,283.0,417.0,279.0,416.0,278.0,416.0,289.0" stroke="black" stroke-width="1" fill="none" />
<polyline points="410.0,278.0,413.5,274.5,413.5,272.0,491.0,272.0" stroke="black" stroke-width="1" fill="none" />
<polyline points="469.0,245.0,468.5,244.5" stroke="black" stroke-width="1" fill="none" />
<polyline points="456.0,229.0,456.0,325.0" stroke="black" stroke-width="1" fill="none" />
<polyline points="480.0,312.0,350.0,182.0,349.0,181.0,347.5,179.5,347.5,180.5,354.5,173.5" stroke="black" stroke-width="1" fill="none" />
<polyline points="357.5,178.5,351.5,184.5,349.5,184.0,425.0,184.0,424.0,186.0,424.0,196.5,424.0,197.5,424.0,283.5" stroke="black" stroke-width="1" fill="none" />
<polyline points="416.0,272.0,435.5,252.5" stroke="black" stroke-width="1" fill="none" />
<polyline points="432.0,248.0,413.5,266.5,409.0,264.0,484.5,264.0" stroke="black" stroke-width="1" fill="none" />
<polyline points="446.0,262.0,445.5,261.5" stroke="black" stroke-width="1" fill="none" />
<polyline points="426.5,245.5,410.0,262.0,406.0,266.0,403.5,268.5,408.0,268.5,408.0,277.5,406.0,274.0,409.5,270.5" stroke="black" stroke-width="1" fill="none" />
<polyline points="415.5,271.5,417.0,273.0" stroke="black" stroke-width="1" fill="none" />
<polyline points="406.5,257.5,421.0,243.0" stroke="black" stroke-width="1" fill="none" />
<polyline points="432.5,232.5,426.5,226.5,425.5,225.5,425.0,225.0,423.5,223.5,423.0,223.0" stroke="black" stroke-width="1" fill="none" />
<polyline points="415.0,215.0,411.5,211.5" stroke="black" stroke-width="1" fill="none" />
<polyline points="405.0,213.0,274.0,82.0,272.0,83.5,272.0,94.5,273.5,94.5,276.5,91.5,279.5,88.5,300.0,68.0" stroke="black" stroke-width="1" fill="none" />
<polyline points="302.5,73.5,283.0,93.0,282.5,96.0,511.5,96.0" stroke="black" stroke-width="1" fill="none" />
<polyline points="488.0,0.0,407.5,80.5,403.5,76.5,480.0,0.0" stroke="black" stroke-width="1" fill="none" />
<polyline points="472.0,0.0,400.0,72.0" stroke="black" stroke-width="1" fill="none" />
<polyline points="393.0,63.0,456.0,0.0,456.0,0.0,456.0,149.5" stroke="black" stroke-width="1" fill="none" />
<polyline points="448.0,137.5,448.0,0.0,448.0,0.0,511.5,63.5" stroke="black" stroke-width="1" fill="none" />
<polyline points="511.5,47.5,464.0,0.0" stroke="black" stroke-width="1" fill="none" />
<polyline points="456.0,0.0,511.5,55.5" stroke="black" stroke-width="1" fill="none" />
<polyline points="448.0,0.0,389.5,58.5,387.5,59.5,384.5,56.5,386.0,54.0,440.0,0.0,440.0,0.0,440.0,126.5" stroke="black" stroke-width="1" fill="none" />
<polyline points="432.0,119.0,432.0,0.0,432.0,0.0,511.5,79.5" stroke="black" stroke-width="1" fill="none" />
<polyline points="511.5,71.5,440.0,0.0" stroke="black" stroke-width="1" fill="none" />
<polyline points="432.0,0.0,382.0,50.0,382.0,54.0,383.0,55.0" stroke="black" stroke-width="1" fill="none" />
<polyline points="352.5,63.5,416.0,0.0,416.0,0.0,416.0,98.0" stroke="black" stroke-width="1" fill="none" />
<polyline points="408.0,88.0,408.0,0.0,408.0,0.0,511.5,103.5" stroke="black" stroke-width="1" fill="none" />
<polyline points="511.5,87.5,424.0,0.0" stroke="black" stroke-width="1" fill="none" />
<polyline points="416.0,0.0,511.5,95.5" stroke="black" stroke-width="1" fill="none" />
<polyline points="511.5,111.5,400.0,0.0,400.0,0.0,400.0,78.5" stroke="black" stroke-width="1" fill="none" />
<polyline points="381.0,53.0,328.0,0.0,328.0,0.0,328.0,155.5,328.0,152.0,454.5,278.5" stroke="black" stroke-width="1" fill="none" />
<polyline points="438.0,254.0,301.0,117.0,301.0,115.0,318.0,98.0,322.5,98.5,326.5,102.5,325.0,107.0,307.5,124.5,307.0,128.0,381.5,128.0,384.0,132.5,384.0,154.5,384.0,156.0,384.0,179.5" stroke="black" stroke-width="1" fill="none" />
<polyline points="387.5,188.5,376.0,200.0" stroke="black" stroke-width="1" fill="none" />
<polyline points="379.5,204.5,391.0,193.0,392.0,191.0,392.0,239.5,391.5,240.0,465.5,240.0" stroke="black" stroke-width="1" fill="none" />
<polyline points="448.0,218.0,448.0,315.0" stroke="black" stroke-width="1" fill="none" />
<polyline points="440.0,303.5,440.0,208.0" stroke="black" stroke-width="1" fill="none" />
<polyline points="432.0,197.5,432.0,293.0" stroke="black" stroke-width="1" fill="none" />
<polyline points="416.0,273.0,416.0,198.0" stroke="black" stroke-width="1" fill="none" />
<polyline points="398.0,202.0,386.0,214.0,390.0,218.0,397.0,211.0" stroke="black" stroke-width="1" fill="none" />
<polyline points="395.0,229.0,389.5,234.5" stroke="black" stroke-width="1" fill="none" />
<polyline points="393.0,239.0,398.5,233.5" stroke="black" stroke-width="1" fill="none" />
<polyline points="393.0,241.0,393.5,241.5,392.0,241.0,392.0,243.0,392.0,246.0,392.0,256.5,393.0,257.0,394.0,258.0,392.5,255.5,396.0,252.0" stroke="black" stroke-width="1" fill="none" />
<polyline points="392.5,247.5,389.5,250.5" stroke="black" stroke-width="1" fill="none" />
<polyline points="386.0,246.0,389.0,243.0" stroke="black" stroke-width="1" fill="none" />
<polyline points="386.5,237.5,382.5,241.5,384.0,246.0,384.0,236.5,383.0,233.0,379.0,237.0" stroke="black" stroke-width="1" fill="none" />
<polyline points="375.5,232.5,379.0,229.0,376.0,226.0,376.0,235.0" stroke="black" stroke-width="1" fill="none" />
<polyline points="372.0,228.0,375.0,225.0,375.5,223.5,375.0,223.0,376.0,222.0,376.0,224.0,379.5,224.0,454.0,224.0" stroke="black" stroke-width="1" fill="none" />
<polyline points="460.0,232.0,0.0,232.0" stroke="black" stroke-width="1" fill="none" />
<polyline points="3.0,227.0,6.0,230.0" stroke="black" stroke-width="1" fill="none" />
<polyline points="0.0,224.0,377.5,224.0,379.0,221.0,385.0,215.0,389.0,219.0,382.5,225.5" stroke="black" stroke-width="1" fill="none" />
<polyline points="375.5,216.5,394.5,197.5" stroke="black" stroke-width="1" fill="none" />
<polyline points="378.0,206.0,372.5,211.5,371.5,211.5,371.0,211.0,373.0,213.0,496.0,336.0" stroke="black" stroke-width="1" fill="none" />
<polyline points="424.0,327.5,424.0,511.5" stroke="black" stroke-width="1" fill="none" />
<polyline points="416.0,511.5,416.0,317.5" stroke="black" stroke-width="1" fill="none" />
<polyline points="408.0,306.5,408.0,511.5" stroke="black" stroke-width="1" fill="none" />
<polyline points="400.0,511.5,400.0,295.5" stroke="black" stroke-width="1" fill="none" />
<polyline points="399.5,264.5,403.0,261.0,400.0,257.5,400.0,267.0" stroke="black" stroke-width="1" fill="none" />
<polyline points="394.5,250.5,371.0,227.0,368.5,223.5,372.0,220.0,372.5,220.5,370.0,218.0,368.5,215.5,365.5,218.5" stroke="black" stroke-width="1" fill="none" />
<polyline points="362.0,214.0,365.0,211.0,368.0,211.5,368.0,224.5" stroke="black" stroke-width="1" fill="none" />
<polyline points="369.0,217.0,347.5,195.5,348.0,196.0,351.5,192.5,352.0,193.0,352.0,203.0,352.0,200.0,355.5,196.5,358.5,193.5,364.5,187.5" stroke="black" stroke-width="1" fill="none" />
<polyline points="367.5,192.5,362.0,198.0,360.0,197.0,360.0,102.0,359.0,103.0,361.0,105.0,362.0,106.0,363.0,107.0,366.5,104.0,511.5,104.0" stroke="black" stroke-width="1" fill="none" />
<polyline points="511.5,119.5,392.0,0.0,392.0,0.0,392.0,69.0" stroke="black" stroke-width="1" fill="none" />
<polyline points="375.0,55.0,320.0,0.0,320.0,0.0,320.0,145.0,320.5,143.5,327.0,137.0,329.0,135.0,340.5,123.5,336.5,119.5,325.0,131.0,324.5,131.5,317.0,139.0,314.5,141.5,311.0,145.0" stroke="black" stroke-width="1" fill="none" />
<polyline points="307.5,140.5,311.0,137.0,312.0,139.0,312.0,149.5,314.0,150.0,318.0,146.0,320.0,150.5,320.0,160.0,321.0,159.0,324.5,155.5,326.0,158.0,303.0,135.0,304.0,136.0,307.0,133.0,311.0,129.0,317.0,123.0,317.5,122.5,325.5,114.5,326.5,113.5,331.0,109.0,331.0,107.0,333.0,109.0" stroke="black" stroke-width="1" fill="none" />
<polyline points="331.5,116.5,321.0,127.0,320.5,127.5,314.5,133.5,312.0,132.5,312.0,0.0,312.0,0.0,370.5,58.5" stroke="black" stroke-width="1" fill="none" />
<polyline points="347.0,61.0,408.0,0.0" stroke="black" stroke-width="1" fill="none" />
<polyline points="400.0,0.0,340.0,60.0" stroke="black" stroke-width="1" fill="none" />
<polyline points="342.0,66.0,337.0,71.0,341.0,75.0,345.5,70.5,350.5,70.5,285.5,5.5,285.0,3.0,288.0,0.0,288.0,0.0,288.0,102.5,288.0,103.5,288.0,104.5,287.5,104.5,283.5,108.5,288.0,106.5,288.0,117.0,290.5,117.5,293.5,114.5,296.0,117.5,296.0,127.0,297.5,126.5,300.5,123.5,301.5,125.5,302.5,126.5,304.0,128.0,304.0,138.0,302.5,134.5,301.0,133.0,300.5,131.5,304.0,128.0,304.0,125.5,304.0,124.0,304.5,119.5,320.5,103.5" stroke="black" stroke-width="1" fill="none" />
<polyline points="330.5,98.5,332.0,100.0" stroke="black" stroke-width="1" fill="none" />
<polyline points="324.0,84.0,323.5,83.5,321.5,81.5,315.5,75.5,311.5,79.5,319.0,87.0" stroke="black" stroke-width="1" fill="none" />
<polyline points="314.5,93.5,297.5,110.5,297.5,113.5,298.0,114.0,297.0,119.0,294.0,122.0" stroke="black" stroke-width="1" fill="none" />
<polyline points="287.0,113.0,291.0,109.0,292.5,108.5,293.0,109.0,293.5,106.5,310.0,90.0" stroke="black" stroke-width="1" fill="none" />
<polyline points="308.0,84.0,289.5,102.5" stroke="black" stroke-width="1" fill="none" />
<polyline points="286.5,97.5,302.5,81.5,304.0,80.0,307.5,76.5,309.0,77.0,305.0,73.0" stroke="black" stroke-width="1" fill="none" />
<polyline points="323.0,53.0,376.0,0.0,376.0,0.0,376.0,56.0" stroke="black" stroke-width="1" fill="none" />
<polyline points="365.5,61.5,304.0,0.0,304.0,0.0,304.0,121.0,301.0,125.0,279.5,103.5,280.5,103.5,283.5,100.5,284.0,100.0,283.5,99.5,280.5,95.5,276.5,99.5,277.5,101.5,278.0,102.0" stroke="black" stroke-width="1" fill="none" />
<polyline points="281.5,97.5,256.0,72.0,256.5,71.5,259.5,68.5,262.5,65.5,283.5,44.5" stroke="black" stroke-width="1" fill="none" />
<polyline points="285.5,50.5,266.5,69.5,264.0,73.0,264.0,84.5,267.0,85.0,270.0,82.0,270.5,78.5,270.0,78.0,273.0,79.0,293.0,59.0" stroke="black" stroke-width="1" fill="none" />
<polyline points="296.5,63.5,276.5,83.5,273.0,87.0,270.0,90.0" stroke="black" stroke-width="1" fill="none" />
<polyline points="280.0,94.0,280.0,106.0" stroke="black" stroke-width="1" fill="none" />
<polyline points="296.0,111.0,296.0,0.0,296.0,0.0,361.0,65.0" stroke="black" stroke-width="1" fill="none" />
<polyline points="356.0,68.0,288.0,0.0" stroke="black" stroke-width="1" fill="none" />
<polyline points="280.0,0.0,280.0,90.5" stroke="black" stroke-width="1" fill="none" />
<polyline points="270.0,74.0,289.5,54.5" stroke="black" stroke-width="1" fill="none" />
<polyline points="279.0,41.0,259.0,61.0,257.0,63.0,253.0,67.0" stroke="black" stroke-width="1" fill="none" />
<polyline points="249.5,62.5,253.5,58.5,255.5,56.5,273.5,38.5,276.5,36.5,275.0,35.0,277.5,34.5,279.0,33.0" stroke="black" stroke-width="1" fill="none" />
<polyline points="284.0,36.0,248.0,0.0,248.0,0.0,248.0,47.0,249.5,46.5,267.0,29.0,269.0,29.0,270.0,30.0,270.0,34.0,253.0,51.0,251.5,51.5,252.5,52.5,254.5,54.5,388.5,188.5" stroke="black" stroke-width="1" fill="none" />
<polyline points="374.5,201.5,369.0,207.0,368.0,207.0,368.0,135.0" stroke="black" stroke-width="1" fill="none" />
<polyline points="367.5,143.5,368.0,144.0,370.0,146.0,370.5,146.5,366.5,150.5,365.0,149.0,364.5,148.5,361.5,145.5" stroke="black" stroke-width="1" fill="none" />
<polyline points="349.5,146.5,342.5,153.5,340.5,155.5,335.0,161.0,330.0,162.0,329.5,161.5,328.0,160.0,328.0,170.5,328.0,168.0,330.5,165.5,334.5,169.5,331.0,173.0,336.0,171.0,336.0,181.5,338.0,182.0,341.0,179.0,344.0,181.5,344.0,192.0,345.0,191.0,348.5,187.5" stroke="black" stroke-width="1" fill="none" />
<polyline points="355.0,189.0,361.0,183.0" stroke="black" stroke-width="1" fill="none" />
<polyline points="345.0,183.0,341.5,186.5" stroke="black" stroke-width="1" fill="none" />
<polyline points="335.0,177.0,337.5,174.5" stroke="black" stroke-width="1" fill="none" />
<polyline points="324.5,164.5,349.0,189.0" stroke="black" stroke-width="1" fill="none" />
<polyline points="358.5,201.5,355.0,205.0" stroke="black" stroke-width="1" fill="none" />
<polyline points="358.5,209.5,361.5,206.5,362.0,202.0,361.0,201.0,360.5,200.0,436.5,200.0" stroke="black" stroke-width="1" fill="none" />
<polyline points="442.0,208.0,367.5,208.0" stroke="black" stroke-width="1" fill="none" />
<polyline points="365.5,202.5,371.5,196.5" stroke="black" stroke-width="1" fill="none" />
<polyline points="360.0,202.0,360.0,214.0" stroke="black" stroke-width="1" fill="none" />
<polyline points="376.0,218.0,376.0,121.5" stroke="black" stroke-width="1" fill="none" />
<polyline points="371.0,115.0,369.5,113.5,368.0,111.5,368.0,132.5" stroke="black" stroke-width="1" fill="none" />
<polyline points="350.0,138.0,339.0,149.0,337.0,151.0,331.5,156.5,328.0,160.0,324.5,163.5" stroke="black" stroke-width="1" fill="none" />
<polyline points="317.5,154.5,321.0,151.0,324.5,148.5,325.0,149.0,324.5,147.5,331.0,141.0,332.0,140.0,343.5,128.5,344.0,128.0,346.0,130.0,347.5,131.5,349.0,133.0,347.5,132.5,335.5,144.5,333.5,146.5,328.5,151.5,327.5,151.5,326.5,150.5,325.5,152.0,399.5,152.0,400.0,155.0,400.0,162.0,399.5,167.5,420.0,188.0" stroke="black" stroke-width="1" fill="none" />
<polyline points="417.0,177.0,416.0,176.0,416.0,175.5,416.0,195.5" stroke="black" stroke-width="1" fill="none" />
<polyline points="392.0,188.5,392.0,167.0" stroke="black" stroke-width="1" fill="none" />
<polyline points="376.5,168.5,372.5,164.5,370.0,162.0,369.5,161.5" stroke="black" stroke-width="1" fill="none" />
<polyline points="358.0,150.0,230.5,22.5,232.5,23.5,252.0,4.0,256.0,0.0,256.0,58.0,256.0,62.0,256.0,74.0,260.0,76.0,263.0,73.0" stroke="black" stroke-width="1" fill="none" />
<polyline points="266.5,77.5,263.0,81.0" stroke="black" stroke-width="1" fill="none" />
<polyline points="257.5,65.5,231.5,39.5,232.5,39.5,236.0,36.0,235.5,35.5,236.5,36.5,239.0,33.0,259.0,13.0" stroke="black" stroke-width="1" fill="none" />
<polyline points="260.5,19.5,241.5,38.5,240.0,40.5,240.0,52.0,239.0,49.0,242.5,45.5,246.0,42.0,264.0,24.0,265.5,25.5,266.5,26.5" stroke="black" stroke-width="1" fill="none" />
<polyline points="273.0,33.0,274.0,34.0" stroke="black" stroke-width="1" fill="none" />
<polyline points="279.0,39.0,284.5,44.5" stroke="black" stroke-width="1" fill="none" />
<polyline points="295.0,25.0,296.5,23.5,299.0,21.0,320.0,0.0" stroke="black" stroke-width="1" fill="none" />
<polyline points="344.0,0.0,309.0,35.0,313.0,39.0,352.0,0.0,352.0,0.0,352.0,71.5" stroke="black" stroke-width="1" fill="none" />
<polyline points="346.5,74.5,313.0,41.0,310.0,42.0,309.5,42.5,307.5,43.5,313.0,49.0" stroke="black" stroke-width="1" fill="none" />
<polyline points="316.0,44.0,360.0,0.0" stroke="black" stroke-width="1" fill="none" />
<polyline points="368.0,0.0,368.0,61.5" stroke="black" stroke-width="1" fill="none" />
<polyline points="384.0,61.0,384.0,0.0,384.0,0.0,511.5,127.5" stroke="black" stroke-width="1" fill="none" />
<polyline points="511.5,135.5,376.0,0.0" stroke="black" stroke-width="1" fill="none" />
<polyline points="368.0,0.0,511.5,143.5" stroke="black" stroke-width="1" fill="none" />
<polyline points="511.5,159.5,352.0,0.0" stroke="black" stroke-width="1" fill="none" />
<polyline points="392.0,0.0,330.0,62.0,334.0,66.0,339.0,61.0" stroke="black" stroke-width="1" fill="none" />
<polyline points="327.0,57.0,384.0,0.0" stroke="black" stroke-width="1" fill="none" />
<polyline points="368.0,0.0,320.0,48.0" stroke="black" stroke-width="1" fill="none" />
<polyline points="306.0,30.0,336.0,0.0" stroke="black" stroke-width="1" fill="none" />
<polyline points="328.0,0.0,302.0,26.0" stroke="black" stroke-width="1" fill="none" />
<polyline points="295.5,16.5,312.0,0.0" stroke="black" stroke-width="1" fill="none" />
<polyline points="304.0,0.0,292.0,12.0,288.0,8.0,296.0,0.0" stroke="black" stroke-width="1" fill="none" />
<polyline points="292.0,20.0,311.5,39.5" stroke="black" stroke-width="1" fill="none" />
<polyline points="276.0,20.0,275.0,21.0" stroke="black" stroke-width="1" fill="none" />
<polyline points="275.0,11.0,268.5,4.5,268.0,4.0,266.0,2.0,264.0,0.0,264.0,68.5" stroke="black" stroke-width="1" fill="none" />
<polyline points="249.5,54.5,246.0,58.0" stroke="black" stroke-width="1" fill="none" />
<polyline points="243.0,53.0,246.0,50.0,248.0,52.5,248.0,62.5" stroke="black" stroke-width="1" fill="none" />
<polyline points="232.0,69.5,232.0,486.5" stroke="black" stroke-width="1" fill="none" />
<polyline points="240.0,489.0,240.0,79.5" stroke="black" stroke-width="1" fill="none" />
<polyline points="248.0,91.0,248.0,511.5" stroke="black" stroke-width="1" fill="none" />
<polyline points="280.0,511.5,280.0,134.0,275.5,131.5,274.0,130.0" stroke="black" stroke-width="1" fill="none" />
<polyline points="272.0,122.5,272.0,511.5" stroke="black" stroke-width="1" fill="none" />
<polyline points="320.0,511.5,320.0,238.0,320.0,236.0,320.0,235.5,320.0,234.5,320.0,234.0,320.0,232.5,320.0,232.0" stroke="black" stroke-width="1" fill="none" />
<polyline points="312.0,233.0,312.0,511.5" stroke="black" stroke-width="1" fill="none" />
<polyline points="376.0,511.5,376.0,264.5" stroke="black" stroke-width="1" fill="none" />
<polyline points="368.0,264.0,368.0,511.5" stroke="black" stroke-width="1" fill="none" />
<polyline points="360.0,511.5,360.0,268.5,360.0,266.5,360.0,262.0,356.0,260.0,354.5,258.5,352.0,257.5,352.0,511.5" stroke="black" stroke-width="1" fill="none" />
<polyline points="344.0,511.5,344.0,263.5,344.0,262.0,344.0,261.5,346.0,266.0,346.5,266.5" stroke="black" stroke-width="1" fill="none" />
<polyline points="342.0,270.0,341.5,269.5" stroke="black" stroke-width="1" fill="none" />
<polyline points="336.0,263.0,336.0,511.5" stroke="black" stroke-width="1" fill="none" />
<polyline points="328.0,511.5,328.0,260.5" stroke="black" stroke-width="1" fill="none" />
<polyline points="336.0,254.5,336.0,249.0" stroke="black" stroke-width="1" fill="none" />
<polyline points="328.0,249.5,328.0,260.0" stroke="black" stroke-width="1" fill="none" />
<polyline points="344.0,260.0,344.0,256.5" stroke="black" stroke-width="1" fill="none" />
<polyline points="360.0,259.5,360.0,251.0,364.0,252.0,364.5,252.5,365.5,250.5,366.0,250.0,368.0,253.5,368.0,259.5,368.0,260.5,368.0,263.0" stroke="black" stroke-width="1" fill="none" />
<polyline points="352.0,236.0,352.0,235.5,352.0,235.0,352.0,234.5" stroke="black" stroke-width="1" fill="none" />
<polyline points="344.0,224.0,344.0,221.0" stroke="black" stroke-width="1" fill="none" />
<polyline points="336.0,213.0,336.0,210.5" stroke="black" stroke-width="1" fill="none" />
<polyline points="328.0,203.5,328.0,201.5" stroke="black" stroke-width="1" fill="none" />
<polyline points="320.0,198.5,320.0,197.5,320.0,193.5,320.0,189.5" stroke="black" stroke-width="1" fill="none" />
<polyline points="312.0,193.0,312.0,194.0" stroke="black" stroke-width="1" fill="none" />
<polyline points="312.0,186.0,312.0,185.5,312.0,182.0,312.0,178.0" stroke="black" stroke-width="1" fill="none" />
<polyline points="304.0,178.0,304.0,184.0,304.0,184.5,304.0,186.5,304.0,188.0,304.0,190.5" stroke="black" stroke-width="1" fill="none" />
<polyline points="312.0,202.5,312.0,205.0" stroke="black" stroke-width="1" fill="none" />
<polyline points="312.0,222.5,312.0,224.0,312.0,225.5,312.0,231.0" stroke="black" stroke-width="1" fill="none" />
<polyline points="328.0,243.0,328.0,244.0" stroke="black" stroke-width="1" fill="none" />
<polyline points="327.5,279.5,328.5,280.5" stroke="black" stroke-width="1" fill="none" />
<polyline points="324.0,284.0,323.5,283.5" stroke="black" stroke-width="1" fill="none" />
<polyline points="320.0,288.0,318.0,286.0,314.0,290.0,315.0,291.0" stroke="black" stroke-width="1" fill="none" />
<polyline points="310.5,294.5,309.5,293.5" stroke="black" stroke-width="1" fill="none" />
<polyline points="305.0,297.0,306.0,298.0" stroke="black" stroke-width="1" fill="none" />
<polyline points="301.0,301.0,300.5,300.5" stroke="black" stroke-width="1" fill="none" />
<polyline points="296.0,304.0,297.5,305.5" stroke="black" stroke-width="1" fill="none" />
<polyline points="292.5,308.5,291.0,307.0" stroke="black" stroke-width="1" fill="none" />
<polyline points="287.5,311.5,288.5,312.5" stroke="black" stroke-width="1" fill="none" />
<polyline points="283.5,315.5,282.0,314.0,278.0,318.0,279.5,319.5" stroke="black" stroke-width="1" fill="none" />
<polyline points="274.5,322.5,273.5,321.5" stroke="black" stroke-width="1" fill="none" />
<polyline points="266.5,322.5,259.5,315.5,257.0,311.0,258.0,310.0,255.5,311.5,254.0,310.0,253.5,309.5,252.0,308.0" stroke="black" stroke-width="1" fill="none" />
<polyline points="250.0,302.0,251.0,301.0" stroke="black" stroke-width="1" fill="none" />
<polyline points="248.0,296.0,246.5,294.5,245.5,293.5,244.0,292.0,244.0,292.0,243.0,293.0,243.0,291.0,242.0,290.0" stroke="black" stroke-width="1" fill="none" />
<polyline points="236.0,284.0,236.5,283.5,233.5,281.5,241.0,289.0" stroke="black" stroke-width="1" fill="none" />
<polyline points="222.5,265.5,223.0,265.0" stroke="black" stroke-width="1" fill="none" />
<polyline points="215.5,256.5,216.0,256.0,213.0,253.0,222.0,262.0" stroke="black" stroke-width="1" fill="none" />
<polyline points="213.0,251.0,213.5,250.5,212.0,252.0,207.0,247.0,205.5,242.5,206.5,241.5" stroke="black" stroke-width="1" fill="none" />
<polyline points="198.5,233.5,199.5,232.5" stroke="black" stroke-width="1" fill="none" />
<polyline points="191.5,224.5,192.5,223.5" stroke="black" stroke-width="1" fill="none" />
<polyline points="196.5,228.5,187.0,219.0,185.0,215.0,185.5,214.5,186.0,218.0,180.0,212.0" stroke="black" stroke-width="1" fill="none" />
<polyline points="177.5,206.5,178.5,205.5" stroke="black" stroke-width="1" fill="none" />
<polyline points="175.0,201.0,176.0,200.0,175.0,199.0,177.5,201.5,173.5,202.5,173.0,203.0,172.5,203.5,172.0,204.0,171.0,203.0,173.0,205.0" stroke="black" stroke-width="1" fill="none" />
<polyline points="168.5,208.5,166.5,206.5" stroke="black" stroke-width="1" fill="none" />
<polyline points="162.0,210.0,164.0,212.0" stroke="black" stroke-width="1" fill="none" />
<polyline points="159.5,215.5,157.0,213.0,153.0,217.0,155.0,219.0" stroke="black" stroke-width="1" fill="none" />
<polyline points="150.0,222.0,147.5,219.5,143.5,223.5,145.5,225.5" stroke="black" stroke-width="1" fill="none" />
<polyline points="141.0,229.0,138.5,226.5" stroke="black" stroke-width="1" fill="none" />
<polyline points="133.5,229.5,136.0,232.0" stroke="black" stroke-width="1" fill="none" />
<polyline points="131.5,235.5,129.0,233.0" stroke="black" stroke-width="1" fill="none" />
<polyline points="124.0,236.0,126.5,238.5,122.5,242.5,119.5,239.5,117.0,243.0,116.0,244.0,115.0,243.0,117.5,245.5" stroke="black" stroke-width="1" fill="none" />
<polyline points="112.5,248.5,110.5,246.5" stroke="black" stroke-width="1" fill="none" />
<polyline points="105.5,249.5,108.0,252.0" stroke="black" stroke-width="1" fill="none" />
<polyline points="103.0,255.0,100.5,252.5" stroke="black" stroke-width="1" fill="none" />
<polyline points="96.0,256.0,98.5,258.5" stroke="black" stroke-width="1" fill="none" />
<polyline points="94.0,262.0,91.5,259.5,89.0,263.0,88.5,263.5,87.0,263.0,89.5,265.5" stroke="black" stroke-width="1" fill="none" />
<polyline points="84.5,268.5,82.0,266.0,78.0,270.0,80.0,272.0" stroke="black" stroke-width="1" fill="none" />
<polyline points="75.0,275.0,72.5,272.5" stroke="black" stroke-width="1" fill="none" />
<polyline points="67.5,275.5,70.0,278.0,66.0,282.0,63.5,279.5" stroke="black" stroke-width="1" fill="none" />
<polyline points="59.0,283.0,60.5,284.5" stroke="black" stroke-width="1" fill="none" />
<polyline points="56.0,288.0,54.0,286.0" stroke="black" stroke-width="1" fill="none" />
<polyline points="49.0,289.0,51.0,291.0" stroke="black" stroke-width="1" fill="none" />
<polyline points="46.5,294.5,45.0,293.0,46.0,298.0,44.5,299.5,46.0,302.0,46.5,302.5,47.0,303.0,61.5,317.5,62.0,318.0,63.0,319.0,64.0,319.5,64.0,325.5,66.0,326.0,66.5,325.5,65.0,328.0,511.5,328.0" stroke="black" stroke-width="1" fill="none" />
<polyline points="408.0,262.5,408.0,165.0" stroke="black" stroke-width="1" fill="none" />
<polyline points="392.0,165.0,392.0,145.0,396.0,144.0,396.5,144.0,393.5,144.0,0.0,144.0" stroke="black" stroke-width="1" fill="none" />
<polyline points="0.0,136.0,387.5,136.0,389.5,136.0,390.0,136.0" stroke="black" stroke-width="1" fill="none" />
<polyline points="397.5,128.0,511.5,128.0" stroke="black" stroke-width="1" fill="none" />
<polyline points="511.5,200.0,458.5,200.0" stroke="black" stroke-width="1" fill="none" />
<polyline points="451.0,192.0,511.5,192.0" stroke="black" stroke-width="1" fill="none" />
<polyline points="511.5,184.0,445.0,184.0" stroke="black" stroke-width="1" fill="none" />
<polyline points="441.0,176.0,511.5,176.0" stroke="black" stroke-width="1" fill="none" />
<polyline points="439.5,176.0,438.0,176.0" stroke="black" stroke-width="1" fill="none" />
<polyline points="435.0,168.0,511.5,168.0" stroke="black" stroke-width="1" fill="none" />
<polyline points="448.0,216.0,0.0,216.0" stroke="black" stroke-width="1" fill="none" />
<polyline points="0.0,208.0,366.0,208.0" stroke="black" stroke-width="1" fill="none" />
<polyline points="352.0,186.5,352.0,89.0,351.5,88.5,350.5,89.5,350.0,94.0,354.0,98.0,354.5,98.5,356.0,100.0,357.0,101.0,358.0,102.0,360.0,101.5,360.0,100.0" stroke="black" stroke-width="1" fill="none" />
<polyline points="359.0,111.0,359.5,111.5,360.5,112.5,367.0,119.0" stroke="black" stroke-width="1" fill="none" />
<polyline points="375.5,120.0,0.0,120.0,2.5,122.5,8.0,128.0" stroke="black" stroke-width="1" fill="none" />
<polyline points="2.0,126.0,0.5,127.5,0.0,128.0,305.5,128.0" stroke="black" stroke-width="1" fill="none" />
<polyline points="288.0,145.0,288.0,511.5" stroke="black" stroke-width="1" fill="none" />
<polyline points="224.0,494.0,224.0,483.0,224.0,478.0,224.0,474.0,224.0,473.0,224.0,465.5,224.0,464.0,224.0,426.5,224.0,424.0,224.0,421.0,224.0,420.5,224.0,413.5,224.0,411.0,224.0,409.0,224.0,407.5,224.0,59.0" stroke="black" stroke-width="1" fill="none" />
<polyline points="216.0,48.0,216.0,339.5,216.0,341.0,216.0,401.5,216.0,404.0,216.0,404.5,216.0,405.0,216.0,412.5,216.0,416.5,216.0,418.0,216.0,422.5,216.0,428.5,216.0,430.0,216.0,437.0,216.0,438.0,216.0,442.0" stroke="black" stroke-width="1" fill="none" />
<polyline points="208.0,425.0,208.0,422.0,208.0,420.0,208.0,418.5,208.0,416.0,208.0,407.0,208.0,406.5,208.0,390.5,208.0,388.5,208.0,379.5" stroke="black" stroke-width="1" fill="none" />
<polyline points="198.5,382.5,197.5,381.5" stroke="black" stroke-width="1" fill="none" />
<polyline points="194.0,386.0,192.5,384.5" stroke="black" stroke-width="1" fill="none" />
<polyline points="192.0,392.0,192.0,364.5,192.0,363.0,192.0,325.5,192.0,325.0,192.0,16.0" stroke="black" stroke-width="1" fill="none" />
<polyline points="185.0,7.0,182.0,10.0,181.0,11.0,180.0,12.0,182.0,14.0,177.5,9.5" stroke="black" stroke-width="1" fill="none" />
<polyline points="172.5,12.5,176.5,16.5" stroke="black" stroke-width="1" fill="none" />
<polyline points="172.0,20.0,167.5,15.5,165.5,18.5,164.5,19.5,163.0,21.0,159.0,25.0,157.5,26.5,156.0,28.0,157.5,29.5,153.0,25.0,157.0,21.0,156.5,20.5,157.5,21.5,163.0,27.0" stroke="black" stroke-width="1" fill="none" />
<polyline points="167.5,23.5,161.5,17.5" stroke="black" stroke-width="1" fill="none" />
<polyline points="166.0,14.0,161.5,9.5,165.5,5.5,160.0,0.0,160.0,0.0,160.0,334.0,160.0,339.0,160.0,349.5,160.0,354.5,160.0,356.0" stroke="black" stroke-width="1" fill="none" />
<polyline points="168.0,358.5,168.0,371.0,168.0,374.0,168.0,375.0,168.0,378.0,168.0,382.0,168.0,387.0,168.0,389.0" stroke="black" stroke-width="1" fill="none" />
<polyline points="176.0,394.5,176.0,403.0" stroke="black" stroke-width="1" fill="none" />
<polyline points="168.0,402.0,168.0,407.5,168.0,412.0,168.0,413.5" stroke="black" stroke-width="1" fill="none" />
<polyline points="160.0,414.0,160.0,409.0" stroke="black" stroke-width="1" fill="none" />
<polyline points="152.0,416.0,152.0,419.5" stroke="black" stroke-width="1" fill="none" />
<polyline points="144.0,422.5,144.0,425.0,144.0,426.5,144.0,430.5,145.0,432.0,511.5,432.0" stroke="black" stroke-width="1" fill="none" />
<polyline points="511.5,504.0,199.0,504.0,200.5,504.5,207.0,511.0,208.0,511.5,208.0,510.0,204.5,507.5,204.0,508.0" stroke="black" stroke-width="1" fill="none" />
<polyline points="200.5,503.5,201.5,502.5,200.0,504.5,200.0,499.0" stroke="black" stroke-width="1" fill="none" />
<polyline points="193.0,496.0,511.5,496.0" stroke="black" stroke-width="1" fill="none" />
<polyline points="216.0,503.5,216.0,504.5" stroke="black" stroke-width="1" fill="none" />
<polyline points="194.0,494.0,193.5,494.5,192.0,494.0,192.0,489.0,187.0,488.0,511.5,488.0" stroke="black" stroke-width="1" fill="none" />
<polyline points="208.0,480.0,208.0,478.0" stroke="black" stroke-width="1" fill="none" />
<polyline points="187.5,484.5,187.0,485.0" stroke="black" stroke-width="1" fill="none" />
<polyline points="183.5,479.5,177.5,473.5,176.0,473.0,176.0,467.5,174.5,472.0,511.5,472.0" stroke="black" stroke-width="1" fill="none" />
<polyline points="511.5,480.0,181.0,480.0,184.0,478.0,184.0,483.5" stroke="black" stroke-width="1" fill="none" />
<polyline points="180.0,476.0,180.5,475.5" stroke="black" stroke-width="1" fill="none" />
<polyline points="168.5,464.0,511.5,464.0" stroke="black" stroke-width="1" fill="none" />
<polyline points="511.5,456.0,162.5,456.0" stroke="black" stroke-width="1" fill="none" />
<polyline points="168.0,458.5,168.0,462.5" stroke="black" stroke-width="1" fill="none" />
<polyline points="160.0,452.0,160.0,447.0,157.0,448.0,511.5,448.0" stroke="black" stroke-width="1" fill="none" />
<polyline points="511.5,440.0,151.0,440.0,152.0,440.0,156.0,444.0,152.0,441.0,152.0,435.5" stroke="black" stroke-width="1" fill="none" />
<polyline points="138.5,424.0,511.5,424.0" stroke="black" stroke-width="1" fill="none" />
<polyline points="511.5,416.0,132.5,416.0,136.0,415.0,136.0,420.0" stroke="black" stroke-width="1" fill="none" />
<polyline points="129.5,409.5,127.0,407.0,126.0,408.0,511.5,408.0" stroke="black" stroke-width="1" fill="none" />
<polyline points="511.5,400.0,120.0,400.0,120.0,399.5,120.0,394.5" stroke="black" stroke-width="1" fill="none" />
<polyline points="114.0,392.0,511.5,392.0" stroke="black" stroke-width="1" fill="none" />
<polyline points="511.5,384.0,108.0,384.0,107.0,381.0,108.0,380.0,109.0,381.0,105.5,377.5,104.5,376.5,100.5,372.5,100.5,371.5,101.0,371.0,104.0,372.5,104.0,377.5,102.0,376.0,511.5,376.0" stroke="black" stroke-width="1" fill="none" />
<polyline points="511.5,368.0,96.0,368.0,96.0,367.5,96.0,362.5,94.5,361.5,93.5,362.5,90.0,360.0,511.5,360.0" stroke="black" stroke-width="1" fill="none" />
<polyline points="511.5,352.0,84.0,352.0,86.5,353.5,87.5,352.5,88.0,352.5,88.0,357.0" stroke="black" stroke-width="1" fill="none" />
<polyline points="80.0,344.0,80.5,343.5,80.0,342.0,80.0,347.0,83.5,347.5,75.0,339.0,73.0,335.0,73.5,334.5,72.0,336.0,72.0,329.0" stroke="black" stroke-width="1" fill="none" />
<polyline points="71.5,336.0,511.5,336.0" stroke="black" stroke-width="1" fill="none" />
<polyline points="511.5,344.0,77.5,344.0" stroke="black" stroke-width="1" fill="none" />
<polyline points="88.0,316.5,88.0,311.5,88.0,307.5,88.0,0.0,88.0,0.0,133.5,45.5,133.0,43.0,140.5,35.5,141.0,35.0,142.0,34.0,142.5,30.5,150.0,38.0,150.5,38.5,151.5,39.5" stroke="black" stroke-width="1" fill="none" />
<polyline points="153.0,33.0,146.0,26.0" stroke="black" stroke-width="1" fill="none" />
<polyline points="154.0,18.0,155.5,19.5" stroke="black" stroke-width="1" fill="none" />
<polyline points="158.5,6.5,152.0,0.0,152.0,0.0,152.0,314.0,152.0,315.0,152.0,333.0,152.0,334.5,152.0,339.5,152.0,341.5,152.0,356.5" stroke="black" stroke-width="1" fill="none" />
<polyline points="144.0,358.0,144.0,359.0" stroke="black" stroke-width="1" fill="none" />
<polyline points="136.0,361.5,136.0,362.0" stroke="black" stroke-width="1" fill="none" />
<polyline points="136.0,356.0,136.0,355.5,136.0,353.5,136.0,352.5,136.0,348.5,136.0,346.5" stroke="black" stroke-width="1" fill="none" />
<polyline points="136.0,339.5,136.0,338.5" stroke="black" stroke-width="1" fill="none" />
<polyline points="144.0,338.5,144.0,326.0,144.0,325.0,144.0,283.0,144.0,282.5,144.0,0.0,144.0,0.0,159.0,15.0" stroke="black" stroke-width="1" fill="none" />
<polyline points="170.5,2.5,168.0,0.0,168.0,0.0,168.0,347.5,168.0,350.0,168.0,356.5" stroke="black" stroke-width="1" fill="none" />
<polyline points="176.0,356.0,176.0,358.5,176.0,361.0,176.0,369.0,176.0,374.5,176.0,378.5,176.0,380.5,176.0,381.0,176.0,381.5,176.0,386.5" stroke="black" stroke-width="1" fill="none" />
<polyline points="184.0,386.0,184.0,398.0,184.0,402.0,184.0,405.0,184.0,409.5,184.0,411.5,184.0,414.0,184.0,418.0" stroke="black" stroke-width="1" fill="none" />
<polyline points="184.0,428.0,184.0,430.5" stroke="black" stroke-width="1" fill="none" />
<polyline points="192.0,398.5,192.0,398.0,192.0,397.0,192.0,396.5" stroke="black" stroke-width="1" fill="none" />
<polyline points="184.5,392.5,183.5,391.5,179.5,395.5,180.0,396.0" stroke="black" stroke-width="1" fill="none" />
<polyline points="184.0,380.5,184.0,379.0,184.0,376.5,184.0,374.5,184.0,374.0,184.0,371.0,184.0,367.0,184.0,361.5,184.0,358.5,184.0,4.5,182.5,6.5,187.0,11.0" stroke="black" stroke-width="1" fill="none" />
<polyline points="176.0,0.0,176.0,329.0,176.0,330.5,176.0,350.0,176.0,352.0,176.0,355.5" stroke="black" stroke-width="1" fill="none" />
<polyline points="160.0,364.5,160.0,366.0,160.0,369.0,160.0,371.0,160.0,373.5,160.0,375.5" stroke="black" stroke-width="1" fill="none" />
<polyline points="152.0,375.5,152.0,377.0" stroke="black" stroke-width="1" fill="none" />
<polyline points="144.0,378.5,144.0,379.0" stroke="black" stroke-width="1" fill="none" />
<polyline points="144.0,368.5,144.0,367.5" stroke="black" stroke-width="1" fill="none" />
<polyline points="128.0,343.0,128.0,342.0,128.0,338.0,128.0,337.5" stroke="black" stroke-width="1" fill="none" />
<polyline points="136.0,332.5,136.0,0.0,136.0,0.0,151.0,15.0" stroke="black" stroke-width="1" fill="none" />
<polyline points="151.0,23.0,128.0,0.0,128.0,0.0,128.0,328.5" stroke="black" stroke-width="1" fill="none" />
<polyline points="120.0,330.0,120.0,333.0,120.0,329.0,120.0,326.0,120.0,325.0,120.0,322.5,120.0,320.0,120.0,314.5,120.0,314.0,120.0,0.0,120.0,0.0,145.5,25.5" stroke="black" stroke-width="1" fill="none" />
<polyline points="142.0,30.0,112.0,0.0,112.0,0.0,112.0,301.5,112.0,303.0,112.0,309.5,112.0,313.5,112.0,315.5,112.0,318.0,112.0,320.0,112.0,320.5,112.0,321.0,112.0,322.0,112.0,323.0" stroke="black" stroke-width="1" fill="none" />
<polyline points="104.0,318.0,104.0,314.5,104.0,311.0,104.0,0.0,104.0,0.0,136.0,32.0,137.0,33.0,143.0,39.0" stroke="black" stroke-width="1" fill="none" />
<polyline points="140.5,44.5,133.5,37.5,132.5,36.5,96.0,0.0,96.0,0.0,96.0,313.5,96.0,316.0,96.0,318.0" stroke="black" stroke-width="1" fill="none" />
<polyline points="80.0,313.5,80.0,309.5,80.0,305.5,80.0,0.0,80.0,0.0,129.5,49.5" stroke="black" stroke-width="1" fill="none" />
<polyline points="125.0,53.0,127.0,55.0" stroke="black" stroke-width="1" fill="none" />
<polyline points="136.0,56.0,136.5,56.5,139.5,59.5,140.0,60.0" stroke="black" stroke-width="1" fill="none" />
<polyline points="149.0,61.0,149.5,61.5" stroke="black" stroke-width="1" fill="none" />
<polyline points="136.5,48.5,136.0,48.0" stroke="black" stroke-width="1" fill="none" />
<polyline points="119.5,48.5,114.5,53.5,114.0,54.0,112.0,56.0,110.5,57.5,109.5,58.5,111.5,63.5,113.0,65.0" stroke="black" stroke-width="1" fill="none" />
<polyline points="119.0,55.0,113.5,49.5,112.0,48.0,64.0,0.0,64.0,0.0,64.0,302.5,64.0,303.5,64.0,307.0,64.0,310.0,64.0,311.0" stroke="black" stroke-width="1" fill="none" />
<polyline points="60.0,316.0,58.5,317.5,59.0,320.0,511.5,320.0" stroke="black" stroke-width="1" fill="none" />
<polyline points="511.5,312.0,53.0,312.0,55.5,312.5,56.0,312.0,56.0,309.0,56.0,315.5" stroke="black" stroke-width="1" fill="none" />
<polyline points="51.5,308.5,53.0,307.0,56.0,305.0,56.0,302.5" stroke="black" stroke-width="1" fill="none" />
<polyline points="49.5,302.5,48.0,304.0,46.5,304.0,511.5,304.0" stroke="black" stroke-width="1" fill="none" />
<polyline points="511.5,296.0,0.0,296.0" stroke="black" stroke-width="1" fill="none" />
<polyline points="0.0,288.0,503.0,288.0" stroke="black" stroke-width="1" fill="none" />
<polyline points="419.0,280.0,0.0,280.0" stroke="black" stroke-width="1" fill="none" />
<polyline points="0.0,272.0,413.0,272.0" stroke="black" stroke-width="1" fill="none" />
<polyline points="408.0,264.0,0.0,264.0" stroke="black" stroke-width="1" fill="none" />
<polyline points="3.0,259.0,0.0,256.0,0.0,256.0,401.0,256.0" stroke="black" stroke-width="1" fill="none" />
<polyline points="397.0,248.0,0.0,248.0,0.0,248.0,0.5,248.5,2.5,245.5,4.5,243.5,8.5,247.5,6.0,250.0,10.0,254.0,11.0,253.0,9.0,257.0,37.5,285.5" stroke="black" stroke-width="1" fill="none" />
<polyline points="37.0,293.0,38.0,294.0,39.0,295.0,42.0,298.0,39.5,296.5,41.0,295.0,38.0,298.0,36.5,299.5,35.5,300.5,34.5,301.5,36.5,300.5,35.0,299.0" stroke="black" stroke-width="1" fill="none" />
<polyline points="30.0,302.0,32.5,304.5" stroke="black" stroke-width="1" fill="none" />
<polyline points="26.5,306.5,26.0,306.0,24.0,305.0,24.0,309.5,23.0,311.0,21.0,309.0,16.0,311.5,16.0,315.5,17.0,313.0,16.5,312.5" stroke="black" stroke-width="1" fill="none" />
<polyline points="16.0,303.5,16.0,300.0" stroke="black" stroke-width="1" fill="none" />
<polyline points="24.0,302.5,24.0,0.0,24.0,0.0,78.5,54.5" stroke="black" stroke-width="1" fill="none" />
<polyline points="76.5,60.5,81.0,65.0,84.5,68.5,90.0,74.0,89.5,70.5,94.0,66.0,95.0,65.0,96.5,63.5,94.0,62.0,100.0,68.0,96.0,72.0,96.5,72.5,98.5,74.5,99.5,75.5" stroke="black" stroke-width="1" fill="none" />
<polyline points="105.0,65.0,99.0,59.0" stroke="black" stroke-width="1" fill="none" />
<polyline points="104.0,56.0,109.5,61.5" stroke="black" stroke-width="1" fill="none" />
<polyline points="109.0,53.0,118.0,62.0" stroke="black" stroke-width="1" fill="none" />
<polyline points="124.5,52.5,72.0,0.0,72.0,0.0,72.0,300.0,72.0,300.5,72.0,308.0" stroke="black" stroke-width="1" fill="none" />
<polyline points="32.0,280.0,31.0,281.0" stroke="black" stroke-width="1" fill="none" />
<polyline points="23.5,272.5,25.0,271.0" stroke="black" stroke-width="1" fill="none" />
<polyline points="21.5,266.5,20.0,268.0" stroke="black" stroke-width="1" fill="none" />
<polyline points="17.0,263.0,18.5,261.5" stroke="black" stroke-width="1" fill="none" />
<polyline points="15.0,257.0,13.0,259.0,16.0,256.0,16.5,256.5,15.0,255.0,0.0,240.0,0.0,240.0,388.5,240.0" stroke="black" stroke-width="1" fill="none" />
<polyline points="359.0,200.0,0.0,200.0" stroke="black" stroke-width="1" fill="none" />
<polyline points="0.0,192.0,430.5,192.0" stroke="black" stroke-width="1" fill="none" />
<polyline points="418.5,176.0,0.0,176.0" stroke="black" stroke-width="1" fill="none" />
<polyline points="0.0,168.0,335.5,168.0" stroke="black" stroke-width="1" fill="none" />
<polyline points="304.0,168.5,304.0,176.0" stroke="black" stroke-width="1" fill="none" />
<polyline points="296.0,156.5,296.0,197.5" stroke="black" stroke-width="1" fill="none" />
<polyline points="266.0,138.0,265.0,137.0" stroke="black" stroke-width="1" fill="none" />
<polyline points="257.0,145.0,256.0,144.0" stroke="black" stroke-width="1" fill="none" />
<polyline points="247.5,151.5,247.0,151.0,243.0,155.0,241.5,153.5,237.5,157.5,238.5,158.5,234.5,162.5,232.5,160.5,228.5,164.5,228.0,164.0" stroke="black" stroke-width="1" fill="none" />
<polyline points="223.0,167.0,225.0,169.0" stroke="black" stroke-width="1" fill="none" />
<polyline points="219.5,171.5,218.5,170.5" stroke="black" stroke-width="1" fill="none" />
<polyline points="215.0,175.0,213.5,173.5" stroke="black" stroke-width="1" fill="none" />
<polyline points="209.0,177.0,211.0,179.0" stroke="black" stroke-width="1" fill="none" />
<polyline points="205.5,181.5,204.5,180.5" stroke="black" stroke-width="1" fill="none" />
<polyline points="201.0,185.0,199.5,183.5" stroke="black" stroke-width="1" fill="none" />
<polyline points="195.0,187.0,196.0,188.0,192.0,192.0,190.0,190.0,186.0,194.0,187.0,195.0,183.0,199.0,181.0,197.0" stroke="black" stroke-width="1" fill="none" />
<polyline points="172.0,196.0,170.5,197.5,170.5,194.5,169.0,193.0" stroke="black" stroke-width="1" fill="none" />
<polyline points="163.5,188.5,164.5,187.5" stroke="black" stroke-width="1" fill="none" />
<polyline points="159.5,183.5,168.5,192.5" stroke="black" stroke-width="1" fill="none" />
<polyline points="159.0,183.0,154.0,178.0" stroke="black" stroke-width="1" fill="none" />
<polyline points="150.0,170.0,151.0,169.0,149.5,165.5,148.0,164.0,144.0,160.0,143.0,161.0" stroke="black" stroke-width="1" fill="none" />
<polyline points="136.0,152.0,137.0,151.0,133.0,149.0,147.5,163.5" stroke="black" stroke-width="1" fill="none" />
<polyline points="133.0,147.0,134.0,146.0,130.0,142.0,129.0,143.0,128.0,144.0,130.0,146.0" stroke="black" stroke-width="1" fill="none" />
<polyline points="126.0,138.0,127.5,136.5" stroke="black" stroke-width="1" fill="none" />
<polyline points="123.0,133.0,122.0,134.0" stroke="black" stroke-width="1" fill="none" />
<polyline points="119.0,129.0,120.5,127.5,116.5,123.5,115.0,125.0" stroke="black" stroke-width="1" fill="none" />
<polyline points="112.5,119.5,113.5,118.5" stroke="black" stroke-width="1" fill="none" />
<polyline points="105.0,113.0,124.0,132.0" stroke="black" stroke-width="1" fill="none" />
<polyline points="105.5,110.5,106.5,109.5" stroke="black" stroke-width="1" fill="none" />
<polyline points="102.0,106.0,103.0,105.0,106.0,106.0,100.0,100.0,100.0,100.0,98.0,102.0" stroke="black" stroke-width="1" fill="none" />
<polyline points="91.5,92.5,93.0,91.0" stroke="black" stroke-width="1" fill="none" />
<polyline points="88.5,87.5,89.5,86.5,85.5,82.5,85.0,83.0" stroke="black" stroke-width="1" fill="none" />
<polyline points="81.5,78.5,85.0,75.0" stroke="black" stroke-width="1" fill="none" />
<polyline points="79.0,73.0,78.0,74.0,75.0,75.0,98.5,98.5" stroke="black" stroke-width="1" fill="none" />
<polyline points="86.5,78.5,8.0,0.0,8.0,0.0,8.0,303.5" stroke="black" stroke-width="1" fill="none" />
<polyline points="0.0,304.0,34.0,304.0" stroke="black" stroke-width="1" fill="none" />
<polyline points="56.0,300.5,56.0,0.0,56.0,0.0,107.5,51.5" stroke="black" stroke-width="1" fill="none" />
<polyline points="100.5,52.5,96.0,48.0,95.5,47.5,48.0,0.0,48.0,0.0,48.0,305.5" stroke="black" stroke-width="1" fill="none" />
<polyline points="40.0,299.0,40.0,0.0,40.0,0.0,88.0,48.0,88.5,48.5,92.0,52.0,92.5,52.5,93.0,53.0,94.5,54.5,97.5,57.5,93.5,61.5,90.5,58.5,90.0,58.0,88.0,56.0,86.5,54.5,32.0,0.0,32.0,0.0,32.0,305.0" stroke="black" stroke-width="1" fill="none" />
<polyline points="16.0,299.5,16.0,0.0,16.0,0.0,70.0,54.0,71.0,55.0,75.0,59.0,72.5,63.5,71.0,65.0,68.5,68.5,66.0,66.0,64.0,64.0,63.0,63.0" stroke="black" stroke-width="1" fill="none" />
<polyline points="68.0,60.0,69.0,59.0" stroke="black" stroke-width="1" fill="none" />
<polyline points="66.0,54.0,63.5,56.5" stroke="black" stroke-width="1" fill="none" />
<polyline points="61.0,51.0,62.5,49.5" stroke="black" stroke-width="1" fill="none" />
<polyline points="57.0,47.0,60.0,44.0" stroke="black" stroke-width="1" fill="none" />
<polyline points="55.5,40.5,53.5,42.5" stroke="black" stroke-width="1" fill="none" />
<polyline points="50.5,37.5,53.0,35.0" stroke="black" stroke-width="1" fill="none" />
<polyline points="49.5,30.5,46.5,33.5" stroke="black" stroke-width="1" fill="none" />
<polyline points="44.0,28.0,46.5,25.5" stroke="black" stroke-width="1" fill="none" />
<polyline points="43.5,20.5,40.0,24.0" stroke="black" stroke-width="1" fill="none" />
<polyline points="36.5,19.5,39.5,16.5" stroke="black" stroke-width="1" fill="none" />
<polyline points="36.5,11.5,33.0,15.0" stroke="black" stroke-width="1" fill="none" />
<polyline points="29.5,10.5,33.5,6.5" stroke="black" stroke-width="1" fill="none" />
<polyline points="30.0,2.0,26.0,6.0" stroke="black" stroke-width="1" fill="none" />
<polyline points="22.5,1.5,24.0,0.0" stroke="black" stroke-width="1" fill="none" />
<polyline points="0.0,0.0,0.0,304.0" stroke="black" stroke-width="1" fill="none" />
<polyline points="0.0,312.0,21.5,312.0" stroke="black" stroke-width="1" fill="none" />
<polyline points="8.0,318.0,8.0,321.0,10.0,320.0,3.0,320.0" stroke="black" stroke-width="1" fill="none" />
<polyline points="0.0,240.0,1.5,238.5" stroke="black" stroke-width="1" fill="none" />
<polyline points="12.5,204.5,12.0,204.0" stroke="black" stroke-width="1" fill="none" />
<polyline points="0.0,184.0,346.5,184.0" stroke="black" stroke-width="1" fill="none" />
<polyline points="343.5,127.5,216.0,0.0,216.0,0.0,216.0,4.5,218.5,5.5,224.0,0.0,224.0,0.0,224.0,15.0,225.5,14.5,240.0,0.0,240.0,0.0,240.0,36.0,239.5,40.5,236.0,44.0" stroke="black" stroke-width="1" fill="none" />
<polyline points="229.0,35.0,232.0,32.0,232.5,32.5,207.0,7.0,208.5,7.5,211.5,4.5,212.5,4.5,213.5,5.5,215.0,9.0,212.0,12.0,216.0,9.0,216.0,20.0,218.5,21.5,221.5,18.5,224.0,19.0,224.0,31.5,225.5,30.5,228.5,27.5,232.0,30.0,232.0,41.5" stroke="black" stroke-width="1" fill="none" />
<polyline points="235.0,29.0,256.5,7.5" stroke="black" stroke-width="1" fill="none" />
<polyline points="263.5,7.5,285.0,29.0" stroke="black" stroke-width="1" fill="none" />
<polyline points="265.0,25.0,240.0,0.0" stroke="black" stroke-width="1" fill="none" />
<polyline points="232.0,0.0,232.0,25.5" stroke="black" stroke-width="1" fill="none" />
<polyline points="228.5,19.5,248.0,0.0" stroke="black" stroke-width="1" fill="none" />
<polyline points="232.0,0.0,301.0,69.0" stroke="black" stroke-width="1" fill="none" />
<polyline points="341.0,77.0,347.5,83.5,347.5,80.0,511.5,80.0" stroke="black" stroke-width="1" fill="none" />
<polyline points="511.5,160.0,424.0,160.0" stroke="black" stroke-width="1" fill="none" />
<polyline points="418.0,152.0,511.5,152.0" stroke="black" stroke-width="1" fill="none" />
<polyline points="431.0,168.0,430.5,168.0" stroke="black" stroke-width="1" fill="none" />
<polyline points="405.5,160.0,0.0,160.0" stroke="black" stroke-width="1" fill="none" />
<polyline points="0.0,152.0,323.5,152.0" stroke="black" stroke-width="1" fill="none" />
<polyline points="373.5,112.0,374.5,112.0,378.5,112.0,511.5,112.0" stroke="black" stroke-width="1" fill="none" />
<polyline points="511.5,144.0,410.0,144.0" stroke="black" stroke-width="1" fill="none" />
<polyline points="403.5,136.0,511.5,136.0" stroke="black" stroke-width="1" fill="none" />
<polyline points="511.5,120.0,390.5,120.0" stroke="black" stroke-width="1" fill="none" />
<polyline points="345.0,79.0,343.5,80.5" stroke="black" stroke-width="1" fill="none" />
<polyline points="311.5,87.5,224.0,0.0" stroke="black" stroke-width="1" fill="none" />
<polyline points="232.0,0.0,222.0,10.0,222.0,14.0,222.5,14.5,217.5,14.5,215.5,16.5" stroke="black" stroke-width="1" fill="none" />
<polyline points="218.0,10.0,217.5,9.5" stroke="black" stroke-width="1" fill="none" />
<polyline points="215.5,0.5,216.0,0.0" stroke="black" stroke-width="1" fill="none" />
<polyline points="209.0,1.0,208.0,0.0,208.0,0.0,208.0,9.5" stroke="black" stroke-width="1" fill="none" />
<polyline points="205.0,3.0,208.0,0.0" stroke="black" stroke-width="1" fill="none" />
<polyline points="226.5,18.5,227.0,19.0,225.0,23.0,222.0,26.0" stroke="black" stroke-width="1" fill="none" />
<polyline points="208.0,36.5,208.0,342.0,208.0,343.0,208.0,378.0" stroke="black" stroke-width="1" fill="none" />
<polyline points="200.0,373.0,200.0,26.5" stroke="black" stroke-width="1" fill="none" />
<polyline points="272.0,0.0,272.0,79.5" stroke="black" stroke-width="1" fill="none" />
<polyline points="95.5,71.5,89.5,65.5" stroke="black" stroke-width="1" fill="none" />
<polyline points="84.5,60.5,83.0,59.0" stroke="black" stroke-width="1" fill="none" />
<polyline points="76.5,67.5,75.0,69.0,70.0,70.0,74.0,74.0,73.5,78.5,72.5,79.5,70.5,81.5,69.5,82.5,68.0,84.0,67.0,85.0,70.5,86.5,65.0,81.0,62.5,78.5,62.0,78.0,59.0,75.0,58.5,74.5,57.5,73.5,56.5,72.5,54.5,70.5,49.0,65.0,47.5,63.5,42.0,58.0" stroke="black" stroke-width="1" fill="none" />
<polyline points="34.0,66.0,46.0,78.0,48.0,80.0,49.0,81.0,51.0,83.0,53.0,85.0,54.5,86.5,61.0,93.0" stroke="black" stroke-width="1" fill="none" />
<polyline points="58.0,98.0,59.0,99.0" stroke="black" stroke-width="1" fill="none" />
<polyline points="51.0,99.0,46.0,94.0,48.5,95.5,46.0,98.0,45.0,99.0,44.0,100.0,43.0,101.0,41.0,103.0,41.5,105.5,36.5,100.5" stroke="black" stroke-width="1" fill="none" />
<polyline points="41.0,97.0,47.0,103.0" stroke="black" stroke-width="1" fill="none" />
<polyline points="37.0,109.0,31.5,103.5" stroke="black" stroke-width="1" fill="none" />
<polyline points="26.5,106.5,32.0,112.0,36.0,116.0,37.0,117.0" stroke="black" stroke-width="1" fill="none" />
<polyline points="36.5,124.5,39.0,127.0" stroke="black" stroke-width="1" fill="none" />
<polyline points="41.0,137.0,41.5,137.5" stroke="black" stroke-width="1" fill="none" />
<polyline points="49.0,145.0,49.5,145.5" stroke="black" stroke-width="1" fill="none" />
<polyline points="24.0,136.0,23.0,135.0" stroke="black" stroke-width="1" fill="none" />
<polyline points="18.5,130.5,17.5,129.5" stroke="black" stroke-width="1" fill="none" />
<polyline points="13.0,125.0,7.0,119.0" stroke="black" stroke-width="1" fill="none" />
<polyline points="12.5,116.5,18.0,122.0" stroke="black" stroke-width="1" fill="none" />
<polyline points="21.0,115.0,25.0,111.0,26.0,110.0,27.5,108.5,22.5,110.5,28.5,116.5" stroke="black" stroke-width="1" fill="none" />
<polyline points="22.0,118.0,17.5,113.5" stroke="black" stroke-width="1" fill="none" />
<polyline points="20.5,108.5,20.0,108.0" stroke="black" stroke-width="1" fill="none" />
<polyline points="23.0,103.0,22.0,102.0,19.5,99.5,17.0,97.0,13.5,93.5,12.0,92.0,10.5,90.5,10.0,90.0" stroke="black" stroke-width="1" fill="none" />
<polyline points="7.0,95.0,11.5,99.5" stroke="black" stroke-width="1" fill="none" />
<polyline points="5.0,93.0,4.5,92.5" stroke="black" stroke-width="1" fill="none" />
<polyline points="0.0,96.0,282.0,96.0" stroke="black" stroke-width="1" fill="none" />
<polyline points="92.0,124.0,91.5,123.5" stroke="black" stroke-width="1" fill="none" />
<polyline points="56.0,96.0,51.5,91.5" stroke="black" stroke-width="1" fill="none" />
<polyline points="45.0,85.0,42.0,82.0,38.0,86.0,39.5,87.5" stroke="black" stroke-width="1" fill="none" />
<polyline points="34.5,90.5,36.5,92.5" stroke="black" stroke-width="1" fill="none" />
<polyline points="30.5,94.5,27.0,91.0,26.5,90.5,25.5,89.5,23.5,87.5,22.5,86.5" stroke="black" stroke-width="1" fill="none" />
<polyline points="24.5,80.5,31.0,87.0" stroke="black" stroke-width="1" fill="none" />
<polyline points="33.0,81.0,32.0,80.0,30.0,78.0,26.0,74.0,25.5,73.5,24.0,72.0" stroke="black" stroke-width="1" fill="none" />
<polyline points="18.0,74.0,23.5,79.5" stroke="black" stroke-width="1" fill="none" />
<polyline points="17.0,81.0,14.5,78.5" stroke="black" stroke-width="1" fill="none" />
<polyline points="11.5,83.5,9.0,81.0,6.0,78.0,5.0,77.0,2.0,74.0,0.0,72.0,0.0,72.0,511.5,72.0" stroke="black" stroke-width="1" fill="none" />
<polyline points="75.5,83.5,68.5,76.5,67.0,75.0,66.0,74.0,64.5,72.5,62.5,70.5" stroke="black" stroke-width="1" fill="none" />
<polyline points="61.0,85.0,66.0,90.0" stroke="black" stroke-width="1" fill="none" />
<polyline points="39.5,79.5,36.5,76.5" stroke="black" stroke-width="1" fill="none" />
<polyline points="17.5,73.5,16.0,72.0,15.5,71.5,12.0,68.0" stroke="black" stroke-width="1" fill="none" />
<polyline points="10.0,74.0,13.5,77.5" stroke="black" stroke-width="1" fill="none" />
<polyline points="15.5,87.5,16.0,88.0" stroke="black" stroke-width="1" fill="none" />
<polyline points="21.5,93.5,25.5,97.5" stroke="black" stroke-width="1" fill="none" />
<polyline points="7.5,111.5,6.5,110.5,4.0,108.0,3.0,107.0,0.0,104.0,366.0,104.0" stroke="black" stroke-width="1" fill="none" />
<polyline points="26.0,130.0,24.0,128.0" stroke="black" stroke-width="1" fill="none" />
<polyline points="12.5,140.5,11.0,139.0" stroke="black" stroke-width="1" fill="none" />
<polyline points="19.5,147.5,20.0,148.0" stroke="black" stroke-width="1" fill="none" />
<polyline points="20.0,164.0,20.5,164.5" stroke="black" stroke-width="1" fill="none" />
<polyline points="2.5,130.5,0.0,128.0" stroke="black" stroke-width="1" fill="none" />
<polyline points="0.0,112.0,369.5,112.0" stroke="black" stroke-width="1" fill="none" />
<polyline points="33.5,73.5,2.0,42.0,0.0,40.0,511.5,40.0" stroke="black" stroke-width="1" fill="none" />
<polyline points="22.5,70.5,0.0,48.0,0.0,48.0,511.5,48.0" stroke="black" stroke-width="1" fill="none" />
<polyline points="32.0,64.0,0.0,32.0,0.0,32.0,511.5,32.0" stroke="black" stroke-width="1" fill="none" />
<polyline points="56.5,80.5,0.5,24.5,0.0,24.0,511.5,24.0" stroke="black" stroke-width="1" fill="none" />
<polyline points="9.0,73.0,2.0,66.0,1.0,65.0,0.0,64.0,0.0,64.0,511.5,64.0" stroke="black" stroke-width="1" fill="none" />
<polyline points="41.5,57.5,0.0,16.0,0.0,16.0,511.5,16.0" stroke="black" stroke-width="1" fill="none" />
<polyline points="11.0,67.0,0.0,56.0,0.0,56.0,511.5,56.0" stroke="black" stroke-width="1" fill="none" />
<polyline points="62.0,70.0,0.0,8.0,0.0,8.0,511.5,8.0" stroke="black" stroke-width="1" fill="none" />
<polyline points="62.0,62.0,0.0,0.0" stroke="black" stroke-width="1" fill="none" />
<polyline points="0.0,80.0,347.0,80.0" stroke="black" stroke-width="1" fill="none" />
<polyline points="4.0,84.0,3.5,83.5" stroke="black" stroke-width="1" fill="none" />
<polyline points="0.0,88.0,511.5,88.0" stroke="black" stroke-width="1" fill="none" />
<polyline points="120.0,345.0,120.0,346.0" stroke="black" stroke-width="1" fill="none" />
<polyline points="112.0,343.0,112.0,341.5" stroke="black" stroke-width="1" fill="none" />
<polyline points="112.0,384.0,112.0,388.5,114.5,389.5,115.0,389.0" stroke="black" stroke-width="1" fill="none" />
<polyline points="128.0,405.5,128.0,409.5" stroke="black" stroke-width="1" fill="none" />
</svg>