<svg xmlns="http://www.w3.org/2000/svg" height="1478px" width="2156px" version="1.1"><polyline points="970.0,0.0,928.0,16.0,884.0,32.0,842.0,48.0,798.0,64.0,756.0,80.0,714.0,96.0,670.0,112.0,628.0,128.0,584.0,144.0,542.0,160.0,498.0,176.0,456.0,192.0,412.0,208.0,370.0,224.0,326.0,240.0,304.0,256.0,290.0,272.0,276.0,288.0,262.0,304.0,248.0,320.0,234.0,336.0,220.0,352.0,204.0,368.0,190.0,384.0,176.0,400.0,162.0,416.0,148.0,432.0,134.0,448.0,120.0,464.0,106.0,480.0,98.0,496.0,94.0,512.0,88.0,528.0,82.0,544.0,78.0,560.0,72.0,576.0,68.0,592.0,62.0,608.0,56.0,624.0,52.0,640.0,46.0,656.0,42.0,672.0,36.0,688.0,30.0,704.0,26.0,720.0,20.0,736.0,16.0,752.0,10.0,768.0,4.0,784.0,2.0,790.0,18.0,740.0,34.0,692.0,50.0,642.0,66.0,594.0,82.0,544.0,98.0,494.0,114.0,470.0,130.0,452.0,146.0,434.0,162.0,416.0,178.0,398.0,194.0,380.0,210.0,362.0,226.0,344.0,242.0,326.0,258.0,308.0,274.0,290.0,290.0,272.0,306.0,254.0,322.0,242.0,338.0,236.0,354.0,230.0,370.0,224.0,386.0,218.0,402.0,212.0,418.0,206.0,434.0,200.0,450.0,194.0,466.0,188.0,482.0,182.0,498.0,176.0,514.0,170.0,530.0,164.0,546.0,158.0,562.0,152.0,578.0,146.0,594.0,142.0,610.0,136.0,626.0,130.0,642.0,124.0,658.0,118.0,674.0,112.0,690.0,106.0,706.0,100.0,722.0,94.0,738.0,88.0,754.0,82.0,770.0,76.0,786.0,70.0,802.0,64.0,818.0,58.0,834.0,52.0,850.0,46.0,866.0,40.0,882.0,34.0,898.0,28.0,914.0,22.0,930.0,16.0,946.0,10.0,962.0,4.0" stroke="black" stroke-width="1" fill="none" />
<polyline points="970.0,8.0,954.0,14.0,938.0,20.0,922.0,26.0,906.0,32.0,890.0,38.0,874.0,44.0,858.0,50.0,842.0,56.0,826.0,62.0,810.0,68.0,794.0,74.0,778.0,80.0,762.0,86.0,746.0,92.0,730.0,98.0,714.0,104.0,698.0,110.0,682.0,116.0,666.0,122.0,650.0,128.0,634.0,132.0,618.0,138.0,602.0,144.0,586.0,150.0,570.0,156.0,554.0,162.0,538.0,168.0,522.0,174.0,506.0,180.0,490.0,186.0,474.0,192.0,458.0,198.0,442.0,204.0,426.0,210.0,410.0,216.0,394.0,222.0,378.0,228.0,362.0,234.0,346.0,240.0,330.0,246.0,314.0,256.0,298.0,274.0,282.0,292.0,266.0,310.0,250.0,328.0,234.0,346.0,218.0,364.0,202.0,384.0,186.0,402.0,170.0,420.0,154.0,438.0,138.0,456.0,122.0,474.0,106.0,492.0,90.0,540.0,74.0,588.0,58.0,638.0,42.0,688.0,26.0,736.0,10.0,786.0,6.0,800.0,12.0,784.0,16.0,768.0,22.0,752.0,26.0,736.0,32.0,720.0,38.0,704.0,42.0,688.0,48.0,672.0,52.0,656.0,58.0,640.0,64.0,624.0,68.0,608.0,74.0,592.0,78.0,576.0,84.0,560.0,90.0,544.0,94.0,528.0,100.0,512.0,104.0,496.0,116.0,480.0,130.0,464.0,144.0,448.0,158.0,432.0,172.0,416.0,188.0,400.0,202.0,384.0,216.0,368.0,230.0,352.0,244.0,336.0,258.0,320.0,272.0,304.0,286.0,288.0,300.0,272.0,314.0,256.0,346.0,240.0,388.0,224.0,432.0,208.0,474.0,192.0,518.0,176.0,560.0,160.0,602.0,144.0,646.0,128.0,688.0,112.0,732.0,96.0,774.0,80.0,816.0,64.0,860.0,48.0,902.0,32.0,946.0,16.0,978.0,0.0" stroke="black" stroke-width="1" fill="none" />
<polyline points="1176.0,0.0,1204.0,16.0,1244.0,32.0,1286.0,48.0,1326.0,64.0,1368.0,80.0,1408.0,96.0,1450.0,112.0,1492.0,128.0,1532.0,144.0,1574.0,160.0,1614.0,176.0,1656.0,192.0,1696.0,208.0,1738.0,224.0,1778.0,240.0,1820.0,256.0,1860.0,272.0,1876.0,288.0,1890.0,304.0,1902.0,320.0,1916.0,336.0,1930.0,352.0,1942.0,368.0,1956.0,384.0,1968.0,400.0,1982.0,416.0,1996.0,432.0,2008.0,448.0,2022.0,464.0,2034.0,480.0,2048.0,496.0,2062.0,512.0,2068.0,528.0,2074.0,544.0,2078.0,560.0,2082.0,576.0,2088.0,592.0,2092.0,608.0,2096.0,624.0,2100.0,640.0,2106.0,656.0,2110.0,672.0,2114.0,688.0,2122.0,712.0,2126.0,728.0,2130.0,744.0,2134.0,760.0,2140.0,776.0,2144.0,792.0,2148.0,808.0,2152.0,824.0" stroke="black" stroke-width="1" fill="none" />
<polyline points="2152.0,892.0,2152.0,896.0,2150.0,912.0,2148.0,928.0,2146.0,944.0,2142.0,960.0,2140.0,976.0,2138.0,992.0,2136.0,1008.0,2134.0,1032.0,2126.0,1048.0,2118.0,1064.0,2112.0,1080.0,2104.0,1096.0,2096.0,1112.0,2090.0,1128.0,2082.0,1144.0,2074.0,1160.0,2068.0,1176.0,2060.0,1192.0,2054.0,1208.0,2046.0,1224.0,2038.0,1240.0,2032.0,1256.0,2024.0,1272.0,2012.0,1288.0,1998.0,1304.0,1982.0,1320.0,1968.0,1336.0,1952.0,1352.0,1938.0,1368.0,1922.0,1384.0,1906.0,1400.0,1892.0,1416.0,1876.0,1432.0,1862.0,1448.0,1846.0,1464.0,1838.0,1472.0,1854.0,1456.0,1870.0,1438.0,1886.0,1422.0,1902.0,1404.0,1918.0,1388.0,1934.0,1372.0,1950.0,1354.0,1966.0,1338.0,1982.0,1320.0,1998.0,1304.0,2014.0,1286.0,2030.0,1258.0,2046.0,1222.0,2062.0,1188.0,2078.0,1152.0,2094.0,1118.0,2110.0,1082.0,2126.0,1048.0" stroke="black" stroke-width="1" fill="none" />
<polyline points="2128.0,1058.0,2112.0,1092.0,2096.0,1128.0,2080.0,1164.0,2064.0,1198.0,2048.0,1234.0,2032.0,1270.0,2016.0,1296.0,2000.0,1312.0,1984.0,1330.0,1968.0,1346.0,1952.0,1362.0,1936.0,1380.0,1920.0,1396.0,1904.0,1412.0,1888.0,1430.0,1872.0,1446.0,1856.0,1462.0,1840.0,1478.0,1856.0,1462.0,1872.0,1446.0,1888.0,1430.0,1902.0,1414.0,1918.0,1398.0,1934.0,1382.0,1948.0,1366.0,1964.0,1350.0,1980.0,1334.0,1994.0,1318.0,2010.0,1302.0,2024.0,1286.0,2032.0,1270.0,2040.0,1254.0,2046.0,1238.0,2054.0,1222.0,2062.0,1206.0,2068.0,1190.0,2076.0,1174.0,2082.0,1158.0,2090.0,1142.0,2098.0,1126.0,2104.0,1110.0,2112.0,1094.0,2120.0,1078.0,2126.0,1062.0,2134.0,1046.0,2140.0,1030.0,2144.0,1008.0,2146.0,992.0,2148.0,976.0,2150.0,960.0,2152.0,944.0,2154.0,928.0,2156.0,912.0,2156.0,898.0" stroke="black" stroke-width="1" fill="none" />
<polyline points="2120.0,708.0,2104.0,708.0,2088.0,712.0,2072.0,714.0,2056.0,716.0,2040.0,718.0,2024.0,720.0,2008.0,722.0,1992.0,724.0,1976.0,728.0,1960.0,730.0,1944.0,732.0,1928.0,734.0,1912.0,736.0,1896.0,738.0,1894.0,734.0,1910.0,730.0,1926.0,728.0,1942.0,726.0,1958.0,724.0,1974.0,722.0,1990.0,720.0,2006.0,716.0,2022.0,714.0,2038.0,712.0,2054.0,710.0,2070.0,708.0,2086.0,706.0,2102.0,704.0,2126.0,700.0,2130.0,706.0" stroke="black" stroke-width="1" fill="none" />
<polyline points="2064.0,514.0,2048.0,494.0,2032.0,474.0,2016.0,456.0,2000.0,436.0,1984.0,416.0,1968.0,398.0,1952.0,378.0,1936.0,358.0,1920.0,340.0,1904.0,320.0,1888.0,300.0,1872.0,282.0,1856.0,270.0,1840.0,262.0,1824.0,256.0,1808.0,250.0,1792.0,244.0,1776.0,238.0,1760.0,232.0,1744.0,226.0,1728.0,220.0,1712.0,214.0,1696.0,206.0,1680.0,200.0,1664.0,194.0,1648.0,188.0,1632.0,182.0,1616.0,176.0,1600.0,170.0,1584.0,164.0,1568.0,156.0,1552.0,150.0,1536.0,144.0,1520.0,138.0,1504.0,132.0,1488.0,126.0,1472.0,120.0,1456.0,114.0,1440.0,108.0,1424.0,100.0,1408.0,94.0,1392.0,88.0,1376.0,82.0,1360.0,76.0,1344.0,70.0,1328.0,64.0,1312.0,58.0,1296.0,52.0,1280.0,44.0,1264.0,38.0,1248.0,32.0,1232.0,26.0,1216.0,20.0,1200.0,14.0,1184.0,8.0" stroke="black" stroke-width="1" fill="none" />
<polyline points="1184.0,0.0,1220.0,16.0,1262.0,32.0,1302.0,48.0,1344.0,64.0,1386.0,80.0,1426.0,96.0,1468.0,112.0,1508.0,128.0,1550.0,144.0,1592.0,160.0,1632.0,176.0,1674.0,192.0,1714.0,208.0,1756.0,224.0,1798.0,240.0,1838.0,256.0,1874.0,272.0,1886.0,288.0,1900.0,304.0,1912.0,320.0,1926.0,336.0,1940.0,352.0,1952.0,368.0,1966.0,384.0,1978.0,400.0,1992.0,416.0,2006.0,432.0,2018.0,448.0,2032.0,464.0,2046.0,480.0,2058.0,496.0,2070.0,512.0,2076.0,528.0,2080.0,544.0,2084.0,560.0,2088.0,576.0,2094.0,592.0,2098.0,608.0,2102.0,624.0,2106.0,640.0,2112.0,656.0,2116.0,672.0,2120.0,688.0,2132.0,704.0,2130.0,720.0,2134.0,736.0,2138.0,752.0,2144.0,768.0,2148.0,784.0,2152.0,800.0,2156.0,816.0" stroke="black" stroke-width="1" fill="none" />
<polyline points="2128.0,1016.0,2112.0,1014.0,2096.0,1012.0,2080.0,1010.0,2064.0,1008.0,2048.0,1006.0,2032.0,1004.0,2016.0,1002.0,2000.0,1000.0,1984.0,998.0,1968.0,996.0,1952.0,994.0,1936.0,992.0,1920.0,990.0,1904.0,988.0,1888.0,986.0,1872.0,984.0,1856.0,984.0,1840.0,992.0,1824.0,998.0,1808.0,1006.0,1792.0,1014.0,1776.0,1022.0,1760.0,1028.0,1744.0,1036.0,1728.0,1044.0,1712.0,1042.0,1696.0,1038.0,1680.0,1034.0,1664.0,1030.0,1648.0,1026.0,1632.0,1014.0,1616.0,994.0,1600.0,982.0,1600.0,982.0,1608.0,998.0,1618.0,1014.0,1610.0,1036.0,1624.0,1052.0,1640.0,1068.0,1640.0,1082.0,1636.0,1094.0,1652.0,1086.0,1668.0,1078.0,1684.0,1078.0,1692.0,1068.0,1708.0,1060.0,1724.0,1052.0,1740.0,1046.0,1756.0,1038.0,1772.0,1030.0,1788.0,1024.0,1804.0,1016.0,1820.0,1008.0,1836.0,1000.0,1852.0,994.0,1868.0,990.0,1884.0,992.0,1900.0,994.0,1916.0,996.0,1932.0,998.0,1948.0,1000.0,1964.0,1002.0,1980.0,1004.0,1996.0,1006.0,2012.0,1008.0,2028.0,1010.0,2044.0,1012.0,2060.0,1014.0,2076.0,1016.0,2092.0,1018.0,2108.0,1020.0,2124.0,1022.0,2140.0,1024.0" stroke="black" stroke-width="1" fill="none" />
<polyline points="2054.0,912.0,2038.0,908.0,2022.0,906.0,2006.0,904.0,1990.0,900.0,1974.0,898.0,1958.0,900.0,1942.0,900.0,1926.0,902.0,1910.0,904.0,1894.0,914.0,1886.0,918.0,1914.0,902.0" stroke="black" stroke-width="1" fill="none" />
<polyline points="1904.0,898.0,1880.0,914.0,1886.0,910.0,1902.0,900.0,1918.0,896.0,1934.0,894.0,1950.0,894.0,1966.0,892.0,1982.0,894.0,1998.0,896.0,2014.0,900.0,2030.0,902.0,2046.0,904.0,2062.0,908.0" stroke="black" stroke-width="1" fill="none" />
<polyline points="1872.0,870.0,1894.0,854.0,1880.0,864.0,1864.0,876.0,1848.0,880.0,1832.0,878.0,1816.0,864.0" stroke="black" stroke-width="1" fill="none" />
<polyline points="1814.0,858.0,1824.0,874.0" stroke="black" stroke-width="1" fill="none" />
<polyline points="1814.0,858.0,1830.0,868.0,1846.0,874.0,1862.0,866.0,1878.0,856.0,1894.0,850.0,1864.0,864.0" stroke="black" stroke-width="1" fill="none" />
<polyline points="1762.0,876.0,1778.0,868.0,1794.0,862.0,1810.0,842.0,1826.0,830.0,1842.0,822.0,1840.0,822.0,1814.0,838.0,1802.0,854.0,1764.0,870.0,1762.0,886.0,1760.0,902.0,1760.0,918.0,1750.0,934.0,1736.0,950.0,1738.0,936.0" stroke="black" stroke-width="1" fill="none" />
<polyline points="1666.0,954.0,1650.0,958.0,1634.0,952.0,1618.0,942.0" stroke="black" stroke-width="1" fill="none" />
<polyline points="1622.0,934.0,1640.0,950.0,1650.0,972.0,1666.0,976.0,1682.0,974.0,1698.0,972.0" stroke="black" stroke-width="1" fill="none" />
<polyline points="1700.0,966.0,1684.0,968.0,1668.0,970.0,1652.0,966.0,1636.0,964.0,1620.0,954.0,1604.0,944.0,1606.0,946.0,1630.0,962.0" stroke="black" stroke-width="1" fill="none" />
<polyline points="1658.0,950.0,1642.0,950.0,1626.0,936.0,1610.0,928.0,1594.0,934.0" stroke="black" stroke-width="1" fill="none" />
<polyline points="1598.0,926.0,1594.0,942.0,1602.0,942.0,1618.0,942.0,1626.0,946.0,1642.0,962.0" stroke="black" stroke-width="1" fill="none" />
<polyline points="1606.0,984.0,1620.0,1000.0,1632.0,1016.0,1648.0,1032.0,1658.0,1042.0,1674.0,1044.0,1690.0,1046.0,1706.0,1048.0" stroke="black" stroke-width="1" fill="none" />
<polyline points="1668.0,1066.0,1652.0,1060.0,1636.0,1052.0,1620.0,1034.0" stroke="black" stroke-width="1" fill="none" />
<polyline points="1632.0,1028.0,1654.0,1036.0,1674.0,1038.0,1692.0,1058.0,1708.0,1054.0" stroke="black" stroke-width="1" fill="none" />
<polyline points="1618.0,1066.0,1602.0,1050.0" stroke="black" stroke-width="1" fill="none" />
<polyline points="1604.0,1026.0,1620.0,1044.0,1636.0,1062.0,1652.0,1070.0,1672.0,1076.0,1638.0,1092.0,1612.0,1108.0,1606.0,1124.0,1598.0,1140.0,1590.0,1156.0,1584.0,1172.0,1580.0,1188.0,1572.0,1204.0,1562.0,1220.0,1562.0,1220.0,1578.0,1190.0" stroke="black" stroke-width="1" fill="none" />
<polyline points="1568.0,1192.0,1566.0,1176.0,1572.0,1164.0,1556.0,1152.0" stroke="black" stroke-width="1" fill="none" />
<polyline points="1548.0,1166.0,1552.0,1182.0,1554.0,1198.0,1550.0,1210.0" stroke="black" stroke-width="1" fill="none" />
<polyline points="1562.0,1162.0,1542.0,1166.0,1530.0,1172.0,1530.0,1156.0,1532.0,1140.0,1532.0,1140.0,1548.0,1142.0,1558.0,1128.0,1574.0,1128.0" stroke="black" stroke-width="1" fill="none" />
<polyline points="1566.0,1122.0,1578.0,1122.0,1584.0,1106.0,1580.0,1090.0" stroke="black" stroke-width="1" fill="none" />
<polyline points="1596.0,1090.0,1574.0,1074.0,1552.0,1058.0,1532.0,1042.0,1506.0,1036.0" stroke="black" stroke-width="1" fill="none" />
<polyline points="1512.0,1044.0,1528.0,1038.0,1544.0,1054.0,1560.0,1066.0,1576.0,1074.0,1592.0,1086.0,1608.0,1096.0,1624.0,1090.0" stroke="black" stroke-width="1" fill="none" />
<polyline points="1636.0,1054.0,1622.0,1038.0,1618.0,1012.0,1602.0,988.0" stroke="black" stroke-width="1" fill="none" />
<polyline points="1580.0,1000.0,1592.0,1016.0,1602.0,1032.0,1614.0,1048.0,1626.0,1064.0,1638.0,1080.0,1618.0,1090.0,1606.0,1106.0,1598.0,1122.0,1592.0,1138.0,1584.0,1154.0,1578.0,1170.0,1588.0,1144.0,1604.0,1108.0,1620.0,1096.0" stroke="black" stroke-width="1" fill="none" />
<polyline points="1648.0,1080.0,1632.0,1086.0,1616.0,1084.0,1600.0,1082.0,1584.0,1070.0,1568.0,1058.0,1552.0,1044.0,1536.0,1032.0,1534.0,1028.0,1550.0,1018.0,1566.0,1010.0,1582.0,1014.0,1598.0,1036.0,1612.0,1044.0,1628.0,1064.0" stroke="black" stroke-width="1" fill="none" />
<polyline points="1558.0,1086.0,1536.0,1070.0,1520.0,1090.0,1504.0,1110.0,1488.0,1130.0,1472.0,1150.0,1456.0,1170.0,1440.0,1174.0,1444.0,1166.0,1456.0,1150.0,1468.0,1134.0,1460.0,1118.0,1452.0,1102.0,1452.0,1102.0,1468.0,1102.0,1484.0,1100.0,1500.0,1088.0" stroke="black" stroke-width="1" fill="none" />
<polyline points="1502.0,1062.0,1490.0,1086.0,1474.0,1094.0,1458.0,1094.0,1442.0,1092.0,1440.0,1090.0,1456.0,1072.0,1472.0,1062.0,1488.0,1054.0,1504.0,1044.0,1486.0,1054.0,1458.0,1070.0,1442.0,1086.0,1438.0,1108.0,1434.0,1124.0,1430.0,1140.0,1428.0,1156.0,1424.0,1172.0,1420.0,1188.0,1418.0,1204.0,1414.0,1220.0" stroke="black" stroke-width="1" fill="none" />
<polyline points="1396.0,1240.0,1396.0,1220.0,1402.0,1204.0,1406.0,1188.0,1410.0,1172.0,1414.0,1156.0,1420.0,1140.0,1424.0,1124.0,1428.0,1108.0,1432.0,1092.0,1438.0,1076.0,1462.0,1060.0,1484.0,1044.0,1506.0,1028.0,1524.0,1000.0,1520.0,994.0,1504.0,1006.0,1502.0,1002.0,1484.0,1010.0,1468.0,1020.0,1452.0,1032.0,1472.0,1016.0,1492.0,1000.0,1508.0,992.0,1492.0,1000.0,1476.0,1006.0,1460.0,1018.0,1450.0,1020.0,1426.0,1034.0,1416.0,1018.0,1406.0,1002.0,1410.0,986.0,1446.0,966.0,1476.0,950.0,1504.0,926.0,1518.0,910.0,1532.0,894.0,1540.0,876.0,1556.0,886.0,1540.0,902.0,1524.0,918.0,1508.0,936.0,1492.0,950.0,1476.0,958.0,1460.0,966.0,1444.0,972.0" stroke="black" stroke-width="1" fill="none" />
<polyline points="1472.0,952.0,1456.0,962.0,1440.0,978.0,1424.0,982.0,1408.0,988.0" stroke="black" stroke-width="1" fill="none" />
<polyline points="1398.0,1000.0,1404.0,1016.0,1418.0,1032.0,1426.0,1048.0,1400.0,1064.0,1404.0,1076.0,1418.0,1074.0,1420.0,1060.0,1436.0,1048.0" stroke="black" stroke-width="1" fill="none" />
<polyline points="1438.0,1026.0,1456.0,1012.0,1440.0,1022.0,1424.0,1026.0,1408.0,1004.0" stroke="black" stroke-width="1" fill="none" />
<polyline points="1394.0,996.0,1366.0,1014.0,1346.0,1034.0,1334.0,1050.0,1346.0,1066.0,1374.0,1070.0,1388.0,1070.0,1404.0,1062.0,1420.0,1052.0" stroke="black" stroke-width="1" fill="none" />
<polyline points="1412.0,1084.0,1396.0,1086.0" stroke="black" stroke-width="1" fill="none" />
<polyline points="1392.0,1094.0,1384.0,1110.0,1380.0,1126.0,1364.0,1142.0,1380.0,1122.0,1404.0,1090.0,1434.0,1086.0,1450.0,1068.0,1466.0,1058.0,1482.0,1046.0,1498.0,1034.0,1514.0,1024.0,1530.0,1020.0,1546.0,1012.0,1562.0,1004.0,1578.0,998.0,1594.0,1018.0,1610.0,1020.0,1624.0,1026.0,1640.0,1032.0,1656.0,1032.0" stroke="black" stroke-width="1" fill="none" />
<polyline points="1624.0,1100.0,1608.0,1116.0,1592.0,1152.0,1574.0,1172.0,1562.0,1156.0,1552.0,1140.0,1552.0,1120.0,1548.0,1104.0,1546.0,1088.0,1544.0,1072.0" stroke="black" stroke-width="1" fill="none" />
<polyline points="1550.0,1076.0,1564.0,1092.0,1564.0,1108.0,1554.0,1122.0,1564.0,1118.0" stroke="black" stroke-width="1" fill="none" />
<polyline points="1538.0,1088.0,1540.0,1104.0,1542.0,1120.0,1544.0,1136.0,1544.0,1150.0,1548.0,1154.0,1558.0,1176.0,1560.0,1192.0,1546.0,1210.0" stroke="black" stroke-width="1" fill="none" />
<polyline points="1452.0,1194.0,1446.0,1210.0,1444.0,1216.0" stroke="black" stroke-width="1" fill="none" />
<polyline points="1438.0,1214.0,1446.0,1198.0" stroke="black" stroke-width="1" fill="none" />
<polyline points="1416.0,1184.0,1414.0,1200.0,1410.0,1216.0" stroke="black" stroke-width="1" fill="none" />
<polyline points="1404.0,1214.0,1408.0,1198.0,1412.0,1182.0" stroke="black" stroke-width="1" fill="none" />
<polyline points="1414.0,1174.0,1442.0,1156.0,1458.0,1138.0" stroke="black" stroke-width="1" fill="none" />
<polyline points="1454.0,1122.0,1438.0,1102.0" stroke="black" stroke-width="1" fill="none" />
<polyline points="1444.0,1108.0,1454.0,1124.0,1456.0,1140.0,1442.0,1156.0,1438.0,1172.0,1442.0,1188.0,1428.0,1204.0,1418.0,1220.0" stroke="black" stroke-width="1" fill="none" />
<polyline points="1376.0,1236.0,1360.0,1232.0,1364.0,1226.0,1370.0,1208.0,1366.0,1192.0,1362.0,1176.0,1362.0,1160.0,1362.0,1138.0,1362.0,1122.0,1362.0,1106.0,1358.0,1094.0,1380.0,1068.0,1394.0,1052.0,1400.0,1036.0,1394.0,1020.0,1390.0,1016.0,1374.0,1014.0" stroke="black" stroke-width="1" fill="none" />
<polyline points="1350.0,1022.0,1366.0,1014.0,1384.0,1006.0,1400.0,1002.0,1416.0,1028.0" stroke="black" stroke-width="1" fill="none" />
<polyline points="1392.0,1054.0,1368.0,1060.0,1380.0,1044.0,1380.0,1028.0,1374.0,1028.0,1358.0,1032.0,1342.0,1036.0" stroke="black" stroke-width="1" fill="none" />
<polyline points="1346.0,1024.0,1362.0,1022.0,1342.0,1030.0,1346.0,1048.0" stroke="black" stroke-width="1" fill="none" />
<polyline points="1334.0,1050.0,1336.0,1056.0,1352.0,1068.0,1368.0,1056.0,1384.0,1040.0" stroke="black" stroke-width="1" fill="none" />
<polyline points="1406.0,1098.0,1390.0,1096.0,1374.0,1092.0,1360.0,1090.0,1342.0,1080.0,1326.0,1064.0" stroke="black" stroke-width="1" fill="none" />
<polyline points="1320.0,1036.0,1336.0,1022.0,1352.0,1014.0,1368.0,1006.0,1384.0,996.0,1400.0,984.0,1416.0,976.0,1432.0,968.0,1448.0,958.0,1464.0,952.0" stroke="black" stroke-width="1" fill="none" />
<polyline points="1478.0,912.0,1462.0,892.0" stroke="black" stroke-width="1" fill="none" />
<polyline points="1460.0,886.0,1474.0,902.0,1472.0,918.0,1482.0,926.0,1498.0,934.0,1514.0,914.0,1530.0,896.0,1544.0,880.0" stroke="black" stroke-width="1" fill="none" />
<polyline points="1524.0,888.0,1508.0,892.0,1492.0,894.0,1476.0,894.0,1460.0,886.0" stroke="black" stroke-width="1" fill="none" />
<polyline points="1456.0,880.0,1452.0,896.0,1464.0,912.0,1482.0,928.0,1484.0,952.0,1462.0,952.0,1432.0,968.0,1400.0,984.0,1378.0,1000.0,1348.0,1016.0,1322.0,1032.0,1322.0,1048.0,1326.0,1064.0,1342.0,1080.0,1348.0,1096.0,1348.0,1112.0,1350.0,1128.0,1350.0,1144.0,1350.0,1160.0,1350.0,1176.0,1352.0,1192.0,1352.0,1208.0,1354.0,1224.0,1384.0,1240.0,1394.0,1242.0,1410.0,1230.0,1426.0,1218.0,1442.0,1198.0,1458.0,1178.0,1474.0,1160.0,1490.0,1140.0,1506.0,1120.0,1522.0,1100.0,1538.0,1086.0,1562.0,1080.0,1578.0,1082.0" stroke="black" stroke-width="1" fill="none" />
<polyline points="1536.0,1084.0,1522.0,1100.0,1510.0,1116.0,1496.0,1132.0,1484.0,1148.0,1470.0,1164.0,1458.0,1180.0,1444.0,1196.0,1432.0,1212.0" stroke="black" stroke-width="1" fill="none" />
<polyline points="1374.0,1210.0,1378.0,1200.0,1382.0,1184.0,1374.0,1168.0,1378.0,1164.0,1362.0,1158.0" stroke="black" stroke-width="1" fill="none" />
<polyline points="1474.0,1028.0,1490.0,1020.0" stroke="black" stroke-width="1" fill="none" />
<polyline points="1484.0,1002.0,1460.0,1018.0,1456.0,1014.0,1444.0,1030.0,1438.0,1046.0,1416.0,1062.0,1412.0,1072.0,1414.0,1082.0,1392.0,1108.0,1388.0,1124.0,1380.0,1140.0,1382.0,1156.0,1384.0,1172.0,1388.0,1188.0,1384.0,1204.0,1380.0,1220.0,1386.0,1226.0,1406.0,1224.0,1428.0,1204.0" stroke="black" stroke-width="1" fill="none" />
<polyline points="1466.0,1140.0,1450.0,1156.0,1460.0,1166.0,1472.0,1150.0,1486.0,1134.0,1498.0,1118.0,1512.0,1102.0,1524.0,1086.0,1536.0,1070.0" stroke="black" stroke-width="1" fill="none" />
<polyline points="1506.0,1048.0,1502.0,1064.0,1498.0,1080.0" stroke="black" stroke-width="1" fill="none" />
<polyline points="1582.0,1070.0,1562.0,1054.0,1542.0,1038.0,1544.0,1022.0,1572.0,1006.0,1576.0,1008.0,1588.0,1024.0,1600.0,1040.0,1606.0,1056.0,1620.0,1072.0" stroke="black" stroke-width="1" fill="none" />
<polyline points="1572.0,998.0,1540.0,1014.0,1506.0,1036.0,1512.0,1048.0,1508.0,1064.0,1502.0,1080.0,1492.0,1094.0" stroke="black" stroke-width="1" fill="none" />
<polyline points="1478.0,932.0,1462.0,926.0,1446.0,912.0,1430.0,892.0,1414.0,886.0,1414.0,886.0,1410.0,902.0,1408.0,918.0,1398.0,930.0,1414.0,938.0,1430.0,940.0,1446.0,940.0,1462.0,940.0" stroke="black" stroke-width="1" fill="none" />
<polyline points="1468.0,914.0,1452.0,894.0,1450.0,890.0,1466.0,882.0,1482.0,888.0,1498.0,886.0,1514.0,880.0,1530.0,874.0,1546.0,868.0,1562.0,864.0,1524.0,876.0" stroke="black" stroke-width="1" fill="none" />
<polyline points="1564.0,866.0,1560.0,882.0,1544.0,898.0,1528.0,914.0,1512.0,930.0,1498.0,946.0,1482.0,962.0,1444.0,976.0,1460.0,972.0,1476.0,968.0" stroke="black" stroke-width="1" fill="none" />
<polyline points="1460.0,934.0,1444.0,924.0,1428.0,902.0,1416.0,922.0,1416.0,928.0,1400.0,926.0,1392.0,912.0,1376.0,902.0,1376.0,896.0,1360.0,886.0,1344.0,890.0,1328.0,894.0,1312.0,898.0,1296.0,894.0,1280.0,888.0,1264.0,882.0,1248.0,894.0,1232.0,906.0,1216.0,904.0,1200.0,898.0,1184.0,902.0,1188.0,904.0,1204.0,908.0,1220.0,908.0" stroke="black" stroke-width="1" fill="none" />
<polyline points="1206.0,892.0,1222.0,888.0,1238.0,884.0,1254.0,880.0,1270.0,876.0,1286.0,872.0,1302.0,870.0,1318.0,866.0,1334.0,862.0,1350.0,858.0,1366.0,854.0,1382.0,850.0,1398.0,846.0,1414.0,842.0,1430.0,838.0,1446.0,834.0,1462.0,832.0,1478.0,828.0,1494.0,824.0,1510.0,820.0,1526.0,816.0" stroke="black" stroke-width="1" fill="none" />
<polyline points="1464.0,820.0,1448.0,824.0,1432.0,828.0,1416.0,830.0,1400.0,834.0,1384.0,838.0,1368.0,842.0,1352.0,844.0,1336.0,848.0,1320.0,852.0,1304.0,854.0,1288.0,858.0,1272.0,862.0,1256.0,864.0,1240.0,868.0,1224.0,872.0,1208.0,874.0,1192.0,878.0,1176.0,882.0,1160.0,884.0,1144.0,888.0,1128.0,890.0" stroke="black" stroke-width="1" fill="none" />
<polyline points="1110.0,894.0,1126.0,898.0,1142.0,896.0,1158.0,898.0,1174.0,894.0,1190.0,890.0,1206.0,886.0,1222.0,882.0,1238.0,878.0,1254.0,874.0,1270.0,870.0,1286.0,866.0,1302.0,864.0,1318.0,860.0,1334.0,856.0,1350.0,852.0,1366.0,848.0,1382.0,844.0,1398.0,840.0,1414.0,838.0,1430.0,834.0,1446.0,830.0,1462.0,826.0,1478.0,818.0,1480.0,822.0,1496.0,814.0,1512.0,810.0,1528.0,810.0,1540.0,812.0,1552.0,810.0,1568.0,806.0,1584.0,802.0,1600.0,798.0,1616.0,794.0,1632.0,790.0,1648.0,788.0,1664.0,784.0,1680.0,780.0,1696.0,776.0,1712.0,772.0,1728.0,768.0,1744.0,764.0,1760.0,760.0,1776.0,756.0,1792.0,752.0" stroke="black" stroke-width="1" fill="none" />
<polyline points="1780.0,860.0,1800.0,844.0,1816.0,828.0,1842.0,812.0,1836.0,816.0,1820.0,826.0,1804.0,838.0,1788.0,858.0,1772.0,862.0,1756.0,858.0,1756.0,858.0,1756.0,874.0,1756.0,890.0,1754.0,906.0,1750.0,922.0,1736.0,938.0,1728.0,954.0,1742.0,942.0,1758.0,922.0" stroke="black" stroke-width="1" fill="none" />
<polyline points="1752.0,1032.0,1786.0,1016.0,1820.0,1000.0,1856.0,984.0" stroke="black" stroke-width="1" fill="none" />
<polyline points="1858.0,990.0,1824.0,1006.0,1790.0,1022.0,1756.0,1038.0,1720.0,1054.0,1684.0,1054.0" stroke="black" stroke-width="1" fill="none" />
<polyline points="1588.0,968.0,1572.0,978.0,1556.0,988.0,1572.0,978.0,1592.0,962.0" stroke="black" stroke-width="1" fill="none" />
<polyline points="1586.0,960.0,1560.0,976.0,1550.0,984.0,1566.0,972.0,1582.0,962.0" stroke="black" stroke-width="1" fill="none" />
<polyline points="1446.0,926.0,1434.0,910.0" stroke="black" stroke-width="1" fill="none" />
<polyline points="1426.0,900.0,1422.0,916.0" stroke="black" stroke-width="1" fill="none" />
<polyline points="1410.0,918.0,1394.0,912.0,1378.0,906.0" stroke="black" stroke-width="1" fill="none" />
<polyline points="1362.0,896.0,1372.0,912.0,1386.0,928.0,1410.0,944.0" stroke="black" stroke-width="1" fill="none" />
<polyline points="1420.0,958.0,1404.0,956.0,1388.0,954.0,1372.0,952.0,1356.0,950.0,1340.0,948.0,1324.0,946.0,1308.0,934.0,1292.0,932.0,1276.0,928.0,1260.0,926.0,1244.0,922.0,1228.0,918.0,1212.0,916.0,1196.0,912.0,1180.0,910.0,1164.0,916.0,1164.0,906.0,1148.0,906.0,1132.0,910.0,1116.0,912.0" stroke="black" stroke-width="1" fill="none" />
<polyline points="1108.0,930.0,1124.0,928.0,1140.0,924.0,1156.0,926.0,1172.0,928.0,1188.0,930.0,1204.0,932.0,1220.0,934.0,1236.0,936.0,1252.0,938.0,1268.0,940.0,1284.0,942.0,1300.0,944.0,1316.0,946.0" stroke="black" stroke-width="1" fill="none" />
<polyline points="1340.0,944.0,1320.0,942.0,1300.0,938.0,1284.0,936.0,1268.0,934.0,1252.0,932.0,1236.0,930.0,1220.0,928.0,1204.0,926.0,1188.0,924.0,1172.0,922.0,1156.0,914.0,1140.0,918.0,1124.0,916.0,1108.0,920.0,1092.0,918.0,1090.0,914.0,1106.0,910.0,1122.0,906.0,1128.0,898.0" stroke="black" stroke-width="1" fill="none" />
<polyline points="1108.0,890.0,1124.0,886.0,1140.0,882.0,1156.0,880.0,1172.0,876.0,1188.0,872.0,1204.0,870.0,1220.0,866.0,1236.0,862.0,1252.0,860.0,1268.0,856.0,1284.0,852.0,1300.0,850.0,1316.0,846.0,1332.0,842.0,1348.0,840.0,1364.0,836.0,1380.0,832.0,1396.0,830.0,1412.0,826.0,1428.0,822.0,1444.0,820.0,1460.0,816.0,1476.0,812.0,1492.0,810.0,1508.0,806.0,1524.0,802.0,1540.0,800.0,1556.0,796.0,1572.0,792.0,1588.0,790.0,1604.0,786.0,1620.0,782.0,1636.0,780.0,1652.0,776.0,1668.0,772.0,1684.0,770.0,1700.0,766.0,1716.0,762.0,1732.0,760.0,1748.0,756.0,1764.0,752.0,1780.0,750.0" stroke="black" stroke-width="1" fill="none" />
<polyline points="2072.0,514.0,2056.0,492.0,2040.0,472.0,2024.0,452.0,2008.0,434.0,1992.0,414.0,1976.0,394.0,1960.0,376.0,1944.0,356.0,1928.0,336.0,1912.0,318.0,1896.0,298.0,1880.0,278.0,1864.0,266.0,1848.0,258.0,1832.0,252.0,1816.0,246.0,1800.0,240.0,1784.0,234.0,1768.0,228.0,1752.0,222.0,1736.0,216.0,1720.0,210.0,1704.0,202.0,1688.0,196.0,1672.0,190.0,1656.0,184.0,1640.0,178.0,1624.0,172.0,1608.0,166.0,1592.0,160.0,1576.0,154.0,1560.0,146.0,1544.0,140.0,1528.0,134.0,1512.0,128.0,1496.0,122.0,1480.0,116.0,1464.0,110.0,1448.0,104.0,1432.0,98.0,1416.0,92.0,1400.0,84.0,1384.0,78.0,1368.0,72.0,1352.0,66.0,1336.0,60.0,1320.0,54.0,1304.0,48.0,1288.0,42.0,1272.0,36.0,1256.0,28.0,1240.0,22.0,1224.0,16.0,1208.0,10.0,1192.0,4.0,1176.0,2.0" stroke="black" stroke-width="1" fill="none" />
<polyline points="1020.0,510.0,1016.0,526.0,1010.0,542.0,1006.0,558.0,1000.0,574.0,994.0,590.0,990.0,606.0,984.0,622.0,982.0,638.0,980.0,654.0,980.0,670.0,978.0,686.0,978.0,702.0,976.0,718.0,974.0,734.0,968.0,750.0,960.0,766.0,954.0,782.0,948.0,798.0,942.0,814.0,934.0,830.0,928.0,846.0,922.0,862.0,916.0,878.0,908.0,894.0,902.0,910.0,896.0,926.0,890.0,942.0,886.0,918.0,902.0,870.0,918.0,822.0,934.0,772.0,950.0,724.0" stroke="black" stroke-width="1" fill="none" />
<polyline points="962.0,760.0,946.0,800.0,930.0,840.0,914.0,880.0,898.0,920.0,884.0,942.0,890.0,926.0,896.0,910.0,902.0,894.0,908.0,878.0,916.0,862.0,922.0,846.0,928.0,830.0,934.0,814.0,942.0,798.0,948.0,782.0,954.0,766.0,960.0,750.0,968.0,734.0,970.0,718.0,972.0,702.0,972.0,686.0,974.0,670.0,976.0,654.0,974.0,652.0,968.0,668.0,964.0,684.0,958.0,700.0,954.0,716.0,948.0,732.0,942.0,748.0,938.0,764.0,932.0,780.0,926.0,796.0,922.0,812.0,916.0,828.0,912.0,844.0,906.0,860.0,900.0,876.0,896.0,892.0,890.0,908.0,884.0,924.0,880.0,940.0,874.0,956.0,870.0,972.0" stroke="black" stroke-width="1" fill="none" />
<polyline points="856.0,972.0,852.0,964.0,856.0,950.0,870.0,944.0,876.0,928.0,882.0,912.0,886.0,896.0,892.0,880.0,898.0,864.0,902.0,848.0,908.0,832.0,914.0,816.0,918.0,800.0,924.0,784.0,930.0,768.0,934.0,752.0,940.0,736.0,946.0,720.0,950.0,704.0,956.0,688.0,962.0,672.0,966.0,656.0,972.0,640.0,976.0,624.0,978.0,608.0,978.0,592.0,980.0,576.0,980.0,574.0" stroke="black" stroke-width="1" fill="none" />
<polyline points="986.0,570.0,986.0,586.0,990.0,584.0,996.0,568.0,1002.0,552.0,1006.0,536.0,1012.0,520.0,1018.0,508.0,1002.0,546.0,996.0,536.0,994.0,520.0,994.0,504.0,984.0,500.0,968.0,506.0,952.0,522.0,936.0,542.0" stroke="black" stroke-width="1" fill="none" />
<polyline points="946.0,538.0,940.0,554.0,948.0,538.0,950.0,540.0,944.0,556.0,948.0,558.0,964.0,526.0,980.0,516.0,976.0,516.0,958.0,532.0,952.0,548.0,946.0,564.0,942.0,580.0,944.0,596.0,944.0,612.0,938.0,628.0,932.0,644.0,936.0,612.0" stroke="black" stroke-width="1" fill="none" />
<polyline points="936.0,588.0,938.0,604.0,934.0,620.0,928.0,636.0,928.0,650.0" stroke="black" stroke-width="1" fill="none" />
<polyline points="934.0,578.0,930.0,594.0,926.0,610.0,922.0,626.0,918.0,642.0,914.0,658.0,910.0,674.0,906.0,690.0,902.0,706.0,898.0,722.0,894.0,738.0,890.0,754.0,886.0,770.0,882.0,786.0,878.0,802.0,874.0,818.0,870.0,834.0,866.0,850.0,862.0,866.0,858.0,882.0,854.0,898.0,850.0,914.0,846.0,930.0,842.0,946.0,840.0,966.0,826.0,982.0,840.0,986.0,856.0,984.0,872.0,962.0,892.0,918.0,908.0,878.0,924.0,838.0,940.0,800.0,956.0,760.0" stroke="black" stroke-width="1" fill="none" />
<polyline points="896.0,788.0,892.0,804.0,888.0,820.0,884.0,836.0,880.0,852.0,876.0,868.0,872.0,884.0,868.0,900.0,864.0,916.0,860.0,932.0" stroke="black" stroke-width="1" fill="none" />
<polyline points="854.0,938.0,858.0,922.0,862.0,906.0,866.0,890.0,870.0,874.0,874.0,858.0,878.0,842.0,882.0,826.0,886.0,810.0,890.0,794.0,890.0,790.0" stroke="black" stroke-width="1" fill="none" />
<polyline points="838.0,724.0,822.0,712.0" stroke="black" stroke-width="1" fill="none" />
<polyline points="818.0,706.0,834.0,722.0,850.0,738.0,854.0,754.0,856.0,770.0,854.0,786.0,848.0,802.0,840.0,818.0,834.0,834.0,828.0,850.0,822.0,866.0,816.0,882.0,810.0,898.0,804.0,914.0,798.0,930.0,790.0,932.0,806.0,890.0,822.0,848.0,838.0,808.0" stroke="black" stroke-width="1" fill="none" />
<polyline points="844.0,738.0,828.0,726.0,812.0,712.0" stroke="black" stroke-width="1" fill="none" />
<polyline points="798.0,704.0,820.0,720.0,840.0,736.0,846.0,752.0,850.0,768.0,848.0,784.0,842.0,800.0,836.0,816.0,830.0,832.0,822.0,848.0,816.0,864.0,810.0,880.0,804.0,896.0,798.0,912.0,792.0,928.0,788.0,944.0,786.0,968.0,810.0,982.0" stroke="black" stroke-width="1" fill="none" />
<polyline points="790.0,944.0,806.0,906.0,822.0,866.0,838.0,824.0,854.0,782.0" stroke="black" stroke-width="1" fill="none" />
<polyline points="854.0,694.0,852.0,678.0,846.0,670.0,828.0,654.0,798.0,654.0,782.0,652.0,786.0,650.0,802.0,648.0" stroke="black" stroke-width="1" fill="none" />
<polyline points="790.0,658.0,806.0,664.0" stroke="black" stroke-width="1" fill="none" />
<polyline points="770.0,658.0,808.0,674.0,844.0,690.0,844.0,688.0,828.0,682.0,812.0,674.0,798.0,670.0,782.0,662.0,766.0,656.0,750.0,674.0" stroke="black" stroke-width="1" fill="none" />
<polyline points="746.0,664.0,716.0,680.0,684.0,696.0,652.0,712.0,620.0,728.0,602.0,744.0,576.0,760.0,552.0,776.0,538.0,792.0,552.0,808.0,556.0,810.0,540.0,796.0,538.0,792.0,554.0,774.0,570.0,764.0,586.0,754.0,602.0,744.0,618.0,730.0,634.0,722.0,650.0,714.0,666.0,706.0,682.0,698.0,698.0,690.0,714.0,682.0,730.0,674.0,742.0,672.0,758.0,654.0,774.0,648.0,790.0,644.0,806.0,642.0,822.0,650.0,838.0,666.0,832.0,674.0,848.0,670.0" stroke="black" stroke-width="1" fill="none" />
<polyline points="842.0,702.0,826.0,700.0,810.0,698.0,794.0,696.0,778.0,694.0,762.0,692.0,752.0,688.0,752.0,672.0,766.0,656.0" stroke="black" stroke-width="1" fill="none" />
<polyline points="764.0,650.0,750.0,666.0,742.0,682.0,740.0,698.0,724.0,714.0,712.0,730.0,700.0,746.0,690.0,762.0,686.0,768.0,702.0,744.0,718.0,720.0,734.0,704.0,752.0,698.0,768.0,700.0,784.0,702.0,800.0,704.0,816.0,704.0,832.0,708.0,848.0,710.0" stroke="black" stroke-width="1" fill="none" />
<polyline points="766.0,762.0,750.0,750.0,734.0,742.0" stroke="black" stroke-width="1" fill="none" />
<polyline points="738.0,734.0,760.0,750.0,778.0,754.0,766.0,770.0,756.0,786.0,744.0,802.0,724.0,818.0,688.0,834.0" stroke="black" stroke-width="1" fill="none" />
<polyline points="660.0,824.0,670.0,808.0,678.0,792.0,678.0,788.0" stroke="black" stroke-width="1" fill="none" />
<polyline points="684.0,786.0,682.0,802.0,686.0,818.0,690.0,822.0" stroke="black" stroke-width="1" fill="none" />
<polyline points="640.0,818.0,636.0,798.0,632.0,782.0,632.0,776.0,636.0,778.0,642.0,794.0,650.0,810.0" stroke="black" stroke-width="1" fill="none" />
<polyline points="672.0,806.0,656.0,816.0,636.0,798.0,620.0,792.0,620.0,792.0,630.0,808.0" stroke="black" stroke-width="1" fill="none" />
<polyline points="614.0,798.0,598.0,800.0,600.0,804.0,616.0,810.0,632.0,822.0,648.0,828.0,664.0,822.0,680.0,820.0" stroke="black" stroke-width="1" fill="none" />
<polyline points="676.0,750.0,660.0,730.0,664.0,726.0,678.0,742.0,682.0,758.0,672.0,774.0,664.0,778.0,680.0,760.0,696.0,726.0,712.0,706.0,728.0,696.0" stroke="black" stroke-width="1" fill="none" />
<polyline points="720.0,694.0,708.0,710.0,696.0,726.0,684.0,742.0,686.0,758.0" stroke="black" stroke-width="1" fill="none" />
<polyline points="674.0,732.0,658.0,724.0,658.0,724.0,666.0,740.0,674.0,756.0,658.0,772.0,658.0,772.0,674.0,756.0" stroke="black" stroke-width="1" fill="none" />
<polyline points="732.0,732.0,742.0,748.0,762.0,772.0,778.0,752.0" stroke="black" stroke-width="1" fill="none" />
<polyline points="764.0,754.0,748.0,740.0,732.0,732.0" stroke="black" stroke-width="1" fill="none" />
<polyline points="754.0,788.0,738.0,810.0,722.0,820.0,706.0,826.0,690.0,834.0,674.0,836.0,658.0,836.0,642.0,836.0,626.0,836.0,610.0,834.0,594.0,834.0,578.0,834.0,562.0,834.0,546.0,832.0,530.0,824.0,514.0,812.0" stroke="black" stroke-width="1" fill="none" />
<polyline points="512.0,820.0,494.0,836.0,518.0,802.0,534.0,786.0,546.0,812.0" stroke="black" stroke-width="1" fill="none" />
<polyline points="536.0,804.0,534.0,788.0,530.0,786.0,518.0,802.0,520.0,818.0,546.0,834.0" stroke="black" stroke-width="1" fill="none" />
<polyline points="540.0,840.0,516.0,824.0" stroke="black" stroke-width="1" fill="none" />
<polyline points="474.0,832.0,458.0,834.0,442.0,834.0,426.0,834.0,410.0,836.0,394.0,836.0,392.0,832.0,408.0,830.0,424.0,828.0,440.0,828.0,456.0,826.0,472.0,826.0,488.0,820.0,504.0,802.0,520.0,784.0,536.0,768.0,552.0,756.0,568.0,748.0,584.0,740.0,600.0,732.0,616.0,724.0,632.0,716.0,648.0,708.0,664.0,700.0,680.0,692.0,696.0,684.0,712.0,676.0,728.0,668.0,744.0,662.0,714.0,674.0,682.0,690.0,650.0,706.0,618.0,722.0,586.0,738.0,554.0,754.0,534.0,770.0,518.0,786.0,504.0,802.0,490.0,818.0,464.0,838.0,474.0,840.0,490.0,838.0,506.0,824.0,522.0,828.0,538.0,838.0,554.0,842.0,570.0,842.0,586.0,842.0,602.0,842.0,618.0,844.0,634.0,844.0,650.0,844.0,666.0,844.0,682.0,844.0,698.0,838.0,714.0,830.0,730.0,824.0,746.0,812.0,762.0,788.0,778.0,766.0,782.0,760.0,772.0,776.0,760.0,792.0,750.0,808.0,726.0,824.0,692.0,840.0" stroke="black" stroke-width="1" fill="none" />
<polyline points="630.0,822.0,610.0,806.0" stroke="black" stroke-width="1" fill="none" />
<polyline points="582.0,750.0,566.0,754.0,556.0,764.0,574.0,750.0" stroke="black" stroke-width="1" fill="none" />
<polyline points="720.0,966.0,736.0,960.0,752.0,956.0,768.0,952.0,784.0,962.0,800.0,974.0,816.0,968.0,832.0,960.0" stroke="black" stroke-width="1" fill="none" />
<polyline points="786.0,976.0,770.0,960.0,754.0,962.0,738.0,966.0,722.0,970.0" stroke="black" stroke-width="1" fill="none" />
<polyline points="766.0,958.0,782.0,974.0,792.0,990.0" stroke="black" stroke-width="1" fill="none" />
<polyline points="312.0,1014.0,296.0,1004.0,280.0,1000.0,264.0,990.0" stroke="black" stroke-width="1" fill="none" />
<polyline points="262.0,984.0,280.0,1000.0,316.0,1010.0" stroke="black" stroke-width="1" fill="none" />
<polyline points="326.0,1016.0,310.0,1002.0,294.0,998.0,278.0,990.0,262.0,984.0" stroke="black" stroke-width="1" fill="none" />
<polyline points="270.0,986.0,304.0,1008.0,322.0,1024.0" stroke="black" stroke-width="1" fill="none" />
<polyline points="8.0,968.0,24.0,974.0,40.0,978.0,56.0,982.0,72.0,986.0,88.0,990.0,104.0,994.0,120.0,998.0,136.0,1002.0,152.0,1006.0,168.0,1010.0,184.0,1014.0,200.0,1018.0,216.0,1022.0,232.0,1026.0,248.0,1030.0,264.0,1034.0,280.0,1038.0,296.0,1042.0,312.0,1048.0,328.0,1052.0,344.0,1056.0,360.0,1060.0,376.0,1062.0,392.0,1060.0,408.0,1058.0,424.0,1054.0,440.0,1052.0,456.0,1050.0,472.0,1046.0,488.0,1044.0,504.0,1042.0,520.0,1038.0,536.0,1036.0,552.0,1034.0,568.0,1030.0,584.0,1028.0,600.0,1026.0,616.0,1024.0,632.0,1020.0,648.0,1018.0,664.0,1016.0,680.0,1012.0,696.0,1010.0,712.0,1008.0,728.0,1004.0,744.0,1002.0,760.0,1000.0,776.0,996.0,792.0,994.0,808.0,992.0,824.0,990.0,840.0,980.0,856.0,978.0" stroke="black" stroke-width="1" fill="none" />
<polyline points="790.0,988.0,774.0,992.0,758.0,994.0,742.0,996.0,726.0,998.0,710.0,1002.0,694.0,1004.0,678.0,1006.0,662.0,1010.0,646.0,1012.0,630.0,1014.0,614.0,1018.0,598.0,1020.0,582.0,1022.0,566.0,1026.0,550.0,1028.0,534.0,1030.0,518.0,1034.0,502.0,1036.0,486.0,1038.0,470.0,1040.0,454.0,1044.0,438.0,1046.0,422.0,1048.0,406.0,1052.0,390.0,1054.0,374.0,1056.0,358.0,1052.0,342.0,1048.0,326.0,1044.0,310.0,1040.0,294.0,1036.0,278.0,1032.0,262.0,1028.0,246.0,1024.0,230.0,1020.0,214.0,1016.0,198.0,1012.0,182.0,1008.0,166.0,1004.0,150.0,1000.0,134.0,996.0,118.0,992.0,102.0,988.0,86.0,984.0,70.0,978.0,54.0,974.0,38.0,970.0,22.0,966.0,6.0,964.0" stroke="black" stroke-width="1" fill="none" />
<polyline points="990.0,548.0,986.0,532.0,986.0,516.0,990.0,510.0" stroke="black" stroke-width="1" fill="none" />
<polyline points="976.0,498.0,960.0,514.0,944.0,530.0,936.0,546.0,932.0,562.0,928.0,578.0,924.0,594.0,920.0,610.0,916.0,626.0,912.0,642.0,908.0,658.0,904.0,674.0,900.0,690.0,896.0,706.0,892.0,722.0,888.0,738.0,884.0,754.0,880.0,770.0,876.0,786.0,872.0,802.0,868.0,818.0,864.0,834.0,860.0,850.0,856.0,866.0,852.0,882.0,848.0,898.0,844.0,914.0,840.0,930.0,838.0,946.0,826.0,962.0,804.0,982.0,820.0,974.0,838.0,968.0,854.0,962.0,858.0,954.0,874.0,932.0,890.0,884.0,906.0,836.0,922.0,788.0,938.0,740.0,954.0,692.0,970.0,642.0,994.0,590.0,1010.0,542.0" stroke="black" stroke-width="1" fill="none" />
<polyline points="1262.0,882.0,1244.0,898.0,1250.0,904.0,1266.0,890.0,1282.0,898.0,1298.0,906.0,1314.0,906.0,1330.0,902.0,1346.0,898.0,1362.0,894.0,1378.0,916.0,1394.0,936.0,1410.0,944.0,1426.0,946.0,1442.0,946.0,1458.0,948.0" stroke="black" stroke-width="1" fill="none" />
<polyline points="1416.0,914.0,1422.0,898.0" stroke="black" stroke-width="1" fill="none" />
<polyline points="1426.0,888.0,1440.0,904.0,1450.0,920.0" stroke="black" stroke-width="1" fill="none" />
<polyline points="1422.0,954.0,1406.0,950.0,1390.0,946.0,1374.0,944.0,1358.0,940.0,1342.0,936.0,1326.0,934.0,1310.0,930.0,1294.0,926.0,1278.0,924.0,1262.0,920.0,1246.0,916.0,1248.0,906.0,1264.0,890.0" stroke="black" stroke-width="1" fill="none" />
<polyline points="1272.0,884.0,1296.0,900.0" stroke="black" stroke-width="1" fill="none" />
</svg>