<svg xmlns="http://www.w3.org/2000/svg" height="990px" width="1596px" version="1.1"><polyline points="208.0,448.0,210.0,464.0,188.0,484.0,146.0,500.0,146.0,514.0,144.0,538.0,132.0,554.0,126.0,556.0,104.0,578.0,76.0,594.0,68.0,610.0,64.0,626.0,58.0,642.0,54.0,658.0,64.0,658.0,80.0,646.0,96.0,636.0,112.0,624.0,128.0,612.0,144.0,600.0,160.0,588.0,164.0,592.0,148.0,606.0,132.0,620.0,116.0,636.0,100.0,642.0,88.0,658.0,72.0,666.0,56.0,672.0,76.0,662.0" stroke="black" stroke-width="1" fill="none" />
<polyline points="94.0,692.0,94.0,692.0,80.0,708.0,84.0,706.0,88.0,712.0,104.0,704.0,120.0,692.0,136.0,682.0,152.0,670.0,168.0,658.0,184.0,648.0,200.0,636.0,216.0,628.0,228.0,608.0,244.0,608.0" stroke="black" stroke-width="1" fill="none" />
<polyline points="260.0,592.0,256.0,592.0,246.0,606.0,242.0,616.0,224.0,630.0,198.0,646.0,174.0,662.0,154.0,678.0,140.0,702.0,144.0,714.0,134.0,730.0,110.0,746.0,90.0,776.0,84.0,784.0,108.0,762.0,134.0,752.0,130.0,750.0,118.0,766.0" stroke="black" stroke-width="1" fill="none" />
<polyline points="84.0,762.0,98.0,746.0,92.0,730.0,112.0,726.0,126.0,710.0" stroke="black" stroke-width="1" fill="none" />
<polyline points="134.0,632.0,142.0,662.0,140.0,678.0,118.0,694.0,90.0,710.0,72.0,726.0,52.0,732.0,50.0,752.0,66.0,740.0,82.0,730.0,98.0,720.0,114.0,710.0,130.0,700.0,146.0,692.0,162.0,680.0,178.0,672.0,194.0,662.0,210.0,654.0,226.0,644.0,242.0,634.0,258.0,624.0,274.0,614.0,290.0,604.0" stroke="black" stroke-width="1" fill="none" />
<polyline points="300.0,596.0,276.0,612.0,250.0,628.0,222.0,644.0,198.0,660.0,172.0,676.0,142.0,692.0,118.0,708.0,90.0,724.0,76.0,744.0,78.0,760.0,92.0,730.0,100.0,726.0,110.0,730.0,124.0,718.0,144.0,706.0,154.0,708.0" stroke="black" stroke-width="1" fill="none" />
<polyline points="232.0,686.0,252.0,672.0,252.0,676.0,252.0,672.0" stroke="black" stroke-width="1" fill="none" />
<polyline points="234.0,652.0,238.0,644.0,208.0,646.0,192.0,668.0,182.0,684.0,174.0,700.0,182.0,684.0,190.0,694.0,206.0,684.0,222.0,676.0,238.0,664.0,254.0,654.0,264.0,630.0" stroke="black" stroke-width="1" fill="none" />
<polyline points="248.0,634.0,260.0,650.0,236.0,650.0,234.0,666.0,210.0,682.0,188.0,688.0,174.0,704.0,150.0,720.0,168.0,730.0" stroke="black" stroke-width="1" fill="none" />
<polyline points="226.0,656.0,222.0,650.0" stroke="black" stroke-width="1" fill="none" />
<polyline points="224.0,624.0,224.0,610.0,220.0,626.0,202.0,634.0,180.0,650.0,152.0,658.0,162.0,670.0,166.0,672.0,182.0,662.0,198.0,652.0,214.0,642.0,230.0,632.0,252.0,636.0,268.0,646.0,284.0,636.0,300.0,624.0,312.0,618.0,328.0,608.0,344.0,618.0,348.0,638.0,358.0,656.0,370.0,662.0,388.0,660.0,402.0,648.0,418.0,656.0,434.0,654.0" stroke="black" stroke-width="1" fill="none" />
<polyline points="416.0,664.0,434.0,680.0,444.0,684.0,472.0,698.0,462.0,696.0,476.0,702.0" stroke="black" stroke-width="1" fill="none" />
<polyline points="482.0,698.0,496.0,714.0,494.0,730.0,506.0,732.0,520.0,730.0,536.0,742.0,564.0,758.0,580.0,756.0,596.0,750.0,596.0,770.0" stroke="black" stroke-width="1" fill="none" />
<polyline points="598.0,764.0,588.0,766.0,566.0,766.0,582.0,744.0,592.0,728.0,576.0,712.0,556.0,718.0" stroke="black" stroke-width="1" fill="none" />
<polyline points="580.0,694.0,582.0,708.0,598.0,698.0" stroke="black" stroke-width="1" fill="none" />
<polyline points="590.0,712.0,606.0,724.0,622.0,742.0" stroke="black" stroke-width="1" fill="none" />
<polyline points="600.0,738.0,598.0,724.0,582.0,744.0,566.0,752.0,550.0,742.0,534.0,732.0,518.0,718.0,516.0,714.0,532.0,730.0,556.0,746.0" stroke="black" stroke-width="1" fill="none" />
<polyline points="574.0,782.0,558.0,794.0,562.0,794.0,578.0,790.0,594.0,786.0,610.0,784.0" stroke="black" stroke-width="1" fill="none" />
<polyline points="628.0,796.0,620.0,790.0,634.0,786.0,622.0,778.0,620.0,762.0,608.0,746.0,616.0,742.0,606.0,726.0,602.0,700.0,602.0,692.0,612.0,682.0,606.0,674.0,606.0,674.0" stroke="black" stroke-width="1" fill="none" />
<polyline points="604.0,654.0,588.0,638.0,572.0,640.0,560.0,644.0,544.0,644.0,528.0,650.0,522.0,618.0,534.0,602.0,510.0,604.0" stroke="black" stroke-width="1" fill="none" />
<polyline points="504.0,602.0,520.0,624.0,536.0,622.0,552.0,624.0,568.0,626.0,584.0,628.0,600.0,638.0,616.0,632.0,632.0,634.0,648.0,636.0,664.0,636.0,680.0,638.0,696.0,636.0,712.0,630.0,736.0,646.0,754.0,662.0,764.0,674.0,774.0,690.0,786.0,706.0,784.0,722.0" stroke="black" stroke-width="1" fill="none" />
<polyline points="792.0,720.0,776.0,710.0,766.0,698.0,750.0,684.0" stroke="black" stroke-width="1" fill="none" />
<polyline points="742.0,664.0,726.0,640.0" stroke="black" stroke-width="1" fill="none" />
<polyline points="712.0,642.0,728.0,656.0,734.0,676.0,756.0,684.0,752.0,682.0,734.0,678.0,732.0,662.0,720.0,646.0,714.0,648.0" stroke="black" stroke-width="1" fill="none" />
<polyline points="708.0,652.0,724.0,666.0,740.0,676.0,756.0,676.0,772.0,680.0" stroke="black" stroke-width="1" fill="none" />
<polyline points="774.0,658.0,782.0,674.0,798.0,688.0,814.0,714.0,830.0,722.0,842.0,716.0,852.0,686.0,868.0,680.0,884.0,676.0,900.0,672.0,916.0,670.0,932.0,662.0,954.0,666.0,970.0,662.0,986.0,660.0,1000.0,658.0,1016.0,660.0,1032.0,658.0,1040.0,664.0,1056.0,666.0,1072.0,664.0,1092.0,658.0,1108.0,656.0,1124.0,654.0,1140.0,648.0,1154.0,644.0,1170.0,640.0,1184.0,636.0,1200.0,634.0,1216.0,628.0,1232.0,626.0,1248.0,622.0" stroke="black" stroke-width="1" fill="none" />
<polyline points="1280.0,602.0,1284.0,592.0,1300.0,590.0,1316.0,592.0,1332.0,592.0" stroke="black" stroke-width="1" fill="none" />
<polyline points="1380.0,606.0,1396.0,606.0,1412.0,608.0" stroke="black" stroke-width="1" fill="none" />
<polyline points="1410.0,588.0,1398.0,592.0,1382.0,592.0,1366.0,596.0,1350.0,598.0,1338.0,600.0,1328.0,602.0,1312.0,602.0,1296.0,604.0,1280.0,606.0,1264.0,610.0,1248.0,612.0,1232.0,614.0,1216.0,616.0,1200.0,618.0,1186.0,620.0,1170.0,624.0,1154.0,624.0,1138.0,626.0,1122.0,628.0,1106.0,632.0,1090.0,632.0,1086.0,630.0,1070.0,636.0,1054.0,638.0,1038.0,640.0,1022.0,644.0,1006.0,644.0,990.0,646.0,974.0,648.0,958.0,654.0,942.0,658.0,926.0,658.0,910.0,656.0" stroke="black" stroke-width="1" fill="none" />
<polyline points="920.0,684.0,894.0,690.0" stroke="black" stroke-width="1" fill="none" />
<polyline points="888.0,712.0,904.0,708.0,920.0,704.0,936.0,698.0,952.0,692.0,968.0,688.0,984.0,688.0,976.0,690.0,974.0,706.0,946.0,702.0,960.0,698.0,976.0,696.0,986.0,698.0,1002.0,698.0,1018.0,700.0,1034.0,706.0,1050.0,712.0,1066.0,718.0,1082.0,724.0" stroke="black" stroke-width="1" fill="none" />
<polyline points="1092.0,722.0,1086.0,706.0,1086.0,702.0" stroke="black" stroke-width="1" fill="none" />
<polyline points="1092.0,700.0,1108.0,718.0" stroke="black" stroke-width="1" fill="none" />
<polyline points="1098.0,734.0,1082.0,736.0,1066.0,734.0" stroke="black" stroke-width="1" fill="none" />
<polyline points="1102.0,746.0,1110.0,730.0,1116.0,712.0,1116.0,696.0,1118.0,680.0,1102.0,676.0,1092.0,672.0" stroke="black" stroke-width="1" fill="none" />
<polyline points="1116.0,684.0,1132.0,680.0,1148.0,668.0,1164.0,670.0,1190.0,680.0,1188.0,696.0,1164.0,708.0,1140.0,730.0,1114.0,748.0,1104.0,762.0,1070.0,778.0,1054.0,788.0,1034.0,796.0,1008.0,810.0,1012.0,826.0,1014.0,842.0,1020.0,858.0,1022.0,874.0,1026.0,890.0,1030.0,906.0,1034.0,922.0,1038.0,938.0,1040.0,954.0,1036.0,962.0,1026.0,972.0,1044.0,974.0,1060.0,946.0,1076.0,916.0,1092.0,890.0,1108.0,860.0,1130.0,846.0,1124.0,840.0" stroke="black" stroke-width="1" fill="none" />
<polyline points="1106.0,830.0,1102.0,850.0,1086.0,854.0" stroke="black" stroke-width="1" fill="none" />
<polyline points="1112.0,862.0,1106.0,878.0,1100.0,894.0,1096.0,910.0,1090.0,926.0,1084.0,942.0,1078.0,958.0,1074.0,974.0" stroke="black" stroke-width="1" fill="none" />
<polyline points="1046.0,960.0,1054.0,944.0,1058.0,918.0,1054.0,920.0" stroke="black" stroke-width="1" fill="none" />
<polyline points="1072.0,888.0,1072.0,884.0,1076.0,900.0,1060.0,932.0,1044.0,962.0,1034.0,954.0,1054.0,942.0,1064.0,926.0,1072.0,910.0,1080.0,894.0,1088.0,878.0,1098.0,862.0,1104.0,846.0,1114.0,830.0,1116.0,826.0,1130.0,816.0,1114.0,818.0,1098.0,816.0" stroke="black" stroke-width="1" fill="none" />
<polyline points="1108.0,796.0,1124.0,798.0,1130.0,800.0,1140.0,818.0,1146.0,828.0,1156.0,832.0" stroke="black" stroke-width="1" fill="none" />
<polyline points="1144.0,820.0,1154.0,824.0,1148.0,834.0,1168.0,842.0,1152.0,858.0,1140.0,874.0,1122.0,886.0,1114.0,894.0" stroke="black" stroke-width="1" fill="none" />
<polyline points="1136.0,882.0,1124.0,898.0,1112.0,914.0,1104.0,936.0,1098.0,950.0,1114.0,936.0,1130.0,908.0,1146.0,882.0" stroke="black" stroke-width="1" fill="none" />
<polyline points="1156.0,874.0,1150.0,890.0,1146.0,904.0,1148.0,920.0,1138.0,926.0,1136.0,942.0,1154.0,950.0,1170.0,970.0,1186.0,966.0,1202.0,956.0,1218.0,942.0,1234.0,930.0,1250.0,916.0,1266.0,902.0,1282.0,888.0,1298.0,876.0,1314.0,864.0,1330.0,850.0,1346.0,836.0,1362.0,822.0,1378.0,808.0,1394.0,796.0,1410.0,788.0,1426.0,792.0,1442.0,794.0,1458.0,796.0,1474.0,798.0,1490.0,802.0,1506.0,804.0,1522.0,808.0,1538.0,812.0,1554.0,814.0,1570.0,818.0,1586.0,820.0" stroke="black" stroke-width="1" fill="none" />
<polyline points="1596.0,756.0,1580.0,748.0" stroke="black" stroke-width="1" fill="none" />
<polyline points="1582.0,718.0,1566.0,714.0,1550.0,712.0" stroke="black" stroke-width="1" fill="none" />
<polyline points="1544.0,726.0,1560.0,726.0,1564.0,732.0,1558.0,734.0" stroke="black" stroke-width="1" fill="none" />
<polyline points="1584.0,726.0,1568.0,722.0,1552.0,720.0,1536.0,716.0,1520.0,714.0" stroke="black" stroke-width="1" fill="none" />
<polyline points="1526.0,734.0,1498.0,732.0" stroke="black" stroke-width="1" fill="none" />
<polyline points="1486.0,732.0,1496.0,730.0,1532.0,730.0,1568.0,746.0,1570.0,754.0,1566.0,770.0,1556.0,788.0" stroke="black" stroke-width="1" fill="none" />
<polyline points="1542.0,766.0,1528.0,766.0,1516.0,762.0,1500.0,770.0" stroke="black" stroke-width="1" fill="none" />
<polyline points="1488.0,770.0,1504.0,756.0,1520.0,756.0,1500.0,772.0,1504.0,778.0,1520.0,784.0,1536.0,792.0,1552.0,784.0,1568.0,774.0" stroke="black" stroke-width="1" fill="none" />
<polyline points="1504.0,810.0,1488.0,814.0" stroke="black" stroke-width="1" fill="none" />
<polyline points="1488.0,784.0,1504.0,788.0,1520.0,796.0,1536.0,798.0,1552.0,802.0,1568.0,798.0,1584.0,786.0" stroke="black" stroke-width="1" fill="none" />
<polyline points="1536.0,702.0,1534.0,686.0,1530.0,668.0,1532.0,658.0,1516.0,660.0,1496.0,670.0,1496.0,660.0,1488.0,658.0,1488.0,658.0" stroke="black" stroke-width="1" fill="none" />
<polyline points="1496.0,654.0,1502.0,670.0,1502.0,686.0" stroke="black" stroke-width="1" fill="none" />
<polyline points="1478.0,726.0,1458.0,746.0,1436.0,746.0,1448.0,752.0,1458.0,736.0,1474.0,738.0,1490.0,740.0,1506.0,742.0,1522.0,744.0,1538.0,746.0,1554.0,750.0,1560.0,768.0,1574.0,766.0,1578.0,760.0,1594.0,764.0" stroke="black" stroke-width="1" fill="none" />
<polyline points="1580.0,828.0,1582.0,826.0,1586.0,828.0,1594.0,814.0,1578.0,812.0,1562.0,808.0,1546.0,806.0,1524.0,814.0,1506.0,814.0,1504.0,790.0,1488.0,790.0,1488.0,774.0,1486.0,758.0,1494.0,756.0,1506.0,754.0,1482.0,750.0" stroke="black" stroke-width="1" fill="none" />
<polyline points="1410.0,798.0,1426.0,800.0,1448.0,790.0,1464.0,792.0,1480.0,794.0,1496.0,796.0,1512.0,800.0,1528.0,802.0,1552.0,794.0,1568.0,790.0,1584.0,778.0" stroke="black" stroke-width="1" fill="none" />
<polyline points="1550.0,738.0,1536.0,730.0,1520.0,724.0,1504.0,716.0,1502.0,710.0,1492.0,712.0,1476.0,720.0,1460.0,728.0,1444.0,732.0,1428.0,730.0,1424.0,728.0,1402.0,718.0,1386.0,722.0" stroke="black" stroke-width="1" fill="none" />
<polyline points="1392.0,736.0,1408.0,744.0" stroke="black" stroke-width="1" fill="none" />
<polyline points="1390.0,762.0,1402.0,762.0,1396.0,778.0,1386.0,794.0,1390.0,808.0" stroke="black" stroke-width="1" fill="none" />
<polyline points="1402.0,788.0,1384.0,804.0,1364.0,820.0,1346.0,836.0,1326.0,852.0,1306.0,868.0,1288.0,884.0,1268.0,900.0,1250.0,916.0,1230.0,932.0,1212.0,948.0,1192.0,964.0" stroke="black" stroke-width="1" fill="none" />
<polyline points="1198.0,942.0,1190.0,926.0,1184.0,924.0" stroke="black" stroke-width="1" fill="none" />
<polyline points="1206.0,910.0,1222.0,910.0" stroke="black" stroke-width="1" fill="none" />
<polyline points="1192.0,880.0,1180.0,878.0,1164.0,890.0,1166.0,874.0" stroke="black" stroke-width="1" fill="none" />
<polyline points="1172.0,870.0,1178.0,886.0,1180.0,902.0,1182.0,918.0,1184.0,934.0,1188.0,950.0" stroke="black" stroke-width="1" fill="none" />
<polyline points="1182.0,958.0,1166.0,948.0,1168.0,952.0,1162.0,936.0,1168.0,922.0,1152.0,932.0" stroke="black" stroke-width="1" fill="none" />
<polyline points="1146.0,898.0,1162.0,874.0,1156.0,890.0,1152.0,902.0,1154.0,918.0,1152.0,934.0,1148.0,942.0,1156.0,958.0,1152.0,974.0,1170.0,970.0" stroke="black" stroke-width="1" fill="none" />
<polyline points="1118.0,940.0,1118.0,956.0,1108.0,958.0" stroke="black" stroke-width="1" fill="none" />
<polyline points="1052.0,986.0,1044.0,990.0,1038.0,980.0,1040.0,976.0,1022.0,966.0,1022.0,950.0,1030.0,934.0,1022.0,930.0,1024.0,914.0,1008.0,904.0,1006.0,888.0,1016.0,886.0,1012.0,870.0,1008.0,854.0,1006.0,842.0,1002.0,828.0,1000.0,812.0,1014.0,796.0,1036.0,784.0,1074.0,768.0,1082.0,752.0,1070.0,742.0,1056.0,728.0,1056.0,720.0,1028.0,706.0,1022.0,680.0,1032.0,676.0,1040.0,690.0,1040.0,690.0" stroke="black" stroke-width="1" fill="none" />
<polyline points="1038.0,698.0,1060.0,710.0" stroke="black" stroke-width="1" fill="none" />
<polyline points="1052.0,686.0,1068.0,682.0" stroke="black" stroke-width="1" fill="none" />
<polyline points="1074.0,658.0,1058.0,658.0,1042.0,658.0" stroke="black" stroke-width="1" fill="none" />
<polyline points="1040.0,668.0,1056.0,670.0" stroke="black" stroke-width="1" fill="none" />
<polyline points="1070.0,628.0,1070.0,624.0,1054.0,622.0" stroke="black" stroke-width="1" fill="none" />
<polyline points="1102.0,624.0,1118.0,622.0" stroke="black" stroke-width="1" fill="none" />
<polyline points="1120.0,670.0,1122.0,692.0,1124.0,708.0,1138.0,724.0,1144.0,714.0,1146.0,704.0,1162.0,702.0" stroke="black" stroke-width="1" fill="none" />
<polyline points="1150.0,682.0,1166.0,684.0,1182.0,676.0,1198.0,672.0,1198.0,684.0,1200.0,698.0,1198.0,694.0" stroke="black" stroke-width="1" fill="none" />
<polyline points="1200.0,734.0,1216.0,734.0" stroke="black" stroke-width="1" fill="none" />
<polyline points="1222.0,754.0,1206.0,754.0" stroke="black" stroke-width="1" fill="none" />
<polyline points="1202.0,782.0,1186.0,788.0" stroke="black" stroke-width="1" fill="none" />
<polyline points="1198.0,794.0,1222.0,800.0,1220.0,816.0,1224.0,824.0,1238.0,840.0,1260.0,850.0,1298.0,846.0,1314.0,848.0,1326.0,832.0" stroke="black" stroke-width="1" fill="none" />
<polyline points="1342.0,846.0,1324.0,872.0,1310.0,876.0,1320.0,870.0,1324.0,868.0" stroke="black" stroke-width="1" fill="none" />
<polyline points="1288.0,828.0,1272.0,820.0" stroke="black" stroke-width="1" fill="none" />
<polyline points="1256.0,846.0,1244.0,828.0,1228.0,818.0,1232.0,816.0,1230.0,824.0,1246.0,840.0" stroke="black" stroke-width="1" fill="none" />
<polyline points="1226.0,814.0,1242.0,820.0,1258.0,826.0,1274.0,830.0,1288.0,830.0,1292.0,846.0,1272.0,862.0,1280.0,876.0" stroke="black" stroke-width="1" fill="none" />
<polyline points="1296.0,858.0,1286.0,844.0,1280.0,842.0,1260.0,836.0,1264.0,846.0,1250.0,818.0,1220.0,810.0" stroke="black" stroke-width="1" fill="none" />
<polyline points="1216.0,800.0,1232.0,806.0,1248.0,816.0,1256.0,822.0,1272.0,816.0,1288.0,816.0" stroke="black" stroke-width="1" fill="none" />
<polyline points="1286.0,748.0,1302.0,730.0,1318.0,714.0,1330.0,690.0,1346.0,680.0,1362.0,676.0,1374.0,700.0,1386.0,712.0,1400.0,726.0,1414.0,728.0,1422.0,720.0,1438.0,722.0,1456.0,720.0,1466.0,730.0,1482.0,726.0,1498.0,722.0,1514.0,728.0,1530.0,734.0,1546.0,742.0,1562.0,748.0" stroke="black" stroke-width="1" fill="none" />
<polyline points="1578.0,790.0,1596.0,790.0,1588.0,792.0,1590.0,800.0,1584.0,806.0,1572.0,786.0,1594.0,770.0,1584.0,744.0,1588.0,728.0,1580.0,740.0,1566.0,726.0,1562.0,742.0,1560.0,758.0,1544.0,756.0,1528.0,752.0,1512.0,748.0,1496.0,748.0,1480.0,746.0,1464.0,742.0,1448.0,740.0,1432.0,742.0,1416.0,748.0,1400.0,752.0,1382.0,752.0,1374.0,746.0,1382.0,730.0,1374.0,714.0,1362.0,700.0,1346.0,702.0" stroke="black" stroke-width="1" fill="none" />
<polyline points="1356.0,684.0,1340.0,700.0,1324.0,716.0,1310.0,732.0,1294.0,748.0,1280.0,764.0" stroke="black" stroke-width="1" fill="none" />
<polyline points="1270.0,730.0,1292.0,724.0,1292.0,706.0,1276.0,716.0" stroke="black" stroke-width="1" fill="none" />
<polyline points="1248.0,718.0,1232.0,718.0" stroke="black" stroke-width="1" fill="none" />
<polyline points="1238.0,766.0,1254.0,764.0" stroke="black" stroke-width="1" fill="none" />
<polyline points="1206.0,806.0,1222.0,820.0,1238.0,838.0,1254.0,854.0,1270.0,860.0,1286.0,852.0" stroke="black" stroke-width="1" fill="none" />
<polyline points="1242.0,850.0,1226.0,836.0,1212.0,828.0,1198.0,824.0,1192.0,814.0,1176.0,814.0,1174.0,808.0" stroke="black" stroke-width="1" fill="none" />
<polyline points="1158.0,814.0,1174.0,824.0,1190.0,834.0,1194.0,838.0,1210.0,838.0" stroke="black" stroke-width="1" fill="none" />
<polyline points="1208.0,854.0,1208.0,870.0,1204.0,886.0,1198.0,902.0,1216.0,914.0,1202.0,928.0,1208.0,928.0" stroke="black" stroke-width="1" fill="none" />
<polyline points="1216.0,872.0,1208.0,896.0,1214.0,902.0,1216.0,884.0,1214.0,868.0" stroke="black" stroke-width="1" fill="none" />
<polyline points="1206.0,858.0,1198.0,860.0,1188.0,854.0,1176.0,838.0,1160.0,828.0,1144.0,812.0,1142.0,808.0,1158.0,802.0,1174.0,798.0,1190.0,794.0,1202.0,802.0,1214.0,818.0,1224.0,834.0,1240.0,850.0,1268.0,854.0,1280.0,866.0" stroke="black" stroke-width="1" fill="none" />
<polyline points="1224.0,852.0,1208.0,854.0,1192.0,846.0,1176.0,846.0,1158.0,848.0,1142.0,872.0,1130.0,878.0,1128.0,892.0,1112.0,914.0,1102.0,938.0,1094.0,970.0,1088.0,974.0,1084.0,966.0,1090.0,940.0,1096.0,934.0,1102.0,922.0,1108.0,906.0,1110.0,890.0,1114.0,874.0,1120.0,858.0,1124.0,842.0,1130.0,826.0,1138.0,824.0,1142.0,808.0,1136.0,804.0,1130.0,776.0,1136.0,760.0,1116.0,754.0,1114.0,764.0" stroke="black" stroke-width="1" fill="none" />
<polyline points="1072.0,784.0,1088.0,786.0,1104.0,780.0,1120.0,778.0,1136.0,774.0,1152.0,772.0,1168.0,768.0,1168.0,754.0,1166.0,756.0,1184.0,752.0,1196.0,762.0,1212.0,760.0,1230.0,750.0,1246.0,746.0,1254.0,748.0,1270.0,740.0,1286.0,732.0,1298.0,716.0" stroke="black" stroke-width="1" fill="none" />
<polyline points="1296.0,686.0,1296.0,702.0,1274.0,702.0,1264.0,710.0,1244.0,718.0,1242.0,726.0,1218.0,742.0,1210.0,768.0,1214.0,776.0" stroke="black" stroke-width="1" fill="none" />
<polyline points="1176.0,768.0,1192.0,762.0,1214.0,744.0,1230.0,736.0,1246.0,728.0,1262.0,722.0,1278.0,708.0,1278.0,702.0,1296.0,686.0,1320.0,684.0" stroke="black" stroke-width="1" fill="none" />
<polyline points="1326.0,658.0,1328.0,660.0,1324.0,676.0,1314.0,692.0,1290.0,714.0,1256.0,730.0,1224.0,746.0,1234.0,742.0,1250.0,734.0,1266.0,726.0,1282.0,718.0,1298.0,704.0,1308.0,690.0,1320.0,674.0,1344.0,668.0,1350.0,656.0,1366.0,658.0,1366.0,648.0,1384.0,648.0,1400.0,642.0,1416.0,636.0,1432.0,634.0,1432.0,624.0,1440.0,636.0,1456.0,638.0,1472.0,638.0,1488.0,640.0,1504.0,646.0,1512.0,652.0,1522.0,642.0,1518.0,642.0,1524.0,658.0,1522.0,674.0,1520.0,690.0,1518.0,706.0,1522.0,708.0,1538.0,710.0,1548.0,712.0,1564.0,702.0,1580.0,702.0" stroke="black" stroke-width="1" fill="none" />
<polyline points="1468.0,652.0,1452.0,652.0,1436.0,654.0,1418.0,654.0,1388.0,662.0,1372.0,666.0" stroke="black" stroke-width="1" fill="none" />
<polyline points="1360.0,676.0,1370.0,692.0,1376.0,708.0,1388.0,724.0,1390.0,746.0,1392.0,764.0,1392.0,780.0,1374.0,782.0,1392.0,772.0,1410.0,766.0,1414.0,782.0,1430.0,784.0,1446.0,784.0,1462.0,784.0" stroke="black" stroke-width="1" fill="none" />
<polyline points="1422.0,740.0,1418.0,734.0,1402.0,732.0,1386.0,734.0,1370.0,704.0,1354.0,686.0,1338.0,702.0,1322.0,718.0,1306.0,734.0,1290.0,752.0,1274.0,758.0,1258.0,756.0,1242.0,760.0,1226.0,762.0,1210.0,768.0,1194.0,770.0,1178.0,774.0,1162.0,780.0,1146.0,782.0,1130.0,786.0,1114.0,790.0,1098.0,794.0,1082.0,810.0,1062.0,832.0,1078.0,830.0,1078.0,816.0,1062.0,822.0,1046.0,834.0,1042.0,846.0,1050.0,842.0,1060.0,824.0,1070.0,808.0,1062.0,804.0,1042.0,808.0,1026.0,812.0,1010.0,816.0" stroke="black" stroke-width="1" fill="none" />
<polyline points="1016.0,826.0,1020.0,832.0,1024.0,848.0" stroke="black" stroke-width="1" fill="none" />
<polyline points="1030.0,880.0,1032.0,884.0,1036.0,884.0,1038.0,900.0,1036.0,910.0" stroke="black" stroke-width="1" fill="none" />
<polyline points="1014.0,912.0,1022.0,902.0,1008.0,890.0" stroke="black" stroke-width="1" fill="none" />
<polyline points="1046.0,824.0,1042.0,830.0,1054.0,814.0,1026.0,802.0" stroke="black" stroke-width="1" fill="none" />
<polyline points="1000.0,806.0,1016.0,796.0,1032.0,786.0,1048.0,778.0,1064.0,766.0,1070.0,778.0,1086.0,770.0,1102.0,764.0,1118.0,758.0,1134.0,750.0,1150.0,732.0,1166.0,714.0,1182.0,704.0" stroke="black" stroke-width="1" fill="none" />
<polyline points="1180.0,692.0,1164.0,696.0,1148.0,696.0,1132.0,700.0" stroke="black" stroke-width="1" fill="none" />
<polyline points="1124.0,684.0,1140.0,686.0,1156.0,688.0,1172.0,688.0,1198.0,676.0" stroke="black" stroke-width="1" fill="none" />
<polyline points="1182.0,652.0,1198.0,652.0,1214.0,648.0" stroke="black" stroke-width="1" fill="none" />
<polyline points="1240.0,606.0,1224.0,608.0,1206.0,606.0,1190.0,608.0,1174.0,608.0,1166.0,614.0" stroke="black" stroke-width="1" fill="none" />
<polyline points="1250.0,616.0,1234.0,620.0,1218.0,622.0,1202.0,624.0,1186.0,628.0,1170.0,630.0,1154.0,630.0,1138.0,632.0,1122.0,636.0,1106.0,638.0,1090.0,640.0,1074.0,642.0,1058.0,644.0,1042.0,646.0,1026.0,648.0,1010.0,652.0,994.0,652.0,978.0,656.0,962.0,658.0,946.0,666.0,930.0,674.0,914.0,678.0,898.0,684.0,882.0,692.0,866.0,698.0,850.0,704.0,854.0,702.0,892.0,686.0,868.0,686.0,852.0,694.0,854.0,696.0,870.0,690.0,888.0,680.0" stroke="black" stroke-width="1" fill="none" />
<polyline points="888.0,716.0,904.0,714.0,920.0,714.0,936.0,714.0,952.0,714.0,956.0,706.0,970.0,712.0,984.0,710.0,1000.0,714.0,1014.0,710.0,1020.0,722.0,1028.0,716.0,1038.0,720.0,1052.0,728.0,1072.0,716.0,1088.0,716.0" stroke="black" stroke-width="1" fill="none" />
<polyline points="1088.0,732.0,1072.0,728.0,1048.0,734.0,1008.0,718.0,978.0,722.0" stroke="black" stroke-width="1" fill="none" />
<polyline points="1006.0,724.0,1048.0,742.0" stroke="black" stroke-width="1" fill="none" />
<polyline points="1072.0,750.0,1056.0,748.0,1040.0,746.0,1024.0,744.0,1008.0,740.0,992.0,738.0,976.0,736.0,960.0,734.0,944.0,730.0,928.0,728.0,912.0,726.0,896.0,724.0,880.0,722.0,864.0,724.0,848.0,716.0,846.0,712.0,862.0,708.0,878.0,704.0,880.0,708.0,896.0,698.0,912.0,696.0,928.0,692.0,944.0,686.0,944.0,682.0,966.0,682.0,982.0,680.0,998.0,680.0,1014.0,692.0,1030.0,684.0,1036.0,696.0,1052.0,706.0,1068.0,704.0,1086.0,690.0,1102.0,692.0,1102.0,700.0,1098.0,700.0,1104.0,716.0,1102.0,730.0" stroke="black" stroke-width="1" fill="none" />
<polyline points="1072.0,800.0,1050.0,794.0,1048.0,790.0,1024.0,782.0,1008.0,782.0" stroke="black" stroke-width="1" fill="none" />
<polyline points="990.0,806.0,990.0,808.0,990.0,824.0,992.0,840.0,998.0,848.0" stroke="black" stroke-width="1" fill="none" />
<polyline points="1032.0,752.0,1028.0,738.0,1012.0,736.0,1008.0,746.0,992.0,750.0,1014.0,742.0" stroke="black" stroke-width="1" fill="none" />
<polyline points="1006.0,734.0,990.0,732.0,974.0,730.0,960.0,728.0,944.0,724.0" stroke="black" stroke-width="1" fill="none" />
<polyline points="954.0,670.0,970.0,670.0,986.0,666.0,1002.0,664.0,1014.0,660.0,998.0,674.0,1008.0,678.0,1002.0,688.0,1006.0,672.0,1026.0,668.0,1042.0,674.0,1058.0,676.0,1074.0,672.0,1090.0,668.0,1106.0,666.0,1122.0,664.0,1138.0,660.0,1154.0,656.0,1170.0,652.0,1186.0,646.0,1202.0,642.0,1218.0,636.0,1234.0,632.0,1250.0,628.0,1266.0,622.0,1282.0,614.0,1298.0,612.0,1314.0,610.0,1330.0,606.0,1346.0,606.0,1362.0,604.0,1378.0,600.0,1394.0,598.0,1410.0,596.0,1412.0,574.0" stroke="black" stroke-width="1" fill="none" />
<polyline points="1408.0,638.0,1374.0,642.0,1366.0,640.0,1382.0,638.0" stroke="black" stroke-width="1" fill="none" />
<polyline points="1422.0,648.0,1396.0,652.0,1354.0,668.0,1328.0,684.0,1318.0,700.0,1306.0,716.0,1294.0,732.0,1280.0,748.0,1282.0,746.0,1298.0,726.0,1314.0,704.0,1330.0,694.0,1332.0,680.0,1348.0,672.0,1364.0,664.0,1380.0,658.0,1396.0,652.0,1412.0,644.0,1428.0,644.0,1444.0,644.0,1460.0,644.0,1476.0,646.0,1480.0,650.0,1488.0,654.0,1504.0,658.0,1504.0,676.0,1516.0,678.0,1512.0,694.0,1508.0,710.0,1524.0,686.0" stroke="black" stroke-width="1" fill="none" />
<polyline points="1406.0,774.0,1390.0,790.0,1374.0,804.0,1358.0,816.0,1352.0,814.0,1342.0,830.0,1326.0,844.0,1310.0,856.0,1294.0,870.0,1278.0,882.0,1262.0,896.0,1246.0,910.0,1230.0,922.0,1214.0,930.0,1204.0,944.0,1184.0,960.0,1180.0,944.0,1166.0,942.0,1176.0,926.0,1172.0,910.0,1170.0,898.0,1182.0,880.0,1182.0,864.0,1196.0,848.0" stroke="black" stroke-width="1" fill="none" />
<polyline points="1194.0,858.0,1202.0,874.0,1194.0,890.0,1192.0,906.0,1198.0,880.0,1218.0,862.0,1234.0,860.0,1250.0,862.0" stroke="black" stroke-width="1" fill="none" />
<polyline points="1204.0,816.0,1188.0,800.0,1172.0,804.0,1156.0,808.0,1156.0,808.0,1172.0,824.0,1194.0,840.0,1168.0,846.0,1172.0,862.0,1154.0,866.0,1146.0,882.0,1138.0,898.0,1128.0,914.0,1118.0,930.0,1108.0,946.0,1100.0,962.0,1100.0,974.0" stroke="black" stroke-width="1" fill="none" />
<polyline points="1054.0,970.0,1046.0,970.0,1056.0,954.0,1064.0,938.0,1074.0,922.0,1082.0,906.0,1092.0,890.0,1102.0,874.0,1100.0,856.0,1090.0,874.0,1088.0,860.0,1102.0,840.0,1104.0,824.0,1100.0,812.0,1090.0,808.0,1102.0,792.0,1118.0,762.0,1140.0,744.0,1154.0,728.0,1170.0,712.0,1178.0,718.0,1160.0,712.0,1144.0,722.0,1140.0,730.0,1122.0,744.0,1106.0,754.0,1088.0,750.0,1072.0,742.0,1056.0,736.0,1040.0,730.0,1036.0,734.0,1020.0,728.0,1004.0,722.0,988.0,716.0,972.0,718.0,956.0,720.0,940.0,718.0,924.0,720.0,904.0,734.0,888.0,732.0,872.0,732.0,860.0,730.0,850.0,736.0,854.0,720.0,854.0,696.0,882.0,686.0,922.0,674.0,948.0,656.0,942.0,644.0" stroke="black" stroke-width="1" fill="none" />
<polyline points="962.0,640.0,978.0,640.0" stroke="black" stroke-width="1" fill="none" />
<polyline points="880.0,670.0,864.0,672.0,848.0,680.0,838.0,708.0,844.0,700.0,848.0,684.0,860.0,678.0,848.0,674.0" stroke="black" stroke-width="1" fill="none" />
<polyline points="836.0,686.0,832.0,702.0,832.0,718.0" stroke="black" stroke-width="1" fill="none" />
<polyline points="768.0,728.0,760.0,712.0,740.0,720.0" stroke="black" stroke-width="1" fill="none" />
<polyline points="728.0,706.0,730.0,722.0,726.0,736.0" stroke="black" stroke-width="1" fill="none" />
<polyline points="710.0,732.0,714.0,724.0,704.0,742.0,720.0,746.0,724.0,770.0,716.0,782.0,742.0,800.0" stroke="black" stroke-width="1" fill="none" />
<polyline points="734.0,804.0,728.0,788.0,702.0,774.0,704.0,758.0,702.0,742.0,704.0,726.0,716.0,710.0,712.0,694.0,708.0,678.0,712.0,668.0" stroke="black" stroke-width="1" fill="none" />
<polyline points="718.0,672.0,724.0,688.0,732.0,688.0,734.0,704.0,736.0,720.0,740.0,736.0,742.0,752.0,744.0,768.0,748.0,784.0,750.0,800.0" stroke="black" stroke-width="1" fill="none" />
<polyline points="738.0,812.0,736.0,804.0,734.0,792.0,732.0,776.0,720.0,774.0,714.0,758.0,716.0,744.0,730.0,736.0,720.0,734.0,726.0,718.0,722.0,702.0,716.0,686.0,712.0,670.0,708.0,654.0,700.0,642.0,684.0,640.0" stroke="black" stroke-width="1" fill="none" />
<polyline points="698.0,646.0,724.0,660.0,726.0,680.0,734.0,688.0,750.0,696.0,766.0,718.0,782.0,732.0,798.0,742.0" stroke="black" stroke-width="1" fill="none" />
<polyline points="802.0,708.0,786.0,678.0,770.0,652.0,752.0,646.0,744.0,622.0,740.0,618.0,738.0,614.0,710.0,602.0,694.0,590.0,694.0,586.0,716.0,590.0,750.0,594.0,754.0,612.0,762.0,628.0,772.0,644.0,768.0,660.0,778.0,676.0,786.0,692.0,796.0,706.0" stroke="black" stroke-width="1" fill="none" />
<polyline points="784.0,740.0,788.0,720.0,780.0,718.0,762.0,696.0,744.0,680.0,740.0,662.0,728.0,646.0,720.0,630.0,700.0,616.0,688.0,616.0,684.0,600.0,672.0,598.0,660.0,582.0,636.0,556.0,612.0,540.0,590.0,530.0,574.0,524.0,574.0,512.0" stroke="black" stroke-width="1" fill="none" />
<polyline points="560.0,496.0,576.0,494.0,590.0,496.0,606.0,496.0,600.0,512.0,616.0,510.0,618.0,526.0,630.0,528.0,634.0,540.0,650.0,552.0,654.0,544.0,670.0,544.0,674.0,558.0" stroke="black" stroke-width="1" fill="none" />
<polyline points="690.0,588.0,706.0,592.0,722.0,600.0,738.0,606.0" stroke="black" stroke-width="1" fill="none" />
<polyline points="728.0,616.0,712.0,604.0" stroke="black" stroke-width="1" fill="none" />
<polyline points="716.0,582.0,700.0,582.0" stroke="black" stroke-width="1" fill="none" />
<polyline points="766.0,632.0,782.0,648.0,792.0,654.0" stroke="black" stroke-width="1" fill="none" />
<polyline points="798.0,656.0,796.0,672.0,796.0,684.0,804.0,700.0,814.0,716.0" stroke="black" stroke-width="1" fill="none" />
<polyline points="750.0,766.0,750.0,742.0,750.0,728.0,752.0,714.0,750.0,698.0,722.0,702.0,700.0,736.0,700.0,720.0,696.0,704.0,694.0,688.0,692.0,672.0,674.0,666.0,658.0,670.0,654.0,672.0,670.0,714.0" stroke="black" stroke-width="1" fill="none" />
<polyline points="676.0,750.0,692.0,778.0" stroke="black" stroke-width="1" fill="none" />
<polyline points="690.0,764.0,684.0,748.0,678.0,738.0,672.0,722.0,660.0,714.0,656.0,700.0,674.0,686.0,676.0,676.0,660.0,674.0" stroke="black" stroke-width="1" fill="none" />
<polyline points="664.0,664.0,680.0,658.0,696.0,652.0,704.0,658.0,690.0,664.0,686.0,680.0,688.0,696.0,690.0,710.0,692.0,726.0,694.0,742.0,698.0,758.0,706.0,780.0,710.0,796.0,716.0,812.0,718.0,814.0,726.0,810.0" stroke="black" stroke-width="1" fill="none" />
<polyline points="706.0,808.0,690.0,784.0,674.0,760.0,658.0,740.0,642.0,716.0,626.0,694.0" stroke="black" stroke-width="1" fill="none" />
<polyline points="620.0,692.0,620.0,700.0,616.0,716.0,618.0,720.0,624.0,734.0,626.0,750.0,628.0,766.0" stroke="black" stroke-width="1" fill="none" />
<polyline points="628.0,776.0,614.0,754.0,620.0,736.0,610.0,720.0,594.0,704.0,568.0,694.0,560.0,674.0,542.0,658.0,534.0,644.0,542.0,634.0,546.0,602.0,538.0,596.0,522.0,594.0,506.0,598.0,490.0,604.0" stroke="black" stroke-width="1" fill="none" />
<polyline points="492.0,610.0,508.0,610.0,516.0,626.0,524.0,642.0,540.0,652.0,556.0,652.0,568.0,658.0,574.0,664.0,564.0,650.0,570.0,666.0,572.0,682.0,566.0,690.0,582.0,688.0,598.0,688.0,606.0,698.0,610.0,712.0,614.0,692.0,624.0,676.0,628.0,680.0,644.0,694.0,652.0,700.0,676.0,704.0,682.0,728.0,692.0,752.0,720.0,774.0,722.0,792.0,722.0,808.0" stroke="black" stroke-width="1" fill="none" />
<polyline points="742.0,796.0,738.0,780.0,734.0,764.0" stroke="black" stroke-width="1" fill="none" />
<polyline points="694.0,762.0,688.0,746.0,682.0,730.0,676.0,714.0,668.0,698.0,662.0,682.0,668.0,658.0,652.0,666.0" stroke="black" stroke-width="1" fill="none" />
<polyline points="646.0,664.0,634.0,680.0,628.0,706.0,630.0,722.0,634.0,738.0,636.0,754.0,638.0,770.0,620.0,786.0" stroke="black" stroke-width="1" fill="none" />
<polyline points="598.0,780.0,590.0,774.0,590.0,758.0,594.0,738.0,602.0,730.0,590.0,714.0,580.0,714.0,564.0,700.0,548.0,706.0,532.0,720.0,516.0,714.0" stroke="black" stroke-width="1" fill="none" />
<polyline points="548.0,688.0,532.0,678.0,516.0,664.0,500.0,650.0" stroke="black" stroke-width="1" fill="none" />
<polyline points="504.0,632.0,502.0,610.0" stroke="black" stroke-width="1" fill="none" />
<polyline points="498.0,600.0,504.0,616.0,512.0,632.0,520.0,648.0,526.0,676.0,550.0,692.0,558.0,708.0,576.0,724.0,576.0,740.0,570.0,762.0,558.0,770.0,556.0,786.0,552.0,790.0,552.0,798.0,568.0,800.0,584.0,796.0,600.0,794.0,616.0,790.0,634.0,778.0" stroke="black" stroke-width="1" fill="none" />
<polyline points="674.0,782.0,670.0,770.0,662.0,764.0,660.0,758.0,656.0,746.0,652.0,730.0,638.0,714.0,646.0,692.0,650.0,682.0,652.0,666.0,654.0,656.0,638.0,658.0,640.0,654.0,632.0,670.0,628.0,682.0,638.0,698.0,650.0,714.0,662.0,730.0,672.0,746.0,682.0,762.0,678.0,770.0,692.0,788.0,686.0,804.0,688.0,812.0,696.0,808.0" stroke="black" stroke-width="1" fill="none" />
<polyline points="690.0,764.0,674.0,748.0,664.0,722.0,648.0,708.0,648.0,698.0,656.0,682.0,638.0,682.0" stroke="black" stroke-width="1" fill="none" />
<polyline points="598.0,646.0,592.0,650.0,596.0,646.0,594.0,630.0" stroke="black" stroke-width="1" fill="none" />
<polyline points="542.0,618.0,558.0,620.0,574.0,620.0,584.0,622.0,590.0,610.0,602.0,624.0,618.0,626.0,634.0,628.0,650.0,628.0,666.0,630.0,674.0,622.0" stroke="black" stroke-width="1" fill="none" />
<polyline points="630.0,550.0,614.0,540.0,598.0,532.0" stroke="black" stroke-width="1" fill="none" />
<polyline points="592.0,558.0,608.0,558.0,640.0,574.0" stroke="black" stroke-width="1" fill="none" />
<polyline points="674.0,558.0,672.0,550.0,660.0,546.0,638.0,552.0,618.0,536.0,598.0,520.0,566.0,518.0,542.0,510.0" stroke="black" stroke-width="1" fill="none" />
<polyline points="540.0,500.0,556.0,502.0,572.0,506.0,588.0,508.0,592.0,518.0,610.0,520.0,628.0,536.0,648.0,552.0,664.0,566.0,686.0,566.0,694.0,592.0,716.0,608.0,734.0,624.0,744.0,624.0,748.0,640.0,758.0,656.0,774.0,648.0,784.0,664.0,786.0,680.0,794.0,696.0,804.0,712.0,800.0,736.0,792.0,750.0,800.0,750.0,800.0,734.0,816.0,728.0,828.0,730.0,812.0,744.0" stroke="black" stroke-width="1" fill="none" />
<polyline points="674.0,606.0,660.0,590.0,652.0,586.0,650.0,588.0,638.0,582.0,646.0,574.0,638.0,566.0,626.0,566.0,610.0,552.0,576.0,536.0,558.0,532.0,536.0,528.0,520.0,518.0" stroke="black" stroke-width="1" fill="none" />
<polyline points="496.0,494.0,480.0,488.0" stroke="black" stroke-width="1" fill="none" />
<polyline points="448.0,494.0,432.0,494.0" stroke="black" stroke-width="1" fill="none" />
<polyline points="430.0,476.0,446.0,484.0,462.0,490.0,478.0,496.0,494.0,502.0,510.0,510.0,526.0,514.0,542.0,520.0,558.0,528.0,574.0,534.0,590.0,542.0,606.0,548.0,622.0,554.0,638.0,564.0,654.0,576.0,670.0,588.0,686.0,602.0,702.0,616.0,718.0,626.0,734.0,642.0,750.0,656.0,774.0,668.0,790.0,696.0" stroke="black" stroke-width="1" fill="none" />
<polyline points="784.0,628.0,768.0,624.0,760.0,612.0,744.0,602.0,738.0,592.0,722.0,592.0,712.0,578.0,696.0,582.0,682.0,576.0,670.0,578.0,664.0,564.0,642.0,554.0,626.0,540.0,610.0,528.0,594.0,522.0,578.0,520.0,562.0,514.0,558.0,510.0,542.0,506.0,540.0,494.0,524.0,498.0,508.0,496.0,490.0,506.0,478.0,508.0,466.0,492.0,428.0,476.0,420.0,468.0,414.0,464.0,414.0,464.0" stroke="black" stroke-width="1" fill="none" />
<polyline points="416.0,478.0,448.0,478.0,496.0,494.0" stroke="black" stroke-width="1" fill="none" />
<polyline points="462.0,466.0,448.0,476.0,432.0,470.0,428.0,470.0,444.0,464.0,458.0,482.0,468.0,486.0,484.0,478.0,500.0,478.0,504.0,488.0" stroke="black" stroke-width="1" fill="none" />
<polyline points="490.0,576.0,482.0,592.0,482.0,608.0,482.0,624.0,486.0,634.0,488.0,650.0,490.0,666.0,488.0,672.0,502.0,682.0,528.0,688.0,526.0,704.0,542.0,702.0,532.0,712.0" stroke="black" stroke-width="1" fill="none" />
<polyline points="556.0,662.0,540.0,656.0" stroke="black" stroke-width="1" fill="none" />
<polyline points="522.0,614.0,542.0,614.0,548.0,600.0,548.0,584.0" stroke="black" stroke-width="1" fill="none" />
<polyline points="522.0,582.0,538.0,586.0,544.0,582.0,558.0,588.0,558.0,604.0,560.0,614.0" stroke="black" stroke-width="1" fill="none" />
<polyline points="560.0,582.0,544.0,576.0,528.0,576.0,512.0,580.0,496.0,576.0,480.0,584.0" stroke="black" stroke-width="1" fill="none" />
<polyline points="494.0,598.0,496.0,614.0,502.0,630.0,512.0,646.0,532.0,670.0,552.0,686.0,546.0,710.0,544.0,730.0,564.0,744.0,572.0,736.0" stroke="black" stroke-width="1" fill="none" />
<polyline points="598.0,752.0,608.0,768.0,610.0,784.0" stroke="black" stroke-width="1" fill="none" />
<polyline points="556.0,688.0,540.0,676.0,524.0,660.0,508.0,650.0,492.0,630.0" stroke="black" stroke-width="1" fill="none" />
<polyline points="490.0,618.0,496.0,628.0,502.0,644.0,510.0,660.0,514.0,686.0,504.0,688.0" stroke="black" stroke-width="1" fill="none" />
<polyline points="526.0,692.0,514.0,708.0,508.0,698.0,492.0,696.0,494.0,680.0,492.0,652.0,496.0,642.0,490.0,626.0,480.0,620.0" stroke="black" stroke-width="1" fill="none" />
<polyline points="478.0,672.0,488.0,688.0,490.0,688.0,474.0,686.0,458.0,678.0" stroke="black" stroke-width="1" fill="none" />
<polyline points="398.0,646.0,382.0,636.0" stroke="black" stroke-width="1" fill="none" />
<polyline points="380.0,644.0,410.0,660.0" stroke="black" stroke-width="1" fill="none" />
<polyline points="386.0,686.0,386.0,670.0,374.0,654.0" stroke="black" stroke-width="1" fill="none" />
<polyline points="376.0,642.0,384.0,658.0,398.0,674.0,394.0,686.0" stroke="black" stroke-width="1" fill="none" />
<polyline points="372.0,672.0,366.0,670.0,368.0,654.0,362.0,638.0" stroke="black" stroke-width="1" fill="none" />
<polyline points="366.0,666.0,350.0,642.0,334.0,630.0,330.0,618.0,326.0,618.0,302.0,634.0,274.0,650.0,250.0,666.0,224.0,682.0,198.0,698.0,172.0,714.0,148.0,730.0,122.0,746.0,98.0,762.0,74.0,778.0,48.0,794.0,24.0,810.0,10.0,824.0" stroke="black" stroke-width="1" fill="none" />
<polyline points="8.0,790.0,14.0,776.0,18.0,760.0,22.0,744.0,28.0,728.0,12.0,716.0,32.0,714.0,36.0,698.0,38.0,690.0,22.0,702.0,18.0,684.0,40.0,668.0,48.0,652.0,54.0,636.0,58.0,620.0,54.0,616.0,52.0,620.0" stroke="black" stroke-width="1" fill="none" />
<polyline points="32.0,620.0,48.0,610.0,62.0,602.0,34.0,618.0,8.0,634.0,4.0,650.0,4.0,666.0,4.0,682.0,10.0,698.0,26.0,692.0,52.0,688.0,68.0,684.0" stroke="black" stroke-width="1" fill="none" />
<polyline points="36.0,686.0,6.0,702.0,4.0,718.0,2.0,734.0,2.0,750.0,2.0,766.0,4.0,782.0,4.0,798.0,14.0,806.0,30.0,794.0,46.0,786.0,50.0,768.0,52.0,772.0,68.0,772.0,84.0,762.0,100.0,752.0,116.0,742.0,132.0,732.0,148.0,722.0,164.0,712.0,180.0,702.0" stroke="black" stroke-width="1" fill="none" />
<polyline points="86.0,716.0,70.0,728.0,50.0,730.0,56.0,726.0,30.0,716.0,14.0,718.0" stroke="black" stroke-width="1" fill="none" />
<polyline points="38.0,726.0,46.0,728.0,46.0,744.0" stroke="black" stroke-width="1" fill="none" />
<polyline points="38.0,726.0,54.0,728.0,58.0,718.0" stroke="black" stroke-width="1" fill="none" />
<polyline points="52.0,772.0,42.0,788.0,16.0,804.0" stroke="black" stroke-width="1" fill="none" />
<polyline points="28.0,782.0,32.0,778.0,26.0,772.0" stroke="black" stroke-width="1" fill="none" />
<polyline points="46.0,806.0,40.0,808.0,34.0,812.0,44.0,804.0,64.0,790.0" stroke="black" stroke-width="1" fill="none" />
<polyline points="4.0,640.0,20.0,626.0,22.0,618.0,2.0,630.0,18.0,620.0,34.0,610.0,50.0,602.0,54.0,596.0,70.0,582.0" stroke="black" stroke-width="1" fill="none" />
<polyline points="76.0,604.0,80.0,610.0,70.0,618.0,80.0,592.0,96.0,584.0,112.0,574.0,128.0,564.0,144.0,568.0,160.0,570.0" stroke="black" stroke-width="1" fill="none" />
<polyline points="154.0,562.0,138.0,562.0" stroke="black" stroke-width="1" fill="none" />
<polyline points="140.0,574.0,146.0,590.0,124.0,606.0,116.0,630.0,98.0,642.0,88.0,658.0,68.0,672.0,54.0,680.0,70.0,672.0,86.0,666.0,102.0,658.0,118.0,642.0,134.0,628.0,150.0,612.0,158.0,604.0,174.0,590.0,190.0,574.0,206.0,574.0,222.0,576.0,238.0,576.0,254.0,578.0,270.0,580.0,286.0,582.0,302.0,582.0,318.0,582.0,334.0,598.0,346.0,602.0,362.0,608.0,366.0,620.0,380.0,622.0,380.0,636.0,388.0,648.0,404.0,658.0,420.0,664.0,436.0,674.0,452.0,682.0,468.0,690.0,484.0,698.0,500.0,706.0,496.0,732.0,508.0,736.0" stroke="black" stroke-width="1" fill="none" />
<polyline points="574.0,816.0,556.0,810.0,546.0,816.0,544.0,800.0,542.0,784.0,548.0,768.0,542.0,752.0,528.0,738.0,510.0,722.0,506.0,706.0,478.0,690.0,448.0,674.0,436.0,668.0,406.0,652.0,378.0,636.0,358.0,620.0,346.0,604.0,334.0,588.0,322.0,572.0,310.0,556.0,302.0,540.0,284.0,538.0,268.0,538.0,252.0,534.0" stroke="black" stroke-width="1" fill="none" />
<polyline points="258.0,542.0,274.0,544.0,290.0,546.0,306.0,562.0" stroke="black" stroke-width="1" fill="none" />
<polyline points="300.0,564.0,284.0,556.0" stroke="black" stroke-width="1" fill="none" />
<polyline points="290.0,560.0,268.0,544.0" stroke="black" stroke-width="1" fill="none" />
<polyline points="262.0,546.0,278.0,554.0,298.0,552.0,318.0,564.0,334.0,560.0" stroke="black" stroke-width="1" fill="none" />
<polyline points="332.0,578.0,312.0,574.0,296.0,568.0,280.0,560.0,264.0,554.0,248.0,546.0,232.0,540.0,216.0,548.0,200.0,564.0,204.0,568.0,220.0,568.0,222.0,584.0,230.0,582.0,236.0,568.0,252.0,570.0,268.0,574.0,276.0,574.0,292.0,576.0,308.0,578.0,316.0,590.0,330.0,602.0" stroke="black" stroke-width="1" fill="none" />
<polyline points="326.0,608.0,300.0,624.0,280.0,638.0,260.0,642.0,270.0,644.0,274.0,624.0,286.0,626.0" stroke="black" stroke-width="1" fill="none" />
<polyline points="270.0,588.0,258.0,598.0,278.0,600.0,270.0,600.0,262.0,584.0" stroke="black" stroke-width="1" fill="none" />
<polyline points="254.0,554.0,242.0,552.0,236.0,556.0,238.0,542.0" stroke="black" stroke-width="1" fill="none" />
<polyline points="226.0,540.0,208.0,556.0,190.0,574.0,174.0,590.0,154.0,592.0,132.0,608.0,110.0,624.0,88.0,640.0,68.0,656.0,50.0,672.0,42.0,680.0,42.0,696.0,38.0,712.0,32.0,728.0,30.0,744.0,24.0,760.0,18.0,776.0,14.0,792.0,6.0,804.0,10.0,818.0,26.0,806.0,42.0,798.0,58.0,788.0,74.0,778.0,90.0,768.0,106.0,756.0,122.0,746.0,138.0,736.0,154.0,726.0,170.0,716.0,186.0,706.0,202.0,696.0,218.0,686.0,234.0,676.0,250.0,666.0,266.0,656.0,282.0,646.0,298.0,638.0,314.0,626.0,330.0,618.0,346.0,626.0,362.0,636.0,378.0,658.0,394.0,680.0,400.0,670.0,414.0,672.0,436.0,666.0,448.0,672.0,464.0,672.0,480.0,678.0,496.0,676.0,504.0,674.0,520.0,680.0,536.0,690.0" stroke="black" stroke-width="1" fill="none" />
<polyline points="340.0,608.0,330.0,604.0,324.0,588.0" stroke="black" stroke-width="1" fill="none" />
<polyline points="256.0,500.0,240.0,504.0" stroke="black" stroke-width="1" fill="none" />
<polyline points="232.0,506.0,224.0,522.0,226.0,530.0,242.0,534.0,258.0,530.0,274.0,530.0,290.0,530.0,304.0,544.0,312.0,542.0" stroke="black" stroke-width="1" fill="none" />
<polyline points="260.0,488.0,244.0,486.0,232.0,496.0,216.0,498.0,200.0,500.0,184.0,506.0,168.0,510.0,152.0,512.0,146.0,514.0,130.0,518.0,114.0,522.0,98.0,526.0,82.0,530.0,66.0,534.0" stroke="black" stroke-width="1" fill="none" />
<polyline points="52.0,534.0,68.0,530.0,84.0,524.0,100.0,518.0,116.0,512.0,132.0,506.0,148.0,500.0,164.0,494.0,180.0,488.0,196.0,482.0,212.0,476.0,228.0,470.0,244.0,464.0,260.0,458.0,276.0,456.0,292.0,456.0,308.0,458.0,324.0,462.0,340.0,462.0,356.0,464.0" stroke="black" stroke-width="1" fill="none" />
<polyline points="384.0,456.0,368.0,454.0,352.0,452.0,336.0,450.0,320.0,448.0,304.0,446.0,288.0,444.0,272.0,444.0,258.0,448.0,230.0,448.0,214.0,448.0,192.0,464.0,176.0,462.0" stroke="black" stroke-width="1" fill="none" />
<polyline points="184.0,474.0,146.0,490.0,152.0,480.0" stroke="black" stroke-width="1" fill="none" />
<polyline points="144.0,526.0,160.0,530.0" stroke="black" stroke-width="1" fill="none" />
<polyline points="166.0,558.0,180.0,542.0,190.0,540.0,194.0,544.0,182.0,542.0,208.0,538.0,202.0,526.0" stroke="black" stroke-width="1" fill="none" />
<polyline points="204.0,520.0,212.0,536.0,198.0,552.0,174.0,570.0,152.0,578.0,150.0,588.0,166.0,576.0" stroke="black" stroke-width="1" fill="none" />
<polyline points="176.0,596.0,164.0,598.0,148.0,614.0,130.0,630.0,114.0,646.0,106.0,662.0,92.0,672.0,110.0,668.0" stroke="black" stroke-width="1" fill="none" />
<polyline points="108.0,610.0,114.0,592.0,130.0,590.0" stroke="black" stroke-width="1" fill="none" />
<polyline points="88.0,624.0,74.0,624.0,82.0,624.0,98.0,608.0,88.0,598.0,94.0,576.0,110.0,550.0,128.0,534.0,116.0,538.0,100.0,536.0" stroke="black" stroke-width="1" fill="none" />
<polyline points="80.0,554.0,72.0,570.0,70.0,586.0,48.0,602.0,32.0,622.0,16.0,638.0,12.0,654.0,12.0,670.0,10.0,690.0,26.0,678.0,42.0,666.0,44.0,656.0" stroke="black" stroke-width="1" fill="none" />
<polyline points="44.0,554.0,24.0,558.0,44.0,554.0,72.0,518.0,110.0,496.0,94.0,500.0" stroke="black" stroke-width="1" fill="none" />
<polyline points="64.0,512.0,48.0,520.0" stroke="black" stroke-width="1" fill="none" />
<polyline points="62.0,548.0,76.0,548.0,68.0,544.0,64.0,560.0,66.0,576.0,92.0,568.0,92.0,562.0,108.0,564.0,122.0,558.0,138.0,550.0,154.0,540.0,170.0,532.0,184.0,524.0,200.0,518.0" stroke="black" stroke-width="1" fill="none" />
<polyline points="196.0,524.0,168.0,540.0,140.0,556.0,112.0,586.0,112.0,602.0,102.0,622.0,80.0,638.0,60.0,654.0,66.0,648.0,82.0,638.0,98.0,624.0,104.0,620.0,120.0,608.0,136.0,596.0,154.0,574.0" stroke="black" stroke-width="1" fill="none" />
<polyline points="190.0,582.0,172.0,584.0,154.0,600.0,136.0,616.0,120.0,632.0,122.0,648.0,122.0,648.0,128.0,652.0,156.0,656.0,180.0,640.0,174.0,648.0,194.0,648.0,210.0,638.0,226.0,630.0,242.0,622.0,242.0,616.0,258.0,610.0,274.0,604.0,290.0,596.0,312.0,606.0" stroke="black" stroke-width="1" fill="none" />
<polyline points="212.0,530.0,196.0,524.0,180.0,534.0,164.0,542.0,148.0,552.0,130.0,572.0,104.0,570.0,88.0,580.0,78.0,576.0,84.0,560.0" stroke="black" stroke-width="1" fill="none" />
<polyline points="72.0,556.0,88.0,556.0,104.0,556.0,114.0,544.0,128.0,546.0" stroke="black" stroke-width="1" fill="none" />
<polyline points="192.0,518.0,162.0,534.0,148.0,542.0,162.0,550.0,168.0,564.0,184.0,562.0,200.0,550.0,216.0,538.0" stroke="black" stroke-width="1" fill="none" />
<polyline points="256.0,468.0,238.0,472.0,226.0,482.0,228.0,484.0,244.0,474.0,246.0,470.0,258.0,478.0,274.0,484.0,290.0,482.0,306.0,476.0,322.0,474.0,338.0,470.0,352.0,478.0,368.0,478.0,384.0,478.0" stroke="black" stroke-width="1" fill="none" />
<polyline points="394.0,448.0,384.0,470.0,368.0,468.0,352.0,474.0,336.0,478.0,320.0,480.0,304.0,484.0,288.0,488.0,272.0,492.0,256.0,496.0,240.0,498.0,224.0,502.0,208.0,506.0,192.0,510.0,176.0,514.0,160.0,518.0,144.0,522.0,128.0,526.0,112.0,528.0,96.0,532.0,80.0,536.0,64.0,540.0,48.0,544.0,32.0,548.0,16.0,550.0,0.0,556.0" stroke="black" stroke-width="1" fill="none" />
<polyline points="0.0,544.0,16.0,540.0,24.0,534.0,4.0,534.0,10.0,536.0,22.0,528.0,30.0,534.0,46.0,528.0,62.0,522.0,78.0,516.0,94.0,510.0,110.0,504.0,122.0,500.0,138.0,492.0,154.0,486.0,170.0,480.0,186.0,474.0,202.0,468.0,218.0,464.0,234.0,458.0,250.0,450.0,262.0,432.0,278.0,432.0,294.0,432.0,294.0,440.0" stroke="black" stroke-width="1" fill="none" />
<polyline points="254.0,448.0,216.0,458.0" stroke="black" stroke-width="1" fill="none" />
<polyline points="1188.0,976.0,1192.0,956.0,1208.0,940.0,1222.0,930.0,1238.0,914.0,1260.0,898.0,1266.0,882.0,1284.0,878.0,1304.0,862.0,1320.0,848.0,1340.0,832.0,1354.0,816.0,1362.0,814.0,1380.0,798.0,1374.0,782.0" stroke="black" stroke-width="1" fill="none" />
<polyline points="1288.0,768.0,1286.0,762.0,1294.0,740.0,1308.0,724.0,1324.0,708.0,1338.0,694.0,1356.0,674.0" stroke="black" stroke-width="1" fill="none" />
</svg>