<svg xmlns="http://www.w3.org/2000/svg" height="3800px" width="3800px" version="1.1"><polyline points="104.0,98.0,98.0,114.0,98.0,130.0,98.0,146.0,98.0,162.0,98.0,178.0,98.0,194.0,98.0,210.0,98.0,226.0,98.0,242.0,98.0,258.0,98.0,274.0,98.0,290.0,98.0,306.0,98.0,322.0,98.0,338.0,98.0,354.0,98.0,370.0,98.0,386.0,100.0,398.0,116.0,400.0,132.0,400.0,148.0,400.0,164.0,400.0,180.0,400.0,196.0,400.0,212.0,400.0,228.0,400.0,244.0,400.0,260.0,400.0,276.0,400.0,292.0,400.0,308.0,400.0,324.0,400.0,340.0,400.0,356.0,400.0,372.0,400.0,388.0,400.0,404.0,400.0,420.0,400.0,436.0,400.0,452.0,400.0,468.0,400.0,484.0,400.0,500.0,400.0,516.0,400.0,532.0,400.0,548.0,400.0,564.0,400.0,580.0,400.0,596.0,400.0,612.0,400.0,628.0,400.0,644.0,400.0,660.0,400.0,676.0,400.0,692.0,400.0,708.0,400.0,724.0,400.0,740.0,400.0,756.0,400.0,772.0,400.0,788.0,400.0,804.0,400.0,820.0,400.0,836.0,400.0,852.0,400.0,868.0,400.0,884.0,400.0,900.0,400.0,916.0,400.0,932.0,400.0,948.0,400.0,964.0,400.0,980.0,400.0,996.0,400.0,1012.0,400.0,1028.0,400.0,1044.0,400.0,1060.0,400.0,1076.0,400.0,1092.0,400.0,1108.0,400.0,1124.0,400.0,1140.0,400.0,1156.0,400.0,1172.0,400.0,1188.0,400.0,1204.0,400.0,1220.0,400.0,1236.0,400.0,1252.0,400.0,1268.0,400.0,1284.0,400.0,1300.0,400.0,1316.0,400.0,1332.0,400.0,1348.0,400.0,1364.0,400.0,1380.0,400.0,1396.0,400.0,1412.0,400.0,1428.0,400.0,1444.0,400.0,1460.0,400.0,1476.0,400.0,1492.0,400.0,1508.0,400.0,1524.0,400.0,1540.0,400.0,1556.0,400.0,1572.0,400.0,1588.0,400.0,1604.0,400.0,1620.0,400.0,1636.0,400.0,1652.0,400.0,1668.0,400.0,1684.0,400.0" stroke="black" stroke-width="1" fill="none" />
<polyline points="1694.0,386.0,1694.0,370.0,1694.0,354.0,1694.0,338.0,1694.0,322.0,1694.0,306.0,1694.0,290.0,1694.0,274.0,1694.0,258.0,1694.0,242.0,1694.0,226.0,1694.0,210.0,1694.0,194.0,1694.0,178.0,1694.0,162.0,1694.0,146.0,1694.0,130.0,1694.0,114.0,1688.0,104.0,1672.0,104.0,1656.0,104.0,1640.0,104.0,1624.0,104.0,1608.0,104.0,1592.0,104.0,1576.0,104.0,1560.0,104.0,1544.0,104.0,1528.0,104.0,1512.0,104.0,1496.0,104.0,1480.0,104.0,1464.0,104.0,1448.0,104.0,1432.0,104.0,1416.0,104.0,1400.0,104.0,1384.0,104.0,1368.0,104.0,1352.0,104.0,1336.0,104.0,1320.0,104.0,1304.0,104.0,1288.0,104.0,1272.0,104.0,1256.0,104.0,1240.0,104.0,1224.0,104.0,1208.0,104.0,1192.0,104.0,1176.0,104.0,1160.0,104.0,1144.0,104.0,1128.0,104.0,1112.0,104.0,1096.0,104.0,1080.0,104.0,1064.0,104.0,1048.0,104.0,1032.0,104.0,1016.0,104.0,1000.0,104.0,984.0,104.0,968.0,104.0,952.0,104.0,936.0,104.0,920.0,104.0,904.0,104.0,888.0,104.0,872.0,104.0,856.0,104.0,840.0,104.0,824.0,104.0,808.0,104.0,792.0,104.0,776.0,104.0,760.0,104.0,744.0,104.0,728.0,104.0,712.0,104.0,696.0,104.0,680.0,104.0,664.0,104.0,648.0,104.0,632.0,104.0,616.0,104.0,600.0,104.0,584.0,104.0,568.0,104.0,552.0,104.0,536.0,104.0,520.0,104.0,504.0,104.0,488.0,104.0,472.0,104.0,456.0,104.0,440.0,104.0,424.0,104.0,408.0,104.0,392.0,104.0,376.0,104.0,360.0,104.0,344.0,104.0,328.0,104.0,312.0,104.0,296.0,104.0,280.0,104.0,264.0,104.0,248.0,104.0,232.0,104.0,216.0,104.0,200.0,104.0,184.0,104.0,168.0,104.0,152.0,104.0,136.0,104.0,120.0,104.0,104.0,110.0" stroke="black" stroke-width="1" fill="none" />
<polyline points="110.0,104.0,104.0,120.0,104.0,136.0,104.0,152.0,104.0,168.0,104.0,184.0,104.0,200.0,104.0,216.0,104.0,232.0,104.0,248.0,104.0,264.0,104.0,280.0,104.0,296.0,104.0,312.0,104.0,328.0,104.0,344.0,104.0,360.0,104.0,376.0,106.0,392.0,118.0,394.0,134.0,394.0,150.0,394.0,166.0,394.0,182.0,394.0,198.0,394.0,214.0,394.0,230.0,394.0,246.0,394.0,262.0,394.0,278.0,394.0,294.0,394.0,310.0,394.0,326.0,394.0,342.0,394.0,358.0,394.0,374.0,394.0,390.0,394.0,406.0,394.0,422.0,394.0,438.0,394.0,454.0,394.0,470.0,394.0,486.0,394.0,502.0,394.0,518.0,394.0,534.0,394.0,550.0,394.0,566.0,394.0,582.0,394.0,598.0,394.0,614.0,394.0,630.0,394.0,646.0,394.0,662.0,394.0,678.0,394.0,694.0,394.0,710.0,394.0,726.0,394.0,742.0,394.0,758.0,394.0,774.0,394.0,790.0,394.0,806.0,394.0,822.0,394.0,838.0,394.0,854.0,394.0,870.0,394.0,886.0,394.0,902.0,394.0,918.0,394.0,934.0,394.0,950.0,394.0,966.0,394.0,982.0,394.0,998.0,394.0,1014.0,394.0,1030.0,394.0,1046.0,394.0,1062.0,394.0,1078.0,394.0,1094.0,394.0,1110.0,394.0,1126.0,394.0,1142.0,394.0,1158.0,394.0,1174.0,394.0,1190.0,394.0,1206.0,394.0,1222.0,394.0,1238.0,394.0,1254.0,394.0,1270.0,394.0,1286.0,394.0,1302.0,394.0,1318.0,394.0,1334.0,394.0,1350.0,394.0,1366.0,394.0,1382.0,394.0,1398.0,394.0,1414.0,394.0,1430.0,394.0,1446.0,394.0,1462.0,394.0,1478.0,394.0,1494.0,394.0,1510.0,394.0,1526.0,394.0,1542.0,394.0,1558.0,394.0,1574.0,394.0,1590.0,394.0,1606.0,394.0,1622.0,394.0,1638.0,394.0,1654.0,394.0,1670.0,394.0,1686.0,394.0" stroke="black" stroke-width="1" fill="none" />
<polyline points="1700.0,384.0,1700.0,368.0,1700.0,352.0,1700.0,336.0,1700.0,320.0,1700.0,304.0,1700.0,288.0,1700.0,272.0,1700.0,256.0,1700.0,240.0,1700.0,224.0,1700.0,208.0,1700.0,192.0,1700.0,176.0,1700.0,160.0,1700.0,144.0,1700.0,128.0,1700.0,112.0,1698.0,100.0,1682.0,98.0,1666.0,98.0,1650.0,98.0,1634.0,98.0,1618.0,98.0,1602.0,98.0,1586.0,98.0,1570.0,98.0,1554.0,98.0,1538.0,98.0,1522.0,98.0,1506.0,98.0,1490.0,98.0,1474.0,98.0,1458.0,98.0,1442.0,98.0,1426.0,98.0,1410.0,98.0,1394.0,98.0,1378.0,98.0,1362.0,98.0,1346.0,98.0,1330.0,98.0,1314.0,98.0,1298.0,98.0,1282.0,98.0,1266.0,98.0,1250.0,98.0,1234.0,98.0,1218.0,98.0,1202.0,98.0,1186.0,98.0,1170.0,98.0,1154.0,98.0,1138.0,98.0,1122.0,98.0,1106.0,98.0,1090.0,98.0,1074.0,98.0,1058.0,98.0,1042.0,98.0,1026.0,98.0,1010.0,98.0,994.0,98.0,978.0,98.0,962.0,98.0,946.0,98.0,930.0,98.0,914.0,98.0,898.0,98.0,882.0,98.0,866.0,98.0,850.0,98.0,834.0,98.0,818.0,98.0,802.0,98.0,786.0,98.0,770.0,98.0,754.0,98.0,738.0,98.0,722.0,98.0,706.0,98.0,690.0,98.0,674.0,98.0,658.0,98.0,642.0,98.0,626.0,98.0,610.0,98.0,594.0,98.0,578.0,98.0,562.0,98.0,546.0,98.0,530.0,98.0,514.0,98.0,498.0,98.0,482.0,98.0,466.0,98.0,450.0,98.0,434.0,98.0,418.0,98.0,402.0,98.0,386.0,98.0,370.0,98.0,354.0,98.0,338.0,98.0,322.0,98.0,306.0,98.0,290.0,98.0,274.0,98.0,258.0,98.0,242.0,98.0,226.0,98.0,210.0,98.0,194.0,98.0,178.0,98.0,162.0,98.0,146.0,98.0,130.0,98.0,114.0,98.0,98.0,104.0" stroke="black" stroke-width="1" fill="none" />
<polyline points="214.0,1396.0,230.0,1390.0,246.0,1382.0,262.0,1374.0,278.0,1368.0,294.0,1360.0,310.0,1354.0,326.0,1346.0,342.0,1340.0,358.0,1332.0,374.0,1326.0,390.0,1318.0,406.0,1310.0,422.0,1304.0,438.0,1296.0,454.0,1290.0,470.0,1282.0,486.0,1276.0,502.0,1268.0,518.0,1262.0,534.0,1254.0,550.0,1246.0,566.0,1240.0,582.0,1232.0,598.0,1226.0,614.0,1218.0,630.0,1212.0,646.0,1204.0,662.0,1198.0,678.0,1190.0,694.0,1182.0,710.0,1176.0,726.0,1168.0,742.0,1162.0,758.0,1154.0,774.0,1148.0,790.0,1140.0,806.0,1134.0,822.0,1126.0,838.0,1118.0,854.0,1112.0,870.0,1104.0,886.0,1098.0,902.0,1090.0,918.0,1084.0,934.0,1076.0,950.0,1070.0,966.0,1062.0,982.0,1054.0,998.0,1048.0,1014.0,1040.0,1030.0,1034.0,1046.0,1026.0,1062.0,1020.0,1078.0,1012.0,1094.0,1006.0,1110.0,998.0,1126.0,990.0,1142.0,984.0,1158.0,976.0,1174.0,970.0,1190.0,962.0,1206.0,956.0,1222.0,948.0,1238.0,942.0,1254.0,934.0,1270.0,926.0,1286.0,920.0,1302.0,912.0,1318.0,906.0,1334.0,898.0,1350.0,892.0,1366.0,884.0,1382.0,878.0,1398.0,870.0,1414.0,862.0,1430.0,856.0,1446.0,848.0,1462.0,842.0,1478.0,834.0,1494.0,828.0,1510.0,820.0,1526.0,814.0,1542.0,806.0,1558.0,798.0,1574.0,792.0,1590.0,784.0,1606.0,778.0,1622.0,770.0,1638.0,764.0,1654.0,756.0,1670.0,750.0,1686.0,742.0,1702.0,734.0,1718.0,728.0,1734.0,720.0,1750.0,714.0,1766.0,706.0,1782.0,700.0,1798.0,692.0,1814.0,686.0,1830.0,678.0,1846.0,670.0,1862.0,664.0,1878.0,656.0,1894.0,650.0,1910.0,642.0,1926.0,636.0,1942.0,628.0,1958.0,622.0,1974.0,614.0,1990.0,606.0,2006.0,606.0,2022.0,612.0,2038.0,620.0,2054.0,626.0,2070.0,634.0,2086.0,640.0,2102.0,648.0,2118.0,654.0,2134.0,662.0,2150.0,670.0,2166.0,676.0,2182.0,684.0,2198.0,690.0,2214.0,698.0,2230.0,704.0,2246.0,712.0,2262.0,718.0,2278.0,726.0,2294.0,734.0,2310.0,740.0,2326.0,748.0,2342.0,754.0,2358.0,762.0,2374.0,768.0,2390.0,776.0,2406.0,782.0,2422.0,790.0,2438.0,798.0,2454.0,804.0,2470.0,812.0,2486.0,818.0,2502.0,826.0,2518.0,832.0,2534.0,840.0,2550.0,846.0,2566.0,854.0,2582.0,862.0,2598.0,868.0,2614.0,876.0,2630.0,882.0,2646.0,890.0,2662.0,896.0,2678.0,904.0,2694.0,910.0,2710.0,918.0,2726.0,926.0,2742.0,932.0,2758.0,940.0,2774.0,946.0,2790.0,954.0,2806.0,960.0,2822.0,968.0,2838.0,974.0,2854.0,982.0,2870.0,990.0,2886.0,996.0,2902.0,1004.0,2918.0,1010.0,2934.0,1018.0,2950.0,1024.0,2966.0,1032.0,2982.0,1038.0,2998.0,1046.0,3014.0,1054.0,3030.0,1060.0,3046.0,1068.0,3062.0,1074.0,3078.0,1082.0,3094.0,1088.0,3110.0,1090.0,3126.0,1098.0,3142.0,1104.0,3158.0,1112.0,3174.0,1118.0,3190.0,1126.0,3206.0,1132.0,3222.0,1140.0,3238.0,1148.0,3254.0,1154.0,3270.0,1162.0,3286.0,1168.0,3302.0,1176.0,3318.0,1182.0,3334.0,1190.0,3350.0,1196.0,3366.0,1204.0,3382.0,1212.0,3398.0,1218.0,3414.0,1226.0,3430.0,1232.0,3446.0,1240.0,3462.0,1246.0,3478.0,1254.0,3494.0,1260.0,3510.0,1268.0,3526.0,1276.0,3542.0,1282.0,3558.0,1290.0,3574.0,1296.0,3590.0,1304.0,3606.0,1310.0,3622.0,1318.0,3638.0,1324.0,3654.0,1332.0,3670.0,1340.0,3686.0,1346.0,3702.0,1354.0,3718.0,1360.0,3734.0,1368.0,3750.0,1374.0,3766.0,1382.0,3782.0,1388.0,3798.0,1396.0" stroke="black" stroke-width="1" fill="none" />
<polyline points="3096.0,1080.0,3096.0,1064.0,3096.0,1048.0,3096.0,1032.0,3096.0,1016.0,3096.0,1000.0,3096.0,984.0,3096.0,968.0,3096.0,952.0,3096.0,936.0,3096.0,920.0,3096.0,904.0,3096.0,888.0,3096.0,872.0,3096.0,856.0,3096.0,840.0,3096.0,824.0,3096.0,808.0,3096.0,792.0,3096.0,776.0,3096.0,760.0,3096.0,744.0,3096.0,728.0,3096.0,712.0,3096.0,696.0,3096.0,680.0,3096.0,664.0,3096.0,648.0,3096.0,632.0,3096.0,616.0,3094.0,604.0,3078.0,602.0,3062.0,602.0,3046.0,602.0,3030.0,602.0,3014.0,602.0,2998.0,602.0,2982.0,602.0,2966.0,602.0,2950.0,602.0,2934.0,602.0,2918.0,602.0,2902.0,608.0" stroke="black" stroke-width="1" fill="none" />
<polyline points="2896.0,604.0,2912.0,596.0,2928.0,596.0,2944.0,596.0,2960.0,596.0,2976.0,596.0,2992.0,596.0,3008.0,596.0,3024.0,596.0,3040.0,596.0,3056.0,596.0,3072.0,596.0,3088.0,596.0,3098.0,598.0,3102.0,614.0,3102.0,630.0,3102.0,646.0,3102.0,662.0,3102.0,678.0,3102.0,694.0,3102.0,710.0,3102.0,726.0,3102.0,742.0,3102.0,758.0,3102.0,774.0,3102.0,790.0,3102.0,806.0,3102.0,822.0,3102.0,838.0,3102.0,854.0,3102.0,870.0,3102.0,886.0,3102.0,902.0,3102.0,918.0,3102.0,934.0,3102.0,950.0,3102.0,966.0,3102.0,982.0,3102.0,998.0,3102.0,1014.0,3102.0,1030.0,3102.0,1046.0,3102.0,1062.0,3102.0,1078.0,3116.0,1094.0,3152.0,1110.0,3188.0,1126.0,3224.0,1142.0,3260.0,1158.0,3296.0,1174.0,3332.0,1190.0,3368.0,1206.0,3404.0,1222.0,3440.0,1238.0,3476.0,1254.0,3512.0,1270.0,3548.0,1286.0,3584.0,1302.0,3620.0,1318.0,3656.0,1334.0,3692.0,1350.0,3728.0,1366.0,3764.0,1382.0,3792.0,1398.0,3800.0,1412.0,3800.0,1428.0,3800.0,1444.0,3800.0,1460.0,3800.0,1476.0,3800.0,1492.0,3800.0,1508.0,3800.0,1524.0,3800.0,1540.0,3800.0,1556.0,3800.0,1572.0,3800.0,1588.0,3800.0,1604.0,3800.0,1620.0,3800.0,1636.0,3800.0,1652.0,3800.0,1668.0,3800.0,1684.0,3800.0,1700.0,3800.0,1716.0,3800.0,1732.0,3800.0,1748.0,3800.0,1764.0,3800.0,1780.0,3800.0,1796.0,3800.0,1812.0,3800.0,1828.0,3800.0,1844.0,3800.0,1860.0,3800.0,1876.0,3800.0,1892.0,3800.0,1908.0,3800.0,1924.0,3800.0,1940.0,3800.0,1956.0,3800.0,1972.0,3800.0,1988.0,3800.0,2004.0,3800.0,2020.0,3800.0,2036.0,3800.0,2052.0,3800.0,2068.0,3800.0,2084.0,3800.0,2100.0,3800.0,2116.0,3800.0,2132.0,3800.0,2148.0,3800.0,2164.0,3800.0,2180.0,3800.0,2196.0,3800.0,2212.0,3800.0,2228.0,3800.0,2244.0,3800.0,2260.0,3800.0,2276.0,3800.0,2292.0,3800.0,2308.0,3800.0,2324.0,3800.0,2340.0,3800.0,2356.0,3800.0,2372.0,3800.0,2388.0,3800.0,2404.0,3800.0,2420.0,3800.0,2436.0,3800.0,2452.0,3800.0,2468.0,3800.0,2484.0,3800.0,2500.0,3800.0,2516.0,3800.0,2532.0,3800.0,2548.0,3800.0,2564.0,3800.0,2580.0,3800.0,2596.0,3800.0,2612.0,3800.0,2628.0,3800.0,2644.0,3800.0,2660.0,3800.0,2676.0,3800.0,2692.0,3800.0,2708.0,3800.0,2724.0,3800.0,2740.0,3800.0,2756.0,3800.0,2772.0,3800.0,2788.0,3800.0,2804.0,3800.0,2820.0,3800.0,2836.0,3800.0,2852.0,3800.0,2868.0,3800.0,2884.0,3800.0,2900.0,3800.0,2916.0,3800.0,2932.0,3800.0,2948.0,3800.0,2964.0,3800.0,2980.0,3800.0,2996.0,3800.0,3012.0,3800.0,3028.0,3800.0,3044.0,3800.0,3060.0,3800.0,3076.0,3800.0,3092.0,3800.0,3108.0,3800.0,3124.0,3800.0,3140.0,3800.0,3156.0,3800.0,3172.0,3800.0,3188.0,3800.0,3204.0,3800.0,3220.0,3800.0,3236.0,3800.0,3252.0,3800.0,3268.0,3800.0,3284.0,3800.0,3300.0,3800.0,3316.0,3800.0,3332.0,3800.0,3348.0,3800.0,3364.0,3800.0,3380.0,3800.0,3396.0,3800.0,3412.0,3800.0,3428.0,3800.0,3444.0,3800.0,3460.0,3800.0,3476.0,3800.0,3492.0,3800.0,3508.0,3800.0,3524.0,3800.0,3540.0,3800.0,3556.0,3800.0,3572.0,3800.0,3588.0,3800.0,3604.0,3800.0,3620.0,3800.0,3636.0,3800.0,3652.0,3800.0,3668.0,3800.0,3684.0,3800.0,3700.0,3800.0,3716.0,3800.0,3732.0,3800.0,3748.0,3800.0,3764.0,3800.0,3780.0,3800.0,3796.0" stroke="black" stroke-width="1" fill="none" />
<polyline points="3394.0,2642.0,3394.0,2626.0,3394.0,2610.0,3394.0,2594.0,3394.0,2578.0,3394.0,2562.0,3394.0,2546.0,3394.0,2530.0,3394.0,2514.0,3394.0,2498.0,3394.0,2482.0,3394.0,2466.0,3394.0,2450.0,3394.0,2434.0,3394.0,2418.0,3394.0,2402.0,3394.0,2386.0,3394.0,2370.0,3394.0,2354.0,3394.0,2338.0,3394.0,2322.0,3394.0,2306.0,3394.0,2290.0,3394.0,2274.0,3394.0,2258.0,3394.0,2242.0,3394.0,2226.0,3394.0,2210.0,3394.0,2194.0,3394.0,2178.0,3394.0,2162.0,3394.0,2146.0,3394.0,2130.0,3394.0,2114.0,3394.0,2098.0,3394.0,2082.0,3394.0,2066.0,3394.0,2050.0,3394.0,2034.0,3394.0,2018.0,3394.0,2002.0,3394.0,1986.0,3394.0,1970.0,3394.0,1954.0,3394.0,1938.0,3394.0,1922.0,3394.0,1906.0,3394.0,1890.0,3394.0,1874.0,3394.0,1858.0,3394.0,1842.0,3394.0,1826.0,3394.0,1810.0,3394.0,1794.0,3394.0,1778.0,3394.0,1762.0,3394.0,1746.0,3394.0,1730.0,3394.0,1714.0,3394.0,1698.0,3394.0,1682.0,3394.0,1666.0,3394.0,1650.0,3394.0,1634.0,3394.0,1618.0,3394.0,1602.0,3394.0,1586.0,3394.0,1570.0,3394.0,1554.0,3394.0,1538.0,3394.0,1522.0,3394.0,1506.0,3394.0,1490.0,3394.0,1474.0,3388.0,1464.0,3372.0,1464.0,3356.0,1464.0,3340.0,1464.0,3324.0,1464.0,3308.0,1464.0,3292.0,1464.0,3276.0,1464.0,3260.0,1464.0,3244.0,1464.0,3228.0,1464.0,3212.0,1464.0,3196.0,1464.0,3180.0,1464.0,3164.0,1464.0,3148.0,1464.0,3132.0,1464.0,3116.0,1464.0,3100.0,1464.0,3084.0,1464.0,3068.0,1464.0,3052.0,1464.0,3036.0,1464.0,3020.0,1464.0,3004.0,1464.0,2988.0,1464.0,2972.0,1464.0,2956.0,1464.0,2940.0,1464.0,2924.0,1464.0,2908.0,1464.0,2892.0,1464.0,2876.0,1464.0,2860.0,1464.0,2844.0,1464.0,2828.0,1464.0,2812.0,1464.0,2796.0,1464.0,2780.0,1464.0,2764.0,1464.0,2748.0,1464.0,2732.0,1464.0,2716.0,1464.0,2700.0,1464.0,2684.0,1464.0,2668.0,1464.0,2652.0,1464.0,2636.0,1464.0,2620.0,1464.0,2604.0,1464.0,2588.0,1464.0,2572.0,1464.0,2556.0,1464.0,2540.0,1464.0,2524.0,1464.0,2508.0,1464.0,2492.0,1464.0,2476.0,1464.0,2460.0,1464.0,2444.0,1464.0,2428.0,1464.0,2412.0,1464.0,2396.0,1464.0,2380.0,1464.0,2364.0,1464.0,2348.0,1464.0,2332.0,1464.0,2316.0,1464.0,2300.0,1464.0,2284.0,1464.0,2268.0,1464.0,2252.0,1464.0,2236.0,1464.0,2220.0,1464.0,2204.0,1470.0" stroke="black" stroke-width="1" fill="none" />
<polyline points="2210.0,1464.0,2204.0,1480.0,2204.0,1496.0,2204.0,1512.0,2204.0,1528.0,2204.0,1544.0,2204.0,1560.0,2204.0,1576.0,2204.0,1592.0,2204.0,1608.0,2204.0,1624.0,2204.0,1640.0,2204.0,1656.0,2204.0,1672.0,2204.0,1688.0,2204.0,1704.0,2204.0,1720.0,2204.0,1736.0,2204.0,1752.0,2204.0,1768.0,2204.0,1784.0,2204.0,1800.0,2204.0,1816.0,2204.0,1832.0,2204.0,1848.0,2204.0,1864.0,2204.0,1880.0,2204.0,1896.0,2204.0,1912.0,2204.0,1928.0,2204.0,1944.0,2204.0,1960.0,2204.0,1976.0,2204.0,1992.0,2204.0,2008.0,2204.0,2024.0,2204.0,2040.0,2204.0,2056.0,2204.0,2072.0,2204.0,2088.0,2204.0,2104.0,2204.0,2120.0,2204.0,2136.0,2204.0,2152.0,2204.0,2168.0,2204.0,2184.0,2204.0,2200.0,2204.0,2216.0,2204.0,2232.0,2204.0,2248.0,2204.0,2264.0,2204.0,2280.0,2204.0,2296.0,2204.0,2312.0,2204.0,2328.0,2204.0,2344.0,2204.0,2360.0,2204.0,2376.0,2204.0,2392.0,2204.0,2408.0,2204.0,2424.0,2204.0,2440.0,2204.0,2456.0,2204.0,2472.0,2204.0,2488.0,2204.0,2504.0,2204.0,2520.0,2204.0,2536.0,2204.0,2552.0,2204.0,2568.0,2204.0,2584.0,2204.0,2600.0,2204.0,2616.0,2204.0,2632.0,2204.0,2648.0,2214.0,2654.0,2230.0,2654.0,2246.0,2654.0,2262.0,2654.0,2278.0,2654.0,2294.0,2654.0,2310.0,2654.0,2326.0,2654.0,2342.0,2654.0,2358.0,2654.0,2374.0,2654.0,2390.0,2654.0,2406.0,2654.0,2422.0,2654.0,2438.0,2654.0,2454.0,2654.0,2470.0,2654.0,2486.0,2654.0,2502.0,2654.0,2518.0,2654.0,2534.0,2654.0,2550.0,2654.0,2566.0,2654.0,2582.0,2654.0,2598.0,2654.0,2614.0,2654.0,2630.0,2654.0,2646.0,2654.0,2662.0,2654.0,2678.0,2654.0,2694.0,2654.0,2710.0,2654.0,2726.0,2654.0,2742.0,2654.0,2758.0,2654.0,2774.0,2654.0,2790.0,2654.0,2806.0,2654.0,2822.0,2654.0,2838.0,2654.0,2854.0,2654.0,2870.0,2654.0,2886.0,2654.0,2902.0,2654.0,2918.0,2654.0,2934.0,2654.0,2950.0,2654.0,2966.0,2654.0,2982.0,2654.0,2998.0,2654.0,3014.0,2654.0,3030.0,2654.0,3046.0,2654.0,3062.0,2654.0,3078.0,2654.0,3094.0,2654.0,3110.0,2654.0,3126.0,2654.0,3142.0,2654.0,3158.0,2654.0,3174.0,2654.0,3190.0,2654.0,3206.0,2654.0,3222.0,2654.0,3238.0,2654.0,3254.0,2654.0,3270.0,2654.0,3286.0,2654.0,3302.0,2654.0,3318.0,2654.0,3334.0,2654.0,3350.0,2654.0,3366.0,2654.0,3382.0,2654.0" stroke="black" stroke-width="1" fill="none" />
<polyline points="3400.0,2656.0,3400.0,2640.0,3400.0,2624.0,3400.0,2608.0,3400.0,2592.0,3400.0,2576.0,3400.0,2560.0,3400.0,2544.0,3400.0,2528.0,3400.0,2512.0,3400.0,2496.0,3400.0,2480.0,3400.0,2464.0,3400.0,2448.0,3400.0,2432.0,3400.0,2416.0,3400.0,2400.0,3400.0,2384.0,3400.0,2368.0,3400.0,2352.0,3400.0,2336.0,3400.0,2320.0,3400.0,2304.0,3400.0,2288.0,3400.0,2272.0,3400.0,2256.0,3400.0,2240.0,3400.0,2224.0,3400.0,2208.0,3400.0,2192.0,3400.0,2176.0,3400.0,2160.0,3400.0,2144.0,3400.0,2128.0,3400.0,2112.0,3400.0,2096.0,3400.0,2080.0,3400.0,2064.0,3400.0,2048.0,3400.0,2032.0,3400.0,2016.0,3400.0,2000.0,3400.0,1984.0,3400.0,1968.0,3400.0,1952.0,3400.0,1936.0,3400.0,1920.0,3400.0,1904.0,3400.0,1888.0,3400.0,1872.0,3400.0,1856.0,3400.0,1840.0,3400.0,1824.0,3400.0,1808.0,3400.0,1792.0,3400.0,1776.0,3400.0,1760.0,3400.0,1744.0,3400.0,1728.0,3400.0,1712.0,3400.0,1696.0,3400.0,1680.0,3400.0,1664.0,3400.0,1648.0,3400.0,1632.0,3400.0,1616.0,3400.0,1600.0,3400.0,1584.0,3400.0,1568.0,3400.0,1552.0,3400.0,1536.0,3400.0,1520.0,3400.0,1504.0,3400.0,1488.0,3400.0,1472.0,3398.0,1460.0,3382.0,1458.0,3366.0,1458.0,3350.0,1458.0,3334.0,1458.0,3318.0,1458.0,3302.0,1458.0,3286.0,1458.0,3270.0,1458.0,3254.0,1458.0,3238.0,1458.0,3222.0,1458.0,3206.0,1458.0,3190.0,1458.0,3174.0,1458.0,3158.0,1458.0,3142.0,1458.0,3126.0,1458.0,3110.0,1458.0,3094.0,1458.0,3078.0,1458.0,3062.0,1458.0,3046.0,1458.0,3030.0,1458.0,3014.0,1458.0,2998.0,1458.0,2982.0,1458.0,2966.0,1458.0,2950.0,1458.0,2934.0,1458.0,2918.0,1458.0,2902.0,1458.0,2886.0,1458.0,2870.0,1458.0,2854.0,1458.0,2838.0,1458.0,2822.0,1458.0,2806.0,1458.0,2790.0,1458.0,2774.0,1458.0,2758.0,1458.0,2742.0,1458.0,2726.0,1458.0,2710.0,1458.0,2694.0,1458.0,2678.0,1458.0,2662.0,1458.0,2646.0,1458.0,2630.0,1458.0,2614.0,1458.0,2598.0,1458.0,2582.0,1458.0,2566.0,1458.0,2550.0,1458.0,2534.0,1458.0,2518.0,1458.0,2502.0,1458.0,2486.0,1458.0,2470.0,1458.0,2454.0,1458.0,2438.0,1458.0,2422.0,1458.0,2406.0,1458.0,2390.0,1458.0,2374.0,1458.0,2358.0,1458.0,2342.0,1458.0,2326.0,1458.0,2310.0,1458.0,2294.0,1458.0,2278.0,1458.0,2262.0,1458.0,2246.0,1458.0,2230.0,1458.0,2214.0,1458.0,2198.0,1464.0" stroke="black" stroke-width="1" fill="none" />
<polyline points="2204.0,1458.0,2198.0,1474.0,2198.0,1490.0,2198.0,1506.0,2198.0,1522.0,2198.0,1538.0,2198.0,1554.0,2198.0,1570.0,2198.0,1586.0,2198.0,1602.0,2198.0,1618.0,2198.0,1634.0,2198.0,1650.0,2198.0,1666.0,2198.0,1682.0,2198.0,1698.0,2198.0,1714.0,2198.0,1730.0,2198.0,1746.0,2198.0,1762.0,2198.0,1778.0,2198.0,1794.0,2198.0,1810.0,2198.0,1826.0,2198.0,1842.0,2198.0,1858.0,2198.0,1874.0,2198.0,1890.0,2198.0,1906.0,2198.0,1922.0,2198.0,1938.0,2198.0,1954.0,2198.0,1970.0,2198.0,1986.0,2198.0,2002.0,2198.0,2018.0,2198.0,2034.0,2198.0,2050.0,2198.0,2066.0,2198.0,2082.0,2198.0,2098.0,2198.0,2114.0,2198.0,2130.0,2198.0,2146.0,2198.0,2162.0,2198.0,2178.0,2198.0,2194.0,2198.0,2210.0,2198.0,2226.0,2198.0,2242.0,2198.0,2258.0,2198.0,2274.0,2198.0,2290.0,2198.0,2306.0,2198.0,2322.0,2198.0,2338.0,2198.0,2354.0,2198.0,2370.0,2198.0,2386.0,2198.0,2402.0,2198.0,2418.0,2198.0,2434.0,2198.0,2450.0,2198.0,2466.0,2198.0,2482.0,2198.0,2498.0,2198.0,2514.0,2198.0,2530.0,2198.0,2546.0,2198.0,2562.0,2198.0,2578.0,2198.0,2594.0,2198.0,2610.0,2198.0,2626.0,2198.0,2642.0,2200.0,2658.0,2212.0,2660.0,2228.0,2660.0,2244.0,2660.0,2260.0,2660.0,2276.0,2660.0,2292.0,2660.0,2308.0,2660.0,2324.0,2660.0,2340.0,2660.0,2356.0,2660.0,2372.0,2660.0,2388.0,2660.0,2404.0,2660.0,2420.0,2660.0,2436.0,2660.0,2452.0,2660.0,2468.0,2660.0,2484.0,2660.0,2500.0,2660.0,2516.0,2660.0,2532.0,2660.0,2548.0,2660.0,2564.0,2660.0,2580.0,2660.0,2596.0,2660.0,2612.0,2660.0,2628.0,2660.0,2644.0,2660.0,2660.0,2660.0,2676.0,2660.0,2692.0,2660.0,2708.0,2660.0,2724.0,2660.0,2740.0,2660.0,2756.0,2660.0,2772.0,2660.0,2788.0,2660.0,2804.0,2660.0,2820.0,2660.0,2836.0,2660.0,2852.0,2660.0,2868.0,2660.0,2884.0,2660.0,2900.0,2660.0,2916.0,2660.0,2932.0,2660.0,2948.0,2660.0,2964.0,2660.0,2980.0,2660.0,2996.0,2660.0,3012.0,2660.0,3028.0,2660.0,3044.0,2660.0,3060.0,2660.0,3076.0,2660.0,3092.0,2660.0,3108.0,2660.0,3124.0,2660.0,3140.0,2660.0,3156.0,2660.0,3172.0,2660.0,3188.0,2660.0,3204.0,2660.0,3220.0,2660.0,3236.0,2660.0,3252.0,2660.0,3268.0,2660.0,3284.0,2660.0,3300.0,2660.0,3316.0,2660.0,3332.0,2660.0,3348.0,2660.0,3364.0,2660.0,3380.0,2660.0,3396.0,2660.0" stroke="black" stroke-width="1" fill="none" />
<polyline points="3394.0,3642.0,3394.0,3626.0,3394.0,3610.0,3394.0,3594.0,3394.0,3578.0,3394.0,3562.0,3394.0,3546.0,3394.0,3530.0,3394.0,3514.0,3394.0,3498.0,3394.0,3482.0,3394.0,3466.0,3394.0,3450.0,3394.0,3434.0,3394.0,3418.0,3394.0,3402.0,3394.0,3386.0,3394.0,3370.0,3394.0,3354.0,3394.0,3338.0,3394.0,3322.0,3394.0,3306.0,3394.0,3290.0,3394.0,3274.0,3394.0,3258.0,3394.0,3242.0,3394.0,3226.0,3394.0,3210.0,3394.0,3194.0,3394.0,3178.0,3394.0,3162.0,3394.0,3146.0,3394.0,3130.0,3394.0,3114.0,3394.0,3098.0,3394.0,3082.0,3394.0,3066.0,3394.0,3050.0,3394.0,3034.0,3394.0,3018.0,3394.0,3002.0,3394.0,2986.0,3394.0,2970.0,3394.0,2954.0,3394.0,2938.0,3394.0,2922.0,3394.0,2906.0,3394.0,2890.0,3394.0,2874.0,3388.0,2864.0,3372.0,2864.0,3356.0,2864.0,3340.0,2864.0,3324.0,2864.0,3308.0,2864.0,3292.0,2864.0,3276.0,2864.0,3260.0,2864.0,3244.0,2864.0,3228.0,2864.0,3212.0,2864.0,3196.0,2864.0,3180.0,2864.0,3164.0,2864.0,3148.0,2864.0,3132.0,2864.0,3116.0,2864.0,3100.0,2864.0,3084.0,2864.0,3068.0,2864.0,3052.0,2864.0,3036.0,2864.0,3020.0,2864.0,3004.0,2864.0,2988.0,2864.0,2972.0,2864.0,2956.0,2864.0,2940.0,2864.0,2924.0,2864.0,2908.0,2864.0,2892.0,2864.0,2876.0,2864.0,2860.0,2864.0,2844.0,2864.0,2828.0,2864.0,2812.0,2864.0,2796.0,2864.0,2780.0,2864.0,2764.0,2864.0,2748.0,2864.0,2732.0,2864.0,2716.0,2864.0,2700.0,2864.0,2684.0,2864.0,2668.0,2864.0,2652.0,2864.0,2636.0,2864.0,2620.0,2864.0,2604.0,2864.0,2588.0,2864.0,2572.0,2864.0,2556.0,2864.0,2540.0,2864.0,2524.0,2864.0,2508.0,2864.0,2492.0,2864.0,2476.0,2864.0,2460.0,2864.0,2444.0,2864.0,2428.0,2864.0,2412.0,2864.0,2396.0,2864.0,2380.0,2864.0,2364.0,2864.0,2348.0,2864.0,2332.0,2864.0,2316.0,2864.0,2300.0,2864.0,2284.0,2864.0,2268.0,2864.0,2252.0,2864.0,2236.0,2864.0,2220.0,2864.0,2204.0,2864.0,2188.0,2864.0,2172.0,2864.0,2156.0,2864.0,2140.0,2864.0,2124.0,2864.0,2108.0,2864.0,2092.0,2864.0,2076.0,2864.0,2060.0,2864.0,2044.0,2864.0,2028.0,2864.0,2012.0,2864.0,1996.0,2864.0,1980.0,2864.0,1964.0,2864.0,1948.0,2864.0,1932.0,2864.0,1916.0,2864.0,1900.0,2864.0,1884.0,2864.0,1868.0,2864.0,1852.0,2864.0,1836.0,2864.0,1820.0,2864.0,1804.0,2870.0" stroke="black" stroke-width="1" fill="none" />
<polyline points="1810.0,2864.0,1804.0,2880.0,1804.0,2896.0,1804.0,2912.0,1804.0,2928.0,1804.0,2944.0,1804.0,2960.0,1804.0,2976.0,1804.0,2992.0,1804.0,3008.0,1804.0,3024.0,1804.0,3040.0,1804.0,3056.0,1804.0,3072.0,1804.0,3088.0,1804.0,3104.0,1804.0,3120.0,1804.0,3136.0,1804.0,3152.0,1804.0,3168.0,1804.0,3184.0,1804.0,3200.0,1804.0,3216.0,1804.0,3232.0,1804.0,3248.0,1804.0,3264.0,1804.0,3280.0,1804.0,3296.0,1804.0,3312.0,1804.0,3328.0,1804.0,3344.0,1804.0,3360.0,1804.0,3376.0,1804.0,3392.0,1804.0,3408.0,1804.0,3424.0,1804.0,3440.0,1804.0,3456.0,1804.0,3472.0,1804.0,3488.0,1804.0,3504.0,1804.0,3520.0,1804.0,3536.0,1804.0,3552.0,1804.0,3568.0,1804.0,3584.0,1804.0,3600.0,1804.0,3616.0,1804.0,3632.0,1804.0,3648.0,1814.0,3654.0,1830.0,3654.0,1846.0,3654.0,1862.0,3654.0,1878.0,3654.0,1894.0,3654.0,1910.0,3654.0,1926.0,3654.0,1942.0,3654.0,1958.0,3654.0,1974.0,3654.0,1990.0,3654.0,2006.0,3654.0,2022.0,3654.0,2038.0,3654.0,2054.0,3654.0,2070.0,3654.0,2086.0,3654.0,2102.0,3654.0,2118.0,3654.0,2134.0,3654.0,2150.0,3654.0,2166.0,3654.0,2182.0,3654.0,2198.0,3654.0,2214.0,3654.0,2230.0,3654.0,2246.0,3654.0,2262.0,3654.0,2278.0,3654.0,2294.0,3654.0,2310.0,3654.0,2326.0,3654.0,2342.0,3654.0,2358.0,3654.0,2374.0,3654.0,2390.0,3654.0,2406.0,3654.0,2422.0,3654.0,2438.0,3654.0,2454.0,3654.0,2470.0,3654.0,2486.0,3654.0,2502.0,3654.0,2518.0,3654.0,2534.0,3654.0,2550.0,3654.0,2566.0,3654.0,2582.0,3654.0,2598.0,3654.0,2614.0,3654.0,2630.0,3654.0,2646.0,3654.0,2662.0,3654.0,2678.0,3654.0,2694.0,3654.0,2710.0,3654.0,2726.0,3654.0,2742.0,3654.0,2758.0,3654.0,2774.0,3654.0,2790.0,3654.0,2806.0,3654.0,2822.0,3654.0,2838.0,3654.0,2854.0,3654.0,2870.0,3654.0,2886.0,3654.0,2902.0,3654.0,2918.0,3654.0,2934.0,3654.0,2950.0,3654.0,2966.0,3654.0,2982.0,3654.0,2998.0,3654.0,3014.0,3654.0,3030.0,3654.0,3046.0,3654.0,3062.0,3654.0,3078.0,3654.0,3094.0,3654.0,3110.0,3654.0,3126.0,3654.0,3142.0,3654.0,3158.0,3654.0,3174.0,3654.0,3190.0,3654.0,3206.0,3654.0,3222.0,3654.0,3238.0,3654.0,3254.0,3654.0,3270.0,3654.0,3286.0,3654.0,3302.0,3654.0,3318.0,3654.0,3334.0,3654.0,3350.0,3654.0,3366.0,3654.0,3382.0,3654.0" stroke="black" stroke-width="1" fill="none" />
<polyline points="3400.0,3656.0,3400.0,3640.0,3400.0,3624.0,3400.0,3608.0,3400.0,3592.0,3400.0,3576.0,3400.0,3560.0,3400.0,3544.0,3400.0,3528.0,3400.0,3512.0,3400.0,3496.0,3400.0,3480.0,3400.0,3464.0,3400.0,3448.0,3400.0,3432.0,3400.0,3416.0,3400.0,3400.0,3400.0,3384.0,3400.0,3368.0,3400.0,3352.0,3400.0,3336.0,3400.0,3320.0,3400.0,3304.0,3400.0,3288.0,3400.0,3272.0,3400.0,3256.0,3400.0,3240.0,3400.0,3224.0,3400.0,3208.0,3400.0,3192.0,3400.0,3176.0,3400.0,3160.0,3400.0,3144.0,3400.0,3128.0,3400.0,3112.0,3400.0,3096.0,3400.0,3080.0,3400.0,3064.0,3400.0,3048.0,3400.0,3032.0,3400.0,3016.0,3400.0,3000.0,3400.0,2984.0,3400.0,2968.0,3400.0,2952.0,3400.0,2936.0,3400.0,2920.0,3400.0,2904.0,3400.0,2888.0,3400.0,2872.0,3398.0,2860.0,3382.0,2858.0,3366.0,2858.0,3350.0,2858.0,3334.0,2858.0,3318.0,2858.0,3302.0,2858.0,3286.0,2858.0,3270.0,2858.0,3254.0,2858.0,3238.0,2858.0,3222.0,2858.0,3206.0,2858.0,3190.0,2858.0,3174.0,2858.0,3158.0,2858.0,3142.0,2858.0,3126.0,2858.0,3110.0,2858.0,3094.0,2858.0,3078.0,2858.0,3062.0,2858.0,3046.0,2858.0,3030.0,2858.0,3014.0,2858.0,2998.0,2858.0,2982.0,2858.0,2966.0,2858.0,2950.0,2858.0,2934.0,2858.0,2918.0,2858.0,2902.0,2858.0,2886.0,2858.0,2870.0,2858.0,2854.0,2858.0,2838.0,2858.0,2822.0,2858.0,2806.0,2858.0,2790.0,2858.0,2774.0,2858.0,2758.0,2858.0,2742.0,2858.0,2726.0,2858.0,2710.0,2858.0,2694.0,2858.0,2678.0,2858.0,2662.0,2858.0,2646.0,2858.0,2630.0,2858.0,2614.0,2858.0,2598.0,2858.0,2582.0,2858.0,2566.0,2858.0,2550.0,2858.0,2534.0,2858.0,2518.0,2858.0,2502.0,2858.0,2486.0,2858.0,2470.0,2858.0,2454.0,2858.0,2438.0,2858.0,2422.0,2858.0,2406.0,2858.0,2390.0,2858.0,2374.0,2858.0,2358.0,2858.0,2342.0,2858.0,2326.0,2858.0,2310.0,2858.0,2294.0,2858.0,2278.0,2858.0,2262.0,2858.0,2246.0,2858.0,2230.0,2858.0,2214.0,2858.0,2198.0,2858.0,2182.0,2858.0,2166.0,2858.0,2150.0,2858.0,2134.0,2858.0,2118.0,2858.0,2102.0,2858.0,2086.0,2858.0,2070.0,2858.0,2054.0,2858.0,2038.0,2858.0,2022.0,2858.0,2006.0,2858.0,1990.0,2858.0,1974.0,2858.0,1958.0,2858.0,1942.0,2858.0,1926.0,2858.0,1910.0,2858.0,1894.0,2858.0,1878.0,2858.0,1862.0,2858.0,1846.0,2858.0,1830.0,2858.0,1814.0,2858.0,1798.0,2864.0" stroke="black" stroke-width="1" fill="none" />
<polyline points="1804.0,2858.0,1798.0,2874.0,1798.0,2890.0,1798.0,2906.0,1798.0,2922.0,1798.0,2938.0,1798.0,2954.0,1798.0,2970.0,1798.0,2986.0,1798.0,3002.0,1798.0,3018.0,1798.0,3034.0,1798.0,3050.0,1798.0,3066.0,1798.0,3082.0,1798.0,3098.0,1798.0,3114.0,1798.0,3130.0,1798.0,3146.0,1798.0,3162.0,1798.0,3178.0,1798.0,3194.0,1798.0,3210.0,1798.0,3226.0,1798.0,3242.0,1798.0,3258.0,1798.0,3274.0,1798.0,3290.0,1798.0,3306.0,1798.0,3322.0,1798.0,3338.0,1798.0,3354.0,1798.0,3370.0,1798.0,3386.0,1798.0,3402.0,1798.0,3418.0,1798.0,3434.0,1798.0,3450.0,1798.0,3466.0,1798.0,3482.0,1798.0,3498.0,1798.0,3514.0,1798.0,3530.0,1798.0,3546.0,1798.0,3562.0,1798.0,3578.0,1798.0,3594.0,1798.0,3610.0,1798.0,3626.0,1798.0,3642.0,1800.0,3658.0,1812.0,3660.0,1828.0,3660.0,1844.0,3660.0,1860.0,3660.0,1876.0,3660.0,1892.0,3660.0,1908.0,3660.0,1924.0,3660.0,1940.0,3660.0,1956.0,3660.0,1972.0,3660.0,1988.0,3660.0,2004.0,3660.0,2020.0,3660.0,2036.0,3660.0,2052.0,3660.0,2068.0,3660.0,2084.0,3660.0,2100.0,3660.0,2116.0,3660.0,2132.0,3660.0,2148.0,3660.0,2164.0,3660.0,2180.0,3660.0,2196.0,3660.0,2212.0,3660.0,2228.0,3660.0,2244.0,3660.0,2260.0,3660.0,2276.0,3660.0,2292.0,3660.0,2308.0,3660.0,2324.0,3660.0,2340.0,3660.0,2356.0,3660.0,2372.0,3660.0,2388.0,3660.0,2404.0,3660.0,2420.0,3660.0,2436.0,3660.0,2452.0,3660.0,2468.0,3660.0,2484.0,3660.0,2500.0,3660.0,2516.0,3660.0,2532.0,3660.0,2548.0,3660.0,2564.0,3660.0,2580.0,3660.0,2596.0,3660.0,2612.0,3660.0,2628.0,3660.0,2644.0,3660.0,2660.0,3660.0,2676.0,3660.0,2692.0,3660.0,2708.0,3660.0,2724.0,3660.0,2740.0,3660.0,2756.0,3660.0,2772.0,3660.0,2788.0,3660.0,2804.0,3660.0,2820.0,3660.0,2836.0,3660.0,2852.0,3660.0,2868.0,3660.0,2884.0,3660.0,2900.0,3660.0,2916.0,3660.0,2932.0,3660.0,2948.0,3660.0,2964.0,3660.0,2980.0,3660.0,2996.0,3660.0,3012.0,3660.0,3028.0,3660.0,3044.0,3660.0,3060.0,3660.0,3076.0,3660.0,3092.0,3660.0,3108.0,3660.0,3124.0,3660.0,3140.0,3660.0,3156.0,3660.0,3172.0,3660.0,3188.0,3660.0,3204.0,3660.0,3220.0,3660.0,3236.0,3660.0,3252.0,3660.0,3268.0,3660.0,3284.0,3660.0,3300.0,3660.0,3316.0,3660.0,3332.0,3660.0,3348.0,3660.0,3364.0,3660.0,3380.0,3660.0,3396.0,3660.0" stroke="black" stroke-width="1" fill="none" />
<polyline points="1208.0,3324.0,1192.0,3324.0,1176.0,3304.0" stroke="black" stroke-width="1" fill="none" />
<polyline points="1172.0,3312.0,1188.0,3328.0,1204.0,3330.0,1220.0,3322.0" stroke="black" stroke-width="1" fill="none" />
<polyline points="1210.0,3278.0,1194.0,3276.0,1178.0,3286.0" stroke="black" stroke-width="1" fill="none" />
<polyline points="1170.0,3290.0,1186.0,3272.0,1202.0,3268.0,1218.0,3274.0" stroke="black" stroke-width="1" fill="none" />
<polyline points="1212.0,3272.0,1228.0,3288.0,1230.0,3304.0,1222.0,3320.0" stroke="black" stroke-width="1" fill="none" />
<polyline points="1178.0,3310.0,1176.0,3294.0,1186.0,3278.0" stroke="black" stroke-width="1" fill="none" />
<polyline points="1190.0,3270.0,1172.0,3286.0,1168.0,3302.0,1174.0,3318.0" stroke="black" stroke-width="1" fill="none" />
<polyline points="1224.0,3308.0,1224.0,3292.0,1204.0,3276.0" stroke="black" stroke-width="1" fill="none" />
<polyline points="1208.0,2562.0,1224.0,2580.0,1240.0,2588.0,1256.0,2590.0,1272.0,2588.0,1288.0,2584.0,1304.0,2576.0,1320.0,2562.0" stroke="black" stroke-width="1" fill="none" />
<polyline points="1320.0,2554.0,1304.0,2538.0,1300.0,2538.0,1316.0,2520.0" stroke="black" stroke-width="1" fill="none" />
<polyline points="1316.0,2484.0,1300.0,2468.0,1298.0,2464.0,1314.0,2444.0" stroke="black" stroke-width="1" fill="none" />
<polyline points="1288.0,2484.0,1272.0,2472.0" stroke="black" stroke-width="1" fill="none" />
<polyline points="1270.0,2464.0,1286.0,2450.0" stroke="black" stroke-width="1" fill="none" />
<polyline points="1232.0,2460.0,1216.0,2456.0,1214.0,2452.0,1208.0,2436.0,1196.0,2420.0" stroke="black" stroke-width="1" fill="none" />
<polyline points="1202.0,2424.0,1186.0,2418.0,1170.0,2426.0,1154.0,2448.0" stroke="black" stroke-width="1" fill="none" />
<polyline points="1136.0,2440.0,1152.0,2416.0,1168.0,2404.0,1184.0,2400.0,1200.0,2396.0" stroke="black" stroke-width="1" fill="none" />
<polyline points="1176.0,2400.0,1152.0,2416.0,1140.0,2432.0,1134.0,2448.0,1130.0,2464.0,1130.0,2480.0,1134.0,2496.0,1142.0,2512.0,1156.0,2528.0" stroke="black" stroke-width="1" fill="none" />
<polyline points="1134.0,2494.0,1150.0,2520.0,1166.0,2534.0,1182.0,2538.0,1198.0,2538.0,1214.0,2530.0,1208.0,2544.0,1206.0,2560.0,1216.0,2576.0" stroke="black" stroke-width="1" fill="none" />
<polyline points="1228.0,2560.0,1244.0,2570.0,1260.0,2572.0,1276.0,2570.0,1292.0,2562.0" stroke="black" stroke-width="1" fill="none" />
<polyline points="1290.0,2550.0,1274.0,2542.0,1258.0,2540.0,1242.0,2538.0,1226.0,2548.0" stroke="black" stroke-width="1" fill="none" />
<polyline points="1238.0,2538.0,1226.0,2554.0,1242.0,2570.0" stroke="black" stroke-width="1" fill="none" />
<polyline points="1276.0,2544.0,1296.0,2560.0" stroke="black" stroke-width="1" fill="none" />
<polyline points="1296.0,2510.0,1298.0,2494.0,1276.0,2478.0,1272.0,2462.0,1290.0,2446.0,1300.0,2430.0,1304.0,2414.0,1304.0,2402.0,1288.0,2398.0,1272.0,2398.0,1256.0,2402.0,1240.0,2408.0,1224.0,2418.0" stroke="black" stroke-width="1" fill="none" />
<polyline points="1234.0,2448.0,1228.0,2432.0,1226.0,2416.0,1258.0,2400.0" stroke="black" stroke-width="1" fill="none" />
<polyline points="1258.0,2386.0,1226.0,2402.0" stroke="black" stroke-width="1" fill="none" />
<polyline points="1182.0,2418.0,1164.0,2434.0,1154.0,2450.0,1150.0,2466.0,1150.0,2482.0,1156.0,2498.0,1168.0,2514.0" stroke="black" stroke-width="1" fill="none" />
<polyline points="1152.0,2486.0,1168.0,2512.0,1184.0,2520.0,1200.0,2516.0,1216.0,2496.0,1232.0,2494.0,1248.0,2512.0,1264.0,2522.0,1280.0,2522.0,1296.0,2510.0" stroke="black" stroke-width="1" fill="none" />
<polyline points="1242.0,2510.0,1230.0,2494.0" stroke="black" stroke-width="1" fill="none" />
<polyline points="1220.0,2492.0,1208.0,2508.0" stroke="black" stroke-width="1" fill="none" />
<polyline points="1070.0,2582.0,1054.0,2558.0,1038.0,2556.0" stroke="black" stroke-width="1" fill="none" />
<polyline points="1038.0,2528.0,1054.0,2522.0,1070.0,2514.0" stroke="black" stroke-width="1" fill="none" />
<polyline points="1050.0,2506.0,1034.0,2504.0,1018.0,2512.0" stroke="black" stroke-width="1" fill="none" />
<polyline points="1024.0,2502.0,1018.0,2518.0,1020.0,2534.0,1014.0,2550.0" stroke="black" stroke-width="1" fill="none" />
<polyline points="1004.0,2556.0,988.0,2556.0,972.0,2534.0,956.0,2526.0,940.0,2544.0,924.0,2558.0,908.0,2560.0,892.0,2548.0" stroke="black" stroke-width="1" fill="none" />
<polyline points="890.0,2534.0,906.0,2518.0,922.0,2508.0" stroke="black" stroke-width="1" fill="none" />
<polyline points="918.0,2488.0,902.0,2466.0" stroke="black" stroke-width="1" fill="none" />
<polyline points="900.0,2456.0,916.0,2434.0,932.0,2428.0,948.0,2430.0,964.0,2440.0" stroke="black" stroke-width="1" fill="none" />
<polyline points="986.0,2428.0,962.0,2420.0,946.0,2412.0,930.0,2412.0,914.0,2416.0,898.0,2426.0,882.0,2448.0" stroke="black" stroke-width="1" fill="none" />
<polyline points="884.0,2472.0,900.0,2496.0" stroke="black" stroke-width="1" fill="none" />
<polyline points="888.0,2508.0,872.0,2530.0" stroke="black" stroke-width="1" fill="none" />
<polyline points="874.0,2554.0,890.0,2572.0,906.0,2580.0,922.0,2578.0,938.0,2570.0,954.0,2560.0,936.0,2572.0" stroke="black" stroke-width="1" fill="none" />
<polyline points="946.0,2572.0,948.0,2570.0,958.0,2586.0,966.0,2602.0" stroke="black" stroke-width="1" fill="none" />
<polyline points="978.0,2586.0,994.0,2600.0,1010.0,2602.0,1026.0,2600.0,1042.0,2592.0,1040.0,2592.0,1048.0,2576.0,1038.0,2572.0,1022.0,2572.0,1006.0,2578.0,990.0,2576.0,974.0,2576.0" stroke="black" stroke-width="1" fill="none" />
<polyline points="982.0,2572.0,978.0,2588.0" stroke="black" stroke-width="1" fill="none" />
<polyline points="948.0,2576.0,964.0,2598.0,980.0,2612.0,996.0,2618.0,1012.0,2620.0,1028.0,2616.0,1044.0,2610.0,1060.0,2598.0" stroke="black" stroke-width="1" fill="none" />
<polyline points="1054.0,2602.0,1070.0,2586.0,1064.0,2570.0,1036.0,2554.0,1038.0,2538.0,1040.0,2522.0" stroke="black" stroke-width="1" fill="none" />
<polyline points="976.0,2544.0,966.0,2528.0" stroke="black" stroke-width="1" fill="none" />
<polyline points="954.0,2526.0,942.0,2542.0,922.0,2558.0" stroke="black" stroke-width="1" fill="none" />
<polyline points="900.0,2558.0,890.0,2542.0,896.0,2526.0,920.0,2510.0,922.0,2494.0,906.0,2478.0,900.0,2462.0,904.0,2446.0,924.0,2430.0" stroke="black" stroke-width="1" fill="none" />
<polyline points="918.0,2414.0,892.0,2430.0,884.0,2446.0,882.0,2462.0,886.0,2478.0,896.0,2494.0,886.0,2510.0,874.0,2526.0,872.0,2542.0,874.0,2558.0,890.0,2574.0" stroke="black" stroke-width="1" fill="none" />
<polyline points="972.0,2446.0,972.0,2430.0,948.0,2414.0" stroke="black" stroke-width="1" fill="none" />
<polyline points="1014.0,2440.0,1018.0,2424.0,1030.0,2408.0" stroke="black" stroke-width="1" fill="none" />
<polyline points="1036.0,2410.0,1052.0,2426.0,1058.0,2442.0,1064.0,2458.0,1066.0,2474.0,1066.0,2490.0" stroke="black" stroke-width="1" fill="none" />
<polyline points="1074.0,2430.0,1058.0,2402.0,1042.0,2392.0,1026.0,2390.0,1010.0,2402.0,1004.0,2398.0,1006.0,2382.0,1006.0,2366.0,1004.0,2350.0,1004.0,2334.0,1004.0,2318.0,1002.0,2302.0,1002.0,2286.0,1002.0,2270.0,1004.0,2254.0,1006.0,2238.0,1012.0,2222.0,986.0,2208.0,970.0,2194.0,954.0,2166.0" stroke="black" stroke-width="1" fill="none" />
<polyline points="972.0,2164.0,988.0,2186.0,1004.0,2196.0,1020.0,2202.0,1036.0,2206.0,1052.0,2208.0,1068.0,2210.0,1084.0,2212.0,1100.0,2212.0,1116.0,2212.0,1132.0,2212.0,1148.0,2208.0,1164.0,2206.0,1180.0,2200.0,1196.0,2194.0,1212.0,2184.0,1228.0,2176.0,1244.0,2166.0,1260.0,2152.0,1276.0,2138.0,1292.0,2118.0" stroke="black" stroke-width="1" fill="none" />
<polyline points="1310.0,2080.0,1294.0,2064.0" stroke="black" stroke-width="1" fill="none" />
<polyline points="1278.0,2050.0,1280.0,2034.0,1282.0,2018.0,1282.0,2002.0,1284.0,1986.0,1284.0,1970.0,1286.0,1954.0,1290.0,1938.0,1286.0,1946.0" stroke="black" stroke-width="1" fill="none" />
<polyline points="1296.0,1940.0,1300.0,1956.0,1300.0,1972.0,1300.0,1988.0,1300.0,2004.0,1300.0,2020.0,1300.0,2036.0,1298.0,2052.0,1296.0,2068.0,1312.0,2084.0,1318.0,2100.0,1316.0,2116.0,1308.0,2132.0,1296.0,2148.0,1278.0,2164.0,1258.0,2180.0,1232.0,2196.0,1206.0,2212.0,1208.0,2228.0,1210.0,2244.0,1212.0,2260.0,1214.0,2276.0,1216.0,2292.0,1216.0,2308.0,1218.0,2324.0,1220.0,2340.0,1220.0,2356.0,1220.0,2372.0,1220.0,2388.0,1224.0,2404.0,1236.0,2394.0,1252.0,2388.0,1268.0,2384.0,1284.0,2384.0,1300.0,2384.0,1316.0,2386.0,1320.0,2388.0,1328.0,2404.0,1322.0,2420.0,1318.0,2436.0,1310.0,2452.0,1300.0,2468.0,1314.0,2484.0,1322.0,2500.0,1320.0,2516.0,1302.0,2532.0,1314.0,2548.0,1320.0,2564.0,1296.0,2580.0" stroke="black" stroke-width="1" fill="none" />
<polyline points="1060.0,2520.0,1078.0,2504.0,1084.0,2488.0,1084.0,2472.0,1082.0,2456.0,1076.0,2440.0,1070.0,2424.0,1062.0,2408.0,1042.0,2392.0" stroke="black" stroke-width="1" fill="none" />
<polyline points="1016.0,2222.0,1032.0,2226.0,1048.0,2230.0,1064.0,2232.0,1080.0,2234.0,1096.0,2234.0,1112.0,2232.0,1128.0,2232.0,1144.0,2228.0,1160.0,2226.0,1176.0,2220.0,1192.0,2218.0,1190.0,2218.0,1192.0,2234.0,1194.0,2250.0,1194.0,2266.0,1196.0,2282.0,1196.0,2298.0,1198.0,2314.0,1198.0,2330.0,1200.0,2346.0,1200.0,2362.0,1200.0,2378.0,1202.0,2394.0" stroke="black" stroke-width="1" fill="none" />
<polyline points="1206.0,2210.0,1222.0,2202.0,1238.0,2192.0,1254.0,2182.0,1270.0,2172.0,1286.0,2158.0,1302.0,2140.0" stroke="black" stroke-width="1" fill="none" />
<polyline points="1292.0,2090.0,1276.0,2080.0,1260.0,2072.0,1244.0,2066.0,1228.0,2062.0,1212.0,2058.0,1196.0,2054.0,1180.0,2052.0,1164.0,2050.0,1148.0,2050.0,1132.0,2050.0,1116.0,2050.0,1100.0,2052.0,1084.0,2054.0,1068.0,2058.0,1052.0,2062.0,1036.0,2066.0,1020.0,2074.0,1004.0,2084.0,988.0,2100.0,972.0,2130.0" stroke="black" stroke-width="1" fill="none" />
<polyline points="928.0,2114.0,912.0,2116.0,896.0,2114.0,880.0,2110.0,864.0,2104.0,848.0,2098.0,832.0,2090.0,816.0,2080.0" stroke="black" stroke-width="1" fill="none" />
<polyline points="814.0,2074.0,830.0,2070.0,846.0,2078.0,862.0,2086.0,878.0,2092.0,894.0,2096.0,910.0,2100.0,926.0,2102.0,942.0,2106.0,966.0,2096.0,982.0,2076.0,998.0,2066.0,1014.0,2056.0,1030.0,2050.0,1046.0,2044.0,1062.0,2040.0,1078.0,2038.0,1094.0,2036.0,1110.0,2032.0,1126.0,2032.0,1142.0,2032.0,1158.0,2032.0,1174.0,2034.0,1190.0,2036.0,1206.0,2038.0,1222.0,2042.0,1238.0,2046.0,1254.0,2054.0,1270.0,2058.0" stroke="black" stroke-width="1" fill="none" />
<polyline points="1242.0,2066.0,1278.0,2082.0,1296.0,2098.0,1294.0,2114.0,1284.0,2130.0,1268.0,2146.0,1248.0,2162.0,1224.0,2178.0,1192.0,2194.0" stroke="black" stroke-width="1" fill="none" />
<polyline points="994.0,2192.0,976.0,2176.0,970.0,2160.0,970.0,2144.0,974.0,2128.0,980.0,2112.0,992.0,2096.0,1008.0,2080.0,1040.0,2064.0" stroke="black" stroke-width="1" fill="none" />
<polyline points="1046.0,2044.0,1006.0,2060.0,982.0,2076.0,968.0,2092.0,958.0,2108.0,954.0,2124.0,950.0,2140.0,950.0,2156.0,956.0,2172.0,964.0,2188.0,978.0,2204.0,1000.0,2220.0,992.0,2236.0,988.0,2252.0,986.0,2268.0,984.0,2284.0,984.0,2300.0,984.0,2316.0,984.0,2332.0,986.0,2348.0,986.0,2364.0,986.0,2380.0,986.0,2396.0,986.0,2412.0,984.0,2428.0,992.0,2444.0,996.0,2454.0,1012.0,2442.0,1028.0,2410.0,1044.0,2414.0,1060.0,2444.0" stroke="black" stroke-width="1" fill="none" />
<polyline points="784.0,2120.0,768.0,2122.0,752.0,2116.0,736.0,2090.0" stroke="black" stroke-width="1" fill="none" />
<polyline points="752.0,2082.0,768.0,2106.0" stroke="black" stroke-width="1" fill="none" />
<polyline points="780.0,2058.0,796.0,2046.0,812.0,2040.0,828.0,2026.0" stroke="black" stroke-width="1" fill="none" />
<polyline points="848.0,2030.0,832.0,2046.0,816.0,2058.0,800.0,2064.0" stroke="black" stroke-width="1" fill="none" />
<polyline points="824.0,2068.0,818.0,2084.0,850.0,2100.0" stroke="black" stroke-width="1" fill="none" />
<polyline points="860.0,2086.0,826.0,2070.0" stroke="black" stroke-width="1" fill="none" />
<polyline points="766.0,2106.0,754.0,2090.0,750.0,2074.0,746.0,2058.0" stroke="black" stroke-width="1" fill="none" />
<polyline points="740.0,2024.0,724.0,2018.0,708.0,2022.0,692.0,2046.0" stroke="black" stroke-width="1" fill="none" />
<polyline points="678.0,2038.0,694.0,2016.0,710.0,2006.0" stroke="black" stroke-width="1" fill="none" />
<polyline points="710.0,1960.0,726.0,1934.0,742.0,1922.0,758.0,1918.0,774.0,1920.0,790.0,1928.0" stroke="black" stroke-width="1" fill="none" />
<polyline points="774.0,1920.0,794.0,1936.0,802.0,1952.0,810.0,1958.0,826.0,1954.0,842.0,1956.0,858.0,1968.0" stroke="black" stroke-width="1" fill="none" />
<polyline points="840.0,1956.0,858.0,1972.0,864.0,1988.0,862.0,2004.0,854.0,2020.0,844.0,2036.0,824.0,2052.0,800.0,2068.0,800.0,2084.0,798.0,2100.0,788.0,2116.0" stroke="black" stroke-width="1" fill="none" />
<polyline points="748.0,2114.0,738.0,2098.0,734.0,2082.0,726.0,2078.0,710.0,2080.0,694.0,2080.0,678.0,2068.0" stroke="black" stroke-width="1" fill="none" />
<polyline points="728.0,1962.0,744.0,1942.0,760.0,1936.0,776.0,1940.0" stroke="black" stroke-width="1" fill="none" />
<polyline points="770.0,1938.0,784.0,1954.0,786.0,1970.0,792.0,1980.0,808.0,1976.0,824.0,1972.0,840.0,1976.0" stroke="black" stroke-width="1" fill="none" />
<polyline points="834.0,1974.0,844.0,1990.0,842.0,2006.0,832.0,2022.0,814.0,2038.0,782.0,2054.0,782.0,2070.0,782.0,2086.0,776.0,2102.0" stroke="black" stroke-width="1" fill="none" />
<polyline points="744.0,2056.0,728.0,2060.0,712.0,2064.0,696.0,2062.0,692.0,2052.0,696.0,2036.0,710.0,2020.0,698.0,2006.0,682.0,1990.0,666.0,1966.0,650.0,1924.0" stroke="black" stroke-width="1" fill="none" />
<polyline points="642.0,1888.0,658.0,1898.0,674.0,1938.0,690.0,1972.0,706.0,1992.0" stroke="black" stroke-width="1" fill="none" />
<polyline points="742.0,2016.0,732.0,2000.0,728.0,1984.0,728.0,1968.0,734.0,1952.0,754.0,1936.0" stroke="black" stroke-width="1" fill="none" />
<polyline points="752.0,1918.0,726.0,1934.0,714.0,1950.0,710.0,1966.0,708.0,1982.0,714.0,1996.0,700.0,2012.0,684.0,2028.0,678.0,2044.0,676.0,2060.0,684.0,2076.0" stroke="black" stroke-width="1" fill="none" />
<polyline points="708.0,1998.0,696.0,1982.0,686.0,1966.0,678.0,1950.0,672.0,1934.0,666.0,1918.0,658.0,1902.0,650.0,1886.0" stroke="black" stroke-width="1" fill="none" />
<polyline points="644.0,1884.0,644.0,1900.0,648.0,1916.0,652.0,1932.0,658.0,1948.0,664.0,1964.0,672.0,1980.0,684.0,1996.0" stroke="black" stroke-width="1" fill="none" />
<polyline points="1104.0,1852.0,1120.0,1882.0,1136.0,1900.0,1152.0,1912.0,1168.0,1918.0,1184.0,1924.0,1200.0,1924.0,1216.0,1922.0,1232.0,1914.0,1248.0,1904.0,1264.0,1886.0,1274.0,1868.0,1266.0,1884.0,1252.0,1900.0,1228.0,1916.0" stroke="black" stroke-width="1" fill="none" />
<polyline points="1290.0,1898.0,1306.0,1932.0,1322.0,1948.0,1338.0,1958.0,1354.0,1964.0,1370.0,1966.0,1386.0,1968.0,1402.0,1968.0,1418.0,1964.0,1434.0,1960.0,1450.0,1954.0,1466.0,1946.0,1482.0,1936.0,1498.0,1920.0" stroke="black" stroke-width="1" fill="none" />
<polyline points="1504.0,1866.0,1520.0,1862.0,1536.0,1854.0,1552.0,1844.0,1568.0,1828.0,1584.0,1800.0" stroke="black" stroke-width="1" fill="none" />
<polyline points="1554.0,1808.0,1538.0,1826.0,1522.0,1838.0,1506.0,1846.0,1490.0,1850.0,1474.0,1856.0,1478.0,1852.0,1476.0,1868.0,1488.0,1884.0,1488.0,1900.0,1476.0,1916.0,1450.0,1932.0" stroke="black" stroke-width="1" fill="none" />
<polyline points="1486.0,1904.0,1470.0,1922.0,1454.0,1930.0,1438.0,1938.0,1422.0,1944.0,1406.0,1946.0,1390.0,1948.0,1374.0,1948.0,1358.0,1946.0,1342.0,1938.0,1326.0,1924.0,1310.0,1892.0" stroke="black" stroke-width="1" fill="none" />
<polyline points="1288.0,1838.0,1304.0,1828.0,1290.0,1834.0,1286.0,1850.0,1286.0,1866.0,1286.0,1882.0,1290.0,1898.0,1294.0,1914.0,1304.0,1930.0,1318.0,1946.0,1346.0,1962.0" stroke="black" stroke-width="1" fill="none" />
<polyline points="1344.0,1940.0,1324.0,1924.0,1314.0,1908.0,1310.0,1892.0,1308.0,1876.0,1306.0,1860.0,1308.0,1844.0,1302.0,1828.0" stroke="black" stroke-width="1" fill="none" />
<polyline points="1174.0,1762.0,1158.0,1768.0,1142.0,1780.0,1126.0,1802.0" stroke="black" stroke-width="1" fill="none" />
<polyline points="1102.0,1806.0,1118.0,1776.0,1134.0,1760.0" stroke="black" stroke-width="1" fill="none" />
<polyline points="1118.0,1706.0,1134.0,1728.0,1150.0,1736.0,1166.0,1740.0,1182.0,1742.0,1186.0,1752.0,1158.0,1768.0,1138.0,1784.0,1128.0,1800.0,1122.0,1816.0,1122.0,1832.0,1126.0,1848.0,1132.0,1864.0,1144.0,1880.0,1162.0,1896.0" stroke="black" stroke-width="1" fill="none" />
<polyline points="1208.0,1900.0,1236.0,1884.0,1252.0,1868.0,1268.0,1860.0,1252.0,1868.0,1236.0,1884.0,1220.0,1894.0,1204.0,1902.0,1188.0,1904.0,1172.0,1900.0,1156.0,1890.0,1140.0,1872.0,1124.0,1842.0" stroke="black" stroke-width="1" fill="none" />
<polyline points="1130.0,1752.0,1114.0,1740.0,1098.0,1714.0" stroke="black" stroke-width="1" fill="none" />
<polyline points="1120.0,1660.0,1136.0,1622.0,1152.0,1598.0,1168.0,1580.0,1184.0,1566.0,1200.0,1554.0,1216.0,1548.0,1232.0,1542.0,1248.0,1542.0,1264.0,1544.0,1280.0,1554.0,1296.0,1572.0,1312.0,1602.0,1328.0,1622.0" stroke="black" stroke-width="1" fill="none" />
<polyline points="1340.0,1596.0,1356.0,1560.0,1372.0,1538.0,1388.0,1526.0,1404.0,1522.0,1420.0,1522.0,1436.0,1526.0,1452.0,1532.0,1468.0,1544.0,1484.0,1562.0,1500.0,1594.0" stroke="black" stroke-width="1" fill="none" />
<polyline points="1502.0,1556.0,1486.0,1536.0,1470.0,1522.0,1454.0,1512.0,1438.0,1504.0,1422.0,1500.0,1406.0,1500.0,1390.0,1504.0,1374.0,1512.0,1358.0,1526.0,1342.0,1546.0,1326.0,1578.0,1310.0,1558.0,1294.0,1540.0,1278.0,1528.0,1262.0,1524.0,1246.0,1520.0,1230.0,1522.0,1214.0,1526.0,1198.0,1532.0,1182.0,1540.0,1166.0,1552.0,1150.0,1568.0,1134.0,1586.0,1118.0,1610.0,1102.0,1644.0" stroke="black" stroke-width="1" fill="none" />
<polyline points="1140.0,1734.0,1122.0,1718.0,1116.0,1702.0,1116.0,1686.0,1118.0,1670.0,1122.0,1654.0,1128.0,1638.0,1136.0,1622.0,1146.0,1606.0,1160.0,1590.0,1174.0,1574.0,1194.0,1558.0,1230.0,1542.0" stroke="black" stroke-width="1" fill="none" />
<polyline points="1216.0,1524.0,1182.0,1540.0,1162.0,1556.0,1146.0,1572.0,1134.0,1588.0,1122.0,1604.0,1112.0,1620.0,1106.0,1636.0,1100.0,1652.0,1096.0,1668.0,1094.0,1684.0,1094.0,1700.0,1098.0,1716.0,1104.0,1732.0,1120.0,1748.0,1130.0,1764.0,1114.0,1780.0,1106.0,1796.0,1102.0,1812.0,1100.0,1828.0,1102.0,1844.0,1106.0,1860.0,1114.0,1876.0,1126.0,1892.0,1144.0,1908.0" stroke="black" stroke-width="1" fill="none" />
<polyline points="1432.0,1960.0,1468.0,1944.0,1490.0,1928.0,1504.0,1912.0,1510.0,1896.0,1508.0,1880.0,1510.0,1864.0,1544.0,1848.0,1564.0,1832.0,1578.0,1816.0,1584.0,1800.0,1588.0,1784.0,1588.0,1768.0,1588.0,1752.0,1582.0,1736.0,1572.0,1720.0,1556.0,1704.0,1526.0,1688.0" stroke="black" stroke-width="1" fill="none" />
<polyline points="1514.0,1686.0,1522.0,1702.0,1546.0,1718.0,1560.0,1734.0,1568.0,1750.0,1570.0,1766.0,1566.0,1782.0,1560.0,1798.0,1550.0,1814.0,1532.0,1830.0,1504.0,1846.0" stroke="black" stroke-width="1" fill="none" />
<polyline points="1562.0,1736.0,1546.0,1716.0,1530.0,1706.0,1514.0,1696.0" stroke="black" stroke-width="1" fill="none" />
<polyline points="1516.0,1654.0,1532.0,1652.0,1548.0,1652.0,1564.0,1654.0,1580.0,1656.0,1596.0,1656.0,1612.0,1658.0,1628.0,1660.0,1644.0,1664.0,1660.0,1666.0,1676.0,1672.0,1692.0,1678.0,1708.0,1692.0" stroke="black" stroke-width="1" fill="none" />
<polyline points="1740.0,1696.0,1724.0,1720.0,1708.0,1736.0,1692.0,1746.0,1676.0,1756.0,1660.0,1762.0,1644.0,1768.0,1628.0,1774.0,1612.0,1778.0,1598.0,1776.0,1606.0,1760.0" stroke="black" stroke-width="1" fill="none" />
<polyline points="1572.0,1696.0,1588.0,1694.0,1582.0,1680.0,1574.0,1688.0,1590.0,1676.0,1600.0,1682.0" stroke="black" stroke-width="1" fill="none" />
<polyline points="1662.0,1668.0,1698.0,1684.0,1712.0,1700.0,1706.0,1716.0,1686.0,1732.0,1650.0,1748.0" stroke="black" stroke-width="1" fill="none" />
<polyline points="1646.0,1766.0,1684.0,1750.0,1710.0,1734.0,1726.0,1718.0,1732.0,1702.0,1752.0,1686.0,1754.0,1670.0,1738.0,1654.0" stroke="black" stroke-width="1" fill="none" />
<polyline points="1732.0,1662.0,1726.0,1678.0,1730.0,1688.0" stroke="black" stroke-width="1" fill="none" />
<polyline points="1742.0,1682.0,1740.0,1666.0,1736.0,1664.0,1716.0,1668.0,1724.0,1652.0" stroke="black" stroke-width="1" fill="none" />
<polyline points="1706.0,1668.0,1674.0,1652.0" stroke="black" stroke-width="1" fill="none" />
<polyline points="1708.0,1712.0,1692.0,1728.0,1676.0,1738.0,1660.0,1746.0,1644.0,1750.0,1628.0,1756.0,1612.0,1760.0,1588.0,1752.0,1572.0,1718.0,1556.0,1702.0,1540.0,1692.0,1524.0,1686.0,1508.0,1680.0,1492.0,1710.0,1498.0,1700.0,1506.0,1684.0,1512.0,1668.0,1518.0,1652.0" stroke="black" stroke-width="1" fill="none" />
<polyline points="1488.0,1696.0,1486.0,1700.0,1494.0,1684.0,1498.0,1668.0,1502.0,1652.0,1494.0,1636.0,1504.0,1620.0,1502.0,1604.0,1498.0,1588.0,1490.0,1572.0,1478.0,1556.0,1462.0,1540.0,1430.0,1524.0" stroke="black" stroke-width="1" fill="none" />
<polyline points="1434.0,1504.0,1464.0,1520.0,1484.0,1536.0,1498.0,1552.0,1506.0,1568.0,1514.0,1584.0,1518.0,1600.0,1520.0,1616.0,1522.0,1632.0,1536.0,1634.0,1552.0,1634.0,1568.0,1636.0,1584.0,1638.0,1600.0,1640.0,1616.0,1640.0,1632.0,1642.0,1648.0,1644.0,1664.0,1648.0,1680.0,1654.0,1696.0,1660.0,1712.0,1672.0,1728.0,1652.0,1744.0,1656.0" stroke="black" stroke-width="1" fill="none" />
<polyline points="1400.0,1522.0,1372.0,1538.0,1360.0,1554.0,1350.0,1570.0,1344.0,1586.0,1340.0,1602.0,1334.0,1618.0" stroke="black" stroke-width="1" fill="none" />
<polyline points="1314.0,1608.0,1306.0,1592.0,1298.0,1576.0,1284.0,1560.0,1260.0,1544.0" stroke="black" stroke-width="1" fill="none" />
<polyline points="1268.0,1526.0,1294.0,1542.0,1308.0,1558.0,1320.0,1574.0" stroke="black" stroke-width="1" fill="none" />
<polyline points="1332.0,1566.0,1340.0,1550.0,1350.0,1534.0,1366.0,1518.0,1394.0,1502.0" stroke="black" stroke-width="1" fill="none" />
<polyline points="726.0,1500.0,710.0,1524.0,694.0,1536.0,678.0,1542.0,662.0,1546.0,646.0,1546.0,630.0,1546.0,620.0,1538.0,620.0,1522.0,620.0,1522.0,636.0,1524.0,652.0,1524.0,668.0,1524.0,684.0,1516.0,700.0,1502.0,716.0,1480.0,732.0,1480.0,730.0,1490.0,724.0,1506.0,712.0,1522.0,690.0,1538.0" stroke="black" stroke-width="1" fill="none" />
<polyline points="690.0,1512.0,704.0,1496.0,710.0,1480.0" stroke="black" stroke-width="1" fill="none" />
<polyline points="610.0,1464.0,604.0,1480.0,604.0,1496.0,604.0,1512.0,604.0,1528.0,604.0,1544.0,604.0,1560.0,604.0,1576.0,604.0,1592.0,604.0,1608.0,604.0,1624.0,604.0,1640.0,604.0,1656.0,604.0,1672.0,604.0,1688.0,604.0,1704.0,604.0,1720.0,604.0,1736.0,604.0,1752.0,604.0,1768.0,604.0,1784.0,604.0,1800.0,604.0,1816.0,604.0,1832.0,604.0,1848.0,604.0,1864.0,604.0,1880.0,604.0,1896.0,604.0,1912.0,604.0,1928.0,604.0,1944.0,604.0,1960.0,604.0,1976.0,604.0,1992.0,604.0,2008.0,604.0,2024.0,604.0,2040.0,604.0,2056.0,604.0,2072.0,604.0,2088.0,604.0,2104.0,604.0,2120.0,604.0,2136.0,604.0,2152.0,604.0,2168.0,604.0,2184.0,604.0,2200.0,604.0,2216.0,604.0,2232.0,604.0,2248.0,604.0,2264.0,604.0,2280.0,604.0,2296.0,604.0,2312.0,604.0,2328.0,604.0,2344.0,604.0,2360.0,604.0,2376.0,604.0,2392.0,604.0,2408.0,604.0,2424.0,604.0,2440.0,604.0,2456.0,604.0,2472.0,604.0,2488.0,604.0,2504.0,604.0,2520.0,604.0,2536.0,604.0,2552.0,604.0,2568.0,604.0,2584.0,604.0,2600.0,604.0,2616.0,604.0,2632.0,604.0,2648.0,614.0,2654.0,630.0,2654.0,646.0,2654.0,662.0,2654.0,678.0,2654.0,694.0,2654.0,710.0,2654.0,726.0,2654.0,742.0,2654.0,758.0,2654.0,774.0,2654.0,790.0,2654.0,806.0,2654.0,822.0,2654.0,838.0,2654.0,854.0,2654.0,870.0,2654.0,886.0,2654.0,902.0,2654.0,918.0,2654.0,934.0,2654.0,950.0,2654.0,966.0,2654.0,982.0,2654.0,998.0,2654.0,1014.0,2654.0,1030.0,2654.0,1046.0,2654.0,1062.0,2654.0,1078.0,2654.0,1094.0,2654.0,1110.0,2654.0,1126.0,2654.0,1142.0,2654.0,1158.0,2654.0,1174.0,2654.0,1190.0,2654.0,1206.0,2654.0,1222.0,2654.0,1238.0,2654.0,1254.0,2654.0,1270.0,2654.0,1286.0,2654.0,1302.0,2654.0,1318.0,2654.0,1334.0,2654.0,1350.0,2654.0,1366.0,2654.0,1382.0,2654.0,1398.0,2654.0,1414.0,2654.0,1430.0,2654.0,1446.0,2654.0,1462.0,2654.0,1478.0,2654.0,1494.0,2654.0,1510.0,2654.0,1526.0,2654.0,1542.0,2654.0,1558.0,2654.0,1574.0,2654.0,1590.0,2654.0,1606.0,2654.0,1622.0,2654.0,1638.0,2654.0,1654.0,2654.0,1670.0,2654.0,1686.0,2654.0,1702.0,2654.0,1718.0,2654.0,1734.0,2654.0,1750.0,2654.0,1766.0,2654.0,1782.0,2654.0" stroke="black" stroke-width="1" fill="none" />
<polyline points="1794.0,2642.0,1794.0,2626.0,1794.0,2610.0,1794.0,2594.0,1794.0,2578.0,1794.0,2562.0,1794.0,2546.0,1794.0,2530.0,1794.0,2514.0,1794.0,2498.0,1794.0,2482.0,1794.0,2466.0,1794.0,2450.0,1794.0,2434.0,1794.0,2418.0,1794.0,2402.0,1794.0,2386.0,1794.0,2370.0,1794.0,2354.0,1794.0,2338.0,1794.0,2322.0,1794.0,2306.0,1794.0,2290.0,1794.0,2274.0,1794.0,2258.0,1794.0,2242.0,1794.0,2226.0,1794.0,2210.0,1794.0,2194.0,1794.0,2178.0,1794.0,2162.0,1794.0,2146.0,1794.0,2130.0,1794.0,2114.0,1794.0,2098.0,1794.0,2082.0,1794.0,2066.0,1794.0,2050.0,1794.0,2034.0,1794.0,2018.0,1794.0,2002.0,1794.0,1986.0,1794.0,1970.0,1794.0,1954.0,1794.0,1938.0,1794.0,1922.0,1794.0,1906.0,1794.0,1890.0,1794.0,1874.0,1794.0,1858.0,1794.0,1842.0,1794.0,1826.0,1794.0,1810.0,1794.0,1794.0,1794.0,1778.0,1794.0,1762.0,1794.0,1746.0,1794.0,1730.0,1794.0,1714.0,1794.0,1698.0,1794.0,1682.0,1794.0,1666.0,1794.0,1650.0,1794.0,1634.0,1794.0,1618.0,1794.0,1602.0,1794.0,1586.0,1794.0,1570.0,1794.0,1554.0,1794.0,1538.0,1794.0,1522.0,1794.0,1506.0,1794.0,1490.0,1794.0,1474.0,1788.0,1464.0,1772.0,1464.0,1756.0,1464.0,1740.0,1464.0,1724.0,1464.0,1708.0,1464.0,1692.0,1464.0,1676.0,1464.0,1660.0,1464.0,1644.0,1464.0,1628.0,1464.0,1612.0,1464.0,1596.0,1464.0,1580.0,1464.0,1564.0,1464.0,1548.0,1464.0,1532.0,1464.0,1516.0,1464.0,1500.0,1464.0,1484.0,1464.0,1468.0,1464.0,1452.0,1464.0,1436.0,1464.0,1420.0,1464.0,1404.0,1464.0,1388.0,1464.0,1372.0,1464.0,1356.0,1464.0,1340.0,1464.0,1324.0,1464.0,1308.0,1464.0,1292.0,1464.0,1276.0,1464.0,1260.0,1464.0,1244.0,1464.0,1228.0,1464.0,1212.0,1464.0,1196.0,1464.0,1180.0,1464.0,1164.0,1464.0,1148.0,1464.0,1132.0,1464.0,1116.0,1464.0,1100.0,1464.0,1084.0,1464.0,1068.0,1464.0,1052.0,1464.0,1036.0,1464.0,1020.0,1464.0,1004.0,1464.0,988.0,1464.0,972.0,1464.0,956.0,1464.0,940.0,1464.0,924.0,1464.0,908.0,1464.0,892.0,1464.0,876.0,1464.0,860.0,1464.0,844.0,1464.0,828.0,1464.0,812.0,1464.0,796.0,1464.0,780.0,1464.0,764.0,1464.0,748.0,1464.0,732.0,1464.0,716.0,1464.0,700.0,1464.0,684.0,1464.0,668.0,1464.0,652.0,1464.0,636.0,1464.0,620.0,1464.0,604.0,1470.0" stroke="black" stroke-width="1" fill="none" />
<polyline points="598.0,1464.0,614.0,1458.0,630.0,1458.0,646.0,1458.0,662.0,1458.0,678.0,1458.0,694.0,1458.0,710.0,1458.0,726.0,1458.0,742.0,1458.0,758.0,1458.0,774.0,1458.0,790.0,1458.0,806.0,1458.0,822.0,1458.0,838.0,1458.0,854.0,1458.0,870.0,1458.0,886.0,1458.0,902.0,1458.0,918.0,1458.0,934.0,1458.0,950.0,1458.0,966.0,1458.0,982.0,1458.0,998.0,1458.0,1014.0,1458.0,1030.0,1458.0,1046.0,1458.0,1062.0,1458.0,1078.0,1458.0,1094.0,1458.0,1110.0,1458.0,1126.0,1458.0,1142.0,1458.0,1158.0,1458.0,1174.0,1458.0,1190.0,1458.0,1206.0,1458.0,1222.0,1458.0,1238.0,1458.0,1254.0,1458.0,1270.0,1458.0,1286.0,1458.0,1302.0,1458.0,1318.0,1458.0,1334.0,1458.0,1350.0,1458.0,1366.0,1458.0,1382.0,1458.0,1398.0,1458.0,1414.0,1458.0,1430.0,1458.0,1446.0,1458.0,1462.0,1458.0,1478.0,1458.0,1494.0,1458.0,1510.0,1458.0,1526.0,1458.0,1542.0,1458.0,1558.0,1458.0,1574.0,1458.0,1590.0,1458.0,1606.0,1458.0,1622.0,1458.0,1638.0,1458.0,1654.0,1458.0,1670.0,1458.0,1686.0,1458.0,1702.0,1458.0,1718.0,1458.0,1734.0,1458.0,1750.0,1458.0,1766.0,1458.0,1782.0,1458.0,1798.0,1460.0,1800.0,1472.0,1800.0,1488.0,1800.0,1504.0,1800.0,1520.0,1800.0,1536.0,1800.0,1552.0,1800.0,1568.0,1800.0,1584.0,1800.0,1600.0,1800.0,1616.0,1800.0,1632.0,1800.0,1648.0,1800.0,1664.0,1800.0,1680.0,1800.0,1696.0,1800.0,1712.0,1800.0,1728.0,1800.0,1744.0,1800.0,1760.0,1800.0,1776.0,1800.0,1792.0,1800.0,1808.0,1800.0,1824.0,1800.0,1840.0,1800.0,1856.0,1800.0,1872.0,1800.0,1888.0,1800.0,1904.0,1800.0,1920.0,1800.0,1936.0,1800.0,1952.0,1800.0,1968.0,1800.0,1984.0,1800.0,2000.0,1800.0,2016.0,1800.0,2032.0,1800.0,2048.0,1800.0,2064.0,1800.0,2080.0,1800.0,2096.0,1800.0,2112.0,1800.0,2128.0,1800.0,2144.0,1800.0,2160.0,1800.0,2176.0,1800.0,2192.0,1800.0,2208.0,1800.0,2224.0,1800.0,2240.0,1800.0,2256.0,1800.0,2272.0,1800.0,2288.0,1800.0,2304.0,1800.0,2320.0,1800.0,2336.0,1800.0,2352.0,1800.0,2368.0,1800.0,2384.0,1800.0,2400.0,1800.0,2416.0,1800.0,2432.0,1800.0,2448.0,1800.0,2464.0,1800.0,2480.0,1800.0,2496.0,1800.0,2512.0,1800.0,2528.0,1800.0,2544.0,1800.0,2560.0,1800.0,2576.0,1800.0,2592.0,1800.0,2608.0,1800.0,2624.0,1800.0,2640.0,1800.0,2656.0" stroke="black" stroke-width="1" fill="none" />
<polyline points="610.0,2804.0,604.0,2820.0,604.0,2836.0,604.0,2852.0,604.0,2868.0,604.0,2884.0,604.0,2900.0,604.0,2916.0,604.0,2932.0,604.0,2948.0,604.0,2964.0,604.0,2980.0,604.0,2996.0,604.0,3012.0,604.0,3028.0,604.0,3044.0,604.0,3060.0,604.0,3076.0,604.0,3092.0,604.0,3108.0,604.0,3124.0,604.0,3140.0,604.0,3156.0,604.0,3172.0,604.0,3188.0,604.0,3204.0,604.0,3220.0,604.0,3236.0,604.0,3252.0,604.0,3268.0,604.0,3284.0,604.0,3300.0,604.0,3316.0,604.0,3332.0,604.0,3348.0,604.0,3364.0,604.0,3380.0,604.0,3396.0,604.0,3412.0,604.0,3428.0,604.0,3444.0,604.0,3460.0,604.0,3476.0,604.0,3492.0,604.0,3508.0,604.0,3524.0,604.0,3540.0,604.0,3556.0,604.0,3572.0,604.0,3588.0,604.0,3604.0,604.0,3620.0,604.0,3636.0,604.0,3652.0,604.0,3668.0,604.0,3684.0,604.0,3700.0,604.0,3716.0,604.0,3732.0,604.0,3748.0,604.0,3764.0,604.0,3780.0" stroke="black" stroke-width="1" fill="none" />
<polyline points="1294.0,3778.0,1294.0,3762.0,1294.0,3746.0,1294.0,3730.0,1294.0,3714.0,1294.0,3698.0,1294.0,3682.0,1294.0,3666.0,1294.0,3650.0,1294.0,3634.0,1294.0,3618.0,1294.0,3602.0,1294.0,3586.0,1294.0,3570.0,1294.0,3554.0,1294.0,3538.0,1294.0,3522.0,1294.0,3506.0,1294.0,3490.0,1294.0,3474.0,1294.0,3458.0,1294.0,3442.0,1294.0,3426.0,1294.0,3410.0,1294.0,3394.0,1294.0,3378.0,1294.0,3362.0,1294.0,3346.0,1294.0,3330.0,1294.0,3314.0,1294.0,3298.0,1294.0,3282.0,1294.0,3266.0,1294.0,3250.0,1294.0,3234.0,1294.0,3218.0,1294.0,3202.0,1294.0,3186.0,1294.0,3170.0,1294.0,3154.0,1294.0,3138.0,1294.0,3122.0,1294.0,3106.0,1294.0,3090.0,1294.0,3074.0,1294.0,3058.0,1294.0,3042.0,1294.0,3026.0,1294.0,3010.0,1294.0,2994.0,1294.0,2978.0,1294.0,2962.0,1294.0,2946.0,1294.0,2930.0,1294.0,2914.0,1294.0,2898.0,1294.0,2882.0,1294.0,2866.0,1294.0,2850.0,1294.0,2834.0,1294.0,2818.0,1292.0,2806.0,1276.0,2804.0,1260.0,2804.0,1244.0,2804.0,1228.0,2804.0,1212.0,2804.0,1196.0,2804.0,1180.0,2804.0,1164.0,2804.0,1148.0,2804.0,1132.0,2804.0,1116.0,2804.0,1100.0,2804.0,1084.0,2804.0,1068.0,2804.0,1052.0,2804.0,1036.0,2804.0,1020.0,2804.0,1004.0,2804.0,988.0,2804.0,972.0,2804.0,956.0,2804.0,940.0,2804.0,924.0,2804.0,908.0,2804.0,892.0,2804.0,876.0,2804.0,860.0,2804.0,844.0,2804.0,828.0,2804.0,812.0,2804.0,796.0,2804.0,780.0,2804.0,764.0,2804.0,748.0,2804.0,732.0,2804.0,716.0,2804.0,700.0,2804.0,684.0,2804.0,668.0,2804.0,652.0,2804.0,636.0,2804.0,620.0,2804.0,604.0,2810.0" stroke="black" stroke-width="1" fill="none" />
<polyline points="598.0,2804.0,614.0,2798.0,630.0,2798.0,646.0,2798.0,662.0,2798.0,678.0,2798.0,694.0,2798.0,710.0,2798.0,726.0,2798.0,742.0,2798.0,758.0,2798.0,774.0,2798.0,790.0,2798.0,806.0,2798.0,822.0,2798.0,838.0,2798.0,854.0,2798.0,870.0,2798.0,886.0,2798.0,902.0,2798.0,918.0,2798.0,934.0,2798.0,950.0,2798.0,966.0,2798.0,982.0,2798.0,998.0,2798.0,1014.0,2798.0,1030.0,2798.0,1046.0,2798.0,1062.0,2798.0,1078.0,2798.0,1094.0,2798.0,1110.0,2798.0,1126.0,2798.0,1142.0,2798.0,1158.0,2798.0,1174.0,2798.0,1190.0,2798.0,1206.0,2798.0,1222.0,2798.0,1238.0,2798.0,1254.0,2798.0,1270.0,2798.0,1286.0,2798.0,1298.0,2800.0,1300.0,2816.0,1300.0,2832.0,1300.0,2848.0,1300.0,2864.0,1300.0,2880.0,1300.0,2896.0,1300.0,2912.0,1300.0,2928.0,1300.0,2944.0,1300.0,2960.0,1300.0,2976.0,1300.0,2992.0,1300.0,3008.0,1300.0,3024.0,1300.0,3040.0,1300.0,3056.0,1300.0,3072.0,1300.0,3088.0,1300.0,3104.0,1300.0,3120.0,1300.0,3136.0,1300.0,3152.0,1300.0,3168.0,1300.0,3184.0,1300.0,3200.0,1300.0,3216.0,1300.0,3232.0,1300.0,3248.0,1300.0,3264.0,1300.0,3280.0,1300.0,3296.0,1300.0,3312.0,1300.0,3328.0,1300.0,3344.0,1300.0,3360.0,1300.0,3376.0,1300.0,3392.0,1300.0,3408.0,1300.0,3424.0,1300.0,3440.0,1300.0,3456.0,1300.0,3472.0,1300.0,3488.0,1300.0,3504.0,1300.0,3520.0,1300.0,3536.0,1300.0,3552.0,1300.0,3568.0,1300.0,3584.0,1300.0,3600.0,1300.0,3616.0,1300.0,3632.0,1300.0,3648.0,1300.0,3664.0,1300.0,3680.0,1300.0,3696.0,1300.0,3712.0,1300.0,3728.0,1300.0,3744.0,1300.0,3760.0,1300.0,3776.0,1302.0,3792.0" stroke="black" stroke-width="1" fill="none" />
<polyline points="598.0,3790.0,598.0,3774.0,598.0,3758.0,598.0,3742.0,598.0,3726.0,598.0,3710.0,598.0,3694.0,598.0,3678.0,598.0,3662.0,598.0,3646.0,598.0,3630.0,598.0,3614.0,598.0,3598.0,598.0,3582.0,598.0,3566.0,598.0,3550.0,598.0,3534.0,598.0,3518.0,598.0,3502.0,598.0,3486.0,598.0,3470.0,598.0,3454.0,598.0,3438.0,598.0,3422.0,598.0,3406.0,598.0,3390.0,598.0,3374.0,598.0,3358.0,598.0,3342.0,598.0,3326.0,598.0,3310.0,598.0,3294.0,598.0,3278.0,598.0,3262.0,598.0,3246.0,598.0,3230.0,598.0,3214.0,598.0,3198.0,598.0,3182.0,598.0,3166.0,598.0,3150.0,598.0,3134.0,598.0,3118.0,598.0,3102.0,598.0,3086.0,598.0,3070.0,598.0,3054.0,598.0,3038.0,598.0,3022.0,598.0,3006.0,598.0,2990.0,598.0,2974.0,598.0,2958.0,598.0,2942.0,598.0,2926.0,598.0,2910.0,598.0,2894.0,598.0,2878.0,598.0,2862.0,598.0,2846.0,598.0,2830.0,598.0,2814.0,604.0,2798.0" stroke="black" stroke-width="1" fill="none" />
<polyline points="1796.0,2660.0,1780.0,2660.0,1764.0,2660.0,1748.0,2660.0,1732.0,2660.0,1716.0,2660.0,1700.0,2660.0,1684.0,2660.0,1668.0,2660.0,1652.0,2660.0,1636.0,2660.0,1620.0,2660.0,1604.0,2660.0,1588.0,2660.0,1572.0,2660.0,1556.0,2660.0,1540.0,2660.0,1524.0,2660.0,1508.0,2660.0,1492.0,2660.0,1476.0,2660.0,1460.0,2660.0,1444.0,2660.0,1428.0,2660.0,1412.0,2660.0,1396.0,2660.0,1380.0,2660.0,1364.0,2660.0,1348.0,2660.0,1332.0,2660.0,1316.0,2660.0,1300.0,2660.0,1284.0,2660.0,1268.0,2660.0,1252.0,2660.0,1236.0,2660.0,1220.0,2660.0,1204.0,2660.0,1188.0,2660.0,1172.0,2660.0,1156.0,2660.0,1140.0,2660.0,1124.0,2660.0,1108.0,2660.0,1092.0,2660.0,1076.0,2660.0,1060.0,2660.0,1044.0,2660.0,1028.0,2660.0,1012.0,2660.0,996.0,2660.0,980.0,2660.0,964.0,2660.0,948.0,2660.0,932.0,2660.0,916.0,2660.0,900.0,2660.0,884.0,2660.0,868.0,2660.0,852.0,2660.0,836.0,2660.0,820.0,2660.0,804.0,2660.0,788.0,2660.0,772.0,2660.0,756.0,2660.0,740.0,2660.0,724.0,2660.0,708.0,2660.0,692.0,2660.0,676.0,2660.0,660.0,2660.0,644.0,2660.0,628.0,2660.0,612.0,2660.0,600.0,2658.0,598.0,2642.0,598.0,2626.0,598.0,2610.0,598.0,2594.0,598.0,2578.0,598.0,2562.0,598.0,2546.0,598.0,2530.0,598.0,2514.0,598.0,2498.0,598.0,2482.0,598.0,2466.0,598.0,2450.0,598.0,2434.0,598.0,2418.0,598.0,2402.0,598.0,2386.0,598.0,2370.0,598.0,2354.0,598.0,2338.0,598.0,2322.0,598.0,2306.0,598.0,2290.0,598.0,2274.0,598.0,2258.0,598.0,2242.0,598.0,2226.0,598.0,2210.0,598.0,2194.0,598.0,2178.0,598.0,2162.0,598.0,2146.0,598.0,2130.0,598.0,2114.0,598.0,2098.0,598.0,2082.0,598.0,2066.0,598.0,2050.0,598.0,2034.0,598.0,2018.0,598.0,2002.0,598.0,1986.0,598.0,1970.0,598.0,1954.0,598.0,1938.0,598.0,1922.0,598.0,1906.0,598.0,1890.0,598.0,1874.0,598.0,1858.0,598.0,1842.0,598.0,1826.0,598.0,1810.0,598.0,1794.0,598.0,1778.0,598.0,1762.0,598.0,1746.0,598.0,1730.0,598.0,1714.0,598.0,1698.0,598.0,1682.0,598.0,1666.0,598.0,1650.0,598.0,1634.0,598.0,1618.0,598.0,1602.0,598.0,1586.0,598.0,1570.0,598.0,1554.0,598.0,1538.0,598.0,1522.0,598.0,1506.0,598.0,1490.0,598.0,1474.0,604.0,1458.0" stroke="black" stroke-width="1" fill="none" />
<polyline points="208.0,1398.0,224.0,1398.0,240.0,1398.0,256.0,1398.0,272.0,1398.0,288.0,1398.0,304.0,1398.0,320.0,1398.0,336.0,1398.0,352.0,1398.0,368.0,1398.0,384.0,1398.0,400.0,1398.0,416.0,1398.0,432.0,1398.0,448.0,1398.0,464.0,1398.0,480.0,1398.0,496.0,1398.0,512.0,1398.0,528.0,1398.0,544.0,1398.0,560.0,1398.0,576.0,1398.0,592.0,1398.0,608.0,1398.0,624.0,1398.0,640.0,1398.0,656.0,1398.0,672.0,1398.0,688.0,1398.0,704.0,1398.0,720.0,1398.0,736.0,1398.0,752.0,1398.0,768.0,1398.0,784.0,1398.0,800.0,1398.0,816.0,1398.0,832.0,1398.0,848.0,1398.0,864.0,1398.0,880.0,1398.0,896.0,1398.0,912.0,1398.0,928.0,1398.0,944.0,1398.0,960.0,1398.0,976.0,1398.0,992.0,1398.0,1008.0,1398.0,1024.0,1398.0,1040.0,1398.0,1056.0,1398.0,1072.0,1398.0,1088.0,1398.0,1104.0,1398.0,1120.0,1398.0,1136.0,1398.0,1152.0,1398.0,1168.0,1398.0,1184.0,1398.0,1200.0,1398.0,1216.0,1398.0,1232.0,1398.0,1248.0,1398.0,1264.0,1398.0,1280.0,1398.0,1296.0,1398.0,1312.0,1398.0,1328.0,1398.0,1344.0,1398.0,1360.0,1398.0,1376.0,1398.0,1392.0,1398.0,1408.0,1398.0,1424.0,1398.0,1440.0,1398.0,1456.0,1398.0,1472.0,1398.0,1488.0,1398.0,1504.0,1398.0,1520.0,1398.0,1536.0,1398.0,1552.0,1398.0,1568.0,1398.0,1584.0,1398.0,1600.0,1398.0,1616.0,1398.0,1632.0,1398.0,1648.0,1398.0,1664.0,1398.0,1680.0,1398.0,1696.0,1398.0,1712.0,1398.0,1728.0,1398.0,1744.0,1398.0,1760.0,1398.0,1776.0,1398.0,1792.0,1398.0,1808.0,1398.0,1824.0,1398.0,1840.0,1398.0,1856.0,1398.0,1872.0,1398.0,1888.0,1398.0,1904.0,1398.0,1920.0,1398.0,1936.0,1398.0,1952.0,1398.0,1968.0,1398.0,1984.0,1398.0,2000.0,1398.0,2016.0,1398.0,2032.0,1398.0,2048.0,1398.0,2064.0,1398.0,2080.0,1398.0,2096.0,1398.0,2112.0,1398.0,2128.0,1398.0,2144.0,1398.0,2160.0,1398.0,2176.0,1398.0,2192.0,1398.0,2208.0,1398.0,2224.0,1398.0,2240.0,1398.0,2256.0,1398.0,2272.0,1398.0,2288.0,1398.0,2304.0,1398.0,2320.0,1398.0,2336.0,1398.0,2352.0,1398.0,2368.0,1398.0,2384.0,1398.0,2400.0,1398.0,2416.0,1398.0,2432.0,1398.0,2448.0,1398.0,2464.0,1398.0,2480.0,1398.0,2496.0,1398.0,2512.0,1398.0,2528.0,1398.0,2544.0,1398.0,2560.0,1398.0,2576.0,1398.0,2592.0,1398.0,2608.0,1398.0,2624.0,1398.0,2640.0,1398.0,2656.0,1398.0,2672.0,1398.0,2688.0,1398.0,2704.0,1398.0,2720.0,1398.0,2736.0,1398.0,2752.0,1398.0,2768.0,1398.0,2784.0,1398.0,2800.0,1398.0,2816.0,1398.0,2832.0,1398.0,2848.0,1398.0,2864.0,1398.0,2880.0,1398.0,2896.0,1398.0,2912.0,1398.0,2928.0,1398.0,2944.0,1398.0,2960.0,1398.0,2976.0,1398.0,2992.0,1398.0,3008.0,1398.0,3024.0,1398.0,3040.0,1398.0,3056.0,1398.0,3072.0,1398.0,3088.0,1398.0,3104.0,1398.0,3120.0,1398.0,3136.0,1398.0,3152.0,1398.0,3168.0,1398.0,3184.0,1398.0,3200.0,1398.0,3216.0,1398.0,3232.0,1398.0,3248.0,1398.0,3264.0,1398.0,3280.0,1398.0,3296.0,1398.0,3312.0,1398.0,3328.0,1398.0,3344.0,1398.0,3360.0,1398.0,3376.0,1398.0,3392.0,1398.0,3408.0,1398.0,3424.0,1398.0,3440.0,1398.0,3456.0,1398.0,3472.0,1398.0,3488.0,1398.0,3504.0,1398.0,3520.0,1398.0,3536.0,1398.0,3552.0,1398.0,3568.0,1398.0,3584.0,1398.0,3600.0,1398.0,3616.0,1398.0,3632.0,1398.0,3648.0,1398.0,3664.0,1398.0,3680.0,1398.0,3696.0,1398.0,3712.0,1398.0,3728.0,1398.0,3744.0,1398.0,3760.0,1398.0,3776.0,1398.0,3792.0,1398.0" stroke="black" stroke-width="1" fill="none" />
<polyline points="3788.0,1404.0,3772.0,1404.0,3756.0,1404.0,3740.0,1404.0,3724.0,1404.0,3708.0,1404.0,3692.0,1404.0,3676.0,1404.0,3660.0,1404.0,3644.0,1404.0,3628.0,1404.0,3612.0,1404.0,3596.0,1404.0,3580.0,1404.0,3564.0,1404.0,3548.0,1404.0,3532.0,1404.0,3516.0,1404.0,3500.0,1404.0,3484.0,1404.0,3468.0,1404.0,3452.0,1404.0,3436.0,1404.0,3420.0,1404.0,3404.0,1404.0,3388.0,1404.0,3372.0,1404.0,3356.0,1404.0,3340.0,1404.0,3324.0,1404.0,3308.0,1404.0,3292.0,1404.0,3276.0,1404.0,3260.0,1404.0,3244.0,1404.0,3228.0,1404.0,3212.0,1404.0,3196.0,1404.0,3180.0,1404.0,3164.0,1404.0,3148.0,1404.0,3132.0,1404.0,3116.0,1404.0,3100.0,1404.0,3084.0,1404.0,3068.0,1404.0,3052.0,1404.0,3036.0,1404.0,3020.0,1404.0,3004.0,1404.0,2988.0,1404.0,2972.0,1404.0,2956.0,1404.0,2940.0,1404.0,2924.0,1404.0,2908.0,1404.0,2892.0,1404.0,2876.0,1404.0,2860.0,1404.0,2844.0,1404.0,2828.0,1404.0,2812.0,1404.0,2796.0,1404.0,2780.0,1404.0,2764.0,1404.0,2748.0,1404.0,2732.0,1404.0,2716.0,1404.0,2700.0,1404.0,2684.0,1404.0,2668.0,1404.0,2652.0,1404.0,2636.0,1404.0,2620.0,1404.0,2604.0,1404.0,2588.0,1404.0,2572.0,1404.0,2556.0,1404.0,2540.0,1404.0,2524.0,1404.0,2508.0,1404.0,2492.0,1404.0,2476.0,1404.0,2460.0,1404.0,2444.0,1404.0,2428.0,1404.0,2412.0,1404.0,2396.0,1404.0,2380.0,1404.0,2364.0,1404.0,2348.0,1404.0,2332.0,1404.0,2316.0,1404.0,2300.0,1404.0,2284.0,1404.0,2268.0,1404.0,2252.0,1404.0,2236.0,1404.0,2220.0,1404.0,2204.0,1404.0,2188.0,1404.0,2172.0,1404.0,2156.0,1404.0,2140.0,1404.0,2124.0,1404.0,2108.0,1404.0,2092.0,1404.0,2076.0,1404.0,2060.0,1404.0,2044.0,1404.0,2028.0,1404.0,2012.0,1404.0,1996.0,1404.0,1980.0,1404.0,1964.0,1404.0,1948.0,1404.0,1932.0,1404.0,1916.0,1404.0,1900.0,1404.0,1884.0,1404.0,1868.0,1404.0,1852.0,1404.0,1836.0,1404.0,1820.0,1404.0,1804.0,1404.0,1788.0,1404.0,1772.0,1404.0,1756.0,1404.0,1740.0,1404.0,1724.0,1404.0,1708.0,1404.0,1692.0,1404.0,1676.0,1404.0,1660.0,1404.0,1644.0,1404.0,1628.0,1404.0,1612.0,1404.0,1596.0,1404.0,1580.0,1404.0,1564.0,1404.0,1548.0,1404.0,1532.0,1404.0,1516.0,1404.0,1500.0,1404.0,1484.0,1404.0,1468.0,1404.0,1452.0,1404.0,1436.0,1404.0,1420.0,1404.0,1404.0,1404.0,1388.0,1404.0,1372.0,1404.0,1356.0,1404.0,1340.0,1404.0,1324.0,1404.0,1308.0,1404.0,1292.0,1404.0,1276.0,1404.0,1260.0,1404.0,1244.0,1404.0,1228.0,1404.0,1212.0,1404.0,1196.0,1404.0,1180.0,1404.0,1164.0,1404.0,1148.0,1404.0,1132.0,1404.0,1116.0,1404.0,1100.0,1404.0,1084.0,1404.0,1068.0,1404.0,1052.0,1404.0,1036.0,1404.0,1020.0,1404.0,1004.0,1404.0,988.0,1404.0,972.0,1404.0,956.0,1404.0,940.0,1404.0,924.0,1404.0,908.0,1404.0,892.0,1404.0,876.0,1404.0,860.0,1404.0,844.0,1404.0,828.0,1404.0,812.0,1404.0,796.0,1404.0,780.0,1404.0,764.0,1404.0,748.0,1404.0,732.0,1404.0,716.0,1404.0,700.0,1404.0,684.0,1404.0,668.0,1404.0,652.0,1404.0,636.0,1404.0,620.0,1404.0,604.0,1404.0,588.0,1404.0,572.0,1404.0,556.0,1404.0,540.0,1404.0,524.0,1404.0,508.0,1404.0,492.0,1404.0,476.0,1404.0,460.0,1404.0,444.0,1404.0,428.0,1404.0,412.0,1404.0,396.0,1404.0,380.0,1404.0,364.0,1404.0,348.0,1404.0,332.0,1404.0,316.0,1404.0,300.0,1404.0,284.0,1404.0,268.0,1404.0,252.0,1404.0,236.0,1404.0,220.0,1404.0,204.0,1410.0" stroke="black" stroke-width="1" fill="none" />
<polyline points="198.0,1402.0,214.0,1390.0,230.0,1384.0,246.0,1376.0,262.0,1370.0,278.0,1362.0,294.0,1356.0,310.0,1348.0,326.0,1340.0,342.0,1334.0,358.0,1326.0,374.0,1320.0,390.0,1312.0,406.0,1306.0,422.0,1298.0,438.0,1292.0,454.0,1284.0,470.0,1276.0,486.0,1270.0,502.0,1262.0,518.0,1256.0,534.0,1248.0,550.0,1242.0,566.0,1234.0,582.0,1228.0,598.0,1220.0,614.0,1212.0,630.0,1206.0,646.0,1198.0,662.0,1192.0,678.0,1184.0,694.0,1178.0,710.0,1170.0,726.0,1164.0,742.0,1156.0,758.0,1148.0,774.0,1142.0,790.0,1134.0,806.0,1128.0,822.0,1120.0,838.0,1114.0,854.0,1106.0,870.0,1100.0,886.0,1092.0,902.0,1084.0,918.0,1078.0,934.0,1070.0,950.0,1064.0,966.0,1056.0,982.0,1050.0,998.0,1042.0,1014.0,1036.0,1030.0,1028.0,1046.0,1020.0,1062.0,1014.0,1078.0,1006.0,1094.0,1000.0,1110.0,992.0,1126.0,986.0,1142.0,978.0,1158.0,972.0,1174.0,964.0,1190.0,956.0,1206.0,950.0,1222.0,942.0,1238.0,936.0,1254.0,928.0,1270.0,922.0,1286.0,914.0,1302.0,908.0,1318.0,900.0,1334.0,892.0,1350.0,886.0,1366.0,878.0,1382.0,872.0,1398.0,864.0,1414.0,858.0,1430.0,850.0,1446.0,844.0,1462.0,836.0,1478.0,828.0,1494.0,822.0,1510.0,814.0,1526.0,808.0,1542.0,800.0,1558.0,794.0,1574.0,786.0,1590.0,780.0,1606.0,772.0,1622.0,764.0,1638.0,758.0,1654.0,750.0,1670.0,744.0,1686.0,736.0,1702.0,730.0,1718.0,722.0,1734.0,716.0,1750.0,708.0,1766.0,700.0,1782.0,694.0,1798.0,686.0,1814.0,680.0,1830.0,672.0,1846.0,666.0,1862.0,658.0,1878.0,652.0,1894.0,644.0,1910.0,636.0,1926.0,630.0,1942.0,622.0,1958.0,616.0,1974.0,608.0,1990.0,602.0,2006.0,600.0,2022.0,606.0,2038.0,614.0,2054.0,620.0,2070.0,628.0,2086.0,636.0,2102.0,642.0,2118.0,650.0,2134.0,656.0,2150.0,664.0,2166.0,670.0,2182.0,678.0,2198.0,684.0,2214.0,692.0,2230.0,700.0,2246.0,706.0,2262.0,714.0,2278.0,720.0,2294.0,728.0,2310.0,734.0,2326.0,742.0,2342.0,748.0,2358.0,756.0,2374.0,764.0,2390.0,770.0,2406.0,778.0,2422.0,784.0,2438.0,792.0,2454.0,798.0,2470.0,806.0,2486.0,812.0,2502.0,820.0,2518.0,828.0,2534.0,834.0,2550.0,842.0,2566.0,848.0,2582.0,856.0,2598.0,862.0,2614.0,870.0,2630.0,876.0,2646.0,884.0,2662.0,892.0,2678.0,898.0,2694.0,906.0,2710.0,912.0,2726.0,920.0,2742.0,926.0,2758.0,934.0,2774.0,940.0,2790.0,948.0,2806.0,956.0,2822.0,962.0,2838.0,970.0,2854.0,976.0,2870.0,984.0,2886.0,990.0" stroke="black" stroke-width="1" fill="none" />
<polyline points="3088.0,1082.0,3052.0,1066.0,3016.0,1050.0,2980.0,1034.0,2944.0,1018.0,2908.0,1002.0,2902.0,986.0,2902.0,970.0,2902.0,954.0,2902.0,938.0,2902.0,922.0,2902.0,906.0,2902.0,890.0,2902.0,874.0,2902.0,858.0,2902.0,842.0,2902.0,826.0,2902.0,810.0,2902.0,794.0,2902.0,778.0,2902.0,762.0,2902.0,746.0,2902.0,730.0,2902.0,714.0,2902.0,698.0,2902.0,682.0,2902.0,666.0,2902.0,650.0,2902.0,634.0,2902.0,618.0,2908.0,602.0" stroke="black" stroke-width="1" fill="none" />
<polyline points="2904.0,596.0,2896.0,612.0,2896.0,628.0,2896.0,644.0,2896.0,660.0,2896.0,676.0,2896.0,692.0,2896.0,708.0,2896.0,724.0,2896.0,740.0,2896.0,756.0,2896.0,772.0,2896.0,788.0,2896.0,804.0,2896.0,820.0,2896.0,836.0,2896.0,852.0,2896.0,868.0,2896.0,884.0,2896.0,900.0,2896.0,916.0,2896.0,932.0,2896.0,948.0,2896.0,964.0,2896.0,980.0,2906.0,1000.0,2922.0,1006.0,2938.0,1014.0,2954.0,1020.0,2970.0,1028.0,2986.0,1036.0,3002.0,1042.0,3018.0,1050.0,3034.0,1056.0,3050.0,1064.0,3066.0,1070.0,3082.0,1078.0,3106.0,1094.0,3122.0,1102.0,3138.0,1108.0,3154.0,1116.0,3170.0,1122.0,3186.0,1130.0,3202.0,1136.0,3218.0,1144.0,3234.0,1150.0,3250.0,1158.0,3266.0,1166.0,3282.0,1172.0,3298.0,1180.0,3314.0,1186.0,3330.0,1194.0,3346.0,1200.0,3362.0,1208.0,3378.0,1214.0,3394.0,1222.0,3410.0,1230.0,3426.0,1236.0,3442.0,1244.0,3458.0,1250.0,3474.0,1258.0,3490.0,1264.0,3506.0,1272.0,3522.0,1278.0,3538.0,1286.0,3554.0,1294.0,3570.0,1300.0,3586.0,1308.0,3602.0,1314.0,3618.0,1322.0,3634.0,1328.0,3650.0,1336.0,3666.0,1342.0,3682.0,1350.0,3698.0,1358.0,3714.0,1364.0,3730.0,1372.0,3746.0,1378.0,3762.0,1386.0,3778.0,1392.0" stroke="black" stroke-width="1" fill="none" />
<polyline points="2006.0,606.0,2042.0,622.0,2078.0,638.0,2114.0,654.0,2150.0,670.0,2186.0,686.0,2222.0,702.0,2258.0,718.0,2294.0,734.0,2330.0,750.0,2366.0,766.0,2402.0,782.0,2438.0,798.0,2474.0,814.0,2510.0,830.0,2546.0,846.0,2582.0,862.0,2618.0,878.0,2654.0,894.0,2690.0,910.0,2726.0,926.0,2762.0,942.0,2798.0,958.0,2834.0,974.0,2870.0,990.0,2906.0,1006.0,2942.0,1022.0,2978.0,1038.0,3014.0,1054.0,3050.0,1070.0,3086.0,1086.0,3122.0,1102.0,3158.0,1118.0,3194.0,1134.0,3230.0,1150.0,3266.0,1166.0,3302.0,1182.0,3338.0,1198.0,3374.0,1214.0,3410.0,1230.0,3446.0,1246.0,3482.0,1262.0,3518.0,1278.0,3554.0,1294.0,3590.0,1310.0,3626.0,1326.0,3662.0,1342.0,3698.0,1358.0,3734.0,1374.0,3770.0,1390.0,3794.0,1414.0,3794.0,1430.0,3794.0,1446.0,3794.0,1462.0,3794.0,1478.0,3794.0,1494.0,3794.0,1510.0,3794.0,1526.0,3794.0,1542.0,3794.0,1558.0,3794.0,1574.0,3794.0,1590.0,3794.0,1606.0,3794.0,1622.0,3794.0,1638.0,3794.0,1654.0,3794.0,1670.0,3794.0,1686.0,3794.0,1702.0,3794.0,1718.0,3794.0,1734.0,3794.0,1750.0,3794.0,1766.0,3794.0,1782.0,3794.0,1798.0,3794.0,1814.0,3794.0,1830.0,3794.0,1846.0,3794.0,1862.0,3794.0,1878.0,3794.0,1894.0,3794.0,1910.0,3794.0,1926.0,3794.0,1942.0,3794.0,1958.0,3794.0,1974.0,3794.0,1990.0,3794.0,2006.0,3794.0,2022.0,3794.0,2038.0,3794.0,2054.0,3794.0,2070.0,3794.0,2086.0,3794.0,2102.0,3794.0,2118.0,3794.0,2134.0,3794.0,2150.0,3794.0,2166.0,3794.0,2182.0,3794.0,2198.0,3794.0,2214.0,3794.0,2230.0,3794.0,2246.0,3794.0,2262.0,3794.0,2278.0,3794.0,2294.0,3794.0,2310.0,3794.0,2326.0,3794.0,2342.0,3794.0,2358.0,3794.0,2374.0,3794.0,2390.0,3794.0,2406.0,3794.0,2422.0,3794.0,2438.0,3794.0,2454.0,3794.0,2470.0,3794.0,2486.0,3794.0,2502.0,3794.0,2518.0,3794.0,2534.0,3794.0,2550.0,3794.0,2566.0,3794.0,2582.0,3794.0,2598.0,3794.0,2614.0,3794.0,2630.0,3794.0,2646.0,3794.0,2662.0,3794.0,2678.0,3794.0,2694.0,3794.0,2710.0,3794.0,2726.0,3794.0,2742.0,3794.0,2758.0,3794.0,2774.0,3794.0,2790.0,3794.0,2806.0,3794.0,2822.0,3794.0,2838.0,3794.0,2854.0,3794.0,2870.0,3794.0,2886.0,3794.0,2902.0,3794.0,2918.0,3794.0,2934.0,3794.0,2950.0,3794.0,2966.0,3794.0,2982.0,3794.0,2998.0,3794.0,3014.0,3794.0,3030.0,3794.0,3046.0,3794.0,3062.0,3794.0,3078.0,3794.0,3094.0,3794.0,3110.0,3794.0,3126.0,3794.0,3142.0,3794.0,3158.0,3794.0,3174.0,3794.0,3190.0,3794.0,3206.0,3794.0,3222.0,3794.0,3238.0,3794.0,3254.0,3794.0,3270.0,3794.0,3286.0,3794.0,3302.0,3794.0,3318.0,3794.0,3334.0,3794.0,3350.0,3794.0,3366.0,3794.0,3382.0,3794.0,3398.0,3794.0,3414.0,3794.0,3430.0,3794.0,3446.0,3794.0,3462.0,3794.0,3478.0,3794.0,3494.0,3794.0,3510.0,3794.0,3526.0,3794.0,3542.0,3794.0,3558.0,3794.0,3574.0,3794.0,3590.0,3794.0,3606.0,3794.0,3622.0,3794.0,3638.0,3794.0,3654.0,3794.0,3670.0,3794.0,3686.0,3794.0,3702.0,3794.0,3718.0,3794.0,3734.0,3794.0,3750.0,3794.0,3766.0,3794.0,3782.0" stroke="black" stroke-width="1" fill="none" />
<polyline points="3788.0,3794.0,3772.0,3794.0,3756.0,3794.0,3740.0,3794.0,3724.0,3794.0,3708.0,3794.0,3692.0,3794.0,3676.0,3794.0,3660.0,3794.0,3644.0,3794.0,3628.0,3794.0,3612.0,3794.0,3596.0,3794.0,3580.0,3794.0,3564.0,3794.0,3548.0,3794.0,3532.0,3794.0,3516.0,3794.0,3500.0,3794.0,3484.0,3794.0,3468.0,3794.0,3452.0,3794.0,3436.0,3794.0,3420.0,3794.0,3404.0,3794.0,3388.0,3794.0,3372.0,3794.0,3356.0,3794.0,3340.0,3794.0,3324.0,3794.0,3308.0,3794.0,3292.0,3794.0,3276.0,3794.0,3260.0,3794.0,3244.0,3794.0,3228.0,3794.0,3212.0,3794.0,3196.0,3794.0,3180.0,3794.0,3164.0,3794.0,3148.0,3794.0,3132.0,3794.0,3116.0,3794.0,3100.0,3794.0,3084.0,3794.0,3068.0,3794.0,3052.0,3794.0,3036.0,3794.0,3020.0,3794.0,3004.0,3794.0,2988.0,3794.0,2972.0,3794.0,2956.0,3794.0,2940.0,3794.0,2924.0,3794.0,2908.0,3794.0,2892.0,3794.0,2876.0,3794.0,2860.0,3794.0,2844.0,3794.0,2828.0,3794.0,2812.0,3794.0,2796.0,3794.0,2780.0,3794.0,2764.0,3794.0,2748.0,3794.0,2732.0,3794.0,2716.0,3794.0,2700.0,3794.0,2684.0,3794.0,2668.0,3794.0,2652.0,3794.0,2636.0,3794.0,2620.0,3794.0,2604.0,3794.0,2588.0,3794.0,2572.0,3794.0,2556.0,3794.0,2540.0,3794.0,2524.0,3794.0,2508.0,3794.0,2492.0,3794.0,2476.0,3794.0,2460.0,3794.0,2444.0,3794.0,2428.0,3794.0,2412.0,3794.0,2396.0,3794.0,2380.0,3794.0,2364.0,3794.0,2348.0,3794.0,2332.0,3794.0,2316.0,3794.0,2300.0,3794.0,2284.0,3794.0,2268.0,3794.0,2252.0,3794.0,2236.0,3794.0,2220.0,3794.0,2204.0,3794.0,2188.0,3794.0,2172.0,3794.0,2156.0,3794.0,2140.0,3794.0,2124.0,3794.0,2108.0,3794.0,2092.0,3794.0,2076.0,3794.0,2060.0,3794.0,2044.0,3794.0,2028.0,3794.0,2012.0,3794.0,1996.0,3794.0,1980.0,3794.0,1964.0,3794.0,1948.0,3794.0,1932.0,3794.0,1916.0,3794.0,1900.0,3794.0,1884.0,3794.0,1868.0,3794.0,1852.0,3794.0,1836.0,3794.0,1820.0,3794.0,1804.0,3794.0,1788.0,3794.0,1772.0,3794.0,1756.0,3794.0,1740.0,3794.0,1724.0,3794.0,1708.0,3794.0,1692.0,3794.0,1676.0,3794.0,1660.0,3794.0,1644.0,3794.0,1628.0,3794.0,1612.0,3794.0,1596.0,3794.0,1580.0,3794.0,1564.0,3794.0,1548.0,3794.0,1532.0,3794.0,1516.0,3794.0,1500.0,3794.0,1484.0,3794.0,1468.0,3794.0,1452.0,3794.0,1436.0,3794.0,1420.0,3794.0,1404.0,3794.0,1388.0,3794.0,1372.0,3794.0,1356.0,3794.0,1340.0,3794.0,1324.0,3794.0,1308.0,3794.0,1284.0,3794.0,1268.0,3794.0,1252.0,3794.0,1236.0,3794.0,1220.0,3794.0,1204.0,3794.0,1188.0,3794.0,1172.0,3794.0,1156.0,3794.0,1140.0,3794.0,1124.0,3794.0,1108.0,3794.0,1092.0,3794.0,1076.0,3794.0,1060.0,3794.0,1044.0,3794.0,1028.0,3794.0,1012.0,3794.0,996.0,3794.0,980.0,3794.0,964.0,3794.0,948.0,3794.0,932.0,3794.0,916.0,3794.0,900.0,3794.0,884.0,3794.0,868.0,3794.0,852.0,3794.0,836.0,3794.0,820.0,3794.0,804.0,3794.0,788.0,3794.0,772.0,3794.0,756.0,3794.0,740.0,3794.0,724.0,3794.0,708.0,3794.0,692.0,3794.0,676.0,3794.0,660.0,3794.0,644.0,3794.0,628.0,3794.0,612.0,3794.0,588.0,3794.0,572.0,3794.0,556.0,3794.0,540.0,3794.0,524.0,3794.0,508.0,3794.0,492.0,3794.0,476.0,3794.0,460.0,3794.0,444.0,3794.0,428.0,3794.0,412.0,3794.0,396.0,3794.0,380.0,3794.0,364.0,3794.0,348.0,3794.0,332.0,3794.0,316.0,3794.0,300.0,3794.0,284.0,3794.0,268.0,3794.0,252.0,3794.0,236.0,3794.0,220.0,3794.0,206.0,3794.0,204.0,3778.0,204.0,3762.0,204.0,3746.0,204.0,3730.0,204.0,3714.0,204.0,3698.0,204.0,3682.0,204.0,3666.0,204.0,3650.0,204.0,3634.0,204.0,3618.0,204.0,3602.0,204.0,3586.0,204.0,3570.0,204.0,3554.0,204.0,3538.0,204.0,3522.0,204.0,3506.0,204.0,3490.0,204.0,3474.0,204.0,3458.0,204.0,3442.0,204.0,3426.0,204.0,3410.0,204.0,3394.0,204.0,3378.0,204.0,3362.0,204.0,3346.0,204.0,3330.0,204.0,3314.0,204.0,3298.0,204.0,3282.0,204.0,3266.0,204.0,3250.0,204.0,3234.0,204.0,3218.0,204.0,3202.0,204.0,3186.0,204.0,3170.0,204.0,3154.0,204.0,3138.0,204.0,3122.0,204.0,3106.0,204.0,3090.0,204.0,3074.0,204.0,3058.0,204.0,3042.0,204.0,3026.0,204.0,3010.0,204.0,2994.0,204.0,2978.0,204.0,2962.0,204.0,2946.0,204.0,2930.0,204.0,2914.0,204.0,2898.0,204.0,2882.0,204.0,2866.0,204.0,2850.0,204.0,2834.0,204.0,2818.0,204.0,2802.0,204.0,2786.0,204.0,2770.0,204.0,2754.0,204.0,2738.0,204.0,2722.0,204.0,2706.0,204.0,2690.0,204.0,2674.0,204.0,2658.0,204.0,2642.0,204.0,2626.0,204.0,2610.0,204.0,2594.0,204.0,2578.0,204.0,2562.0,204.0,2546.0,204.0,2530.0,204.0,2514.0,204.0,2498.0,204.0,2482.0,204.0,2466.0,204.0,2450.0,204.0,2434.0,204.0,2418.0,204.0,2402.0,204.0,2386.0,204.0,2370.0,204.0,2354.0,204.0,2338.0,204.0,2322.0,204.0,2306.0,204.0,2290.0,204.0,2274.0,204.0,2258.0,204.0,2242.0,204.0,2226.0,204.0,2210.0,204.0,2194.0,204.0,2178.0,204.0,2162.0,204.0,2146.0,204.0,2130.0,204.0,2114.0,204.0,2098.0,204.0,2082.0,204.0,2066.0,204.0,2050.0,204.0,2034.0,204.0,2018.0,204.0,2002.0,204.0,1986.0,204.0,1970.0,204.0,1954.0,204.0,1938.0,204.0,1922.0,204.0,1906.0,204.0,1890.0,204.0,1874.0,204.0,1858.0,204.0,1842.0,204.0,1826.0,204.0,1810.0,204.0,1794.0,204.0,1778.0,204.0,1762.0,204.0,1746.0,204.0,1730.0,204.0,1714.0,204.0,1698.0,204.0,1682.0,204.0,1666.0,204.0,1650.0,204.0,1634.0,204.0,1618.0,204.0,1602.0,204.0,1586.0,204.0,1570.0,204.0,1554.0,204.0,1538.0,204.0,1522.0,204.0,1506.0,204.0,1490.0,204.0,1474.0,204.0,1458.0,204.0,1442.0,204.0,1426.0,204.0,1410.0,232.0,1388.0,268.0,1372.0,304.0,1356.0,340.0,1340.0,376.0,1324.0,412.0,1308.0,448.0,1292.0,484.0,1276.0,520.0,1260.0,556.0,1244.0,592.0,1228.0,628.0,1212.0,664.0,1196.0,700.0,1180.0,736.0,1164.0,772.0,1148.0,808.0,1132.0,844.0,1116.0,880.0,1100.0,916.0,1084.0,952.0,1068.0,988.0,1052.0,1024.0,1036.0,1060.0,1020.0,1096.0,1004.0,1132.0,988.0,1168.0,972.0,1204.0,956.0,1240.0,940.0,1276.0,924.0,1312.0,908.0,1348.0,892.0,1384.0,876.0,1420.0,860.0,1456.0,844.0,1492.0,828.0,1528.0,812.0,1564.0,796.0,1600.0,780.0,1636.0,764.0,1672.0,748.0,1708.0,732.0,1744.0,716.0,1780.0,700.0,1816.0,684.0,1852.0,668.0,1888.0,652.0,1924.0,636.0,1960.0,620.0,1996.0,604.0" stroke="black" stroke-width="1" fill="none" />
<polyline points="1996.0,598.0,1960.0,614.0,1924.0,630.0,1888.0,646.0,1852.0,662.0,1816.0,678.0,1780.0,694.0,1744.0,710.0,1708.0,726.0,1672.0,742.0,1636.0,758.0,1600.0,774.0,1564.0,790.0,1528.0,806.0,1492.0,822.0,1456.0,838.0,1420.0,854.0,1384.0,870.0,1348.0,886.0,1312.0,902.0,1276.0,918.0,1240.0,934.0,1204.0,950.0,1168.0,966.0,1132.0,982.0,1096.0,998.0,1060.0,1014.0,1024.0,1030.0,988.0,1046.0,952.0,1062.0,916.0,1078.0,880.0,1094.0,844.0,1110.0,808.0,1126.0,772.0,1142.0,736.0,1158.0,700.0,1174.0,664.0,1190.0,628.0,1206.0,592.0,1222.0,556.0,1238.0,520.0,1254.0,484.0,1270.0,448.0,1286.0,412.0,1302.0,376.0,1318.0,340.0,1334.0,304.0,1350.0,268.0,1366.0,232.0,1382.0,200.0,1398.0,198.0,1414.0,198.0,1430.0,198.0,1446.0,198.0,1462.0,198.0,1478.0,198.0,1494.0,198.0,1510.0,198.0,1526.0,198.0,1542.0,198.0,1558.0,198.0,1574.0,198.0,1590.0,198.0,1606.0,198.0,1622.0,198.0,1638.0,198.0,1654.0,198.0,1670.0,198.0,1686.0,198.0,1702.0,198.0,1718.0,198.0,1734.0,198.0,1750.0,198.0,1766.0,198.0,1782.0,198.0,1798.0,198.0,1814.0,198.0,1830.0,198.0,1846.0,198.0,1862.0,198.0,1878.0,198.0,1894.0,198.0,1910.0,198.0,1926.0,198.0,1942.0,198.0,1958.0,198.0,1974.0,198.0,1990.0,198.0,2006.0,198.0,2022.0,198.0,2038.0,198.0,2054.0,198.0,2070.0,198.0,2086.0,198.0,2102.0,198.0,2118.0,198.0,2134.0,198.0,2150.0,198.0,2166.0,198.0,2182.0,198.0,2198.0,198.0,2214.0,198.0,2230.0,198.0,2246.0,198.0,2262.0,198.0,2278.0,198.0,2294.0,198.0,2310.0,198.0,2326.0,198.0,2342.0,198.0,2358.0,198.0,2374.0,198.0,2390.0,198.0,2406.0,198.0,2422.0,198.0,2438.0,198.0,2454.0,198.0,2470.0,198.0,2486.0,198.0,2502.0,198.0,2518.0,198.0,2534.0,198.0,2550.0,198.0,2566.0,198.0,2582.0,198.0,2598.0,198.0,2614.0,198.0,2630.0,198.0,2646.0,198.0,2662.0,198.0,2678.0,198.0,2694.0,198.0,2710.0,198.0,2726.0,198.0,2742.0,198.0,2758.0,198.0,2774.0,198.0,2790.0,198.0,2806.0,198.0,2822.0,198.0,2838.0,198.0,2854.0,198.0,2870.0,198.0,2886.0,198.0,2902.0,198.0,2918.0,198.0,2934.0,198.0,2950.0,198.0,2966.0,198.0,2982.0,198.0,2998.0,198.0,3014.0,198.0,3030.0,198.0,3046.0,198.0,3062.0,198.0,3078.0,198.0,3094.0,198.0,3110.0,198.0,3126.0,198.0,3142.0,198.0,3158.0,198.0,3174.0,198.0,3190.0,198.0,3206.0,198.0,3222.0,198.0,3238.0,198.0,3254.0,198.0,3270.0,198.0,3286.0,198.0,3302.0,198.0,3318.0,198.0,3334.0,198.0,3350.0,198.0,3366.0,198.0,3382.0,198.0,3398.0,198.0,3414.0,198.0,3430.0,198.0,3446.0,198.0,3462.0,198.0,3478.0,198.0,3494.0,198.0,3510.0,198.0,3526.0,198.0,3542.0,198.0,3558.0,198.0,3574.0,198.0,3590.0,198.0,3606.0,198.0,3622.0,198.0,3638.0,198.0,3654.0,198.0,3670.0,198.0,3686.0,198.0,3702.0,198.0,3718.0,198.0,3734.0,198.0,3750.0,198.0,3766.0,198.0,3782.0,200.0,3798.0,212.0,3800.0,228.0,3800.0,244.0,3800.0,260.0,3800.0,276.0,3800.0,292.0,3800.0,308.0,3800.0,324.0,3800.0,340.0,3800.0,356.0,3800.0,372.0,3800.0,388.0,3800.0,404.0,3800.0,420.0,3800.0,436.0,3800.0,452.0,3800.0,468.0,3800.0,484.0,3800.0,500.0,3800.0,516.0,3800.0,532.0,3800.0,548.0,3800.0,564.0,3800.0,580.0,3800.0,596.0,3800.0,612.0,3800.0,628.0,3800.0,644.0,3800.0,660.0,3800.0,676.0,3800.0,692.0,3800.0,708.0,3800.0,724.0,3800.0,740.0,3800.0,756.0,3800.0,772.0,3800.0,788.0,3800.0,804.0,3800.0,820.0,3800.0,836.0,3800.0,852.0,3800.0,868.0,3800.0,884.0,3800.0,900.0,3800.0,916.0,3800.0,932.0,3800.0,948.0,3800.0,964.0,3800.0,980.0,3800.0,996.0,3800.0,1012.0,3800.0,1028.0,3800.0,1044.0,3800.0,1060.0,3800.0,1076.0,3800.0,1092.0,3800.0,1108.0,3800.0,1124.0,3800.0,1140.0,3800.0,1156.0,3800.0,1172.0,3800.0,1188.0,3800.0,1204.0,3800.0,1220.0,3800.0,1236.0,3800.0,1252.0,3800.0,1268.0,3800.0,1284.0,3800.0,1300.0,3800.0,1316.0,3800.0,1332.0,3800.0,1348.0,3800.0,1364.0,3800.0,1380.0,3800.0,1396.0,3800.0,1412.0,3800.0,1428.0,3800.0,1444.0,3800.0,1460.0,3800.0,1476.0,3800.0,1492.0,3800.0,1508.0,3800.0,1524.0,3800.0,1540.0,3800.0,1556.0,3800.0,1572.0,3800.0,1588.0,3800.0,1604.0,3800.0,1620.0,3800.0,1636.0,3800.0,1652.0,3800.0,1668.0,3800.0,1684.0,3800.0,1700.0,3800.0,1716.0,3800.0,1732.0,3800.0,1748.0,3800.0,1764.0,3800.0,1780.0,3800.0,1796.0,3800.0,1812.0,3800.0,1828.0,3800.0,1844.0,3800.0,1860.0,3800.0,1876.0,3800.0,1892.0,3800.0,1908.0,3800.0,1924.0,3800.0,1940.0,3800.0,1956.0,3800.0,1972.0,3800.0,1988.0,3800.0,2004.0,3800.0,2020.0,3800.0,2036.0,3800.0,2052.0,3800.0,2068.0,3800.0,2084.0,3800.0,2100.0,3800.0,2116.0,3800.0,2132.0,3800.0,2148.0,3800.0,2164.0,3800.0,2180.0,3800.0,2196.0,3800.0,2212.0,3800.0,2228.0,3800.0,2244.0,3800.0,2260.0,3800.0,2276.0,3800.0,2292.0,3800.0,2308.0,3800.0,2324.0,3800.0,2340.0,3800.0,2356.0,3800.0,2372.0,3800.0,2388.0,3800.0,2404.0,3800.0,2420.0,3800.0,2436.0,3800.0,2452.0,3800.0,2468.0,3800.0,2484.0,3800.0,2500.0,3800.0,2516.0,3800.0,2532.0,3800.0,2548.0,3800.0,2564.0,3800.0,2580.0,3800.0,2596.0,3800.0,2612.0,3800.0,2628.0,3800.0,2644.0,3800.0,2660.0,3800.0,2676.0,3800.0,2692.0,3800.0,2708.0,3800.0,2724.0,3800.0,2740.0,3800.0,2756.0,3800.0,2772.0,3800.0,2788.0,3800.0,2804.0,3800.0,2820.0,3800.0,2836.0,3800.0,2852.0,3800.0,2868.0,3800.0,2884.0,3800.0,2900.0,3800.0,2916.0,3800.0,2932.0,3800.0,2948.0,3800.0,2964.0,3800.0,2980.0,3800.0,2996.0,3800.0,3012.0,3800.0,3028.0,3800.0,3044.0,3800.0,3060.0,3800.0,3076.0,3800.0,3092.0,3800.0,3108.0,3800.0,3124.0,3800.0,3140.0,3800.0,3156.0,3800.0,3172.0,3800.0,3188.0,3800.0,3204.0,3800.0,3220.0,3800.0,3236.0,3800.0,3252.0,3800.0,3268.0,3800.0,3284.0,3800.0,3300.0,3800.0,3316.0,3800.0,3332.0,3800.0,3348.0,3800.0,3364.0,3800.0,3380.0,3800.0,3396.0,3800.0,3412.0,3800.0,3428.0,3800.0,3444.0,3800.0,3460.0,3800.0,3476.0,3800.0,3492.0,3800.0,3508.0,3800.0,3524.0,3800.0,3540.0,3800.0,3556.0,3800.0,3572.0,3800.0,3588.0,3800.0,3604.0,3800.0,3620.0,3800.0,3636.0,3800.0,3652.0,3800.0,3668.0,3800.0,3684.0,3800.0,3700.0,3800.0,3716.0,3800.0,3732.0,3800.0,3748.0,3800.0,3764.0,3800.0,3780.0,3800.0,3796.0,3800.0" stroke="black" stroke-width="1" fill="none" />
<polyline points="2868.0,984.0,2832.0,968.0,2796.0,952.0,2760.0,936.0,2724.0,920.0,2688.0,904.0,2652.0,888.0,2616.0,872.0,2580.0,856.0,2544.0,840.0,2508.0,824.0,2472.0,808.0,2436.0,792.0,2400.0,776.0,2364.0,760.0,2328.0,744.0,2292.0,728.0,2256.0,712.0,2220.0,696.0,2184.0,680.0,2148.0,664.0,2112.0,648.0,2076.0,632.0,2040.0,616.0,2004.0,600.0" stroke="black" stroke-width="1" fill="none" />
</svg>