<svg xmlns="http://www.w3.org/2000/svg" height="986px" width="774px" version="1.1"><polyline points="708.0,12.0,742.0,28.0,734.0,44.0,728.0,60.0,720.0,76.0,704.0,92.0,682.0,108.0,674.0,130.0,698.0,146.0,710.0,162.0,716.0,178.0,716.0,194.0,714.0,210.0,710.0,226.0,702.0,242.0,694.0,258.0,684.0,274.0,690.0,294.0,706.0,300.0,722.0,318.0" stroke="black" stroke-width="1" fill="none" />
<polyline points="718.0,330.0,702.0,332.0,686.0,318.0,684.0,302.0,672.0,290.0,672.0,274.0,670.0,258.0,664.0,242.0,660.0,226.0,654.0,210.0,648.0,194.0,638.0,178.0,630.0,160.0,614.0,152.0" stroke="black" stroke-width="1" fill="none" />
<polyline points="602.0,148.0,632.0,164.0,660.0,180.0,660.0,210.0,670.0,240.0" stroke="black" stroke-width="1" fill="none" />
<polyline points="660.0,184.0,644.0,172.0" stroke="black" stroke-width="1" fill="none" />
<polyline points="614.0,200.0,630.0,242.0,646.0,276.0,662.0,292.0,678.0,282.0,694.0,258.0,710.0,222.0" stroke="black" stroke-width="1" fill="none" />
<polyline points="710.0,150.0,694.0,134.0,678.0,126.0,662.0,118.0" stroke="black" stroke-width="1" fill="none" />
<polyline points="668.0,116.0,684.0,108.0,700.0,96.0,716.0,80.0" stroke="black" stroke-width="1" fill="none" />
<polyline points="728.0,24.0,712.0,18.0,696.0,14.0,680.0,12.0,664.0,12.0,648.0,14.0,632.0,16.0,616.0,18.0,598.0,22.0,582.0,26.0,566.0,28.0" stroke="black" stroke-width="1" fill="none" />
<polyline points="546.0,32.0,562.0,34.0,578.0,32.0,594.0,32.0,610.0,30.0,626.0,30.0,642.0,30.0,658.0,30.0,674.0,30.0,690.0,30.0,706.0,34.0,722.0,44.0,738.0,38.0,742.0,42.0,726.0,48.0,706.0,48.0,690.0,52.0,674.0,56.0,658.0,58.0,642.0,60.0,626.0,60.0,610.0,60.0,594.0,60.0,578.0,58.0,562.0,52.0,546.0,44.0,544.0,40.0,570.0,56.0" stroke="black" stroke-width="1" fill="none" />
<polyline points="544.0,40.0,560.0,38.0,576.0,38.0,592.0,36.0,608.0,36.0,624.0,36.0,640.0,36.0,656.0,34.0,672.0,34.0,688.0,36.0,704.0,40.0" stroke="black" stroke-width="1" fill="none" />
<polyline points="718.0,50.0,702.0,54.0,686.0,58.0,670.0,60.0,654.0,64.0,638.0,64.0,622.0,66.0,606.0,66.0,590.0,64.0,574.0,62.0,558.0,56.0,542.0,46.0,536.0,38.0,520.0,40.0,504.0,44.0,488.0,50.0,472.0,56.0,456.0,62.0,436.0,74.0,452.0,58.0,498.0,40.0" stroke="black" stroke-width="1" fill="none" />
<polyline points="504.0,44.0,464.0,60.0,444.0,76.0,452.0,92.0" stroke="black" stroke-width="1" fill="none" />
<polyline points="454.0,86.0,470.0,98.0,486.0,108.0,502.0,110.0,518.0,114.0,534.0,118.0,550.0,122.0,568.0,134.0,584.0,140.0" stroke="black" stroke-width="1" fill="none" />
<polyline points="592.0,148.0,598.0,164.0,602.0,180.0,608.0,196.0,612.0,212.0,618.0,228.0,624.0,244.0,630.0,260.0,638.0,276.0,648.0,292.0,608.0,312.0,580.0,328.0,564.0,354.0,588.0,360.0,604.0,352.0,620.0,344.0,636.0,332.0,652.0,318.0,674.0,314.0,686.0,314.0" stroke="black" stroke-width="1" fill="none" />
<polyline points="692.0,300.0,714.0,316.0" stroke="black" stroke-width="1" fill="none" />
<polyline points="702.0,326.0,686.0,328.0,670.0,318.0,654.0,298.0,638.0,300.0,622.0,306.0,606.0,314.0,590.0,322.0,574.0,332.0,552.0,348.0,536.0,362.0,508.0,366.0,492.0,360.0,478.0,356.0,498.0,336.0,482.0,342.0,466.0,346.0" stroke="black" stroke-width="1" fill="none" />
<polyline points="478.0,356.0,494.0,356.0,510.0,360.0,526.0,364.0,548.0,364.0,564.0,362.0" stroke="black" stroke-width="1" fill="none" />
<polyline points="530.0,374.0,526.0,390.0,526.0,406.0,528.0,422.0,532.0,438.0" stroke="black" stroke-width="1" fill="none" />
<polyline points="494.0,428.0,510.0,442.0,526.0,454.0,542.0,454.0,558.0,448.0,574.0,438.0,590.0,430.0,606.0,424.0" stroke="black" stroke-width="1" fill="none" />
<polyline points="592.0,434.0,572.0,450.0,580.0,440.0,596.0,434.0,612.0,428.0,628.0,426.0,644.0,424.0,660.0,424.0" stroke="black" stroke-width="1" fill="none" />
<polyline points="668.0,434.0,670.0,450.0,670.0,466.0,670.0,482.0,682.0,498.0,702.0,512.0" stroke="black" stroke-width="1" fill="none" />
<polyline points="696.0,510.0,698.0,526.0,698.0,542.0" stroke="black" stroke-width="1" fill="none" />
<polyline points="692.0,562.0,676.0,578.0,652.0,594.0,648.0,610.0,646.0,626.0,660.0,644.0,654.0,658.0,652.0,676.0,656.0,692.0,656.0,708.0,662.0,708.0" stroke="black" stroke-width="1" fill="none" />
<polyline points="666.0,702.0,676.0,686.0,680.0,670.0,666.0,656.0,662.0,654.0,644.0,660.0,628.0,672.0,612.0,678.0,618.0,662.0,628.0,646.0,618.0,636.0,602.0,632.0" stroke="black" stroke-width="1" fill="none" />
<polyline points="590.0,632.0,596.0,648.0" stroke="black" stroke-width="1" fill="none" />
<polyline points="582.0,648.0,566.0,634.0,566.0,634.0,584.0,650.0" stroke="black" stroke-width="1" fill="none" />
<polyline points="562.0,630.0,578.0,630.0,594.0,626.0,610.0,628.0,626.0,632.0,642.0,634.0,658.0,642.0,674.0,644.0,696.0,626.0" stroke="black" stroke-width="1" fill="none" />
<polyline points="688.0,664.0,704.0,674.0" stroke="black" stroke-width="1" fill="none" />
<polyline points="714.0,690.0,714.0,706.0,714.0,722.0,712.0,738.0,710.0,754.0,706.0,770.0,702.0,786.0,694.0,802.0,686.0,818.0,678.0,834.0,668.0,850.0,654.0,866.0,654.0,882.0,642.0,898.0,626.0,914.0,602.0,930.0,568.0,946.0" stroke="black" stroke-width="1" fill="none" />
<polyline points="560.0,916.0,592.0,900.0,624.0,884.0,646.0,868.0,660.0,852.0,670.0,836.0,680.0,820.0,688.0,804.0,696.0,788.0,700.0,772.0,704.0,756.0,708.0,740.0,710.0,724.0,710.0,708.0,710.0,692.0,704.0,676.0,700.0,666.0,686.0,650.0,684.0,634.0,678.0,618.0,668.0,602.0,646.0,582.0,658.0,566.0,662.0,550.0,664.0,534.0,666.0,518.0,674.0,502.0,680.0,486.0,696.0,470.0,708.0,454.0,696.0,432.0" stroke="black" stroke-width="1" fill="none" />
<polyline points="700.0,456.0,700.0,440.0,694.0,436.0,678.0,430.0,662.0,432.0,646.0,436.0,630.0,440.0,614.0,444.0,598.0,450.0,582.0,454.0,566.0,458.0" stroke="black" stroke-width="1" fill="none" />
<polyline points="538.0,478.0,548.0,494.0,552.0,510.0,570.0,524.0,570.0,536.0,576.0,540.0,592.0,536.0,608.0,530.0,624.0,524.0,640.0,516.0,656.0,504.0,672.0,492.0,688.0,480.0,704.0,460.0,720.0,450.0" stroke="black" stroke-width="1" fill="none" />
<polyline points="714.0,452.0,724.0,468.0,726.0,484.0,724.0,500.0,718.0,528.0,708.0,544.0,700.0,560.0,702.0,576.0,704.0,592.0,706.0,610.0,720.0,594.0" stroke="black" stroke-width="1" fill="none" />
<polyline points="696.0,564.0,698.0,580.0,700.0,596.0,702.0,612.0,692.0,628.0,696.0,632.0,706.0,642.0,708.0,658.0,716.0,686.0,732.0,702.0,748.0,728.0" stroke="black" stroke-width="1" fill="none" />
<polyline points="722.0,686.0,736.0,702.0,748.0,718.0,756.0,734.0,762.0,750.0,768.0,766.0,770.0,782.0,772.0,798.0,774.0,814.0,772.0,830.0,768.0,846.0,764.0,862.0,758.0,878.0,748.0,894.0,738.0,910.0,722.0,928.0,704.0,944.0,680.0,960.0,644.0,976.0" stroke="black" stroke-width="1" fill="none" />
<polyline points="546.0,906.0,590.0,890.0,626.0,874.0,632.0,872.0,616.0,880.0,600.0,886.0,584.0,892.0,568.0,900.0,552.0,904.0,536.0,910.0,520.0,914.0,504.0,918.0" stroke="black" stroke-width="1" fill="none" />
<polyline points="506.0,912.0,506.0,926.0,522.0,926.0" stroke="black" stroke-width="1" fill="none" />
<polyline points="502.0,950.0,518.0,954.0,534.0,954.0,550.0,952.0,566.0,948.0,582.0,940.0,598.0,932.0,614.0,922.0,630.0,910.0,646.0,894.0,622.0,894.0,610.0,904.0,626.0,890.0,642.0,882.0,656.0,884.0,648.0,900.0,632.0,916.0,608.0,932.0" stroke="black" stroke-width="1" fill="none" />
<polyline points="556.0,850.0,540.0,844.0,524.0,858.0" stroke="black" stroke-width="1" fill="none" />
<polyline points="496.0,860.0,512.0,846.0,516.0,842.0,500.0,858.0,484.0,884.0,460.0,900.0,474.0,924.0" stroke="black" stroke-width="1" fill="none" />
<polyline points="460.0,906.0,476.0,896.0,492.0,886.0" stroke="black" stroke-width="1" fill="none" />
<polyline points="468.0,928.0,452.0,930.0,436.0,934.0" stroke="black" stroke-width="1" fill="none" />
<polyline points="454.0,926.0,438.0,928.0,422.0,930.0,418.0,934.0,402.0,938.0,386.0,944.0,420.0,930.0,428.0,916.0,440.0,908.0,446.0,888.0,466.0,876.0,450.0,886.0,434.0,896.0,418.0,880.0,420.0,884.0,438.0,900.0,444.0,904.0,460.0,900.0,476.0,890.0,492.0,878.0,496.0,864.0,512.0,864.0,528.0,848.0,544.0,834.0,564.0,818.0,568.0,806.0,584.0,790.0,600.0,778.0,616.0,756.0,612.0,754.0,596.0,758.0,580.0,760.0,564.0,760.0,548.0,758.0" stroke="black" stroke-width="1" fill="none" />
<polyline points="538.0,768.0,540.0,784.0,544.0,800.0,542.0,816.0,520.0,832.0,502.0,848.0,484.0,864.0,462.0,884.0,424.0,904.0,414.0,908.0,430.0,900.0,446.0,912.0,462.0,912.0,478.0,918.0,494.0,916.0,510.0,912.0,526.0,908.0,542.0,902.0,558.0,898.0,574.0,892.0,590.0,886.0,606.0,880.0,622.0,870.0,628.0,852.0,644.0,834.0" stroke="black" stroke-width="1" fill="none" />
<polyline points="650.0,808.0,634.0,838.0,618.0,852.0,602.0,860.0,586.0,862.0,570.0,858.0,554.0,834.0" stroke="black" stroke-width="1" fill="none" />
<polyline points="550.0,840.0,558.0,856.0,562.0,852.0,554.0,836.0,566.0,808.0,582.0,792.0,602.0,776.0,616.0,760.0,630.0,744.0,652.0,722.0,636.0,734.0,620.0,744.0,612.0,732.0,618.0,716.0,624.0,700.0,630.0,684.0,626.0,672.0,638.0,656.0,636.0,640.0,636.0,616.0,612.0,608.0,596.0,618.0,580.0,622.0,564.0,622.0,548.0,632.0,532.0,632.0,516.0,636.0" stroke="black" stroke-width="1" fill="none" />
<polyline points="492.0,638.0,476.0,622.0,460.0,606.0,456.0,610.0,472.0,626.0,488.0,654.0,488.0,670.0" stroke="black" stroke-width="1" fill="none" />
<polyline points="480.0,680.0,464.0,660.0" stroke="black" stroke-width="1" fill="none" />
<polyline points="462.0,654.0,478.0,648.0" stroke="black" stroke-width="1" fill="none" />
<polyline points="484.0,620.0,468.0,608.0,452.0,604.0,454.0,608.0,452.0,624.0,458.0,640.0,462.0,656.0,470.0,672.0" stroke="black" stroke-width="1" fill="none" />
<polyline points="506.0,672.0,498.0,676.0,474.0,682.0,458.0,658.0,442.0,666.0,426.0,686.0,410.0,696.0,388.0,700.0,372.0,692.0,356.0,686.0,340.0,680.0,324.0,674.0,308.0,670.0,292.0,644.0,282.0,618.0,278.0,602.0,274.0,586.0,274.0,570.0,274.0,554.0,268.0,546.0,266.0,528.0,264.0,512.0,270.0,496.0,266.0,488.0,274.0,472.0,280.0,456.0,296.0,444.0,284.0,440.0,288.0,438.0,290.0,422.0,296.0,396.0,298.0,380.0,290.0,374.0,288.0,366.0,298.0,350.0,300.0,334.0,308.0,316.0,310.0,300.0,312.0,284.0,314.0,268.0,312.0,244.0,314.0,228.0,300.0,208.0,280.0,192.0,258.0,176.0,232.0,160.0,234.0,146.0,256.0,130.0,248.0,118.0,232.0,124.0" stroke="black" stroke-width="1" fill="none" />
<polyline points="238.0,116.0,222.0,128.0" stroke="black" stroke-width="1" fill="none" />
<polyline points="210.0,156.0,206.0,172.0,192.0,188.0,174.0,204.0,160.0,220.0,138.0,230.0,128.0,246.0,120.0,262.0,132.0,262.0,120.0,276.0,108.0,292.0,98.0,308.0,94.0,324.0,88.0,340.0,84.0,356.0,78.0,358.0,78.0,374.0" stroke="black" stroke-width="1" fill="none" />
<polyline points="58.0,376.0,72.0,394.0,88.0,412.0,108.0,416.0,124.0,410.0,140.0,416.0,156.0,428.0,172.0,444.0,188.0,446.0,204.0,446.0,220.0,446.0,236.0,446.0,252.0,430.0" stroke="black" stroke-width="1" fill="none" />
<polyline points="230.0,472.0,246.0,480.0,262.0,488.0,278.0,468.0,292.0,484.0,292.0,500.0,294.0,518.0,298.0,534.0,302.0,550.0,310.0,566.0" stroke="black" stroke-width="1" fill="none" />
<polyline points="306.0,542.0,322.0,578.0,338.0,580.0,354.0,582.0,370.0,584.0,386.0,584.0,402.0,586.0,416.0,602.0,418.0,618.0,422.0,634.0,424.0,650.0,428.0,666.0,414.0,692.0,410.0,720.0,412.0,736.0,408.0,752.0,418.0,768.0,412.0,776.0" stroke="black" stroke-width="1" fill="none" />
<polyline points="432.0,766.0,448.0,762.0,466.0,760.0,482.0,756.0,498.0,752.0,514.0,752.0,530.0,752.0,544.0,748.0,546.0,740.0,562.0,730.0,578.0,712.0" stroke="black" stroke-width="1" fill="none" />
<polyline points="590.0,704.0,586.0,720.0,582.0,742.0,598.0,742.0,622.0,748.0,638.0,740.0,654.0,730.0,670.0,706.0" stroke="black" stroke-width="1" fill="none" />
<polyline points="660.0,732.0,662.0,748.0,662.0,764.0,662.0,780.0,660.0,796.0,654.0,812.0,648.0,828.0,636.0,844.0,632.0,866.0,596.0,882.0,554.0,898.0" stroke="black" stroke-width="1" fill="none" />
<polyline points="596.0,906.0,580.0,918.0,564.0,922.0,548.0,926.0,532.0,934.0,516.0,938.0,500.0,942.0,484.0,946.0,468.0,950.0,452.0,950.0,452.0,950.0,472.0,966.0" stroke="black" stroke-width="1" fill="none" />
<polyline points="458.0,954.0,498.0,970.0,518.0,960.0,534.0,960.0,550.0,956.0,566.0,952.0,582.0,946.0,598.0,938.0,614.0,930.0,630.0,918.0,646.0,902.0" stroke="black" stroke-width="1" fill="none" />
<polyline points="762.0,850.0,746.0,888.0,730.0,910.0,714.0,928.0,698.0,942.0,682.0,954.0,666.0,962.0,650.0,970.0,634.0,974.0,618.0,978.0,602.0,980.0,586.0,982.0,570.0,982.0,554.0,980.0,538.0,978.0,522.0,974.0,506.0,972.0,490.0,966.0,474.0,960.0,458.0,954.0" stroke="black" stroke-width="1" fill="none" />
<polyline points="398.0,944.0,414.0,946.0,430.0,946.0,440.0,946.0,456.0,944.0,472.0,944.0,488.0,940.0,504.0,936.0,520.0,932.0" stroke="black" stroke-width="1" fill="none" />
<polyline points="432.0,914.0,416.0,922.0,408.0,924.0,392.0,916.0,376.0,920.0,360.0,918.0" stroke="black" stroke-width="1" fill="none" />
<polyline points="376.0,914.0,392.0,910.0,408.0,918.0" stroke="black" stroke-width="1" fill="none" />
<polyline points="412.0,904.0,396.0,902.0" stroke="black" stroke-width="1" fill="none" />
<polyline points="388.0,888.0,374.0,904.0,380.0,908.0,394.0,898.0,410.0,882.0,426.0,896.0,454.0,890.0,470.0,880.0" stroke="black" stroke-width="1" fill="none" />
<polyline points="422.0,852.0,414.0,868.0,432.0,874.0,448.0,874.0,464.0,872.0,480.0,872.0,496.0,870.0,512.0,870.0,528.0,868.0,544.0,868.0,560.0,868.0,576.0,866.0,592.0,868.0,608.0,864.0,624.0,864.0" stroke="black" stroke-width="1" fill="none" />
<polyline points="548.0,862.0,532.0,864.0,528.0,856.0,544.0,840.0,548.0,824.0,560.0,806.0,554.0,790.0,562.0,774.0,574.0,752.0,590.0,728.0,594.0,712.0,596.0,696.0,594.0,680.0,596.0,664.0,574.0,648.0,556.0,632.0,540.0,604.0,544.0,588.0,558.0,574.0,568.0,558.0,570.0,542.0,550.0,516.0,532.0,500.0,524.0,484.0,532.0,466.0,512.0,446.0,498.0,442.0,496.0,426.0,500.0,410.0,510.0,394.0,520.0,378.0,512.0,376.0,496.0,384.0,480.0,388.0,464.0,390.0,450.0,390.0,434.0,388.0,418.0,386.0,402.0,384.0,386.0,382.0,370.0,378.0,354.0,378.0,338.0,394.0,322.0,404.0,306.0,412.0,290.0,422.0,272.0,422.0,256.0,424.0,240.0,424.0,224.0,422.0,208.0,420.0,180.0,406.0,154.0,390.0,138.0,374.0,126.0,352.0,146.0,336.0,188.0,312.0,206.0,296.0,230.0,280.0,266.0,264.0,260.0,272.0,244.0,278.0,228.0,288.0,212.0,298.0,196.0,312.0,196.0,316.0,212.0,314.0,228.0,312.0,244.0,310.0,260.0,310.0,276.0,312.0,292.0,314.0" stroke="black" stroke-width="1" fill="none" />
<polyline points="288.0,350.0,272.0,352.0,274.0,356.0,294.0,372.0,286.0,378.0,290.0,394.0,288.0,410.0,270.0,434.0,246.0,438.0,236.0,454.0,212.0,468.0,186.0,484.0,172.0,500.0,174.0,500.0,190.0,502.0,206.0,506.0,218.0,510.0" stroke="black" stroke-width="1" fill="none" />
<polyline points="224.0,518.0,246.0,534.0,258.0,550.0,268.0,564.0,250.0,580.0" stroke="black" stroke-width="1" fill="none" />
<polyline points="242.0,578.0,244.0,578.0,228.0,586.0,212.0,588.0,198.0,588.0,182.0,586.0,166.0,578.0,162.0,582.0,150.0,576.0,144.0,578.0,142.0,562.0,140.0,556.0,136.0,552.0,134.0,568.0,128.0,584.0,122.0,600.0,116.0,616.0,108.0,632.0,128.0,648.0,144.0,670.0,152.0,686.0,158.0,702.0,154.0,730.0,148.0,746.0,144.0,764.0,140.0,780.0,138.0,796.0,140.0,812.0,138.0,828.0,144.0,844.0,170.0,850.0,186.0,850.0,202.0,844.0,230.0,842.0,246.0,844.0,262.0,846.0,278.0,848.0,304.0,838.0,320.0,836.0,336.0,836.0,352.0,836.0,372.0,830.0,392.0,838.0,408.0,838.0,410.0,834.0" stroke="black" stroke-width="1" fill="none" />
<polyline points="434.0,824.0,450.0,816.0,466.0,810.0,482.0,802.0,498.0,792.0,514.0,780.0,530.0,768.0,522.0,774.0,500.0,790.0,472.0,806.0" stroke="black" stroke-width="1" fill="none" />
<polyline points="432.0,816.0,448.0,812.0,464.0,804.0,480.0,796.0,496.0,786.0,512.0,776.0,528.0,762.0,544.0,758.0,560.0,754.0,576.0,754.0,592.0,754.0" stroke="black" stroke-width="1" fill="none" />
<polyline points="594.0,764.0,578.0,790.0,562.0,800.0,556.0,796.0,566.0,780.0,574.0,764.0" stroke="black" stroke-width="1" fill="none" />
<polyline points="532.0,770.0,536.0,786.0,538.0,802.0,524.0,818.0" stroke="black" stroke-width="1" fill="none" />
<polyline points="522.0,824.0,534.0,822.0" stroke="black" stroke-width="1" fill="none" />
<polyline points="486.0,744.0,470.0,740.0,454.0,736.0,438.0,750.0" stroke="black" stroke-width="1" fill="none" />
<polyline points="434.0,760.0,450.0,756.0,466.0,754.0,482.0,752.0" stroke="black" stroke-width="1" fill="none" />
<polyline points="436.0,724.0,452.0,730.0,478.0,736.0,494.0,742.0,510.0,746.0,526.0,742.0,546.0,744.0,562.0,742.0,578.0,742.0,602.0,738.0,618.0,716.0" stroke="black" stroke-width="1" fill="none" />
<polyline points="598.0,660.0,582.0,654.0,566.0,640.0,548.0,620.0,532.0,616.0,516.0,624.0,504.0,636.0,488.0,616.0,472.0,604.0,456.0,596.0,436.0,584.0,420.0,568.0,404.0,552.0,392.0,536.0,378.0,520.0,366.0,504.0,384.0,488.0,396.0,472.0,382.0,456.0,364.0,438.0,348.0,436.0,332.0,436.0,316.0,436.0,300.0,438.0,302.0,442.0,318.0,442.0,320.0,460.0,338.0,476.0,352.0,492.0" stroke="black" stroke-width="1" fill="none" />
<polyline points="380.0,484.0,364.0,492.0,348.0,478.0,332.0,462.0,316.0,452.0" stroke="black" stroke-width="1" fill="none" />
<polyline points="326.0,458.0,344.0,474.0,356.0,490.0,362.0,506.0,374.0,522.0,386.0,538.0,400.0,554.0,402.0,570.0,416.0,572.0,434.0,588.0" stroke="black" stroke-width="1" fill="none" />
<polyline points="412.0,592.0,428.0,594.0,444.0,598.0,470.0,610.0,488.0,626.0,474.0,648.0,442.0,666.0,430.0,682.0,432.0,698.0,434.0,714.0,442.0,728.0,438.0,744.0,434.0,746.0,428.0,762.0,426.0,778.0" stroke="black" stroke-width="1" fill="none" />
<polyline points="408.0,826.0,392.0,830.0,376.0,826.0,360.0,820.0" stroke="black" stroke-width="1" fill="none" />
<polyline points="354.0,794.0,338.0,794.0,322.0,792.0,306.0,790.0,290.0,784.0,274.0,776.0" stroke="black" stroke-width="1" fill="none" />
<polyline points="274.0,768.0,300.0,784.0,314.0,772.0" stroke="black" stroke-width="1" fill="none" />
<polyline points="290.0,770.0,274.0,768.0" stroke="black" stroke-width="1" fill="none" />
<polyline points="262.0,792.0,240.0,808.0,232.0,828.0,262.0,838.0,250.0,856.0,244.0,872.0,250.0,894.0,268.0,910.0" stroke="black" stroke-width="1" fill="none" />
<polyline points="310.0,900.0,326.0,892.0,342.0,886.0,358.0,884.0,374.0,880.0,362.0,894.0,342.0,910.0,328.0,916.0,344.0,910.0,360.0,896.0" stroke="black" stroke-width="1" fill="none" />
<polyline points="334.0,888.0,310.0,904.0" stroke="black" stroke-width="1" fill="none" />
<polyline points="336.0,882.0,306.0,898.0,308.0,914.0,324.0,914.0,340.0,906.0,356.0,892.0" stroke="black" stroke-width="1" fill="none" />
<polyline points="392.0,840.0,386.0,824.0,382.0,808.0,380.0,792.0,402.0,778.0,424.0,762.0,428.0,748.0,430.0,732.0,426.0,716.0,428.0,700.0,424.0,680.0,408.0,690.0,392.0,674.0,376.0,652.0,360.0,632.0,344.0,612.0,328.0,588.0" stroke="black" stroke-width="1" fill="none" />
<polyline points="292.0,590.0,276.0,574.0" stroke="black" stroke-width="1" fill="none" />
<polyline points="270.0,578.0,266.0,594.0,260.0,610.0,250.0,626.0,232.0,642.0,238.0,652.0,254.0,654.0,270.0,660.0" stroke="black" stroke-width="1" fill="none" />
<polyline points="308.0,678.0,324.0,704.0,340.0,730.0,356.0,736.0,372.0,742.0,388.0,722.0" stroke="black" stroke-width="1" fill="none" />
<polyline points="388.0,734.0,404.0,710.0" stroke="black" stroke-width="1" fill="none" />
<polyline points="400.0,772.0,384.0,770.0,360.0,786.0,340.0,788.0,324.0,788.0,308.0,786.0,292.0,780.0,276.0,772.0,262.0,768.0,248.0,764.0,232.0,760.0,216.0,754.0,200.0,756.0,184.0,752.0,168.0,754.0,152.0,758.0,132.0,770.0,116.0,792.0,108.0,784.0,100.0,768.0,96.0,752.0,94.0,742.0,90.0,726.0,88.0,710.0,86.0,694.0,82.0,678.0,90.0,662.0,100.0,646.0,102.0,620.0,108.0,604.0,118.0,592.0,102.0,616.0" stroke="black" stroke-width="1" fill="none" />
<polyline points="110.0,632.0,126.0,646.0,150.0,648.0,166.0,644.0" stroke="black" stroke-width="1" fill="none" />
<polyline points="150.0,656.0,166.0,658.0,172.0,676.0,166.0,692.0" stroke="black" stroke-width="1" fill="none" />
<polyline points="160.0,690.0,152.0,674.0,146.0,646.0,146.0,630.0,148.0,614.0,150.0,598.0,162.0,582.0,144.0,600.0" stroke="black" stroke-width="1" fill="none" />
<polyline points="120.0,594.0,112.0,610.0,100.0,606.0,116.0,588.0" stroke="black" stroke-width="1" fill="none" />
<polyline points="100.0,586.0,96.0,602.0,90.0,618.0,88.0,634.0,86.0,650.0,92.0,648.0,114.0,618.0,128.0,584.0,144.0,572.0,172.0,570.0,188.0,568.0,210.0,554.0,226.0,562.0,242.0,562.0,258.0,566.0" stroke="black" stroke-width="1" fill="none" />
<polyline points="256.0,544.0,240.0,528.0,224.0,518.0" stroke="black" stroke-width="1" fill="none" />
<polyline points="212.0,522.0,228.0,514.0,244.0,524.0,260.0,542.0,282.0,556.0,298.0,568.0" stroke="black" stroke-width="1" fill="none" />
<polyline points="282.0,580.0,294.0,596.0,298.0,612.0,296.0,628.0,292.0,644.0,292.0,658.0,284.0,658.0,272.0,674.0,256.0,690.0,228.0,706.0,236.0,726.0,252.0,724.0,268.0,722.0,284.0,722.0,300.0,722.0,316.0,726.0,332.0,732.0,348.0,738.0,364.0,744.0,380.0,766.0,384.0,756.0,400.0,766.0,426.0,754.0,436.0,748.0,462.0,728.0,478.0,706.0,494.0,688.0,510.0,662.0,528.0,678.0,544.0,686.0,560.0,690.0,576.0,690.0,592.0,688.0,608.0,670.0,624.0,642.0,640.0,642.0,656.0,646.0,672.0,654.0,690.0,658.0,706.0,670.0,728.0,690.0,744.0,710.0,760.0,742.0" stroke="black" stroke-width="1" fill="none" />
<polyline points="700.0,772.0,684.0,812.0,668.0,838.0,652.0,860.0,636.0,878.0,620.0,886.0,604.0,894.0,588.0,902.0,572.0,910.0,556.0,918.0,540.0,922.0,524.0,922.0,508.0,922.0,492.0,926.0,476.0,924.0,460.0,918.0,436.0,918.0,420.0,926.0,406.0,930.0,402.0,926.0,386.0,932.0,370.0,936.0,354.0,936.0,338.0,930.0,340.0,936.0,348.0,920.0,354.0,908.0,372.0,892.0,396.0,872.0,394.0,864.0,404.0,846.0,412.0,830.0,418.0,814.0,422.0,798.0,410.0,782.0,408.0,766.0,416.0,750.0,418.0,734.0,414.0,718.0,408.0,702.0,400.0,686.0,388.0,670.0,376.0,654.0,364.0,638.0,350.0,622.0,338.0,606.0,328.0,590.0,318.0,572.0,310.0,556.0,304.0,540.0,300.0,524.0,298.0,508.0,284.0,502.0" stroke="black" stroke-width="1" fill="none" />
<polyline points="294.0,504.0,310.0,500.0,326.0,500.0,342.0,498.0" stroke="black" stroke-width="1" fill="none" />
<polyline points="300.0,504.0,316.0,506.0,332.0,504.0,348.0,502.0,364.0,508.0,380.0,528.0,396.0,548.0,412.0,566.0,428.0,582.0" stroke="black" stroke-width="1" fill="none" />
<polyline points="422.0,588.0,408.0,586.0,396.0,590.0,380.0,590.0,364.0,588.0,348.0,586.0,332.0,584.0,308.0,578.0,292.0,570.0,276.0,558.0,266.0,542.0,270.0,524.0,272.0,508.0,262.0,490.0,232.0,474.0,222.0,470.0" stroke="black" stroke-width="1" fill="none" />
<polyline points="220.0,478.0,236.0,480.0,252.0,488.0" stroke="black" stroke-width="1" fill="none" />
<polyline points="246.0,490.0,230.0,482.0,230.0,484.0,252.0,496.0,272.0,496.0,286.0,466.0,302.0,452.0,318.0,448.0,334.0,444.0,344.0,440.0,360.0,442.0,376.0,438.0,392.0,440.0,408.0,442.0,424.0,446.0,440.0,450.0,456.0,456.0,472.0,462.0" stroke="black" stroke-width="1" fill="none" />
<polyline points="484.0,474.0,494.0,490.0,490.0,508.0,506.0,538.0,510.0,562.0,526.0,592.0,528.0,604.0,538.0,594.0,554.0,582.0,570.0,576.0,582.0,586.0" stroke="black" stroke-width="1" fill="none" />
<polyline points="588.0,576.0,588.0,594.0,592.0,610.0,596.0,608.0,594.0,592.0,588.0,576.0,572.0,566.0,556.0,576.0,540.0,586.0,524.0,578.0" stroke="black" stroke-width="1" fill="none" />
<polyline points="528.0,556.0,524.0,570.0,508.0,544.0" stroke="black" stroke-width="1" fill="none" />
<polyline points="512.0,534.0,540.0,550.0" stroke="black" stroke-width="1" fill="none" />
<polyline points="556.0,518.0,540.0,506.0,524.0,492.0,520.0,496.0,538.0,512.0,552.0,528.0,558.0,542.0,576.0,550.0,592.0,566.0,618.0,574.0,634.0,580.0,650.0,596.0,666.0,584.0,682.0,572.0,698.0,558.0,710.0,540.0,726.0,536.0" stroke="black" stroke-width="1" fill="none" />
<polyline points="722.0,530.0,730.0,546.0,732.0,562.0,728.0,578.0,720.0,594.0,710.0,610.0,722.0,602.0" stroke="black" stroke-width="1" fill="none" />
<polyline points="676.0,614.0,660.0,594.0" stroke="black" stroke-width="1" fill="none" />
<polyline points="620.0,576.0,644.0,592.0,638.0,612.0,632.0,622.0,626.0,640.0,616.0,656.0,608.0,672.0,592.0,696.0,578.0,712.0,564.0,728.0,568.0,732.0,572.0,736.0,572.0,728.0,588.0,712.0" stroke="black" stroke-width="1" fill="none" />
<polyline points="518.0,670.0,524.0,686.0,528.0,702.0,530.0,718.0,532.0,734.0,544.0,748.0,518.0,770.0,496.0,786.0,470.0,802.0,432.0,828.0,424.0,844.0,426.0,854.0,418.0,870.0,396.0,896.0,372.0,898.0,358.0,910.0,374.0,896.0,386.0,882.0,402.0,878.0,418.0,870.0,440.0,848.0,456.0,844.0,472.0,842.0,488.0,836.0,504.0,832.0,520.0,826.0" stroke="black" stroke-width="1" fill="none" />
<polyline points="376.0,796.0,378.0,812.0,382.0,828.0,376.0,840.0,378.0,856.0,372.0,848.0" stroke="black" stroke-width="1" fill="none" />
<polyline points="352.0,854.0,336.0,852.0,318.0,852.0,302.0,850.0" stroke="black" stroke-width="1" fill="none" />
<polyline points="268.0,842.0,284.0,844.0,280.0,856.0,246.0,864.0" stroke="black" stroke-width="1" fill="none" />
<polyline points="244.0,872.0,228.0,856.0" stroke="black" stroke-width="1" fill="none" />
<polyline points="226.0,842.0,228.0,858.0,234.0,874.0,262.0,874.0,278.0,864.0,294.0,850.0,310.0,846.0,326.0,846.0,342.0,848.0,358.0,848.0" stroke="black" stroke-width="1" fill="none" />
<polyline points="368.0,772.0,352.0,774.0,336.0,772.0,348.0,760.0,342.0,744.0,322.0,712.0,306.0,682.0" stroke="black" stroke-width="1" fill="none" />
<polyline points="316.0,678.0,358.0,694.0,396.0,710.0,386.0,726.0,382.0,742.0,398.0,760.0" stroke="black" stroke-width="1" fill="none" />
<polyline points="350.0,784.0,342.0,762.0,338.0,746.0,336.0,730.0,320.0,710.0,310.0,694.0,302.0,678.0,300.0,664.0,284.0,656.0,268.0,678.0,252.0,692.0,236.0,704.0,220.0,708.0,204.0,712.0,188.0,710.0,172.0,706.0,156.0,708.0,140.0,686.0" stroke="black" stroke-width="1" fill="none" />
<polyline points="134.0,682.0,150.0,712.0,172.0,726.0,188.0,736.0,204.0,740.0,220.0,732.0,244.0,728.0,260.0,728.0,276.0,726.0,292.0,726.0,308.0,728.0,324.0,732.0,350.0,766.0,366.0,768.0" stroke="black" stroke-width="1" fill="none" />
<polyline points="332.0,768.0,316.0,768.0,300.0,766.0,284.0,764.0,268.0,764.0,252.0,754.0,236.0,736.0" stroke="black" stroke-width="1" fill="none" />
<polyline points="228.0,736.0,242.0,752.0" stroke="black" stroke-width="1" fill="none" />
<polyline points="210.0,760.0,220.0,766.0,222.0,782.0,228.0,798.0,226.0,814.0,222.0,828.0,198.0,844.0" stroke="black" stroke-width="1" fill="none" />
<polyline points="206.0,848.0,190.0,854.0,174.0,856.0,162.0,868.0,146.0,854.0,130.0,856.0,114.0,856.0,98.0,850.0,82.0,838.0" stroke="black" stroke-width="1" fill="none" />
<polyline points="80.0,826.0,96.0,826.0,112.0,826.0,128.0,828.0,144.0,830.0,164.0,832.0" stroke="black" stroke-width="1" fill="none" />
<polyline points="158.0,822.0,174.0,804.0,190.0,796.0,206.0,806.0,242.0,824.0,258.0,830.0,262.0,828.0,276.0,836.0,292.0,838.0,292.0,834.0,314.0,840.0,330.0,842.0,346.0,840.0,362.0,838.0" stroke="black" stroke-width="1" fill="none" />
<polyline points="372.0,870.0,356.0,878.0,340.0,882.0,324.0,886.0,308.0,894.0,298.0,918.0,282.0,916.0,266.0,908.0,250.0,900.0,210.0,898.0,182.0,894.0" stroke="black" stroke-width="1" fill="none" />
<polyline points="182.0,884.0,190.0,902.0,222.0,918.0" stroke="black" stroke-width="1" fill="none" />
<polyline points="214.0,908.0,230.0,916.0,246.0,922.0,262.0,926.0,278.0,930.0,294.0,934.0,310.0,936.0,320.0,938.0,336.0,938.0" stroke="black" stroke-width="1" fill="none" />
<polyline points="300.0,944.0,284.0,948.0,268.0,952.0,252.0,954.0,236.0,952.0,220.0,948.0" stroke="black" stroke-width="1" fill="none" />
<polyline points="250.0,916.0,234.0,912.0,218.0,906.0,202.0,902.0" stroke="black" stroke-width="1" fill="none" />
<polyline points="192.0,896.0,196.0,904.0,212.0,912.0,228.0,920.0,244.0,926.0,260.0,932.0,276.0,936.0,292.0,938.0" stroke="black" stroke-width="1" fill="none" />
<polyline points="240.0,908.0,224.0,902.0,208.0,896.0,192.0,888.0" stroke="black" stroke-width="1" fill="none" />
<polyline points="188.0,882.0,204.0,884.0,220.0,886.0,236.0,884.0" stroke="black" stroke-width="1" fill="none" />
<polyline points="258.0,910.0,222.0,908.0,198.0,892.0,168.0,880.0,164.0,882.0,176.0,894.0,186.0,910.0,196.0,926.0,204.0,938.0,220.0,944.0,236.0,948.0,252.0,948.0" stroke="black" stroke-width="1" fill="none" />
<polyline points="188.0,922.0,172.0,896.0" stroke="black" stroke-width="1" fill="none" />
<polyline points="162.0,860.0,178.0,872.0,194.0,878.0,210.0,880.0,226.0,880.0" stroke="black" stroke-width="1" fill="none" />
<polyline points="218.0,840.0,222.0,856.0,228.0,872.0,248.0,880.0,264.0,868.0,280.0,856.0" stroke="black" stroke-width="1" fill="none" />
<polyline points="294.0,798.0,278.0,792.0,262.0,792.0,246.0,800.0,226.0,796.0,210.0,806.0,190.0,830.0,204.0,816.0,192.0,798.0,194.0,774.0,196.0,758.0,168.0,732.0,144.0,742.0,128.0,722.0,112.0,684.0" stroke="black" stroke-width="1" fill="none" />
<polyline points="108.0,670.0,124.0,700.0,140.0,734.0" stroke="black" stroke-width="1" fill="none" />
<polyline points="152.0,762.0,168.0,778.0,184.0,792.0,212.0,792.0" stroke="black" stroke-width="1" fill="none" />
<polyline points="190.0,786.0,174.0,776.0,158.0,760.0,158.0,760.0,172.0,776.0,196.0,788.0,212.0,788.0,232.0,792.0,248.0,792.0,264.0,788.0,280.0,788.0,296.0,792.0,312.0,810.0,328.0,808.0,344.0,802.0,366.0,798.0" stroke="black" stroke-width="1" fill="none" />
<polyline points="376.0,770.0,378.0,754.0,344.0,738.0" stroke="black" stroke-width="1" fill="none" />
<polyline points="362.0,690.0,318.0,674.0" stroke="black" stroke-width="1" fill="none" />
<polyline points="312.0,672.0,314.0,688.0,322.0,704.0,330.0,720.0,352.0,736.0,382.0,760.0,374.0,786.0,354.0,802.0,358.0,814.0,366.0,820.0,374.0,826.0,382.0,842.0,382.0,852.0,380.0,868.0" stroke="black" stroke-width="1" fill="none" />
<polyline points="340.0,936.0,324.0,928.0,308.0,930.0,292.0,928.0,256.0,910.0,242.0,894.0,250.0,872.0,256.0,856.0,266.0,840.0,284.0,824.0,306.0,806.0,288.0,790.0,268.0,774.0,260.0,762.0,246.0,750.0,234.0,734.0,224.0,718.0,214.0,694.0,208.0,678.0,206.0,662.0,204.0,634.0,204.0,606.0,206.0,580.0,210.0,556.0,212.0,540.0,216.0,524.0,210.0,512.0,194.0,508.0,178.0,506.0,162.0,506.0" stroke="black" stroke-width="1" fill="none" />
<polyline points="166.0,498.0,182.0,486.0,198.0,478.0" stroke="black" stroke-width="1" fill="none" />
<polyline points="218.0,478.0,222.0,494.0,210.0,512.0,212.0,528.0,208.0,544.0,202.0,570.0,200.0,596.0,198.0,612.0,198.0,628.0,198.0,644.0,202.0,664.0,204.0,680.0,208.0,696.0,216.0,714.0,222.0,730.0,208.0,744.0,218.0,758.0,216.0,768.0,216.0,784.0,212.0,794.0,214.0,802.0,202.0,810.0,186.0,826.0,166.0,844.0,148.0,860.0,158.0,870.0,170.0,870.0,170.0,882.0,182.0,886.0,200.0,902.0,236.0,918.0,268.0,920.0,284.0,926.0,300.0,922.0,316.0,922.0,332.0,920.0,348.0,912.0,364.0,900.0,380.0,884.0,394.0,862.0,400.0,854.0,416.0,846.0,436.0,844.0,452.0,840.0,468.0,836.0,484.0,832.0,500.0,828.0,516.0,822.0,532.0,816.0,550.0,794.0" stroke="black" stroke-width="1" fill="none" />
<polyline points="518.0,744.0,526.0,728.0,524.0,712.0,520.0,696.0,516.0,680.0,512.0,664.0" stroke="black" stroke-width="1" fill="none" />
<polyline points="458.0,612.0,472.0,628.0,470.0,644.0,462.0,670.0,476.0,686.0,474.0,702.0,462.0,718.0,452.0,738.0,434.0,764.0,430.0,780.0,428.0,796.0,426.0,812.0,432.0,816.0,422.0,820.0,414.0,836.0,406.0,852.0,408.0,868.0,416.0,888.0,408.0,904.0,378.0,908.0,360.0,920.0,364.0,912.0,380.0,902.0,396.0,888.0,402.0,868.0,416.0,862.0,432.0,870.0,448.0,868.0,464.0,866.0,480.0,866.0,496.0,854.0,512.0,840.0,528.0,824.0,536.0,820.0,554.0,810.0,554.0,798.0,570.0,770.0" stroke="black" stroke-width="1" fill="none" />
<polyline points="702.0,782.0,686.0,818.0,670.0,846.0,654.0,866.0,634.0,858.0,614.0,856.0,632.0,840.0,644.0,824.0,650.0,808.0,654.0,792.0,656.0,776.0,658.0,760.0,656.0,744.0,660.0,728.0,666.0,712.0,676.0,696.0,682.0,680.0,686.0,664.0" stroke="black" stroke-width="1" fill="none" />
<polyline points="702.0,628.0,676.0,626.0,660.0,600.0,634.0,600.0,618.0,580.0,602.0,572.0,586.0,572.0" stroke="black" stroke-width="1" fill="none" />
<polyline points="574.0,576.0,578.0,592.0,584.0,608.0" stroke="black" stroke-width="1" fill="none" />
<polyline points="586.0,600.0,584.0,584.0,584.0,568.0,576.0,552.0,554.0,528.0,538.0,510.0,522.0,498.0,506.0,512.0" stroke="black" stroke-width="1" fill="none" />
<polyline points="502.0,518.0,518.0,530.0,534.0,536.0,550.0,536.0" stroke="black" stroke-width="1" fill="none" />
<polyline points="566.0,522.0,550.0,502.0" stroke="black" stroke-width="1" fill="none" />
<polyline points="556.0,498.0,558.0,514.0" stroke="black" stroke-width="1" fill="none" />
<polyline points="558.0,502.0,572.0,518.0,564.0,534.0,594.0,550.0" stroke="black" stroke-width="1" fill="none" />
<polyline points="618.0,580.0,626.0,596.0,600.0,630.0,600.0,646.0,600.0,664.0,598.0,680.0,622.0,680.0" stroke="black" stroke-width="1" fill="none" />
<polyline points="644.0,644.0,644.0,660.0,648.0,682.0,650.0,698.0,654.0,714.0,642.0,730.0,612.0,756.0,600.0,766.0,598.0,774.0" stroke="black" stroke-width="1" fill="none" />
<polyline points="766.0,854.0,750.0,890.0,734.0,914.0,720.0,930.0,704.0,944.0,688.0,956.0,672.0,964.0,656.0,972.0,640.0,978.0,624.0,982.0,608.0,984.0,592.0,986.0,576.0,986.0,560.0,986.0,544.0,984.0,528.0,982.0,512.0,978.0,496.0,974.0,480.0,968.0,464.0,962.0,448.0,952.0,432.0,952.0,416.0,952.0,400.0,950.0,384.0,948.0,380.0,948.0,370.0,946.0,354.0,942.0,338.0,944.0,322.0,944.0,306.0,946.0,320.0,934.0,338.0,906.0,358.0,890.0,372.0,870.0,368.0,854.0,366.0,844.0,362.0,828.0,338.0,810.0,354.0,796.0,354.0,778.0,380.0,772.0,400.0,766.0,392.0,756.0,388.0,740.0,394.0,724.0,400.0,708.0,398.0,694.0,388.0,678.0,376.0,662.0,362.0,646.0,350.0,630.0,338.0,614.0,326.0,598.0,316.0,582.0,284.0,566.0,264.0,548.0,260.0,532.0,260.0,516.0,262.0,500.0,248.0,486.0,208.0,478.0,230.0,462.0,272.0,444.0,284.0,428.0,272.0,434.0,256.0,446.0,238.0,454.0,220.0,452.0,202.0,450.0,186.0,452.0,182.0,450.0,166.0,458.0,166.0,454.0,150.0,454.0,138.0,450.0,136.0,444.0,118.0,428.0,104.0,426.0,96.0,410.0,94.0,394.0,98.0,378.0,104.0,362.0,112.0,346.0,106.0,330.0,88.0,310.0,72.0,338.0" stroke="black" stroke-width="1" fill="none" />
<polyline points="74.0,348.0,90.0,316.0,100.0,330.0,106.0,346.0" stroke="black" stroke-width="1" fill="none" />
<polyline points="102.0,332.0,100.0,312.0" stroke="black" stroke-width="1" fill="none" />
<polyline points="120.0,314.0,136.0,282.0,154.0,278.0,160.0,294.0,172.0,310.0,158.0,326.0,128.0,346.0,144.0,338.0,160.0,330.0,174.0,340.0,190.0,336.0,200.0,334.0,208.0,334.0,224.0,336.0,240.0,338.0,256.0,344.0,272.0,348.0,288.0,346.0,304.0,336.0,320.0,334.0,320.0,338.0,308.0,344.0,318.0,344.0" stroke="black" stroke-width="1" fill="none" />
<polyline points="338.0,344.0,352.0,360.0,348.0,376.0,332.0,392.0" stroke="black" stroke-width="1" fill="none" />
<polyline points="360.0,386.0,366.0,402.0,370.0,418.0,374.0,434.0" stroke="black" stroke-width="1" fill="none" />
<polyline points="368.0,456.0,382.0,472.0,374.0,488.0,376.0,514.0,392.0,536.0,406.0,552.0,422.0,570.0,438.0,584.0" stroke="black" stroke-width="1" fill="none" />
<polyline points="468.0,602.0,488.0,618.0,500.0,634.0,520.0,630.0,536.0,628.0,558.0,626.0,574.0,626.0" stroke="black" stroke-width="1" fill="none" />
<polyline points="556.0,538.0,540.0,542.0,524.0,540.0,508.0,530.0" stroke="black" stroke-width="1" fill="none" />
<polyline points="498.0,498.0,482.0,482.0,484.0,478.0,490.0,494.0,494.0,510.0,502.0,508.0" stroke="black" stroke-width="1" fill="none" />
<polyline points="546.0,488.0,562.0,506.0,584.0,526.0,600.0,528.0,616.0,520.0,632.0,512.0" stroke="black" stroke-width="1" fill="none" />
<polyline points="646.0,518.0,642.0,534.0,642.0,550.0,644.0,566.0" stroke="black" stroke-width="1" fill="none" />
<polyline points="648.0,532.0,648.0,552.0,646.0,536.0,646.0,520.0" stroke="black" stroke-width="1" fill="none" />
<polyline points="664.0,504.0,662.0,520.0,660.0,536.0,656.0,552.0,652.0,568.0" stroke="black" stroke-width="1" fill="none" />
<polyline points="694.0,536.0,692.0,520.0,682.0,504.0" stroke="black" stroke-width="1" fill="none" />
<polyline points="696.0,480.0,696.0,496.0,706.0,510.0,712.0,522.0,704.0,538.0,692.0,554.0,676.0,570.0,656.0,586.0,666.0,610.0,676.0,626.0,678.0,642.0,678.0,652.0,640.0,662.0,636.0,678.0,630.0,694.0,626.0,710.0,620.0,726.0,610.0,742.0,602.0,760.0,588.0,776.0,576.0,792.0,574.0,806.0,560.0,822.0,546.0,828.0,532.0,844.0,516.0,860.0,502.0,878.0,478.0,894.0,458.0,912.0" stroke="black" stroke-width="1" fill="none" />
<polyline points="258.0,944.0,242.0,942.0,226.0,940.0,208.0,942.0,184.0,918.0,174.0,902.0,166.0,886.0,150.0,870.0,134.0,854.0,116.0,834.0,126.0,814.0,112.0,792.0,122.0,774.0,138.0,758.0,138.0,742.0,130.0,726.0,122.0,710.0,116.0,694.0,110.0,678.0,104.0,660.0,90.0,650.0,100.0,634.0,98.0,618.0,102.0,602.0,118.0,586.0,128.0,570.0,132.0,554.0,132.0,538.0,140.0,522.0,140.0,502.0,160.0,496.0,182.0,480.0,182.0,462.0,172.0,446.0,156.0,430.0,142.0,412.0,132.0,396.0,124.0,380.0,124.0,364.0,146.0,348.0,170.0,332.0,178.0,330.0,172.0,308.0,156.0,282.0" stroke="black" stroke-width="1" fill="none" />
<polyline points="158.0,266.0,174.0,256.0,190.0,246.0,206.0,238.0,222.0,232.0,238.0,226.0,254.0,222.0,270.0,220.0,286.0,220.0,302.0,220.0,330.0,226.0,356.0,242.0,374.0,266.0,372.0,282.0,364.0,298.0,352.0,314.0,336.0,330.0,350.0,346.0,358.0,362.0,354.0,378.0,338.0,394.0,310.0,410.0,310.0,406.0,326.0,396.0,342.0,382.0,366.0,382.0,382.0,386.0,398.0,392.0,414.0,392.0,430.0,392.0,446.0,396.0,462.0,396.0,478.0,394.0,494.0,390.0,510.0,386.0,526.0,372.0,542.0,370.0,558.0,368.0,574.0,366.0,590.0,386.0,606.0,414.0,630.0,436.0,646.0,430.0,664.0,436.0,664.0,452.0,666.0,468.0,664.0,484.0,652.0,506.0,638.0,506.0,612.0,522.0,602.0,552.0,618.0,570.0,634.0,574.0,650.0,584.0,666.0,578.0,682.0,564.0,698.0,546.0,714.0,526.0" stroke="black" stroke-width="1" fill="none" />
<polyline points="654.0,498.0,638.0,500.0,622.0,502.0,606.0,506.0,590.0,512.0,588.0,514.0,600.0,502.0" stroke="black" stroke-width="1" fill="none" />
<polyline points="636.0,478.0,630.0,462.0,624.0,446.0" stroke="black" stroke-width="1" fill="none" />
<polyline points="634.0,438.0,624.0,454.0,628.0,470.0,632.0,486.0,648.0,504.0" stroke="black" stroke-width="1" fill="none" />
<polyline points="528.0,466.0,512.0,456.0,500.0,450.0,492.0,438.0,476.0,424.0,458.0,408.0,442.0,402.0,426.0,396.0" stroke="black" stroke-width="1" fill="none" />
<polyline points="432.0,394.0,448.0,410.0,466.0,426.0,470.0,442.0,474.0,458.0,480.0,478.0,484.0,494.0,490.0,510.0,494.0,526.0,502.0,542.0,508.0,558.0,508.0,574.0,516.0,574.0,510.0,590.0,508.0,606.0,516.0,608.0,510.0,624.0,498.0,640.0,494.0,656.0,494.0,672.0,486.0,692.0,476.0,708.0,464.0,724.0,486.0,740.0" stroke="black" stroke-width="1" fill="none" />
<polyline points="416.0,682.0,422.0,666.0,420.0,650.0,416.0,634.0,414.0,618.0,410.0,602.0,410.0,578.0,406.0,562.0" stroke="black" stroke-width="1" fill="none" />
<polyline points="394.0,526.0,390.0,510.0,388.0,494.0,382.0,490.0,366.0,496.0,342.0,480.0,326.0,464.0,310.0,456.0,292.0,454.0,280.0,442.0,276.0,436.0,262.0,450.0,246.0,456.0,230.0,462.0,214.0,468.0,198.0,470.0,182.0,470.0,166.0,470.0,150.0,466.0,134.0,462.0,118.0,450.0,102.0,432.0,86.0,410.0,76.0,394.0,72.0,378.0,72.0,362.0,76.0,346.0,82.0,330.0,84.0,336.0" stroke="black" stroke-width="1" fill="none" />
<polyline points="98.0,376.0,114.0,352.0,136.0,352.0,152.0,346.0,168.0,334.0,180.0,326.0,196.0,322.0,212.0,318.0,228.0,316.0,244.0,316.0,260.0,316.0,278.0,318.0,294.0,320.0,308.0,324.0,324.0,324.0,340.0,318.0,356.0,300.0" stroke="black" stroke-width="1" fill="none" />
<polyline points="368.0,300.0,376.0,316.0,394.0,342.0,402.0,358.0,408.0,374.0" stroke="black" stroke-width="1" fill="none" />
<polyline points="414.0,398.0,430.0,402.0,446.0,408.0,462.0,416.0,478.0,420.0,494.0,410.0" stroke="black" stroke-width="1" fill="none" />
<polyline points="530.0,380.0,532.0,396.0,532.0,412.0,534.0,428.0,538.0,444.0" stroke="black" stroke-width="1" fill="none" />
<polyline points="520.0,346.0,504.0,346.0" stroke="black" stroke-width="1" fill="none" />
<polyline points="484.0,324.0,456.0,350.0,452.0,376.0,460.0,402.0,468.0,410.0,482.0,438.0,492.0,440.0,510.0,456.0,528.0,472.0,514.0,496.0,506.0,512.0,512.0,528.0,530.0,554.0,534.0,558.0,522.0,574.0,530.0,590.0,528.0,596.0,532.0,612.0,530.0,610.0,540.0,602.0,556.0,616.0,572.0,616.0,586.0,614.0" stroke="black" stroke-width="1" fill="none" />
<polyline points="400.0,526.0,396.0,510.0,392.0,494.0" stroke="black" stroke-width="1" fill="none" />
<polyline points="386.0,466.0,370.0,456.0,354.0,452.0,338.0,450.0" stroke="black" stroke-width="1" fill="none" />
<polyline points="330.0,448.0,346.0,446.0,362.0,448.0,378.0,454.0,394.0,466.0" stroke="black" stroke-width="1" fill="none" />
<polyline points="416.0,400.0,422.0,416.0,426.0,432.0,432.0,458.0,434.0,474.0,438.0,490.0,440.0,506.0,442.0,522.0,444.0,538.0,446.0,554.0,448.0,570.0,450.0,586.0,462.0,610.0,478.0,626.0,502.0,644.0,504.0,660.0,498.0,676.0" stroke="black" stroke-width="1" fill="none" />
<polyline points="292.0,636.0,276.0,614.0" stroke="black" stroke-width="1" fill="none" />
<polyline points="288.0,594.0,272.0,578.0,256.0,616.0,240.0,636.0,224.0,654.0,208.0,656.0,192.0,662.0,166.0,674.0,150.0,668.0" stroke="black" stroke-width="1" fill="none" />
<polyline points="148.0,662.0,164.0,664.0,180.0,658.0,196.0,656.0" stroke="black" stroke-width="1" fill="none" />
<polyline points="148.0,654.0,164.0,650.0,180.0,650.0,196.0,650.0,212.0,648.0,228.0,638.0,244.0,624.0,260.0,592.0,274.0,604.0,278.0,620.0,282.0,636.0,280.0,652.0,268.0,672.0,250.0,688.0" stroke="black" stroke-width="1" fill="none" />
<polyline points="272.0,664.0,256.0,660.0,240.0,656.0,218.0,646.0,238.0,630.0,252.0,614.0,258.0,598.0,262.0,582.0,258.0,574.0,242.0,584.0,226.0,590.0,210.0,594.0,194.0,594.0,178.0,590.0,178.0,590.0,180.0,606.0,180.0,622.0,178.0,638.0,186.0,644.0,202.0,646.0" stroke="black" stroke-width="1" fill="none" />
<polyline points="166.0,674.0,176.0,656.0,174.0,632.0,176.0,616.0,174.0,600.0,164.0,584.0" stroke="black" stroke-width="1" fill="none" />
<polyline points="138.0,538.0,144.0,554.0,160.0,572.0,148.0,588.0,144.0,604.0,140.0,620.0,140.0,636.0,140.0,660.0,138.0,676.0,142.0,692.0,152.0,708.0,158.0,714.0,176.0,730.0,192.0,756.0,188.0,772.0,190.0,788.0,168.0,810.0,158.0,826.0,154.0,842.0,166.0,838.0,170.0,828.0,186.0,826.0,202.0,810.0,208.0,812.0,224.0,812.0,232.0,820.0,248.0,820.0,264.0,818.0,280.0,818.0,296.0,814.0,318.0,816.0,334.0,814.0,346.0,810.0,350.0,804.0,366.0,790.0,386.0,776.0,392.0,784.0,408.0,778.0" stroke="black" stroke-width="1" fill="none" />
<polyline points="304.0,820.0,288.0,822.0,272.0,828.0,262.0,836.0,246.0,840.0,230.0,836.0,208.0,834.0,192.0,832.0,192.0,836.0,176.0,840.0,148.0,842.0,142.0,836.0,156.0,816.0,170.0,800.0,174.0,784.0,158.0,768.0,132.0,764.0,116.0,780.0,100.0,764.0" stroke="black" stroke-width="1" fill="none" />
<polyline points="102.0,782.0,90.0,760.0,74.0,732.0" stroke="black" stroke-width="1" fill="none" />
<polyline points="82.0,736.0,74.0,720.0,74.0,718.0,60.0,724.0" stroke="black" stroke-width="1" fill="none" />
<polyline points="88.0,734.0,84.0,718.0,82.0,702.0,82.0,686.0,80.0,682.0,70.0,698.0,64.0,714.0,60.0,730.0,56.0,746.0,56.0,762.0,56.0,778.0,60.0,794.0,66.0,810.0,80.0,828.0,96.0,844.0" stroke="black" stroke-width="1" fill="none" />
<polyline points="62.0,850.0,78.0,876.0,94.0,888.0,110.0,898.0,126.0,906.0,142.0,914.0,158.0,920.0,174.0,924.0" stroke="black" stroke-width="1" fill="none" />
<polyline points="124.0,850.0,108.0,848.0,92.0,840.0,76.0,832.0,60.0,844.0,56.0,840.0,78.0,836.0,98.0,852.0" stroke="black" stroke-width="1" fill="none" />
<polyline points="108.0,820.0,92.0,820.0,76.0,822.0,60.0,790.0,56.0,794.0,66.0,832.0,60.0,848.0,66.0,864.0,80.0,880.0,102.0,896.0,134.0,912.0" stroke="black" stroke-width="1" fill="none" />
<polyline points="186.0,934.0,170.0,928.0,154.0,924.0,138.0,918.0,122.0,912.0,106.0,902.0,90.0,892.0,74.0,880.0,58.0,856.0" stroke="black" stroke-width="1" fill="none" />
<polyline points="136.0,770.0,134.0,786.0,134.0,802.0,136.0,818.0,150.0,826.0,166.0,804.0" stroke="black" stroke-width="1" fill="none" />
<polyline points="134.0,768.0,120.0,784.0,118.0,800.0,118.0,816.0,130.0,838.0" stroke="black" stroke-width="1" fill="none" />
<polyline points="250.0,868.0,282.0,862.0,300.0,846.0,306.0,832.0,302.0,828.0,302.0,810.0,284.0,794.0" stroke="black" stroke-width="1" fill="none" />
<polyline points="234.0,756.0,218.0,750.0,194.0,750.0,178.0,748.0,162.0,750.0,140.0,736.0,132.0,720.0,124.0,704.0,118.0,688.0,110.0,662.0,106.0,646.0" stroke="black" stroke-width="1" fill="none" />
<polyline points="108.0,640.0,130.0,656.0,132.0,672.0,136.0,688.0,142.0,704.0,152.0,720.0,146.0,736.0,156.0,722.0,172.0,732.0,188.0,742.0,214.0,740.0,230.0,736.0,246.0,756.0" stroke="black" stroke-width="1" fill="none" />
<polyline points="290.0,632.0,292.0,616.0,290.0,600.0,280.0,584.0" stroke="black" stroke-width="1" fill="none" />
<polyline points="244.0,494.0,228.0,488.0,226.0,476.0,210.0,478.0,182.0,480.0,166.0,492.0,150.0,506.0,146.0,512.0,152.0,510.0,150.0,494.0" stroke="black" stroke-width="1" fill="none" />
<polyline points="178.0,466.0,162.0,464.0,146.0,460.0,130.0,452.0,130.0,440.0,114.0,434.0,110.0,426.0,94.0,426.0,78.0,406.0" stroke="black" stroke-width="1" fill="none" />
<polyline points="72.0,414.0,88.0,442.0,110.0,460.0,122.0,494.0,138.0,506.0" stroke="black" stroke-width="1" fill="none" />
<polyline points="112.0,524.0,96.0,526.0,98.0,522.0,100.0,506.0,102.0,490.0,98.0,484.0" stroke="black" stroke-width="1" fill="none" />
<polyline points="108.0,484.0,118.0,500.0,124.0,516.0,102.0,532.0,86.0,548.0,76.0,564.0,68.0,580.0,66.0,596.0,80.0,592.0,96.0,580.0,108.0,570.0,124.0,546.0,150.0,562.0,166.0,566.0,182.0,564.0,198.0,562.0,212.0,566.0,228.0,566.0,244.0,568.0" stroke="black" stroke-width="1" fill="none" />
<polyline points="256.0,536.0,238.0,520.0,222.0,504.0,228.0,488.0" stroke="black" stroke-width="1" fill="none" />
<polyline points="296.0,484.0,296.0,468.0" stroke="black" stroke-width="1" fill="none" />
<polyline points="266.0,402.0,272.0,396.0,282.0,380.0" stroke="black" stroke-width="1" fill="none" />
<polyline points="290.0,366.0,274.0,356.0" stroke="black" stroke-width="1" fill="none" />
<polyline points="262.0,354.0,280.0,370.0,272.0,386.0,262.0,402.0,264.0,406.0,264.0,418.0,280.0,414.0" stroke="black" stroke-width="1" fill="none" />
<polyline points="198.0,418.0,182.0,412.0,166.0,404.0,150.0,392.0,134.0,376.0,118.0,368.0,102.0,376.0" stroke="black" stroke-width="1" fill="none" />
<polyline points="112.0,372.0,102.0,388.0,102.0,404.0,110.0,420.0,122.0,436.0,122.0,448.0,132.0,448.0,148.0,444.0,164.0,448.0,190.0,460.0,206.0,466.0,222.0,460.0" stroke="black" stroke-width="1" fill="none" />
<polyline points="150.0,430.0,136.0,402.0" stroke="black" stroke-width="1" fill="none" />
<polyline points="146.0,376.0,122.0,372.0,118.0,376.0,134.0,410.0,146.0,426.0" stroke="black" stroke-width="1" fill="none" />
<polyline points="128.0,458.0,102.0,464.0,86.0,450.0,70.0,422.0,54.0,380.0" stroke="black" stroke-width="1" fill="none" />
<polyline points="70.0,424.0,80.0,440.0,88.0,456.0,100.0,472.0,98.0,488.0,96.0,504.0,94.0,520.0,92.0,536.0,96.0,538.0,80.0,556.0,72.0,588.0,78.0,572.0,86.0,556.0,102.0,540.0,122.0,524.0,142.0,512.0,124.0,500.0,114.0,484.0,104.0,468.0,92.0,452.0,82.0,436.0,74.0,420.0,66.0,404.0,62.0,388.0,56.0,372.0,54.0,356.0,52.0,340.0,50.0,324.0,52.0,308.0,56.0,292.0,58.0,276.0,64.0,260.0,72.0,244.0,58.0,276.0,54.0,274.0,70.0,236.0,76.0,246.0,80.0,262.0,84.0,278.0,88.0,294.0,88.0,310.0,78.0,326.0,72.0,342.0,68.0,358.0,66.0,374.0,70.0,390.0,76.0,404.0,86.0,420.0,104.0,436.0,108.0,452.0,112.0,456.0,102.0,474.0,118.0,498.0,130.0,530.0,118.0,546.0,106.0,562.0,96.0,580.0,72.0,584.0,88.0,554.0,104.0,538.0,120.0,526.0" stroke="black" stroke-width="1" fill="none" />
<polyline points="128.0,540.0,118.0,556.0,106.0,572.0,98.0,584.0,92.0,600.0,86.0,616.0,82.0,632.0,80.0,648.0,82.0,664.0,74.0,680.0,66.0,696.0,70.0,724.0,78.0,740.0,86.0,756.0,96.0,772.0,102.0,788.0,108.0,804.0,116.0,810.0,126.0,810.0,126.0,820.0,140.0,848.0,142.0,858.0,156.0,872.0,172.0,876.0,178.0,892.0,188.0,912.0,204.0,932.0,220.0,934.0,236.0,938.0,252.0,940.0,268.0,940.0,284.0,942.0" stroke="black" stroke-width="1" fill="none" />
<polyline points="86.0,680.0,62.0,692.0,58.0,676.0" stroke="black" stroke-width="1" fill="none" />
<polyline points="96.0,552.0,92.0,568.0,82.0,584.0,86.0,582.0,102.0,568.0,118.0,546.0" stroke="black" stroke-width="1" fill="none" />
<polyline points="68.0,428.0,68.0,444.0,60.0,460.0,58.0,476.0,60.0,500.0,58.0,516.0,56.0,532.0,54.0,548.0,50.0,564.0,48.0,582.0,48.0,600.0,48.0,616.0,50.0,632.0,52.0,648.0,54.0,676.0,66.0,694.0,82.0,664.0,98.0,648.0,114.0,644.0,130.0,654.0,148.0,676.0,168.0,696.0,184.0,704.0,200.0,706.0,216.0,700.0,232.0,700.0,248.0,690.0,264.0,674.0,290.0,670.0,306.0,674.0,322.0,680.0,338.0,686.0,354.0,692.0,370.0,696.0,386.0,704.0" stroke="black" stroke-width="1" fill="none" />
<polyline points="528.0,672.0,514.0,656.0,512.0,640.0,516.0,624.0,516.0,600.0,520.0,584.0,514.0,560.0,508.0,544.0,506.0,528.0,500.0,514.0,506.0,498.0,514.0,486.0,490.0,464.0,478.0,464.0,476.0,448.0,472.0,432.0,470.0,416.0,436.0,400.0" stroke="black" stroke-width="1" fill="none" />
<polyline points="458.0,382.0,454.0,366.0" stroke="black" stroke-width="1" fill="none" />
<polyline points="434.0,360.0,450.0,358.0,466.0,354.0,482.0,350.0,498.0,348.0,514.0,340.0,530.0,342.0,546.0,346.0,562.0,334.0,578.0,322.0,594.0,314.0,610.0,306.0" stroke="black" stroke-width="1" fill="none" />
<polyline points="618.0,274.0,602.0,258.0,586.0,238.0,570.0,220.0,554.0,206.0,532.0,186.0,516.0,174.0,500.0,168.0,484.0,170.0,468.0,172.0,452.0,174.0,436.0,174.0" stroke="black" stroke-width="1" fill="none" />
<polyline points="448.0,168.0,464.0,168.0,480.0,166.0,496.0,164.0,510.0,160.0,526.0,158.0" stroke="black" stroke-width="1" fill="none" />
<polyline points="516.0,168.0,532.0,178.0" stroke="black" stroke-width="1" fill="none" />
<polyline points="540.0,160.0,524.0,162.0,498.0,160.0,482.0,154.0,466.0,160.0,450.0,166.0" stroke="black" stroke-width="1" fill="none" />
<polyline points="492.0,120.0,508.0,130.0,534.0,134.0,550.0,130.0,572.0,130.0" stroke="black" stroke-width="1" fill="none" />
<polyline points="608.0,124.0,624.0,130.0,640.0,124.0,628.0,134.0" stroke="black" stroke-width="1" fill="none" />
<polyline points="608.0,196.0,624.0,240.0,640.0,276.0" stroke="black" stroke-width="1" fill="none" />
<polyline points="660.0,308.0,678.0,324.0,684.0,340.0,684.0,356.0,686.0,372.0,686.0,388.0,688.0,404.0,700.0,424.0,708.0,440.0,714.0,444.0,726.0,460.0,732.0,476.0,732.0,492.0,728.0,508.0,722.0,524.0,732.0,540.0,738.0,556.0,736.0,572.0,730.0,588.0,720.0,604.0,710.0,618.0,710.0,634.0,712.0,650.0,712.0,666.0,718.0,682.0,728.0,698.0,738.0,714.0,748.0,730.0,756.0,746.0,762.0,762.0,766.0,778.0,768.0,794.0,768.0,810.0,768.0,826.0,764.0,842.0,760.0,858.0,754.0,874.0,744.0,890.0,734.0,906.0,720.0,922.0,702.0,938.0,680.0,954.0,646.0,970.0" stroke="black" stroke-width="1" fill="none" />
<polyline points="726.0,510.0,710.0,512.0,692.0,508.0,676.0,502.0,658.0,494.0,642.0,494.0,626.0,496.0,610.0,500.0,594.0,506.0,578.0,514.0,562.0,496.0,546.0,478.0,522.0,478.0,506.0,480.0,490.0,470.0,474.0,468.0,458.0,462.0,442.0,456.0,426.0,452.0,410.0,448.0,394.0,446.0,378.0,444.0,376.0,420.0,370.0,400.0,372.0,384.0" stroke="black" stroke-width="1" fill="none" />
<polyline points="346.0,336.0,362.0,334.0,378.0,332.0,394.0,332.0,410.0,334.0,426.0,338.0,442.0,344.0,448.0,340.0,464.0,336.0,480.0,332.0,496.0,330.0,512.0,328.0,538.0,328.0,564.0,346.0,580.0,358.0,596.0,350.0,612.0,342.0,628.0,332.0,642.0,332.0,642.0,332.0,646.0,348.0,652.0,364.0,656.0,380.0,660.0,396.0,662.0,412.0" stroke="black" stroke-width="1" fill="none" />
<polyline points="622.0,450.0,606.0,442.0,590.0,446.0,574.0,450.0,558.0,458.0,542.0,466.0,538.0,476.0,522.0,486.0,498.0,480.0,482.0,472.0,484.0,442.0,490.0,422.0,496.0,406.0,508.0,390.0,516.0,374.0,534.0,356.0,546.0,346.0,546.0,330.0,538.0,328.0" stroke="black" stroke-width="1" fill="none" />
<polyline points="508.0,300.0,492.0,292.0" stroke="black" stroke-width="1" fill="none" />
<polyline points="502.0,302.0,486.0,292.0,470.0,296.0,454.0,304.0,438.0,312.0" stroke="black" stroke-width="1" fill="none" />
<polyline points="422.0,288.0,438.0,292.0,454.0,292.0,472.0,288.0,440.0,304.0,428.0,300.0,440.0,288.0,456.0,286.0,472.0,288.0,496.0,286.0,512.0,278.0,528.0,274.0,544.0,268.0" stroke="black" stroke-width="1" fill="none" />
<polyline points="540.0,276.0,536.0,276.0,534.0,292.0,538.0,294.0,528.0,320.0,536.0,326.0,500.0,340.0,516.0,334.0,538.0,322.0,554.0,334.0,568.0,358.0" stroke="black" stroke-width="1" fill="none" />
<polyline points="546.0,302.0,546.0,308.0,530.0,312.0,522.0,314.0,506.0,318.0,490.0,324.0,474.0,328.0,458.0,332.0,430.0,336.0,426.0,320.0,428.0,304.0,436.0,282.0,420.0,278.0,418.0,272.0" stroke="black" stroke-width="1" fill="none" />
<polyline points="424.0,266.0,440.0,270.0,456.0,272.0,472.0,268.0" stroke="black" stroke-width="1" fill="none" />
<polyline points="494.0,268.0,478.0,272.0,458.0,280.0,442.0,282.0,436.0,278.0,420.0,282.0" stroke="black" stroke-width="1" fill="none" />
<polyline points="444.0,276.0,428.0,270.0,412.0,266.0,396.0,264.0,378.0,254.0,356.0,260.0,340.0,258.0,324.0,238.0,324.0,238.0,344.0,264.0,360.0,282.0" stroke="black" stroke-width="1" fill="none" />
<polyline points="368.0,300.0,384.0,318.0,400.0,328.0,416.0,330.0,432.0,334.0,448.0,330.0,464.0,326.0,480.0,320.0,496.0,316.0,512.0,310.0,528.0,306.0" stroke="black" stroke-width="1" fill="none" />
<polyline points="530.0,272.0,488.0,288.0,452.0,304.0,432.0,318.0,448.0,320.0,464.0,320.0" stroke="black" stroke-width="1" fill="none" />
<polyline points="446.0,324.0,424.0,324.0,408.0,298.0,392.0,272.0,396.0,270.0,406.0,286.0,416.0,302.0,434.0,308.0,450.0,300.0,466.0,294.0,470.0,280.0,486.0,284.0,502.0,278.0,518.0,270.0,534.0,266.0" stroke="black" stroke-width="1" fill="none" />
<polyline points="538.0,260.0,504.0,276.0,496.0,300.0" stroke="black" stroke-width="1" fill="none" />
<polyline points="546.0,234.0,548.0,216.0,556.0,200.0,548.0,176.0,548.0,160.0,528.0,144.0,500.0,142.0,484.0,144.0,468.0,134.0,452.0,124.0,436.0,116.0,420.0,108.0,420.0,104.0,440.0,120.0,468.0,136.0,496.0,154.0,526.0,176.0" stroke="black" stroke-width="1" fill="none" />
<polyline points="538.0,200.0,552.0,184.0,554.0,168.0" stroke="black" stroke-width="1" fill="none" />
<polyline points="556.0,162.0,538.0,152.0,522.0,140.0,506.0,146.0,480.0,148.0,464.0,138.0,448.0,128.0,432.0,120.0,416.0,112.0" stroke="black" stroke-width="1" fill="none" />
<polyline points="452.0,90.0,436.0,80.0,420.0,80.0,404.0,80.0,388.0,82.0,372.0,84.0" stroke="black" stroke-width="1" fill="none" />
<polyline points="364.0,90.0,388.0,94.0,412.0,110.0,442.0,126.0,468.0,142.0,460.0,158.0,434.0,174.0,448.0,164.0,464.0,156.0,490.0,156.0,516.0,174.0,534.0,190.0,544.0,218.0,542.0,234.0" stroke="black" stroke-width="1" fill="none" />
<polyline points="554.0,206.0,570.0,222.0,584.0,238.0,598.0,254.0,608.0,270.0,618.0,286.0,620.0,302.0,586.0,318.0,562.0,334.0,568.0,350.0,588.0,374.0,604.0,398.0,620.0,422.0,636.0,420.0,652.0,420.0,668.0,418.0,682.0,422.0,698.0,422.0,714.0,434.0" stroke="black" stroke-width="1" fill="none" />
<polyline points="716.0,318.0,700.0,302.0,684.0,298.0,668.0,296.0,650.0,314.0,646.0,294.0,630.0,298.0,616.0,270.0,600.0,246.0,584.0,228.0,568.0,212.0,554.0,190.0,538.0,200.0,522.0,206.0,506.0,212.0,490.0,214.0,474.0,216.0,458.0,218.0,442.0,222.0,426.0,224.0,410.0,228.0,396.0,226.0,380.0,234.0,364.0,224.0,348.0,204.0,332.0,186.0,314.0,174.0,298.0,158.0,282.0,142.0,266.0,126.0,250.0,134.0,234.0,146.0,218.0,154.0,208.0,154.0,180.0,158.0,164.0,178.0,146.0,208.0,130.0,232.0,114.0,262.0,98.0,296.0,106.0,284.0,112.0,268.0,120.0,252.0,130.0,236.0,138.0,220.0,150.0,204.0,158.0,188.0,168.0,172.0,182.0,156.0,200.0,140.0,218.0,124.0,240.0,108.0,238.0,92.0,242.0,84.0,242.0,70.0,272.0,74.0,256.0,74.0,252.0,78.0,268.0,78.0,284.0,78.0,282.0,86.0,294.0,102.0,312.0,124.0,318.0,140.0,322.0,156.0,322.0,172.0,322.0,188.0,322.0,204.0,338.0,224.0,362.0,240.0,382.0,238.0,398.0,236.0,414.0,232.0,430.0,228.0,446.0,226.0,462.0,224.0,478.0,220.0,494.0,218.0,510.0,216.0,526.0,210.0,542.0,204.0,558.0,192.0" stroke="black" stroke-width="1" fill="none" />
<polyline points="558.0,204.0,576.0,220.0,590.0,236.0,604.0,252.0,614.0,268.0,626.0,286.0,638.0,312.0,648.0,336.0,654.0,352.0,658.0,368.0,662.0,384.0,664.0,400.0,668.0,418.0,690.0,444.0,690.0,460.0,684.0,476.0,678.0,480.0,694.0,466.0,720.0,460.0" stroke="black" stroke-width="1" fill="none" />
<polyline points="658.0,312.0,642.0,328.0,618.0,344.0,586.0,360.0,580.0,376.0,592.0,392.0,602.0,408.0,606.0,424.0,570.0,440.0,540.0,456.0,540.0,468.0,548.0,484.0,564.0,500.0,576.0,516.0,580.0,532.0,594.0,534.0,600.0,550.0,608.0,564.0,612.0,580.0,620.0,596.0,598.0,618.0,614.0,614.0,630.0,606.0,634.0,612.0" stroke="black" stroke-width="1" fill="none" />
<polyline points="720.0,328.0,718.0,312.0,696.0,296.0" stroke="black" stroke-width="1" fill="none" />
<polyline points="656.0,174.0,640.0,162.0,624.0,148.0,608.0,150.0,592.0,146.0,576.0,150.0,560.0,154.0,536.0,142.0,530.0,130.0,514.0,128.0,498.0,118.0" stroke="black" stroke-width="1" fill="none" />
<polyline points="488.0,116.0,504.0,116.0,520.0,118.0,536.0,124.0" stroke="black" stroke-width="1" fill="none" />
<polyline points="530.0,94.0,564.0,114.0,572.0,126.0,588.0,124.0,604.0,126.0,614.0,120.0,630.0,120.0" stroke="black" stroke-width="1" fill="none" />
<polyline points="718.0,68.0,702.0,88.0,686.0,100.0,670.0,110.0,654.0,118.0,638.0,114.0,622.0,114.0,606.0,116.0,590.0,106.0,574.0,92.0,558.0,82.0,542.0,74.0,526.0,68.0,510.0,64.0,494.0,60.0,478.0,58.0" stroke="black" stroke-width="1" fill="none" />
<polyline points="472.0,62.0,488.0,64.0,504.0,68.0,520.0,72.0,536.0,78.0,552.0,86.0,568.0,94.0" stroke="black" stroke-width="1" fill="none" />
<polyline points="574.0,110.0,548.0,106.0,532.0,100.0,516.0,94.0,500.0,90.0,484.0,86.0,468.0,84.0,452.0,82.0,452.0,82.0,468.0,98.0,484.0,114.0,506.0,130.0,508.0,144.0,482.0,154.0" stroke="black" stroke-width="1" fill="none" />
<polyline points="454.0,102.0,438.0,100.0,422.0,100.0,406.0,100.0,390.0,94.0,374.0,88.0,358.0,88.0,342.0,92.0,326.0,98.0,310.0,108.0,282.0,110.0,266.0,112.0,258.0,118.0,242.0,124.0,226.0,132.0,210.0,140.0,194.0,150.0,178.0,146.0,162.0,146.0,146.0,142.0,130.0,158.0,114.0,178.0,98.0,198.0,82.0,224.0,86.0,206.0,98.0,190.0,110.0,174.0,124.0,158.0,120.0,152.0,104.0,160.0,88.0,170.0" stroke="black" stroke-width="1" fill="none" />
<polyline points="78.0,188.0,80.0,172.0,96.0,158.0,112.0,150.0,128.0,144.0,144.0,136.0,160.0,124.0,176.0,112.0,192.0,102.0,208.0,92.0,224.0,88.0,246.0,84.0,262.0,84.0,278.0,90.0,286.0,90.0,302.0,80.0,308.0,90.0,318.0,80.0,334.0,82.0,344.0,72.0,360.0,68.0,376.0,66.0,392.0,64.0,408.0,62.0,424.0,60.0,440.0,60.0" stroke="black" stroke-width="1" fill="none" />
<polyline points="510.0,64.0,550.0,80.0,576.0,96.0,588.0,112.0,596.0,112.0,586.0,130.0,606.0,136.0,604.0,140.0,624.0,150.0,642.0,166.0,646.0,182.0,654.0,198.0,660.0,214.0,666.0,230.0,672.0,246.0,674.0,262.0,678.0,278.0,692.0,270.0,708.0,242.0" stroke="black" stroke-width="1" fill="none" />
<polyline points="600.0,154.0,596.0,134.0,576.0,146.0,560.0,150.0,536.0,144.0,512.0,128.0,494.0,112.0,476.0,110.0,460.0,108.0,444.0,106.0,428.0,104.0,412.0,108.0,396.0,104.0,380.0,104.0,364.0,104.0,348.0,106.0,332.0,106.0" stroke="black" stroke-width="1" fill="none" />
<polyline points="324.0,102.0,332.0,118.0,344.0,134.0,354.0,150.0,364.0,166.0,372.0,182.0,382.0,198.0,390.0,214.0,406.0,232.0,406.0,248.0,412.0,250.0" stroke="black" stroke-width="1" fill="none" />
<polyline points="390.0,268.0,406.0,286.0,422.0,310.0" stroke="black" stroke-width="1" fill="none" />
<polyline points="472.0,340.0,460.0,350.0,444.0,354.0,432.0,360.0,426.0,328.0,416.0,312.0,406.0,296.0,396.0,280.0,386.0,264.0" stroke="black" stroke-width="1" fill="none" />
<polyline points="382.0,196.0,366.0,164.0,350.0,142.0,334.0,120.0" stroke="black" stroke-width="1" fill="none" />
<polyline points="348.0,132.0,358.0,148.0,370.0,164.0,378.0,180.0,386.0,196.0,394.0,212.0" stroke="black" stroke-width="1" fill="none" />
<polyline points="358.0,224.0,344.0,208.0,328.0,190.0" stroke="black" stroke-width="1" fill="none" />
<polyline points="334.0,190.0,348.0,206.0,364.0,224.0,374.0,248.0,390.0,252.0,406.0,256.0,422.0,256.0,438.0,258.0,454.0,258.0,470.0,258.0,486.0,256.0,502.0,254.0,518.0,254.0,534.0,250.0,550.0,248.0,566.0,244.0" stroke="black" stroke-width="1" fill="none" />
<polyline points="570.0,250.0,554.0,252.0,538.0,256.0,522.0,260.0,508.0,264.0,490.0,260.0,474.0,262.0,458.0,262.0,442.0,262.0,426.0,262.0,410.0,260.0,394.0,258.0,378.0,262.0,366.0,252.0,350.0,236.0,334.0,226.0,318.0,238.0" stroke="black" stroke-width="1" fill="none" />
<polyline points="324.0,234.0,340.0,250.0,352.0,260.0,352.0,276.0,374.0,300.0,382.0,316.0,386.0,336.0,394.0,352.0,400.0,368.0,398.0,392.0,414.0,408.0,418.0,424.0,422.0,440.0,428.0,462.0,430.0,478.0,432.0,494.0,436.0,510.0,438.0,526.0,440.0,542.0,440.0,558.0,442.0,574.0,442.0,598.0,448.0,614.0,450.0,630.0,454.0,646.0,440.0,662.0,436.0,664.0,452.0,654.0,468.0,646.0,492.0,642.0,514.0,652.0,530.0,672.0,546.0,680.0,562.0,684.0,578.0,684.0,596.0,688.0,612.0,674.0" stroke="black" stroke-width="1" fill="none" />
<polyline points="408.0,370.0,392.0,338.0,370.0,328.0,354.0,330.0,338.0,332.0" stroke="black" stroke-width="1" fill="none" />
<polyline points="356.0,272.0,356.0,254.0,340.0,250.0,324.0,232.0" stroke="black" stroke-width="1" fill="none" />
<polyline points="330.0,260.0,308.0,262.0,292.0,264.0,276.0,266.0,274.0,264.0,240.0,280.0,214.0,296.0,196.0,312.0,202.0,336.0" stroke="black" stroke-width="1" fill="none" />
<polyline points="166.0,346.0,136.0,358.0,152.0,352.0,168.0,346.0,184.0,342.0,200.0,340.0,216.0,342.0,232.0,348.0,248.0,348.0" stroke="black" stroke-width="1" fill="none" />
<polyline points="276.0,380.0,260.0,404.0,244.0,418.0,228.0,418.0,212.0,416.0,196.0,412.0,180.0,406.0,164.0,396.0,148.0,384.0,150.0,370.0,160.0,354.0,162.0,350.0,146.0,366.0,138.0,374.0,154.0,356.0" stroke="black" stroke-width="1" fill="none" />
<polyline points="116.0,374.0,124.0,390.0,126.0,406.0,118.0,422.0,124.0,424.0,132.0,434.0,148.0,440.0" stroke="black" stroke-width="1" fill="none" />
<polyline points="126.0,312.0,142.0,284.0,158.0,272.0,174.0,302.0,190.0,310.0,206.0,296.0,222.0,284.0,238.0,276.0,254.0,270.0,270.0,264.0,286.0,260.0,302.0,258.0,318.0,254.0,334.0,254.0" stroke="black" stroke-width="1" fill="none" />
<polyline points="394.0,208.0,378.0,178.0,362.0,152.0,346.0,128.0,330.0,114.0,314.0,108.0" stroke="black" stroke-width="1" fill="none" />
<polyline points="324.0,102.0,340.0,100.0,356.0,100.0,372.0,98.0,376.0,94.0" stroke="black" stroke-width="1" fill="none" />
<polyline points="312.0,80.0,312.0,96.0,304.0,112.0,308.0,128.0,314.0,144.0,316.0,160.0,328.0,184.0,336.0,200.0,350.0,216.0,364.0,232.0,368.0,246.0,368.0,266.0,366.0,282.0,358.0,298.0,344.0,314.0,328.0,338.0,346.0,320.0,362.0,300.0" stroke="black" stroke-width="1" fill="none" />
<polyline points="314.0,168.0,298.0,152.0,282.0,136.0,266.0,120.0,252.0,104.0,248.0,88.0,262.0,96.0,246.0,94.0" stroke="black" stroke-width="1" fill="none" />
<polyline points="266.0,90.0,250.0,88.0,234.0,90.0,218.0,94.0,202.0,102.0,186.0,110.0,168.0,124.0,152.0,136.0,164.0,126.0,184.0,112.0,212.0,96.0" stroke="black" stroke-width="1" fill="none" />
<polyline points="220.0,88.0,186.0,104.0,164.0,120.0,144.0,136.0,142.0,146.0,130.0,158.0,116.0,174.0,104.0,190.0,94.0,206.0,84.0,222.0,80.0,238.0,84.0,254.0,88.0,270.0,92.0,286.0,102.0,300.0,118.0,278.0,128.0,246.0,144.0,220.0,172.0,206.0,188.0,190.0,202.0,174.0,218.0,162.0,226.0,162.0,242.0,170.0,258.0,180.0,274.0,192.0,290.0,206.0" stroke="black" stroke-width="1" fill="none" />
<polyline points="308.0,160.0,292.0,144.0,276.0,128.0,274.0,120.0" stroke="black" stroke-width="1" fill="none" />
<polyline points="266.0,126.0,282.0,142.0,298.0,158.0,312.0,174.0,318.0,190.0,318.0,206.0,320.0,228.0,318.0,244.0,316.0,260.0,308.0,276.0,306.0,292.0,304.0,308.0,304.0,332.0,308.0,356.0,304.0,364.0,306.0,374.0,302.0,390.0,298.0,406.0,296.0,430.0,290.0,456.0,284.0,470.0,280.0,486.0,278.0,502.0,282.0,518.0,278.0,534.0,282.0,534.0,280.0,556.0,306.0,572.0,328.0,598.0,344.0,620.0,360.0,640.0,376.0,662.0,392.0,682.0,414.0,710.0,418.0,716.0,434.0,710.0,446.0,724.0,462.0,718.0,478.0,696.0" stroke="black" stroke-width="1" fill="none" />
<polyline points="366.0,240.0,350.0,228.0,334.0,222.0,312.0,216.0,296.0,204.0,280.0,190.0,264.0,178.0,248.0,168.0,232.0,160.0,228.0,164.0,256.0,180.0,278.0,196.0" stroke="black" stroke-width="1" fill="none" />
<polyline points="300.0,214.0,284.0,214.0,268.0,216.0,252.0,218.0,236.0,222.0,220.0,228.0,204.0,234.0,188.0,242.0,172.0,250.0,156.0,262.0" stroke="black" stroke-width="1" fill="none" />
<polyline points="138.0,246.0,122.0,266.0" stroke="black" stroke-width="1" fill="none" />
<polyline points="118.0,272.0,134.0,258.0" stroke="black" stroke-width="1" fill="none" />
<polyline points="150.0,208.0,148.0,224.0,146.0,240.0,148.0,256.0,146.0,272.0,132.0,288.0,124.0,304.0,120.0,320.0,118.0,336.0,114.0,358.0,132.0,338.0,148.0,330.0,164.0,324.0" stroke="black" stroke-width="1" fill="none" />
<polyline points="156.0,204.0,172.0,176.0,188.0,158.0" stroke="black" stroke-width="1" fill="none" />
<polyline points="152.0,142.0,168.0,140.0,184.0,144.0,200.0,140.0,216.0,126.0,232.0,114.0,246.0,102.0,260.0,102.0,276.0,94.0,292.0,98.0,308.0,100.0,322.0,94.0,338.0,88.0,342.0,78.0,358.0,82.0,374.0,78.0,390.0,76.0,406.0,76.0,422.0,76.0,438.0,68.0,448.0,78.0,464.0,78.0,480.0,80.0,496.0,84.0,512.0,88.0,528.0,92.0,544.0,98.0,560.0,106.0,576.0,106.0,592.0,116.0,604.0,134.0,620.0,138.0,636.0,132.0,652.0,124.0,668.0,126.0,684.0,134.0,700.0,146.0,716.0,176.0" stroke="black" stroke-width="1" fill="none" />
<polyline points="744.0,28.0,728.0,18.0,712.0,12.0,696.0,8.0,680.0,8.0,664.0,8.0,648.0,10.0,632.0,12.0,616.0,14.0,600.0,16.0,584.0,20.0,568.0,24.0,552.0,26.0,536.0,30.0,520.0,34.0,504.0,40.0,488.0,44.0,472.0,50.0,456.0,56.0,440.0,56.0,424.0,56.0,408.0,56.0,392.0,60.0,376.0,62.0,360.0,64.0,344.0,68.0,328.0,72.0,312.0,74.0,296.0,74.0,280.0,66.0,264.0,64.0,248.0,68.0,232.0,76.0,216.0,80.0,200.0,84.0,184.0,88.0,168.0,92.0,152.0,98.0,136.0,104.0,120.0,110.0,104.0,116.0,88.0,124.0,72.0,132.0,56.0,142.0,40.0,154.0,24.0,170.0,8.0,198.0" stroke="black" stroke-width="1" fill="none" />
<polyline points="14.0,196.0,30.0,172.0,46.0,156.0,62.0,144.0,78.0,136.0,94.0,126.0,110.0,120.0,126.0,112.0,142.0,106.0,158.0,100.0,174.0,96.0,190.0,90.0,206.0,86.0,224.0,84.0,250.0,72.0,266.0,68.0" stroke="black" stroke-width="1" fill="none" />
<polyline points="274.0,94.0,246.0,110.0,226.0,126.0,208.0,140.0,190.0,156.0,174.0,172.0,164.0,188.0,156.0,204.0,154.0,220.0,152.0,236.0,154.0,252.0,148.0,278.0,136.0,294.0,128.0,310.0,124.0,326.0,124.0,342.0,112.0,368.0,136.0,380.0,140.0,390.0,152.0,396.0,180.0,412.0" stroke="black" stroke-width="1" fill="none" />
<polyline points="196.0,242.0,236.0,226.0,232.0,222.0,192.0,238.0,168.0,254.0,162.0,264.0,160.0,280.0,168.0,296.0,180.0,312.0,198.0,328.0,230.0,344.0,238.0,350.0,254.0,352.0,270.0,358.0,286.0,378.0,298.0,366.0,308.0,350.0,312.0,356.0,328.0,334.0,334.0,342.0,350.0,356.0" stroke="black" stroke-width="1" fill="none" />
<polyline points="184.0,200.0,170.0,216.0,156.0,232.0,170.0,216.0" stroke="black" stroke-width="1" fill="none" />
<polyline points="124.0,158.0,108.0,176.0,92.0,198.0,76.0,218.0,78.0,202.0,80.0,186.0,88.0,170.0,114.0,154.0" stroke="black" stroke-width="1" fill="none" />
<polyline points="116.0,148.0,88.0,164.0,76.0,180.0,72.0,196.0,72.0,212.0,74.0,228.0,66.0,244.0,60.0,260.0,54.0,276.0,50.0,292.0,48.0,308.0,46.0,324.0,46.0,340.0,48.0,356.0,52.0,372.0,56.0,388.0,62.0,404.0,68.0,420.0,64.0,436.0,62.0,452.0,64.0,472.0,62.0,488.0,56.0,504.0,52.0,520.0,50.0,536.0,48.0,552.0,46.0,568.0,44.0,584.0,44.0,600.0,44.0,616.0,44.0,632.0,46.0,648.0,50.0,664.0,54.0,680.0,58.0,696.0,60.0,712.0,54.0,728.0,52.0,744.0,50.0,760.0,52.0,776.0,54.0,792.0,60.0,808.0,68.0,824.0,56.0,840.0,58.0,856.0,66.0,872.0,82.0,888.0,106.0,904.0,140.0,920.0" stroke="black" stroke-width="1" fill="none" />
<polyline points="252.0,138.0,234.0,154.0,212.0,174.0,198.0,186.0,216.0,170.0,236.0,152.0,252.0,138.0,268.0,118.0,284.0,118.0,300.0,112.0" stroke="black" stroke-width="1" fill="none" />
<polyline points="190.0,90.0,146.0,100.0,104.0,116.0,72.0,132.0,48.0,148.0,30.0,164.0,16.0,180.0,10.0,196.0,10.0,212.0,14.0,208.0,16.0,192.0,26.0,176.0,42.0,160.0,62.0,144.0,90.0,128.0,124.0,112.0" stroke="black" stroke-width="1" fill="none" />
<polyline points="512.0,70.0,552.0,86.0,574.0,106.0,562.0,116.0,552.0,138.0,548.0,154.0,556.0,162.0,564.0,178.0,556.0,194.0,526.0,210.0" stroke="black" stroke-width="1" fill="none" />
<polyline points="514.0,94.0,554.0,110.0,558.0,134.0,574.0,136.0,600.0,156.0,604.0,172.0,610.0,188.0,616.0,204.0,620.0,220.0,626.0,236.0,632.0,252.0,640.0,268.0,648.0,284.0,654.0,302.0,636.0,306.0,636.0,322.0,618.0,338.0,586.0,354.0,590.0,380.0,602.0,396.0,610.0,412.0,620.0,430.0,618.0,438.0" stroke="black" stroke-width="1" fill="none" />
<polyline points="546.0,50.0,538.0,34.0" stroke="black" stroke-width="1" fill="none" />
<polyline points="712.0,18.0,740.0,34.0,722.0,56.0,716.0,72.0,702.0,88.0,680.0,104.0,662.0,120.0,694.0,136.0,710.0,152.0,718.0,168.0,722.0,184.0,720.0,200.0,718.0,216.0,712.0,232.0,706.0,248.0,696.0,264.0,686.0,280.0,670.0,298.0,668.0,310.0,694.0,326.0,690.0,350.0,690.0,366.0,692.0,382.0,692.0,398.0" stroke="black" stroke-width="1" fill="none" />
</svg>