<svg xmlns="http://www.w3.org/2000/svg" height="508px" width="506px" version="1.1"><polyline points="478.0,270.0,496.0,286.0,492.0,298.0,496.0,314.0,492.0,330.0,482.0,342.0,494.0,364.0,498.0,380.0,486.0,396.0,480.0,412.0,484.0,428.0,484.0,444.0,486.0,460.0,478.0,464.0,482.0,484.0,470.0,490.0,490.0,478.0,496.0,484.0,500.0,492.0" stroke="black" stroke-width="1" fill="none" />
<polyline points="468.0,492.0,452.0,492.0,446.0,500.0,448.0,494.0,472.0,474.0,472.0,458.0,470.0,442.0,468.0,426.0,466.0,410.0,472.0,392.0,476.0,392.0" stroke="black" stroke-width="1" fill="none" />
<polyline points="474.0,384.0,484.0,368.0,468.0,362.0,452.0,362.0,436.0,358.0,420.0,358.0,404.0,358.0,388.0,362.0,372.0,382.0" stroke="black" stroke-width="1" fill="none" />
<polyline points="368.0,372.0,388.0,366.0,372.0,382.0,366.0,398.0,366.0,414.0" stroke="black" stroke-width="1" fill="none" />
<polyline points="376.0,392.0,392.0,402.0" stroke="black" stroke-width="1" fill="none" />
<polyline points="394.0,418.0,396.0,434.0,398.0,450.0,390.0,466.0,378.0,478.0,370.0,482.0,384.0,494.0,384.0,502.0,400.0,502.0" stroke="black" stroke-width="1" fill="none" />
<polyline points="380.0,478.0,396.0,472.0,396.0,474.0,390.0,466.0" stroke="black" stroke-width="1" fill="none" />
<polyline points="424.0,480.0,440.0,492.0" stroke="black" stroke-width="1" fill="none" />
<polyline points="494.0,450.0,488.0,434.0" stroke="black" stroke-width="1" fill="none" />
<polyline points="472.0,406.0,474.0,422.0,476.0,438.0,486.0,460.0,500.0,460.0,506.0,474.0" stroke="black" stroke-width="1" fill="none" />
<polyline points="462.0,484.0,438.0,482.0,458.0,466.0,460.0,450.0,458.0,434.0,454.0,418.0" stroke="black" stroke-width="1" fill="none" />
<polyline points="454.0,396.0,438.0,402.0,422.0,406.0,406.0,406.0,388.0,416.0,370.0,416.0,360.0,404.0,350.0,408.0,334.0,400.0,344.0,396.0,344.0,380.0,352.0,360.0,362.0,344.0,378.0,334.0,384.0,318.0,388.0,302.0,374.0,298.0,358.0,302.0,342.0,310.0,326.0,310.0,310.0,312.0,294.0,304.0,278.0,300.0,278.0,300.0,280.0,316.0,286.0,332.0,296.0,344.0,274.0,368.0,272.0,382.0" stroke="black" stroke-width="1" fill="none" />
<polyline points="264.0,368.0,280.0,366.0" stroke="black" stroke-width="1" fill="none" />
<polyline points="260.0,364.0,276.0,360.0,292.0,366.0,304.0,342.0,326.0,340.0,334.0,332.0,354.0,342.0,374.0,326.0,378.0,332.0,396.0,330.0" stroke="black" stroke-width="1" fill="none" />
<polyline points="362.0,306.0,376.0,300.0,372.0,316.0,362.0,332.0,356.0,370.0,350.0,386.0,344.0,394.0" stroke="black" stroke-width="1" fill="none" />
<polyline points="320.0,366.0,336.0,368.0,352.0,360.0,376.0,358.0" stroke="black" stroke-width="1" fill="none" />
<polyline points="336.0,350.0,320.0,348.0" stroke="black" stroke-width="1" fill="none" />
<polyline points="310.0,366.0,310.0,354.0,322.0,350.0,320.0,360.0,334.0,386.0,332.0,402.0,354.0,412.0" stroke="black" stroke-width="1" fill="none" />
<polyline points="404.0,414.0,406.0,430.0,406.0,446.0,406.0,462.0,406.0,478.0,390.0,482.0,376.0,492.0,390.0,500.0,410.0,494.0,426.0,506.0,424.0,508.0,412.0,498.0,414.0,482.0,414.0,466.0,414.0,450.0,414.0,434.0,412.0,418.0" stroke="black" stroke-width="1" fill="none" />
<polyline points="422.0,416.0,422.0,432.0,422.0,448.0,422.0,464.0,424.0,480.0,440.0,496.0,450.0,470.0" stroke="black" stroke-width="1" fill="none" />
<polyline points="488.0,298.0,482.0,290.0,470.0,284.0" stroke="black" stroke-width="1" fill="none" />
<polyline points="478.0,270.0,494.0,282.0,504.0,282.0" stroke="black" stroke-width="1" fill="none" />
<polyline points="448.0,260.0,464.0,264.0,480.0,266.0,502.0,276.0,504.0,292.0,506.0,308.0,506.0,324.0,500.0,340.0,492.0,356.0,506.0,370.0,504.0,390.0" stroke="black" stroke-width="1" fill="none" />
<polyline points="486.0,286.0,470.0,276.0,454.0,270.0,438.0,264.0" stroke="black" stroke-width="1" fill="none" />
<polyline points="388.0,288.0,372.0,288.0,356.0,288.0" stroke="black" stroke-width="1" fill="none" />
<polyline points="356.0,294.0,346.0,300.0,330.0,302.0,314.0,302.0,298.0,296.0" stroke="black" stroke-width="1" fill="none" />
<polyline points="266.0,294.0,268.0,302.0,270.0,310.0,274.0,328.0,274.0,344.0,260.0,354.0,264.0,370.0,266.0,384.0,280.0,372.0,296.0,372.0,312.0,376.0,328.0,376.0,344.0,370.0,360.0,368.0,376.0,348.0,390.0,342.0,392.0,352.0,408.0,348.0,420.0,348.0,436.0,346.0,448.0,350.0,464.0,352.0,480.0,352.0,484.0,330.0" stroke="black" stroke-width="1" fill="none" />
<polyline points="506.0,368.0,494.0,386.0,474.0,408.0,464.0,396.0,448.0,402.0,444.0,416.0,428.0,416.0,406.0,416.0,384.0,408.0,368.0,398.0,350.0,382.0,342.0,386.0,324.0,384.0,304.0,374.0,300.0,364.0,296.0,360.0,304.0,344.0,298.0,336.0,298.0,318.0,302.0,302.0,294.0,288.0,278.0,290.0,262.0,288.0" stroke="black" stroke-width="1" fill="none" />
<polyline points="264.0,312.0,282.0,316.0,298.0,312.0" stroke="black" stroke-width="1" fill="none" />
<polyline points="354.0,316.0,358.0,332.0,344.0,342.0,338.0,344.0,340.0,360.0,356.0,350.0,382.0,356.0" stroke="black" stroke-width="1" fill="none" />
<polyline points="366.0,320.0,356.0,320.0,344.0,318.0,320.0,318.0,300.0,334.0,294.0,348.0,272.0,350.0,256.0,358.0" stroke="black" stroke-width="1" fill="none" />
</svg>