<svg xmlns="http://www.w3.org/2000/svg" height="506px" width="506px" version="1.1"><polyline points="420.0,260.0,410.0,276.0,402.0,292.0,402.0,308.0,402.0,324.0,394.0,340.0,380.0,348.0,402.0,352.0,404.0,368.0,408.0,384.0,408.0,400.0,402.0,414.0,384.0,430.0,380.0,446.0,384.0,462.0,390.0,478.0,390.0,484.0,394.0,500.0,382.0,506.0,396.0,490.0,412.0,480.0" stroke="black" stroke-width="1" fill="none" />
<polyline points="410.0,456.0,394.0,456.0" stroke="black" stroke-width="1" fill="none" />
<polyline points="414.0,478.0,410.0,462.0,394.0,468.0,392.0,452.0,394.0,436.0,372.0,434.0" stroke="black" stroke-width="1" fill="none" />
<polyline points="398.0,468.0,384.0,478.0,368.0,482.0" stroke="black" stroke-width="1" fill="none" />
<polyline points="380.0,506.0,360.0,496.0,360.0,480.0,362.0,464.0,366.0,448.0,342.0,436.0,326.0,432.0" stroke="black" stroke-width="1" fill="none" />
<polyline points="310.0,434.0,314.0,424.0,318.0,446.0,318.0,462.0,314.0,478.0,308.0,494.0" stroke="black" stroke-width="1" fill="none" />
<polyline points="320.0,480.0,336.0,478.0" stroke="black" stroke-width="1" fill="none" />
<polyline points="336.0,488.0,326.0,466.0,328.0,450.0,326.0,434.0,322.0,408.0,300.0,394.0,296.0,378.0,302.0,362.0,276.0,350.0,268.0,334.0,266.0,318.0,266.0,302.0,270.0,286.0,274.0,272.0,258.0,278.0" stroke="black" stroke-width="1" fill="none" />
<polyline points="260.0,272.0,260.0,288.0,258.0,304.0,258.0,320.0,260.0,336.0,266.0,352.0,284.0,370.0,290.0,386.0,284.0,396.0,294.0,408.0,298.0,422.0,302.0,438.0,296.0,454.0,294.0,470.0,280.0,500.0,296.0,496.0,298.0,474.0,314.0,486.0,322.0,500.0,338.0,500.0" stroke="black" stroke-width="1" fill="none" />
<polyline points="296.0,496.0,304.0,480.0,308.0,464.0,310.0,448.0,312.0,432.0,296.0,420.0" stroke="black" stroke-width="1" fill="none" />
<polyline points="308.0,402.0,324.0,408.0,334.0,420.0,350.0,424.0,366.0,420.0,382.0,410.0,384.0,416.0,394.0,420.0" stroke="black" stroke-width="1" fill="none" />
<polyline points="420.0,378.0,436.0,386.0" stroke="black" stroke-width="1" fill="none" />
<polyline points="464.0,358.0,480.0,360.0" stroke="black" stroke-width="1" fill="none" />
<polyline points="480.0,350.0,464.0,352.0" stroke="black" stroke-width="1" fill="none" />
<polyline points="480.0,328.0,464.0,310.0" stroke="black" stroke-width="1" fill="none" />
<polyline points="458.0,296.0,458.0,312.0,462.0,330.0,462.0,346.0,462.0,372.0,462.0,388.0,452.0,404.0,456.0,408.0" stroke="black" stroke-width="1" fill="none" />
<polyline points="444.0,394.0,444.0,386.0,426.0,392.0,420.0,378.0,420.0,362.0,422.0,346.0,426.0,330.0,418.0,308.0,410.0,304.0,414.0,288.0,428.0,272.0,444.0,278.0,434.0,274.0,418.0,282.0,418.0,292.0" stroke="black" stroke-width="1" fill="none" />
<polyline points="414.0,306.0,426.0,308.0,420.0,324.0,402.0,346.0,410.0,354.0,412.0,372.0,412.0,388.0,418.0,404.0,414.0,408.0,434.0,410.0,450.0,408.0" stroke="black" stroke-width="1" fill="none" />
<polyline points="390.0,370.0,394.0,386.0,402.0,392.0,394.0,394.0,378.0,410.0,372.0,438.0,374.0,454.0,374.0,470.0,358.0,490.0" stroke="black" stroke-width="1" fill="none" />
<polyline points="300.0,472.0,300.0,456.0" stroke="black" stroke-width="1" fill="none" />
<polyline points="292.0,472.0,276.0,478.0,276.0,478.0,276.0,494.0" stroke="black" stroke-width="1" fill="none" />
<polyline points="286.0,362.0,270.0,360.0" stroke="black" stroke-width="1" fill="none" />
<polyline points="270.0,338.0,286.0,354.0,300.0,344.0,296.0,340.0,308.0,338.0,316.0,328.0,332.0,326.0,348.0,330.0,364.0,328.0,370.0,338.0,386.0,340.0,386.0,352.0" stroke="black" stroke-width="1" fill="none" />
<polyline points="416.0,340.0,408.0,336.0,386.0,366.0,370.0,362.0,354.0,342.0,338.0,340.0,322.0,344.0,308.0,362.0,310.0,356.0,332.0,340.0" stroke="black" stroke-width="1" fill="none" />
<polyline points="402.0,286.0,418.0,264.0,434.0,260.0,450.0,260.0,458.0,268.0,472.0,282.0,476.0,284.0,486.0,300.0,484.0,310.0,496.0,326.0,506.0,334.0,506.0,350.0,502.0,366.0,496.0,372.0,500.0,374.0" stroke="black" stroke-width="1" fill="none" />
<polyline points="498.0,338.0,490.0,358.0,488.0,350.0,486.0,334.0,476.0,318.0,464.0,322.0,474.0,310.0,464.0,294.0,452.0,294.0,452.0,294.0,452.0,310.0,450.0,326.0,452.0,342.0,452.0,358.0,452.0,374.0,468.0,374.0,484.0,374.0" stroke="black" stroke-width="1" fill="none" />
<polyline points="506.0,318.0,490.0,314.0,486.0,304.0,478.0,300.0,462.0,288.0,446.0,282.0" stroke="black" stroke-width="1" fill="none" />
<polyline points="446.0,294.0,444.0,310.0" stroke="black" stroke-width="1" fill="none" />
</svg>