<svg xmlns="http://www.w3.org/2000/svg" height="508px" width="506px" version="1.1"><polyline points="274.0,288.0,276.0,304.0" stroke="black" stroke-width="1" fill="none" />
<polyline points="290.0,310.0,306.0,294.0,322.0,286.0,338.0,282.0,354.0,286.0,370.0,292.0,386.0,306.0,402.0,320.0" stroke="black" stroke-width="1" fill="none" />
<polyline points="428.0,310.0,428.0,320.0,444.0,324.0,460.0,342.0,476.0,360.0,482.0,362.0,506.0,362.0" stroke="black" stroke-width="1" fill="none" />
<polyline points="468.0,344.0,484.0,340.0,478.0,332.0,492.0,340.0,496.0,356.0,490.0,370.0,478.0,378.0,476.0,394.0,486.0,396.0,486.0,412.0,494.0,412.0,496.0,430.0,468.0,434.0,452.0,440.0,444.0,456.0,422.0,472.0,406.0,480.0" stroke="black" stroke-width="1" fill="none" />
<polyline points="418.0,452.0,434.0,454.0,444.0,440.0,470.0,442.0,486.0,432.0" stroke="black" stroke-width="1" fill="none" />
<polyline points="490.0,422.0,474.0,416.0,458.0,430.0,442.0,434.0,426.0,432.0,408.0,432.0,408.0,418.0,392.0,396.0,376.0,396.0,368.0,398.0,362.0,382.0,362.0,366.0,372.0,346.0,386.0,338.0,384.0,320.0,396.0,304.0,380.0,288.0,370.0,272.0,354.0,270.0,338.0,272.0,322.0,274.0,306.0,282.0,290.0,286.0,274.0,288.0" stroke="black" stroke-width="1" fill="none" />
<polyline points="298.0,276.0,314.0,270.0,310.0,278.0,292.0,294.0,280.0,310.0,264.0,326.0,264.0,342.0,262.0,358.0,258.0,374.0,254.0,390.0,256.0,396.0,254.0,406.0,262.0,418.0,264.0,434.0,264.0,450.0,276.0,456.0,284.0,468.0,292.0,484.0,298.0,486.0,306.0,502.0,314.0,506.0,330.0,506.0,350.0,506.0,366.0,508.0,382.0,506.0,398.0,504.0,432.0,488.0,448.0,486.0" stroke="black" stroke-width="1" fill="none" />
<polyline points="438.0,420.0,452.0,404.0,458.0,390.0,462.0,388.0,474.0,374.0,468.0,358.0,464.0,346.0,468.0,336.0,460.0,320.0,456.0,322.0,434.0,306.0,432.0,290.0,408.0,290.0" stroke="black" stroke-width="1" fill="none" />
<polyline points="418.0,288.0,426.0,304.0,426.0,306.0,428.0,322.0,440.0,330.0,454.0,332.0,450.0,334.0" stroke="black" stroke-width="1" fill="none" />
<polyline points="450.0,316.0,434.0,306.0" stroke="black" stroke-width="1" fill="none" />
<polyline points="426.0,342.0,430.0,358.0,438.0,360.0,418.0,374.0,408.0,390.0,394.0,398.0,396.0,414.0,398.0,430.0,400.0,430.0" stroke="black" stroke-width="1" fill="none" />
<polyline points="414.0,428.0,402.0,412.0" stroke="black" stroke-width="1" fill="none" />
<polyline points="406.0,396.0,380.0,390.0,364.0,384.0,368.0,382.0,384.0,380.0" stroke="black" stroke-width="1" fill="none" />
<polyline points="368.0,370.0,368.0,374.0,376.0,358.0,402.0,338.0" stroke="black" stroke-width="1" fill="none" />
<polyline points="420.0,334.0,414.0,344.0,402.0,356.0,382.0,360.0,364.0,354.0,364.0,358.0,366.0,342.0" stroke="black" stroke-width="1" fill="none" />
<polyline points="368.0,364.0,384.0,370.0" stroke="black" stroke-width="1" fill="none" />
<polyline points="426.0,374.0,426.0,390.0,414.0,402.0,420.0,418.0" stroke="black" stroke-width="1" fill="none" />
<polyline points="428.0,414.0,428.0,398.0" stroke="black" stroke-width="1" fill="none" />
<polyline points="430.0,376.0,440.0,392.0,440.0,408.0,454.0,402.0,470.0,394.0,490.0,392.0,506.0,370.0" stroke="black" stroke-width="1" fill="none" />
<polyline points="458.0,376.0,444.0,382.0,428.0,374.0" stroke="black" stroke-width="1" fill="none" />
<polyline points="478.0,378.0,498.0,372.0,506.0,356.0,506.0,340.0,500.0,332.0,484.0,330.0,474.0,352.0,466.0,366.0,454.0,372.0,438.0,358.0,428.0,370.0,412.0,378.0,410.0,368.0,404.0,372.0,406.0,366.0,398.0,350.0,410.0,334.0,408.0,320.0,408.0,304.0,410.0,288.0,396.0,280.0" stroke="black" stroke-width="1" fill="none" />
<polyline points="368.0,280.0,384.0,280.0,410.0,264.0,414.0,278.0,430.0,284.0,432.0,298.0,448.0,308.0,464.0,308.0,474.0,326.0,490.0,324.0,506.0,324.0" stroke="black" stroke-width="1" fill="none" />
<polyline points="484.0,408.0,464.0,406.0,456.0,422.0,450.0,416.0,450.0,424.0,434.0,424.0,418.0,430.0,412.0,412.0,404.0,396.0,398.0,374.0,388.0,358.0,392.0,336.0,400.0,320.0,400.0,300.0,380.0,282.0,372.0,274.0,356.0,276.0" stroke="black" stroke-width="1" fill="none" />
<polyline points="358.0,288.0,366.0,304.0,360.0,304.0,362.0,306.0,378.0,304.0" stroke="black" stroke-width="1" fill="none" />
<polyline points="390.0,296.0,388.0,290.0,396.0,286.0,396.0,270.0,368.0,268.0" stroke="black" stroke-width="1" fill="none" />
<polyline points="344.0,290.0,324.0,304.0,316.0,296.0,320.0,306.0,330.0,290.0" stroke="black" stroke-width="1" fill="none" />
<polyline points="312.0,288.0,316.0,296.0,290.0,316.0,278.0,332.0,274.0,348.0,272.0,364.0,268.0,380.0,272.0,396.0,274.0,406.0,274.0,422.0,290.0,432.0,294.0,448.0,312.0,470.0,334.0,486.0,344.0,488.0,360.0,484.0,376.0,484.0,398.0,470.0,406.0,480.0,422.0,466.0,430.0,466.0,446.0,454.0,462.0,438.0,478.0,446.0" stroke="black" stroke-width="1" fill="none" />
<polyline points="476.0,414.0,480.0,430.0,474.0,436.0,462.0,452.0,450.0,468.0,426.0,484.0,394.0,504.0" stroke="black" stroke-width="1" fill="none" />
<polyline points="398.0,484.0,398.0,478.0,384.0,486.0,370.0,490.0,354.0,490.0,336.0,480.0,320.0,478.0" stroke="black" stroke-width="1" fill="none" />
<polyline points="326.0,476.0,310.0,472.0,300.0,458.0,300.0,452.0,284.0,444.0" stroke="black" stroke-width="1" fill="none" />
<polyline points="264.0,446.0,280.0,456.0,286.0,468.0,302.0,478.0,306.0,488.0,320.0,500.0,336.0,502.0" stroke="black" stroke-width="1" fill="none" />
<polyline points="444.0,480.0,452.0,476.0,464.0,458.0,454.0,460.0,438.0,474.0,422.0,488.0,406.0,494.0,390.0,500.0,374.0,502.0,358.0,502.0,342.0,500.0,326.0,494.0,310.0,486.0,306.0,484.0,296.0,462.0,284.0,446.0,286.0,430.0,282.0,414.0,272.0,412.0" stroke="black" stroke-width="1" fill="none" />
<polyline points="264.0,342.0,270.0,324.0,286.0,300.0,306.0,304.0" stroke="black" stroke-width="1" fill="none" />
</svg>