<svg xmlns="http://www.w3.org/2000/svg" height="502px" width="508px" version="1.1"><polyline points="454.0,270.0,442.0,286.0,438.0,302.0,436.0,318.0,436.0,332.0,434.0,348.0,434.0,364.0,432.0,380.0,430.0,396.0,424.0,412.0,410.0,428.0,410.0,444.0,412.0,460.0,428.0,474.0,424.0,490.0,406.0,498.0,428.0,494.0" stroke="black" stroke-width="1" fill="none" />
<polyline points="418.0,494.0,398.0,482.0,400.0,466.0,390.0,450.0,392.0,434.0,404.0,406.0,418.0,402.0,422.0,386.0,422.0,370.0,412.0,354.0,402.0,344.0,384.0,344.0" stroke="black" stroke-width="1" fill="none" />
<polyline points="372.0,340.0,324.0,356.0" stroke="black" stroke-width="1" fill="none" />
<polyline points="290.0,354.0,274.0,358.0" stroke="black" stroke-width="1" fill="none" />
<polyline points="282.0,384.0,276.0,372.0,270.0,388.0,270.0,404.0,274.0,420.0,278.0,426.0,302.0,420.0,318.0,420.0,334.0,408.0,344.0,408.0,360.0,406.0,378.0,420.0,392.0,422.0,408.0,400.0,422.0,390.0" stroke="black" stroke-width="1" fill="none" />
<polyline points="414.0,354.0,398.0,340.0,382.0,338.0,366.0,342.0,350.0,348.0,334.0,354.0,318.0,358.0,302.0,362.0,286.0,366.0,270.0,386.0" stroke="black" stroke-width="1" fill="none" />
<polyline points="278.0,388.0,278.0,404.0,302.0,422.0,304.0,410.0" stroke="black" stroke-width="1" fill="none" />
<polyline points="286.0,404.0,302.0,404.0,294.0,416.0,288.0,432.0,284.0,458.0,298.0,474.0,296.0,490.0" stroke="black" stroke-width="1" fill="none" />
<polyline points="306.0,470.0,322.0,460.0,322.0,482.0" stroke="black" stroke-width="1" fill="none" />
<polyline points="322.0,490.0,314.0,474.0,304.0,458.0,304.0,442.0,322.0,440.0,334.0,434.0" stroke="black" stroke-width="1" fill="none" />
<polyline points="352.0,440.0,368.0,438.0,382.0,446.0,382.0,462.0,388.0,478.0" stroke="black" stroke-width="1" fill="none" />
<polyline points="404.0,484.0,406.0,468.0,404.0,452.0,402.0,436.0" stroke="black" stroke-width="1" fill="none" />
<polyline points="360.0,416.0,344.0,414.0" stroke="black" stroke-width="1" fill="none" />
<polyline points="292.0,446.0,296.0,462.0,294.0,478.0,288.0,486.0" stroke="black" stroke-width="1" fill="none" />
<polyline points="262.0,442.0,258.0,426.0,262.0,410.0,262.0,394.0,264.0,378.0,266.0,362.0,260.0,346.0,260.0,330.0,262.0,314.0,264.0,298.0,276.0,282.0,264.0,296.0" stroke="black" stroke-width="1" fill="none" />
<polyline points="268.0,278.0,276.0,294.0,270.0,310.0,268.0,326.0,268.0,342.0,272.0,358.0,276.0,346.0,292.0,346.0,312.0,346.0,328.0,342.0,344.0,336.0,346.0,336.0,360.0,332.0,376.0,326.0,392.0,326.0,408.0,332.0,412.0,336.0,428.0,346.0,440.0,342.0,454.0,374.0" stroke="black" stroke-width="1" fill="none" />
<polyline points="454.0,358.0,470.0,382.0,486.0,386.0" stroke="black" stroke-width="1" fill="none" />
<polyline points="484.0,400.0,476.0,392.0,464.0,376.0,454.0,360.0,448.0,344.0,442.0,328.0,442.0,312.0,446.0,296.0,454.0,280.0,456.0,288.0" stroke="black" stroke-width="1" fill="none" />
<polyline points="466.0,286.0,468.0,302.0,468.0,320.0,472.0,328.0,456.0,344.0,442.0,364.0,444.0,380.0,446.0,396.0,448.0,412.0,454.0,426.0" stroke="black" stroke-width="1" fill="none" />
<polyline points="468.0,414.0,456.0,406.0,456.0,390.0,452.0,374.0,446.0,358.0,446.0,338.0" stroke="black" stroke-width="1" fill="none" />
<polyline points="444.0,302.0,460.0,280.0,476.0,296.0" stroke="black" stroke-width="1" fill="none" />
<polyline points="476.0,280.0,492.0,280.0,498.0,280.0,498.0,296.0,490.0,312.0,496.0,328.0,500.0,344.0,502.0,360.0,504.0,376.0,504.0,392.0,508.0,408.0,498.0,408.0,496.0,422.0" stroke="black" stroke-width="1" fill="none" />
<polyline points="494.0,414.0,478.0,408.0,462.0,392.0,462.0,392.0,462.0,408.0,456.0,424.0" stroke="black" stroke-width="1" fill="none" />
<polyline points="478.0,410.0,466.0,394.0" stroke="black" stroke-width="1" fill="none" />
<polyline points="490.0,306.0,478.0,288.0,490.0,280.0,488.0,266.0,472.0,270.0,456.0,270.0,440.0,270.0" stroke="black" stroke-width="1" fill="none" />
<polyline points="478.0,260.0,494.0,260.0" stroke="black" stroke-width="1" fill="none" />
<polyline points="484.0,276.0,480.0,292.0,478.0,306.0,486.0,322.0,490.0,338.0,494.0,354.0,494.0,358.0,496.0,374.0,494.0,390.0" stroke="black" stroke-width="1" fill="none" />
<polyline points="416.0,424.0,394.0,434.0,372.0,432.0,356.0,428.0,340.0,428.0,324.0,432.0,308.0,440.0,286.0,446.0,264.0,418.0" stroke="black" stroke-width="1" fill="none" />
<polyline points="264.0,424.0,274.0,440.0,276.0,456.0,278.0,472.0,288.0,492.0,288.0,492.0,310.0,502.0" stroke="black" stroke-width="1" fill="none" />
<polyline points="456.0,438.0,450.0,426.0,442.0,410.0,438.0,394.0,438.0,378.0,426.0,360.0,418.0,344.0,398.0,328.0" stroke="black" stroke-width="1" fill="none" />
</svg>