<svg xmlns="http://www.w3.org/2000/svg" height="506px" width="508px" version="1.1"><polyline points="292.0,256.0,272.0,272.0,260.0,288.0,262.0,294.0,258.0,310.0,258.0,326.0,260.0,336.0,276.0,334.0,278.0,324.0,298.0,306.0,308.0,304.0,310.0,288.0,334.0,276.0,350.0,278.0,368.0,274.0,384.0,270.0,400.0,272.0" stroke="black" stroke-width="1" fill="none" />
<polyline points="406.0,264.0,416.0,280.0,422.0,296.0,422.0,312.0,406.0,334.0,412.0,328.0,428.0,324.0,444.0,322.0,460.0,328.0,470.0,334.0,486.0,336.0,490.0,338.0" stroke="black" stroke-width="1" fill="none" />
<polyline points="504.0,340.0,478.0,334.0,492.0,332.0,500.0,316.0,502.0,300.0,498.0,284.0,498.0,280.0" stroke="black" stroke-width="1" fill="none" />
<polyline points="506.0,284.0,508.0,298.0,506.0,314.0,504.0,330.0,496.0,346.0,490.0,360.0,490.0,376.0,490.0,392.0,484.0,408.0,474.0,424.0,462.0,440.0,462.0,456.0,462.0,472.0,452.0,496.0,458.0,484.0,464.0,490.0" stroke="black" stroke-width="1" fill="none" />
<polyline points="452.0,506.0,446.0,482.0,430.0,474.0,426.0,470.0,422.0,482.0,414.0,472.0,434.0,464.0,428.0,456.0,424.0,476.0,444.0,472.0,444.0,456.0,444.0,440.0,460.0,414.0,460.0,398.0,460.0,392.0" stroke="black" stroke-width="1" fill="none" />
<polyline points="444.0,438.0,468.0,440.0,468.0,456.0,470.0,472.0,474.0,488.0,468.0,502.0" stroke="black" stroke-width="1" fill="none" />
<polyline points="444.0,496.0,444.0,480.0" stroke="black" stroke-width="1" fill="none" />
<polyline points="456.0,424.0,440.0,428.0,424.0,430.0,408.0,432.0,392.0,428.0" stroke="black" stroke-width="1" fill="none" />
<polyline points="366.0,442.0,382.0,442.0,402.0,440.0,418.0,442.0,434.0,440.0,434.0,434.0,454.0,420.0" stroke="black" stroke-width="1" fill="none" />
<polyline points="480.0,360.0,466.0,344.0,450.0,334.0,434.0,332.0,418.0,336.0,400.0,346.0,390.0,338.0,384.0,322.0,374.0,306.0,368.0,290.0,368.0,278.0" stroke="black" stroke-width="1" fill="none" />
<polyline points="368.0,284.0,384.0,292.0,380.0,298.0,376.0,300.0,376.0,308.0,392.0,330.0" stroke="black" stroke-width="1" fill="none" />
<polyline points="404.0,308.0,388.0,288.0" stroke="black" stroke-width="1" fill="none" />
<polyline points="378.0,276.0,396.0,270.0,398.0,286.0,410.0,290.0,410.0,306.0" stroke="black" stroke-width="1" fill="none" />
<polyline points="420.0,282.0,404.0,262.0,388.0,256.0,370.0,262.0,354.0,270.0,352.0,260.0,336.0,266.0,320.0,272.0,304.0,262.0,288.0,258.0,272.0,272.0,256.0,292.0" stroke="black" stroke-width="1" fill="none" />
<polyline points="268.0,298.0,284.0,270.0,300.0,268.0,312.0,270.0,300.0,286.0,300.0,302.0,290.0,318.0,292.0,326.0,292.0,342.0,288.0,354.0,288.0,370.0,286.0,386.0,294.0,390.0,292.0,392.0" stroke="black" stroke-width="1" fill="none" />
<polyline points="290.0,378.0,306.0,400.0,324.0,406.0,340.0,408.0,354.0,404.0,370.0,400.0" stroke="black" stroke-width="1" fill="none" />
<polyline points="364.0,414.0,366.0,430.0,366.0,446.0,364.0,462.0,362.0,478.0,334.0,480.0,334.0,480.0,350.0,480.0,354.0,470.0" stroke="black" stroke-width="1" fill="none" />
<polyline points="340.0,472.0,324.0,476.0" stroke="black" stroke-width="1" fill="none" />
<polyline points="332.0,470.0,324.0,486.0,330.0,486.0,346.0,492.0" stroke="black" stroke-width="1" fill="none" />
<polyline points="368.0,502.0,384.0,502.0" stroke="black" stroke-width="1" fill="none" />
<polyline points="372.0,420.0,356.0,410.0" stroke="black" stroke-width="1" fill="none" />
<polyline points="376.0,372.0,378.0,380.0,386.0,398.0,388.0,412.0,390.0,428.0,388.0,446.0,390.0,462.0,390.0,478.0,392.0,494.0" stroke="black" stroke-width="1" fill="none" />
<polyline points="358.0,362.0,352.0,366.0,346.0,350.0,348.0,348.0,332.0,354.0" stroke="black" stroke-width="1" fill="none" />
<polyline points="338.0,352.0,344.0,368.0,348.0,364.0" stroke="black" stroke-width="1" fill="none" />
<polyline points="330.0,368.0,318.0,382.0,302.0,382.0" stroke="black" stroke-width="1" fill="none" />
<polyline points="328.0,368.0,332.0,384.0" stroke="black" stroke-width="1" fill="none" />
<polyline points="324.0,346.0,340.0,342.0,356.0,334.0,366.0,344.0" stroke="black" stroke-width="1" fill="none" />
<polyline points="342.0,328.0,326.0,330.0" stroke="black" stroke-width="1" fill="none" />
<polyline points="324.0,318.0,340.0,318.0,342.0,316.0,346.0,332.0,352.0,332.0,368.0,352.0,378.0,368.0,354.0,378.0,338.0,382.0,346.0,398.0,362.0,394.0,378.0,384.0,392.0,380.0" stroke="black" stroke-width="1" fill="none" />
<polyline points="424.0,332.0,398.0,348.0,398.0,364.0,392.0,380.0,378.0,396.0,378.0,410.0,380.0,438.0,382.0,454.0,382.0,470.0,382.0,492.0,366.0,482.0,382.0,482.0" stroke="black" stroke-width="1" fill="none" />
<polyline points="476.0,366.0,468.0,350.0,450.0,334.0" stroke="black" stroke-width="1" fill="none" />
<polyline points="464.0,326.0,476.0,342.0,482.0,368.0,482.0,384.0,472.0,400.0,466.0,396.0,476.0,400.0,470.0,416.0,482.0,410.0" stroke="black" stroke-width="1" fill="none" />
<polyline points="372.0,380.0,356.0,388.0,340.0,390.0,330.0,390.0,324.0,396.0,322.0,384.0,316.0,374.0,324.0,358.0,326.0,332.0,328.0,316.0" stroke="black" stroke-width="1" fill="none" />
<polyline points="310.0,300.0,302.0,316.0" stroke="black" stroke-width="1" fill="none" />
<polyline points="304.0,334.0,288.0,334.0,284.0,332.0,288.0,304.0,296.0,288.0" stroke="black" stroke-width="1" fill="none" />
<polyline points="294.0,280.0,302.0,274.0,286.0,274.0,270.0,292.0,266.0,308.0,266.0,324.0,278.0,316.0,294.0,290.0,310.0,276.0" stroke="black" stroke-width="1" fill="none" />
<polyline points="334.0,276.0,324.0,292.0,318.0,292.0,316.0,308.0,308.0,324.0,300.0,342.0,294.0,358.0,298.0,374.0,308.0,390.0,346.0,414.0,354.0,430.0,360.0,434.0,356.0,444.0,358.0,454.0,358.0,466.0,370.0,486.0,366.0,502.0,376.0,498.0" stroke="black" stroke-width="1" fill="none" />
<polyline points="374.0,362.0,366.0,372.0,362.0,380.0,386.0,376.0,388.0,360.0,378.0,344.0,372.0,336.0,370.0,320.0,362.0,304.0,360.0,288.0" stroke="black" stroke-width="1" fill="none" />
<polyline points="390.0,268.0,368.0,274.0,390.0,290.0,400.0,306.0,400.0,322.0,396.0,338.0,408.0,322.0,410.0,316.0" stroke="black" stroke-width="1" fill="none" />
</svg>