<svg xmlns="http://www.w3.org/2000/svg" height="508px" width="508px" version="1.1"><polyline points="366.0,266.0,358.0,282.0,350.0,298.0,344.0,314.0,364.0,320.0,376.0,336.0,372.0,352.0,360.0,366.0,362.0,382.0,338.0,378.0,354.0,382.0,368.0,368.0,374.0,386.0" stroke="black" stroke-width="1" fill="none" />
<polyline points="388.0,370.0,390.0,386.0,382.0,402.0,388.0,418.0,396.0,418.0,404.0,434.0,394.0,456.0,394.0,472.0,390.0,488.0,384.0,504.0" stroke="black" stroke-width="1" fill="none" />
<polyline points="378.0,508.0,362.0,504.0" stroke="black" stroke-width="1" fill="none" />
<polyline points="406.0,504.0,422.0,504.0" stroke="black" stroke-width="1" fill="none" />
<polyline points="418.0,454.0,434.0,450.0,450.0,446.0,464.0,434.0,484.0,440.0,496.0,452.0" stroke="black" stroke-width="1" fill="none" />
<polyline points="478.0,444.0,488.0,460.0,492.0,478.0,488.0,494.0" stroke="black" stroke-width="1" fill="none" />
<polyline points="506.0,484.0,502.0,468.0,498.0,456.0,492.0,440.0,492.0,430.0" stroke="black" stroke-width="1" fill="none" />
<polyline points="494.0,376.0,508.0,350.0" stroke="black" stroke-width="1" fill="none" />
<polyline points="488.0,360.0,474.0,366.0,470.0,360.0,454.0,360.0,438.0,358.0,422.0,358.0,406.0,358.0,390.0,360.0,370.0,344.0,364.0,328.0,360.0,322.0,344.0,326.0" stroke="black" stroke-width="1" fill="none" />
<polyline points="346.0,342.0,362.0,334.0,366.0,344.0,346.0,358.0,362.0,358.0" stroke="black" stroke-width="1" fill="none" />
<polyline points="364.0,346.0,348.0,350.0" stroke="black" stroke-width="1" fill="none" />
<polyline points="346.0,368.0,330.0,368.0" stroke="black" stroke-width="1" fill="none" />
<polyline points="320.0,368.0,336.0,360.0,330.0,376.0,330.0,392.0" stroke="black" stroke-width="1" fill="none" />
<polyline points="338.0,386.0,346.0,384.0,356.0,376.0,344.0,358.0,354.0,350.0,346.0,350.0,350.0,334.0,340.0,336.0,324.0,344.0,322.0,352.0" stroke="black" stroke-width="1" fill="none" />
<polyline points="304.0,364.0,282.0,342.0,300.0,320.0,314.0,304.0,320.0,302.0,304.0,290.0,288.0,292.0" stroke="black" stroke-width="1" fill="none" />
<polyline points="278.0,290.0,272.0,306.0,268.0,322.0,268.0,338.0,264.0,344.0,280.0,348.0,282.0,342.0,298.0,330.0,306.0,312.0,320.0,308.0" stroke="black" stroke-width="1" fill="none" />
<polyline points="312.0,310.0,322.0,326.0,314.0,332.0,308.0,348.0,314.0,364.0,306.0,374.0,302.0,390.0,304.0,404.0,308.0,420.0,314.0,436.0,320.0,442.0,330.0,422.0" stroke="black" stroke-width="1" fill="none" />
<polyline points="354.0,408.0,374.0,392.0,380.0,376.0,384.0,366.0" stroke="black" stroke-width="1" fill="none" />
<polyline points="396.0,374.0,412.0,368.0,428.0,368.0,444.0,368.0,460.0,370.0" stroke="black" stroke-width="1" fill="none" />
<polyline points="442.0,374.0,458.0,374.0,474.0,376.0,488.0,390.0" stroke="black" stroke-width="1" fill="none" />
<polyline points="482.0,420.0,466.0,428.0,450.0,436.0,434.0,438.0,418.0,440.0,402.0,430.0,380.0,418.0,364.0,418.0,352.0,418.0,330.0,430.0,330.0,444.0,338.0,436.0,344.0,420.0,314.0,410.0,310.0,394.0,322.0,378.0,322.0,362.0,322.0,346.0,338.0,338.0,358.0,322.0,366.0,306.0,374.0,312.0" stroke="black" stroke-width="1" fill="none" />
<polyline points="382.0,316.0,398.0,318.0,414.0,316.0" stroke="black" stroke-width="1" fill="none" />
<polyline points="414.0,288.0,398.0,282.0,404.0,278.0,384.0,272.0,368.0,272.0" stroke="black" stroke-width="1" fill="none" />
<polyline points="354.0,266.0,370.0,258.0,386.0,258.0,402.0,270.0,426.0,286.0,412.0,298.0,400.0,324.0,420.0,316.0" stroke="black" stroke-width="1" fill="none" />
<polyline points="408.0,308.0,392.0,308.0,376.0,300.0,360.0,312.0" stroke="black" stroke-width="1" fill="none" />
<polyline points="364.0,318.0,382.0,316.0,382.0,332.0,382.0,348.0,398.0,370.0,396.0,386.0,388.0,412.0" stroke="black" stroke-width="1" fill="none" />
<polyline points="400.0,444.0,426.0,452.0,420.0,452.0,420.0,468.0,420.0,484.0,426.0,488.0,426.0,498.0" stroke="black" stroke-width="1" fill="none" />
<polyline points="478.0,488.0,474.0,478.0,470.0,462.0,472.0,446.0,494.0,428.0,500.0,414.0,502.0,398.0,502.0,382.0,494.0,378.0,502.0,362.0,508.0,346.0,506.0,330.0,504.0,322.0,488.0,318.0,488.0,318.0,496.0,334.0,498.0,350.0,492.0,366.0,480.0,382.0,494.0,398.0,486.0,414.0,470.0,430.0,458.0,454.0,460.0,470.0,456.0,486.0,458.0,502.0,464.0,504.0,490.0,494.0,504.0,496.0" stroke="black" stroke-width="1" fill="none" />
<polyline points="406.0,488.0,404.0,492.0,412.0,474.0,410.0,458.0,394.0,450.0" stroke="black" stroke-width="1" fill="none" />
<polyline points="378.0,488.0,362.0,498.0,364.0,496.0,382.0,486.0,384.0,470.0,382.0,454.0,390.0,438.0,382.0,430.0,378.0,414.0,358.0,404.0,342.0,412.0,326.0,412.0,310.0,398.0" stroke="black" stroke-width="1" fill="none" />
<polyline points="364.0,380.0,348.0,394.0,332.0,394.0,302.0,378.0,302.0,362.0,302.0,346.0,306.0,334.0" stroke="black" stroke-width="1" fill="none" />
<polyline points="270.0,308.0,286.0,284.0,302.0,284.0" stroke="black" stroke-width="1" fill="none" />
<polyline points="326.0,292.0,310.0,280.0,294.0,276.0,278.0,274.0,262.0,292.0" stroke="black" stroke-width="1" fill="none" />
<polyline points="278.0,274.0,268.0,290.0,262.0,306.0,260.0,322.0,256.0,338.0,256.0,354.0,266.0,360.0,282.0,354.0,298.0,340.0,324.0,324.0,328.0,316.0,344.0,312.0,352.0,292.0,368.0,266.0,384.0,268.0,402.0,268.0,412.0,270.0,426.0,284.0,426.0,288.0,426.0,304.0,428.0,314.0" stroke="black" stroke-width="1" fill="none" />
<polyline points="342.0,298.0,344.0,282.0,344.0,274.0" stroke="black" stroke-width="1" fill="none" />
</svg>