<svg xmlns="http://www.w3.org/2000/svg" height="506px" width="508px" version="1.1"><polyline points="264.0,344.0,256.0,348.0,256.0,364.0,264.0,380.0,268.0,392.0,284.0,400.0,300.0,394.0,316.0,400.0,340.0,400.0,350.0,410.0,366.0,408.0,382.0,402.0,398.0,398.0" stroke="black" stroke-width="1" fill="none" />
<polyline points="412.0,400.0,396.0,416.0,370.0,416.0,364.0,426.0,348.0,428.0,348.0,428.0,348.0,444.0,350.0,456.0,358.0,452.0,374.0,440.0" stroke="black" stroke-width="1" fill="none" />
<polyline points="366.0,456.0,368.0,472.0,364.0,480.0,366.0,488.0,382.0,504.0" stroke="black" stroke-width="1" fill="none" />
<polyline points="396.0,504.0,396.0,504.0,416.0,488.0,416.0,472.0,416.0,456.0,408.0,448.0,392.0,448.0" stroke="black" stroke-width="1" fill="none" />
<polyline points="376.0,464.0,386.0,472.0,400.0,476.0,406.0,470.0" stroke="black" stroke-width="1" fill="none" />
<polyline points="382.0,476.0,374.0,470.0,374.0,470.0" stroke="black" stroke-width="1" fill="none" />
<polyline points="410.0,484.0,408.0,468.0,398.0,458.0,388.0,458.0,380.0,450.0,374.0,434.0,366.0,410.0,398.0,394.0,398.0,370.0,398.0,354.0,374.0,344.0,368.0,334.0,368.0,316.0,382.0,316.0,368.0,310.0,374.0,294.0,366.0,298.0" stroke="black" stroke-width="1" fill="none" />
<polyline points="374.0,286.0,380.0,274.0,398.0,276.0,408.0,292.0,412.0,294.0" stroke="black" stroke-width="1" fill="none" />
<polyline points="442.0,284.0,444.0,280.0,442.0,296.0,446.0,312.0,450.0,328.0,442.0,344.0,460.0,336.0" stroke="black" stroke-width="1" fill="none" />
<polyline points="476.0,328.0,492.0,320.0" stroke="black" stroke-width="1" fill="none" />
<polyline points="470.0,304.0,454.0,300.0,452.0,304.0,460.0,294.0,476.0,296.0,492.0,294.0" stroke="black" stroke-width="1" fill="none" />
<polyline points="504.0,310.0,476.0,320.0,468.0,334.0,452.0,352.0,436.0,360.0,460.0,344.0,468.0,326.0,464.0,316.0,464.0,306.0,456.0,306.0,460.0,286.0,452.0,270.0,448.0,256.0,432.0,256.0,416.0,256.0" stroke="black" stroke-width="1" fill="none" />
<polyline points="398.0,270.0,382.0,280.0" stroke="black" stroke-width="1" fill="none" />
<polyline points="374.0,262.0,390.0,262.0,406.0,262.0,416.0,260.0,424.0,274.0,416.0,290.0,428.0,270.0,438.0,262.0,460.0,284.0,476.0,288.0,492.0,286.0,508.0,286.0,508.0,298.0,500.0,316.0,476.0,330.0,452.0,346.0" stroke="black" stroke-width="1" fill="none" />
<polyline points="446.0,336.0,430.0,352.0,428.0,358.0,412.0,360.0,390.0,354.0,374.0,358.0,362.0,344.0,358.0,340.0,358.0,324.0,358.0,308.0,356.0,292.0,364.0,276.0,372.0,270.0,356.0,282.0" stroke="black" stroke-width="1" fill="none" />
<polyline points="362.0,342.0,378.0,354.0,388.0,336.0,404.0,328.0" stroke="black" stroke-width="1" fill="none" />
<polyline points="410.0,368.0,410.0,384.0,410.0,400.0,396.0,416.0,390.0,432.0,390.0,448.0,396.0,460.0" stroke="black" stroke-width="1" fill="none" />
<polyline points="338.0,474.0,322.0,478.0,322.0,498.0,306.0,494.0" stroke="black" stroke-width="1" fill="none" />
<polyline points="306.0,488.0,314.0,462.0,330.0,456.0" stroke="black" stroke-width="1" fill="none" />
<polyline points="348.0,480.0,332.0,488.0,356.0,502.0,352.0,476.0,342.0,468.0,356.0,458.0,342.0,442.0,344.0,426.0" stroke="black" stroke-width="1" fill="none" />
<polyline points="348.0,392.0,364.0,384.0,380.0,384.0,396.0,388.0" stroke="black" stroke-width="1" fill="none" />
<polyline points="442.0,364.0,426.0,368.0,410.0,368.0,388.0,376.0,372.0,376.0,356.0,374.0,340.0,376.0,324.0,384.0,310.0,386.0,312.0,390.0,314.0,374.0,304.0,358.0,290.0,374.0,286.0,370.0,270.0,374.0" stroke="black" stroke-width="1" fill="none" />
<polyline points="268.0,356.0,282.0,364.0,272.0,380.0,282.0,384.0,290.0,390.0,310.0,400.0,324.0,412.0,332.0,428.0,334.0,444.0,316.0,460.0,306.0,476.0,308.0,492.0,316.0,506.0,336.0,498.0,350.0,492.0,366.0,482.0,382.0,494.0,396.0,490.0,400.0,484.0,400.0,500.0" stroke="black" stroke-width="1" fill="none" />
<polyline points="294.0,390.0,308.0,374.0" stroke="black" stroke-width="1" fill="none" />
<polyline points="304.0,352.0,288.0,350.0,272.0,344.0,256.0,348.0" stroke="black" stroke-width="1" fill="none" />
<polyline points="258.0,272.0,274.0,270.0" stroke="black" stroke-width="1" fill="none" />
<polyline points="272.0,256.0,256.0,260.0" stroke="black" stroke-width="1" fill="none" />
</svg>