<svg xmlns="http://www.w3.org/2000/svg" height="506px" width="508px" version="1.1"><polyline points="492.0,276.0,496.0,292.0,496.0,308.0,494.0,324.0,482.0,340.0,470.0,350.0,486.0,362.0,474.0,378.0,466.0,390.0,482.0,398.0,494.0,392.0" stroke="black" stroke-width="1" fill="none" />
<polyline points="502.0,344.0,502.0,338.0,504.0,322.0,506.0,306.0,506.0,290.0,504.0,274.0,488.0,262.0" stroke="black" stroke-width="1" fill="none" />
<polyline points="460.0,268.0,476.0,264.0,466.0,282.0,452.0,298.0,444.0,314.0,442.0,330.0,462.0,346.0,440.0,352.0,436.0,368.0,462.0,364.0,478.0,384.0,472.0,398.0,466.0,414.0,456.0,416.0,458.0,434.0,474.0,436.0,490.0,438.0,506.0,414.0,494.0,412.0,482.0,416.0" stroke="black" stroke-width="1" fill="none" />
<polyline points="454.0,380.0,446.0,358.0,426.0,380.0,430.0,380.0,444.0,372.0,436.0,378.0,420.0,370.0,422.0,368.0,420.0,384.0,426.0,386.0" stroke="black" stroke-width="1" fill="none" />
<polyline points="398.0,398.0,398.0,418.0" stroke="black" stroke-width="1" fill="none" />
<polyline points="414.0,426.0,398.0,416.0,382.0,412.0,394.0,414.0,368.0,404.0" stroke="black" stroke-width="1" fill="none" />
<polyline points="376.0,378.0,380.0,394.0,374.0,410.0,378.0,420.0,368.0,436.0,366.0,452.0,376.0,468.0,390.0,476.0,376.0,488.0,366.0,494.0,354.0,500.0,382.0,506.0,398.0,506.0" stroke="black" stroke-width="1" fill="none" />
<polyline points="390.0,496.0,398.0,480.0,378.0,470.0" stroke="black" stroke-width="1" fill="none" />
<polyline points="398.0,476.0,392.0,496.0,374.0,496.0,358.0,486.0,366.0,470.0,350.0,466.0,366.0,476.0,358.0,460.0" stroke="black" stroke-width="1" fill="none" />
<polyline points="350.0,438.0,334.0,450.0,318.0,452.0" stroke="black" stroke-width="1" fill="none" />
<polyline points="306.0,476.0,322.0,472.0,338.0,466.0,344.0,474.0,338.0,480.0,338.0,496.0" stroke="black" stroke-width="1" fill="none" />
<polyline points="326.0,494.0,312.0,484.0" stroke="black" stroke-width="1" fill="none" />
<polyline points="286.0,492.0,290.0,476.0,296.0,452.0,296.0,436.0,302.0,420.0,298.0,412.0" stroke="black" stroke-width="1" fill="none" />
<polyline points="296.0,402.0,312.0,404.0,328.0,404.0,344.0,402.0,360.0,412.0,358.0,428.0,356.0,444.0,354.0,458.0,352.0,474.0,346.0,488.0" stroke="black" stroke-width="1" fill="none" />
<polyline points="298.0,504.0,300.0,492.0,306.0,478.0,310.0,456.0,286.0,444.0,280.0,430.0,292.0,414.0,292.0,414.0,286.0,420.0,284.0,436.0" stroke="black" stroke-width="1" fill="none" />
<polyline points="296.0,426.0,312.0,416.0,328.0,414.0,344.0,414.0,368.0,430.0,390.0,422.0" stroke="black" stroke-width="1" fill="none" />
<polyline points="338.0,426.0,348.0,420.0,368.0,412.0,370.0,386.0,374.0,370.0" stroke="black" stroke-width="1" fill="none" />
<polyline points="378.0,340.0,380.0,324.0,374.0,314.0" stroke="black" stroke-width="1" fill="none" />
<polyline points="350.0,344.0,366.0,346.0,366.0,354.0,382.0,350.0,410.0,344.0" stroke="black" stroke-width="1" fill="none" />
<polyline points="416.0,334.0,394.0,350.0,386.0,366.0,388.0,382.0,392.0,398.0,408.0,414.0,412.0,434.0,428.0,434.0,444.0,434.0,460.0,428.0,476.0,430.0,494.0,418.0" stroke="black" stroke-width="1" fill="none" />
<polyline points="496.0,434.0,504.0,418.0,504.0,402.0,488.0,404.0,462.0,402.0,450.0,414.0,436.0,418.0,420.0,416.0,404.0,412.0,398.0,394.0,372.0,368.0,356.0,366.0,340.0,350.0,328.0,342.0,324.0,326.0,326.0,308.0,326.0,304.0,342.0,302.0,352.0,308.0,368.0,310.0,382.0,334.0,408.0,330.0" stroke="black" stroke-width="1" fill="none" />
<polyline points="436.0,324.0,436.0,314.0,440.0,298.0,448.0,290.0,456.0,284.0,452.0,276.0" stroke="black" stroke-width="1" fill="none" />
<polyline points="442.0,316.0,450.0,318.0,452.0,332.0,468.0,346.0,482.0,340.0,486.0,334.0" stroke="black" stroke-width="1" fill="none" />
<polyline points="466.0,346.0,468.0,362.0" stroke="black" stroke-width="1" fill="none" />
<polyline points="500.0,356.0,484.0,366.0,460.0,360.0,450.0,362.0,440.0,344.0,424.0,334.0,408.0,338.0,392.0,352.0,380.0,346.0,386.0,330.0,392.0,322.0,374.0,306.0,352.0,286.0,336.0,294.0,320.0,290.0,316.0,286.0,318.0,302.0,318.0,318.0,332.0,320.0,348.0,338.0,338.0,352.0" stroke="black" stroke-width="1" fill="none" />
<polyline points="316.0,286.0,332.0,290.0,356.0,296.0,372.0,300.0,382.0,310.0,398.0,322.0,414.0,322.0,430.0,318.0,440.0,288.0,454.0,298.0,470.0,280.0,486.0,274.0,486.0,286.0,508.0,320.0" stroke="black" stroke-width="1" fill="none" />
<polyline points="340.0,458.0,324.0,460.0,306.0,458.0,306.0,450.0,278.0,452.0,264.0,424.0,256.0,422.0,256.0,406.0,260.0,390.0,256.0,398.0" stroke="black" stroke-width="1" fill="none" />
<polyline points="256.0,380.0,272.0,380.0,268.0,394.0,268.0,410.0,276.0,426.0,268.0,434.0,276.0,450.0,276.0,466.0,282.0,474.0,278.0,490.0,282.0,506.0,290.0,504.0,300.0,498.0,310.0,506.0,320.0,492.0,340.0,506.0,356.0,506.0" stroke="black" stroke-width="1" fill="none" />
<polyline points="294.0,488.0,298.0,472.0,276.0,482.0" stroke="black" stroke-width="1" fill="none" />
</svg>