<svg xmlns="http://www.w3.org/2000/svg" height="484px" width="484px" version="1.1"><polyline points="28.0,26.0,26.0,42.0,26.0,58.0,26.0,74.0,26.0,90.0,26.0,106.0,26.0,122.0,26.0,138.0,26.0,154.0,26.0,170.0,26.0,186.0,26.0,202.0,26.0,218.0,32.0,222.0,48.0,224.0,64.0,224.0,80.0,224.0,96.0,224.0,112.0,224.0,128.0,224.0,144.0,224.0,160.0,224.0,176.0,224.0,192.0,224.0,208.0,224.0" stroke="black" stroke-width="1" fill="none" />
<polyline points="282.0,284.0,298.0,282.0,314.0,282.0,330.0,282.0,346.0,282.0,362.0,282.0,378.0,282.0,394.0,282.0,410.0,282.0,426.0,282.0,442.0,282.0,458.0,282.0,474.0,282.0,478.0,288.0,480.0,304.0,480.0,320.0,480.0,336.0,480.0,352.0,480.0,368.0,480.0,384.0,480.0,400.0,480.0,416.0,480.0,432.0,480.0,448.0,480.0,464.0" stroke="black" stroke-width="1" fill="none" />
<polyline points="426.0,422.0,406.0,424.0,390.0,422.0,388.0,422.0,404.0,418.0,420.0,418.0,436.0,410.0,444.0,436.0,444.0,452.0,442.0,466.0" stroke="black" stroke-width="1" fill="none" />
<polyline points="382.0,448.0,382.0,432.0,380.0,412.0,364.0,402.0,360.0,398.0,376.0,394.0" stroke="black" stroke-width="1" fill="none" />
<polyline points="364.0,360.0,348.0,362.0" stroke="black" stroke-width="1" fill="none" />
<polyline points="342.0,362.0,358.0,354.0,360.0,352.0,370.0,368.0,364.0,388.0" stroke="black" stroke-width="1" fill="none" />
<polyline points="350.0,368.0,354.0,380.0,348.0,364.0,342.0,362.0,344.0,340.0" stroke="black" stroke-width="1" fill="none" />
<polyline points="324.0,354.0,328.0,318.0,320.0,334.0,320.0,348.0,332.0,322.0,326.0,338.0,318.0,354.0,316.0,370.0,320.0,386.0" stroke="black" stroke-width="1" fill="none" />
<polyline points="318.0,380.0,334.0,396.0,350.0,400.0,366.0,412.0,366.0,416.0,366.0,432.0" stroke="black" stroke-width="1" fill="none" />
<polyline points="366.0,452.0,350.0,460.0,346.0,456.0,348.0,446.0" stroke="black" stroke-width="1" fill="none" />
<polyline points="324.0,378.0,340.0,392.0,356.0,394.0,372.0,390.0,388.0,368.0" stroke="black" stroke-width="1" fill="none" />
<polyline points="404.0,340.0,388.0,326.0,372.0,314.0,372.0,314.0,376.0,330.0,386.0,346.0" stroke="black" stroke-width="1" fill="none" />
<polyline points="376.0,324.0,392.0,350.0,408.0,344.0,424.0,340.0,440.0,346.0" stroke="black" stroke-width="1" fill="none" />
<polyline points="430.0,342.0,452.0,358.0" stroke="black" stroke-width="1" fill="none" />
<polyline points="466.0,350.0,458.0,352.0,466.0,336.0,466.0,320.0,466.0,312.0,470.0,316.0,472.0,332.0,468.0,348.0,456.0,364.0,458.0,380.0,456.0,396.0,444.0,412.0,438.0,428.0,438.0,444.0,426.0,460.0,430.0,456.0,436.0,470.0,438.0,458.0" stroke="black" stroke-width="1" fill="none" />
<polyline points="484.0,476.0,484.0,460.0,484.0,444.0,484.0,428.0,484.0,412.0,484.0,396.0,484.0,380.0,484.0,364.0,484.0,348.0,484.0,332.0,484.0,316.0,484.0,300.0,478.0,286.0,462.0,286.0,446.0,286.0,430.0,286.0,414.0,286.0,398.0,286.0,382.0,286.0,366.0,286.0,350.0,286.0,334.0,286.0,318.0,286.0,302.0,286.0,286.0,288.0,288.0,286.0,286.0,302.0,286.0,318.0,286.0,334.0,286.0,350.0,286.0,366.0,286.0,382.0,286.0,398.0,286.0,414.0,286.0,430.0,286.0,446.0,286.0,462.0,286.0,478.0,300.0,484.0,316.0,484.0,332.0,484.0,348.0,484.0,364.0,484.0,380.0,484.0,396.0,484.0,412.0,484.0,428.0,484.0,444.0,484.0,460.0,484.0,476.0,484.0" stroke="black" stroke-width="1" fill="none" />
<polyline points="424.0,446.0,418.0,452.0,414.0,440.0,406.0,446.0,426.0,442.0,426.0,426.0,426.0,424.0,438.0,406.0,438.0,390.0" stroke="black" stroke-width="1" fill="none" />
<polyline points="456.0,396.0,442.0,402.0,450.0,396.0,454.0,380.0,448.0,364.0,428.0,348.0" stroke="black" stroke-width="1" fill="none" />
<polyline points="392.0,322.0,376.0,308.0,380.0,310.0,392.0,326.0" stroke="black" stroke-width="1" fill="none" />
<polyline points="390.0,332.0,378.0,316.0" stroke="black" stroke-width="1" fill="none" />
<polyline points="360.0,310.0,370.0,326.0,376.0,342.0,386.0,358.0,386.0,374.0,374.0,374.0,374.0,382.0,364.0,404.0,372.0,422.0,370.0,438.0,364.0,454.0,370.0,462.0,378.0,470.0" stroke="black" stroke-width="1" fill="none" />
<polyline points="410.0,318.0,394.0,296.0,378.0,296.0,362.0,304.0,346.0,302.0,330.0,300.0,314.0,296.0,298.0,316.0" stroke="black" stroke-width="1" fill="none" />
<polyline points="316.0,302.0,304.0,318.0,300.0,334.0,308.0,338.0,324.0,312.0" stroke="black" stroke-width="1" fill="none" />
<polyline points="320.0,302.0,304.0,318.0,314.0,330.0,324.0,314.0,326.0,298.0" stroke="black" stroke-width="1" fill="none" />
<polyline points="314.0,296.0,302.0,312.0,296.0,328.0,296.0,344.0,306.0,348.0,322.0,328.0,332.0,312.0,352.0,308.0,368.0,316.0,386.0,302.0,402.0,314.0" stroke="black" stroke-width="1" fill="none" />
<polyline points="400.0,304.0,410.0,320.0,410.0,336.0,392.0,360.0,392.0,376.0,378.0,392.0,382.0,404.0,388.0,404.0,388.0,422.0,388.0,438.0,388.0,454.0,370.0,462.0" stroke="black" stroke-width="1" fill="none" />
<polyline points="228.0,476.0,228.0,460.0,228.0,444.0,228.0,428.0,228.0,412.0,228.0,396.0,228.0,380.0,228.0,364.0,228.0,348.0,228.0,332.0,228.0,316.0,228.0,300.0,222.0,286.0,206.0,286.0,190.0,286.0,174.0,286.0,158.0,286.0,142.0,286.0,126.0,286.0,110.0,286.0,94.0,286.0,78.0,286.0,62.0,286.0,46.0,286.0,30.0,288.0,32.0,286.0,30.0,302.0,30.0,318.0,30.0,334.0,30.0,350.0,30.0,366.0,30.0,382.0,30.0,398.0,30.0,414.0,30.0,430.0,30.0,446.0,30.0,462.0,30.0,478.0,44.0,484.0,60.0,484.0,76.0,484.0,92.0,484.0,108.0,484.0,124.0,484.0,140.0,484.0,156.0,484.0,172.0,484.0,188.0,484.0,204.0,484.0,220.0,484.0" stroke="black" stroke-width="1" fill="none" />
<polyline points="224.0,464.0,224.0,448.0,224.0,432.0,224.0,416.0,224.0,400.0,224.0,384.0,224.0,368.0,224.0,352.0,224.0,336.0,224.0,320.0,224.0,304.0,222.0,288.0,218.0,282.0,202.0,282.0,186.0,282.0,170.0,282.0,154.0,282.0,138.0,282.0,122.0,282.0,106.0,282.0,90.0,282.0,74.0,282.0,58.0,282.0,42.0,282.0,26.0,284.0,28.0,282.0,26.0,298.0,26.0,314.0,26.0,330.0,26.0,346.0,26.0,362.0,26.0,378.0,26.0,394.0,26.0,410.0,26.0,426.0,26.0,442.0,26.0,458.0,26.0,474.0,32.0,478.0,48.0,480.0,64.0,480.0,80.0,480.0,96.0,480.0,112.0,480.0,128.0,480.0,144.0,480.0,160.0,480.0,176.0,480.0,192.0,480.0,208.0,480.0" stroke="black" stroke-width="1" fill="none" />
<polyline points="374.0,374.0,358.0,386.0,342.0,384.0,344.0,388.0,330.0,388.0,322.0,372.0,324.0,356.0,330.0,340.0,338.0,324.0,348.0,308.0" stroke="black" stroke-width="1" fill="none" />
<polyline points="386.0,294.0,398.0,310.0,406.0,326.0,396.0,344.0,400.0,352.0,416.0,348.0,432.0,348.0,448.0,362.0,464.0,340.0" stroke="black" stroke-width="1" fill="none" />
<polyline points="484.0,220.0,484.0,204.0,484.0,188.0,484.0,172.0,484.0,156.0,484.0,140.0,484.0,124.0,484.0,108.0,484.0,92.0,484.0,76.0,484.0,60.0,484.0,44.0,478.0,30.0,462.0,30.0,446.0,30.0,430.0,30.0,414.0,30.0,398.0,30.0,382.0,30.0,366.0,30.0,350.0,30.0,334.0,30.0,318.0,30.0,302.0,30.0,286.0,32.0,288.0,30.0,286.0,46.0,286.0,62.0,286.0,78.0,286.0,94.0,286.0,110.0,286.0,126.0,286.0,142.0,286.0,158.0,286.0,174.0,286.0,190.0,286.0,206.0,286.0,222.0,300.0,228.0,316.0,228.0,332.0,228.0,348.0,228.0,364.0,228.0,380.0,228.0,396.0,228.0,412.0,228.0,428.0,228.0,444.0,228.0,460.0,228.0,476.0,228.0" stroke="black" stroke-width="1" fill="none" />
<polyline points="480.0,208.0,480.0,192.0,480.0,176.0,480.0,160.0,480.0,144.0,480.0,128.0,480.0,112.0,480.0,96.0,480.0,80.0,480.0,64.0,480.0,48.0,478.0,32.0,474.0,26.0,458.0,26.0,442.0,26.0,426.0,26.0,410.0,26.0,394.0,26.0,378.0,26.0,362.0,26.0,346.0,26.0,330.0,26.0,314.0,26.0,298.0,26.0,282.0,28.0,284.0,26.0,282.0,42.0,282.0,58.0,282.0,74.0,282.0,90.0,282.0,106.0,282.0,122.0,282.0,138.0,282.0,154.0,282.0,170.0,282.0,186.0,282.0,202.0,282.0,218.0,288.0,222.0,304.0,224.0,320.0,224.0,336.0,224.0,352.0,224.0,368.0,224.0,384.0,224.0,400.0,224.0,416.0,224.0,432.0,224.0,448.0,224.0,464.0,224.0" stroke="black" stroke-width="1" fill="none" />
<polyline points="284.0,282.0,282.0,298.0,282.0,314.0,282.0,330.0,282.0,346.0,282.0,362.0,282.0,378.0,282.0,394.0,282.0,410.0,282.0,426.0,282.0,442.0,282.0,458.0,282.0,474.0,288.0,478.0,304.0,480.0,320.0,480.0,336.0,480.0,352.0,480.0,368.0,480.0,384.0,480.0,400.0,480.0,416.0,480.0,432.0,480.0,448.0,480.0,464.0,480.0" stroke="black" stroke-width="1" fill="none" />
<polyline points="228.0,220.0,228.0,204.0,228.0,188.0,228.0,172.0,228.0,156.0,228.0,140.0,228.0,124.0,228.0,108.0,228.0,92.0,228.0,76.0,228.0,60.0,228.0,44.0,222.0,30.0,206.0,30.0,190.0,30.0,174.0,30.0,158.0,30.0,142.0,30.0,126.0,30.0,110.0,30.0,94.0,30.0,78.0,30.0,62.0,30.0,46.0,30.0,30.0,32.0,32.0,30.0,30.0,46.0,30.0,62.0,30.0,78.0,30.0,94.0,30.0,110.0,30.0,126.0,30.0,142.0,30.0,158.0,30.0,174.0,30.0,190.0,30.0,206.0,30.0,222.0,44.0,228.0,60.0,228.0,76.0,228.0,92.0,228.0,108.0,228.0,124.0,228.0,140.0,228.0,156.0,228.0,172.0,228.0,188.0,228.0,204.0,228.0,220.0,228.0" stroke="black" stroke-width="1" fill="none" />
<polyline points="224.0,208.0,224.0,192.0,224.0,176.0,224.0,160.0,224.0,144.0,224.0,128.0,224.0,112.0,224.0,96.0,224.0,80.0,224.0,64.0,224.0,48.0,222.0,32.0,218.0,26.0,202.0,26.0,186.0,26.0,170.0,26.0,154.0,26.0,138.0,26.0,122.0,26.0,106.0,26.0,90.0,26.0,74.0,26.0,58.0,26.0,42.0,26.0,26.0,28.0" stroke="black" stroke-width="1" fill="none" />
</svg>