<svg xmlns="http://www.w3.org/2000/svg" height="484px" width="484px" version="1.1"><polyline points="28.0,26.0,26.0,42.0,26.0,58.0,26.0,74.0,26.0,90.0,26.0,106.0,26.0,122.0,26.0,138.0,26.0,154.0,26.0,170.0,26.0,186.0,26.0,202.0,26.0,218.0,32.0,222.0,48.0,224.0,64.0,224.0,80.0,224.0,96.0,224.0,112.0,224.0,128.0,224.0,144.0,224.0,160.0,224.0,176.0,224.0,192.0,224.0,208.0,224.0" stroke="black" stroke-width="1" fill="none" />
<polyline points="282.0,284.0,298.0,282.0,314.0,282.0,330.0,282.0,346.0,282.0,362.0,282.0,378.0,282.0,394.0,282.0,410.0,282.0,426.0,282.0,442.0,282.0,458.0,282.0,474.0,282.0,478.0,288.0,480.0,304.0,480.0,320.0,480.0,336.0,480.0,352.0,480.0,368.0,480.0,384.0,480.0,400.0,480.0,416.0,480.0,432.0,480.0,448.0,480.0,464.0" stroke="black" stroke-width="1" fill="none" />
<polyline points="462.0,448.0,468.0,452.0,464.0,436.0,458.0,420.0,466.0,404.0,466.0,388.0,464.0,372.0,470.0,356.0,466.0,340.0,458.0,338.0,458.0,342.0,464.0,348.0,462.0,364.0" stroke="black" stroke-width="1" fill="none" />
<polyline points="440.0,376.0,460.0,392.0,454.0,408.0,436.0,428.0,438.0,444.0,434.0,460.0,432.0,462.0,448.0,456.0" stroke="black" stroke-width="1" fill="none" />
<polyline points="456.0,454.0,458.0,438.0,452.0,422.0,448.0,420.0,444.0,436.0,446.0,452.0" stroke="black" stroke-width="1" fill="none" />
<polyline points="450.0,412.0,434.0,420.0,418.0,424.0,402.0,420.0,386.0,402.0" stroke="black" stroke-width="1" fill="none" />
<polyline points="378.0,402.0,386.0,418.0,384.0,434.0,384.0,450.0" stroke="black" stroke-width="1" fill="none" />
<polyline points="398.0,460.0,402.0,444.0,400.0,428.0" stroke="black" stroke-width="1" fill="none" />
<polyline points="410.0,430.0,410.0,446.0,410.0,462.0" stroke="black" stroke-width="1" fill="none" />
<polyline points="406.0,468.0,378.0,472.0,374.0,460.0,372.0,462.0,388.0,458.0,390.0,442.0,392.0,426.0,386.0,408.0,384.0,392.0,392.0,376.0,382.0,358.0,382.0,342.0,368.0,344.0" stroke="black" stroke-width="1" fill="none" />
<polyline points="370.0,338.0,386.0,334.0,402.0,336.0" stroke="black" stroke-width="1" fill="none" />
<polyline points="400.0,330.0,384.0,326.0,368.0,334.0,352.0,354.0,354.0,358.0,368.0,350.0,372.0,366.0,364.0,388.0,360.0,378.0" stroke="black" stroke-width="1" fill="none" />
<polyline points="368.0,382.0,352.0,392.0,376.0,390.0,378.0,374.0" stroke="black" stroke-width="1" fill="none" />
<polyline points="376.0,400.0,354.0,416.0" stroke="black" stroke-width="1" fill="none" />
<polyline points="326.0,356.0,326.0,372.0,326.0,388.0,330.0,404.0,338.0,420.0,348.0,424.0,364.0,408.0,380.0,404.0,398.0,426.0,416.0,430.0,432.0,426.0,452.0,420.0" stroke="black" stroke-width="1" fill="none" />
<polyline points="400.0,312.0,384.0,304.0,368.0,304.0,348.0,330.0,332.0,312.0,316.0,308.0,300.0,320.0" stroke="black" stroke-width="1" fill="none" />
<polyline points="304.0,328.0,320.0,314.0,336.0,324.0" stroke="black" stroke-width="1" fill="none" />
<polyline points="324.0,316.0,330.0,334.0,316.0,350.0" stroke="black" stroke-width="1" fill="none" />
<polyline points="314.0,314.0,304.0,330.0,302.0,346.0,302.0,358.0,318.0,350.0,332.0,336.0,348.0,338.0,360.0,306.0,376.0,296.0,392.0,300.0,408.0,310.0" stroke="black" stroke-width="1" fill="none" />
<polyline points="404.0,320.0,382.0,304.0" stroke="black" stroke-width="1" fill="none" />
<polyline points="386.0,298.0,408.0,314.0,412.0,330.0" stroke="black" stroke-width="1" fill="none" />
<polyline points="378.0,324.0,366.0,340.0,352.0,356.0,358.0,356.0,354.0,372.0,346.0,388.0,362.0,382.0,356.0,372.0,372.0,374.0,374.0,362.0,384.0,368.0,400.0,366.0,416.0,366.0,432.0,368.0,448.0,370.0" stroke="black" stroke-width="1" fill="none" />
<polyline points="356.0,334.0,362.0,318.0,370.0,302.0" stroke="black" stroke-width="1" fill="none" />
<polyline points="368.0,296.0,358.0,312.0,352.0,328.0,334.0,346.0,332.0,362.0,338.0,378.0,332.0,394.0,332.0,406.0,342.0,404.0,358.0,404.0,374.0,392.0,392.0,374.0,408.0,372.0,424.0,372.0,440.0,376.0,456.0,384.0" stroke="black" stroke-width="1" fill="none" />
<polyline points="484.0,476.0,484.0,460.0,484.0,444.0,484.0,428.0,484.0,412.0,484.0,396.0,484.0,380.0,484.0,364.0,484.0,348.0,484.0,332.0,484.0,316.0,484.0,300.0,478.0,286.0,462.0,286.0,446.0,286.0,430.0,286.0,414.0,286.0,398.0,286.0,382.0,286.0,366.0,286.0,350.0,286.0,334.0,286.0,318.0,286.0,302.0,286.0,286.0,288.0,288.0,286.0,286.0,302.0,286.0,318.0,286.0,334.0,286.0,350.0,286.0,366.0,286.0,382.0,286.0,398.0,286.0,414.0,286.0,430.0,286.0,446.0,286.0,462.0,286.0,478.0,300.0,484.0,316.0,484.0,332.0,484.0,348.0,484.0,364.0,484.0,380.0,484.0,396.0,484.0,412.0,484.0,428.0,484.0,444.0,484.0,460.0,484.0,476.0,484.0" stroke="black" stroke-width="1" fill="none" />
<polyline points="344.0,326.0,328.0,310.0" stroke="black" stroke-width="1" fill="none" />
<polyline points="310.0,308.0,300.0,324.0,296.0,340.0,294.0,356.0,300.0,366.0,316.0,360.0" stroke="black" stroke-width="1" fill="none" />
<polyline points="284.0,282.0,282.0,298.0,282.0,314.0,282.0,330.0,282.0,346.0,282.0,362.0,282.0,378.0,282.0,394.0,282.0,410.0,282.0,426.0,282.0,442.0,282.0,458.0,282.0,474.0,288.0,478.0,304.0,480.0,320.0,480.0,336.0,480.0,352.0,480.0,368.0,480.0,384.0,480.0,400.0,480.0,416.0,480.0,432.0,480.0,448.0,480.0,464.0,480.0" stroke="black" stroke-width="1" fill="none" />
<polyline points="484.0,220.0,484.0,204.0,484.0,188.0,484.0,172.0,484.0,156.0,484.0,140.0,484.0,124.0,484.0,108.0,484.0,92.0,484.0,76.0,484.0,60.0,484.0,44.0,478.0,30.0,462.0,30.0,446.0,30.0,430.0,30.0,414.0,30.0,398.0,30.0,382.0,30.0,366.0,30.0,350.0,30.0,334.0,30.0,318.0,30.0,302.0,30.0,286.0,32.0,288.0,30.0,286.0,46.0,286.0,62.0,286.0,78.0,286.0,94.0,286.0,110.0,286.0,126.0,286.0,142.0,286.0,158.0,286.0,174.0,286.0,190.0,286.0,206.0,286.0,222.0,300.0,228.0,316.0,228.0,332.0,228.0,348.0,228.0,364.0,228.0,380.0,228.0,396.0,228.0,412.0,228.0,428.0,228.0,444.0,228.0,460.0,228.0,476.0,228.0" stroke="black" stroke-width="1" fill="none" />
<polyline points="480.0,208.0,480.0,192.0,480.0,176.0,480.0,160.0,480.0,144.0,480.0,128.0,480.0,112.0,480.0,96.0,480.0,80.0,480.0,64.0,480.0,48.0,478.0,32.0,474.0,26.0,458.0,26.0,442.0,26.0,426.0,26.0,410.0,26.0,394.0,26.0,378.0,26.0,362.0,26.0,346.0,26.0,330.0,26.0,314.0,26.0,298.0,26.0,282.0,28.0,284.0,26.0,282.0,42.0,282.0,58.0,282.0,74.0,282.0,90.0,282.0,106.0,282.0,122.0,282.0,138.0,282.0,154.0,282.0,170.0,282.0,186.0,282.0,202.0,282.0,218.0,288.0,222.0,304.0,224.0,320.0,224.0,336.0,224.0,352.0,224.0,368.0,224.0,384.0,224.0,400.0,224.0,416.0,224.0,432.0,224.0,448.0,224.0,464.0,224.0" stroke="black" stroke-width="1" fill="none" />
<polyline points="228.0,476.0,228.0,460.0,228.0,444.0,228.0,428.0,228.0,412.0,228.0,396.0,228.0,380.0,228.0,364.0,228.0,348.0,228.0,332.0,228.0,316.0,228.0,300.0,222.0,286.0,206.0,286.0,190.0,286.0,174.0,286.0,158.0,286.0,142.0,286.0,126.0,286.0,110.0,286.0,94.0,286.0,78.0,286.0,62.0,286.0,46.0,286.0,30.0,288.0,32.0,286.0,30.0,302.0,30.0,318.0,30.0,334.0,30.0,350.0,30.0,366.0,30.0,382.0,30.0,398.0,30.0,414.0,30.0,430.0,30.0,446.0,30.0,462.0,30.0,478.0,44.0,484.0,60.0,484.0,76.0,484.0,92.0,484.0,108.0,484.0,124.0,484.0,140.0,484.0,156.0,484.0,172.0,484.0,188.0,484.0,204.0,484.0,220.0,484.0" stroke="black" stroke-width="1" fill="none" />
<polyline points="228.0,220.0,228.0,204.0,228.0,188.0,228.0,172.0,228.0,156.0,228.0,140.0,228.0,124.0,228.0,108.0,228.0,92.0,228.0,76.0,228.0,60.0,228.0,44.0,222.0,30.0,206.0,30.0,190.0,30.0,174.0,30.0,158.0,30.0,142.0,30.0,126.0,30.0,110.0,30.0,94.0,30.0,78.0,30.0,62.0,30.0,46.0,30.0,30.0,32.0,32.0,30.0,30.0,46.0,30.0,62.0,30.0,78.0,30.0,94.0,30.0,110.0,30.0,126.0,30.0,142.0,30.0,158.0,30.0,174.0,30.0,190.0,30.0,206.0,30.0,222.0,44.0,228.0,60.0,228.0,76.0,228.0,92.0,228.0,108.0,228.0,124.0,228.0,140.0,228.0,156.0,228.0,172.0,228.0,188.0,228.0,204.0,228.0,220.0,228.0" stroke="black" stroke-width="1" fill="none" />
<polyline points="224.0,208.0,224.0,192.0,224.0,176.0,224.0,160.0,224.0,144.0,224.0,128.0,224.0,112.0,224.0,96.0,224.0,80.0,224.0,64.0,224.0,48.0,222.0,32.0,218.0,26.0,202.0,26.0,186.0,26.0,170.0,26.0,154.0,26.0,138.0,26.0,122.0,26.0,106.0,26.0,90.0,26.0,74.0,26.0,58.0,26.0,42.0,26.0,26.0,28.0" stroke="black" stroke-width="1" fill="none" />
<polyline points="28.0,282.0,26.0,298.0,26.0,314.0,26.0,330.0,26.0,346.0,26.0,362.0,26.0,378.0,26.0,394.0,26.0,410.0,26.0,426.0,26.0,442.0,26.0,458.0,26.0,474.0,32.0,478.0,48.0,480.0,64.0,480.0,80.0,480.0,96.0,480.0,112.0,480.0,128.0,480.0,144.0,480.0,160.0,480.0,176.0,480.0,192.0,480.0,208.0,480.0" stroke="black" stroke-width="1" fill="none" />
<polyline points="224.0,464.0,224.0,448.0,224.0,432.0,224.0,416.0,224.0,400.0,224.0,384.0,224.0,368.0,224.0,352.0,224.0,336.0,224.0,320.0,224.0,304.0,222.0,288.0,218.0,282.0,202.0,282.0,186.0,282.0,170.0,282.0,154.0,282.0,138.0,282.0,122.0,282.0,106.0,282.0,90.0,282.0,74.0,282.0,58.0,282.0,42.0,282.0,26.0,284.0" stroke="black" stroke-width="1" fill="none" />
</svg>