<svg xmlns="http://www.w3.org/2000/svg" height="504px" width="502px" version="1.1"><polyline points="280.0,264.0,276.0,280.0,284.0,296.0,286.0,312.0,288.0,326.0,264.0,342.0,276.0,332.0,302.0,324.0,318.0,322.0,326.0,308.0" stroke="black" stroke-width="1" fill="none" />
<polyline points="348.0,318.0,364.0,308.0,374.0,324.0,390.0,318.0,404.0,304.0" stroke="black" stroke-width="1" fill="none" />
<polyline points="408.0,310.0,402.0,326.0,382.0,332.0,404.0,326.0,420.0,322.0,448.0,324.0" stroke="black" stroke-width="1" fill="none" />
<polyline points="450.0,310.0,434.0,304.0" stroke="black" stroke-width="1" fill="none" />
<polyline points="440.0,330.0,424.0,330.0,408.0,338.0,392.0,346.0,392.0,350.0,408.0,362.0" stroke="black" stroke-width="1" fill="none" />
<polyline points="362.0,356.0,390.0,358.0,402.0,374.0,406.0,390.0,408.0,406.0,406.0,422.0,404.0,438.0,400.0,454.0,392.0,460.0" stroke="black" stroke-width="1" fill="none" />
<polyline points="414.0,442.0,430.0,442.0,446.0,438.0,462.0,430.0,478.0,420.0" stroke="black" stroke-width="1" fill="none" />
<polyline points="486.0,382.0,470.0,354.0,468.0,350.0,484.0,356.0,490.0,362.0" stroke="black" stroke-width="1" fill="none" />
<polyline points="474.0,350.0,492.0,366.0,500.0,382.0,502.0,398.0,496.0,414.0,480.0,430.0,448.0,446.0" stroke="black" stroke-width="1" fill="none" />
<polyline points="444.0,438.0,474.0,422.0,488.0,406.0,488.0,390.0,482.0,374.0,468.0,366.0,468.0,350.0,470.0,342.0" stroke="black" stroke-width="1" fill="none" />
<polyline points="394.0,362.0,378.0,370.0,362.0,370.0,346.0,360.0,330.0,382.0" stroke="black" stroke-width="1" fill="none" />
<polyline points="318.0,380.0,334.0,356.0,336.0,372.0,330.0,388.0,328.0,404.0,330.0,420.0,336.0,436.0,346.0,452.0,348.0,454.0,332.0,422.0" stroke="black" stroke-width="1" fill="none" />
<polyline points="320.0,432.0,336.0,456.0,352.0,470.0" stroke="black" stroke-width="1" fill="none" />
<polyline points="340.0,486.0,352.0,488.0,346.0,468.0,330.0,452.0,322.0,436.0,318.0,420.0,316.0,404.0,318.0,388.0,322.0,372.0,334.0,356.0,328.0,350.0,312.0,344.0,296.0,346.0,280.0,352.0" stroke="black" stroke-width="1" fill="none" />
<polyline points="266.0,340.0,282.0,336.0,298.0,334.0" stroke="black" stroke-width="1" fill="none" />
<polyline points="290.0,286.0,278.0,286.0" stroke="black" stroke-width="1" fill="none" />
<polyline points="276.0,270.0,292.0,264.0,308.0,268.0,324.0,274.0,340.0,276.0,356.0,276.0,372.0,276.0,388.0,276.0,404.0,268.0,420.0,264.0,436.0,260.0,442.0,266.0,448.0,282.0,432.0,298.0,432.0,320.0,404.0,340.0,402.0,358.0,414.0,374.0,418.0,390.0,418.0,406.0,418.0,422.0,416.0,438.0,404.0,462.0,390.0,478.0,378.0,498.0,394.0,504.0,410.0,504.0" stroke="black" stroke-width="1" fill="none" />
<polyline points="416.0,492.0,400.0,484.0,392.0,496.0,390.0,490.0,370.0,478.0,354.0,486.0,338.0,492.0,322.0,486.0" stroke="black" stroke-width="1" fill="none" />
<polyline points="326.0,476.0,326.0,492.0,334.0,476.0,350.0,474.0" stroke="black" stroke-width="1" fill="none" />
<polyline points="378.0,460.0,378.0,444.0,376.0,428.0,378.0,412.0,378.0,406.0" stroke="black" stroke-width="1" fill="none" />
<polyline points="384.0,408.0,388.0,424.0,388.0,440.0,390.0,456.0" stroke="black" stroke-width="1" fill="none" />
<polyline points="406.0,486.0,412.0,502.0" stroke="black" stroke-width="1" fill="none" />
<polyline points="366.0,420.0,350.0,402.0,352.0,400.0,352.0,416.0,354.0,432.0,356.0,448.0,370.0,470.0,398.0,472.0,414.0,454.0,430.0,452.0,446.0,448.0,462.0,440.0,478.0,432.0,494.0,416.0" stroke="black" stroke-width="1" fill="none" />
<polyline points="402.0,504.0,374.0,490.0,366.0,466.0,368.0,450.0,368.0,434.0,364.0,418.0,356.0,402.0" stroke="black" stroke-width="1" fill="none" />
<polyline points="366.0,364.0,352.0,360.0" stroke="black" stroke-width="1" fill="none" />
<polyline points="354.0,316.0,362.0,332.0,364.0,332.0,364.0,316.0" stroke="black" stroke-width="1" fill="none" />
<polyline points="384.0,284.0,368.0,282.0,352.0,282.0,336.0,284.0,320.0,282.0,304.0,274.0,288.0,272.0,288.0,272.0,290.0,288.0,302.0,304.0,298.0,320.0,298.0,338.0,278.0,350.0,294.0,340.0,310.0,334.0,326.0,330.0,326.0,342.0,340.0,344.0,356.0,346.0,372.0,344.0,388.0,340.0,404.0,334.0,408.0,316.0,424.0,310.0,442.0,292.0" stroke="black" stroke-width="1" fill="none" />
<polyline points="432.0,270.0,432.0,286.0,424.0,304.0,422.0,318.0,446.0,316.0" stroke="black" stroke-width="1" fill="none" />
<polyline points="430.0,288.0,410.0,296.0,412.0,280.0,424.0,268.0" stroke="black" stroke-width="1" fill="none" />
<polyline points="432.0,268.0,416.0,272.0,400.0,280.0,414.0,264.0" stroke="black" stroke-width="1" fill="none" />
</svg>