<svg xmlns="http://www.w3.org/2000/svg" height="508px" width="486px" version="1.1"><polyline points="324.0,256.0,322.0,272.0,318.0,288.0,318.0,304.0,330.0,320.0,314.0,344.0,326.0,350.0,314.0,360.0,316.0,348.0,330.0,342.0,338.0,342.0,366.0,332.0,382.0,338.0,398.0,342.0,414.0,348.0,424.0,342.0,440.0,344.0,444.0,334.0,458.0,334.0,456.0,340.0,468.0,346.0,478.0,332.0,480.0,340.0" stroke="black" stroke-width="1" fill="none" />
<polyline points="470.0,346.0,486.0,358.0,486.0,374.0,476.0,390.0" stroke="black" stroke-width="1" fill="none" />
<polyline points="422.0,378.0,414.0,362.0,392.0,348.0,392.0,356.0" stroke="black" stroke-width="1" fill="none" />
<polyline points="368.0,338.0,386.0,340.0,420.0,350.0,426.0,364.0,424.0,368.0,430.0,354.0,446.0,362.0,462.0,380.0,478.0,390.0,484.0,392.0" stroke="black" stroke-width="1" fill="none" />
<polyline points="478.0,360.0,462.0,362.0,446.0,352.0,454.0,344.0,462.0,348.0,474.0,348.0,468.0,332.0" stroke="black" stroke-width="1" fill="none" />
<polyline points="454.0,330.0,436.0,332.0,438.0,348.0,446.0,364.0,434.0,370.0,432.0,378.0,428.0,394.0" stroke="black" stroke-width="1" fill="none" />
<polyline points="382.0,402.0,380.0,418.0,380.0,434.0,380.0,450.0,376.0,466.0" stroke="black" stroke-width="1" fill="none" />
<polyline points="376.0,476.0,392.0,480.0,408.0,476.0,424.0,462.0,440.0,462.0,456.0,460.0" stroke="black" stroke-width="1" fill="none" />
<polyline points="444.0,462.0,432.0,462.0,426.0,478.0,434.0,500.0,450.0,508.0,466.0,496.0,468.0,502.0" stroke="black" stroke-width="1" fill="none" />
<polyline points="454.0,506.0,460.0,490.0,456.0,474.0,434.0,494.0,424.0,488.0,408.0,492.0,392.0,494.0,376.0,500.0,366.0,478.0,358.0,462.0,358.0,446.0,358.0,430.0,364.0,414.0,346.0,392.0,344.0,380.0,348.0,364.0,344.0,356.0,346.0,352.0,332.0,366.0,332.0,368.0,340.0,340.0,344.0,318.0,354.0,314.0,362.0,298.0,362.0,290.0,354.0,278.0,346.0,274.0,330.0,276.0" stroke="black" stroke-width="1" fill="none" />
<polyline points="330.0,268.0,332.0,284.0,322.0,288.0,324.0,298.0,330.0,314.0,338.0,310.0,350.0,318.0,354.0,304.0" stroke="black" stroke-width="1" fill="none" />
<polyline points="368.0,306.0,366.0,324.0" stroke="black" stroke-width="1" fill="none" />
<polyline points="352.0,350.0,356.0,366.0,356.0,382.0,348.0,386.0" stroke="black" stroke-width="1" fill="none" />
<polyline points="342.0,416.0,322.0,420.0,320.0,426.0" stroke="black" stroke-width="1" fill="none" />
<polyline points="308.0,426.0,312.0,428.0,292.0,432.0,302.0,448.0,312.0,464.0,324.0,480.0,340.0,496.0,330.0,504.0,348.0,506.0" stroke="black" stroke-width="1" fill="none" />
<polyline points="384.0,508.0,390.0,502.0,406.0,498.0,422.0,496.0" stroke="black" stroke-width="1" fill="none" />
<polyline points="444.0,498.0,446.0,482.0" stroke="black" stroke-width="1" fill="none" />
<polyline points="414.0,474.0,418.0,462.0" stroke="black" stroke-width="1" fill="none" />
<polyline points="324.0,468.0,316.0,460.0,308.0,452.0,302.0,446.0,300.0,434.0" stroke="black" stroke-width="1" fill="none" />
<polyline points="294.0,434.0,306.0,442.0,314.0,458.0,322.0,466.0,326.0,472.0,336.0,484.0,334.0,478.0" stroke="black" stroke-width="1" fill="none" />
<polyline points="356.0,496.0,360.0,480.0,364.0,464.0,364.0,448.0,364.0,432.0,354.0,410.0,338.0,414.0,322.0,414.0,306.0,418.0,290.0,422.0" stroke="black" stroke-width="1" fill="none" />
<polyline points="280.0,416.0,296.0,410.0,312.0,408.0,328.0,404.0,344.0,404.0" stroke="black" stroke-width="1" fill="none" />
<polyline points="322.0,370.0,336.0,354.0,342.0,330.0,326.0,326.0,310.0,302.0,308.0,318.0,306.0,326.0" stroke="black" stroke-width="1" fill="none" />
<polyline points="284.0,314.0,290.0,326.0,284.0,324.0,286.0,332.0,302.0,354.0" stroke="black" stroke-width="1" fill="none" />
<polyline points="312.0,376.0,300.0,360.0,310.0,354.0,304.0,338.0,300.0,322.0,306.0,306.0,294.0,298.0,292.0,302.0" stroke="black" stroke-width="1" fill="none" />
<polyline points="286.0,278.0,286.0,294.0,282.0,310.0,278.0,326.0,284.0,342.0,294.0,340.0,296.0,358.0,296.0,374.0,304.0,376.0,320.0,366.0,336.0,354.0,352.0,342.0,376.0,342.0,392.0,344.0,400.0,334.0,416.0,338.0,432.0,334.0,448.0,328.0,464.0,324.0,480.0,328.0" stroke="black" stroke-width="1" fill="none" />
<polyline points="434.0,322.0,418.0,328.0,404.0,326.0,388.0,324.0,386.0,324.0,380.0,308.0,380.0,292.0,380.0,276.0,376.0,272.0,366.0,256.0,354.0,256.0,338.0,254.0,322.0,260.0,306.0,258.0,296.0,282.0,288.0,292.0,280.0,290.0,282.0,274.0,280.0,276.0,296.0,274.0,308.0,280.0,328.0,266.0,344.0,264.0,356.0,282.0" stroke="black" stroke-width="1" fill="none" />
<polyline points="338.0,272.0,348.0,288.0,348.0,304.0,338.0,320.0" stroke="black" stroke-width="1" fill="none" />
<polyline points="368.0,258.0,366.0,274.0,372.0,290.0,368.0,306.0,376.0,310.0,364.0,322.0,362.0,344.0,364.0,360.0,366.0,376.0,368.0,392.0,372.0,408.0,372.0,424.0,372.0,440.0,374.0,456.0,374.0,472.0,366.0,478.0,374.0,494.0,386.0,506.0" stroke="black" stroke-width="1" fill="none" />
<polyline points="320.0,494.0,304.0,494.0,298.0,488.0,282.0,496.0,282.0,496.0,296.0,478.0,280.0,484.0" stroke="black" stroke-width="1" fill="none" />
<polyline points="292.0,504.0,298.0,488.0,304.0,470.0,290.0,452.0,286.0,440.0,278.0,448.0" stroke="black" stroke-width="1" fill="none" />
<polyline points="278.0,436.0,294.0,450.0,294.0,462.0,302.0,464.0,318.0,470.0,332.0,490.0" stroke="black" stroke-width="1" fill="none" />
<polyline points="280.0,412.0,296.0,402.0,304.0,396.0,320.0,400.0,336.0,396.0,352.0,394.0,372.0,396.0,376.0,402.0" stroke="black" stroke-width="1" fill="none" />
<polyline points="286.0,406.0,280.0,422.0,280.0,438.0,280.0,454.0,298.0,458.0,300.0,472.0,282.0,480.0,290.0,500.0,288.0,502.0,304.0,508.0,314.0,500.0,324.0,508.0,338.0,502.0,348.0,484.0,362.0,490.0,382.0,486.0,398.0,484.0,414.0,482.0,430.0,478.0,446.0,472.0" stroke="black" stroke-width="1" fill="none" />
</svg>