<svg xmlns="http://www.w3.org/2000/svg" height="508px" width="466px" version="1.1"><polyline points="392.0,258.0,398.0,264.0,388.0,280.0,388.0,296.0,386.0,312.0,396.0,318.0,414.0,332.0,408.0,336.0,428.0,340.0,430.0,356.0,416.0,366.0,398.0,368.0,404.0,386.0,396.0,390.0,422.0,392.0,436.0,404.0,460.0,422.0,466.0,422.0,460.0,428.0,460.0,442.0,444.0,458.0,444.0,464.0,442.0,480.0,458.0,494.0" stroke="black" stroke-width="1" fill="none" />
<polyline points="436.0,498.0,424.0,490.0,416.0,476.0,424.0,468.0,436.0,454.0,438.0,432.0,428.0,418.0,426.0,424.0" stroke="black" stroke-width="1" fill="none" />
<polyline points="436.0,426.0,424.0,452.0,406.0,464.0,402.0,482.0" stroke="black" stroke-width="1" fill="none" />
<polyline points="408.0,488.0,424.0,488.0,440.0,492.0" stroke="black" stroke-width="1" fill="none" />
<polyline points="454.0,486.0,456.0,484.0,456.0,474.0,440.0,478.0,424.0,476.0" stroke="black" stroke-width="1" fill="none" />
<polyline points="424.0,464.0,444.0,458.0,448.0,458.0,460.0,452.0" stroke="black" stroke-width="1" fill="none" />
<polyline points="460.0,438.0,442.0,440.0,442.0,440.0,452.0,424.0" stroke="black" stroke-width="1" fill="none" />
<polyline points="456.0,392.0,446.0,412.0,422.0,400.0,426.0,386.0,410.0,396.0,406.0,388.0" stroke="black" stroke-width="1" fill="none" />
<polyline points="402.0,406.0,434.0,414.0,426.0,424.0,432.0,440.0,428.0,454.0,418.0,466.0,402.0,482.0,418.0,496.0,420.0,500.0,432.0,484.0,448.0,488.0,454.0,502.0" stroke="black" stroke-width="1" fill="none" />
<polyline points="378.0,456.0,372.0,474.0,374.0,472.0,390.0,454.0,388.0,434.0,392.0,418.0,392.0,416.0" stroke="black" stroke-width="1" fill="none" />
<polyline points="386.0,394.0,370.0,388.0" stroke="black" stroke-width="1" fill="none" />
<polyline points="370.0,378.0,386.0,368.0,404.0,378.0,420.0,374.0,436.0,372.0,452.0,364.0,452.0,360.0,436.0,358.0" stroke="black" stroke-width="1" fill="none" />
<polyline points="404.0,358.0,402.0,354.0,406.0,364.0,422.0,358.0,424.0,366.0,440.0,376.0,440.0,372.0,456.0,370.0,464.0,374.0,454.0,386.0,440.0,390.0,446.0,392.0,452.0,404.0" stroke="black" stroke-width="1" fill="none" />
<polyline points="460.0,352.0,444.0,354.0,466.0,366.0,466.0,350.0,464.0,344.0,448.0,344.0,438.0,356.0,432.0,330.0,444.0,314.0,448.0,298.0,426.0,312.0,426.0,320.0,410.0,324.0,418.0,316.0,438.0,308.0,444.0,292.0,448.0,276.0,446.0,260.0,436.0,256.0,420.0,256.0,404.0,256.0,388.0,266.0" stroke="black" stroke-width="1" fill="none" />
<polyline points="388.0,278.0,404.0,266.0,420.0,262.0,436.0,264.0" stroke="black" stroke-width="1" fill="none" />
<polyline points="418.0,270.0,428.0,278.0,428.0,294.0" stroke="black" stroke-width="1" fill="none" />
<polyline points="444.0,312.0,430.0,308.0,434.0,292.0,436.0,276.0,416.0,278.0,400.0,270.0,402.0,266.0,394.0,282.0,394.0,298.0,396.0,292.0" stroke="black" stroke-width="1" fill="none" />
<polyline points="374.0,322.0,358.0,328.0,342.0,330.0,326.0,348.0,322.0,360.0,306.0,368.0,308.0,372.0,332.0,356.0,328.0,346.0,354.0,334.0" stroke="black" stroke-width="1" fill="none" />
<polyline points="356.0,322.0,340.0,322.0" stroke="black" stroke-width="1" fill="none" />
<polyline points="336.0,338.0,330.0,338.0,320.0,354.0,300.0,370.0,300.0,386.0,302.0,402.0,320.0,386.0,330.0,388.0,336.0,366.0,352.0,362.0,362.0,346.0,378.0,336.0,394.0,334.0,412.0,330.0,428.0,330.0,440.0,326.0" stroke="black" stroke-width="1" fill="none" />
<polyline points="394.0,340.0,388.0,356.0,386.0,358.0,374.0,374.0,384.0,384.0,384.0,400.0,390.0,402.0,386.0,418.0,382.0,434.0,382.0,450.0,372.0,452.0,344.0,468.0,320.0,484.0,324.0,500.0,312.0,494.0" stroke="black" stroke-width="1" fill="none" />
<polyline points="312.0,484.0,314.0,500.0,322.0,480.0,338.0,472.0,354.0,464.0,370.0,456.0,372.0,458.0,346.0,476.0,340.0,482.0,338.0,486.0,354.0,474.0" stroke="black" stroke-width="1" fill="none" />
<polyline points="328.0,490.0,326.0,470.0,348.0,460.0,366.0,450.0,372.0,436.0,360.0,430.0,378.0,418.0,374.0,410.0,380.0,394.0,364.0,374.0,360.0,374.0,370.0,366.0,386.0,350.0,380.0,354.0,364.0,374.0" stroke="black" stroke-width="1" fill="none" />
<polyline points="386.0,334.0,350.0,344.0,336.0,360.0,344.0,350.0,360.0,340.0,388.0,346.0,412.0,342.0" stroke="black" stroke-width="1" fill="none" />
<polyline points="414.0,312.0,398.0,308.0,422.0,290.0,422.0,302.0,406.0,302.0,404.0,314.0,390.0,314.0,382.0,328.0,366.0,332.0,350.0,336.0,334.0,352.0,320.0,378.0,316.0,400.0,320.0,396.0,338.0,380.0,344.0,372.0,354.0,360.0,364.0,344.0,376.0,314.0,376.0,298.0,376.0,288.0,374.0,272.0,386.0,264.0,376.0,260.0" stroke="black" stroke-width="1" fill="none" />
<polyline points="308.0,380.0,324.0,372.0,320.0,392.0" stroke="black" stroke-width="1" fill="none" />
<polyline points="348.0,444.0,332.0,460.0,350.0,460.0,356.0,446.0,368.0,432.0,378.0,416.0,396.0,398.0,408.0,402.0,424.0,408.0,440.0,416.0,448.0,414.0,464.0,416.0" stroke="black" stroke-width="1" fill="none" />
<polyline points="340.0,464.0,324.0,472.0,308.0,476.0" stroke="black" stroke-width="1" fill="none" />
<polyline points="308.0,482.0,308.0,498.0" stroke="black" stroke-width="1" fill="none" />
<polyline points="300.0,474.0,316.0,468.0,318.0,458.0,334.0,460.0,352.0,452.0,370.0,442.0" stroke="black" stroke-width="1" fill="none" />
<polyline points="306.0,460.0,300.0,476.0,300.0,492.0,300.0,508.0" stroke="black" stroke-width="1" fill="none" />
</svg>