<svg xmlns="http://www.w3.org/2000/svg" height="508px" width="486px" version="1.1"><polyline points="280.0,256.0,280.0,272.0,282.0,288.0,294.0,304.0,300.0,328.0" stroke="black" stroke-width="1" fill="none" />
<polyline points="298.0,318.0,282.0,306.0" stroke="black" stroke-width="1" fill="none" />
<polyline points="280.0,290.0,296.0,304.0,312.0,320.0,328.0,328.0,344.0,334.0,360.0,338.0,376.0,340.0,388.0,346.0,386.0,362.0,384.0,378.0,394.0,394.0,422.0,410.0,432.0,426.0,424.0,436.0,432.0,452.0,432.0,470.0,432.0,484.0,420.0,486.0,422.0,502.0,412.0,508.0,392.0,506.0,392.0,500.0,412.0,484.0,428.0,478.0,434.0,480.0,420.0,506.0,436.0,494.0" stroke="black" stroke-width="1" fill="none" />
<polyline points="454.0,478.0,448.0,474.0,442.0,460.0" stroke="black" stroke-width="1" fill="none" />
<polyline points="434.0,430.0,412.0,446.0,418.0,438.0,422.0,428.0,406.0,434.0" stroke="black" stroke-width="1" fill="none" />
<polyline points="408.0,398.0,392.0,392.0" stroke="black" stroke-width="1" fill="none" />
<polyline points="390.0,368.0,392.0,378.0,404.0,406.0,416.0,414.0,406.0,424.0,406.0,440.0,422.0,456.0,420.0,472.0,412.0,488.0" stroke="black" stroke-width="1" fill="none" />
<polyline points="400.0,492.0,396.0,476.0,382.0,474.0,366.0,472.0,350.0,480.0" stroke="black" stroke-width="1" fill="none" />
<polyline points="358.0,468.0,350.0,484.0,350.0,466.0,366.0,464.0,382.0,462.0,382.0,470.0,386.0,474.0,390.0,490.0" stroke="black" stroke-width="1" fill="none" />
<polyline points="398.0,478.0,390.0,454.0,374.0,454.0,358.0,460.0,342.0,466.0,328.0,478.0,318.0,482.0,302.0,482.0,286.0,470.0" stroke="black" stroke-width="1" fill="none" />
<polyline points="288.0,462.0,304.0,458.0,320.0,456.0,344.0,458.0,356.0,454.0" stroke="black" stroke-width="1" fill="none" />
<polyline points="354.0,464.0,334.0,480.0,330.0,496.0" stroke="black" stroke-width="1" fill="none" />
<polyline points="322.0,468.0,306.0,464.0,306.0,468.0" stroke="black" stroke-width="1" fill="none" />
<polyline points="294.0,468.0,310.0,476.0,326.0,474.0" stroke="black" stroke-width="1" fill="none" />
<polyline points="296.0,484.0,298.0,482.0,284.0,466.0,284.0,450.0,292.0,450.0" stroke="black" stroke-width="1" fill="none" />
<polyline points="284.0,448.0,300.0,446.0,316.0,440.0,316.0,450.0,322.0,442.0,332.0,430.0,342.0,428.0,358.0,406.0,374.0,400.0,390.0,400.0,406.0,406.0,422.0,420.0,436.0,422.0" stroke="black" stroke-width="1" fill="none" />
<polyline points="438.0,384.0,438.0,372.0,456.0,368.0,458.0,356.0" stroke="black" stroke-width="1" fill="none" />
<polyline points="442.0,350.0,442.0,374.0,450.0,380.0,456.0,368.0,472.0,372.0" stroke="black" stroke-width="1" fill="none" />
<polyline points="484.0,364.0,468.0,366.0,452.0,362.0,436.0,376.0,420.0,382.0" stroke="black" stroke-width="1" fill="none" />
<polyline points="428.0,374.0,412.0,370.0,396.0,354.0" stroke="black" stroke-width="1" fill="none" />
<polyline points="402.0,352.0,386.0,350.0" stroke="black" stroke-width="1" fill="none" />
<polyline points="388.0,312.0,378.0,310.0,374.0,294.0,382.0,278.0,374.0,286.0" stroke="black" stroke-width="1" fill="none" />
<polyline points="366.0,284.0,374.0,270.0,366.0,286.0,368.0,302.0,380.0,318.0,404.0,344.0,420.0,346.0,436.0,342.0,452.0,334.0,468.0,334.0,484.0,334.0" stroke="black" stroke-width="1" fill="none" />
<polyline points="486.0,282.0,486.0,266.0,482.0,254.0,466.0,258.0,470.0,258.0,480.0,274.0" stroke="black" stroke-width="1" fill="none" />
<polyline points="418.0,270.0,402.0,260.0,402.0,256.0,412.0,272.0,418.0,288.0,416.0,304.0,404.0,320.0,406.0,328.0,398.0,340.0,396.0,356.0,404.0,364.0,404.0,380.0,410.0,386.0,428.0,402.0,440.0,416.0,444.0,422.0,442.0,430.0,438.0,446.0,442.0,462.0,440.0,478.0,460.0,482.0,454.0,498.0,434.0,502.0,448.0,506.0,456.0,494.0" stroke="black" stroke-width="1" fill="none" />
<polyline points="446.0,414.0,430.0,404.0,414.0,396.0,412.0,386.0,406.0,378.0,390.0,376.0,384.0,376.0,376.0,370.0,378.0,354.0,366.0,348.0,376.0,326.0,366.0,316.0,358.0,300.0,358.0,284.0,366.0,268.0,348.0,288.0" stroke="black" stroke-width="1" fill="none" />
<polyline points="358.0,284.0,362.0,258.0,356.0,274.0,348.0,290.0,350.0,306.0,344.0,314.0,348.0,326.0,364.0,330.0,380.0,326.0,390.0,330.0,406.0,318.0,422.0,290.0" stroke="black" stroke-width="1" fill="none" />
<polyline points="408.0,300.0,408.0,284.0,398.0,278.0,394.0,270.0,378.0,272.0" stroke="black" stroke-width="1" fill="none" />
<polyline points="420.0,276.0,420.0,262.0,404.0,256.0,388.0,254.0,372.0,256.0,350.0,254.0,334.0,254.0,318.0,262.0" stroke="black" stroke-width="1" fill="none" />
<polyline points="310.0,272.0,310.0,264.0,334.0,270.0,326.0,276.0,312.0,290.0,328.0,302.0,330.0,312.0,338.0,318.0,346.0,318.0,356.0,310.0,380.0,316.0,396.0,316.0,410.0,294.0,384.0,296.0,396.0,302.0,398.0,312.0,422.0,306.0,420.0,314.0,428.0,310.0,420.0,314.0,410.0,340.0,418.0,356.0,426.0,366.0,428.0,356.0,440.0,358.0,452.0,344.0,456.0,350.0,472.0,350.0,476.0,342.0,484.0,346.0,486.0,362.0" stroke="black" stroke-width="1" fill="none" />
<polyline points="418.0,404.0,398.0,414.0,380.0,412.0,364.0,410.0,364.0,414.0" stroke="black" stroke-width="1" fill="none" />
<polyline points="364.0,388.0,348.0,382.0,348.0,382.0,346.0,398.0,346.0,398.0" stroke="black" stroke-width="1" fill="none" />
<polyline points="318.0,424.0,334.0,418.0,350.0,402.0,366.0,392.0,364.0,402.0,346.0,418.0,338.0,434.0,334.0,450.0,332.0,466.0,334.0,490.0,324.0,498.0,340.0,502.0,356.0,496.0,368.0,498.0" stroke="black" stroke-width="1" fill="none" />
<polyline points="380.0,506.0,382.0,490.0,370.0,478.0,366.0,482.0,352.0,484.0,350.0,506.0,350.0,490.0,340.0,490.0,340.0,468.0,340.0,456.0,344.0,440.0,318.0,438.0,324.0,420.0,338.0,404.0,342.0,410.0,364.0,394.0,366.0,378.0,366.0,362.0,366.0,344.0,362.0,350.0,346.0,346.0,344.0,350.0,338.0,336.0,322.0,334.0,306.0,332.0,318.0,324.0,298.0,308.0,288.0,304.0,298.0,296.0,300.0,280.0,310.0,280.0,310.0,264.0,304.0,260.0,296.0,256.0,280.0,256.0" stroke="black" stroke-width="1" fill="none" />
<polyline points="288.0,266.0,288.0,282.0,306.0,280.0,306.0,296.0,312.0,312.0,350.0,328.0" stroke="black" stroke-width="1" fill="none" />
<polyline points="330.0,336.0,340.0,352.0" stroke="black" stroke-width="1" fill="none" />
<polyline points="316.0,304.0,318.0,290.0,326.0,282.0" stroke="black" stroke-width="1" fill="none" />
<polyline points="308.0,286.0,324.0,280.0,340.0,266.0" stroke="black" stroke-width="1" fill="none" />
<polyline points="340.0,304.0,330.0,312.0,314.0,312.0,298.0,294.0" stroke="black" stroke-width="1" fill="none" />
<polyline points="374.0,466.0,372.0,482.0,360.0,498.0" stroke="black" stroke-width="1" fill="none" />
<polyline points="368.0,498.0,376.0,498.0,376.0,482.0" stroke="black" stroke-width="1" fill="none" />
</svg>