<svg xmlns="http://www.w3.org/2000/svg" height="508px" width="448px" version="1.1"><polyline points="404.0,254.0,402.0,270.0,398.0,286.0,400.0,300.0,408.0,302.0,414.0,286.0,426.0,296.0,442.0,294.0" stroke="black" stroke-width="1" fill="none" />
<polyline points="428.0,270.0,432.0,262.0,436.0,264.0,428.0,280.0,420.0,282.0,426.0,298.0,414.0,312.0,408.0,318.0,404.0,334.0,394.0,350.0,400.0,368.0,404.0,384.0,392.0,398.0,386.0,414.0,384.0,430.0,380.0,446.0,374.0,462.0,376.0,478.0,382.0,486.0,370.0,502.0,374.0,494.0,384.0,498.0,384.0,504.0,402.0,506.0,418.0,490.0,426.0,484.0,444.0,468.0" stroke="black" stroke-width="1" fill="none" />
<polyline points="434.0,462.0,438.0,446.0" stroke="black" stroke-width="1" fill="none" />
<polyline points="426.0,424.0,448.0,438.0,448.0,454.0,436.0,466.0,436.0,484.0,446.0,486.0,448.0,502.0,430.0,496.0,432.0,502.0" stroke="black" stroke-width="1" fill="none" />
<polyline points="426.0,498.0,430.0,478.0,424.0,460.0,420.0,444.0,400.0,438.0" stroke="black" stroke-width="1" fill="none" />
<polyline points="374.0,442.0,390.0,464.0,388.0,480.0,396.0,496.0" stroke="black" stroke-width="1" fill="none" />
<polyline points="362.0,492.0,364.0,488.0,362.0,504.0" stroke="black" stroke-width="1" fill="none" />
<polyline points="412.0,474.0,412.0,458.0,412.0,442.0,408.0,424.0,406.0,408.0" stroke="black" stroke-width="1" fill="none" />
<polyline points="400.0,408.0,396.0,424.0,394.0,440.0,386.0,450.0,384.0,466.0" stroke="black" stroke-width="1" fill="none" />
<polyline points="442.0,432.0,432.0,432.0,404.0,416.0,400.0,408.0,392.0,398.0,390.0,404.0,386.0,390.0,382.0,374.0" stroke="black" stroke-width="1" fill="none" />
<polyline points="406.0,360.0,410.0,376.0,412.0,392.0,414.0,408.0,412.0,426.0,400.0,442.0,402.0,458.0,398.0,474.0,396.0,490.0,398.0,486.0,418.0,460.0" stroke="black" stroke-width="1" fill="none" />
<polyline points="424.0,364.0,408.0,362.0" stroke="black" stroke-width="1" fill="none" />
<polyline points="434.0,348.0,440.0,332.0,436.0,316.0,434.0,300.0,448.0,284.0,448.0,268.0,446.0,256.0,430.0,254.0,414.0,256.0,398.0,258.0" stroke="black" stroke-width="1" fill="none" />
<polyline points="414.0,264.0,408.0,264.0,406.0,280.0,416.0,288.0,410.0,304.0,424.0,314.0,426.0,330.0,424.0,346.0,416.0,332.0" stroke="black" stroke-width="1" fill="none" />
<polyline points="398.0,322.0,382.0,312.0,384.0,314.0,384.0,330.0" stroke="black" stroke-width="1" fill="none" />
<polyline points="374.0,314.0,390.0,308.0,398.0,310.0,398.0,326.0,410.0,332.0" stroke="black" stroke-width="1" fill="none" />
<polyline points="394.0,334.0,376.0,338.0,374.0,320.0,364.0,314.0" stroke="black" stroke-width="1" fill="none" />
<polyline points="358.0,290.0,374.0,290.0,390.0,290.0" stroke="black" stroke-width="1" fill="none" />
<polyline points="392.0,342.0,376.0,344.0,360.0,330.0,350.0,324.0,346.0,312.0,330.0,292.0,338.0,282.0,322.0,270.0,322.0,270.0,324.0,278.0,332.0,284.0,330.0,294.0,340.0,298.0,346.0,314.0,344.0,330.0,360.0,332.0,372.0,348.0,394.0,366.0,398.0,382.0,422.0,398.0,424.0,414.0,422.0,430.0,430.0,436.0,428.0,452.0,428.0,470.0,422.0,486.0,408.0,502.0,396.0,506.0,422.0,506.0,438.0,508.0" stroke="black" stroke-width="1" fill="none" />
<polyline points="420.0,350.0,404.0,354.0,396.0,346.0,376.0,350.0,372.0,360.0,368.0,350.0,356.0,358.0,358.0,342.0,350.0,326.0,338.0,320.0,322.0,302.0,322.0,286.0" stroke="black" stroke-width="1" fill="none" />
<polyline points="316.0,268.0,332.0,264.0,348.0,280.0,356.0,298.0,372.0,300.0,370.0,294.0,386.0,300.0,402.0,314.0" stroke="black" stroke-width="1" fill="none" />
<polyline points="388.0,380.0,372.0,376.0,358.0,362.0,362.0,350.0,364.0,328.0,360.0,312.0,358.0,296.0,350.0,292.0,348.0,282.0,336.0,266.0" stroke="black" stroke-width="1" fill="none" />
<polyline points="318.0,264.0,318.0,280.0,318.0,296.0,334.0,314.0,338.0,330.0,346.0,346.0,346.0,362.0,354.0,366.0,370.0,366.0,386.0,364.0,404.0,358.0,420.0,356.0" stroke="black" stroke-width="1" fill="none" />
<polyline points="338.0,368.0,330.0,368.0,332.0,352.0,316.0,354.0,318.0,350.0,318.0,366.0,318.0,382.0,330.0,380.0,322.0,374.0" stroke="black" stroke-width="1" fill="none" />
</svg>