<svg xmlns="http://www.w3.org/2000/svg" height="506px" width="458px" version="1.1"><polyline points="358.0,260.0,356.0,276.0" stroke="black" stroke-width="1" fill="none" />
<polyline points="352.0,294.0,368.0,304.0,384.0,308.0" stroke="black" stroke-width="1" fill="none" />
<polyline points="392.0,296.0,408.0,288.0,424.0,288.0,440.0,292.0,424.0,294.0,426.0,310.0,418.0,326.0,412.0,306.0,408.0,322.0,428.0,330.0,444.0,328.0,446.0,330.0,436.0,346.0,426.0,366.0,422.0,382.0,426.0,396.0,422.0,400.0,398.0,408.0,410.0,402.0,416.0,404.0,422.0,400.0,438.0,394.0,454.0,402.0,458.0,418.0,458.0,434.0,456.0,450.0,444.0,454.0,434.0,452.0,444.0,454.0" stroke="black" stroke-width="1" fill="none" />
<polyline points="440.0,444.0,430.0,430.0,436.0,414.0,422.0,404.0" stroke="black" stroke-width="1" fill="none" />
<polyline points="414.0,422.0,408.0,438.0,416.0,452.0,432.0,448.0" stroke="black" stroke-width="1" fill="none" />
<polyline points="408.0,426.0,424.0,418.0,416.0,416.0,398.0,432.0,406.0,448.0,408.0,476.0,420.0,482.0,424.0,480.0,434.0,484.0" stroke="black" stroke-width="1" fill="none" />
<polyline points="444.0,462.0,430.0,460.0,414.0,464.0,398.0,462.0" stroke="black" stroke-width="1" fill="none" />
<polyline points="390.0,452.0,394.0,448.0,398.0,468.0,398.0,492.0,414.0,492.0" stroke="black" stroke-width="1" fill="none" />
<polyline points="400.0,440.0,416.0,448.0,422.0,442.0,438.0,438.0,442.0,434.0,446.0,432.0,446.0,420.0,430.0,412.0,414.0,418.0,398.0,430.0" stroke="black" stroke-width="1" fill="none" />
<polyline points="388.0,440.0,404.0,454.0,404.0,472.0,408.0,488.0,436.0,504.0" stroke="black" stroke-width="1" fill="none" />
<polyline points="422.0,502.0,436.0,500.0,422.0,502.0,408.0,500.0,378.0,506.0,376.0,490.0,378.0,474.0,376.0,458.0,380.0,442.0,376.0,434.0,358.0,418.0,352.0,404.0,354.0,388.0,354.0,380.0,358.0,368.0,352.0,356.0,350.0,346.0,352.0,334.0,360.0,318.0,348.0,318.0,346.0,306.0,344.0,290.0,350.0,274.0,352.0,258.0,340.0,256.0,324.0,256.0,308.0,258.0" stroke="black" stroke-width="1" fill="none" />
<polyline points="316.0,264.0,308.0,264.0,308.0,280.0,312.0,288.0,328.0,282.0,328.0,288.0,330.0,294.0,332.0,310.0,332.0,326.0,338.0,342.0,340.0,358.0,348.0,374.0,356.0,398.0,366.0,400.0,384.0,418.0,380.0,430.0,390.0,454.0,394.0,470.0,394.0,486.0,388.0,502.0" stroke="black" stroke-width="1" fill="none" />
<polyline points="388.0,486.0,386.0,478.0,384.0,462.0,380.0,446.0" stroke="black" stroke-width="1" fill="none" />
<polyline points="370.0,432.0,370.0,418.0,384.0,404.0,370.0,388.0,366.0,372.0,366.0,356.0,364.0,340.0,366.0,324.0,354.0,316.0" stroke="black" stroke-width="1" fill="none" />
<polyline points="360.0,308.0,376.0,314.0" stroke="black" stroke-width="1" fill="none" />
<polyline points="366.0,322.0,382.0,324.0,398.0,328.0,414.0,330.0,430.0,318.0,418.0,338.0,408.0,354.0,400.0,354.0,394.0,370.0,390.0,386.0,374.0,402.0,372.0,392.0,388.0,390.0,398.0,356.0" stroke="black" stroke-width="1" fill="none" />
<polyline points="432.0,356.0,448.0,354.0" stroke="black" stroke-width="1" fill="none" />
<polyline points="420.0,294.0,404.0,294.0" stroke="black" stroke-width="1" fill="none" />
<polyline points="406.0,286.0,394.0,302.0,390.0,316.0,400.0,316.0,404.0,304.0,420.0,298.0,430.0,300.0,436.0,300.0" stroke="black" stroke-width="1" fill="none" />
<polyline points="426.0,344.0,416.0,340.0,400.0,346.0,386.0,338.0,384.0,328.0,368.0,328.0" stroke="black" stroke-width="1" fill="none" />
<polyline points="352.0,326.0,374.0,348.0,374.0,364.0,376.0,380.0,378.0,406.0" stroke="black" stroke-width="1" fill="none" />
<polyline points="362.0,406.0,346.0,412.0" stroke="black" stroke-width="1" fill="none" />
<polyline points="348.0,392.0,346.0,370.0" stroke="black" stroke-width="1" fill="none" />
<polyline points="414.0,386.0,410.0,370.0,412.0,380.0,386.0,416.0,396.0,400.0,398.0,384.0,410.0,384.0,418.0,368.0,438.0,358.0,454.0,348.0,458.0,332.0,448.0,340.0,430.0,356.0,410.0,368.0,398.0,394.0,382.0,410.0,366.0,398.0,354.0,360.0,340.0,342.0,344.0,332.0,336.0,320.0,338.0,304.0,336.0,288.0,326.0,278.0,310.0,274.0" stroke="black" stroke-width="1" fill="none" />
<polyline points="316.0,264.0,332.0,266.0" stroke="black" stroke-width="1" fill="none" />
</svg>