<svg xmlns="http://www.w3.org/2000/svg" height="508px" width="462px" version="1.1"><polyline points="304.0,256.0,304.0,272.0,306.0,288.0,306.0,274.0,320.0,266.0,320.0,278.0,346.0,296.0,356.0,292.0,372.0,284.0,388.0,284.0,404.0,284.0,422.0,286.0,454.0,280.0" stroke="black" stroke-width="1" fill="none" />
<polyline points="454.0,264.0,438.0,266.0,438.0,270.0" stroke="black" stroke-width="1" fill="none" />
<polyline points="424.0,262.0,428.0,278.0,438.0,294.0" stroke="black" stroke-width="1" fill="none" />
<polyline points="454.0,274.0,438.0,278.0,422.0,314.0,418.0,338.0,402.0,352.0,402.0,362.0,398.0,378.0,396.0,388.0,380.0,388.0,382.0,368.0,392.0,352.0,406.0,348.0,416.0,332.0,434.0,324.0,422.0,318.0,428.0,302.0,434.0,286.0,460.0,276.0,462.0,260.0,450.0,254.0,434.0,258.0,418.0,260.0,418.0,260.0,418.0,276.0,424.0,288.0,418.0,304.0,412.0,320.0,404.0,336.0,388.0,352.0,370.0,368.0,358.0,384.0,356.0,400.0,358.0,416.0,368.0,420.0,374.0,426.0,378.0,424.0,376.0,440.0,384.0,456.0,394.0,472.0,400.0,488.0,398.0,506.0,384.0,506.0" stroke="black" stroke-width="1" fill="none" />
<polyline points="414.0,506.0,406.0,490.0,410.0,474.0,408.0,458.0,410.0,442.0,402.0,438.0,418.0,430.0,408.0,438.0,406.0,434.0,422.0,436.0,438.0,432.0,454.0,440.0,462.0,436.0" stroke="black" stroke-width="1" fill="none" />
<polyline points="440.0,442.0,426.0,444.0,426.0,444.0,432.0,446.0,432.0,456.0" stroke="black" stroke-width="1" fill="none" />
<polyline points="422.0,460.0,418.0,476.0,416.0,492.0,410.0,508.0" stroke="black" stroke-width="1" fill="none" />
<polyline points="420.0,470.0,436.0,472.0,452.0,466.0" stroke="black" stroke-width="1" fill="none" />
<polyline points="434.0,484.0,430.0,476.0,424.0,498.0,428.0,490.0,450.0,470.0,446.0,464.0,454.0,448.0,444.0,446.0,428.0,426.0,412.0,420.0" stroke="black" stroke-width="1" fill="none" />
<polyline points="386.0,448.0,370.0,432.0,370.0,428.0,386.0,432.0,396.0,450.0,396.0,462.0" stroke="black" stroke-width="1" fill="none" />
<polyline points="364.0,462.0,380.0,468.0,382.0,478.0,388.0,494.0" stroke="black" stroke-width="1" fill="none" />
<polyline points="390.0,484.0,376.0,480.0,360.0,470.0,360.0,470.0,364.0,480.0,368.0,492.0" stroke="black" stroke-width="1" fill="none" />
<polyline points="382.0,490.0,366.0,488.0,350.0,484.0" stroke="black" stroke-width="1" fill="none" />
<polyline points="354.0,492.0,338.0,498.0" stroke="black" stroke-width="1" fill="none" />
<polyline points="316.0,486.0,318.0,466.0" stroke="black" stroke-width="1" fill="none" />
<polyline points="306.0,458.0,322.0,444.0,336.0,440.0,340.0,444.0,334.0,460.0,328.0,476.0,324.0,492.0,322.0,508.0" stroke="black" stroke-width="1" fill="none" />
<polyline points="350.0,464.0,366.0,450.0,352.0,460.0,344.0,470.0,338.0,486.0,348.0,472.0,352.0,438.0,368.0,442.0,378.0,458.0,382.0,474.0" stroke="black" stroke-width="1" fill="none" />
<polyline points="308.0,490.0,310.0,474.0,320.0,458.0,328.0,440.0,332.0,424.0,350.0,428.0,340.0,410.0,342.0,394.0,338.0,378.0,338.0,362.0,344.0,358.0,340.0,342.0,338.0,326.0,348.0,310.0,366.0,302.0,344.0,284.0,348.0,268.0,340.0,262.0" stroke="black" stroke-width="1" fill="none" />
<polyline points="366.0,274.0,382.0,274.0" stroke="black" stroke-width="1" fill="none" />
<polyline points="386.0,292.0,402.0,292.0" stroke="black" stroke-width="1" fill="none" />
<polyline points="396.0,298.0,398.0,318.0,394.0,334.0" stroke="black" stroke-width="1" fill="none" />
<polyline points="372.0,352.0,370.0,352.0,384.0,336.0,384.0,320.0,392.0,318.0,394.0,318.0,378.0,306.0,362.0,310.0" stroke="black" stroke-width="1" fill="none" />
<polyline points="374.0,306.0,366.0,322.0,352.0,324.0,354.0,340.0,350.0,350.0,364.0,340.0,380.0,330.0,382.0,340.0,392.0,336.0" stroke="black" stroke-width="1" fill="none" />
<polyline points="380.0,370.0,364.0,364.0" stroke="black" stroke-width="1" fill="none" />
<polyline points="348.0,370.0,348.0,386.0,348.0,402.0,344.0,428.0,350.0,442.0,344.0,458.0,338.0,474.0,336.0,490.0,350.0,498.0,330.0,508.0,344.0,502.0,360.0,500.0,376.0,500.0,392.0,488.0,418.0,492.0" stroke="black" stroke-width="1" fill="none" />
<polyline points="400.0,386.0,396.0,370.0,400.0,344.0,404.0,324.0,404.0,308.0,390.0,304.0,384.0,300.0,368.0,302.0,352.0,320.0" stroke="black" stroke-width="1" fill="none" />
<polyline points="346.0,314.0,352.0,300.0,368.0,292.0,376.0,282.0" stroke="black" stroke-width="1" fill="none" />
<polyline points="338.0,324.0,344.0,322.0,344.0,338.0,348.0,354.0,376.0,358.0,392.0,348.0" stroke="black" stroke-width="1" fill="none" />
<polyline points="338.0,418.0,322.0,418.0" stroke="black" stroke-width="1" fill="none" />
<polyline points="322.0,408.0,338.0,406.0,342.0,410.0" stroke="black" stroke-width="1" fill="none" />
<polyline points="304.0,440.0,320.0,430.0,304.0,442.0,304.0,458.0,302.0,474.0,306.0,474.0,320.0,480.0,316.0,496.0" stroke="black" stroke-width="1" fill="none" />
<polyline points="446.0,464.0,430.0,464.0,406.0,476.0,398.0,468.0,404.0,468.0,396.0,462.0,392.0,450.0,382.0,440.0,380.0,420.0,368.0,410.0,366.0,414.0,364.0,396.0,374.0,386.0,366.0,380.0,340.0,386.0,340.0,374.0,330.0,366.0,332.0,346.0,324.0,320.0,322.0,304.0,328.0,288.0,312.0,286.0,310.0,292.0" stroke="black" stroke-width="1" fill="none" />
<polyline points="304.0,256.0,320.0,256.0,336.0,254.0,342.0,272.0,340.0,288.0,338.0,304.0,328.0,312.0,324.0,328.0,324.0,338.0,324.0,354.0,322.0,370.0,326.0,354.0,342.0,366.0,364.0,374.0,380.0,378.0,396.0,364.0,406.0,332.0,430.0,310.0,442.0,294.0" stroke="black" stroke-width="1" fill="none" />
</svg>