<svg xmlns="http://www.w3.org/2000/svg" height="504px" width="466px" version="1.1"><polyline points="466.0,270.0,466.0,286.0,466.0,302.0,446.0,318.0,442.0,334.0,430.0,350.0,428.0,368.0" stroke="black" stroke-width="1" fill="none" />
<polyline points="416.0,376.0,400.0,376.0" stroke="black" stroke-width="1" fill="none" />
<polyline points="400.0,368.0,396.0,374.0,394.0,390.0,394.0,406.0,408.0,418.0,404.0,438.0,400.0,450.0,408.0,448.0,418.0,470.0,426.0,464.0,432.0,476.0,446.0,482.0,458.0,492.0" stroke="black" stroke-width="1" fill="none" />
<polyline points="434.0,492.0,438.0,490.0,440.0,474.0,430.0,458.0,436.0,458.0,430.0,458.0" stroke="black" stroke-width="1" fill="none" />
<polyline points="444.0,462.0,458.0,478.0,466.0,494.0" stroke="black" stroke-width="1" fill="none" />
<polyline points="410.0,460.0,410.0,444.0,408.0,438.0,392.0,434.0,376.0,436.0" stroke="black" stroke-width="1" fill="none" />
<polyline points="368.0,446.0,368.0,442.0,372.0,432.0,362.0,448.0,354.0,464.0,350.0,480.0,356.0,496.0" stroke="black" stroke-width="1" fill="none" />
<polyline points="352.0,462.0,354.0,456.0,358.0,438.0,374.0,424.0,390.0,414.0,392.0,422.0,396.0,442.0,416.0,420.0,432.0,436.0,432.0,454.0,448.0,468.0,464.0,480.0" stroke="black" stroke-width="1" fill="none" />
<polyline points="362.0,504.0,348.0,500.0,344.0,482.0,346.0,466.0,350.0,450.0,364.0,434.0,378.0,414.0,362.0,424.0,346.0,436.0" stroke="black" stroke-width="1" fill="none" />
<polyline points="324.0,484.0,308.0,482.0" stroke="black" stroke-width="1" fill="none" />
<polyline points="310.0,490.0,310.0,486.0,302.0,502.0" stroke="black" stroke-width="1" fill="none" />
<polyline points="316.0,488.0,332.0,490.0" stroke="black" stroke-width="1" fill="none" />
<polyline points="332.0,382.0,326.0,366.0,302.0,358.0" stroke="black" stroke-width="1" fill="none" />
<polyline points="308.0,354.0,324.0,356.0,340.0,368.0" stroke="black" stroke-width="1" fill="none" />
<polyline points="372.0,360.0,370.0,360.0,372.0,336.0,372.0,320.0,390.0,314.0,390.0,292.0,374.0,292.0" stroke="black" stroke-width="1" fill="none" />
<polyline points="374.0,310.0,390.0,300.0,406.0,300.0,422.0,296.0,420.0,312.0,418.0,328.0,432.0,336.0" stroke="black" stroke-width="1" fill="none" />
<polyline points="454.0,326.0,428.0,330.0,424.0,324.0,432.0,314.0,444.0,306.0,440.0,290.0,444.0,274.0,450.0,258.0,436.0,256.0,420.0,256.0" stroke="black" stroke-width="1" fill="none" />
<polyline points="406.0,276.0,420.0,256.0,420.0,272.0,406.0,278.0,414.0,292.0,422.0,296.0" stroke="black" stroke-width="1" fill="none" />
<polyline points="426.0,282.0,436.0,298.0,422.0,300.0,428.0,310.0,434.0,324.0,436.0,330.0,424.0,346.0,398.0,350.0,366.0,370.0,380.0,388.0,380.0,404.0,370.0,420.0,348.0,432.0,338.0,448.0,338.0,464.0,338.0,484.0,316.0,504.0,330.0,496.0,334.0,502.0,354.0,498.0" stroke="black" stroke-width="1" fill="none" />
<polyline points="318.0,494.0,332.0,474.0,332.0,458.0,332.0,442.0,334.0,420.0,354.0,418.0,366.0,402.0,370.0,386.0" stroke="black" stroke-width="1" fill="none" />
<polyline points="364.0,356.0,348.0,358.0,344.0,364.0,326.0,364.0,312.0,366.0,302.0,370.0,298.0,364.0,298.0,348.0,300.0,332.0,298.0,316.0,298.0,316.0" stroke="black" stroke-width="1" fill="none" />
<polyline points="316.0,324.0,332.0,332.0,344.0,346.0" stroke="black" stroke-width="1" fill="none" />
<polyline points="348.0,332.0,364.0,350.0,388.0,340.0" stroke="black" stroke-width="1" fill="none" />
<polyline points="400.0,336.0,384.0,346.0,368.0,342.0,364.0,330.0,366.0,314.0,372.0,298.0,392.0,298.0,380.0,316.0,380.0,320.0" stroke="black" stroke-width="1" fill="none" />
<polyline points="376.0,328.0,392.0,332.0,408.0,334.0,410.0,332.0,396.0,352.0,412.0,344.0" stroke="black" stroke-width="1" fill="none" />
<polyline points="428.0,340.0,412.0,356.0,396.0,356.0" stroke="black" stroke-width="1" fill="none" />
<polyline points="394.0,362.0,388.0,378.0,388.0,394.0,388.0,410.0,412.0,418.0,420.0,432.0,422.0,448.0,410.0,454.0,410.0,464.0,422.0,480.0,428.0,486.0,422.0,498.0,434.0,504.0,446.0,498.0,446.0,502.0" stroke="black" stroke-width="1" fill="none" />
<polyline points="364.0,318.0,372.0,288.0,388.0,286.0,404.0,286.0,420.0,284.0,448.0,288.0,458.0,272.0" stroke="black" stroke-width="1" fill="none" />
<polyline points="454.0,288.0,450.0,304.0,454.0,326.0,450.0,332.0,442.0,348.0,422.0,364.0" stroke="black" stroke-width="1" fill="none" />
<polyline points="452.0,316.0,430.0,348.0,414.0,362.0,398.0,362.0,376.0,380.0,360.0,390.0,344.0,388.0,332.0,388.0,340.0,380.0,356.0,372.0,364.0,356.0,358.0,340.0,356.0,324.0,358.0,308.0,368.0,292.0,358.0,304.0" stroke="black" stroke-width="1" fill="none" />
<polyline points="324.0,346.0,308.0,344.0" stroke="black" stroke-width="1" fill="none" />
<polyline points="304.0,338.0,320.0,336.0,338.0,344.0,334.0,360.0,340.0,376.0,356.0,382.0,376.0,364.0,394.0,378.0,408.0,370.0,424.0,364.0,436.0,356.0" stroke="black" stroke-width="1" fill="none" />
</svg>