<svg xmlns="http://www.w3.org/2000/svg" height="508px" width="504px" version="1.1"><polyline points="382.0,264.0,364.0,280.0,360.0,296.0,364.0,312.0,372.0,312.0,382.0,322.0,400.0,312.0" stroke="black" stroke-width="1" fill="none" />
<polyline points="394.0,306.0,378.0,308.0,362.0,304.0" stroke="black" stroke-width="1" fill="none" />
<polyline points="360.0,290.0,376.0,266.0,392.0,264.0,416.0,262.0,416.0,278.0,416.0,294.0,410.0,310.0,394.0,326.0,386.0,330.0,402.0,320.0,414.0,314.0" stroke="black" stroke-width="1" fill="none" />
<polyline points="418.0,334.0,416.0,350.0,420.0,360.0,424.0,374.0,440.0,374.0,456.0,380.0" stroke="black" stroke-width="1" fill="none" />
<polyline points="444.0,412.0,428.0,410.0" stroke="black" stroke-width="1" fill="none" />
<polyline points="436.0,406.0,420.0,404.0" stroke="black" stroke-width="1" fill="none" />
<polyline points="402.0,406.0,418.0,404.0,440.0,410.0,444.0,420.0,456.0,430.0" stroke="black" stroke-width="1" fill="none" />
<polyline points="472.0,450.0,472.0,468.0,476.0,484.0,474.0,480.0,480.0,488.0,496.0,488.0" stroke="black" stroke-width="1" fill="none" />
<polyline points="496.0,476.0,480.0,474.0" stroke="black" stroke-width="1" fill="none" />
<polyline points="484.0,462.0,500.0,460.0" stroke="black" stroke-width="1" fill="none" />
<polyline points="440.0,446.0,424.0,446.0,420.0,440.0" stroke="black" stroke-width="1" fill="none" />
<polyline points="386.0,430.0,386.0,424.0,382.0,424.0,376.0,444.0" stroke="black" stroke-width="1" fill="none" />
<polyline points="386.0,418.0,402.0,430.0,420.0,424.0,416.0,438.0,434.0,440.0,434.0,454.0,434.0,462.0,442.0,454.0,460.0,482.0,458.0,498.0" stroke="black" stroke-width="1" fill="none" />
<polyline points="498.0,464.0,482.0,468.0,466.0,472.0,456.0,446.0,440.0,424.0,424.0,414.0,416.0,396.0,400.0,396.0" stroke="black" stroke-width="1" fill="none" />
<polyline points="380.0,402.0,396.0,404.0,436.0,414.0,438.0,438.0,448.0,454.0,448.0,470.0,458.0,476.0,450.0,492.0,452.0,508.0" stroke="black" stroke-width="1" fill="none" />
<polyline points="438.0,388.0,436.0,384.0,416.0,380.0,400.0,374.0" stroke="black" stroke-width="1" fill="none" />
<polyline points="394.0,376.0,410.0,362.0,426.0,362.0,442.0,362.0,458.0,362.0,460.0,390.0,454.0,412.0,450.0,426.0,456.0,442.0,464.0,454.0,480.0,464.0,484.0,472.0,502.0,484.0,502.0,500.0" stroke="black" stroke-width="1" fill="none" />
<polyline points="492.0,508.0,492.0,496.0,464.0,506.0,464.0,498.0,468.0,478.0,462.0,462.0,454.0,446.0,442.0,430.0,420.0,414.0,400.0,398.0,386.0,382.0,390.0,366.0,384.0,356.0,404.0,330.0,392.0,336.0,376.0,334.0" stroke="black" stroke-width="1" fill="none" />
<polyline points="374.0,344.0,376.0,360.0,376.0,376.0,376.0,392.0,376.0,414.0,374.0,430.0,374.0,446.0,366.0,462.0,356.0,478.0" stroke="black" stroke-width="1" fill="none" />
<polyline points="370.0,470.0,354.0,486.0,372.0,466.0,380.0,452.0,354.0,458.0,352.0,468.0,360.0,452.0,362.0,436.0,366.0,418.0,368.0,402.0,368.0,386.0,366.0,370.0,366.0,354.0,374.0,334.0,358.0,318.0,352.0,308.0,352.0,292.0,356.0,276.0,350.0,274.0,354.0,258.0,370.0,256.0,354.0,258.0,354.0,264.0" stroke="black" stroke-width="1" fill="none" />
<polyline points="366.0,264.0,382.0,256.0,398.0,256.0,414.0,260.0" stroke="black" stroke-width="1" fill="none" />
<polyline points="432.0,258.0,448.0,256.0,464.0,256.0,462.0,260.0,450.0,272.0,450.0,272.0,438.0,268.0" stroke="black" stroke-width="1" fill="none" />
<polyline points="468.0,274.0,472.0,290.0,474.0,306.0,498.0,312.0,498.0,320.0" stroke="black" stroke-width="1" fill="none" />
<polyline points="490.0,312.0,496.0,292.0,502.0,276.0,490.0,276.0" stroke="black" stroke-width="1" fill="none" />
<polyline points="484.0,274.0,482.0,290.0" stroke="black" stroke-width="1" fill="none" />
<polyline points="482.0,276.0,490.0,276.0,488.0,292.0,484.0,308.0,488.0,324.0,492.0,326.0" stroke="black" stroke-width="1" fill="none" />
<polyline points="504.0,300.0,504.0,284.0" stroke="black" stroke-width="1" fill="none" />
<polyline points="392.0,276.0,376.0,272.0" stroke="black" stroke-width="1" fill="none" />
<polyline points="368.0,282.0,382.0,272.0,384.0,288.0,366.0,290.0,368.0,306.0,348.0,326.0,354.0,324.0,350.0,320.0,334.0,330.0,318.0,334.0" stroke="black" stroke-width="1" fill="none" />
<polyline points="302.0,328.0,296.0,332.0,298.0,356.0,302.0,372.0,304.0,388.0,298.0,404.0,306.0,404.0,312.0,416.0,300.0,424.0,310.0,452.0,326.0,452.0,330.0,460.0,334.0,464.0,350.0,472.0" stroke="black" stroke-width="1" fill="none" />
<polyline points="348.0,450.0,348.0,434.0,346.0,432.0" stroke="black" stroke-width="1" fill="none" />
<polyline points="334.0,404.0,320.0,388.0,320.0,380.0,316.0,372.0" stroke="black" stroke-width="1" fill="none" />
<polyline points="314.0,366.0,334.0,350.0,310.0,352.0,310.0,368.0,312.0,384.0,332.0,400.0,330.0,416.0,322.0,426.0,284.0,446.0,268.0,446.0,278.0,438.0,294.0,436.0,312.0,452.0,320.0,448.0,332.0,454.0,348.0,466.0" stroke="black" stroke-width="1" fill="none" />
<polyline points="354.0,444.0,358.0,428.0,346.0,410.0,342.0,406.0,348.0,398.0,342.0,396.0,330.0,414.0,314.0,412.0,310.0,406.0,296.0,384.0,292.0,368.0,294.0,352.0,302.0,348.0,312.0,332.0,318.0,324.0,302.0,326.0,286.0,342.0" stroke="black" stroke-width="1" fill="none" />
<polyline points="294.0,344.0,310.0,330.0,326.0,326.0,342.0,322.0" stroke="black" stroke-width="1" fill="none" />
<polyline points="316.0,352.0,332.0,352.0,348.0,346.0,356.0,356.0,356.0,372.0,360.0,388.0,350.0,404.0" stroke="black" stroke-width="1" fill="none" />
<polyline points="360.0,392.0,362.0,408.0,386.0,412.0,402.0,416.0,418.0,422.0,434.0,432.0,450.0,456.0,476.0,460.0,492.0,454.0" stroke="black" stroke-width="1" fill="none" />
<polyline points="464.0,394.0,450.0,402.0,446.0,398.0,430.0,396.0,414.0,388.0,398.0,388.0,400.0,374.0,396.0,370.0,408.0,354.0,412.0,338.0,414.0,328.0,400.0,334.0,392.0,314.0,398.0,298.0,406.0,282.0,392.0,294.0,394.0,278.0,374.0,286.0" stroke="black" stroke-width="1" fill="none" />
<polyline points="346.0,282.0,344.0,298.0,346.0,314.0" stroke="black" stroke-width="1" fill="none" />
<polyline points="300.0,350.0,316.0,338.0,318.0,362.0,310.0,352.0,326.0,344.0,342.0,338.0,358.0,340.0,380.0,344.0,396.0,346.0" stroke="black" stroke-width="1" fill="none" />
<polyline points="390.0,354.0,382.0,370.0,388.0,350.0,388.0,370.0" stroke="black" stroke-width="1" fill="none" />
<polyline points="328.0,462.0,302.0,460.0,288.0,476.0,280.0,470.0,264.0,470.0" stroke="black" stroke-width="1" fill="none" />
<polyline points="264.0,476.0,280.0,482.0" stroke="black" stroke-width="1" fill="none" />
<polyline points="276.0,454.0,304.0,458.0,274.0,452.0,290.0,444.0" stroke="black" stroke-width="1" fill="none" />
<polyline points="306.0,460.0,314.0,476.0,326.0,478.0,328.0,480.0,344.0,484.0" stroke="black" stroke-width="1" fill="none" />
<polyline points="332.0,422.0,316.0,420.0,310.0,432.0,294.0,430.0,278.0,430.0,262.0,440.0" stroke="black" stroke-width="1" fill="none" />
<polyline points="264.0,412.0,262.0,428.0,262.0,440.0,262.0,456.0,270.0,464.0,286.0,462.0,302.0,454.0,318.0,466.0,334.0,474.0,350.0,480.0,366.0,460.0,382.0,446.0" stroke="black" stroke-width="1" fill="none" />
</svg>