<svg xmlns="http://www.w3.org/2000/svg" height="508px" width="504px" version="1.1"><polyline points="262.0,256.0,262.0,272.0,262.0,256.0,270.0,266.0" stroke="black" stroke-width="1" fill="none" />
<polyline points="296.0,268.0,302.0,284.0,304.0,300.0,316.0,322.0,324.0,338.0,334.0,350.0,324.0,364.0,344.0,370.0,366.0,372.0,394.0,364.0,410.0,368.0,426.0,360.0" stroke="black" stroke-width="1" fill="none" />
<polyline points="406.0,332.0,376.0,326.0,372.0,310.0,374.0,294.0,394.0,294.0,404.0,294.0,388.0,286.0" stroke="black" stroke-width="1" fill="none" />
<polyline points="374.0,294.0,390.0,282.0,406.0,286.0,408.0,306.0,410.0,322.0" stroke="black" stroke-width="1" fill="none" />
<polyline points="432.0,302.0,416.0,282.0" stroke="black" stroke-width="1" fill="none" />
<polyline points="404.0,276.0,422.0,292.0,430.0,308.0,430.0,324.0,420.0,340.0" stroke="black" stroke-width="1" fill="none" />
<polyline points="394.0,338.0,386.0,330.0,378.0,314.0,392.0,310.0,382.0,294.0,380.0,304.0,378.0,302.0,380.0,318.0" stroke="black" stroke-width="1" fill="none" />
<polyline points="376.0,300.0,392.0,298.0,402.0,286.0,418.0,302.0,422.0,318.0,414.0,334.0" stroke="black" stroke-width="1" fill="none" />
<polyline points="418.0,326.0,404.0,330.0,388.0,336.0,372.0,332.0,358.0,318.0,354.0,338.0,352.0,354.0,346.0,342.0,356.0,322.0,356.0,306.0,366.0,290.0,364.0,274.0,356.0,272.0" stroke="black" stroke-width="1" fill="none" />
<polyline points="364.0,280.0,380.0,276.0,394.0,272.0,408.0,278.0,424.0,280.0,440.0,288.0" stroke="black" stroke-width="1" fill="none" />
<polyline points="432.0,278.0,448.0,286.0,472.0,288.0,488.0,292.0,504.0,296.0" stroke="black" stroke-width="1" fill="none" />
<polyline points="494.0,302.0,478.0,306.0,474.0,302.0,476.0,310.0,466.0,324.0,488.0,324.0,492.0,308.0,496.0,312.0,504.0,316.0" stroke="black" stroke-width="1" fill="none" />
<polyline points="500.0,326.0,484.0,334.0" stroke="black" stroke-width="1" fill="none" />
<polyline points="502.0,338.0,502.0,324.0,492.0,340.0,476.0,336.0,460.0,328.0" stroke="black" stroke-width="1" fill="none" />
<polyline points="452.0,332.0,462.0,348.0,484.0,350.0,500.0,346.0,496.0,342.0,480.0,344.0,464.0,342.0,464.0,336.0,466.0,328.0,470.0,320.0,472.0,304.0,458.0,318.0" stroke="black" stroke-width="1" fill="none" />
<polyline points="478.0,284.0,494.0,286.0" stroke="black" stroke-width="1" fill="none" />
<polyline points="504.0,270.0,500.0,286.0,502.0,296.0,502.0,312.0,484.0,316.0,478.0,322.0,478.0,346.0,468.0,356.0,486.0,356.0" stroke="black" stroke-width="1" fill="none" />
<polyline points="476.0,270.0,476.0,266.0" stroke="black" stroke-width="1" fill="none" />
<polyline points="470.0,256.0,462.0,272.0,448.0,278.0,454.0,284.0,450.0,290.0,444.0,306.0,436.0,322.0,460.0,304.0,476.0,280.0,492.0,274.0" stroke="black" stroke-width="1" fill="none" />
<polyline points="460.0,256.0,476.0,256.0,492.0,254.0,502.0,260.0,486.0,276.0,470.0,282.0,464.0,298.0,456.0,314.0,448.0,330.0,446.0,344.0,426.0,360.0,400.0,366.0,392.0,382.0,390.0,400.0,392.0,416.0,400.0,426.0,408.0,440.0,418.0,456.0,426.0,472.0,452.0,482.0,444.0,506.0" stroke="black" stroke-width="1" fill="none" />
<polyline points="472.0,494.0,456.0,498.0,440.0,500.0,424.0,492.0,408.0,480.0,392.0,478.0,388.0,486.0" stroke="black" stroke-width="1" fill="none" />
<polyline points="390.0,500.0,398.0,496.0,402.0,480.0,372.0,488.0" stroke="black" stroke-width="1" fill="none" />
<polyline points="372.0,452.0,356.0,466.0,344.0,482.0,328.0,484.0,312.0,484.0,302.0,490.0,302.0,474.0" stroke="black" stroke-width="1" fill="none" />
<polyline points="310.0,490.0,304.0,476.0,286.0,478.0,296.0,470.0,298.0,454.0,274.0,454.0,272.0,450.0,288.0,444.0,270.0,464.0,276.0,462.0,292.0,454.0,308.0,454.0" stroke="black" stroke-width="1" fill="none" />
<polyline points="338.0,462.0,322.0,470.0,332.0,464.0,336.0,458.0,316.0,454.0,318.0,456.0,302.0,436.0,286.0,434.0,270.0,440.0" stroke="black" stroke-width="1" fill="none" />
<polyline points="262.0,446.0,268.0,434.0,262.0,450.0,262.0,466.0,284.0,470.0,264.0,470.0,280.0,476.0,284.0,466.0,300.0,466.0,316.0,478.0,332.0,478.0,348.0,464.0,364.0,450.0,380.0,438.0,396.0,448.0,394.0,454.0,392.0,468.0,412.0,476.0,402.0,492.0,408.0,508.0" stroke="black" stroke-width="1" fill="none" />
<polyline points="428.0,508.0,430.0,504.0,424.0,478.0,416.0,462.0,404.0,446.0,390.0,430.0,384.0,414.0,382.0,398.0,384.0,382.0,386.0,366.0,384.0,344.0,374.0,336.0,360.0,334.0,366.0,324.0,362.0,308.0,358.0,290.0,356.0,276.0,358.0,282.0,358.0,290.0" stroke="black" stroke-width="1" fill="none" />
<polyline points="338.0,286.0,336.0,302.0,336.0,312.0" stroke="black" stroke-width="1" fill="none" />
<polyline points="344.0,350.0,360.0,356.0,376.0,346.0,402.0,356.0,418.0,356.0" stroke="black" stroke-width="1" fill="none" />
<polyline points="444.0,368.0,436.0,358.0,428.0,370.0,424.0,350.0,436.0,334.0,444.0,318.0,452.0,302.0,440.0,306.0,430.0,290.0,412.0,274.0,400.0,264.0,384.0,268.0,368.0,272.0" stroke="black" stroke-width="1" fill="none" />
<polyline points="416.0,268.0,438.0,282.0,432.0,296.0" stroke="black" stroke-width="1" fill="none" />
<polyline points="366.0,352.0,344.0,352.0,336.0,336.0,332.0,320.0,330.0,304.0,328.0,288.0,328.0,272.0,330.0,256.0,326.0,256.0,310.0,256.0,306.0,256.0,306.0,272.0,312.0,288.0,320.0,302.0,322.0,318.0,320.0,332.0,332.0,348.0,332.0,364.0,350.0,368.0,346.0,364.0,362.0,366.0,372.0,354.0,398.0,350.0,414.0,346.0,430.0,330.0,438.0,310.0,446.0,294.0" stroke="black" stroke-width="1" fill="none" />
<polyline points="374.0,380.0,374.0,396.0,374.0,412.0,366.0,428.0,358.0,434.0,346.0,454.0,336.0,450.0,352.0,442.0,362.0,434.0,388.0,422.0,404.0,428.0,404.0,444.0,420.0,470.0,436.0,476.0,452.0,480.0,468.0,478.0,488.0,466.0,492.0,470.0" stroke="black" stroke-width="1" fill="none" />
<polyline points="492.0,480.0,504.0,486.0,504.0,502.0" stroke="black" stroke-width="1" fill="none" />
<polyline points="424.0,502.0,420.0,486.0" stroke="black" stroke-width="1" fill="none" />
<polyline points="412.0,482.0,414.0,498.0,430.0,498.0,450.0,490.0,466.0,484.0,482.0,478.0,498.0,484.0" stroke="black" stroke-width="1" fill="none" />
<polyline points="416.0,486.0,402.0,468.0,376.0,462.0,362.0,470.0,354.0,468.0,370.0,452.0" stroke="black" stroke-width="1" fill="none" />
<polyline points="380.0,438.0,360.0,454.0,340.0,470.0,338.0,486.0" stroke="black" stroke-width="1" fill="none" />
<polyline points="334.0,492.0,314.0,478.0,316.0,468.0,306.0,452.0,294.0,436.0,304.0,432.0,316.0,442.0,300.0,428.0,284.0,426.0,268.0,428.0" stroke="black" stroke-width="1" fill="none" />
<polyline points="378.0,422.0,366.0,438.0,356.0,442.0,372.0,434.0,392.0,450.0,408.0,464.0" stroke="black" stroke-width="1" fill="none" />
</svg>