<svg xmlns="http://www.w3.org/2000/svg" height="508px" width="476px" version="1.1"><polyline points="452.0,260.0,440.0,276.0,442.0,284.0,446.0,292.0,436.0,300.0,440.0,306.0,434.0,322.0,428.0,328.0,424.0,354.0,430.0,342.0,446.0,330.0" stroke="black" stroke-width="1" fill="none" />
<polyline points="440.0,316.0,416.0,340.0,400.0,350.0" stroke="black" stroke-width="1" fill="none" />
<polyline points="404.0,322.0,394.0,334.0,392.0,334.0,394.0,318.0,408.0,314.0,402.0,298.0,390.0,302.0" stroke="black" stroke-width="1" fill="none" />
<polyline points="398.0,296.0,414.0,302.0,414.0,318.0" stroke="black" stroke-width="1" fill="none" />
<polyline points="404.0,316.0,388.0,324.0" stroke="black" stroke-width="1" fill="none" />
<polyline points="360.0,330.0,344.0,326.0,328.0,324.0,312.0,324.0,296.0,326.0" stroke="black" stroke-width="1" fill="none" />
<polyline points="292.0,316.0,308.0,316.0,324.0,318.0,336.0,342.0,330.0,350.0,338.0,354.0,352.0,354.0,368.0,352.0" stroke="black" stroke-width="1" fill="none" />
<polyline points="388.0,384.0,406.0,398.0,418.0,390.0" stroke="black" stroke-width="1" fill="none" />
<polyline points="408.0,406.0,392.0,412.0,382.0,406.0,366.0,432.0,356.0,460.0,340.0,478.0,336.0,498.0,344.0,484.0,358.0,464.0,380.0,456.0,386.0,438.0,394.0,438.0,400.0,434.0,418.0,418.0,418.0,402.0,416.0,390.0,406.0,378.0,420.0,362.0,432.0,348.0,444.0,328.0,458.0,316.0,458.0,308.0,468.0,304.0,468.0,288.0,476.0,266.0,470.0,256.0,454.0,256.0,438.0,262.0" stroke="black" stroke-width="1" fill="none" />
<polyline points="428.0,266.0,438.0,264.0,428.0,270.0,428.0,286.0,416.0,288.0,422.0,304.0,420.0,320.0,404.0,336.0,388.0,352.0,390.0,368.0,390.0,386.0,392.0,398.0,400.0,404.0,382.0,406.0,370.0,420.0,362.0,436.0,346.0,452.0,332.0,468.0,340.0,478.0,344.0,500.0" stroke="black" stroke-width="1" fill="none" />
<polyline points="344.0,494.0,324.0,492.0,308.0,486.0,308.0,486.0,304.0,502.0" stroke="black" stroke-width="1" fill="none" />
<polyline points="302.0,486.0,298.0,502.0,324.0,506.0,340.0,506.0" stroke="black" stroke-width="1" fill="none" />
<polyline points="358.0,464.0,374.0,456.0,394.0,462.0,396.0,478.0" stroke="black" stroke-width="1" fill="none" />
<polyline points="400.0,454.0,386.0,446.0,378.0,438.0,374.0,466.0,358.0,478.0,358.0,490.0,362.0,474.0,380.0,458.0" stroke="black" stroke-width="1" fill="none" />
<polyline points="404.0,446.0,406.0,462.0,400.0,472.0,402.0,488.0,392.0,496.0,390.0,488.0,416.0,486.0,428.0,486.0,436.0,488.0,454.0,496.0,466.0,506.0" stroke="black" stroke-width="1" fill="none" />
<polyline points="468.0,500.0,452.0,504.0,436.0,506.0,420.0,504.0,418.0,498.0,402.0,504.0,410.0,488.0,414.0,472.0,410.0,456.0,410.0,440.0,410.0,424.0,414.0,408.0,406.0,398.0,400.0,386.0,396.0,370.0,390.0,344.0,376.0,328.0,390.0,312.0,388.0,296.0,394.0,286.0,374.0,296.0,374.0,296.0,380.0,312.0,382.0,324.0,392.0,294.0,408.0,292.0,422.0,300.0,432.0,280.0,448.0,266.0,464.0,262.0" stroke="black" stroke-width="1" fill="none" />
<polyline points="458.0,272.0,442.0,282.0" stroke="black" stroke-width="1" fill="none" />
<polyline points="440.0,288.0,432.0,296.0,426.0,312.0,422.0,328.0,414.0,344.0,406.0,356.0,420.0,366.0,428.0,370.0,444.0,354.0,460.0,340.0,464.0,340.0" stroke="black" stroke-width="1" fill="none" />
<polyline points="436.0,378.0,438.0,372.0,442.0,356.0,458.0,340.0,464.0,336.0,476.0,320.0,476.0,304.0,474.0,288.0" stroke="black" stroke-width="1" fill="none" />
<polyline points="418.0,288.0,416.0,278.0,400.0,286.0" stroke="black" stroke-width="1" fill="none" />
<polyline points="370.0,286.0,386.0,278.0,402.0,272.0,388.0,284.0,370.0,292.0,370.0,308.0,370.0,324.0,360.0,326.0,366.0,336.0,382.0,358.0,382.0,374.0,382.0,390.0" stroke="black" stroke-width="1" fill="none" />
<polyline points="394.0,434.0,420.0,430.0,420.0,446.0,422.0,460.0,420.0,476.0,430.0,492.0" stroke="black" stroke-width="1" fill="none" />
<polyline points="434.0,486.0,438.0,502.0,448.0,504.0" stroke="black" stroke-width="1" fill="none" />
<polyline points="336.0,468.0,322.0,480.0,306.0,480.0,290.0,488.0" stroke="black" stroke-width="1" fill="none" />
<polyline points="292.0,482.0,290.0,498.0,296.0,508.0,306.0,508.0,322.0,498.0" stroke="black" stroke-width="1" fill="none" />
<polyline points="310.0,350.0,326.0,344.0,342.0,344.0,358.0,344.0,374.0,338.0,390.0,344.0,412.0,330.0,438.0,298.0,446.0,292.0,462.0,278.0,470.0,286.0" stroke="black" stroke-width="1" fill="none" />
<polyline points="386.0,258.0,370.0,260.0,354.0,258.0,352.0,254.0,368.0,254.0,386.0,254.0" stroke="black" stroke-width="1" fill="none" />
<polyline points="378.0,346.0,360.0,338.0,340.0,334.0,324.0,330.0,320.0,334.0,306.0,330.0,306.0,340.0,302.0,354.0,290.0,348.0,290.0,332.0,292.0,316.0,294.0,310.0" stroke="black" stroke-width="1" fill="none" />
</svg>