<svg xmlns="http://www.w3.org/2000/svg" height="506px" width="484px" version="1.1"><polyline points="482.0,258.0,472.0,274.0,472.0,300.0,462.0,316.0,468.0,326.0,456.0,334.0,442.0,348.0" stroke="black" stroke-width="1" fill="none" />
<polyline points="444.0,324.0,428.0,338.0,412.0,330.0" stroke="black" stroke-width="1" fill="none" />
<polyline points="410.0,308.0,426.0,302.0,442.0,304.0" stroke="black" stroke-width="1" fill="none" />
<polyline points="444.0,312.0,434.0,316.0,434.0,334.0,452.0,318.0,452.0,302.0,458.0,294.0,436.0,286.0,420.0,288.0" stroke="black" stroke-width="1" fill="none" />
<polyline points="416.0,278.0,432.0,276.0,448.0,284.0,464.0,298.0" stroke="black" stroke-width="1" fill="none" />
<polyline points="480.0,284.0,466.0,272.0,468.0,256.0,468.0,256.0" stroke="black" stroke-width="1" fill="none" />
<polyline points="468.0,304.0,456.0,322.0,450.0,344.0,434.0,350.0,418.0,354.0,404.0,350.0,388.0,360.0,378.0,354.0,360.0,380.0,344.0,370.0,336.0,372.0,320.0,364.0,314.0,368.0,318.0,364.0,292.0,356.0,290.0,346.0,282.0,344.0,282.0,328.0,282.0,312.0,280.0,296.0,280.0,276.0,282.0,260.0,298.0,268.0,312.0,256.0,296.0,254.0,280.0,262.0" stroke="black" stroke-width="1" fill="none" />
<polyline points="286.0,276.0,290.0,280.0,296.0,260.0,308.0,264.0" stroke="black" stroke-width="1" fill="none" />
<polyline points="282.0,294.0,294.0,298.0,306.0,306.0,300.0,322.0,298.0,332.0,320.0,348.0,344.0,364.0,378.0,376.0,394.0,372.0,406.0,372.0,420.0,364.0,430.0,376.0,444.0,384.0,442.0,388.0,452.0,406.0,462.0,404.0" stroke="black" stroke-width="1" fill="none" />
<polyline points="460.0,418.0,476.0,416.0" stroke="black" stroke-width="1" fill="none" />
<polyline points="474.0,386.0,458.0,386.0" stroke="black" stroke-width="1" fill="none" />
<polyline points="448.0,394.0,456.0,396.0,484.0,388.0,484.0,404.0,484.0,418.0" stroke="black" stroke-width="1" fill="none" />
<polyline points="478.0,398.0,462.0,398.0,442.0,406.0,434.0,396.0,424.0,388.0,440.0,388.0,440.0,372.0,420.0,358.0,408.0,342.0,410.0,326.0,410.0,310.0,424.0,294.0,402.0,290.0" stroke="black" stroke-width="1" fill="none" />
<polyline points="400.0,304.0,416.0,298.0,432.0,292.0,448.0,306.0" stroke="black" stroke-width="1" fill="none" />
<polyline points="432.0,292.0,430.0,308.0,418.0,316.0,422.0,332.0,406.0,356.0,388.0,374.0,386.0,390.0,384.0,400.0,384.0,416.0,388.0,432.0,402.0,440.0,400.0,456.0,400.0,472.0,410.0,488.0,406.0,504.0" stroke="black" stroke-width="1" fill="none" />
<polyline points="416.0,504.0,416.0,488.0,416.0,468.0,400.0,470.0" stroke="black" stroke-width="1" fill="none" />
<polyline points="382.0,486.0,384.0,478.0,374.0,498.0" stroke="black" stroke-width="1" fill="none" />
<polyline points="402.0,428.0,398.0,426.0,396.0,420.0,390.0,396.0,390.0,384.0,372.0,388.0,364.0,400.0,376.0,384.0,392.0,366.0,396.0,350.0,402.0,322.0,402.0,306.0,384.0,310.0" stroke="black" stroke-width="1" fill="none" />
<polyline points="380.0,284.0,382.0,282.0,382.0,268.0,388.0,280.0,384.0,294.0,384.0,310.0,386.0,326.0,398.0,330.0,416.0,342.0,432.0,344.0,448.0,332.0,448.0,332.0,428.0,358.0,444.0,356.0" stroke="black" stroke-width="1" fill="none" />
<polyline points="378.0,402.0,388.0,414.0,396.0,430.0,392.0,452.0,394.0,468.0,398.0,488.0,400.0,492.0" stroke="black" stroke-width="1" fill="none" />
<polyline points="396.0,502.0,392.0,498.0,386.0,496.0,382.0,480.0,386.0,464.0,384.0,448.0,380.0,434.0,372.0,426.0,374.0,410.0,364.0,400.0,370.0,388.0,370.0,366.0,378.0,366.0,374.0,354.0,386.0,342.0,372.0,330.0,362.0,316.0,364.0,300.0,350.0,288.0,348.0,274.0,354.0,258.0,350.0,270.0,354.0,270.0,346.0,264.0,362.0,256.0,378.0,254.0,384.0,262.0,376.0,264.0,366.0,274.0,374.0,282.0,378.0,298.0,392.0,314.0,398.0,332.0,394.0,346.0,400.0,360.0,418.0,362.0,412.0,374.0,424.0,390.0,444.0,392.0,452.0,408.0,436.0,412.0,454.0,422.0,452.0,428.0,468.0,426.0" stroke="black" stroke-width="1" fill="none" />
<polyline points="468.0,482.0,468.0,498.0,484.0,490.0,482.0,506.0" stroke="black" stroke-width="1" fill="none" />
<polyline points="468.0,496.0,458.0,504.0,458.0,488.0" stroke="black" stroke-width="1" fill="none" />
<polyline points="320.0,454.0,304.0,450.0" stroke="black" stroke-width="1" fill="none" />
<polyline points="310.0,470.0,294.0,470.0,310.0,476.0,318.0,452.0,314.0,446.0,298.0,440.0,282.0,444.0,282.0,444.0,280.0,460.0,282.0,476.0,282.0,492.0,280.0,496.0,296.0,494.0,298.0,488.0" stroke="black" stroke-width="1" fill="none" />
<polyline points="308.0,496.0,292.0,502.0,286.0,502.0,312.0,494.0,320.0,478.0,316.0,462.0,302.0,446.0,282.0,436.0" stroke="black" stroke-width="1" fill="none" />
<polyline points="280.0,460.0,296.0,472.0,302.0,476.0" stroke="black" stroke-width="1" fill="none" />
<polyline points="354.0,386.0,336.0,382.0,352.0,376.0,326.0,360.0,302.0,352.0,294.0,356.0" stroke="black" stroke-width="1" fill="none" />
<polyline points="286.0,332.0,302.0,344.0,318.0,352.0,334.0,364.0,346.0,364.0,362.0,374.0,378.0,364.0" stroke="black" stroke-width="1" fill="none" />
<polyline points="384.0,344.0,382.0,330.0,374.0,320.0,372.0,306.0,354.0,290.0,354.0,284.0" stroke="black" stroke-width="1" fill="none" />
<polyline points="346.0,352.0,330.0,352.0" stroke="black" stroke-width="1" fill="none" />
<polyline points="334.0,344.0,330.0,348.0,314.0,342.0,312.0,340.0,296.0,324.0" stroke="black" stroke-width="1" fill="none" />
<polyline points="282.0,300.0,286.0,288.0,302.0,300.0,312.0,310.0,310.0,326.0,320.0,332.0,330.0,348.0,354.0,364.0,364.0,358.0" stroke="black" stroke-width="1" fill="none" />
</svg>