<svg xmlns="http://www.w3.org/2000/svg" height="508px" width="446px" version="1.1"><polyline points="324.0,254.0,320.0,270.0,320.0,286.0,320.0,302.0,320.0,318.0,320.0,334.0,324.0,338.0,326.0,360.0,322.0,376.0,328.0,392.0,338.0,388.0,346.0,390.0,360.0,374.0,362.0,378.0,386.0,368.0,410.0,374.0" stroke="black" stroke-width="1" fill="none" />
<polyline points="402.0,364.0,418.0,380.0,418.0,408.0,408.0,424.0" stroke="black" stroke-width="1" fill="none" />
<polyline points="398.0,440.0,400.0,456.0,406.0,476.0,390.0,486.0,408.0,494.0" stroke="black" stroke-width="1" fill="none" />
<polyline points="368.0,464.0,388.0,454.0,382.0,438.0,396.0,428.0,394.0,412.0,390.0,396.0,394.0,386.0,380.0,390.0,384.0,400.0,390.0,396.0" stroke="black" stroke-width="1" fill="none" />
<polyline points="370.0,394.0,386.0,378.0,380.0,394.0,376.0,410.0,378.0,426.0,378.0,442.0,344.0,454.0,344.0,470.0,346.0,480.0,362.0,480.0,378.0,480.0" stroke="black" stroke-width="1" fill="none" />
<polyline points="380.0,456.0,364.0,460.0" stroke="black" stroke-width="1" fill="none" />
<polyline points="404.0,502.0,414.0,496.0,424.0,488.0,402.0,490.0,382.0,508.0,382.0,492.0,390.0,476.0,406.0,468.0,412.0,464.0,408.0,446.0,404.0,430.0,402.0,414.0,404.0,398.0,402.0,382.0,396.0,366.0,398.0,338.0,394.0,322.0,396.0,312.0,382.0,294.0,376.0,272.0,360.0,260.0" stroke="black" stroke-width="1" fill="none" />
<polyline points="354.0,266.0,368.0,268.0,382.0,268.0,390.0,272.0,390.0,288.0,404.0,306.0,402.0,322.0,410.0,338.0,404.0,348.0,410.0,364.0,410.0,380.0,414.0,396.0,410.0,412.0,418.0,426.0,420.0,434.0,414.0,450.0,420.0,466.0,418.0,482.0,412.0,484.0,386.0,500.0,388.0,490.0,392.0,480.0,404.0,478.0,426.0,480.0,432.0,466.0,424.0,480.0,434.0,492.0,426.0,500.0,428.0,502.0,432.0,508.0" stroke="black" stroke-width="1" fill="none" />
<polyline points="402.0,474.0,384.0,466.0,368.0,470.0,354.0,450.0,354.0,462.0,358.0,448.0,360.0,432.0,362.0,416.0,360.0,400.0,360.0,384.0" stroke="black" stroke-width="1" fill="none" />
<polyline points="336.0,368.0,348.0,368.0,342.0,370.0,330.0,376.0" stroke="black" stroke-width="1" fill="none" />
<polyline points="324.0,364.0,340.0,354.0,356.0,344.0" stroke="black" stroke-width="1" fill="none" />
<polyline points="356.0,324.0,334.0,316.0,344.0,298.0,344.0,282.0,336.0,280.0,350.0,264.0,344.0,278.0" stroke="black" stroke-width="1" fill="none" />
<polyline points="338.0,284.0,338.0,294.0,354.0,300.0" stroke="black" stroke-width="1" fill="none" />
<polyline points="372.0,302.0,372.0,286.0" stroke="black" stroke-width="1" fill="none" />
<polyline points="400.0,308.0,400.0,302.0,404.0,296.0,420.0,284.0,436.0,284.0,446.0,290.0,446.0,306.0,434.0,322.0,422.0,328.0,422.0,324.0,438.0,320.0" stroke="black" stroke-width="1" fill="none" />
<polyline points="436.0,330.0,438.0,310.0,422.0,316.0,418.0,320.0" stroke="black" stroke-width="1" fill="none" />
<polyline points="404.0,302.0,420.0,298.0,428.0,292.0" stroke="black" stroke-width="1" fill="none" />
<polyline points="414.0,332.0,400.0,328.0,384.0,310.0,360.0,304.0,358.0,310.0,344.0,316.0,328.0,302.0,330.0,294.0,328.0,278.0,342.0,262.0,334.0,276.0" stroke="black" stroke-width="1" fill="none" />
<polyline points="328.0,274.0,344.0,262.0,360.0,268.0,358.0,282.0,356.0,298.0,370.0,322.0,370.0,338.0,362.0,342.0,374.0,354.0,350.0,378.0,338.0,378.0,354.0,372.0,370.0,366.0,370.0,358.0" stroke="black" stroke-width="1" fill="none" />
<polyline points="384.0,334.0,360.0,360.0,346.0,358.0,330.0,360.0" stroke="black" stroke-width="1" fill="none" />
<polyline points="330.0,330.0,346.0,330.0" stroke="black" stroke-width="1" fill="none" />
<polyline points="376.0,324.0,378.0,340.0,380.0,356.0" stroke="black" stroke-width="1" fill="none" />
<polyline points="394.0,342.0,388.0,326.0,382.0,310.0,358.0,318.0,342.0,314.0,326.0,298.0" stroke="black" stroke-width="1" fill="none" />
<polyline points="320.0,256.0,336.0,256.0,352.0,256.0,368.0,256.0,384.0,266.0" stroke="black" stroke-width="1" fill="none" />
<polyline points="380.0,326.0,386.0,342.0,388.0,358.0,382.0,374.0,374.0,390.0,368.0,406.0,370.0,422.0,364.0,436.0,364.0,464.0,354.0,462.0,370.0,450.0,394.0,454.0,414.0,446.0" stroke="black" stroke-width="1" fill="none" />
</svg>