<svg xmlns="http://www.w3.org/2000/svg" height="508px" width="434px" version="1.1"><polyline points="348.0,264.0,340.0,280.0,350.0,286.0,344.0,300.0,346.0,304.0,362.0,306.0,378.0,310.0,386.0,296.0,396.0,290.0,408.0,304.0,424.0,310.0,434.0,310.0" stroke="black" stroke-width="1" fill="none" />
<polyline points="428.0,296.0,426.0,312.0,434.0,320.0,434.0,334.0,434.0,350.0,412.0,358.0,414.0,374.0,410.0,378.0,402.0,388.0,406.0,396.0,400.0,412.0,394.0,428.0,376.0,432.0,386.0,436.0,374.0,454.0,392.0,450.0,400.0,468.0" stroke="black" stroke-width="1" fill="none" />
<polyline points="384.0,466.0,400.0,450.0,394.0,428.0,378.0,438.0" stroke="black" stroke-width="1" fill="none" />
<polyline points="358.0,434.0,368.0,436.0,364.0,452.0,366.0,454.0,382.0,464.0" stroke="black" stroke-width="1" fill="none" />
<polyline points="394.0,474.0,378.0,474.0,362.0,460.0" stroke="black" stroke-width="1" fill="none" />
<polyline points="348.0,498.0,350.0,504.0,338.0,484.0,346.0,482.0,344.0,466.0,354.0,462.0,356.0,446.0,362.0,430.0,368.0,414.0,382.0,410.0,390.0,382.0,402.0,376.0,390.0,360.0,374.0,362.0,358.0,360.0" stroke="black" stroke-width="1" fill="none" />
<polyline points="356.0,368.0,372.0,368.0,388.0,366.0,404.0,378.0" stroke="black" stroke-width="1" fill="none" />
<polyline points="404.0,388.0,388.0,390.0,372.0,388.0" stroke="black" stroke-width="1" fill="none" />
<polyline points="358.0,376.0,374.0,372.0,390.0,372.0,376.0,388.0,382.0,378.0,400.0,380.0" stroke="black" stroke-width="1" fill="none" />
<polyline points="428.0,352.0,412.0,358.0,388.0,348.0,372.0,344.0,362.0,348.0,364.0,340.0,342.0,354.0,342.0,342.0" stroke="black" stroke-width="1" fill="none" />
<polyline points="330.0,324.0,338.0,318.0,356.0,314.0" stroke="black" stroke-width="1" fill="none" />
<polyline points="358.0,322.0,374.0,322.0,374.0,328.0,378.0,336.0,394.0,342.0,410.0,336.0" stroke="black" stroke-width="1" fill="none" />
<polyline points="428.0,334.0,420.0,350.0,416.0,346.0,404.0,334.0,402.0,318.0" stroke="black" stroke-width="1" fill="none" />
<polyline points="408.0,310.0,396.0,326.0,386.0,328.0,378.0,310.0,376.0,302.0,378.0,292.0,370.0,292.0,378.0,282.0,362.0,278.0,346.0,280.0" stroke="black" stroke-width="1" fill="none" />
<polyline points="342.0,270.0,358.0,262.0,374.0,262.0,384.0,276.0" stroke="black" stroke-width="1" fill="none" />
<polyline points="358.0,266.0,358.0,270.0,346.0,288.0,344.0,304.0,336.0,320.0,340.0,342.0,356.0,358.0,348.0,368.0,356.0,374.0,358.0,390.0,362.0,402.0,354.0,406.0,354.0,422.0,350.0,436.0,346.0,452.0,358.0,458.0,372.0,474.0,368.0,486.0,370.0,498.0" stroke="black" stroke-width="1" fill="none" />
<polyline points="354.0,498.0,350.0,488.0,342.0,508.0,330.0,500.0,330.0,484.0,336.0,468.0,334.0,452.0,336.0,436.0,344.0,420.0,332.0,404.0,330.0,388.0,338.0,372.0,342.0,356.0,330.0,358.0,332.0,342.0,330.0,326.0,330.0,310.0,330.0,294.0,332.0,278.0,332.0,262.0,334.0,266.0" stroke="black" stroke-width="1" fill="none" />
<polyline points="332.0,258.0,348.0,256.0,364.0,256.0,380.0,256.0,394.0,270.0,398.0,286.0,390.0,296.0,390.0,312.0,362.0,324.0,384.0,340.0,376.0,350.0,388.0,356.0,406.0,366.0,412.0,378.0,422.0,382.0" stroke="black" stroke-width="1" fill="none" />
<polyline points="404.0,408.0,388.0,402.0,376.0,418.0,360.0,420.0,348.0,414.0,332.0,412.0" stroke="black" stroke-width="1" fill="none" />
<polyline points="336.0,396.0,352.0,402.0,362.0,402.0,378.0,398.0,378.0,404.0" stroke="black" stroke-width="1" fill="none" />
<polyline points="422.0,392.0,408.0,392.0,430.0,396.0,420.0,384.0,430.0,368.0,434.0,352.0" stroke="black" stroke-width="1" fill="none" />
<polyline points="394.0,324.0,398.0,308.0" stroke="black" stroke-width="1" fill="none" />
</svg>