<svg xmlns="http://www.w3.org/2000/svg" height="508px" width="482px" version="1.1"><polyline points="482.0,292.0,482.0,308.0,480.0,324.0" stroke="black" stroke-width="1" fill="none" />
<polyline points="476.0,338.0,468.0,334.0,472.0,338.0,476.0,324.0,460.0,324.0,444.0,330.0,428.0,332.0,422.0,338.0,408.0,336.0,392.0,336.0,368.0,330.0,352.0,332.0,336.0,350.0,318.0,360.0,326.0,358.0,332.0,358.0,346.0,342.0,360.0,318.0,354.0,302.0,360.0,286.0,354.0,282.0,346.0,280.0,340.0,264.0,348.0,264.0,348.0,272.0,332.0,278.0" stroke="black" stroke-width="1" fill="none" />
<polyline points="338.0,278.0,340.0,296.0,346.0,298.0,338.0,318.0" stroke="black" stroke-width="1" fill="none" />
<polyline points="336.0,332.0,326.0,346.0,334.0,338.0,344.0,332.0,348.0,316.0,340.0,310.0,332.0,294.0,338.0,278.0,332.0,268.0,340.0,258.0,336.0,264.0" stroke="black" stroke-width="1" fill="none" />
<polyline points="348.0,256.0,364.0,256.0,380.0,256.0,396.0,260.0,396.0,274.0,402.0,290.0,398.0,306.0,406.0,306.0,378.0,322.0,378.0,342.0,376.0,358.0,378.0,374.0,392.0,376.0,400.0,390.0,424.0,406.0,416.0,408.0,396.0,432.0,392.0,448.0,384.0,456.0,388.0,470.0,380.0,482.0,368.0,492.0,374.0,502.0,374.0,500.0" stroke="black" stroke-width="1" fill="none" />
<polyline points="380.0,496.0,364.0,502.0,348.0,500.0" stroke="black" stroke-width="1" fill="none" />
<polyline points="392.0,506.0,394.0,486.0,380.0,470.0,378.0,462.0,382.0,446.0,380.0,430.0,362.0,432.0,346.0,436.0" stroke="black" stroke-width="1" fill="none" />
<polyline points="334.0,430.0,332.0,446.0,348.0,446.0,352.0,472.0,348.0,488.0,348.0,488.0,352.0,472.0,372.0,450.0,398.0,436.0" stroke="black" stroke-width="1" fill="none" />
<polyline points="418.0,426.0,434.0,428.0" stroke="black" stroke-width="1" fill="none" />
<polyline points="412.0,394.0,396.0,388.0" stroke="black" stroke-width="1" fill="none" />
<polyline points="386.0,386.0,402.0,382.0,418.0,382.0,426.0,394.0,442.0,400.0" stroke="black" stroke-width="1" fill="none" />
<polyline points="396.0,402.0,380.0,396.0,382.0,398.0,400.0,398.0" stroke="black" stroke-width="1" fill="none" />
<polyline points="426.0,398.0,412.0,424.0,396.0,430.0,380.0,430.0,368.0,410.0,366.0,394.0,362.0,394.0" stroke="black" stroke-width="1" fill="none" />
<polyline points="360.0,386.0,376.0,390.0,392.0,394.0,408.0,400.0,426.0,400.0,442.0,402.0,436.0,416.0" stroke="black" stroke-width="1" fill="none" />
<polyline points="436.0,336.0,452.0,336.0" stroke="black" stroke-width="1" fill="none" />
<polyline points="432.0,320.0,416.0,326.0,400.0,330.0,384.0,330.0" stroke="black" stroke-width="1" fill="none" />
<polyline points="372.0,310.0,368.0,304.0,368.0,304.0,382.0,288.0,378.0,278.0,372.0,268.0" stroke="black" stroke-width="1" fill="none" />
<polyline points="362.0,270.0,378.0,264.0,382.0,274.0,390.0,280.0,390.0,296.0,384.0,296.0,384.0,310.0,400.0,288.0" stroke="black" stroke-width="1" fill="none" />
<polyline points="402.0,256.0,406.0,286.0,408.0,270.0,384.0,260.0" stroke="black" stroke-width="1" fill="none" />
<polyline points="462.0,300.0,460.0,316.0" stroke="black" stroke-width="1" fill="none" />
<polyline points="468.0,312.0,466.0,296.0" stroke="black" stroke-width="1" fill="none" />
<polyline points="398.0,368.0,382.0,374.0,364.0,368.0,348.0,372.0" stroke="black" stroke-width="1" fill="none" />
<polyline points="352.0,384.0,348.0,374.0,340.0,390.0,350.0,396.0,354.0,396.0,360.0,408.0,350.0,426.0,366.0,420.0,388.0,420.0,394.0,420.0,410.0,414.0,410.0,408.0" stroke="black" stroke-width="1" fill="none" />
<polyline points="346.0,412.0,330.0,414.0" stroke="black" stroke-width="1" fill="none" />
<polyline points="318.0,414.0,318.0,418.0,316.0,430.0,316.0,446.0,322.0,458.0,336.0,460.0,352.0,438.0,366.0,442.0,346.0,438.0,338.0,454.0" stroke="black" stroke-width="1" fill="none" />
<polyline points="324.0,436.0,326.0,430.0,324.0,446.0,336.0,430.0,352.0,418.0" stroke="black" stroke-width="1" fill="none" />
<polyline points="324.0,370.0,348.0,360.0,348.0,350.0,370.0,338.0,354.0,342.0,338.0,364.0,322.0,372.0,306.0,388.0,290.0,386.0" stroke="black" stroke-width="1" fill="none" />
<polyline points="282.0,358.0,298.0,352.0,304.0,332.0,320.0,334.0" stroke="black" stroke-width="1" fill="none" />
<polyline points="310.0,338.0,326.0,344.0" stroke="black" stroke-width="1" fill="none" />
<polyline points="310.0,358.0,316.0,342.0,312.0,352.0,306.0,342.0,296.0,358.0,306.0,346.0,322.0,330.0,306.0,326.0" stroke="black" stroke-width="1" fill="none" />
<polyline points="296.0,336.0,290.0,352.0,288.0,356.0,302.0,364.0,298.0,370.0,300.0,374.0,308.0,364.0,324.0,362.0" stroke="black" stroke-width="1" fill="none" />
<polyline points="338.0,364.0,332.0,380.0" stroke="black" stroke-width="1" fill="none" />
<polyline points="354.0,348.0,366.0,364.0,356.0,380.0,360.0,390.0,378.0,398.0,376.0,414.0,366.0,422.0,370.0,444.0,362.0,460.0,360.0,476.0,360.0,492.0,348.0,496.0,364.0,484.0,386.0,472.0" stroke="black" stroke-width="1" fill="none" />
<polyline points="332.0,500.0,316.0,502.0,300.0,502.0,284.0,508.0" stroke="black" stroke-width="1" fill="none" />
<polyline points="282.0,338.0,298.0,324.0,314.0,316.0,316.0,320.0,332.0,328.0,336.0,308.0,350.0,304.0,366.0,314.0,382.0,320.0,398.0,312.0,404.0,322.0,420.0,318.0,436.0,314.0,452.0,304.0,452.0,286.0,470.0,280.0" stroke="black" stroke-width="1" fill="none" />
<polyline points="392.0,348.0,394.0,344.0,384.0,352.0,360.0,362.0,346.0,366.0,334.0,378.0,324.0,382.0,302.0,382.0,286.0,384.0,284.0,396.0,284.0,380.0,282.0,364.0,282.0,348.0,284.0,332.0,294.0,332.0,306.0,330.0,288.0,338.0" stroke="black" stroke-width="1" fill="none" />
</svg>