<svg xmlns="http://www.w3.org/2000/svg" height="508px" width="456px" version="1.1"><polyline points="382.0,262.0,390.0,278.0,388.0,294.0,382.0,298.0,390.0,314.0,396.0,326.0,392.0,334.0,372.0,336.0,374.0,330.0,408.0,314.0" stroke="black" stroke-width="1" fill="none" />
<polyline points="396.0,302.0,392.0,286.0" stroke="black" stroke-width="1" fill="none" />
<polyline points="400.0,274.0,396.0,290.0,400.0,306.0" stroke="black" stroke-width="1" fill="none" />
<polyline points="404.0,268.0,434.0,272.0,436.0,288.0" stroke="black" stroke-width="1" fill="none" />
<polyline points="430.0,282.0,430.0,298.0" stroke="black" stroke-width="1" fill="none" />
<polyline points="444.0,280.0,428.0,266.0,412.0,264.0" stroke="black" stroke-width="1" fill="none" />
<polyline points="406.0,260.0,438.0,260.0,450.0,276.0,454.0,292.0,448.0,292.0,446.0,308.0,438.0,324.0,452.0,320.0" stroke="black" stroke-width="1" fill="none" />
<polyline points="442.0,312.0,426.0,318.0,410.0,334.0,384.0,324.0,368.0,316.0,376.0,298.0,382.0,282.0,390.0,278.0,374.0,274.0,374.0,274.0,374.0,290.0" stroke="black" stroke-width="1" fill="none" />
<polyline points="378.0,268.0,400.0,266.0,412.0,282.0,426.0,284.0,424.0,300.0,418.0,312.0,418.0,326.0,420.0,346.0,424.0,358.0,422.0,378.0,422.0,394.0,426.0,406.0,428.0,416.0,440.0,432.0,426.0,448.0,426.0,464.0,442.0,466.0" stroke="black" stroke-width="1" fill="none" />
<polyline points="448.0,502.0,442.0,492.0,454.0,476.0,454.0,462.0,434.0,450.0,426.0,426.0,432.0,406.0,424.0,408.0" stroke="black" stroke-width="1" fill="none" />
<polyline points="414.0,428.0,416.0,444.0,408.0,462.0,414.0,478.0,406.0,494.0,418.0,500.0,420.0,508.0,426.0,504.0,442.0,508.0" stroke="black" stroke-width="1" fill="none" />
<polyline points="456.0,490.0,440.0,486.0,424.0,492.0,408.0,484.0,418.0,460.0,424.0,444.0,422.0,428.0,418.0,412.0,416.0,396.0,418.0,380.0,416.0,364.0,412.0,348.0,408.0,332.0,406.0,316.0,420.0,300.0,420.0,284.0,414.0,268.0,394.0,260.0" stroke="black" stroke-width="1" fill="none" />
<polyline points="396.0,270.0,380.0,264.0,364.0,266.0,338.0,282.0,334.0,292.0,338.0,276.0" stroke="black" stroke-width="1" fill="none" />
<polyline points="350.0,278.0,352.0,294.0,352.0,316.0,342.0,336.0,356.0,340.0,372.0,344.0,388.0,340.0" stroke="black" stroke-width="1" fill="none" />
<polyline points="406.0,358.0,408.0,374.0,408.0,390.0,406.0,406.0,386.0,414.0,386.0,430.0,384.0,444.0,382.0,460.0,388.0,468.0,382.0,484.0,372.0,500.0,374.0,504.0,392.0,498.0,396.0,482.0,412.0,472.0,428.0,478.0,432.0,472.0" stroke="black" stroke-width="1" fill="none" />
<polyline points="446.0,458.0,432.0,444.0,406.0,460.0,402.0,484.0,390.0,462.0,390.0,446.0,400.0,434.0,396.0,418.0,386.0,408.0" stroke="black" stroke-width="1" fill="none" />
<polyline points="358.0,390.0,370.0,374.0,378.0,356.0,362.0,360.0,352.0,374.0,360.0,372.0,384.0,372.0,400.0,356.0,396.0,376.0,396.0,376.0,402.0,392.0,406.0,410.0,402.0,426.0,408.0,440.0,404.0,456.0,394.0,472.0,390.0,488.0,396.0,502.0,404.0,492.0,428.0,498.0,440.0,494.0" stroke="black" stroke-width="1" fill="none" />
<polyline points="368.0,480.0,384.0,456.0,390.0,436.0,396.0,416.0" stroke="black" stroke-width="1" fill="none" />
<polyline points="358.0,400.0,342.0,410.0,326.0,410.0,310.0,402.0" stroke="black" stroke-width="1" fill="none" />
<polyline points="310.0,376.0,326.0,368.0,326.0,376.0,340.0,374.0,356.0,368.0,376.0,370.0" stroke="black" stroke-width="1" fill="none" />
<polyline points="394.0,368.0,386.0,384.0,370.0,394.0,370.0,392.0" stroke="black" stroke-width="1" fill="none" />
<polyline points="354.0,382.0,338.0,382.0" stroke="black" stroke-width="1" fill="none" />
<polyline points="344.0,344.0,340.0,332.0,324.0,332.0,324.0,332.0,328.0,348.0,324.0,360.0,338.0,356.0,354.0,356.0,370.0,352.0,386.0,350.0" stroke="black" stroke-width="1" fill="none" />
<polyline points="426.0,346.0,408.0,360.0,392.0,364.0,390.0,374.0,376.0,394.0,360.0,408.0,336.0,406.0,352.0,402.0,350.0,378.0,348.0,374.0,350.0,338.0,350.0,328.0,364.0,314.0,346.0,310.0,346.0,294.0,346.0,278.0,350.0,262.0,354.0,264.0" stroke="black" stroke-width="1" fill="none" />
<polyline points="350.0,256.0,366.0,256.0,382.0,254.0,398.0,254.0,414.0,254.0,430.0,256.0,446.0,254.0" stroke="black" stroke-width="1" fill="none" />
<polyline points="430.0,262.0,446.0,278.0,444.0,296.0" stroke="black" stroke-width="1" fill="none" />
<polyline points="442.0,272.0,426.0,260.0,416.0,272.0,404.0,294.0,404.0,304.0,388.0,308.0,382.0,316.0,382.0,296.0,380.0,304.0,366.0,282.0,372.0,266.0,368.0,264.0,358.0,280.0,362.0,296.0,372.0,312.0,362.0,332.0,364.0,324.0,368.0,338.0" stroke="black" stroke-width="1" fill="none" />
<polyline points="350.0,324.0,334.0,326.0,318.0,334.0" stroke="black" stroke-width="1" fill="none" />
<polyline points="322.0,326.0,320.0,342.0,318.0,358.0,310.0,376.0,312.0,392.0,310.0,408.0,320.0,398.0,336.0,402.0,352.0,396.0,368.0,384.0" stroke="black" stroke-width="1" fill="none" />
<polyline points="372.0,458.0,370.0,474.0,366.0,490.0,362.0,506.0" stroke="black" stroke-width="1" fill="none" />
</svg>