<svg xmlns="http://www.w3.org/2000/svg" height="252px" width="506px" version="1.1"><polyline points="454.0,14.0,442.0,30.0,438.0,46.0,436.0,62.0,436.0,76.0,434.0,92.0,434.0,108.0,432.0,124.0,430.0,140.0,424.0,156.0,410.0,172.0,410.0,188.0,412.0,204.0,428.0,218.0,424.0,234.0,406.0,242.0,428.0,238.0" stroke="black" stroke-width="1" fill="none" />
<polyline points="418.0,238.0,398.0,226.0,400.0,210.0,390.0,194.0,392.0,178.0,404.0,150.0,418.0,146.0,422.0,130.0,422.0,114.0,412.0,98.0,402.0,88.0,384.0,88.0" stroke="black" stroke-width="1" fill="none" />
<polyline points="372.0,84.0,324.0,100.0" stroke="black" stroke-width="1" fill="none" />
<polyline points="290.0,98.0,274.0,102.0" stroke="black" stroke-width="1" fill="none" />
<polyline points="282.0,128.0,276.0,116.0,270.0,132.0,270.0,148.0,274.0,164.0,278.0,170.0,302.0,164.0,318.0,164.0,334.0,152.0,344.0,152.0,360.0,150.0,378.0,164.0,392.0,166.0,408.0,144.0,422.0,134.0" stroke="black" stroke-width="1" fill="none" />
<polyline points="414.0,98.0,398.0,84.0,382.0,82.0,366.0,86.0,350.0,92.0,334.0,98.0,318.0,102.0,302.0,106.0,286.0,110.0,270.0,130.0" stroke="black" stroke-width="1" fill="none" />
<polyline points="278.0,132.0,278.0,148.0,302.0,166.0,304.0,154.0" stroke="black" stroke-width="1" fill="none" />
<polyline points="286.0,148.0,302.0,148.0,294.0,160.0,288.0,176.0,284.0,202.0,298.0,218.0,296.0,234.0,302.0,242.0,318.0,242.0" stroke="black" stroke-width="1" fill="none" />
<polyline points="308.0,252.0,322.0,234.0,314.0,218.0,304.0,202.0,304.0,186.0,322.0,184.0,334.0,178.0" stroke="black" stroke-width="1" fill="none" />
<polyline points="352.0,184.0,368.0,182.0,382.0,190.0,382.0,206.0,388.0,222.0" stroke="black" stroke-width="1" fill="none" />
<polyline points="404.0,228.0,406.0,212.0,404.0,196.0,402.0,180.0" stroke="black" stroke-width="1" fill="none" />
<polyline points="360.0,160.0,344.0,158.0" stroke="black" stroke-width="1" fill="none" />
<polyline points="292.0,190.0,296.0,206.0,294.0,222.0,288.0,230.0" stroke="black" stroke-width="1" fill="none" />
<polyline points="306.0,214.0,322.0,204.0,322.0,226.0" stroke="black" stroke-width="1" fill="none" />
<polyline points="262.0,186.0,258.0,170.0,262.0,154.0,262.0,138.0,264.0,122.0,266.0,106.0,260.0,90.0,260.0,74.0,262.0,58.0,264.0,42.0,276.0,26.0,264.0,40.0" stroke="black" stroke-width="1" fill="none" />
<polyline points="268.0,22.0,276.0,38.0,270.0,54.0,268.0,70.0,268.0,86.0,272.0,102.0,276.0,90.0,292.0,90.0,312.0,90.0,328.0,86.0,344.0,80.0,346.0,80.0,360.0,76.0,376.0,70.0,392.0,70.0,408.0,76.0,412.0,80.0,428.0,90.0,440.0,86.0,454.0,118.0" stroke="black" stroke-width="1" fill="none" />
<polyline points="454.0,102.0,470.0,126.0,486.0,130.0" stroke="black" stroke-width="1" fill="none" />
<polyline points="494.0,132.0,496.0,116.0,494.0,100.0,494.0,96.0,490.0,80.0,484.0,64.0,478.0,48.0,478.0,34.0,492.0,24.0,476.0,24.0" stroke="black" stroke-width="1" fill="none" />
<polyline points="466.0,30.0,468.0,46.0,468.0,64.0,472.0,72.0,456.0,88.0,442.0,108.0,444.0,124.0,446.0,140.0,448.0,156.0,454.0,170.0" stroke="black" stroke-width="1" fill="none" />
<polyline points="468.0,158.0,456.0,150.0,456.0,134.0,452.0,118.0,446.0,102.0,446.0,82.0" stroke="black" stroke-width="1" fill="none" />
<polyline points="444.0,46.0,460.0,24.0,476.0,40.0" stroke="black" stroke-width="1" fill="none" />
<polyline points="456.0,32.0,454.0,24.0,446.0,40.0,442.0,56.0,442.0,72.0,448.0,88.0,454.0,104.0,464.0,120.0,476.0,136.0,484.0,144.0" stroke="black" stroke-width="1" fill="none" />
<polyline points="494.0,158.0,478.0,152.0,462.0,136.0,462.0,136.0,462.0,152.0,456.0,168.0" stroke="black" stroke-width="1" fill="none" />
<polyline points="478.0,154.0,466.0,138.0" stroke="black" stroke-width="1" fill="none" />
<polyline points="504.0,164.0,494.0,160.0,506.0,160.0,504.0,144.0,504.0,128.0,504.0,112.0,502.0,96.0,498.0,80.0,492.0,64.0,494.0,48.0,500.0,32.0,496.0,16.0,488.0,2.0,472.0,14.0,456.0,14.0,440.0,14.0" stroke="black" stroke-width="1" fill="none" />
<polyline points="486.0,8.0,486.0,22.0,488.0,38.0,490.0,38.0,506.0,42.0" stroke="black" stroke-width="1" fill="none" />
<polyline points="398.0,72.0,418.0,88.0,426.0,104.0,438.0,122.0,438.0,138.0,442.0,154.0,450.0,170.0,456.0,182.0" stroke="black" stroke-width="1" fill="none" />
<polyline points="416.0,168.0,394.0,178.0,372.0,176.0,356.0,172.0,340.0,172.0,324.0,176.0,308.0,184.0,286.0,190.0,264.0,162.0" stroke="black" stroke-width="1" fill="none" />
<polyline points="264.0,168.0,274.0,184.0,276.0,200.0,278.0,216.0,288.0,236.0,288.0,236.0" stroke="black" stroke-width="1" fill="none" />
</svg>