<svg xmlns="http://www.w3.org/2000/svg" height="254px" width="506px" version="1.1"><polyline points="420.0,4.0,410.0,20.0,402.0,36.0,402.0,52.0,402.0,68.0,394.0,84.0,380.0,92.0,402.0,96.0,404.0,112.0,408.0,128.0,408.0,144.0,402.0,158.0,384.0,174.0,380.0,190.0,384.0,206.0,390.0,222.0,390.0,228.0,394.0,244.0" stroke="black" stroke-width="1" fill="none" />
<polyline points="414.0,222.0,410.0,206.0,394.0,212.0,392.0,196.0,394.0,180.0,372.0,178.0" stroke="black" stroke-width="1" fill="none" />
<polyline points="394.0,200.0,410.0,200.0" stroke="black" stroke-width="1" fill="none" />
<polyline points="398.0,212.0,384.0,222.0,368.0,226.0" stroke="black" stroke-width="1" fill="none" />
<polyline points="360.0,240.0,360.0,224.0,362.0,208.0,366.0,192.0,342.0,180.0,326.0,176.0" stroke="black" stroke-width="1" fill="none" />
<polyline points="310.0,178.0,314.0,168.0,318.0,190.0,318.0,206.0,314.0,222.0,308.0,238.0" stroke="black" stroke-width="1" fill="none" />
<polyline points="320.0,224.0,336.0,222.0" stroke="black" stroke-width="1" fill="none" />
<polyline points="336.0,232.0,326.0,210.0,328.0,194.0,326.0,178.0,322.0,152.0,300.0,138.0,296.0,122.0,302.0,106.0,276.0,94.0,268.0,78.0,266.0,62.0,266.0,46.0,270.0,30.0,274.0,16.0,258.0,22.0" stroke="black" stroke-width="1" fill="none" />
<polyline points="260.0,16.0,260.0,32.0,258.0,48.0,258.0,64.0,260.0,80.0,266.0,96.0,284.0,114.0,290.0,130.0,284.0,140.0,294.0,152.0,298.0,166.0,302.0,182.0,296.0,198.0,294.0,214.0,280.0,244.0,296.0,240.0,298.0,218.0,314.0,230.0,322.0,244.0,338.0,244.0" stroke="black" stroke-width="1" fill="none" />
<polyline points="296.0,240.0,304.0,224.0,308.0,208.0,310.0,192.0,312.0,176.0,296.0,164.0" stroke="black" stroke-width="1" fill="none" />
<polyline points="308.0,146.0,324.0,152.0,334.0,164.0,350.0,168.0,366.0,164.0,382.0,154.0,384.0,160.0,394.0,164.0" stroke="black" stroke-width="1" fill="none" />
<polyline points="420.0,122.0,436.0,130.0" stroke="black" stroke-width="1" fill="none" />
<polyline points="464.0,102.0,480.0,104.0" stroke="black" stroke-width="1" fill="none" />
<polyline points="480.0,94.0,464.0,96.0" stroke="black" stroke-width="1" fill="none" />
<polyline points="480.0,72.0,464.0,54.0" stroke="black" stroke-width="1" fill="none" />
<polyline points="458.0,40.0,458.0,56.0,462.0,74.0,462.0,90.0,462.0,116.0,462.0,132.0,452.0,148.0,456.0,152.0" stroke="black" stroke-width="1" fill="none" />
<polyline points="444.0,138.0,444.0,130.0,426.0,136.0,420.0,122.0,420.0,106.0,422.0,90.0,426.0,74.0,418.0,52.0,410.0,48.0,414.0,32.0,428.0,16.0,444.0,22.0,434.0,18.0,418.0,26.0,418.0,36.0" stroke="black" stroke-width="1" fill="none" />
<polyline points="414.0,50.0,426.0,52.0,420.0,68.0,402.0,90.0,410.0,98.0,412.0,116.0,412.0,132.0,418.0,148.0,414.0,152.0,434.0,154.0,450.0,152.0" stroke="black" stroke-width="1" fill="none" />
<polyline points="390.0,114.0,394.0,130.0,402.0,136.0,394.0,138.0,378.0,154.0,372.0,182.0,374.0,198.0,374.0,214.0,358.0,234.0,374.0,254.0,388.0,248.0,402.0,232.0,418.0,220.0" stroke="black" stroke-width="1" fill="none" />
<polyline points="300.0,216.0,300.0,200.0" stroke="black" stroke-width="1" fill="none" />
<polyline points="292.0,216.0,276.0,222.0,276.0,222.0,276.0,238.0" stroke="black" stroke-width="1" fill="none" />
<polyline points="286.0,106.0,270.0,104.0" stroke="black" stroke-width="1" fill="none" />
<polyline points="270.0,82.0,286.0,98.0,300.0,88.0,296.0,84.0,308.0,82.0,316.0,72.0,332.0,70.0,348.0,74.0,364.0,72.0,370.0,82.0,386.0,84.0,386.0,96.0" stroke="black" stroke-width="1" fill="none" />
<polyline points="416.0,84.0,408.0,80.0,386.0,110.0,370.0,106.0,354.0,86.0,338.0,84.0,322.0,88.0,308.0,106.0,310.0,100.0,332.0,84.0" stroke="black" stroke-width="1" fill="none" />
<polyline points="402.0,30.0,418.0,8.0,434.0,4.0,450.0,4.0,458.0,12.0,472.0,26.0,476.0,28.0,486.0,44.0,484.0,54.0,496.0,70.0,506.0,78.0,506.0,94.0,502.0,110.0,496.0,116.0,500.0,118.0" stroke="black" stroke-width="1" fill="none" />
<polyline points="498.0,82.0,490.0,102.0,488.0,94.0,486.0,78.0,476.0,62.0,464.0,66.0,474.0,54.0,464.0,38.0,452.0,38.0,452.0,38.0,452.0,54.0,450.0,70.0,452.0,86.0,452.0,102.0,452.0,118.0,468.0,118.0,484.0,118.0" stroke="black" stroke-width="1" fill="none" />
<polyline points="506.0,62.0,490.0,58.0,486.0,48.0,478.0,44.0,462.0,32.0,446.0,26.0" stroke="black" stroke-width="1" fill="none" />
<polyline points="446.0,38.0,444.0,54.0" stroke="black" stroke-width="1" fill="none" />
</svg>