<svg xmlns="http://www.w3.org/2000/svg" height="248px" width="502px" version="1.1"><polyline points="280.0,8.0,276.0,24.0,284.0,40.0,286.0,56.0,288.0,70.0,264.0,86.0,276.0,76.0,302.0,68.0,318.0,66.0,326.0,52.0" stroke="black" stroke-width="1" fill="none" />
<polyline points="348.0,62.0,364.0,52.0,374.0,68.0,390.0,62.0,404.0,48.0" stroke="black" stroke-width="1" fill="none" />
<polyline points="408.0,54.0,402.0,70.0,382.0,76.0,404.0,70.0,420.0,66.0,448.0,68.0" stroke="black" stroke-width="1" fill="none" />
<polyline points="450.0,54.0,434.0,48.0" stroke="black" stroke-width="1" fill="none" />
<polyline points="440.0,74.0,424.0,74.0,408.0,82.0,392.0,90.0,392.0,94.0,408.0,106.0" stroke="black" stroke-width="1" fill="none" />
<polyline points="362.0,100.0,390.0,102.0,402.0,118.0,406.0,134.0,408.0,150.0,406.0,166.0,404.0,182.0,400.0,198.0,392.0,204.0" stroke="black" stroke-width="1" fill="none" />
<polyline points="414.0,186.0,430.0,186.0,446.0,182.0,462.0,174.0,478.0,164.0" stroke="black" stroke-width="1" fill="none" />
<polyline points="486.0,126.0,470.0,98.0,468.0,94.0,484.0,100.0,490.0,106.0" stroke="black" stroke-width="1" fill="none" />
<polyline points="474.0,94.0,492.0,110.0,500.0,126.0,502.0,142.0,496.0,158.0,480.0,174.0,448.0,190.0" stroke="black" stroke-width="1" fill="none" />
<polyline points="444.0,182.0,474.0,166.0,488.0,150.0,488.0,134.0,482.0,118.0,468.0,110.0,468.0,94.0,470.0,86.0" stroke="black" stroke-width="1" fill="none" />
<polyline points="394.0,106.0,378.0,114.0,362.0,114.0,346.0,104.0,330.0,126.0" stroke="black" stroke-width="1" fill="none" />
<polyline points="318.0,124.0,334.0,100.0,336.0,116.0,330.0,132.0,328.0,148.0,330.0,164.0,336.0,180.0,346.0,196.0,348.0,198.0,332.0,166.0" stroke="black" stroke-width="1" fill="none" />
<polyline points="320.0,176.0,336.0,200.0,352.0,214.0" stroke="black" stroke-width="1" fill="none" />
<polyline points="370.0,222.0,354.0,230.0,338.0,236.0,322.0,230.0" stroke="black" stroke-width="1" fill="none" />
<polyline points="326.0,220.0,326.0,236.0,334.0,220.0,350.0,218.0" stroke="black" stroke-width="1" fill="none" />
<polyline points="378.0,204.0,378.0,188.0,376.0,172.0,378.0,156.0,378.0,150.0" stroke="black" stroke-width="1" fill="none" />
<polyline points="384.0,152.0,388.0,168.0,388.0,184.0,390.0,200.0" stroke="black" stroke-width="1" fill="none" />
<polyline points="406.0,230.0,412.0,246.0" stroke="black" stroke-width="1" fill="none" />
<polyline points="366.0,164.0,350.0,146.0,352.0,144.0,352.0,160.0,354.0,176.0,356.0,192.0,370.0,214.0,398.0,216.0,414.0,198.0,430.0,196.0,446.0,192.0,462.0,184.0,478.0,176.0,494.0,160.0" stroke="black" stroke-width="1" fill="none" />
<polyline points="410.0,248.0,394.0,248.0,378.0,242.0,390.0,222.0,404.0,206.0,416.0,182.0,418.0,166.0,418.0,150.0,418.0,134.0,414.0,118.0,402.0,102.0,404.0,84.0,432.0,64.0,432.0,42.0,448.0,26.0,442.0,10.0,436.0,4.0,420.0,8.0,404.0,12.0,388.0,20.0,372.0,20.0,356.0,20.0,340.0,20.0,324.0,18.0,308.0,12.0,292.0,8.0,276.0,14.0" stroke="black" stroke-width="1" fill="none" />
<polyline points="288.0,16.0,290.0,32.0,302.0,48.0,298.0,64.0,298.0,82.0,278.0,94.0,294.0,84.0,310.0,78.0,326.0,74.0,326.0,86.0,340.0,88.0,356.0,90.0,372.0,88.0,388.0,84.0,404.0,78.0,408.0,60.0,424.0,54.0,442.0,36.0" stroke="black" stroke-width="1" fill="none" />
<polyline points="432.0,14.0,432.0,30.0,424.0,48.0,422.0,62.0,446.0,60.0" stroke="black" stroke-width="1" fill="none" />
<polyline points="430.0,32.0,410.0,40.0,412.0,24.0,424.0,12.0" stroke="black" stroke-width="1" fill="none" />
<polyline points="432.0,12.0,416.0,16.0,400.0,24.0,414.0,8.0" stroke="black" stroke-width="1" fill="none" />
<polyline points="384.0,28.0,368.0,26.0,352.0,26.0,336.0,28.0,320.0,26.0,304.0,18.0,288.0,16.0" stroke="black" stroke-width="1" fill="none" />
<polyline points="290.0,30.0,278.0,30.0" stroke="black" stroke-width="1" fill="none" />
<polyline points="298.0,78.0,282.0,80.0,266.0,84.0" stroke="black" stroke-width="1" fill="none" />
<polyline points="280.0,96.0,296.0,90.0,312.0,88.0,328.0,94.0,334.0,100.0,322.0,116.0,318.0,132.0,316.0,148.0,318.0,164.0,322.0,180.0,330.0,196.0,346.0,212.0,352.0,232.0,340.0,230.0" stroke="black" stroke-width="1" fill="none" />
<polyline points="410.0,230.0,394.0,226.0,386.0,238.0,384.0,234.0,374.0,234.0,366.0,210.0,368.0,194.0,368.0,178.0,364.0,162.0,356.0,146.0" stroke="black" stroke-width="1" fill="none" />
<polyline points="366.0,108.0,352.0,104.0" stroke="black" stroke-width="1" fill="none" />
<polyline points="354.0,60.0,362.0,76.0,364.0,76.0,364.0,60.0" stroke="black" stroke-width="1" fill="none" />
</svg>