<svg xmlns="http://www.w3.org/2000/svg" height="256px" width="508px" version="1.1"><polyline points="440.0,16.0,442.0,32.0,442.0,48.0,454.0,64.0,442.0,80.0,452.0,86.0" stroke="black" stroke-width="1" fill="none" />
<polyline points="476.0,72.0,492.0,64.0" stroke="black" stroke-width="1" fill="none" />
<polyline points="470.0,48.0,454.0,44.0,452.0,48.0,460.0,38.0,476.0,40.0,492.0,38.0" stroke="black" stroke-width="1" fill="none" />
<polyline points="492.0,44.0,472.0,68.0,464.0,88.0,448.0,104.0,450.0,100.0,466.0,84.0,474.0,66.0,468.0,62.0,458.0,62.0,458.0,46.0,458.0,26.0,450.0,10.0,438.0,6.0,422.0,6.0" stroke="black" stroke-width="1" fill="none" />
<polyline points="398.0,14.0,382.0,24.0" stroke="black" stroke-width="1" fill="none" />
<polyline points="374.0,30.0,380.0,18.0,398.0,20.0,408.0,36.0,412.0,38.0" stroke="black" stroke-width="1" fill="none" />
<polyline points="366.0,42.0,374.0,38.0,368.0,54.0,382.0,60.0,368.0,60.0,368.0,78.0,374.0,88.0,398.0,98.0,398.0,114.0,398.0,138.0,366.0,154.0,374.0,178.0,380.0,194.0,388.0,202.0,398.0,202.0,408.0,212.0,410.0,228.0" stroke="black" stroke-width="1" fill="none" />
<polyline points="396.0,248.0,396.0,248.0,416.0,232.0,416.0,216.0,416.0,200.0,408.0,192.0,392.0,192.0" stroke="black" stroke-width="1" fill="none" />
<polyline points="376.0,208.0,386.0,216.0,400.0,220.0,406.0,214.0" stroke="black" stroke-width="1" fill="none" />
<polyline points="382.0,220.0,374.0,214.0,374.0,214.0" stroke="black" stroke-width="1" fill="none" />
<polyline points="366.0,200.0,368.0,216.0,364.0,224.0,366.0,232.0,382.0,248.0" stroke="black" stroke-width="1" fill="none" />
<polyline points="342.0,240.0,338.0,246.0" stroke="black" stroke-width="1" fill="none" />
<polyline points="306.0,232.0,314.0,206.0,330.0,200.0" stroke="black" stroke-width="1" fill="none" />
<polyline points="344.0,170.0,342.0,186.0,356.0,202.0,342.0,212.0,352.0,220.0,356.0,246.0,338.0,246.0,340.0,256.0,356.0,246.0" stroke="black" stroke-width="1" fill="none" />
<polyline points="400.0,244.0,400.0,228.0,396.0,234.0,382.0,238.0,366.0,226.0,350.0,236.0,336.0,234.0,328.0,224.0,326.0,218.0,320.0,236.0,310.0,240.0,308.0,236.0,306.0,220.0,316.0,204.0,334.0,188.0,332.0,172.0,324.0,156.0,310.0,144.0,290.0,134.0,282.0,128.0,272.0,124.0,282.0,108.0,268.0,100.0" stroke="black" stroke-width="1" fill="none" />
<polyline points="264.0,88.0,256.0,92.0,256.0,108.0,264.0,124.0,268.0,136.0,284.0,144.0,300.0,138.0,316.0,144.0,340.0,144.0,350.0,154.0,366.0,152.0,382.0,146.0,398.0,142.0" stroke="black" stroke-width="1" fill="none" />
<polyline points="412.0,144.0,396.0,160.0,370.0,160.0,364.0,170.0,348.0,172.0,348.0,172.0,348.0,188.0,350.0,200.0,358.0,196.0,374.0,184.0" stroke="black" stroke-width="1" fill="none" />
<polyline points="348.0,136.0,364.0,128.0,380.0,128.0,396.0,132.0" stroke="black" stroke-width="1" fill="none" />
<polyline points="410.0,112.0,410.0,128.0,410.0,144.0,396.0,160.0,390.0,176.0,390.0,192.0,396.0,204.0" stroke="black" stroke-width="1" fill="none" />
<polyline points="362.0,86.0,378.0,98.0,388.0,80.0,404.0,72.0" stroke="black" stroke-width="1" fill="none" />
<polyline points="452.0,92.0,476.0,76.0,498.0,62.0,508.0,44.0,506.0,36.0,494.0,30.0,478.0,30.0,462.0,30.0,444.0,24.0,430.0,14.0,416.0,36.0,424.0,20.0,406.0,6.0,390.0,6.0,374.0,6.0" stroke="black" stroke-width="1" fill="none" />
<polyline points="356.0,26.0,372.0,14.0,364.0,20.0,356.0,36.0,358.0,52.0,358.0,68.0,358.0,84.0,362.0,88.0,374.0,102.0,390.0,98.0,412.0,104.0,428.0,102.0,430.0,96.0,446.0,80.0" stroke="black" stroke-width="1" fill="none" />
<polyline points="442.0,108.0,426.0,112.0,410.0,112.0,388.0,120.0,372.0,120.0,356.0,118.0,340.0,120.0,324.0,128.0,310.0,130.0,312.0,134.0,314.0,118.0,304.0,102.0,290.0,118.0,286.0,114.0,270.0,118.0" stroke="black" stroke-width="1" fill="none" />
<polyline points="256.0,92.0,272.0,88.0,288.0,94.0,304.0,96.0" stroke="black" stroke-width="1" fill="none" />
<polyline points="308.0,118.0,294.0,134.0" stroke="black" stroke-width="1" fill="none" />
<polyline points="274.0,14.0,258.0,16.0" stroke="black" stroke-width="1" fill="none" />
</svg>