<svg xmlns="http://www.w3.org/2000/svg" height="250px" width="508px" version="1.1"><polyline points="492.0,20.0,496.0,36.0,496.0,52.0,494.0,68.0,482.0,84.0,470.0,94.0,486.0,106.0,474.0,122.0,466.0,134.0,482.0,142.0,494.0,136.0" stroke="black" stroke-width="1" fill="none" />
<polyline points="482.0,160.0,494.0,156.0,506.0,158.0,490.0,182.0,474.0,180.0,458.0,178.0,456.0,160.0,466.0,158.0,472.0,142.0,478.0,128.0,462.0,108.0,436.0,112.0,440.0,96.0,462.0,90.0,442.0,74.0,444.0,58.0,452.0,42.0,466.0,26.0,476.0,8.0,460.0,12.0" stroke="black" stroke-width="1" fill="none" />
<polyline points="452.0,20.0,456.0,28.0,448.0,34.0,440.0,42.0,436.0,58.0,436.0,68.0" stroke="black" stroke-width="1" fill="none" />
<polyline points="442.0,60.0,450.0,62.0,452.0,76.0,468.0,90.0,482.0,84.0,486.0,78.0" stroke="black" stroke-width="1" fill="none" />
<polyline points="466.0,90.0,468.0,106.0" stroke="black" stroke-width="1" fill="none" />
<polyline points="454.0,124.0,446.0,102.0,426.0,124.0,430.0,124.0,444.0,116.0,436.0,122.0,420.0,114.0,422.0,112.0,420.0,128.0,426.0,130.0" stroke="black" stroke-width="1" fill="none" />
<polyline points="398.0,142.0,398.0,162.0" stroke="black" stroke-width="1" fill="none" />
<polyline points="414.0,170.0,398.0,160.0,382.0,156.0,394.0,158.0,368.0,148.0" stroke="black" stroke-width="1" fill="none" />
<polyline points="376.0,122.0,380.0,138.0,374.0,154.0,378.0,164.0,368.0,180.0,366.0,196.0,376.0,212.0,390.0,220.0,376.0,232.0,366.0,238.0,354.0,244.0,382.0,250.0,398.0,250.0" stroke="black" stroke-width="1" fill="none" />
<polyline points="390.0,240.0,398.0,224.0,378.0,214.0" stroke="black" stroke-width="1" fill="none" />
<polyline points="398.0,220.0,392.0,240.0,374.0,240.0,358.0,230.0,366.0,214.0,350.0,210.0,366.0,220.0,358.0,204.0" stroke="black" stroke-width="1" fill="none" />
<polyline points="350.0,182.0,334.0,194.0,318.0,196.0" stroke="black" stroke-width="1" fill="none" />
<polyline points="306.0,220.0,322.0,216.0,338.0,210.0,344.0,218.0,338.0,224.0,338.0,240.0" stroke="black" stroke-width="1" fill="none" />
<polyline points="326.0,238.0,312.0,228.0" stroke="black" stroke-width="1" fill="none" />
<polyline points="286.0,236.0,290.0,220.0,296.0,196.0,296.0,180.0,302.0,164.0,298.0,156.0" stroke="black" stroke-width="1" fill="none" />
<polyline points="296.0,146.0,312.0,148.0,328.0,148.0,344.0,146.0,360.0,156.0,358.0,172.0,356.0,188.0,354.0,202.0,352.0,218.0,346.0,232.0" stroke="black" stroke-width="1" fill="none" />
<polyline points="298.0,248.0,300.0,236.0,306.0,222.0,310.0,200.0,286.0,188.0,280.0,174.0,292.0,158.0,292.0,158.0,286.0,164.0,284.0,180.0" stroke="black" stroke-width="1" fill="none" />
<polyline points="296.0,170.0,312.0,160.0,328.0,158.0,344.0,158.0,368.0,174.0,390.0,166.0" stroke="black" stroke-width="1" fill="none" />
<polyline points="338.0,170.0,348.0,164.0,368.0,156.0,370.0,130.0,374.0,114.0" stroke="black" stroke-width="1" fill="none" />
<polyline points="378.0,84.0,380.0,68.0,374.0,58.0" stroke="black" stroke-width="1" fill="none" />
<polyline points="350.0,88.0,366.0,90.0,366.0,98.0,382.0,94.0,410.0,88.0" stroke="black" stroke-width="1" fill="none" />
<polyline points="416.0,78.0,394.0,94.0,386.0,110.0,388.0,126.0,392.0,142.0,408.0,158.0,412.0,178.0,428.0,178.0,444.0,178.0,460.0,172.0,476.0,174.0,494.0,162.0" stroke="black" stroke-width="1" fill="none" />
<polyline points="508.0,36.0,502.0,2.0,486.0,6.0" stroke="black" stroke-width="1" fill="none" />
<polyline points="504.0,24.0,506.0,40.0,506.0,56.0,504.0,72.0,496.0,88.0,502.0,94.0" stroke="black" stroke-width="1" fill="none" />
<polyline points="496.0,178.0,504.0,162.0,504.0,146.0,488.0,148.0,462.0,146.0,450.0,158.0,436.0,162.0,420.0,160.0,404.0,156.0,398.0,138.0,372.0,112.0,356.0,110.0,340.0,94.0,328.0,86.0,324.0,70.0,326.0,52.0,326.0,48.0,342.0,46.0,352.0,52.0,368.0,54.0,382.0,78.0,408.0,74.0" stroke="black" stroke-width="1" fill="none" />
<polyline points="500.0,100.0,484.0,110.0,460.0,104.0,450.0,106.0,440.0,88.0,424.0,78.0,408.0,82.0,392.0,96.0,380.0,90.0,386.0,74.0,392.0,66.0,374.0,50.0,352.0,30.0,336.0,38.0,320.0,34.0,316.0,30.0,318.0,46.0,318.0,62.0,332.0,64.0,348.0,82.0,338.0,96.0" stroke="black" stroke-width="1" fill="none" />
<polyline points="316.0,30.0,332.0,34.0,356.0,40.0,372.0,44.0,382.0,54.0,398.0,66.0,414.0,66.0,430.0,62.0,440.0,32.0,454.0,42.0,470.0,24.0,486.0,18.0,486.0,30.0,508.0,64.0" stroke="black" stroke-width="1" fill="none" />
<polyline points="340.0,202.0,324.0,204.0,306.0,202.0,306.0,194.0,278.0,196.0,264.0,168.0,256.0,166.0,256.0,150.0,260.0,134.0,256.0,142.0" stroke="black" stroke-width="1" fill="none" />
<polyline points="256.0,124.0,272.0,124.0,268.0,138.0,268.0,154.0,276.0,170.0,268.0,178.0,276.0,194.0,276.0,210.0,282.0,218.0,278.0,234.0,278.0,250.0,290.0,238.0,300.0,246.0,316.0,250.0,320.0,250.0,346.0,250.0,362.0,250.0" stroke="black" stroke-width="1" fill="none" />
<polyline points="294.0,232.0,298.0,216.0,276.0,226.0" stroke="black" stroke-width="1" fill="none" />
</svg>