<svg xmlns="http://www.w3.org/2000/svg" height="252px" width="506px" version="1.1"><polyline points="274.0,32.0,276.0,48.0" stroke="black" stroke-width="1" fill="none" />
<polyline points="290.0,54.0,306.0,38.0,322.0,30.0,338.0,26.0,354.0,30.0,370.0,36.0,386.0,50.0,402.0,64.0" stroke="black" stroke-width="1" fill="none" />
<polyline points="428.0,54.0,428.0,64.0,444.0,68.0,460.0,86.0,476.0,104.0,482.0,106.0,506.0,106.0" stroke="black" stroke-width="1" fill="none" />
<polyline points="468.0,88.0,484.0,84.0,478.0,76.0,492.0,84.0,496.0,100.0,490.0,114.0,478.0,122.0,476.0,138.0,486.0,140.0,486.0,156.0,494.0,156.0,496.0,174.0,468.0,178.0,452.0,184.0,444.0,200.0,422.0,216.0,406.0,224.0" stroke="black" stroke-width="1" fill="none" />
<polyline points="418.0,196.0,434.0,198.0,444.0,184.0,470.0,186.0,486.0,176.0" stroke="black" stroke-width="1" fill="none" />
<polyline points="490.0,166.0,474.0,160.0,458.0,174.0,442.0,178.0,426.0,176.0,408.0,176.0,408.0,162.0,392.0,140.0,376.0,140.0,368.0,142.0,362.0,126.0,362.0,110.0,372.0,90.0,386.0,82.0,384.0,64.0,396.0,48.0,380.0,32.0,370.0,16.0,354.0,14.0,338.0,16.0,322.0,18.0,306.0,26.0,290.0,30.0,274.0,32.0" stroke="black" stroke-width="1" fill="none" />
<polyline points="298.0,20.0,314.0,14.0,310.0,22.0,292.0,38.0,280.0,54.0,264.0,70.0,264.0,86.0,262.0,102.0,258.0,118.0,254.0,134.0,256.0,140.0,254.0,150.0,262.0,162.0,264.0,178.0,264.0,194.0,276.0,200.0,284.0,212.0,292.0,228.0,298.0,230.0,306.0,246.0,314.0,250.0,330.0,250.0,336.0,246.0,356.0,252.0,372.0,252.0,388.0,250.0,414.0,240.0,438.0,226.0" stroke="black" stroke-width="1" fill="none" />
<polyline points="438.0,164.0,452.0,148.0,458.0,134.0,462.0,132.0,474.0,118.0,468.0,102.0,464.0,90.0,468.0,80.0,460.0,64.0,456.0,66.0,434.0,50.0,432.0,34.0,408.0,34.0" stroke="black" stroke-width="1" fill="none" />
<polyline points="418.0,32.0,426.0,48.0,426.0,50.0,428.0,66.0,440.0,74.0,454.0,76.0,450.0,78.0" stroke="black" stroke-width="1" fill="none" />
<polyline points="450.0,60.0,434.0,50.0" stroke="black" stroke-width="1" fill="none" />
<polyline points="426.0,86.0,430.0,102.0,438.0,104.0,418.0,118.0,408.0,134.0,394.0,142.0,396.0,158.0,398.0,174.0,400.0,174.0" stroke="black" stroke-width="1" fill="none" />
<polyline points="414.0,172.0,402.0,156.0" stroke="black" stroke-width="1" fill="none" />
<polyline points="406.0,140.0,380.0,134.0,364.0,128.0,368.0,126.0,384.0,124.0" stroke="black" stroke-width="1" fill="none" />
<polyline points="368.0,114.0,368.0,118.0,376.0,102.0,402.0,82.0" stroke="black" stroke-width="1" fill="none" />
<polyline points="420.0,78.0,414.0,88.0,402.0,100.0,382.0,104.0,364.0,98.0,364.0,102.0,366.0,86.0" stroke="black" stroke-width="1" fill="none" />
<polyline points="368.0,108.0,384.0,114.0" stroke="black" stroke-width="1" fill="none" />
<polyline points="426.0,118.0,426.0,134.0,414.0,146.0,420.0,162.0" stroke="black" stroke-width="1" fill="none" />
<polyline points="428.0,158.0,428.0,142.0" stroke="black" stroke-width="1" fill="none" />
<polyline points="430.0,120.0,440.0,136.0,440.0,152.0,454.0,146.0,470.0,138.0,490.0,136.0,506.0,114.0" stroke="black" stroke-width="1" fill="none" />
<polyline points="458.0,120.0,444.0,126.0,428.0,118.0" stroke="black" stroke-width="1" fill="none" />
<polyline points="478.0,122.0,498.0,116.0,506.0,100.0,506.0,84.0,500.0,76.0,484.0,74.0,474.0,96.0,466.0,110.0,454.0,116.0,438.0,102.0,428.0,114.0,412.0,122.0,410.0,112.0,404.0,116.0,406.0,110.0,398.0,94.0,410.0,78.0,408.0,64.0,408.0,48.0,410.0,32.0,396.0,24.0" stroke="black" stroke-width="1" fill="none" />
<polyline points="368.0,24.0,384.0,24.0,410.0,8.0,414.0,22.0,430.0,28.0,432.0,42.0,448.0,52.0,464.0,52.0,474.0,70.0,490.0,68.0,506.0,68.0" stroke="black" stroke-width="1" fill="none" />
<polyline points="484.0,152.0,464.0,150.0,456.0,166.0,450.0,160.0,450.0,168.0,434.0,168.0,418.0,174.0,412.0,156.0,404.0,140.0,398.0,118.0,388.0,102.0,392.0,80.0,400.0,64.0,400.0,44.0,380.0,26.0,372.0,18.0,356.0,20.0" stroke="black" stroke-width="1" fill="none" />
<polyline points="358.0,32.0,366.0,48.0,360.0,48.0,362.0,50.0,378.0,48.0" stroke="black" stroke-width="1" fill="none" />
<polyline points="390.0,40.0,388.0,34.0,396.0,30.0,396.0,14.0,368.0,12.0" stroke="black" stroke-width="1" fill="none" />
<polyline points="344.0,34.0,324.0,48.0,316.0,40.0,320.0,50.0,330.0,34.0" stroke="black" stroke-width="1" fill="none" />
<polyline points="312.0,32.0,316.0,40.0,290.0,60.0,278.0,76.0,274.0,92.0,272.0,108.0,268.0,124.0,272.0,140.0,274.0,150.0,274.0,166.0,290.0,176.0,294.0,192.0,312.0,214.0,334.0,230.0,344.0,232.0,360.0,228.0,376.0,228.0,398.0,214.0,406.0,224.0,422.0,210.0,430.0,210.0,446.0,198.0,462.0,182.0,478.0,190.0" stroke="black" stroke-width="1" fill="none" />
<polyline points="476.0,158.0,480.0,174.0,474.0,180.0,462.0,196.0,450.0,212.0,426.0,228.0,394.0,248.0" stroke="black" stroke-width="1" fill="none" />
<polyline points="398.0,228.0,398.0,222.0,384.0,230.0,370.0,234.0,354.0,234.0,336.0,224.0,320.0,222.0" stroke="black" stroke-width="1" fill="none" />
<polyline points="326.0,220.0,310.0,216.0,300.0,202.0,300.0,196.0,284.0,188.0" stroke="black" stroke-width="1" fill="none" />
<polyline points="264.0,190.0,280.0,200.0,286.0,212.0,302.0,222.0,306.0,232.0,320.0,244.0" stroke="black" stroke-width="1" fill="none" />
<polyline points="272.0,156.0,282.0,158.0,286.0,174.0,284.0,190.0,296.0,206.0,306.0,228.0,310.0,230.0,326.0,238.0,342.0,244.0,358.0,246.0,374.0,246.0,390.0,244.0,406.0,238.0,422.0,232.0,438.0,218.0,454.0,204.0,464.0,202.0,452.0,220.0,444.0,224.0" stroke="black" stroke-width="1" fill="none" />
<polyline points="306.0,48.0,286.0,44.0,270.0,68.0,264.0,86.0" stroke="black" stroke-width="1" fill="none" />
</svg>