<svg xmlns="http://www.w3.org/2000/svg" height="252px" width="508px" version="1.1"><polyline points="278.0,18.0,268.0,34.0,262.0,50.0,260.0,66.0,256.0,82.0,256.0,98.0,266.0,104.0,282.0,98.0,298.0,84.0,324.0,68.0,328.0,60.0,344.0,56.0,352.0,36.0,368.0,10.0,384.0,12.0,402.0,12.0,412.0,14.0,426.0,28.0,426.0,32.0,426.0,48.0,428.0,58.0" stroke="black" stroke-width="1" fill="none" />
<polyline points="414.0,60.0,398.0,62.0,382.0,60.0" stroke="black" stroke-width="1" fill="none" />
<polyline points="374.0,56.0,366.0,50.0,358.0,66.0,338.0,82.0,322.0,90.0,322.0,106.0,322.0,122.0,310.0,138.0,314.0,154.0,326.0,166.0,336.0,172.0,324.0,176.0,316.0,178.0" stroke="black" stroke-width="1" fill="none" />
<polyline points="310.0,142.0,326.0,156.0,342.0,156.0,358.0,148.0,378.0,158.0,382.0,174.0,390.0,182.0,382.0,198.0,384.0,214.0,382.0,230.0,364.0,240.0,360.0,242.0,376.0,236.0" stroke="black" stroke-width="1" fill="none" />
<polyline points="388.0,238.0,392.0,222.0,396.0,206.0,396.0,190.0,398.0,168.0,390.0,168.0,384.0,152.0,388.0,136.0,390.0,120.0,384.0,110.0" stroke="black" stroke-width="1" fill="none" />
<polyline points="396.0,118.0,412.0,112.0,428.0,112.0,444.0,112.0,460.0,114.0" stroke="black" stroke-width="1" fill="none" />
<polyline points="442.0,118.0,458.0,118.0,474.0,120.0,488.0,134.0" stroke="black" stroke-width="1" fill="none" />
<polyline points="494.0,120.0,508.0,94.0" stroke="black" stroke-width="1" fill="none" />
<polyline points="488.0,104.0,474.0,110.0,470.0,104.0,454.0,104.0,438.0,102.0,422.0,102.0,406.0,102.0,390.0,104.0,370.0,88.0,364.0,72.0,360.0,66.0,344.0,70.0" stroke="black" stroke-width="1" fill="none" />
<polyline points="346.0,86.0,362.0,78.0,366.0,88.0,346.0,102.0,362.0,102.0" stroke="black" stroke-width="1" fill="none" />
<polyline points="364.0,90.0,348.0,94.0" stroke="black" stroke-width="1" fill="none" />
<polyline points="346.0,112.0,330.0,112.0" stroke="black" stroke-width="1" fill="none" />
<polyline points="320.0,112.0,336.0,104.0,330.0,120.0,330.0,136.0" stroke="black" stroke-width="1" fill="none" />
<polyline points="338.0,130.0,346.0,128.0,356.0,120.0,344.0,102.0,354.0,94.0,346.0,94.0,350.0,78.0,340.0,80.0,324.0,88.0,322.0,96.0" stroke="black" stroke-width="1" fill="none" />
<polyline points="304.0,108.0,282.0,86.0,300.0,64.0,314.0,48.0,320.0,46.0,304.0,34.0,288.0,36.0" stroke="black" stroke-width="1" fill="none" />
<polyline points="278.0,34.0,272.0,50.0,268.0,66.0,268.0,82.0,264.0,88.0,280.0,92.0,282.0,86.0,298.0,74.0,306.0,56.0,320.0,52.0" stroke="black" stroke-width="1" fill="none" />
<polyline points="312.0,54.0,322.0,70.0,314.0,76.0,308.0,92.0,314.0,108.0,306.0,118.0,302.0,134.0,304.0,148.0,308.0,164.0,314.0,180.0" stroke="black" stroke-width="1" fill="none" />
<polyline points="394.0,194.0,410.0,202.0,412.0,218.0,404.0,236.0,406.0,232.0" stroke="black" stroke-width="1" fill="none" />
<polyline points="406.0,248.0,422.0,248.0" stroke="black" stroke-width="1" fill="none" />
<polyline points="418.0,198.0,434.0,194.0,450.0,190.0,464.0,178.0,484.0,184.0,496.0,196.0" stroke="black" stroke-width="1" fill="none" />
<polyline points="478.0,188.0,488.0,204.0,492.0,222.0,488.0,238.0" stroke="black" stroke-width="1" fill="none" />
<polyline points="506.0,228.0,502.0,212.0,498.0,200.0,492.0,184.0,492.0,174.0" stroke="black" stroke-width="1" fill="none" />
<polyline points="478.0,232.0,474.0,222.0,470.0,206.0,472.0,190.0,494.0,172.0,500.0,158.0,502.0,142.0,502.0,126.0,494.0,122.0,502.0,106.0,508.0,90.0,506.0,74.0,504.0,66.0,488.0,62.0,488.0,62.0,496.0,78.0,498.0,94.0,492.0,110.0,480.0,126.0,494.0,142.0,486.0,158.0,470.0,174.0,458.0,198.0,460.0,214.0,456.0,230.0,458.0,246.0,464.0,248.0,490.0,238.0,504.0,240.0" stroke="black" stroke-width="1" fill="none" />
<polyline points="426.0,242.0,426.0,232.0,420.0,228.0,420.0,212.0,420.0,196.0,426.0,196.0,400.0,188.0" stroke="black" stroke-width="1" fill="none" />
<polyline points="388.0,156.0,396.0,130.0,398.0,114.0,382.0,92.0,382.0,76.0,382.0,60.0,364.0,62.0" stroke="black" stroke-width="1" fill="none" />
<polyline points="360.0,56.0,376.0,44.0,392.0,52.0,408.0,52.0" stroke="black" stroke-width="1" fill="none" />
<polyline points="414.0,32.0,398.0,26.0,404.0,22.0,384.0,16.0,368.0,16.0" stroke="black" stroke-width="1" fill="none" />
<polyline points="364.0,2.0,380.0,4.0,396.0,2.0,418.0,24.0,412.0,36.0,406.0,52.0,410.0,68.0" stroke="black" stroke-width="1" fill="none" />
<polyline points="354.0,10.0,352.0,0.0,352.0,16.0,358.0,24.0,350.0,40.0,344.0,56.0,364.0,62.0,376.0,78.0,374.0,94.0,360.0,108.0,364.0,124.0,336.0,128.0,352.0,122.0,362.0,116.0,382.0,120.0,380.0,120.0,374.0,136.0,354.0,152.0,342.0,176.0,326.0,188.0,342.0,174.0,348.0,164.0,360.0,164.0,376.0,156.0,398.0,166.0,414.0,182.0,430.0,182.0,446.0,182.0,462.0,172.0,478.0,168.0,502.0,148.0" stroke="black" stroke-width="1" fill="none" />
<polyline points="378.0,252.0,362.0,248.0" stroke="black" stroke-width="1" fill="none" />
<polyline points="364.0,124.0,348.0,138.0,332.0,138.0,302.0,122.0,302.0,106.0,302.0,90.0,306.0,78.0" stroke="black" stroke-width="1" fill="none" />
<polyline points="270.0,52.0,286.0,28.0,302.0,28.0" stroke="black" stroke-width="1" fill="none" />
<polyline points="326.0,36.0,310.0,24.0,294.0,20.0,278.0,18.0,262.0,36.0" stroke="black" stroke-width="1" fill="none" />
<polyline points="342.0,42.0,344.0,26.0,344.0,18.0" stroke="black" stroke-width="1" fill="none" />
</svg>