<svg xmlns="http://www.w3.org/2000/svg" height="484px" width="484px" version="1.1"><polyline points="28.0,26.0,26.0,42.0,26.0,58.0,26.0,74.0,26.0,90.0,26.0,106.0,26.0,122.0,26.0,138.0,26.0,154.0,26.0,170.0,26.0,186.0,26.0,202.0,26.0,218.0,32.0,222.0,48.0,224.0,64.0,224.0,80.0,224.0,96.0,224.0,112.0,224.0,128.0,224.0,144.0,224.0,160.0,224.0,176.0,224.0,192.0,224.0,208.0,224.0" stroke="black" stroke-width="1" fill="none" />
<polyline points="282.0,284.0,298.0,282.0,314.0,282.0,330.0,282.0,346.0,282.0,362.0,282.0,378.0,282.0,394.0,282.0,410.0,282.0,426.0,282.0,442.0,282.0,458.0,282.0,474.0,282.0,478.0,288.0,480.0,304.0,480.0,320.0,480.0,336.0,480.0,352.0,480.0,368.0,480.0,384.0,480.0,400.0,480.0,416.0,480.0,432.0,480.0,448.0,480.0,464.0" stroke="black" stroke-width="1" fill="none" />
<polyline points="484.0,476.0,484.0,460.0,484.0,444.0,484.0,428.0,484.0,412.0,484.0,396.0,484.0,380.0,484.0,364.0,484.0,348.0,484.0,332.0,484.0,316.0,484.0,300.0,478.0,286.0,462.0,286.0,446.0,286.0,430.0,286.0,414.0,286.0,398.0,286.0,382.0,286.0,366.0,286.0,350.0,286.0,334.0,286.0,318.0,286.0,302.0,286.0,286.0,288.0,288.0,286.0,286.0,302.0,286.0,318.0,286.0,334.0,286.0,350.0,286.0,366.0,286.0,382.0,286.0,398.0,286.0,414.0,286.0,430.0,286.0,446.0,286.0,462.0,286.0,478.0,300.0,484.0,316.0,484.0,332.0,484.0,348.0,484.0,364.0,484.0,380.0,484.0,396.0,484.0,412.0,484.0,428.0,484.0,444.0,484.0,460.0,484.0,476.0,484.0" stroke="black" stroke-width="1" fill="none" />
<polyline points="484.0,220.0,484.0,204.0,484.0,188.0,484.0,172.0,484.0,156.0,484.0,140.0,484.0,124.0,484.0,108.0,484.0,92.0,484.0,76.0,484.0,60.0,484.0,44.0,478.0,30.0,462.0,30.0,446.0,30.0,430.0,30.0,414.0,30.0,398.0,30.0,382.0,30.0,366.0,30.0,350.0,30.0,334.0,30.0,318.0,30.0,302.0,30.0,286.0,32.0,288.0,30.0,286.0,46.0,286.0,62.0,286.0,78.0,286.0,94.0,286.0,110.0,286.0,126.0,286.0,142.0,286.0,158.0,286.0,174.0,286.0,190.0,286.0,206.0,286.0,222.0,300.0,228.0,316.0,228.0,332.0,228.0,348.0,228.0,364.0,228.0,380.0,228.0,396.0,228.0,412.0,228.0,428.0,228.0,444.0,228.0,460.0,228.0,476.0,228.0" stroke="black" stroke-width="1" fill="none" />
<polyline points="460.0,136.0,444.0,126.0,428.0,96.0" stroke="black" stroke-width="1" fill="none" />
<polyline points="426.0,116.0,430.0,116.0,434.0,132.0" stroke="black" stroke-width="1" fill="none" />
<polyline points="470.0,146.0,468.0,132.0,468.0,116.0,466.0,100.0,460.0,84.0,462.0,68.0,460.0,56.0,454.0,66.0,458.0,64.0,460.0,48.0,452.0,46.0,436.0,48.0,420.0,70.0" stroke="black" stroke-width="1" fill="none" />
<polyline points="426.0,68.0,442.0,56.0,458.0,62.0" stroke="black" stroke-width="1" fill="none" />
<polyline points="438.0,56.0,450.0,72.0,456.0,88.0,460.0,104.0,462.0,120.0,460.0,136.0,454.0,148.0" stroke="black" stroke-width="1" fill="none" />
<polyline points="414.0,188.0,402.0,172.0,388.0,154.0,372.0,152.0,356.0,148.0,340.0,152.0,324.0,148.0" stroke="black" stroke-width="1" fill="none" />
<polyline points="300.0,152.0,312.0,160.0,322.0,172.0,342.0,160.0,358.0,158.0,374.0,160.0,394.0,162.0,414.0,140.0" stroke="black" stroke-width="1" fill="none" />
<polyline points="428.0,154.0,422.0,138.0,422.0,122.0,400.0,100.0,384.0,94.0,368.0,100.0,352.0,104.0,336.0,110.0,320.0,114.0,304.0,126.0" stroke="black" stroke-width="1" fill="none" />
<polyline points="298.0,72.0,302.0,64.0,298.0,80.0,296.0,96.0,300.0,112.0,298.0,128.0,298.0,144.0,302.0,160.0,308.0,176.0,310.0,192.0,322.0,198.0,326.0,206.0,330.0,190.0" stroke="black" stroke-width="1" fill="none" />
<polyline points="338.0,206.0,328.0,190.0,328.0,174.0,348.0,158.0" stroke="black" stroke-width="1" fill="none" />
<polyline points="378.0,162.0,382.0,178.0,388.0,194.0" stroke="black" stroke-width="1" fill="none" />
<polyline points="480.0,208.0,480.0,192.0,480.0,176.0,480.0,160.0,480.0,144.0,480.0,128.0,480.0,112.0,480.0,96.0,480.0,80.0,480.0,64.0,480.0,48.0,478.0,32.0,474.0,26.0,458.0,26.0,442.0,26.0,426.0,26.0,410.0,26.0,394.0,26.0,378.0,26.0,362.0,26.0,346.0,26.0,330.0,26.0,314.0,26.0,298.0,26.0,282.0,28.0,284.0,26.0,282.0,42.0,282.0,58.0,282.0,74.0,282.0,90.0,282.0,106.0,282.0,122.0,282.0,138.0,282.0,154.0,282.0,170.0,282.0,186.0,282.0,202.0,282.0,218.0,288.0,222.0,304.0,224.0,320.0,224.0,336.0,224.0,352.0,224.0,368.0,224.0,384.0,224.0,400.0,224.0,416.0,224.0,432.0,224.0,448.0,224.0,464.0,224.0" stroke="black" stroke-width="1" fill="none" />
<polyline points="394.0,192.0,388.0,176.0,394.0,152.0,402.0,144.0,412.0,128.0,408.0,112.0,390.0,96.0" stroke="black" stroke-width="1" fill="none" />
<polyline points="390.0,88.0,410.0,104.0,426.0,124.0,428.0,140.0" stroke="black" stroke-width="1" fill="none" />
<polyline points="412.0,104.0,396.0,88.0,380.0,88.0,364.0,92.0,348.0,98.0,332.0,102.0,316.0,108.0,324.0,104.0,374.0,88.0" stroke="black" stroke-width="1" fill="none" />
<polyline points="434.0,54.0,426.0,70.0,426.0,86.0,430.0,102.0,436.0,118.0,442.0,134.0,438.0,150.0,436.0,152.0,452.0,146.0" stroke="black" stroke-width="1" fill="none" />
<polyline points="412.0,200.0,404.0,204.0,400.0,188.0,398.0,172.0,404.0,156.0,414.0,140.0,416.0,124.0,424.0,108.0,422.0,96.0,420.0,80.0,422.0,64.0,432.0,48.0" stroke="black" stroke-width="1" fill="none" />
<polyline points="308.0,62.0,302.0,78.0,302.0,94.0,314.0,114.0,304.0,130.0,304.0,146.0,314.0,170.0,318.0,186.0,312.0,196.0" stroke="black" stroke-width="1" fill="none" />
<polyline points="228.0,220.0,228.0,204.0,228.0,188.0,228.0,172.0,228.0,156.0,228.0,140.0,228.0,124.0,228.0,108.0,228.0,92.0,228.0,76.0,228.0,60.0,228.0,44.0,222.0,30.0,206.0,30.0,190.0,30.0,174.0,30.0,158.0,30.0,142.0,30.0,126.0,30.0,110.0,30.0,94.0,30.0,78.0,30.0,62.0,30.0,46.0,30.0,30.0,32.0,32.0,30.0,30.0,46.0,30.0,62.0,30.0,78.0,30.0,94.0,30.0,110.0,30.0,126.0,30.0,142.0,30.0,158.0,30.0,174.0,30.0,190.0,30.0,206.0,30.0,222.0,44.0,228.0,60.0,228.0,76.0,228.0,92.0,228.0,108.0,228.0,124.0,228.0,140.0,228.0,156.0,228.0,172.0,228.0,188.0,228.0,204.0,228.0,220.0,228.0" stroke="black" stroke-width="1" fill="none" />
<polyline points="224.0,208.0,224.0,192.0,224.0,176.0,224.0,160.0,224.0,144.0,224.0,128.0,224.0,112.0,224.0,96.0,224.0,80.0,224.0,64.0,224.0,48.0,222.0,32.0,218.0,26.0,202.0,26.0,186.0,26.0,170.0,26.0,154.0,26.0,138.0,26.0,122.0,26.0,106.0,26.0,90.0,26.0,74.0,26.0,58.0,26.0,42.0,26.0,26.0,28.0" stroke="black" stroke-width="1" fill="none" />
<polyline points="28.0,282.0,26.0,298.0,26.0,314.0,26.0,330.0,26.0,346.0,26.0,362.0,26.0,378.0,26.0,394.0,26.0,410.0,26.0,426.0,26.0,442.0,26.0,458.0,26.0,474.0,32.0,478.0,48.0,480.0,64.0,480.0,80.0,480.0,96.0,480.0,112.0,480.0,128.0,480.0,144.0,480.0,160.0,480.0,176.0,480.0,192.0,480.0,208.0,480.0" stroke="black" stroke-width="1" fill="none" />
<polyline points="228.0,476.0,228.0,460.0,228.0,444.0,228.0,428.0,228.0,412.0,228.0,396.0,228.0,380.0,228.0,364.0,228.0,348.0,228.0,332.0,228.0,316.0,228.0,300.0,222.0,286.0,206.0,286.0,190.0,286.0,174.0,286.0,158.0,286.0,142.0,286.0,126.0,286.0,110.0,286.0,94.0,286.0,78.0,286.0,62.0,286.0,46.0,286.0,30.0,288.0,32.0,286.0,30.0,302.0,30.0,318.0,30.0,334.0,30.0,350.0,30.0,366.0,30.0,382.0,30.0,398.0,30.0,414.0,30.0,430.0,30.0,446.0,30.0,462.0,30.0,478.0,44.0,484.0,60.0,484.0,76.0,484.0,92.0,484.0,108.0,484.0,124.0,484.0,140.0,484.0,156.0,484.0,172.0,484.0,188.0,484.0,204.0,484.0,220.0,484.0" stroke="black" stroke-width="1" fill="none" />
<polyline points="224.0,464.0,224.0,448.0,224.0,432.0,224.0,416.0,224.0,400.0,224.0,384.0,224.0,368.0,224.0,352.0,224.0,336.0,224.0,320.0,224.0,304.0,222.0,288.0,218.0,282.0,202.0,282.0,186.0,282.0,170.0,282.0,154.0,282.0,138.0,282.0,122.0,282.0,106.0,282.0,90.0,282.0,74.0,282.0,58.0,282.0,42.0,282.0,26.0,284.0" stroke="black" stroke-width="1" fill="none" />
<polyline points="284.0,282.0,282.0,298.0,282.0,314.0,282.0,330.0,282.0,346.0,282.0,362.0,282.0,378.0,282.0,394.0,282.0,410.0,282.0,426.0,282.0,442.0,282.0,458.0,282.0,474.0,288.0,478.0,304.0,480.0,320.0,480.0,336.0,480.0,352.0,480.0,368.0,480.0,384.0,480.0,400.0,480.0,416.0,480.0,432.0,480.0,448.0,480.0,464.0,480.0" stroke="black" stroke-width="1" fill="none" />
</svg>