<svg xmlns="http://www.w3.org/2000/svg" height="254px" width="508px" version="1.1"><polyline points="286.0,0.0,272.0,16.0,260.0,32.0,262.0,38.0,258.0,54.0,258.0,70.0,260.0,80.0,276.0,78.0,278.0,68.0,298.0,50.0,308.0,48.0,310.0,32.0,334.0,20.0,350.0,22.0,368.0,18.0,384.0,14.0,400.0,16.0" stroke="black" stroke-width="1" fill="none" />
<polyline points="406.0,8.0,416.0,24.0,422.0,40.0,422.0,56.0,406.0,78.0,412.0,72.0,428.0,68.0,444.0,66.0,460.0,72.0,470.0,78.0,486.0,80.0,490.0,82.0" stroke="black" stroke-width="1" fill="none" />
<polyline points="504.0,84.0,478.0,78.0,492.0,76.0,500.0,60.0,502.0,44.0,498.0,28.0,498.0,24.0" stroke="black" stroke-width="1" fill="none" />
<polyline points="506.0,28.0,508.0,42.0,506.0,58.0,504.0,74.0,496.0,90.0,490.0,104.0,490.0,120.0,490.0,136.0,484.0,152.0,474.0,168.0,462.0,184.0,462.0,200.0,462.0,216.0,452.0,240.0,458.0,228.0,464.0,234.0" stroke="black" stroke-width="1" fill="none" />
<polyline points="468.0,242.0,452.0,254.0,446.0,226.0,430.0,218.0,426.0,214.0,422.0,226.0,414.0,216.0,434.0,208.0,428.0,200.0,424.0,220.0,444.0,216.0,444.0,200.0,444.0,184.0,460.0,158.0,460.0,142.0,460.0,136.0" stroke="black" stroke-width="1" fill="none" />
<polyline points="444.0,182.0,468.0,184.0,468.0,200.0,470.0,216.0,474.0,232.0,468.0,246.0" stroke="black" stroke-width="1" fill="none" />
<polyline points="444.0,240.0,444.0,224.0" stroke="black" stroke-width="1" fill="none" />
<polyline points="456.0,168.0,440.0,172.0,424.0,174.0,408.0,176.0,392.0,172.0" stroke="black" stroke-width="1" fill="none" />
<polyline points="366.0,186.0,382.0,186.0,402.0,184.0,418.0,186.0,434.0,184.0,434.0,178.0,454.0,164.0" stroke="black" stroke-width="1" fill="none" />
<polyline points="480.0,104.0,466.0,88.0,450.0,78.0,434.0,76.0,418.0,80.0,400.0,90.0,390.0,82.0,384.0,66.0,374.0,50.0,368.0,34.0,368.0,22.0" stroke="black" stroke-width="1" fill="none" />
<polyline points="368.0,28.0,384.0,36.0,380.0,42.0,376.0,44.0,376.0,52.0,392.0,74.0" stroke="black" stroke-width="1" fill="none" />
<polyline points="404.0,52.0,388.0,32.0" stroke="black" stroke-width="1" fill="none" />
<polyline points="378.0,20.0,396.0,14.0,398.0,30.0,410.0,34.0,410.0,50.0" stroke="black" stroke-width="1" fill="none" />
<polyline points="420.0,26.0,404.0,6.0,388.0,2.0,370.0,6.0,354.0,14.0,352.0,4.0,336.0,10.0,320.0,16.0,304.0,6.0,288.0,2.0,272.0,16.0,256.0,36.0" stroke="black" stroke-width="1" fill="none" />
<polyline points="268.0,42.0,284.0,14.0,300.0,12.0,314.0,16.0,304.0,32.0,300.0,48.0,288.0,64.0,294.0,72.0,292.0,88.0,288.0,100.0,288.0,116.0,286.0,132.0,296.0,136.0,294.0,142.0" stroke="black" stroke-width="1" fill="none" />
<polyline points="302.0,126.0,318.0,126.0,330.0,112.0,328.0,112.0,332.0,128.0" stroke="black" stroke-width="1" fill="none" />
<polyline points="332.0,98.0,348.0,92.0,346.0,94.0,352.0,110.0,358.0,106.0" stroke="black" stroke-width="1" fill="none" />
<polyline points="366.0,88.0,356.0,78.0,340.0,86.0,324.0,90.0" stroke="black" stroke-width="1" fill="none" />
<polyline points="338.0,96.0,344.0,112.0,348.0,108.0" stroke="black" stroke-width="1" fill="none" />
<polyline points="376.0,116.0,378.0,124.0,386.0,142.0,388.0,156.0,390.0,172.0,388.0,190.0,390.0,206.0,390.0,222.0,392.0,238.0" stroke="black" stroke-width="1" fill="none" />
<polyline points="340.0,216.0,324.0,220.0" stroke="black" stroke-width="1" fill="none" />
<polyline points="332.0,214.0,324.0,230.0,330.0,230.0,346.0,236.0" stroke="black" stroke-width="1" fill="none" />
<polyline points="372.0,164.0,356.0,154.0" stroke="black" stroke-width="1" fill="none" />
<polyline points="364.0,158.0,366.0,174.0,366.0,190.0,364.0,206.0,362.0,222.0,334.0,224.0,334.0,224.0,350.0,224.0,354.0,214.0" stroke="black" stroke-width="1" fill="none" />
<polyline points="392.0,124.0,378.0,128.0,362.0,138.0,346.0,142.0,338.0,126.0,354.0,122.0,378.0,112.0,368.0,96.0,352.0,76.0,346.0,76.0,342.0,60.0,340.0,62.0,324.0,62.0,328.0,60.0,326.0,76.0,324.0,102.0,316.0,118.0,322.0,128.0,324.0,140.0,330.0,134.0,340.0,134.0,356.0,132.0,372.0,124.0" stroke="black" stroke-width="1" fill="none" />
<polyline points="342.0,72.0,326.0,74.0" stroke="black" stroke-width="1" fill="none" />
<polyline points="302.0,60.0,310.0,44.0" stroke="black" stroke-width="1" fill="none" />
<polyline points="296.0,32.0,288.0,48.0,284.0,76.0,288.0,78.0,304.0,78.0" stroke="black" stroke-width="1" fill="none" />
<polyline points="290.0,122.0,306.0,144.0,324.0,150.0,340.0,152.0,354.0,148.0,370.0,144.0" stroke="black" stroke-width="1" fill="none" />
<polyline points="382.0,226.0,366.0,226.0,382.0,236.0,382.0,214.0,382.0,198.0,380.0,182.0,378.0,154.0,378.0,140.0,392.0,124.0,398.0,108.0,398.0,92.0,424.0,76.0" stroke="black" stroke-width="1" fill="none" />
<polyline points="450.0,78.0,468.0,94.0,476.0,110.0" stroke="black" stroke-width="1" fill="none" />
<polyline points="464.0,70.0,476.0,86.0,482.0,112.0,482.0,128.0,472.0,144.0,466.0,140.0,476.0,144.0,470.0,160.0,482.0,154.0" stroke="black" stroke-width="1" fill="none" />
<polyline points="374.0,106.0,366.0,116.0,362.0,124.0,386.0,120.0,388.0,104.0,378.0,88.0,372.0,80.0,370.0,64.0,362.0,48.0,360.0,32.0" stroke="black" stroke-width="1" fill="none" />
<polyline points="334.0,20.0,324.0,36.0,318.0,36.0,316.0,52.0,308.0,68.0,300.0,86.0,294.0,102.0,298.0,118.0,308.0,134.0,346.0,158.0,354.0,174.0,360.0,178.0,356.0,188.0,358.0,198.0,358.0,210.0,370.0,230.0,366.0,246.0,374.0,248.0,376.0,242.0,388.0,244.0" stroke="black" stroke-width="1" fill="none" />
<polyline points="410.0,60.0,408.0,66.0,396.0,82.0,400.0,66.0,400.0,50.0,390.0,34.0,368.0,18.0,390.0,12.0" stroke="black" stroke-width="1" fill="none" />
<polyline points="310.0,20.0,294.0,34.0,278.0,60.0,266.0,68.0,266.0,52.0,270.0,36.0,286.0,18.0,302.0,18.0,294.0,24.0" stroke="black" stroke-width="1" fill="none" />
</svg>