<svg xmlns="http://www.w3.org/2000/svg" height="250px" width="506px" version="1.1"><polyline points="278.0,44.0,280.0,60.0,286.0,76.0,296.0,88.0,274.0,112.0,272.0,126.0" stroke="black" stroke-width="1" fill="none" />
<polyline points="264.0,112.0,280.0,110.0" stroke="black" stroke-width="1" fill="none" />
<polyline points="260.0,108.0,276.0,104.0,292.0,110.0,304.0,86.0,326.0,84.0,334.0,76.0,354.0,86.0,374.0,70.0,378.0,76.0,396.0,74.0" stroke="black" stroke-width="1" fill="none" />
<polyline points="362.0,50.0,376.0,44.0,372.0,60.0,362.0,76.0,356.0,114.0,350.0,130.0,344.0,138.0" stroke="black" stroke-width="1" fill="none" />
<polyline points="372.0,126.0,388.0,106.0,404.0,102.0,420.0,102.0,436.0,102.0,452.0,106.0,468.0,106.0,484.0,112.0,474.0,128.0" stroke="black" stroke-width="1" fill="none" />
<polyline points="476.0,136.0,472.0,136.0,466.0,154.0,468.0,170.0,470.0,186.0,472.0,202.0,472.0,218.0,448.0,238.0,446.0,244.0,452.0,236.0,468.0,236.0" stroke="black" stroke-width="1" fill="none" />
<polyline points="502.0,236.0,498.0,226.0,492.0,222.0,476.0,226.0,482.0,230.0,478.0,210.0,486.0,206.0,484.0,190.0,484.0,174.0,482.0,158.0,484.0,142.0,496.0,126.0,494.0,110.0,484.0,88.0,490.0,76.0,496.0,60.0,494.0,44.0,496.0,32.0,478.0,16.0,458.0,6.0,442.0,2.0" stroke="black" stroke-width="1" fill="none" />
<polyline points="436.0,2.0,452.0,14.0,468.0,20.0,484.0,30.0" stroke="black" stroke-width="1" fill="none" />
<polyline points="488.0,42.0,482.0,34.0,470.0,28.0" stroke="black" stroke-width="1" fill="none" />
<polyline points="478.0,14.0,494.0,26.0,504.0,26.0" stroke="black" stroke-width="1" fill="none" />
<polyline points="470.0,8.0,486.0,10.0,504.0,26.0,504.0,42.0,506.0,58.0,504.0,74.0,500.0,90.0,486.0,106.0,502.0,120.0,498.0,138.0" stroke="black" stroke-width="1" fill="none" />
<polyline points="506.0,112.0,494.0,130.0,474.0,152.0,464.0,140.0,448.0,146.0,444.0,160.0,428.0,160.0,406.0,160.0,384.0,152.0,368.0,142.0,350.0,126.0,342.0,130.0,324.0,128.0,304.0,118.0,300.0,108.0,296.0,104.0,304.0,88.0,298.0,80.0,298.0,62.0,302.0,46.0,294.0,32.0,278.0,34.0,262.0,32.0" stroke="black" stroke-width="1" fill="none" />
<polyline points="266.0,38.0,268.0,46.0,270.0,54.0,274.0,72.0,274.0,88.0,260.0,98.0,264.0,114.0,266.0,128.0,280.0,116.0,296.0,116.0,312.0,120.0,328.0,120.0,344.0,114.0,360.0,112.0,376.0,92.0,390.0,86.0,392.0,96.0,408.0,92.0,420.0,92.0,436.0,90.0,448.0,94.0,464.0,96.0,480.0,96.0,484.0,74.0" stroke="black" stroke-width="1" fill="none" />
<polyline points="454.0,140.0,438.0,146.0,422.0,150.0,406.0,150.0,388.0,160.0,370.0,160.0,360.0,148.0,350.0,152.0,334.0,144.0,344.0,140.0,344.0,124.0,352.0,104.0,362.0,88.0,378.0,78.0,384.0,62.0,388.0,46.0,374.0,42.0,358.0,46.0,342.0,54.0,326.0,54.0,310.0,56.0,294.0,48.0,278.0,44.0" stroke="black" stroke-width="1" fill="none" />
<polyline points="264.0,56.0,282.0,60.0,298.0,56.0" stroke="black" stroke-width="1" fill="none" />
<polyline points="298.0,40.0,314.0,46.0,330.0,46.0,346.0,44.0,356.0,38.0" stroke="black" stroke-width="1" fill="none" />
<polyline points="356.0,32.0,372.0,32.0,388.0,32.0" stroke="black" stroke-width="1" fill="none" />
<polyline points="366.0,64.0,356.0,64.0,344.0,62.0,320.0,62.0,300.0,78.0,294.0,92.0,272.0,94.0,256.0,102.0" stroke="black" stroke-width="1" fill="none" />
<polyline points="310.0,110.0,310.0,98.0,322.0,94.0,320.0,104.0,334.0,130.0,332.0,146.0,354.0,156.0" stroke="black" stroke-width="1" fill="none" />
<polyline points="376.0,136.0,392.0,146.0" stroke="black" stroke-width="1" fill="none" />
<polyline points="394.0,162.0,396.0,178.0,398.0,194.0,390.0,210.0,378.0,222.0,370.0,226.0,384.0,238.0,384.0,246.0,400.0,246.0,422.0,242.0" stroke="black" stroke-width="1" fill="none" />
<polyline points="424.0,224.0,440.0,236.0" stroke="black" stroke-width="1" fill="none" />
<polyline points="390.0,210.0,396.0,218.0,396.0,216.0,380.0,222.0" stroke="black" stroke-width="1" fill="none" />
<polyline points="366.0,158.0,366.0,142.0,372.0,126.0,388.0,110.0,368.0,116.0" stroke="black" stroke-width="1" fill="none" />
<polyline points="376.0,102.0,352.0,104.0,336.0,112.0,320.0,110.0" stroke="black" stroke-width="1" fill="none" />
<polyline points="320.0,92.0,336.0,94.0" stroke="black" stroke-width="1" fill="none" />
<polyline points="354.0,60.0,358.0,76.0,344.0,86.0,338.0,88.0,340.0,104.0,356.0,94.0,382.0,100.0" stroke="black" stroke-width="1" fill="none" />
<polyline points="404.0,158.0,406.0,174.0,406.0,190.0,406.0,206.0,406.0,222.0,390.0,226.0,376.0,236.0,390.0,244.0,410.0,238.0,426.0,250.0" stroke="black" stroke-width="1" fill="none" />
<polyline points="494.0,194.0,488.0,178.0" stroke="black" stroke-width="1" fill="none" />
<polyline points="472.0,150.0,474.0,166.0,476.0,182.0,486.0,204.0,500.0,204.0,506.0,218.0" stroke="black" stroke-width="1" fill="none" />
<polyline points="462.0,228.0,438.0,226.0,458.0,210.0,460.0,194.0,458.0,178.0,454.0,162.0" stroke="black" stroke-width="1" fill="none" />
<polyline points="422.0,160.0,422.0,176.0,422.0,192.0,422.0,208.0,424.0,224.0,440.0,240.0,450.0,214.0" stroke="black" stroke-width="1" fill="none" />
<polyline points="412.0,242.0,414.0,226.0,414.0,210.0,414.0,194.0,414.0,178.0,412.0,162.0" stroke="black" stroke-width="1" fill="none" />
</svg>