<svg xmlns="http://www.w3.org/2000/svg" height="254px" width="458px" version="1.1"><polyline points="354.0,0.0,350.0,16.0,346.0,32.0,346.0,48.0,348.0,60.0,360.0,60.0,352.0,76.0,348.0,88.0,352.0,98.0,356.0,110.0,354.0,122.0,358.0,130.0,350.0,146.0,360.0,160.0,362.0,176.0,380.0,184.0,376.0,200.0,378.0,216.0,376.0,232.0,378.0,248.0,384.0,254.0,400.0,254.0,416.0,254.0,432.0,254.0" stroke="black" stroke-width="1" fill="none" />
<polyline points="424.0,224.0,420.0,226.0,408.0,220.0,406.0,192.0,398.0,176.0,416.0,160.0,424.0,162.0,408.0,170.0" stroke="black" stroke-width="1" fill="none" />
<polyline points="414.0,166.0,408.0,182.0,416.0,196.0,432.0,192.0" stroke="black" stroke-width="1" fill="none" />
<polyline points="440.0,188.0,430.0,174.0,436.0,158.0,422.0,148.0" stroke="black" stroke-width="1" fill="none" />
<polyline points="398.0,174.0,414.0,162.0,430.0,156.0,446.0,164.0,446.0,176.0,442.0,178.0,438.0,182.0,422.0,186.0,416.0,192.0,400.0,184.0" stroke="black" stroke-width="1" fill="none" />
<polyline points="388.0,184.0,404.0,198.0,404.0,216.0,408.0,232.0,436.0,248.0" stroke="black" stroke-width="1" fill="none" />
<polyline points="444.0,206.0,430.0,204.0,414.0,208.0,398.0,206.0" stroke="black" stroke-width="1" fill="none" />
<polyline points="398.0,212.0,394.0,192.0,390.0,196.0" stroke="black" stroke-width="1" fill="none" />
<polyline points="380.0,190.0,384.0,206.0,386.0,222.0,388.0,230.0" stroke="black" stroke-width="1" fill="none" />
<polyline points="444.0,198.0,434.0,196.0,444.0,198.0,456.0,194.0,458.0,178.0,458.0,162.0,454.0,146.0,438.0,138.0,422.0,144.0,416.0,148.0,410.0,146.0,398.0,152.0,422.0,144.0,426.0,140.0,422.0,126.0,426.0,110.0,436.0,90.0,446.0,74.0,444.0,72.0,428.0,74.0,408.0,66.0,412.0,50.0,418.0,70.0,426.0,54.0,424.0,38.0,440.0,36.0,424.0,32.0,408.0,32.0,392.0,40.0" stroke="black" stroke-width="1" fill="none" />
<polyline points="404.0,38.0,420.0,38.0" stroke="black" stroke-width="1" fill="none" />
<polyline points="406.0,30.0,394.0,46.0,390.0,60.0,400.0,60.0,404.0,48.0,420.0,42.0,430.0,44.0,436.0,44.0" stroke="black" stroke-width="1" fill="none" />
<polyline points="448.0,98.0,432.0,100.0" stroke="black" stroke-width="1" fill="none" />
<polyline points="426.0,88.0,416.0,84.0,400.0,90.0,386.0,82.0,384.0,72.0,368.0,72.0" stroke="black" stroke-width="1" fill="none" />
<polyline points="366.0,66.0,382.0,68.0,398.0,72.0,414.0,74.0,430.0,62.0,418.0,82.0,408.0,98.0,400.0,98.0,394.0,114.0,390.0,130.0,374.0,146.0,372.0,136.0,388.0,134.0,398.0,100.0" stroke="black" stroke-width="1" fill="none" />
<polyline points="376.0,58.0,360.0,52.0" stroke="black" stroke-width="1" fill="none" />
<polyline points="354.0,60.0,366.0,68.0,364.0,84.0,366.0,100.0,366.0,116.0,370.0,132.0,384.0,148.0,370.0,162.0,370.0,176.0" stroke="black" stroke-width="1" fill="none" />
<polyline points="378.0,150.0,376.0,124.0,374.0,108.0,374.0,92.0,352.0,70.0" stroke="black" stroke-width="1" fill="none" />
<polyline points="352.0,38.0,368.0,48.0,384.0,52.0" stroke="black" stroke-width="1" fill="none" />
<polyline points="356.0,20.0,358.0,4.0" stroke="black" stroke-width="1" fill="none" />
<polyline points="344.0,8.0,332.0,10.0,316.0,8.0" stroke="black" stroke-width="1" fill="none" />
<polyline points="308.0,2.0,308.0,4.0,308.0,20.0,308.0,36.0,324.0,26.0,324.0,30.0,330.0,34.0,332.0,50.0,332.0,66.0,332.0,82.0,340.0,98.0,342.0,114.0,358.0,138.0,364.0,140.0,380.0,158.0,380.0,170.0,388.0,194.0,390.0,210.0,394.0,226.0,388.0,242.0,396.0,234.0,412.0,236.0,424.0,230.0,426.0,232.0,422.0,248.0" stroke="black" stroke-width="1" fill="none" />
<polyline points="362.0,150.0,346.0,156.0" stroke="black" stroke-width="1" fill="none" />
<polyline points="348.0,136.0,346.0,114.0" stroke="black" stroke-width="1" fill="none" />
<polyline points="414.0,130.0,410.0,114.0,412.0,124.0,386.0,160.0,396.0,144.0,398.0,128.0,410.0,128.0,418.0,112.0,438.0,102.0,454.0,92.0,458.0,76.0,448.0,84.0,430.0,100.0,410.0,112.0,398.0,138.0,382.0,154.0,366.0,142.0,354.0,104.0,340.0,86.0,344.0,76.0,336.0,64.0,338.0,48.0,336.0,32.0,326.0,22.0,310.0,18.0" stroke="black" stroke-width="1" fill="none" />
</svg>