<svg xmlns="http://www.w3.org/2000/svg" height="254px" width="466px" version="1.1"><polyline points="392.0,2.0,386.0,8.0,374.0,16.0,376.0,32.0,376.0,42.0,376.0,58.0,406.0,70.0,402.0,82.0,416.0,90.0,432.0,94.0,410.0,104.0,404.0,106.0,412.0,124.0,396.0,128.0,420.0,144.0,434.0,142.0,450.0,160.0,462.0,160.0,466.0,176.0,454.0,182.0,448.0,196.0,434.0,212.0,446.0,218.0,450.0,230.0" stroke="black" stroke-width="1" fill="none" />
<polyline points="436.0,242.0,424.0,234.0,416.0,220.0,424.0,212.0,436.0,198.0,438.0,176.0,428.0,162.0,426.0,168.0" stroke="black" stroke-width="1" fill="none" />
<polyline points="436.0,170.0,424.0,196.0,406.0,208.0,402.0,226.0" stroke="black" stroke-width="1" fill="none" />
<polyline points="408.0,232.0,424.0,232.0,440.0,236.0" stroke="black" stroke-width="1" fill="none" />
<polyline points="454.0,230.0,456.0,228.0,456.0,218.0,440.0,222.0,424.0,220.0" stroke="black" stroke-width="1" fill="none" />
<polyline points="424.0,208.0,444.0,202.0,448.0,202.0,460.0,196.0" stroke="black" stroke-width="1" fill="none" />
<polyline points="460.0,182.0,442.0,184.0,442.0,184.0,452.0,168.0" stroke="black" stroke-width="1" fill="none" />
<polyline points="456.0,136.0,446.0,156.0,422.0,144.0,426.0,130.0,410.0,140.0,406.0,132.0" stroke="black" stroke-width="1" fill="none" />
<polyline points="402.0,150.0,434.0,158.0,426.0,168.0,432.0,184.0,428.0,198.0,418.0,210.0,402.0,226.0,418.0,240.0,420.0,244.0,432.0,228.0,448.0,232.0,454.0,246.0" stroke="black" stroke-width="1" fill="none" />
<polyline points="378.0,200.0,372.0,218.0,374.0,216.0,390.0,198.0,388.0,178.0,392.0,162.0,392.0,160.0" stroke="black" stroke-width="1" fill="none" />
<polyline points="386.0,138.0,370.0,132.0" stroke="black" stroke-width="1" fill="none" />
<polyline points="370.0,122.0,386.0,112.0,404.0,122.0,420.0,118.0,436.0,116.0,452.0,108.0,452.0,104.0,436.0,102.0" stroke="black" stroke-width="1" fill="none" />
<polyline points="404.0,102.0,402.0,98.0,406.0,108.0,422.0,102.0,424.0,110.0,440.0,120.0,440.0,116.0,456.0,114.0,464.0,118.0,454.0,130.0,440.0,134.0,446.0,136.0,452.0,148.0" stroke="black" stroke-width="1" fill="none" />
<polyline points="450.0,96.0,460.0,116.0,466.0,100.0,464.0,74.0,454.0,88.0,438.0,92.0,440.0,90.0,434.0,64.0,448.0,48.0,434.0,36.0,418.0,46.0,416.0,54.0,400.0,54.0,394.0,70.0,378.0,74.0,362.0,78.0,346.0,84.0,330.0,102.0,316.0,124.0,312.0,144.0,326.0,136.0,334.0,120.0,346.0,112.0,356.0,100.0,366.0,84.0,382.0,62.0,388.0,46.0,388.0,30.0,392.0,14.0,404.0,2.0,388.0,10.0" stroke="black" stroke-width="1" fill="none" />
<polyline points="388.0,22.0,404.0,10.0,420.0,6.0,436.0,4.0,448.0,14.0,444.0,30.0,442.0,46.0,424.0,54.0,416.0,70.0,420.0,68.0,420.0,60.0" stroke="black" stroke-width="1" fill="none" />
<polyline points="440.0,70.0,428.0,74.0,412.0,74.0,394.0,78.0,378.0,80.0,362.0,90.0,352.0,106.0,336.0,110.0,330.0,132.0,320.0,130.0,302.0,146.0,300.0,130.0,300.0,114.0,320.0,98.0,330.0,82.0,336.0,82.0" stroke="black" stroke-width="1" fill="none" />
<polyline points="340.0,66.0,356.0,66.0" stroke="black" stroke-width="1" fill="none" />
<polyline points="354.0,78.0,328.0,90.0,332.0,100.0,308.0,116.0,306.0,112.0,322.0,104.0,326.0,92.0,342.0,74.0,358.0,72.0,374.0,66.0,398.0,38.0,406.0,18.0,418.0,14.0,432.0,14.0" stroke="black" stroke-width="1" fill="none" />
<polyline points="426.0,10.0,436.0,26.0,434.0,42.0,434.0,64.0" stroke="black" stroke-width="1" fill="none" />
<polyline points="394.0,84.0,388.0,100.0,386.0,102.0,374.0,118.0,384.0,128.0,384.0,144.0,390.0,146.0,386.0,162.0,382.0,178.0,382.0,194.0,372.0,196.0,344.0,212.0,320.0,228.0,324.0,244.0" stroke="black" stroke-width="1" fill="none" />
<polyline points="328.0,234.0,326.0,214.0,348.0,204.0,366.0,194.0,372.0,180.0,360.0,174.0,378.0,162.0,374.0,154.0,380.0,138.0,364.0,118.0,360.0,118.0,370.0,110.0,386.0,94.0,380.0,98.0,364.0,118.0" stroke="black" stroke-width="1" fill="none" />
<polyline points="386.0,78.0,350.0,88.0,336.0,104.0,344.0,94.0,360.0,84.0,388.0,90.0,412.0,86.0" stroke="black" stroke-width="1" fill="none" />
<polyline points="422.0,38.0,430.0,34.0,426.0,18.0" stroke="black" stroke-width="1" fill="none" />
<polyline points="402.0,10.0,394.0,26.0,394.0,42.0,398.0,54.0,406.0,52.0" stroke="black" stroke-width="1" fill="none" />
<polyline points="320.0,136.0,324.0,116.0,308.0,124.0" stroke="black" stroke-width="1" fill="none" />
<polyline points="348.0,188.0,332.0,204.0,350.0,204.0,356.0,190.0,368.0,176.0,378.0,160.0,396.0,142.0,408.0,146.0,424.0,152.0,440.0,160.0,448.0,158.0,464.0,160.0" stroke="black" stroke-width="1" fill="none" />
<polyline points="370.0,186.0,352.0,196.0,334.0,204.0,318.0,202.0,316.0,212.0,300.0,218.0" stroke="black" stroke-width="1" fill="none" />
<polyline points="308.0,220.0,324.0,216.0,340.0,208.0" stroke="black" stroke-width="1" fill="none" />
<polyline points="370.0,200.0,354.0,208.0,338.0,216.0,322.0,224.0,314.0,244.0,312.0,228.0,308.0,226.0,308.0,242.0" stroke="black" stroke-width="1" fill="none" />
<polyline points="330.0,254.0,314.0,254.0,302.0,252.0,300.0,236.0,300.0,220.0,306.0,204.0" stroke="black" stroke-width="1" fill="none" />
<polyline points="354.0,218.0,338.0,230.0,340.0,226.0,346.0,220.0,372.0,202.0" stroke="black" stroke-width="1" fill="none" />
</svg>