<svg xmlns="http://www.w3.org/2000/svg" height="256px" width="486px" version="1.1"><polyline points="486.0,0.0,484.0,16.0" stroke="black" stroke-width="1" fill="none" />
<polyline points="484.0,28.0,476.0,24.0,470.0,8.0,466.0,2.0" stroke="black" stroke-width="1" fill="none" />
<polyline points="430.0,20.0,414.0,2.0" stroke="black" stroke-width="1" fill="none" />
<polyline points="398.0,2.0,398.0,2.0,414.0,18.0,420.0,34.0,416.0,50.0,402.0,66.0,392.0,70.0,400.0,86.0,396.0,102.0,406.0,110.0,404.0,126.0,414.0,132.0,428.0,148.0,438.0,162.0,446.0,168.0,440.0,176.0,440.0,192.0,442.0,208.0,440.0,224.0,460.0,228.0,454.0,244.0,462.0,250.0,456.0,238.0" stroke="black" stroke-width="1" fill="none" />
<polyline points="454.0,222.0,448.0,218.0,442.0,204.0" stroke="black" stroke-width="1" fill="none" />
<polyline points="462.0,236.0,446.0,254.0,430.0,254.0,414.0,238.0" stroke="black" stroke-width="1" fill="none" />
<polyline points="390.0,252.0,402.0,240.0,412.0,232.0,420.0,216.0,422.0,200.0,406.0,184.0,406.0,168.0,416.0,158.0,404.0,150.0,392.0,122.0,390.0,112.0" stroke="black" stroke-width="1" fill="none" />
<polyline points="396.0,98.0,412.0,114.0,428.0,118.0" stroke="black" stroke-width="1" fill="none" />
<polyline points="420.0,126.0,436.0,120.0,452.0,106.0,468.0,110.0,484.0,108.0" stroke="black" stroke-width="1" fill="none" />
<polyline points="458.0,100.0,456.0,112.0,438.0,116.0,438.0,128.0" stroke="black" stroke-width="1" fill="none" />
<polyline points="408.0,142.0,392.0,136.0" stroke="black" stroke-width="1" fill="none" />
<polyline points="418.0,148.0,398.0,158.0,380.0,156.0,364.0,154.0,364.0,158.0" stroke="black" stroke-width="1" fill="none" />
<polyline points="364.0,132.0,348.0,126.0,348.0,126.0,346.0,142.0,346.0,142.0" stroke="black" stroke-width="1" fill="none" />
<polyline points="318.0,168.0,334.0,162.0,350.0,146.0,366.0,136.0,364.0,146.0,346.0,162.0,338.0,178.0,334.0,194.0,332.0,210.0,334.0,234.0,344.0,250.0,356.0,252.0,372.0,248.0" stroke="black" stroke-width="1" fill="none" />
<polyline points="356.0,240.0,340.0,246.0,324.0,242.0" stroke="black" stroke-width="1" fill="none" />
<polyline points="350.0,224.0,366.0,216.0,382.0,218.0,396.0,220.0,400.0,236.0" stroke="black" stroke-width="1" fill="none" />
<polyline points="398.0,222.0,390.0,198.0,374.0,198.0,358.0,204.0,342.0,210.0,328.0,222.0,318.0,226.0,302.0,226.0,286.0,214.0" stroke="black" stroke-width="1" fill="none" />
<polyline points="288.0,206.0,304.0,202.0,320.0,200.0,344.0,202.0,356.0,198.0" stroke="black" stroke-width="1" fill="none" />
<polyline points="354.0,208.0,334.0,224.0,330.0,240.0,340.0,256.0" stroke="black" stroke-width="1" fill="none" />
<polyline points="326.0,218.0,310.0,220.0,294.0,212.0" stroke="black" stroke-width="1" fill="none" />
<polyline points="306.0,212.0,306.0,208.0,322.0,212.0" stroke="black" stroke-width="1" fill="none" />
<polyline points="296.0,228.0,298.0,226.0,284.0,210.0,284.0,194.0,292.0,194.0" stroke="black" stroke-width="1" fill="none" />
<polyline points="284.0,192.0,300.0,190.0,316.0,184.0,316.0,194.0,322.0,186.0,332.0,174.0,342.0,172.0,358.0,150.0,374.0,144.0,390.0,144.0,406.0,150.0,422.0,164.0,436.0,166.0" stroke="black" stroke-width="1" fill="none" />
<polyline points="434.0,174.0,412.0,190.0,418.0,182.0,422.0,172.0,406.0,178.0" stroke="black" stroke-width="1" fill="none" />
<polyline points="438.0,156.0,422.0,142.0,412.0,126.0,404.0,130.0,398.0,124.0,392.0,132.0,376.0,122.0,378.0,106.0,376.0,90.0,366.0,84.0,356.0,62.0,340.0,68.0,332.0,64.0,322.0,48.0,328.0,46.0,312.0,34.0,326.0,20.0,330.0,4.0,320.0,6.0,304.0,2.0" stroke="black" stroke-width="1" fill="none" />
<polyline points="294.0,2.0,306.0,8.0,310.0,12.0,310.0,28.0,298.0,28.0,310.0,44.0,332.0,54.0,340.0,54.0,344.0,70.0,360.0,74.0,376.0,68.0,378.0,78.0,402.0,66.0,418.0,38.0,420.0,20.0" stroke="black" stroke-width="1" fill="none" />
<polyline points="400.0,24.0,394.0,14.0,378.0,16.0" stroke="black" stroke-width="1" fill="none" />
<polyline points="374.0,30.0,374.0,14.0,376.0,28.0,374.0,44.0,378.0,48.0" stroke="black" stroke-width="1" fill="none" />
<polyline points="358.0,28.0,380.0,12.0,366.0,28.0,368.0,44.0,378.0,60.0,402.0,86.0,418.0,88.0,434.0,86.0,450.0,80.0,466.0,78.0,482.0,78.0" stroke="black" stroke-width="1" fill="none" />
<polyline points="476.0,114.0,486.0,98.0,486.0,82.0,468.0,86.0,464.0,94.0,458.0,86.0,444.0,94.0,436.0,96.0,434.0,106.0,420.0,108.0,420.0,92.0,408.0,76.0,422.0,50.0,428.0,54.0,420.0,62.0,414.0,62.0,396.0,54.0,386.0,48.0,398.0,38.0,408.0,36.0,402.0,20.0,392.0,14.0,368.0,4.0" stroke="black" stroke-width="1" fill="none" />
<polyline points="348.0,32.0,366.0,12.0,358.0,28.0,358.0,44.0,366.0,60.0" stroke="black" stroke-width="1" fill="none" />
<polyline points="386.0,94.0,402.0,96.0" stroke="black" stroke-width="1" fill="none" />
<polyline points="442.0,94.0,442.0,118.0,450.0,124.0,456.0,112.0,472.0,116.0" stroke="black" stroke-width="1" fill="none" />
<polyline points="408.0,42.0,394.0,62.0,378.0,60.0,354.0,56.0,350.0,50.0,348.0,34.0,356.0,18.0,362.0,2.0,340.0,10.0,324.0,24.0,308.0,30.0" stroke="black" stroke-width="1" fill="none" />
<polyline points="310.0,42.0,326.0,36.0" stroke="black" stroke-width="1" fill="none" />
<polyline points="330.0,56.0,314.0,56.0,298.0,38.0" stroke="black" stroke-width="1" fill="none" />
<polyline points="280.0,34.0,296.0,48.0,312.0,64.0,328.0,72.0,344.0,78.0,360.0,82.0,376.0,84.0,388.0,90.0,386.0,106.0,384.0,122.0,394.0,138.0,422.0,154.0,432.0,170.0,424.0,180.0,432.0,196.0,432.0,214.0,432.0,228.0,420.0,230.0,422.0,246.0,412.0,252.0,428.0,240.0,444.0,238.0,432.0,246.0" stroke="black" stroke-width="1" fill="none" />
<polyline points="390.0,234.0,386.0,218.0" stroke="black" stroke-width="1" fill="none" />
<polyline points="376.0,226.0,376.0,242.0" stroke="black" stroke-width="1" fill="none" />
<polyline points="370.0,240.0,382.0,236.0,372.0,226.0,368.0,226.0,354.0,228.0,352.0,250.0,344.0,244.0,340.0,228.0,346.0,206.0,342.0,194.0,344.0,178.0,320.0,176.0,332.0,158.0,332.0,148.0,348.0,148.0,362.0,132.0,372.0,116.0,364.0,100.0,360.0,88.0,356.0,94.0,350.0,86.0,338.0,92.0,332.0,80.0,316.0,74.0,308.0,78.0,308.0,62.0,284.0,58.0,288.0,42.0,280.0,40.0,280.0,24.0,280.0,8.0,280.0,8.0" stroke="black" stroke-width="1" fill="none" />
<polyline points="288.0,10.0,288.0,26.0,306.0,24.0,306.0,40.0,312.0,56.0,350.0,72.0" stroke="black" stroke-width="1" fill="none" />
<polyline points="330.0,80.0,340.0,96.0" stroke="black" stroke-width="1" fill="none" />
<polyline points="298.0,62.0,282.0,50.0" stroke="black" stroke-width="1" fill="none" />
<polyline points="358.0,212.0,350.0,228.0,350.0,210.0,366.0,208.0,382.0,206.0,382.0,214.0" stroke="black" stroke-width="1" fill="none" />
<polyline points="374.0,210.0,372.0,226.0,360.0,242.0,374.0,256.0,390.0,244.0,406.0,238.0,426.0,224.0,432.0,228.0" stroke="black" stroke-width="1" fill="none" />
</svg>