<svg xmlns="http://www.w3.org/2000/svg" height="256px" width="456px" version="1.1"><polyline points="418.0,0.0,442.0,16.0,444.0,34.0,454.0,50.0,448.0,62.0" stroke="black" stroke-width="1" fill="none" />
<polyline points="444.0,24.0,428.0,10.0,412.0,8.0" stroke="black" stroke-width="1" fill="none" />
<polyline points="404.0,12.0,414.0,14.0,420.0,30.0,420.0,46.0,404.0,62.0,410.0,78.0,414.0,94.0,416.0,110.0,418.0,126.0,416.0,142.0,420.0,158.0,422.0,174.0,418.0,190.0,418.0,206.0,410.0,230.0,426.0,236.0,442.0,228.0" stroke="black" stroke-width="1" fill="none" />
<polyline points="448.0,246.0,442.0,236.0,454.0,220.0,454.0,206.0,434.0,194.0,426.0,170.0,432.0,150.0,424.0,152.0" stroke="black" stroke-width="1" fill="none" />
<polyline points="414.0,172.0,416.0,188.0,408.0,206.0,414.0,222.0,406.0,238.0,418.0,244.0,418.0,250.0,426.0,254.0,442.0,256.0" stroke="black" stroke-width="1" fill="none" />
<polyline points="440.0,238.0,428.0,242.0,404.0,236.0,402.0,228.0,390.0,206.0,390.0,190.0,400.0,178.0,396.0,162.0,386.0,152.0" stroke="black" stroke-width="1" fill="none" />
<polyline points="358.0,134.0,370.0,118.0,378.0,100.0,362.0,104.0,352.0,118.0,360.0,116.0,384.0,116.0,400.0,100.0,396.0,120.0,396.0,120.0,402.0,136.0,406.0,154.0,402.0,170.0,408.0,184.0,404.0,200.0,394.0,216.0,390.0,232.0,396.0,242.0,400.0,224.0,416.0,224.0,432.0,222.0,436.0,216.0" stroke="black" stroke-width="1" fill="none" />
<polyline points="450.0,200.0,434.0,198.0,410.0,196.0,394.0,216.0,374.0,236.0" stroke="black" stroke-width="1" fill="none" />
<polyline points="368.0,224.0,384.0,200.0,390.0,180.0,396.0,160.0" stroke="black" stroke-width="1" fill="none" />
<polyline points="358.0,144.0,342.0,154.0,326.0,154.0,310.0,146.0" stroke="black" stroke-width="1" fill="none" />
<polyline points="310.0,120.0,326.0,112.0,326.0,120.0,340.0,118.0,356.0,112.0,376.0,114.0" stroke="black" stroke-width="1" fill="none" />
<polyline points="394.0,112.0,386.0,128.0,370.0,138.0,370.0,136.0" stroke="black" stroke-width="1" fill="none" />
<polyline points="354.0,126.0,338.0,126.0" stroke="black" stroke-width="1" fill="none" />
<polyline points="344.0,88.0,340.0,76.0,324.0,76.0,324.0,76.0,328.0,92.0,324.0,104.0,338.0,100.0,354.0,100.0,370.0,96.0,386.0,94.0" stroke="black" stroke-width="1" fill="none" />
<polyline points="406.0,102.0,408.0,118.0,408.0,134.0,406.0,150.0,386.0,158.0,386.0,174.0,384.0,188.0,382.0,204.0,388.0,212.0,382.0,228.0,372.0,244.0,372.0,244.0,382.0,254.0,398.0,254.0,412.0,254.0,428.0,248.0,444.0,250.0" stroke="black" stroke-width="1" fill="none" />
<polyline points="456.0,208.0,440.0,208.0,426.0,206.0,428.0,190.0,440.0,174.0,428.0,158.0,426.0,148.0,422.0,136.0,422.0,116.0,424.0,100.0,424.0,88.0,418.0,94.0,398.0,102.0,396.0,114.0,382.0,136.0,366.0,150.0,350.0,152.0,346.0,152.0,354.0,128.0,344.0,124.0,358.0,88.0,352.0,78.0,370.0,64.0,346.0,60.0,348.0,44.0,342.0,28.0,350.0,12.0,360.0,4.0,356.0,8.0" stroke="black" stroke-width="1" fill="none" />
<polyline points="368.0,8.0,358.0,24.0,362.0,40.0,372.0,56.0,362.0,76.0,364.0,68.0,368.0,82.0" stroke="black" stroke-width="1" fill="none" />
<polyline points="350.0,68.0,334.0,70.0,318.0,78.0" stroke="black" stroke-width="1" fill="none" />
<polyline points="322.0,70.0,320.0,86.0,318.0,102.0,310.0,120.0,312.0,136.0,310.0,152.0,320.0,142.0,336.0,146.0,352.0,140.0,368.0,128.0" stroke="black" stroke-width="1" fill="none" />
<polyline points="372.0,202.0,370.0,218.0,366.0,234.0,362.0,250.0" stroke="black" stroke-width="1" fill="none" />
<polyline points="418.0,72.0,418.0,58.0,424.0,46.0,424.0,30.0,416.0,28.0,404.0,12.0,406.0,6.0,392.0,2.0" stroke="black" stroke-width="1" fill="none" />
<polyline points="398.0,8.0,414.0,4.0,430.0,6.0,446.0,10.0" stroke="black" stroke-width="1" fill="none" />
<polyline points="440.0,12.0,416.0,16.0,404.0,38.0,404.0,48.0,388.0,52.0,382.0,60.0,382.0,40.0,380.0,48.0,366.0,26.0,372.0,10.0" stroke="black" stroke-width="1" fill="none" />
<polyline points="378.0,12.0,392.0,12.0,386.0,28.0,390.0,44.0,384.0,48.0,384.0,72.0,396.0,76.0,386.0,84.0,364.0,76.0,390.0,80.0,414.0,60.0" stroke="black" stroke-width="1" fill="none" />
<polyline points="442.0,56.0,426.0,62.0,410.0,78.0,384.0,68.0,368.0,60.0,376.0,42.0,382.0,26.0,390.0,22.0,374.0,18.0,374.0,18.0,374.0,34.0" stroke="black" stroke-width="1" fill="none" />
<polyline points="392.0,30.0,396.0,46.0,400.0,50.0,396.0,34.0,400.0,18.0,396.0,14.0,380.0,8.0,364.0,10.0,338.0,26.0,334.0,36.0,338.0,20.0" stroke="black" stroke-width="1" fill="none" />
<polyline points="350.0,22.0,352.0,38.0,352.0,60.0,342.0,80.0,356.0,84.0,372.0,88.0,388.0,84.0" stroke="black" stroke-width="1" fill="none" />
<polyline points="430.0,42.0,430.0,26.0" stroke="black" stroke-width="1" fill="none" />
<polyline points="426.0,10.0,434.0,26.0,434.0,42.0" stroke="black" stroke-width="1" fill="none" />
<polyline points="438.0,64.0,448.0,48.0,448.0,32.0,454.0,32.0,448.0,16.0,434.0,0.0" stroke="black" stroke-width="1" fill="none" />
</svg>