<svg xmlns="http://www.w3.org/2000/svg" height="256px" width="482px" version="1.1"><polyline points="482.0,36.0,482.0,52.0,480.0,68.0" stroke="black" stroke-width="1" fill="none" />
<polyline points="482.0,74.0,480.0,76.0,468.0,76.0,468.0,68.0,452.0,74.0,436.0,74.0,430.0,80.0,416.0,78.0,400.0,80.0,384.0,80.0,360.0,74.0,344.0,88.0,328.0,96.0,310.0,100.0,322.0,98.0,336.0,94.0,350.0,78.0,358.0,54.0,354.0,38.0,362.0,22.0,362.0,18.0,348.0,16.0,348.0,0.0,348.0,8.0,348.0,16.0,332.0,22.0" stroke="black" stroke-width="1" fill="none" />
<polyline points="338.0,22.0,340.0,40.0,346.0,42.0,338.0,62.0" stroke="black" stroke-width="1" fill="none" />
<polyline points="338.0,78.0,336.0,78.0,334.0,84.0,334.0,68.0,348.0,62.0,334.0,56.0,332.0,40.0,336.0,24.0,332.0,14.0,338.0,2.0,336.0,8.0" stroke="black" stroke-width="1" fill="none" />
<polyline points="354.0,2.0,376.0,2.0,396.0,4.0,396.0,18.0,402.0,34.0,398.0,50.0,406.0,50.0,378.0,66.0,378.0,86.0,376.0,102.0,378.0,118.0,392.0,120.0,400.0,134.0,424.0,150.0,416.0,152.0,396.0,176.0,392.0,192.0,384.0,200.0,388.0,214.0,380.0,226.0,368.0,236.0,374.0,246.0,366.0,254.0,380.0,254.0" stroke="black" stroke-width="1" fill="none" />
<polyline points="392.0,248.0,380.0,240.0,364.0,246.0,348.0,244.0" stroke="black" stroke-width="1" fill="none" />
<polyline points="388.0,208.0,378.0,230.0,378.0,206.0,382.0,190.0,380.0,174.0,362.0,176.0,346.0,180.0" stroke="black" stroke-width="1" fill="none" />
<polyline points="334.0,174.0,332.0,190.0,348.0,190.0,352.0,216.0,348.0,232.0,348.0,232.0,352.0,216.0,372.0,194.0,398.0,180.0" stroke="black" stroke-width="1" fill="none" />
<polyline points="418.0,170.0,434.0,172.0" stroke="black" stroke-width="1" fill="none" />
<polyline points="412.0,138.0,396.0,132.0" stroke="black" stroke-width="1" fill="none" />
<polyline points="386.0,130.0,402.0,126.0,418.0,126.0,426.0,138.0,442.0,144.0" stroke="black" stroke-width="1" fill="none" />
<polyline points="396.0,146.0,380.0,140.0,382.0,142.0,400.0,142.0" stroke="black" stroke-width="1" fill="none" />
<polyline points="426.0,142.0,412.0,168.0,396.0,174.0,380.0,174.0,368.0,154.0,366.0,138.0,362.0,138.0" stroke="black" stroke-width="1" fill="none" />
<polyline points="360.0,130.0,376.0,134.0,392.0,138.0,408.0,144.0,426.0,144.0,442.0,146.0,436.0,160.0" stroke="black" stroke-width="1" fill="none" />
<polyline points="436.0,80.0,452.0,80.0" stroke="black" stroke-width="1" fill="none" />
<polyline points="432.0,64.0,416.0,70.0,400.0,74.0,384.0,74.0" stroke="black" stroke-width="1" fill="none" />
<polyline points="372.0,54.0,368.0,48.0,368.0,48.0,382.0,32.0,372.0,12.0,370.0,16.0,382.0,18.0,390.0,24.0,390.0,40.0,384.0,40.0,384.0,54.0,400.0,32.0" stroke="black" stroke-width="1" fill="none" />
<polyline points="392.0,28.0,376.0,8.0" stroke="black" stroke-width="1" fill="none" />
<polyline points="362.0,14.0,378.0,2.0,394.0,2.0,408.0,18.0,396.0,22.0" stroke="black" stroke-width="1" fill="none" />
<polyline points="462.0,44.0,460.0,60.0" stroke="black" stroke-width="1" fill="none" />
<polyline points="468.0,56.0,466.0,40.0" stroke="black" stroke-width="1" fill="none" />
<polyline points="398.0,112.0,382.0,118.0,364.0,112.0,348.0,116.0" stroke="black" stroke-width="1" fill="none" />
<polyline points="352.0,128.0,348.0,118.0,340.0,134.0,350.0,140.0,354.0,140.0,360.0,152.0,350.0,170.0,366.0,164.0,388.0,164.0,394.0,164.0,410.0,158.0,410.0,152.0" stroke="black" stroke-width="1" fill="none" />
<polyline points="346.0,156.0,330.0,158.0" stroke="black" stroke-width="1" fill="none" />
<polyline points="318.0,158.0,318.0,162.0,316.0,174.0,316.0,190.0,322.0,202.0,336.0,204.0,352.0,182.0,366.0,186.0,346.0,182.0,338.0,198.0" stroke="black" stroke-width="1" fill="none" />
<polyline points="324.0,180.0,326.0,174.0,324.0,190.0,336.0,174.0,352.0,162.0" stroke="black" stroke-width="1" fill="none" />
<polyline points="324.0,114.0,348.0,104.0,348.0,94.0,370.0,82.0,354.0,86.0,338.0,108.0,322.0,116.0,306.0,132.0,290.0,130.0" stroke="black" stroke-width="1" fill="none" />
<polyline points="282.0,102.0,298.0,96.0,304.0,76.0,320.0,78.0" stroke="black" stroke-width="1" fill="none" />
<polyline points="310.0,82.0,326.0,88.0" stroke="black" stroke-width="1" fill="none" />
<polyline points="310.0,102.0,316.0,86.0,312.0,96.0,306.0,86.0,296.0,102.0,306.0,90.0,322.0,74.0,306.0,70.0" stroke="black" stroke-width="1" fill="none" />
<polyline points="296.0,80.0,290.0,96.0,288.0,100.0,302.0,108.0,298.0,114.0,300.0,118.0,308.0,108.0,324.0,106.0" stroke="black" stroke-width="1" fill="none" />
<polyline points="338.0,108.0,332.0,124.0" stroke="black" stroke-width="1" fill="none" />
<polyline points="354.0,92.0,366.0,108.0,356.0,124.0,360.0,134.0,378.0,142.0,376.0,158.0,366.0,166.0,370.0,188.0,362.0,204.0,360.0,220.0,360.0,236.0,348.0,240.0,364.0,228.0" stroke="black" stroke-width="1" fill="none" />
<polyline points="334.0,252.0,318.0,256.0,302.0,256.0,286.0,256.0" stroke="black" stroke-width="1" fill="none" />
<polyline points="284.0,250.0,300.0,246.0,316.0,246.0,332.0,244.0" stroke="black" stroke-width="1" fill="none" />
<polyline points="392.0,92.0,394.0,88.0,384.0,96.0,360.0,106.0,346.0,110.0,334.0,122.0,324.0,126.0,302.0,126.0,286.0,128.0,284.0,140.0,284.0,124.0,282.0,108.0,282.0,92.0,284.0,76.0,294.0,76.0,306.0,74.0,288.0,82.0" stroke="black" stroke-width="1" fill="none" />
<polyline points="282.0,82.0,298.0,68.0,314.0,60.0,316.0,64.0,332.0,72.0,336.0,52.0,350.0,48.0,366.0,58.0,382.0,64.0,398.0,56.0,404.0,66.0,420.0,62.0,436.0,58.0,452.0,48.0,452.0,30.0,470.0,24.0" stroke="black" stroke-width="1" fill="none" />
</svg>