<svg xmlns="http://www.w3.org/2000/svg" height="254px" width="484px" version="1.1"><polyline points="280.0,0.0,280.0,16.0,280.0,36.0,282.0,52.0,282.0,68.0,280.0,84.0,296.0,86.0,292.0,96.0,306.0,104.0,310.0,114.0" stroke="black" stroke-width="1" fill="none" />
<polyline points="306.0,100.0,322.0,114.0,338.0,116.0" stroke="black" stroke-width="1" fill="none" />
<polyline points="330.0,96.0,346.0,96.0" stroke="black" stroke-width="1" fill="none" />
<polyline points="384.0,88.0,382.0,74.0,374.0,64.0,372.0,50.0,354.0,34.0,354.0,28.0" stroke="black" stroke-width="1" fill="none" />
<polyline points="354.0,14.0,346.0,8.0,360.0,4.0,346.0,10.0,352.0,26.0,364.0,36.0,362.0,52.0,374.0,66.0,386.0,78.0,374.0,90.0,382.0,102.0,370.0,118.0,360.0,124.0,362.0,136.0,372.0,146.0,374.0,162.0,372.0,178.0,384.0,186.0,384.0,200.0,384.0,216.0,386.0,232.0,386.0,248.0,388.0,254.0,404.0,254.0" stroke="black" stroke-width="1" fill="none" />
<polyline points="416.0,248.0,416.0,232.0,416.0,212.0,400.0,214.0" stroke="black" stroke-width="1" fill="none" />
<polyline points="382.0,230.0,384.0,222.0,374.0,242.0" stroke="black" stroke-width="1" fill="none" />
<polyline points="404.0,166.0,396.0,164.0,400.0,156.0,386.0,150.0,384.0,124.0,364.0,144.0,376.0,128.0,392.0,110.0,396.0,94.0,402.0,66.0,402.0,50.0,384.0,54.0" stroke="black" stroke-width="1" fill="none" />
<polyline points="400.0,48.0,416.0,42.0,432.0,36.0,448.0,50.0,448.0,78.0,430.0,104.0" stroke="black" stroke-width="1" fill="none" />
<polyline points="412.0,74.0,428.0,82.0,444.0,68.0" stroke="black" stroke-width="1" fill="none" />
<polyline points="444.0,56.0,434.0,60.0,434.0,78.0,452.0,62.0,452.0,46.0,458.0,38.0,436.0,30.0,420.0,32.0" stroke="black" stroke-width="1" fill="none" />
<polyline points="416.0,22.0,432.0,20.0,448.0,28.0,464.0,42.0" stroke="black" stroke-width="1" fill="none" />
<polyline points="442.0,48.0,426.0,46.0,410.0,52.0" stroke="black" stroke-width="1" fill="none" />
<polyline points="402.0,34.0,424.0,38.0,410.0,54.0,410.0,70.0,408.0,86.0,420.0,102.0,440.0,116.0,440.0,132.0,424.0,132.0,434.0,140.0,442.0,150.0,452.0,150.0,462.0,148.0" stroke="black" stroke-width="1" fill="none" />
<polyline points="458.0,136.0,480.0,128.0,484.0,144.0,484.0,158.0" stroke="black" stroke-width="1" fill="none" />
<polyline points="476.0,160.0,460.0,162.0" stroke="black" stroke-width="1" fill="none" />
<polyline points="458.0,130.0,474.0,130.0" stroke="black" stroke-width="1" fill="none" />
<polyline points="470.0,46.0,458.0,66.0,446.0,80.0,430.0,88.0,414.0,84.0,396.0,72.0,384.0,68.0,388.0,52.0,382.0,36.0,390.0,22.0,380.0,14.0,382.0,12.0,382.0,26.0,380.0,28.0" stroke="black" stroke-width="1" fill="none" />
<polyline points="350.0,14.0,374.0,2.0,366.0,12.0,378.0,20.0,376.0,36.0,396.0,52.0,394.0,70.0,390.0,86.0,384.0,100.0,410.0,106.0,418.0,116.0,418.0,128.0,430.0,128.0,448.0,146.0,440.0,150.0,446.0,160.0,446.0,172.0,462.0,170.0,478.0,172.0" stroke="black" stroke-width="1" fill="none" />
<polyline points="476.0,142.0,460.0,144.0,448.0,138.0,448.0,124.0,438.0,128.0,430.0,116.0,416.0,120.0,400.0,116.0,388.0,116.0,372.0,132.0,358.0,122.0,354.0,108.0,330.0,92.0,320.0,76.0,310.0,70.0,312.0,54.0,302.0,44.0,286.0,32.0,282.0,44.0" stroke="black" stroke-width="1" fill="none" />
<polyline points="282.0,38.0,294.0,42.0,306.0,50.0,300.0,66.0,298.0,76.0,320.0,92.0,344.0,108.0,368.0,112.0,388.0,94.0,398.0,92.0,404.0,108.0,428.0,96.0,444.0,90.0" stroke="black" stroke-width="1" fill="none" />
<polyline points="432.0,36.0,430.0,52.0,418.0,60.0,422.0,76.0,406.0,100.0,388.0,118.0,386.0,134.0,384.0,144.0,384.0,160.0,388.0,176.0,402.0,184.0,400.0,200.0,400.0,216.0,410.0,232.0,406.0,248.0,396.0,234.0,400.0,240.0" stroke="black" stroke-width="1" fill="none" />
<polyline points="398.0,232.0,394.0,212.0,392.0,196.0,396.0,174.0,388.0,158.0,378.0,146.0" stroke="black" stroke-width="1" fill="none" />
<polyline points="320.0,198.0,304.0,194.0" stroke="black" stroke-width="1" fill="none" />
<polyline points="310.0,214.0,294.0,214.0,310.0,220.0,318.0,196.0,314.0,190.0,298.0,184.0,282.0,188.0,282.0,188.0,280.0,204.0,282.0,220.0,282.0,236.0,282.0,252.0,294.0,238.0,296.0,230.0" stroke="black" stroke-width="1" fill="none" />
<polyline points="306.0,240.0,290.0,246.0,286.0,246.0,312.0,238.0,320.0,222.0,316.0,206.0,302.0,190.0,282.0,180.0" stroke="black" stroke-width="1" fill="none" />
<polyline points="280.0,204.0,296.0,216.0,302.0,220.0" stroke="black" stroke-width="1" fill="none" />
<polyline points="354.0,130.0,336.0,126.0,352.0,120.0,326.0,104.0,302.0,96.0,294.0,100.0" stroke="black" stroke-width="1" fill="none" />
<polyline points="286.0,76.0,302.0,88.0,318.0,96.0,334.0,108.0,346.0,108.0,362.0,118.0,378.0,108.0" stroke="black" stroke-width="1" fill="none" />
<polyline points="366.0,102.0,350.0,100.0,334.0,88.0,330.0,92.0,314.0,86.0,312.0,84.0,296.0,68.0" stroke="black" stroke-width="1" fill="none" />
<polyline points="312.0,6.0,302.0,2.0,286.0,12.0,294.0,6.0,316.0,0.0" stroke="black" stroke-width="1" fill="none" />
<polyline points="468.0,0.0,466.0,16.0,480.0,28.0" stroke="black" stroke-width="1" fill="none" />
<polyline points="484.0,16.0,482.0,0.0" stroke="black" stroke-width="1" fill="none" />
<polyline points="476.0,0.0,472.0,16.0,474.0,32.0,464.0,58.0,468.0,68.0,458.0,76.0,444.0,90.0" stroke="black" stroke-width="1" fill="none" />
<polyline points="468.0,226.0,468.0,242.0,484.0,234.0,482.0,250.0" stroke="black" stroke-width="1" fill="none" />
<polyline points="476.0,254.0,460.0,254.0" stroke="black" stroke-width="1" fill="none" />
<polyline points="458.0,232.0,458.0,248.0,466.0,244.0,484.0,228.0" stroke="black" stroke-width="1" fill="none" />
</svg>