<svg xmlns="http://www.w3.org/2000/svg" height="256px" width="448px" version="1.1"><polyline points="400.0,0.0,402.0,16.0,396.0,32.0,400.0,46.0,410.0,48.0,416.0,30.0,428.0,38.0,444.0,36.0" stroke="black" stroke-width="1" fill="none" />
<polyline points="420.0,2.0,436.0,6.0,448.0,6.0,448.0,22.0,442.0,38.0,436.0,54.0,436.0,70.0,438.0,86.0,436.0,102.0" stroke="black" stroke-width="1" fill="none" />
<polyline points="424.0,108.0,408.0,106.0,406.0,104.0,410.0,120.0,412.0,136.0,414.0,152.0,412.0,170.0,400.0,186.0,402.0,202.0,398.0,218.0,396.0,234.0,398.0,230.0,418.0,204.0,442.0,214.0" stroke="black" stroke-width="1" fill="none" />
<polyline points="426.0,228.0,426.0,242.0,430.0,222.0,424.0,204.0,420.0,188.0,400.0,182.0" stroke="black" stroke-width="1" fill="none" />
<polyline points="374.0,186.0,390.0,208.0,388.0,224.0,396.0,240.0" stroke="black" stroke-width="1" fill="none" />
<polyline points="364.0,232.0,362.0,248.0,370.0,256.0,386.0,254.0,402.0,250.0,418.0,234.0,436.0,240.0" stroke="black" stroke-width="1" fill="none" />
<polyline points="448.0,246.0,446.0,230.0,436.0,228.0,436.0,210.0,448.0,198.0,448.0,182.0,426.0,168.0" stroke="black" stroke-width="1" fill="none" />
<polyline points="438.0,190.0,434.0,206.0" stroke="black" stroke-width="1" fill="none" />
<polyline points="412.0,218.0,412.0,202.0,412.0,186.0,408.0,168.0,406.0,152.0" stroke="black" stroke-width="1" fill="none" />
<polyline points="400.0,152.0,396.0,168.0,394.0,184.0,386.0,194.0,384.0,210.0" stroke="black" stroke-width="1" fill="none" />
<polyline points="442.0,176.0,432.0,176.0,404.0,160.0,400.0,152.0,392.0,142.0,390.0,148.0,386.0,134.0,382.0,118.0" stroke="black" stroke-width="1" fill="none" />
<polyline points="412.0,90.0,426.0,84.0,426.0,68.0,424.0,52.0,412.0,42.0,404.0,34.0,408.0,18.0,410.0,2.0,406.0,2.0" stroke="black" stroke-width="1" fill="none" />
<polyline points="420.0,0.0,428.0,16.0,422.0,18.0,424.0,34.0,414.0,52.0,418.0,64.0,404.0,70.0,400.0,86.0,400.0,104.0,404.0,120.0,394.0,136.0,388.0,150.0,386.0,166.0,382.0,182.0,378.0,198.0,376.0,214.0,374.0,230.0,374.0,238.0,366.0,232.0,380.0,242.0,380.0,248.0,408.0,254.0,424.0,256.0,440.0,254.0" stroke="black" stroke-width="1" fill="none" />
<polyline points="398.0,66.0,382.0,56.0,384.0,58.0,384.0,74.0" stroke="black" stroke-width="1" fill="none" />
<polyline points="374.0,58.0,390.0,52.0,398.0,54.0,398.0,70.0,410.0,76.0,410.0,70.0" stroke="black" stroke-width="1" fill="none" />
<polyline points="394.0,78.0,376.0,82.0,374.0,64.0,364.0,58.0" stroke="black" stroke-width="1" fill="none" />
<polyline points="358.0,34.0,374.0,34.0,390.0,34.0" stroke="black" stroke-width="1" fill="none" />
<polyline points="392.0,86.0,376.0,88.0,360.0,74.0,350.0,68.0,346.0,56.0,330.0,36.0,338.0,26.0,322.0,14.0,322.0,14.0,324.0,22.0,332.0,28.0,330.0,38.0,340.0,42.0,346.0,58.0,344.0,74.0,360.0,76.0,372.0,92.0,394.0,110.0,398.0,126.0,422.0,142.0,424.0,158.0,422.0,174.0,430.0,180.0,428.0,196.0,428.0,214.0,422.0,230.0,408.0,246.0" stroke="black" stroke-width="1" fill="none" />
<polyline points="420.0,94.0,404.0,98.0,396.0,90.0,376.0,94.0,372.0,104.0,368.0,94.0,356.0,102.0,358.0,86.0,350.0,70.0,338.0,64.0,322.0,46.0,322.0,30.0" stroke="black" stroke-width="1" fill="none" />
<polyline points="316.0,12.0,332.0,8.0,348.0,24.0,356.0,42.0,372.0,44.0,370.0,38.0,386.0,44.0,402.0,58.0" stroke="black" stroke-width="1" fill="none" />
<polyline points="388.0,124.0,372.0,120.0,358.0,106.0,362.0,94.0,364.0,72.0,360.0,56.0,358.0,40.0,350.0,36.0,348.0,26.0,336.0,10.0" stroke="black" stroke-width="1" fill="none" />
<polyline points="318.0,8.0,318.0,24.0,318.0,40.0,334.0,58.0,338.0,74.0,346.0,90.0,346.0,106.0,354.0,110.0,370.0,110.0,386.0,108.0,404.0,102.0,420.0,100.0" stroke="black" stroke-width="1" fill="none" />
<polyline points="338.0,112.0,330.0,112.0,332.0,96.0,316.0,98.0,318.0,94.0,318.0,110.0,318.0,126.0,330.0,124.0,322.0,118.0" stroke="black" stroke-width="1" fill="none" />
</svg>