<svg xmlns="http://www.w3.org/2000/svg" height="256px" width="486px" version="1.1"><polyline points="348.0,0.0,368.0,2.0,368.0,14.0,370.0,30.0,374.0,46.0,376.0,50.0,364.0,62.0,362.0,84.0,362.0,100.0,364.0,116.0,368.0,132.0,368.0,148.0,372.0,164.0,372.0,180.0,374.0,196.0,374.0,212.0,376.0,228.0,370.0,234.0,382.0,250.0,382.0,240.0,398.0,238.0,414.0,236.0,430.0,230.0,434.0,254.0,448.0,254.0,458.0,254.0,464.0,254.0" stroke="black" stroke-width="1" fill="none" />
<polyline points="456.0,248.0,460.0,232.0,454.0,216.0,446.0,216.0,430.0,222.0,414.0,226.0,398.0,228.0,382.0,230.0,366.0,222.0,358.0,206.0,358.0,190.0,358.0,174.0,364.0,158.0,346.0,136.0,344.0,124.0,348.0,108.0,344.0,100.0,346.0,96.0,332.0,110.0,332.0,112.0,340.0,84.0,344.0,62.0,354.0,58.0,362.0,42.0,362.0,34.0,354.0,22.0,346.0,18.0,330.0,20.0" stroke="black" stroke-width="1" fill="none" />
<polyline points="330.0,12.0,332.0,28.0,322.0,32.0,324.0,42.0,330.0,58.0,338.0,54.0,350.0,62.0,354.0,48.0" stroke="black" stroke-width="1" fill="none" />
<polyline points="368.0,50.0,366.0,68.0" stroke="black" stroke-width="1" fill="none" />
<polyline points="368.0,82.0,386.0,84.0,420.0,94.0,426.0,108.0,424.0,112.0,430.0,98.0,446.0,106.0,462.0,124.0,478.0,134.0,484.0,136.0" stroke="black" stroke-width="1" fill="none" />
<polyline points="476.0,134.0,486.0,118.0,486.0,102.0,470.0,90.0" stroke="black" stroke-width="1" fill="none" />
<polyline points="468.0,76.0,474.0,92.0,462.0,92.0,454.0,88.0,446.0,96.0,462.0,106.0,478.0,104.0" stroke="black" stroke-width="1" fill="none" />
<polyline points="454.0,74.0,436.0,76.0,438.0,92.0,446.0,108.0,434.0,114.0,432.0,122.0,428.0,138.0" stroke="black" stroke-width="1" fill="none" />
<polyline points="422.0,122.0,414.0,106.0,392.0,92.0,392.0,100.0" stroke="black" stroke-width="1" fill="none" />
<polyline points="352.0,94.0,356.0,110.0,356.0,126.0,348.0,130.0" stroke="black" stroke-width="1" fill="none" />
<polyline points="342.0,160.0,322.0,164.0,320.0,170.0" stroke="black" stroke-width="1" fill="none" />
<polyline points="308.0,170.0,312.0,172.0,292.0,176.0,302.0,192.0,312.0,208.0,324.0,224.0,340.0,240.0,346.0,244.0,330.0,248.0" stroke="black" stroke-width="1" fill="none" />
<polyline points="334.0,222.0,336.0,228.0,326.0,216.0,322.0,210.0,314.0,202.0,306.0,186.0,294.0,178.0" stroke="black" stroke-width="1" fill="none" />
<polyline points="300.0,178.0,302.0,190.0,308.0,196.0,316.0,204.0" stroke="black" stroke-width="1" fill="none" />
<polyline points="334.0,236.0,310.0,228.0,294.0,236.0,282.0,256.0,282.0,240.0,296.0,222.0,280.0,228.0" stroke="black" stroke-width="1" fill="none" />
<polyline points="288.0,246.0,304.0,254.0,320.0,254.0" stroke="black" stroke-width="1" fill="none" />
<polyline points="376.0,220.0,392.0,224.0,408.0,220.0,424.0,206.0,440.0,206.0,456.0,204.0" stroke="black" stroke-width="1" fill="none" />
<polyline points="444.0,206.0,432.0,206.0,426.0,222.0,434.0,244.0,422.0,248.0" stroke="black" stroke-width="1" fill="none" />
<polyline points="412.0,240.0,396.0,246.0,372.0,240.0,356.0,240.0,360.0,224.0,364.0,208.0,364.0,192.0,364.0,176.0,354.0,154.0,338.0,158.0,322.0,158.0,306.0,162.0,290.0,166.0" stroke="black" stroke-width="1" fill="none" />
<polyline points="280.0,160.0,296.0,154.0,312.0,152.0,328.0,148.0,344.0,148.0" stroke="black" stroke-width="1" fill="none" />
<polyline points="376.0,146.0,372.0,140.0,352.0,138.0,336.0,140.0,320.0,144.0,304.0,140.0,296.0,146.0,280.0,156.0" stroke="black" stroke-width="1" fill="none" />
<polyline points="286.0,150.0,280.0,166.0,280.0,182.0,280.0,198.0,298.0,202.0,300.0,216.0,282.0,224.0,290.0,244.0,300.0,252.0,310.0,244.0,330.0,256.0,344.0,256.0" stroke="black" stroke-width="1" fill="none" />
<polyline points="342.0,240.0,336.0,236.0,310.0,238.0,292.0,248.0,298.0,232.0,304.0,214.0,290.0,196.0,286.0,184.0,278.0,192.0" stroke="black" stroke-width="1" fill="none" />
<polyline points="278.0,180.0,294.0,194.0,294.0,206.0,302.0,208.0,318.0,214.0" stroke="black" stroke-width="1" fill="none" />
<polyline points="376.0,210.0,380.0,194.0,380.0,178.0,380.0,162.0,382.0,146.0" stroke="black" stroke-width="1" fill="none" />
<polyline points="322.0,114.0,336.0,98.0,342.0,74.0,326.0,70.0,310.0,46.0,308.0,62.0,306.0,70.0" stroke="black" stroke-width="1" fill="none" />
<polyline points="284.0,58.0,290.0,70.0,284.0,68.0,286.0,76.0,302.0,98.0" stroke="black" stroke-width="1" fill="none" />
<polyline points="312.0,120.0,300.0,104.0,310.0,98.0,304.0,82.0,300.0,66.0,306.0,50.0,294.0,42.0,292.0,46.0" stroke="black" stroke-width="1" fill="none" />
<polyline points="286.0,22.0,286.0,38.0,282.0,54.0,278.0,70.0,284.0,86.0,294.0,84.0,296.0,102.0,296.0,118.0,304.0,120.0,320.0,110.0,336.0,98.0,352.0,86.0,376.0,86.0,392.0,88.0,400.0,78.0,416.0,82.0,432.0,78.0,448.0,72.0,464.0,68.0,480.0,72.0" stroke="black" stroke-width="1" fill="none" />
<polyline points="432.0,68.0,416.0,74.0,402.0,70.0,386.0,68.0,380.0,66.0,382.0,50.0,380.0,34.0,378.0,22.0,374.0,18.0" stroke="black" stroke-width="1" fill="none" />
<polyline points="368.0,2.0,352.0,2.0,344.0,8.0,328.0,10.0,308.0,24.0,296.0,18.0,280.0,20.0,282.0,18.0,280.0,34.0,288.0,36.0,296.0,26.0,306.0,2.0,322.0,4.0,324.0,2.0,320.0,18.0,316.0,34.0,320.0,50.0,326.0,72.0,312.0,90.0,324.0,96.0,316.0,102.0,318.0,90.0,324.0,92.0,340.0,80.0,368.0,76.0,384.0,82.0,400.0,86.0,416.0,92.0,426.0,86.0,442.0,88.0,446.0,80.0,460.0,78.0,458.0,82.0,470.0,84.0,480.0,78.0,482.0,84.0" stroke="black" stroke-width="1" fill="none" />
<polyline points="418.0,206.0,414.0,218.0" stroke="black" stroke-width="1" fill="none" />
<polyline points="446.0,226.0,444.0,242.0" stroke="black" stroke-width="1" fill="none" />
<polyline points="338.0,64.0,348.0,48.0,348.0,32.0,338.0,16.0" stroke="black" stroke-width="1" fill="none" />
</svg>