<svg xmlns="http://www.w3.org/2000/svg" height="256px" width="476px" version="1.1"><polyline points="458.0,0.0,442.0,16.0,444.0,24.0,448.0,32.0,444.0,48.0,434.0,56.0,438.0,62.0,432.0,78.0,426.0,84.0,420.0,100.0,408.0,116.0,412.0,128.0,420.0,144.0,420.0,156.0,404.0,172.0,396.0,176.0,390.0,192.0,386.0,194.0,364.0,202.0,348.0,222.0,338.0,238.0,334.0,230.0,350.0,210.0,366.0,190.0,376.0,162.0,392.0,148.0,400.0,160.0" stroke="black" stroke-width="1" fill="none" />
<polyline points="394.0,178.0,420.0,174.0,420.0,190.0,422.0,204.0,420.0,220.0,430.0,236.0,424.0,238.0,432.0,226.0,436.0,232.0,442.0,248.0,454.0,252.0,466.0,256.0,466.0,250.0" stroke="black" stroke-width="1" fill="none" />
<polyline points="404.0,240.0,388.0,238.0" stroke="black" stroke-width="1" fill="none" />
<polyline points="396.0,222.0,394.0,206.0,374.0,200.0,358.0,208.0" stroke="black" stroke-width="1" fill="none" />
<polyline points="336.0,212.0,322.0,224.0,306.0,224.0,290.0,232.0" stroke="black" stroke-width="1" fill="none" />
<polyline points="292.0,226.0,290.0,242.0,296.0,252.0,306.0,252.0,322.0,242.0" stroke="black" stroke-width="1" fill="none" />
<polyline points="308.0,230.0,304.0,246.0" stroke="black" stroke-width="1" fill="none" />
<polyline points="302.0,230.0,298.0,246.0,324.0,252.0,340.0,250.0" stroke="black" stroke-width="1" fill="none" />
<polyline points="346.0,236.0,332.0,220.0,342.0,204.0,354.0,188.0,370.0,172.0,382.0,158.0,390.0,156.0,398.0,140.0,386.0,138.0,392.0,120.0,390.0,104.0,400.0,88.0,414.0,72.0,422.0,56.0,420.0,40.0,422.0,24.0,428.0,22.0,434.0,16.0,440.0,0.0,428.0,10.0" stroke="black" stroke-width="1" fill="none" />
<polyline points="442.0,26.0,458.0,16.0" stroke="black" stroke-width="1" fill="none" />
<polyline points="470.0,30.0,462.0,22.0,446.0,36.0,438.0,42.0,412.0,74.0,390.0,88.0,374.0,82.0,358.0,88.0,342.0,88.0,326.0,88.0,310.0,94.0" stroke="black" stroke-width="1" fill="none" />
<polyline points="296.0,70.0,312.0,68.0,328.0,68.0,344.0,70.0,360.0,74.0" stroke="black" stroke-width="1" fill="none" />
<polyline points="388.0,68.0,404.0,60.0" stroke="black" stroke-width="1" fill="none" />
<polyline points="414.0,62.0,414.0,46.0,398.0,40.0" stroke="black" stroke-width="1" fill="none" />
<polyline points="390.0,46.0,402.0,42.0,408.0,58.0,394.0,62.0,392.0,78.0,394.0,78.0,404.0,66.0" stroke="black" stroke-width="1" fill="none" />
<polyline points="400.0,94.0,416.0,84.0,440.0,60.0" stroke="black" stroke-width="1" fill="none" />
<polyline points="440.0,32.0,432.0,40.0,426.0,56.0,422.0,72.0,414.0,88.0,406.0,100.0,424.0,98.0" stroke="black" stroke-width="1" fill="none" />
<polyline points="422.0,112.0,438.0,106.0,454.0,90.0,470.0,72.0,474.0,84.0" stroke="black" stroke-width="1" fill="none" />
<polyline points="474.0,32.0,476.0,48.0,476.0,64.0,464.0,80.0,458.0,84.0,442.0,100.0,438.0,116.0,436.0,122.0" stroke="black" stroke-width="1" fill="none" />
<polyline points="418.0,134.0,406.0,142.0,388.0,128.0" stroke="black" stroke-width="1" fill="none" />
<polyline points="382.0,134.0,382.0,118.0,382.0,102.0,366.0,80.0,360.0,70.0,370.0,68.0,370.0,52.0,370.0,36.0,388.0,28.0,402.0,16.0,386.0,22.0,370.0,30.0" stroke="black" stroke-width="1" fill="none" />
<polyline points="374.0,40.0,380.0,56.0,382.0,68.0,392.0,38.0,408.0,36.0,422.0,44.0,432.0,24.0,448.0,10.0,460.0,6.0,466.0,10.0" stroke="black" stroke-width="1" fill="none" />
<polyline points="476.0,0.0,476.0,16.0,468.0,38.0,464.0,54.0,452.0,58.0,454.0,66.0,440.0,78.0,434.0,84.0,450.0,68.0" stroke="black" stroke-width="1" fill="none" />
<polyline points="418.0,32.0,416.0,22.0,400.0,30.0" stroke="black" stroke-width="1" fill="none" />
<polyline points="374.0,40.0,394.0,30.0,388.0,40.0,390.0,56.0,376.0,72.0,390.0,88.0,396.0,114.0,400.0,130.0,406.0,142.0,414.0,152.0,410.0,168.0,410.0,184.0,410.0,200.0,414.0,216.0,410.0,232.0,402.0,248.0,404.0,254.0,420.0,254.0,436.0,250.0,450.0,254.0,448.0,248.0,464.0,244.0" stroke="black" stroke-width="1" fill="none" />
<polyline points="400.0,198.0,386.0,190.0,378.0,182.0,374.0,210.0,358.0,222.0,358.0,234.0,362.0,218.0,380.0,202.0" stroke="black" stroke-width="1" fill="none" />
<polyline points="404.0,190.0,406.0,206.0,400.0,216.0,402.0,232.0,392.0,240.0,408.0,244.0,410.0,248.0" stroke="black" stroke-width="1" fill="none" />
<polyline points="344.0,238.0,324.0,236.0,308.0,230.0" stroke="black" stroke-width="1" fill="none" />
<polyline points="368.0,96.0,352.0,98.0,338.0,98.0,330.0,94.0,336.0,86.0,324.0,62.0,308.0,60.0,292.0,60.0" stroke="black" stroke-width="1" fill="none" />
<polyline points="294.0,54.0,292.0,60.0,290.0,76.0,290.0,92.0,302.0,98.0,306.0,84.0,306.0,74.0,320.0,78.0,324.0,74.0,340.0,78.0,360.0,82.0,378.0,90.0" stroke="black" stroke-width="1" fill="none" />
<polyline points="382.0,4.0,368.0,2.0,352.0,2.0" stroke="black" stroke-width="1" fill="none" />
</svg>