<svg xmlns="http://www.w3.org/2000/svg" height="254px" width="504px" version="1.1"><polyline points="468.0,18.0,472.0,34.0,474.0,50.0,498.0,56.0,498.0,64.0" stroke="black" stroke-width="1" fill="none" />
<polyline points="504.0,46.0,504.0,30.0,490.0,20.0" stroke="black" stroke-width="1" fill="none" />
<polyline points="484.0,18.0,482.0,34.0" stroke="black" stroke-width="1" fill="none" />
<polyline points="482.0,20.0,490.0,20.0,488.0,36.0,484.0,52.0,488.0,68.0,492.0,70.0" stroke="black" stroke-width="1" fill="none" />
<polyline points="490.0,50.0,496.0,30.0,500.0,8.0,484.0,4.0" stroke="black" stroke-width="1" fill="none" />
<polyline points="442.0,14.0,446.0,6.0,440.0,6.0,434.0,2.0" stroke="black" stroke-width="1" fill="none" />
<polyline points="414.0,4.0,398.0,2.0" stroke="black" stroke-width="1" fill="none" />
<polyline points="392.0,20.0,376.0,16.0" stroke="black" stroke-width="1" fill="none" />
<polyline points="368.0,26.0,382.0,16.0,384.0,32.0,366.0,34.0,368.0,50.0,348.0,70.0,354.0,68.0" stroke="black" stroke-width="1" fill="none" />
<polyline points="362.0,48.0,378.0,52.0,394.0,50.0" stroke="black" stroke-width="1" fill="none" />
<polyline points="374.0,30.0,394.0,22.0,392.0,38.0,406.0,26.0,398.0,42.0,392.0,58.0,400.0,78.0,414.0,72.0,412.0,82.0,408.0,98.0,396.0,114.0,400.0,118.0,398.0,132.0,414.0,132.0,430.0,140.0,446.0,142.0,450.0,146.0,464.0,138.0" stroke="black" stroke-width="1" fill="none" />
<polyline points="444.0,156.0,428.0,154.0" stroke="black" stroke-width="1" fill="none" />
<polyline points="436.0,150.0,420.0,148.0" stroke="black" stroke-width="1" fill="none" />
<polyline points="402.0,150.0,418.0,148.0,440.0,154.0,444.0,164.0,456.0,174.0" stroke="black" stroke-width="1" fill="none" />
<polyline points="472.0,194.0,472.0,212.0,476.0,228.0,486.0,240.0,490.0,244.0" stroke="black" stroke-width="1" fill="none" />
<polyline points="496.0,220.0,480.0,218.0" stroke="black" stroke-width="1" fill="none" />
<polyline points="474.0,224.0,480.0,232.0,496.0,232.0" stroke="black" stroke-width="1" fill="none" />
<polyline points="500.0,204.0,484.0,206.0" stroke="black" stroke-width="1" fill="none" />
<polyline points="440.0,190.0,424.0,190.0,420.0,184.0" stroke="black" stroke-width="1" fill="none" />
<polyline points="386.0,174.0,386.0,168.0,382.0,168.0,376.0,188.0" stroke="black" stroke-width="1" fill="none" />
<polyline points="386.0,162.0,402.0,174.0,420.0,168.0,416.0,182.0,434.0,184.0,434.0,198.0,434.0,206.0,442.0,198.0,460.0,226.0,458.0,242.0" stroke="black" stroke-width="1" fill="none" />
<polyline points="498.0,208.0,482.0,212.0,466.0,216.0,456.0,190.0,440.0,168.0,424.0,158.0,416.0,140.0,400.0,140.0" stroke="black" stroke-width="1" fill="none" />
<polyline points="380.0,146.0,396.0,148.0,436.0,158.0,438.0,182.0,448.0,198.0,448.0,214.0,458.0,220.0,450.0,236.0,452.0,252.0" stroke="black" stroke-width="1" fill="none" />
<polyline points="438.0,132.0,436.0,128.0,416.0,124.0,400.0,118.0" stroke="black" stroke-width="1" fill="none" />
<polyline points="394.0,120.0,410.0,106.0,426.0,106.0,442.0,106.0,458.0,106.0,460.0,134.0,454.0,156.0,450.0,170.0,456.0,186.0,464.0,198.0,480.0,208.0,484.0,216.0,502.0,228.0,502.0,244.0" stroke="black" stroke-width="1" fill="none" />
<polyline points="488.0,254.0,472.0,254.0,450.0,248.0,464.0,242.0,468.0,222.0,462.0,206.0,454.0,190.0,442.0,174.0,420.0,158.0,400.0,142.0,386.0,126.0,390.0,110.0,384.0,100.0,404.0,74.0,392.0,80.0,376.0,78.0" stroke="black" stroke-width="1" fill="none" />
<polyline points="374.0,88.0,376.0,104.0,376.0,120.0,376.0,136.0,376.0,158.0,374.0,174.0,374.0,190.0,366.0,206.0,356.0,222.0" stroke="black" stroke-width="1" fill="none" />
<polyline points="372.0,204.0,342.0,206.0,358.0,204.0,362.0,188.0,366.0,170.0,368.0,154.0,368.0,138.0,368.0,122.0,366.0,106.0,366.0,90.0,362.0,70.0,356.0,60.0,352.0,44.0,352.0,28.0,358.0,12.0,348.0,10.0,354.0,8.0" stroke="black" stroke-width="1" fill="none" />
<polyline points="348.0,8.0,364.0,2.0,376.0,10.0,364.0,26.0,360.0,42.0,364.0,58.0,374.0,58.0,384.0,64.0,402.0,52.0" stroke="black" stroke-width="1" fill="none" />
<polyline points="414.0,58.0,402.0,64.0,386.0,74.0,394.0,70.0,410.0,54.0,416.0,38.0,416.0,22.0,416.0,6.0,392.0,8.0,376.0,10.0,360.0,34.0" stroke="black" stroke-width="1" fill="none" />
<polyline points="346.0,26.0,344.0,42.0,346.0,58.0" stroke="black" stroke-width="1" fill="none" />
<polyline points="350.0,64.0,334.0,74.0,318.0,78.0" stroke="black" stroke-width="1" fill="none" />
<polyline points="302.0,72.0,296.0,76.0,298.0,100.0,302.0,116.0,304.0,132.0,298.0,148.0,306.0,148.0,312.0,160.0,300.0,168.0,310.0,196.0,326.0,196.0,330.0,204.0,334.0,208.0,350.0,216.0,366.0,220.0,372.0,206.0,364.0,222.0" stroke="black" stroke-width="1" fill="none" />
<polyline points="348.0,194.0,348.0,178.0,346.0,176.0" stroke="black" stroke-width="1" fill="none" />
<polyline points="334.0,148.0,320.0,132.0,320.0,124.0,316.0,116.0" stroke="black" stroke-width="1" fill="none" />
<polyline points="314.0,110.0,334.0,94.0,310.0,96.0,310.0,112.0,312.0,128.0,332.0,144.0,330.0,160.0,322.0,170.0,284.0,190.0,268.0,190.0,278.0,182.0,294.0,180.0,312.0,196.0,320.0,192.0,332.0,198.0,348.0,210.0" stroke="black" stroke-width="1" fill="none" />
<polyline points="354.0,188.0,358.0,172.0,346.0,154.0,342.0,150.0,348.0,142.0,342.0,140.0,330.0,158.0,314.0,156.0,310.0,150.0,296.0,128.0,292.0,112.0,294.0,96.0,302.0,92.0,312.0,76.0,318.0,68.0,302.0,70.0,286.0,86.0" stroke="black" stroke-width="1" fill="none" />
<polyline points="294.0,88.0,310.0,74.0,326.0,70.0,342.0,66.0" stroke="black" stroke-width="1" fill="none" />
<polyline points="316.0,96.0,332.0,96.0,348.0,90.0,356.0,100.0,356.0,116.0,360.0,132.0,350.0,148.0" stroke="black" stroke-width="1" fill="none" />
<polyline points="360.0,136.0,362.0,152.0,386.0,156.0,402.0,160.0,418.0,166.0,434.0,176.0,450.0,200.0,476.0,204.0,492.0,198.0" stroke="black" stroke-width="1" fill="none" />
<polyline points="382.0,190.0,366.0,204.0,350.0,224.0,334.0,218.0,318.0,210.0,302.0,198.0,286.0,206.0,270.0,208.0,262.0,200.0,262.0,184.0,262.0,172.0,264.0,156.0" stroke="black" stroke-width="1" fill="none" />
<polyline points="262.0,184.0,278.0,174.0,294.0,174.0,310.0,176.0,316.0,164.0,332.0,166.0" stroke="black" stroke-width="1" fill="none" />
<polyline points="328.0,206.0,302.0,204.0,288.0,220.0,280.0,214.0,264.0,214.0" stroke="black" stroke-width="1" fill="none" />
<polyline points="264.0,220.0,280.0,226.0" stroke="black" stroke-width="1" fill="none" />
<polyline points="276.0,198.0,304.0,202.0,274.0,196.0,290.0,188.0" stroke="black" stroke-width="1" fill="none" />
<polyline points="306.0,204.0,314.0,220.0,326.0,222.0,328.0,224.0,344.0,228.0" stroke="black" stroke-width="1" fill="none" />
<polyline points="388.0,114.0,388.0,94.0,382.0,114.0,390.0,98.0" stroke="black" stroke-width="1" fill="none" />
<polyline points="396.0,90.0,380.0,88.0,358.0,84.0,342.0,82.0,326.0,88.0,310.0,96.0,318.0,106.0,316.0,82.0,300.0,94.0" stroke="black" stroke-width="1" fill="none" />
<polyline points="418.0,78.0,416.0,94.0,420.0,104.0,424.0,118.0,440.0,118.0,456.0,124.0" stroke="black" stroke-width="1" fill="none" />
</svg>