<svg xmlns="http://www.w3.org/2000/svg" height="254px" width="504px" version="1.1"><polyline points="262.0,0.0,262.0,16.0,266.0,16.0" stroke="black" stroke-width="1" fill="none" />
<polyline points="296.0,12.0,302.0,28.0,304.0,44.0,316.0,66.0,324.0,82.0,334.0,94.0,324.0,108.0,344.0,114.0,366.0,116.0,394.0,108.0,410.0,112.0,426.0,104.0" stroke="black" stroke-width="1" fill="none" />
<polyline points="406.0,76.0,376.0,70.0,372.0,54.0,374.0,38.0,394.0,38.0,404.0,38.0,388.0,30.0" stroke="black" stroke-width="1" fill="none" />
<polyline points="374.0,38.0,390.0,26.0,406.0,30.0,408.0,50.0,410.0,66.0" stroke="black" stroke-width="1" fill="none" />
<polyline points="432.0,46.0,416.0,26.0" stroke="black" stroke-width="1" fill="none" />
<polyline points="404.0,20.0,422.0,36.0,430.0,52.0,430.0,68.0,420.0,84.0" stroke="black" stroke-width="1" fill="none" />
<polyline points="394.0,82.0,386.0,74.0,378.0,58.0,392.0,54.0,382.0,38.0,380.0,48.0,378.0,46.0,380.0,62.0" stroke="black" stroke-width="1" fill="none" />
<polyline points="376.0,44.0,392.0,42.0,402.0,30.0,418.0,46.0,422.0,62.0,414.0,78.0" stroke="black" stroke-width="1" fill="none" />
<polyline points="418.0,70.0,404.0,74.0,388.0,80.0,372.0,76.0,358.0,62.0,354.0,82.0,352.0,98.0,346.0,86.0,356.0,66.0,356.0,50.0,366.0,34.0,364.0,18.0,356.0,16.0" stroke="black" stroke-width="1" fill="none" />
<polyline points="364.0,24.0,380.0,20.0,394.0,16.0,408.0,22.0,424.0,24.0,440.0,32.0" stroke="black" stroke-width="1" fill="none" />
<polyline points="432.0,22.0,448.0,30.0,464.0,10.0,478.0,8.0" stroke="black" stroke-width="1" fill="none" />
<polyline points="468.0,0.0,462.0,16.0,448.0,22.0,454.0,28.0,450.0,34.0,444.0,50.0,436.0,66.0,460.0,48.0,476.0,24.0,492.0,18.0,504.0,6.0" stroke="black" stroke-width="1" fill="none" />
<polyline points="502.0,0.0,494.0,16.0,478.0,22.0,464.0,38.0,458.0,54.0,450.0,70.0,446.0,86.0,430.0,100.0,406.0,116.0,392.0,122.0,390.0,140.0,392.0,156.0,398.0,172.0,406.0,180.0,416.0,196.0,426.0,212.0,444.0,230.0,454.0,250.0" stroke="black" stroke-width="1" fill="none" />
<polyline points="438.0,252.0,422.0,250.0,410.0,254.0,394.0,254.0,390.0,244.0,402.0,236.0,412.0,220.0,392.0,212.0,394.0,198.0,396.0,192.0,380.0,182.0,364.0,194.0,348.0,208.0,332.0,222.0,316.0,222.0,300.0,210.0,284.0,210.0,280.0,220.0,264.0,214.0,284.0,214.0,262.0,210.0,262.0,194.0,268.0,178.0,262.0,190.0" stroke="black" stroke-width="1" fill="none" />
<polyline points="270.0,184.0,286.0,178.0,302.0,180.0,318.0,200.0,316.0,198.0,336.0,202.0,332.0,208.0,322.0,214.0,338.0,206.0" stroke="black" stroke-width="1" fill="none" />
<polyline points="308.0,198.0,292.0,198.0,276.0,206.0,270.0,208.0,288.0,188.0,272.0,194.0,274.0,198.0,298.0,198.0,296.0,214.0,286.0,222.0,304.0,220.0,310.0,234.0" stroke="black" stroke-width="1" fill="none" />
<polyline points="302.0,218.0,302.0,234.0,312.0,228.0,328.0,228.0,344.0,226.0,356.0,210.0,372.0,196.0,370.0,196.0,354.0,212.0,362.0,214.0,376.0,206.0,402.0,212.0,416.0,230.0,420.0,230.0,424.0,246.0" stroke="black" stroke-width="1" fill="none" />
<polyline points="430.0,242.0,414.0,242.0,412.0,226.0" stroke="black" stroke-width="1" fill="none" />
<polyline points="388.0,230.0,392.0,222.0,408.0,224.0,424.0,236.0,440.0,244.0,456.0,242.0,472.0,238.0,488.0,254.0" stroke="black" stroke-width="1" fill="none" />
<polyline points="504.0,250.0,504.0,234.0,496.0,228.0,494.0,224.0,478.0,224.0,462.0,230.0,446.0,234.0,432.0,226.0,424.0,222.0,416.0,206.0,404.0,190.0,390.0,174.0,384.0,158.0,382.0,142.0,384.0,126.0,386.0,110.0,384.0,88.0,374.0,80.0,360.0,78.0,366.0,68.0,362.0,52.0,358.0,34.0,356.0,20.0,358.0,26.0,358.0,34.0" stroke="black" stroke-width="1" fill="none" />
<polyline points="338.0,30.0,336.0,46.0,336.0,56.0" stroke="black" stroke-width="1" fill="none" />
<polyline points="344.0,94.0,360.0,100.0,376.0,90.0,402.0,100.0,418.0,100.0" stroke="black" stroke-width="1" fill="none" />
<polyline points="444.0,112.0,436.0,102.0,428.0,114.0,424.0,94.0,436.0,78.0,444.0,62.0,452.0,46.0,440.0,50.0,430.0,34.0,412.0,18.0,400.0,8.0,384.0,12.0,368.0,16.0" stroke="black" stroke-width="1" fill="none" />
<polyline points="416.0,12.0,438.0,26.0,432.0,40.0" stroke="black" stroke-width="1" fill="none" />
<polyline points="458.0,62.0,472.0,48.0,470.0,64.0,466.0,72.0,464.0,80.0,464.0,86.0,480.0,88.0,496.0,86.0" stroke="black" stroke-width="1" fill="none" />
<polyline points="484.0,78.0,500.0,70.0" stroke="black" stroke-width="1" fill="none" />
<polyline points="494.0,46.0,478.0,50.0,474.0,46.0,476.0,54.0,466.0,68.0,488.0,68.0,492.0,52.0,496.0,56.0,504.0,60.0" stroke="black" stroke-width="1" fill="none" />
<polyline points="494.0,30.0,478.0,28.0" stroke="black" stroke-width="1" fill="none" />
<polyline points="470.0,36.0,486.0,36.0,502.0,38.0" stroke="black" stroke-width="1" fill="none" />
<polyline points="504.0,14.0,500.0,30.0,502.0,40.0,502.0,56.0,484.0,60.0,478.0,66.0,478.0,90.0,468.0,100.0,486.0,100.0" stroke="black" stroke-width="1" fill="none" />
<polyline points="502.0,82.0,502.0,68.0,492.0,84.0,476.0,80.0,460.0,72.0" stroke="black" stroke-width="1" fill="none" />
<polyline points="452.0,76.0,462.0,92.0,484.0,94.0,500.0,90.0" stroke="black" stroke-width="1" fill="none" />
<polyline points="452.0,44.0,442.0,60.0,436.0,76.0,420.0,84.0,404.0,94.0,378.0,98.0,368.0,108.0,352.0,112.0,336.0,110.0,336.0,114.0,334.0,98.0,322.0,82.0,322.0,68.0,320.0,52.0,316.0,36.0,306.0,22.0,304.0,6.0,304.0,2.0" stroke="black" stroke-width="1" fill="none" />
<polyline points="316.0,2.0,338.0,2.0,326.0,8.0,330.0,24.0,328.0,40.0,332.0,56.0,336.0,72.0,340.0,88.0,356.0,88.0" stroke="black" stroke-width="1" fill="none" />
<polyline points="374.0,124.0,374.0,140.0,374.0,156.0,366.0,172.0,358.0,178.0,346.0,198.0,336.0,194.0,352.0,186.0,362.0,178.0,388.0,166.0,404.0,172.0,404.0,188.0,420.0,214.0,436.0,220.0,452.0,224.0,468.0,222.0,488.0,210.0,492.0,214.0" stroke="black" stroke-width="1" fill="none" />
<polyline points="476.0,238.0,478.0,254.0" stroke="black" stroke-width="1" fill="none" />
<polyline points="398.0,240.0,402.0,224.0,372.0,232.0" stroke="black" stroke-width="1" fill="none" />
<polyline points="334.0,236.0,314.0,222.0,316.0,212.0,306.0,196.0,294.0,180.0,304.0,176.0,316.0,186.0,300.0,172.0,284.0,170.0,268.0,172.0" stroke="black" stroke-width="1" fill="none" />
<polyline points="338.0,230.0,340.0,214.0,360.0,198.0,380.0,182.0" stroke="black" stroke-width="1" fill="none" />
<polyline points="378.0,166.0,366.0,182.0,356.0,186.0,372.0,178.0,392.0,194.0,408.0,208.0" stroke="black" stroke-width="1" fill="none" />
</svg>