<svg xmlns="http://www.w3.org/2000/svg" height="256px" width="434px" version="1.1"><polyline points="348.0,8.0,340.0,24.0,350.0,30.0,344.0,44.0,346.0,48.0,362.0,50.0,378.0,54.0,386.0,40.0,396.0,34.0,408.0,48.0,424.0,54.0,434.0,54.0" stroke="black" stroke-width="1" fill="none" />
<polyline points="428.0,40.0,426.0,56.0,434.0,64.0,434.0,78.0,434.0,94.0,412.0,102.0,414.0,118.0,410.0,122.0,402.0,132.0,406.0,140.0,400.0,156.0,394.0,172.0,376.0,176.0,386.0,180.0,374.0,198.0,392.0,194.0,400.0,212.0" stroke="black" stroke-width="1" fill="none" />
<polyline points="384.0,210.0,400.0,194.0,394.0,172.0,378.0,182.0" stroke="black" stroke-width="1" fill="none" />
<polyline points="358.0,178.0,368.0,180.0,364.0,196.0,366.0,198.0,382.0,208.0" stroke="black" stroke-width="1" fill="none" />
<polyline points="394.0,218.0,378.0,218.0,362.0,204.0" stroke="black" stroke-width="1" fill="none" />
<polyline points="338.0,228.0,346.0,226.0,344.0,210.0,354.0,206.0,356.0,190.0,362.0,174.0,368.0,158.0,382.0,154.0,390.0,126.0,402.0,120.0,390.0,104.0,374.0,106.0,358.0,104.0" stroke="black" stroke-width="1" fill="none" />
<polyline points="356.0,112.0,372.0,112.0,388.0,110.0,404.0,122.0" stroke="black" stroke-width="1" fill="none" />
<polyline points="404.0,132.0,388.0,134.0,372.0,132.0" stroke="black" stroke-width="1" fill="none" />
<polyline points="358.0,120.0,374.0,116.0,390.0,116.0,376.0,132.0,382.0,122.0,400.0,124.0" stroke="black" stroke-width="1" fill="none" />
<polyline points="428.0,96.0,412.0,102.0,388.0,92.0,372.0,88.0,362.0,92.0,364.0,84.0,342.0,98.0,342.0,86.0" stroke="black" stroke-width="1" fill="none" />
<polyline points="330.0,68.0,338.0,62.0,356.0,58.0" stroke="black" stroke-width="1" fill="none" />
<polyline points="358.0,66.0,374.0,66.0,374.0,72.0,378.0,80.0,394.0,86.0,410.0,80.0" stroke="black" stroke-width="1" fill="none" />
<polyline points="428.0,78.0,420.0,94.0,416.0,90.0,404.0,78.0,402.0,62.0" stroke="black" stroke-width="1" fill="none" />
<polyline points="408.0,54.0,396.0,70.0,386.0,72.0,378.0,54.0,376.0,46.0,378.0,36.0,370.0,36.0,378.0,26.0,362.0,22.0,346.0,24.0" stroke="black" stroke-width="1" fill="none" />
<polyline points="342.0,14.0,358.0,6.0,374.0,6.0,394.0,14.0,398.0,30.0,390.0,40.0,390.0,56.0,362.0,68.0,384.0,84.0,376.0,94.0,388.0,100.0,406.0,110.0,412.0,122.0,422.0,126.0" stroke="black" stroke-width="1" fill="none" />
<polyline points="404.0,152.0,388.0,146.0,376.0,162.0,360.0,164.0,348.0,158.0,332.0,156.0" stroke="black" stroke-width="1" fill="none" />
<polyline points="336.0,140.0,352.0,146.0,362.0,146.0,378.0,142.0,378.0,148.0" stroke="black" stroke-width="1" fill="none" />
<polyline points="422.0,136.0,408.0,136.0,430.0,140.0,420.0,128.0,430.0,112.0,434.0,96.0" stroke="black" stroke-width="1" fill="none" />
<polyline points="394.0,68.0,398.0,52.0" stroke="black" stroke-width="1" fill="none" />
<polyline points="392.0,8.0,376.0,8.0" stroke="black" stroke-width="1" fill="none" />
<polyline points="358.0,10.0,358.0,14.0,346.0,32.0,344.0,48.0,336.0,64.0,340.0,86.0,356.0,102.0,348.0,112.0,356.0,118.0,358.0,134.0,362.0,146.0,354.0,150.0,354.0,166.0,350.0,180.0,346.0,196.0,358.0,202.0,372.0,218.0,368.0,230.0,370.0,242.0,366.0,256.0,362.0,254.0,346.0,254.0,340.0,240.0,354.0,242.0,350.0,232.0,340.0,256.0,338.0,248.0,330.0,244.0,330.0,228.0,336.0,212.0,334.0,196.0,336.0,180.0,344.0,164.0,332.0,148.0,330.0,132.0,338.0,116.0,342.0,100.0,330.0,102.0,332.0,86.0,330.0,70.0,330.0,54.0,330.0,38.0,332.0,22.0,332.0,6.0,342.0,0.0,334.0,10.0" stroke="black" stroke-width="1" fill="none" />
</svg>