<svg xmlns="http://www.w3.org/2000/svg" height="254px" width="462px" version="1.1"><polyline points="304.0,0.0,304.0,16.0,306.0,32.0,306.0,18.0,320.0,10.0,320.0,22.0,346.0,40.0,356.0,36.0,372.0,28.0,388.0,28.0,404.0,28.0,422.0,30.0,454.0,24.0" stroke="black" stroke-width="1" fill="none" />
<polyline points="448.0,22.0,432.0,32.0,420.0,66.0,412.0,86.0,412.0,100.0,396.0,114.0,392.0,122.0,390.0,132.0,388.0,116.0,386.0,106.0,402.0,102.0,410.0,86.0,418.0,70.0,432.0,62.0,424.0,56.0,430.0,40.0,436.0,24.0,462.0,14.0,454.0,8.0,438.0,10.0,438.0,14.0" stroke="black" stroke-width="1" fill="none" />
<polyline points="418.0,4.0,418.0,20.0,424.0,32.0,418.0,48.0,412.0,64.0,404.0,80.0,388.0,96.0,370.0,112.0,358.0,128.0,356.0,144.0,358.0,160.0,368.0,164.0,374.0,170.0,378.0,168.0,376.0,184.0,384.0,200.0,394.0,216.0,400.0,232.0,398.0,250.0,410.0,244.0,426.0,218.0,430.0,228.0" stroke="black" stroke-width="1" fill="none" />
<polyline points="420.0,214.0,436.0,216.0,452.0,210.0" stroke="black" stroke-width="1" fill="none" />
<polyline points="440.0,186.0,426.0,188.0,426.0,188.0,432.0,190.0,432.0,200.0" stroke="black" stroke-width="1" fill="none" />
<polyline points="434.0,210.0,418.0,214.0,402.0,204.0,396.0,206.0,396.0,194.0,386.0,176.0,370.0,172.0,370.0,176.0,386.0,192.0" stroke="black" stroke-width="1" fill="none" />
<polyline points="408.0,182.0,418.0,174.0,402.0,182.0,410.0,186.0,408.0,202.0,410.0,218.0,406.0,234.0,414.0,250.0" stroke="black" stroke-width="1" fill="none" />
<polyline points="428.0,234.0,450.0,214.0,446.0,208.0,454.0,192.0,444.0,190.0,428.0,170.0,412.0,164.0" stroke="black" stroke-width="1" fill="none" />
<polyline points="406.0,178.0,422.0,180.0,438.0,176.0,454.0,184.0,462.0,180.0" stroke="black" stroke-width="1" fill="none" />
<polyline points="422.0,204.0,418.0,220.0,416.0,236.0,410.0,252.0" stroke="black" stroke-width="1" fill="none" />
<polyline points="388.0,238.0,382.0,222.0,380.0,212.0,364.0,206.0" stroke="black" stroke-width="1" fill="none" />
<polyline points="360.0,214.0,364.0,224.0,368.0,236.0" stroke="black" stroke-width="1" fill="none" />
<polyline points="382.0,234.0,366.0,232.0,350.0,228.0" stroke="black" stroke-width="1" fill="none" />
<polyline points="360.0,214.0,376.0,224.0,390.0,228.0" stroke="black" stroke-width="1" fill="none" />
<polyline points="382.0,218.0,378.0,202.0,368.0,186.0,352.0,182.0,348.0,216.0,338.0,230.0,344.0,214.0,352.0,204.0,366.0,194.0,350.0,208.0" stroke="black" stroke-width="1" fill="none" />
<polyline points="318.0,210.0,316.0,230.0" stroke="black" stroke-width="1" fill="none" />
<polyline points="320.0,252.0,324.0,236.0,328.0,220.0,334.0,204.0,340.0,188.0,336.0,184.0,322.0,188.0,306.0,202.0" stroke="black" stroke-width="1" fill="none" />
<polyline points="304.0,184.0,320.0,174.0,304.0,186.0,304.0,202.0,302.0,218.0,306.0,218.0,320.0,224.0,316.0,240.0" stroke="black" stroke-width="1" fill="none" />
<polyline points="322.0,162.0,338.0,162.0" stroke="black" stroke-width="1" fill="none" />
<polyline points="342.0,154.0,338.0,150.0,322.0,152.0" stroke="black" stroke-width="1" fill="none" />
<polyline points="348.0,114.0,348.0,130.0,348.0,146.0,344.0,172.0,350.0,186.0,344.0,202.0,338.0,218.0,336.0,234.0,350.0,242.0,342.0,238.0,358.0,232.0" stroke="black" stroke-width="1" fill="none" />
<polyline points="380.0,114.0,364.0,108.0" stroke="black" stroke-width="1" fill="none" />
<polyline points="394.0,78.0,398.0,62.0,396.0,42.0" stroke="black" stroke-width="1" fill="none" />
<polyline points="402.0,36.0,386.0,36.0" stroke="black" stroke-width="1" fill="none" />
<polyline points="376.0,26.0,368.0,36.0,352.0,44.0,346.0,58.0" stroke="black" stroke-width="1" fill="none" />
<polyline points="352.0,64.0,368.0,46.0,384.0,44.0,390.0,48.0,404.0,52.0,404.0,68.0,400.0,88.0,396.0,114.0,400.0,130.0" stroke="black" stroke-width="1" fill="none" />
<polyline points="372.0,96.0,370.0,96.0,384.0,80.0,384.0,64.0,392.0,62.0,394.0,62.0,378.0,50.0,362.0,54.0" stroke="black" stroke-width="1" fill="none" />
<polyline points="374.0,50.0,366.0,66.0,352.0,68.0,354.0,84.0,350.0,94.0,364.0,84.0,380.0,74.0,382.0,84.0,392.0,80.0" stroke="black" stroke-width="1" fill="none" />
<polyline points="432.0,50.0,438.0,34.0,426.0,18.0,434.0,2.0,418.0,4.0" stroke="black" stroke-width="1" fill="none" />
<polyline points="382.0,18.0,366.0,18.0" stroke="black" stroke-width="1" fill="none" />
<polyline points="348.0,10.0,344.0,26.0,370.0,44.0,350.0,52.0,338.0,68.0,340.0,84.0,344.0,100.0,338.0,104.0,338.0,120.0,338.0,136.0,338.0,152.0,352.0,170.0,330.0,166.0,330.0,182.0,322.0,200.0,310.0,216.0,308.0,232.0,312.0,252.0,328.0,254.0,342.0,248.0,358.0,244.0,374.0,244.0,390.0,242.0" stroke="black" stroke-width="1" fill="none" />
<polyline points="392.0,92.0,376.0,102.0,348.0,98.0,344.0,82.0,344.0,66.0,338.0,68.0" stroke="black" stroke-width="1" fill="none" />
<polyline points="310.0,36.0,312.0,30.0,328.0,32.0,322.0,48.0,324.0,64.0,332.0,90.0,330.0,110.0,340.0,118.0,340.0,130.0,366.0,124.0,374.0,130.0,364.0,140.0,366.0,158.0,368.0,154.0,380.0,164.0,382.0,184.0,392.0,194.0,396.0,206.0,404.0,212.0,392.0,232.0" stroke="black" stroke-width="1" fill="none" />
<polyline points="432.0,46.0,412.0,60.0,396.0,94.0,386.0,122.0,370.0,120.0,348.0,114.0,332.0,94.0,326.0,112.0,322.0,104.0,324.0,88.0,330.0,72.0,328.0,62.0,338.0,54.0,342.0,38.0,338.0,22.0,346.0,6.0,340.0,6.0,324.0,2.0" stroke="black" stroke-width="1" fill="none" />
</svg>