<svg xmlns="http://www.w3.org/2000/svg" height="254px" width="466px" version="1.1"><polyline points="466.0,14.0,466.0,30.0,466.0,46.0,446.0,62.0,442.0,78.0,430.0,94.0,428.0,112.0" stroke="black" stroke-width="1" fill="none" />
<polyline points="416.0,120.0,400.0,120.0" stroke="black" stroke-width="1" fill="none" />
<polyline points="400.0,112.0,396.0,118.0,394.0,134.0,394.0,150.0,408.0,162.0,404.0,182.0,400.0,194.0,408.0,192.0,418.0,214.0,426.0,208.0,432.0,220.0,446.0,226.0,458.0,236.0" stroke="black" stroke-width="1" fill="none" />
<polyline points="446.0,246.0,446.0,242.0,434.0,236.0,438.0,234.0,440.0,218.0,430.0,202.0,436.0,202.0,430.0,202.0" stroke="black" stroke-width="1" fill="none" />
<polyline points="444.0,206.0,458.0,222.0,466.0,238.0" stroke="black" stroke-width="1" fill="none" />
<polyline points="410.0,204.0,410.0,188.0,408.0,182.0,392.0,178.0,376.0,180.0" stroke="black" stroke-width="1" fill="none" />
<polyline points="368.0,190.0,368.0,186.0,372.0,176.0,362.0,192.0,354.0,208.0,350.0,224.0,356.0,240.0" stroke="black" stroke-width="1" fill="none" />
<polyline points="336.0,246.0,320.0,254.0,304.0,250.0,314.0,242.0,330.0,222.0,332.0,206.0,332.0,190.0,334.0,168.0,348.0,166.0,362.0,150.0,370.0,134.0,378.0,120.0,374.0,102.0,366.0,106.0,372.0,82.0,376.0,66.0,388.0,60.0,400.0,44.0,406.0,44.0,390.0,44.0,374.0,54.0" stroke="black" stroke-width="1" fill="none" />
<polyline points="380.0,64.0,380.0,60.0,392.0,42.0,372.0,42.0,366.0,58.0,364.0,74.0,368.0,86.0,384.0,90.0,400.0,80.0" stroke="black" stroke-width="1" fill="none" />
<polyline points="396.0,100.0,412.0,100.0,428.0,84.0" stroke="black" stroke-width="1" fill="none" />
<polyline points="422.0,74.0,428.0,58.0,444.0,56.0,442.0,40.0,444.0,24.0,450.0,8.0,440.0,2.0" stroke="black" stroke-width="1" fill="none" />
<polyline points="458.0,16.0,448.0,32.0,420.0,28.0,404.0,30.0,388.0,30.0,372.0,32.0,364.0,62.0" stroke="black" stroke-width="1" fill="none" />
<polyline points="358.0,48.0,368.0,36.0,358.0,52.0,356.0,68.0,358.0,84.0,364.0,100.0,356.0,116.0,340.0,124.0,332.0,132.0,344.0,132.0,360.0,134.0,376.0,124.0,398.0,106.0,414.0,106.0,430.0,92.0,452.0,60.0" stroke="black" stroke-width="1" fill="none" />
<polyline points="448.0,78.0,430.0,72.0,418.0,72.0,420.0,56.0,422.0,40.0,412.0,30.0,406.0,36.0,426.0,18.0,422.0,8.0,430.0,0.0,406.0,20.0" stroke="black" stroke-width="1" fill="none" />
<polyline points="426.0,26.0,436.0,42.0,422.0,44.0,428.0,54.0,434.0,68.0,436.0,74.0,424.0,90.0,398.0,94.0,366.0,114.0,380.0,132.0,380.0,148.0,370.0,164.0,348.0,176.0,338.0,192.0,338.0,208.0,338.0,228.0,324.0,242.0,340.0,242.0,344.0,254.0,358.0,240.0" stroke="black" stroke-width="1" fill="none" />
<polyline points="352.0,206.0,354.0,200.0,358.0,182.0,374.0,168.0,390.0,158.0,392.0,166.0,396.0,186.0,416.0,164.0,432.0,180.0,432.0,198.0,448.0,212.0,464.0,224.0" stroke="black" stroke-width="1" fill="none" />
<polyline points="362.0,248.0,348.0,244.0,344.0,226.0,346.0,210.0,350.0,194.0,364.0,178.0,378.0,158.0,362.0,168.0,346.0,180.0" stroke="black" stroke-width="1" fill="none" />
<polyline points="332.0,234.0,316.0,232.0" stroke="black" stroke-width="1" fill="none" />
<polyline points="310.0,234.0,302.0,238.0,308.0,254.0" stroke="black" stroke-width="1" fill="none" />
<polyline points="308.0,226.0,324.0,228.0" stroke="black" stroke-width="1" fill="none" />
<polyline points="340.0,112.0,324.0,100.0,308.0,98.0" stroke="black" stroke-width="1" fill="none" />
<polyline points="302.0,102.0,326.0,110.0,332.0,126.0" stroke="black" stroke-width="1" fill="none" />
<polyline points="344.0,90.0,332.0,76.0,316.0,68.0" stroke="black" stroke-width="1" fill="none" />
<polyline points="304.0,82.0,320.0,80.0,338.0,88.0,334.0,104.0,340.0,120.0,356.0,126.0,376.0,108.0,394.0,122.0,408.0,114.0,424.0,108.0,436.0,100.0" stroke="black" stroke-width="1" fill="none" />
<polyline points="412.0,88.0,396.0,96.0,410.0,76.0,408.0,78.0,392.0,76.0,376.0,72.0" stroke="black" stroke-width="1" fill="none" />
<polyline points="388.0,84.0,364.0,94.0,348.0,76.0" stroke="black" stroke-width="1" fill="none" />
<polyline points="324.0,90.0,308.0,88.0" stroke="black" stroke-width="1" fill="none" />
<polyline points="298.0,60.0,298.0,60.0,300.0,76.0,298.0,92.0,298.0,108.0,302.0,114.0,312.0,110.0,326.0,108.0,344.0,108.0,348.0,102.0,364.0,100.0" stroke="black" stroke-width="1" fill="none" />
<polyline points="394.0,106.0,388.0,122.0,388.0,138.0,388.0,154.0,412.0,162.0,420.0,176.0,422.0,192.0,410.0,198.0,410.0,208.0,422.0,224.0,428.0,230.0,422.0,242.0,422.0,252.0,438.0,254.0,454.0,254.0" stroke="black" stroke-width="1" fill="none" />
<polyline points="406.0,62.0,390.0,36.0,374.0,36.0" stroke="black" stroke-width="1" fill="none" />
<polyline points="454.0,32.0,450.0,48.0,454.0,70.0,450.0,76.0,442.0,92.0,422.0,108.0" stroke="black" stroke-width="1" fill="none" />
</svg>